<svg id="Слой_1" xmlns="http://www.w3.org/2000/svg" viewBox="0 0 216 215.5"><style>.st0{fill:#f9d8c1}</style><path class="st0" d="M39.5 214.1c-2.8-2-1.6-5.1 2-5.1 2.3 0 3.1.5 3.3 2.2.4 2.9-2.8 4.7-5.3 2.9zm12.9 0c-.9-2.4 0-5 2.1-5.4 2.6-.5 4.8 2.6 3.5 5-1.3 2.1-4.8 2.4-5.6.4zm14 0c-1.1-2.8.1-5.1 2.5-5.1 3.2 0 4.9 2.8 3.2 4.9-1.7 2-5 2.1-5.7.2zm14 0c-1.1-2.8.1-5.1 2.5-5.1 3.2 0 4.9 2.8 3.2 4.9-1.7 2-5 2.1-5.7.2zm14.6 0c-2.7-3.3 1.8-7.2 4.8-4.2 1.3 1.3 1.4 2.1.6 3.4-1.5 2.3-3.8 2.6-5.4.8zm14 0c-2.7-3.3 1.8-7.2 4.8-4.2 1.3 1.3 1.4 2.1.6 3.4-1.5 2.3-3.8 2.6-5.4.8zm14.2.2c-1.6-1.6-1.5-3.3.3-4.8 2.2-1.8 5.5-.3 5.5 2.4 0 3.3-3.5 4.7-5.8 2.4zm13.8-.3c-1.8-2.2-.1-5 3.1-5 2 0 2.4.5 2.4 3 0 2.3-.5 3.1-2.1 3.3-1.1.2-2.7-.4-3.4-1.3zm14 0c-1.8-2.2-.1-5 3.1-5 2 0 2.4.5 2.4 3 0 2.3-.5 3.1-2.1 3.3-1.1.2-2.7-.4-3.4-1.3zm14.1-.3c-1.7-3.1.4-5.1 5.1-5.1 0 0 9.1 5.7.4 6.5-3.6.3-4.7 0-5.5-1.4zm-138.5-3.8c-2-2-.4-5.4 2.4-5.4s4.4 3.5 2.4 5.4c-.9.9-2 1.6-2.4 1.6s-1.6-.7-2.4-1.6zm155.8-.6c-.7-2.2 1.9-5.2 3.9-4.5 1.7.6 3 3.4 2.3 5.1-.9 2.4-5.3 2-6.2-.6zm-165.9-6.2c-2.5-1.8-1.5-5.1 1.6-5.4 2.8-.3 4.3 1.6 3.3 4.2-.8 2.1-3 2.6-4.9 1.2zm177.1-.1c-.8-2.2-.9-2.1.9-3.9 2.2-2.2 5.7-.3 5.2 2.7-.3 2.8-5.1 3.7-6.1 1.2zm9.4-9c-1.9-2.3-.8-5 2.1-5.4 3.5-.4 5.1 3.4 2.3 5.5-2.3 1.8-2.9 1.7-4.4-.1zM7.2 192.3c-1.6-1.6-1.6-2.4.3-4.3 2.2-2.2 5.7-.3 5.2 2.7-.3 2.6-3.6 3.5-5.5 1.6zm200.7-10.4c-1.8-2.1 0-4.9 3.2-4.9 2.7 0 3.7 2.8 1.9 5-1.6 1.9-3.4 1.9-5.1-.1zM1.6 180c-.8-2.2-.9-2.1.9-3.9 2.2-2.2 5.7-.3 5.2 2.7-.3 2.8-5.1 3.7-6.1 1.2zM210 169c-1.8-2.2-.3-5.5 2.5-5.5 1.5 0 2.6.7 3 2 .7 2.2-1 5-3 5-.7 0-1.8-.7-2.5-1.5zM.3 166.9c-.8-2.2.9-4.9 3.2-4.9 1 0 2.2.7 2.8 1.6 1.5 2.4.1 4.9-2.8 4.9-1.5 0-2.8-.7-3.2-1.6zM210 155c-2.1-2.5-.8-5 2.5-5 2.1 0 3.1.5 3.3 1.8.4 2.1-1.5 4.7-3.3 4.7-.7 0-1.8-.7-2.5-1.5zM.3 152.9c-.8-2.2.9-4.9 3.2-4.9 1 0 2.2.7 2.8 1.6 1.5 2.4.1 4.9-2.8 4.9-1.5 0-2.8-.7-3.2-1.6zM210 141c-2.1-2.5-.8-5 2.5-5 2.1 0 3.1.5 3.3 1.8.4 2.1-1.5 4.7-3.3 4.7-.7 0-1.8-.7-2.5-1.5zM1 139.1c-2.7-3.3 1.8-7.2 4.8-4.2 1.3 1.3 1.4 2.1.6 3.4-1.5 2.3-3.8 2.6-5.4.8zm209.7-11.7c-2.2-1.3-2.2-4.5.1-5.7 2.3-1.2 5.2.4 5.2 2.9 0 2.4-3 4-5.3 2.8zM1 125.1c-2.7-3.3 1.8-7.2 4.8-4.2 1.3 1.3 1.4 2.1.6 3.4-1.5 2.3-3.8 2.6-5.4.8zm208.7-12.2c-1.4-1.4-.7-4.3 1.1-5.3 2.4-1.3 5.5.8 5 3.5-.3 1.9-4.7 3.2-6.1 1.8zM1 111c-1.8-2.2-.3-5.5 2.5-5.5 1.5 0 2.6.7 3 2 .7 2.2-1 5-3 5-.7 0-1.8-.7-2.5-1.5zm208.3-13.1c-.8-2.2.9-4.9 3.2-4.9 1 0 2.2.7 2.8 1.6 1.5 2.4.1 4.9-2.8 4.9-1.4 0-2.8-.7-3.2-1.6zM1 97c-2.1-2.5-.8-5 2.5-5 2.1 0 3.1.5 3.3 1.8.4 2.1-1.5 4.7-3.3 4.7-.7 0-1.8-.7-2.5-1.5zm208.5-13.5c-.7-2.2 1-5 3-5s3.7 2.7 3 5c-.4 1.3-1.5 2-3 2s-2.6-.7-3-2zM1 83c-2.1-2.5-.8-5 2.5-5 2.1 0 3.1.5 3.3 1.8.4 2.1-1.5 4.7-3.3 4.7-.7 0-1.8-.7-2.5-1.5zm209.1-12.9c-2.7-3.3 1.8-7.2 4.8-4.2 1.3 1.3 1.4 2.1.6 3.4-1.6 2.3-3.9 2.6-5.4.8zm-208.6-1c-2.8-2-1.6-5.1 2-5.1 2.3 0 3.1.5 3.3 2.2.4 2.9-2.8 4.7-5.3 2.9zm208.6-13c-2.7-3.3 1.8-7.2 4.8-4.2 1.3 1.3 1.4 2.1.6 3.4-1.6 2.3-3.9 2.6-5.4.8zM.7 54.9c-1.4-1.3-.7-4.3 1.1-5.3 2.4-1.3 5.5.8 5 3.5-.3 1.9-4.7 3.2-6.1 1.8zM209 41.6c-.8-1.5-.6-2.3.6-3.5.9-.9 2.1-1.5 2.7-1.3 1.8.6 3.1 3.4 2.4 5.1-.9 2.2-4.4 2-5.7-.3zm-207.3.3C.2 40.3 1 36.6 3.1 36c2.9-.9 5.8 1.9 4.3 4.3-1.2 1.8-4.5 2.8-5.7 1.6zm203.7-11.8c-.9-2.4 0-5 2.1-5.4 2.6-.5 4.8 2.6 3.5 5-1.2 2.1-4.8 2.4-5.6.4zm-199.3-1c-1.9-2.3-.4-5.6 2.5-5.6 2.8 0 4.2 2.5 2.7 4.9-1.4 2.2-3.7 2.5-5.2.7zm192-10c-2.5-3 1.5-7 4.5-4.5 2.1 1.8 1.4 5.4-1.1 5.7-1.2.2-2.7-.4-3.4-1.2zM13.3 17.9c-1.5-3.8 3.8-6.7 6-3.2.8 1.2.7 2.1-.3 3.3-1.6 2-4.9 1.9-5.7-.1zm174.8-6.8c-2.7-3.3 1.8-7.2 4.8-4.2 1.3 1.3 1.4 2.1.6 3.4-1.6 2.3-3.9 2.6-5.4.8zm-164.4-1c-1.3-3.5 2.3-6.7 5-4.4.8.6 1.3 2.1 1.1 3.3-.4 2.5-5.2 3.4-6.1 1.1zm12.4-4.4C34.9 3.4 36.5.5 39 .5c1 0 2.3.8 2.9 1.7 1.3 2.3-.4 5.3-2.9 5.3-1.1 0-2.3-.8-2.9-1.8zm139.3.3c-1.4-3.7 2.7-6.9 5.3-4.2 2.2 2.2.8 5.7-2.3 5.7-1.3 0-2.7-.7-3-1.5zM50.3 5.8C49.6 5.6 49 4.3 49 3c0-3.1 3.6-4.3 5.8-2.1 2.8 2.7-.8 6.5-4.5 4.9zm13.8-.7c-2.7-3.3 1.8-7.2 4.8-4.2 1.3 1.3 1.4 2.1.6 3.4-1.6 2.3-3.9 2.6-5.4.8zm14 0c-2.7-3.3 1.8-7.2 4.8-4.2 1.3 1.3 1.4 2.1.6 3.4-1.6 2.3-3.9 2.6-5.4.8zm14.1.2c-1.6-1.6-1.5-3.3.3-4.8C94.6-1.3 98 .2 98 3c0 3.2-3.5 4.6-5.8 2.3zM106 5c-1.8-2.2-.1-5 3.1-5 2 0 2.4.5 2.4 3 0 2.3-.5 3.1-2.1 3.3-1.1.2-2.7-.4-3.4-1.3zm14 0c-1.8-2.2-.1-5 3.1-5 2 0 2.4.5 2.4 3 0 2.3-.5 3.1-2.1 3.3-1.1.2-2.7-.4-3.4-1.3zm14.1-.3c-1.2-2.3.4-5.2 2.9-5.2 1 0 2.3.8 2.9 1.7 1.3 2.3-.4 5.3-2.9 5.3-1.1 0-2.3-.8-2.9-1.8zm14.3.4c-.9-2.4 0-5 2.1-5.4 2.6-.5 4.8 2.6 3.5 5-1.2 2.1-4.8 2.4-5.6.4zm14 0c-1.1-2.8.1-5.1 2.5-5.1 3.2 0 4.9 2.8 3.2 4.9-1.7 2-5 2.1-5.7.2z"/></svg>