<svg xmlns="http://www.w3.org/2000/svg" viewBox="0 0 421.7 131.2"><path d="M28.7 130.2c-12.3-1.7-21-8-21-15.2 0-1.4-.9-4.1-2-5.9-2-3.3-2.5-8.7-1.1-12.3.6-1.4.1-2.9-1.6-5.2-3.4-4.4-3.9-9-1.4-13.6 2-3.8 2-3.8 0-8.4C-1.2 63.5-.3 59.5 4.7 55c5.5-5 10.3-6.1 26.3-6.1h13.8v-4.5c0-3.4-1.2-6.8-4.6-13.6-3.6-7.2-4.6-10.2-4.7-14.6C35.2 7.4 40.9 0 47.8 0c4.2 0 6.7 3 10.8 13 1.8 4.3 6.5 12.8 10.5 18.9 7.8 11.8 16 26 17.6 29.9.6 1.7 2.2 2.8 4.7 3.5 10.5 2.9 12.6.7 13.3-13.8.5-10.6.5-10.7 3-10.7s2.5 0 2.8 10.8c.3 12.5-.9 16.4-6.5 19.8-2.8 1.8-4.5 2-8.8 1.6-8.6-.9-11.8-3-15.5-10-5.6-10.6-14-24.9-18.8-31.7-2.5-3.6-6.2-10.3-8.2-15-3.9-8.8-6.2-10.8-8.7-7.4-2.6 3.6-1.6 10.4 2.9 18.9 4 7.6 4.2 8.4 4.3 17.2.1 12.2-.1 12.4-11.9 11.2-15.4-1.5-28.1.3-31 4.4-2.1 3-1.9 5.1 1 8.5 3 3.6 3.2 6.3.6 8.6-1.1 1-2.2 2.8-2.5 4.2-.7 2.7 1.7 8.2 3.9 9 2.2.9 2.6 3.3 1 6.4-2.1 4.1-1.8 7.3.9 9.9 1.9 1.8 2.3 3 1.9 5.6-1.2 7.2 6.2 10.3 25.7 10.7l10.5.2v-27l-3.7-.3c-3-.2-3.9-.8-4.4-2.8-.8-3.3 1.2-5.4 5.2-5.4 3.1 0 3.4-.3 3.4-3 0-6.3 6.7-15.1 12.7-16.6 4.7-1.2 8.1 3.1 4.7 5.8-6.1 4.8-9.4 8.8-9.4 11.2 0 2.3.4 2.6 3.6 2.6 4.5 0 7.4 1.5 7.4 3.8 0 2.9-2.1 4.2-6.7 4.2h-4.3v15.5c0 19.9.3 19.6-14.3 19.4-5.7 0-13.2-.4-16.8-.9zm62.5-1.3c-8.5-3.1-14.5-13.2-13-22 3.1-19.1 27.8-24.6 37.9-8.4 2.6 4.2 3 5.9 3.4 15.1.3 5.7.2 11.6-.1 13-.9 3.6-4.5 4.5-6.8 1.8-1.7-2.1-1.9-2.1-4.2-.6-3.6 2.3-12.3 2.9-17.2 1.1zm15.4-9.3c8.2-6.1 4.5-20.4-5.9-22.7-6.2-1.4-15 6-15 12.4 0 10.2 12.6 16.4 20.9 10.3zm35.1 8.5c-11.7-5.9-15.3-21-7.3-31.5 7.7-10.2 25-10.1 32.9.2 2.9 3.9 2.7 7-.6 8.1-1.5.5-3.2-.4-6.3-3.3-4.9-4.5-8.9-5.8-13.2-4.2-6.3 2.4-10.1 8.5-9 14.4.8 4.3 5.9 9.4 10.2 10.2 4.3.8 10.1-1.2 12-4.1 1.9-2.9 5-4 6.9-2.4 2.2 1.8 1.8 4.4-1.3 8-5.7 6.7-16.2 8.7-24.3 4.6zm49.1-.4c-7.3-3.7-10.5-8.6-10.9-17.3-.3-5.5.1-7.4 2.1-11.1 9.1-17 36.4-12.4 38.5 6.6.8 7.2.2 7.4-16.9 7.4-16.4 0-17.6.5-11.8 5.4 4.1 3.4 7.4 4.2 12.4 2.7 8-2.4 9.3-2.4 10.5-.1 1.5 2.8 0 4.7-5.5 7.2-5.8 2.6-12.1 2.3-18.4-.8zm20.9-23.8c0-2.1-5.6-6.4-9.3-7.1-5.1-1-11.4 2.1-13.8 6.8-.9 1.6-.1 1.8 11.1 1.8 9.7-.1 12-.3 12-1.5zm32.6 25c-4.7-1.7-9.9-6.6-12.2-11.4-1.5-3.2-1.6-6.8-1.2-33.3.5-27.6.4-29.9-1.3-32.7-3.6-6-9.9-6.9-15.2-2.2-3.2 2.9-3.3 3.1-3.8 13.3-.5 10.2-.5 10.3-3 10.3s-2.5 0-2.8-10.6c-.3-9.6-.1-10.9 2-14 7.1-10.5 20.6-10.9 28.1-.7 2.2 2.9 3.4 15 3.6 35.4l.1 9.2 4.3-1.9c5.9-2.7 11.3-2.5 17.6.6 7 3.5 10.4 8.6 10.9 16.4.6 7.7-1 12.1-6.3 16.9-6.2 5.9-13.1 7.4-20.8 4.7zm11.9-8c6.3-2.6 9.4-11.3 6.2-17.5-1.8-3.5-7.4-7-11.2-7s-9.5 3.6-11.2 7c-3.1 6.1-.1 14.8 6 17.5 4.1 1.8 6 1.8 10.2 0zm39.7 8.3c-5.3-1.5-11.7-8.6-13.1-14.7-4.9-20.6 19.6-34.6 34.5-19.7 8.5 8.5 8.5 20.6 0 29.1-5.8 5.9-13.2 7.7-21.4 5.3zm12.7-8.7c10-5.4 8.4-19.6-2.6-23.2-8.8-2.9-18.3 6.6-15.4 15.4 1.1 3.4 5.2 8 8.1 9 3 1 6.6.6 9.9-1.2zm40.3 8.7c-5.3-1.5-11.7-8.6-13.1-14.7-4.9-20.6 19.6-34.6 34.5-19.7 8.5 8.5 8.5 20.6 0 29.1-5.8 5.9-13.2 7.7-21.4 5.3zm12.7-8.7c10-5.4 8.4-19.6-2.6-23.2-8.8-2.9-18.3 6.6-15.4 15.4 1.1 3.4 5.2 8 8.1 9 3 1 6.6.6 9.9-1.2zm27.8 8.6c-1.6-1.1-1.7-3.9-1.4-30.1.2-26.3.4-29 2-30 1.3-.8 2.2-.8 3.5 0 1.5 1 1.8 3.1 2 16.7.2 8.6.5 15.6.8 15.6s4.9-2.9 10.2-6.5c9.9-6.6 11.9-7.4 14-5.3 2.6 2.6 1.1 4.8-6.5 9.9-4.3 2.8-7.9 5.3-8.1 5.5-.2.2 3.3 4.7 7.8 10.1 4.5 5.4 8.1 10.3 8.1 11 0 1.7-2.8 4.4-4.5 4.4-.8 0-5.3-4.7-10.1-10.5-10.4-12.5-11.3-12.5-11.3 0 0 7.2-.3 8.5-1.9 9.4-2.6 1.3-2.6 1.3-4.6-.2zM123.6 71.9c-3.4-1.8-5.4-6.2-3.8-8.1 1.7-2 3.3-1.7 5.8 1.2 2.4 2.7 3.9 2.8 5.5.3s0-4.6-4.2-5.8c-5.6-1.5-8.4-5.4-7.8-10.5.7-5.3 4.4-8.5 9.7-8.5 5.6 0 9.6 3.8 9.1 8.8-.2 2-4.9 1.5-6.1-.8-1.3-2.5-4.6-2.6-5.9-.3-1.3 2.3.4 5.3 3 5.3 3.2 0 7.4 2.6 8.7 5.5 4.1 9-5.1 17.7-14 12.9zm48.5-.5c-5.7-2.6-8.7-7.2-9.2-14-.3-4.6 0-6.2 2-9 7.2-10.6 20.6-10.9 28.2-.7 3.1 4.2 3 14-.3 18.5-2.7 3.8-9.1 7.1-13.6 7.1-1.6 0-4.8-.8-7.1-1.9zm13.3-6.8c3.2-2.1 4.8-7.6 3.3-11.3-2.9-7-10.6-9-16-4.2-9.8 8.8 1.5 22.7 12.7 15.5z"/></svg>