<svg xmlns="http://www.w3.org/2000/svg" viewBox="0 0 1471.6 2061.7">
  <path d="M452.2 2059.7c-4-5.2-6-5-5.7-13 .4-6.5 2.7-12.6 4-19 .7-5 2.5-9.3-.8-14-2.7-3.8-13-9.8-17.2-12-3-1.5-12-4.7-15.3-2.5-3.8 2.5-1 16.4-5.6 17-7.6 1-1-18.2-1.3-20.2-.8-11.2-6.2 0-12-4-5.3-3.7-.3-8.7-3-13.2-1.2-2.2-6.6-3.8-8.6-5.6-3.7-3.2-5-8.7-8.2-11.6-2.7-2.4-28.7-2-17.7-9.8 9.5-7 29.7 3.8 38.8-4 2.5-2.3 2-6.6 2.5-9.7 1.2-9.5 2-19 3.3-28.7.7-6.5 1.5-13 2-19.6 0-1.7 1.2-5.7.5-7.3-2.4-5.5-.7-1-4.3-.7-1.3 0-3 5-5 1.4-.5-1 2.5-5.7 3-6.5 3.7-8 8-15.5 9.6-24.3 5.8-30-.3-59.2-4.8-89q-2-13.7-3.8-27.5c-.3-2.8.2-11.4-2-13.3-5-4-6 2-10.7 2.5-15.7 1.6 5.6-15 7.6-18.8 4.8-9-.6-26.3-1.7-36.2l-4.4-38.4c-.7-5.2-3.4-34.2 4-23.4 3.4 4.7 2.6 18 3 23.8.6 5.2 1 10.4 1.8 15.6q2 16 3.2 32c.2 2.3-.4 9.6 1.2 11.5 2 2.6 2.5 2 5.4 1.4.2 0 7-5 7.4-5.4 4.8-4 4-2.6 4.5-9 .5-5.7.4-11.5 1-17.2s4-41.3-2.5-44c-9.7-3.7-3.4 34-8.3 37-7.6 4.8-3.6-18.5-3.2-22 3-31.5 8-63 11.2-94.5 1.8-17.5 3-35 4.3-52.7.6-8.4 6-23.7-2.3-29-4.8-3.3-14.2-3.3-19.6-4.3L374 1446c-5-1-12.4-3.8-17-.8-6.2 4-7.5 15.8-8.7 22-3.3 16.2-6.2 32.4-9.8 48.4-.6 2.8-4 10.3-.3 12.7 5 3.2 12-11 8.8 3.2-3.2 14.4-12 28.5-16.6 42.5-3 9-10 28-4.2 36.2 2.3 3.3 10 7.3 13.7 9 9.2 4 7-4 14.8-5 7-1-2.2 5.2-3 7.7-1.5 4.5 6.5 10 1.5 13-2.3 1.5-7.3-4-9.5-4.2-2.5-.2-4 1-6.3 2-5 2.5-13 8-16 12.5-4 6-4.2 15.8-5 22.8-.2 4 .7 20.8-6.7 16-8.4-5.5 7.2-23.7-4.2-24.7-5-.5-14.7 9.6-17 13.5-3.4 6.4 0 9 .5 15.4.8 9.7-4 6.4-9.6 2.8-5-3.2-9.8-6-15-1.7.2-7.7-2-8-7.7-11.3-9-5-18-10-27-14.7-8.2-4.4-14.6-9.5-18.7.8-1 2.4-2 14.6-4.5 14.6-6.6-3.4 2-18.8 1.3-23.7-.6-3.8 0-6-5-7-7-1.2-6.5 4.5-7 9.4-.5 4 .7 23-8.3 16.2-4.5-3.6-.7-9.2-2-13.6-1-4.7-3-5-6-8.6-4-4.8-2.2-4.6-3.3-8.8-.4-1.3 1.6-2.4 1-4.2-.7-2-2.8-1.5-4-3-2-2.2-6.7-3-5.2-7.6 2.3-7.5 9.3 1 13.6 1.5 10.3 1.2 8.5-15.5 9.5-23l4-28.6c2.2-14 5-27.8 2.8-41.7-3.4-21-1.3-44-2-65.2-.4-17.3 1-37-2.8-54-1-4-.3-5-3.6-7.3-3-2-8.4.3-11-3-3-3.8 0-7.3 3.5-8.2 6.3-1.7 6.3 4.4 10-2.3 1.7-3.5.6-10.7.7-14.5.2-11.5 0-23 0-34.4l.2-38.5c0-5.8 1-12.4 0-18-.8-4.4-3.8-8-4-11.7 0-1.2 3.3-6.8 3.5-8.7a64.7 64.7 0 0 0 .2-7.6c0-9.5 0-19 .2-28.5l.6-86.5c.2-37.6-1.8-75-5-112.4C175.4 872.8 173 709.6 165.4 548c-1-23.6-1.6-47-2.5-70.7-.3-9.6 1.7-23-1.2-32.3-2-6.2-5.8-6-12.4-8-3-1-6.7-2.6-9.8-2.7-4.2-.2-7.7 2.5-11.6 2-9.8-1.5-15.4-14-25.5-10.5-3.2 1-2 6.6-5.8 1.7-2-2.6-.3-9.3-2-13-4.8-10.5-15.6-19.7-22-29.5A135 135 0 0 1 55 349c-3-10.6-3-20.8-11-29-4.6-4.7-4.2-3-5-9-.5-3.5.6-5-.7-8.8-4.4-12-12.7-24.4-18.4-36-4.4-9.4-3-16.2-5.6-25.8S8 221.4 5 211.7c-1.6-5.2-8.5-18.6-3-21.3 5.4-2.7 4.8 2.4 8.5-4 2-3.3 2.4-7.5 4.6-11C27 156 33.5 135.8 53 122c18.6-13.4 40.3-21.7 61.5-30.4 40.4-16.6 81.7-26 124.2-36 88-20.4 176.3-25.7 266-32.4 11-.8 22-1.8 33-2 4.7-.2 12.2 1.3 16.5-.6 5-2.2 2-5.4 5-7.4-.6.4 6.8 6.2 9.2 7 9.4 2.5 23.3 0 33 0 21.8 0 43.5.4 65.3.5 26.5 0 53-.3 79.6-1 7.7 0 16.7.7 24-1 1.6-.5 3.4-.3 4.7-1.2C780.3 14 778.2 4 783 1.3c8.5-5 2 6.7 2 10 .2 5 1.2 5 5.6 6.5 13.3 4.8 30.8 2.7 44.8 4.4 10.8 1.3 21.3 3.5 32.2 2.3 4-.5 3-1.8 7-1.4 1.3.2 2.8 1.7 4 2 6.5 2.2 14.7 2 21.4 2.5 14.5 1.2 29 2.8 43.5 4.2 3 .3 12.4-.8 14.2 2.4 3.3 6-9.6 3-11.2 3-14-2-28.2-3.3-42.3-4.8-8-.8-25.6-6-31.2 2-8.4 12 13.3 11.6 20 12 30.3 2.3 60.7 4 91 6 15.2 1.2 28.7-3 43.3-6.3 4-1 9.4-3.2 13.7-3 8 .6 6 3 6.8 9 1 6.4-.5 7.4 6.6 9.5 6.2 1.8 14.2 1.3 20.6 1.7 13.3 1 23.8 1 36.7-1.7 2.7-.5 16-2 14.8-6.7-.7-3.2-8.3-3-11-3.4-14.5-2.3-28.4-5.4-43-6.3-4.5-.2-26-1.6-12.7-6.6 4.8-1.8 14.5 1.4 19.4 2 7.8 1 15.5 2 23.3 3.4 9.6 1.6 22.6-1.6 29.8 1.2 2.3 1 4 3.3 6.7 4.3 6.2 2.3 15 1.6 21.5 2.4 28 3.8 56 8.6 84 12.5 29.7 4 61 7.2 89.4 16 6.7 2.2 13.7 5.6 20.7 7 6.6 1.2 8 .3 13 4 11.7 8.7 25.4 17.2 32.3 30.7 1.7 3.3 2.4 14.4 7 14.6 5.7.2 2.6-10.4 4.6-13.7 3.2-5.2 7.8-4.6 10.3.7 2.3 5 .3 14.6-.5 20-1 7.4-.8 11 .4 18.4 1 6.8-2.4 12.6 3.6 16 2.3 1.4 13.5 3.7 15.7 2.4 3.4-1.8 4-14 7.5-13.8 3.7.3-.8 11 .2 13.2 3 6.4 13.6 4 18.7 6.7 13.6 7.4-12.2 2.8-15.6 3-10.6 1.2-9.7 17.6-11 26.4-2.7 17.3-4.8 35-6.7 52.5-1.3 11.8.8 20 11.7 10.3 3-2.8 15.3-19 19.3-18.4 6.3.8-.2 7.3-1.8 9a216.3 216.3 0 0 1-15.3 16c-4.6 4.3-12.5 9-15.6 14.4-6.6 11.7-5.5 33-7 46.5-.4 4.2.7 17.6-2.4 20.2-8.4 7-3.2-18.4-4-20-7.2-11.6-11.3 29.5-11.4 29.8-5.5 10-1-10.8-5.2-12.2-5.8-2-24.2 21.3-29 25.3-6 4.7-14 8.6-18.6 14.4-5 6.2-2 13.7-5.2 20-3.2 6.2-4.3 4.8-4.2-2 .2-9 1.5-12.6-8.4-7.6-14.7 7.5-30 16-44 25a88.7 88.7 0 0 1-19 9c-5.6 2-17 4.3-21.4 8.4-7.5 7-6.3 28.5-7 39-1.4 18.3-1 36.7-1 55 0 10.7 0 21.5.3 32.3.3 8.8 2.2 19.3.5 28-3.3 17.2-3.5-12.8-6.2-13.5.3 0-3.8 73-4.3 83.7-1.7 40-1.7 80.2-2 120.2 0 21 0 41.8-.6 62.6-.3 11.8 2.4 22.2 0 33.5-2.8 14-1.7 29-2.2 43.3-.7 21.8-1.5 43.7-2 65.5-1 38.6-2.4 77-2.7 115.5-.3 31.3 6 60.5 9.6 91.6 5.4 45 4.5 90.2 8.6 135 .8 9.3 1.4 18.6 2.3 27.8.4 5.2.4 12.4 2.4 17.4 1.7 4.4 5.6 5.8 7.4 9.7 2.3 5 2.4 20.7 1 26.2-2.4 9.5-4.2-2.8-10.2-.5-5 2 0 30 2.5 33.8 2 3 2.7 1.5 4.6 3.2 1.2 1 2.5-.4 3.6 1s.4 6.3.5 8c1 14.6 2 29 2.8 43.5.4 8-2.6 28.2 1.2 34.4s5.4-1 9-5c1-1 3-5.7 5.2-3.7s-3.7 6.2-4 8c-2.3 10.4 7.6 1 13 2 13 2.4-3 10-2.6 14.5.4 4.8 14.6 6.6 18.5 8.2 2.7 1 16.3 9.8 5.5 11-2.6.2-6.2-4-8.5-5.4-4-2-8.7-3.2-13-4.7-5.7-2-14.2-7.6-19.4-2.4-5.5 5.5-.6 17.3.3 23.6 1.3 9.5 3 19 4.4 28.5 2.7 16 4.8 32 7.3 48 5.8 38 9.5 75.7 13 113.8.4 6.2 0 23 3.5 26.5 5.8 5.5 12.7-5 19-3 11.6 4-7.2 10-10.3 11.7-5 2.7-10.8 6.2-7.6 13s16 5 18 13.4c1 2.8 0 6.8-2.6 8.4-4.3 2.6-3.2 0-6-2.7-2.2-2-1.6-7.3-6.7-5.3-2.7 1-.8 1.5-1.6 4.2-1.6 6 3.4 12.4 1.2 18.5-3.4 9-11.3 7.8-13.6-.2-3-10.3 4.3-39-13.6-34-5.4 1.4-10.7 5.6-16 8-6.5 2.8-15 5-21 8.7s-6.5 9-13.8 10.3c-4 .7-8-.4-12.4 1-3.3 1-8.5 5-11 0-3-6 8-7 11.2-9.6 5.4-4.4 5.8-13.8 0-18.6-3.6-3-10.5-3.4-15-4.3-6.2-1.2-11.8-3.6-18-5.4-16.2-5-20.3-3-18.7 14 .3 3.2 1.2 32.3-9.6 18.7-3.3-4.2.6-12.5-.6-17.4-2-7.5-8-6-11-10.6-1.6-2.5 2-6.2-.3-8.6-1.4-1.5-6-.5-8 0-3.4.5-2.6 5-6.3.8s.4-7.7 3-11.2c6-8 16.4-15.3 18.8-25.2 3.3-13.8 1-32.2 0-46.3-3-35-3-70.3-7-105-1.3-12.3 1.3-33-12-38.3-15.8-6.2-35.4-8-52-11.6-25.7-5.5-51.7-10.6-77.4-15.8-7-1.4-13.5-2.6-20.7-3.5-3.7-.5-7.8-2.3-11.5-1.3-3.2.8-7 6.4-10.3 5.6-5-1.3-4.4-8.7-10.8-10.6-4-1.3-9-.3-13.4-1.7-3.8-1.2-7.2-4-11.4-4-11.5-.7-26.6 8-37 11.7a134.7 134.7 0 0 0-18.2 8c-2.6 1.4-2.6 5-5.4 2-2.2-2.5.3-8.6.5-11.3 1.5-22-15.3-26.6-33-31-13-3.3-28-9.8-33.8 7.2-1.2 3.7 1.2 17.5-4.7 17.3-3.2 0-3.7-4.7-7-5-2.2 0-3.7 2-5.2 3-10.6 7-17.8 19.6-27 28.3-23 21.4-45 44.7-67.2 67.2-19.5 19.8-40 39-59.2 59-6.2 6.4-13.6 12-18.8 19.4-7.4 10.7-13 23.2-19.4 34.6-2 3.8-8.3 9.7-5.6 14.3 2 3.6 17.2 2.7 9.5 8-6.8 5-7.8-3.6-10 5.6-1.4 5.7-.5 13.6-.7 19.5-.8 19.3-1.8 38.6-2.4 58-.4 11.7-4.2 28.3 1.5 39 2 4 7.6 11.4 12.3 11.8 3 .2 9-7.2 11-3 1.6 3-3.3 3.5-4.3 5.5-6.5 12.2 17.7 20.5 14.6 27.4-3 6.7-9.6-3-11.5-5.5-4.2-5.6-8-12.7-16.2-8.8-3.4 1.5-7.8 7-5.6 11.3 1.4 2.5 5.8 2.7 8.2 3.6 6.3 2.2 12.5 6.8 2.7 9.4-4 1.2-8-1.2-10.7 2.4s-.7 19.5-.3 23.7 2.5 10.5-.4 14.2c-6.3 7.8-10-3-10.8-8.6-1-6.5 3.7-16 1-22.3-2-4.5-7-6.8-10-2.6-1.6 2-.8 7.6-.8 10-.3 10.3 0 20.7-.2 31 0 4.3 1 26.2-1.6 28-11.7 7.5-10-32.7-10-34.6-.3-4.6 1.4-17.6-1.7-21.3-3.4-4-10 2-14.8 5-10 6-19 14-28.3 20.7-9 6.4-27.2 16-32.3 26.5-1 2.4-.7 34-9.8 23.8zm19.2-40.5c8.7-4.2 15.4-12.7 23.8-17.6 3.3-2 8.8-3 11.6-5.6 5.2-4.7 1.6-8.5 1.5-14.3a132.7 132.7 0 0 1 1.2-14.4c.4-3.4 3.5-7 .5-10.6-2.7-3.2-9-1.7-13.2-2-5 0-21-4-25-.3-2.2 1.8-2 12-2.4 15.4-1.7 12.2-2 24.8-3.2 37-.4 3.7-2.7 15.6 5.2 12.4zm-20.6-22c3-3.8 8.2-24.4 6-29-2.8-5.8-28.7-8-33.8-5.7-6.7 3-6.6 13.8-2.3 19.2 4.2 5 25 17 30 15.5zm73.6-20.3c7.2-4 5.8-12-3-8.7-5.6 2.2-3.8 11.7 3 8.6zm-112-5c2-4 2.3-13.8-3.8-8.3-5.3 4.7.3 15 3.8 8.3zm-12-7.2c4.6-6.8-8.4-12.7-9.8-3.7-1 5.7 6.3 8 10 3.8zm134 .7c14.4-1.4-1.7-14.6-11.3-9-13.3 7.7 5 9.6 11.5 9zm23.5-4a1.6 1.6 0 0 0-2.4 1c0 .8 3.7 1 2.4-1zm-141.7-11c10-6.6 32 4.6 40.2-4 2-2.2 1.8-9.6 2-12l3-26c3.8-32 8-64.3 10.5-96.4.4-5.2 4.6-32.2-3-30.5-4.7 1-13 16-15.3 19-5.3 7-10.4 15.3-17 21-10.7 9.7-9.5 16-10.8 30.8-.6 5 .8 16.3-2 20.8-2.2 3.6-1 0-3.3 2-.5.2-3.8-1-5.6.4-1.3 1-1 7-1.4 8.8l-2 15.4c-1.2 11.6-1.8 23.3-2.6 35-.2 3.4-3.4 22.4 7.4 16zm7.7-64q-1.3-3 .7-4c0 .3 2 9-.3 8-.6-.2-.3-3.5-.3-4zm136.6 63.6c5.8-2.5 2-28.5 2.2-35.7.2-6-7.8-22.6-15-12-1.6 2.3 0 10.7.3 13.3a55 55 0 0 1 0 12.2c-1 8-.8 29.4 12.7 22.2zm-61.2-3.6c2-1.7-11.7-4.5-10.7-9.8 1.2-7 12.2-1.7 16-1.7 11.6-.2 9-15 10-24.2 1.6-14.5 5.4-30.2 5-44.7-.2-11-11-23-18.6-31-11.6-12-16.3 9.2-18.8 18.8-4.2 15.7-4.4 33.8-6 50-.8 7.5-8.4 37-2.6 42.5 4.3 3.8 21 1.7 26 0zm39.3-6.2c3.3-6.7 1-18.7 1-25.8 0-8.7.4-17.7-.4-26.4-.5-5.8-5-17.8-10.7-11.7-3.8 4-3.2 18.2-3.7 23.2-1 9.5-2.2 19-3 28.4-.2 2.8-1 6.2.5 8.8 3 4.5 12.2 6.7 16.3 3.4zm37.5-9c5-4.6-6.3-3.5-3.2-1.3 2.4 1.5 0 1.5 3.3 1zm-17.3-38.3c2.5-3.2 1.3-14.5 1.5-18.6.3-5.8.8-11.7 1-17.5.5-9.8.4-19.6.3-29.3 0-5.2 2.8-15.4-5.5-13-5.8 1.5-5.2 8-5.2 12.3v33.8c0 4-4 39 8 32zm-19.3-24.8c2-5 .4-12.6.5-17.7 0-9.2 0-18.3.5-27.4.2-4 4.3-31.3-5-24.7-2 1.3-2.2 16-2.5 18.8-1 8.5-1 17-2 25.3-.3 5-4.4 32 8.6 26zm700.5-24.5c6.2-3 26-7 16-15.2-7.3-6-7.2 2.3-13 1.4-5.3-1-4.2-8-7.2-11.7-2-2.4-8.4-7-11.4-4s.5 15.8 1 19.3c1 13.3 2.4 16 14.6 10zm-719.5 2.2c3.8-2 5.2-29.6 5-34-.7-7.5-2.2-7.5-8.2-3.5-5.3 3.6-15.6 10.5-14.5 18 .6 4 14 21.8 17.8 19.4zm686.3-18c6-3.8 0-23.8-4.4-27.4-14-11.4-22.7-2.2-33 9-9 9.6-3 10 8 12.6 5.7 1.3 12 1.8 17.7 3.3 4 1 7.8 3.7 11.8 2.5zm68.7-1c5.5-5.8 3.5-10 2.8-18-1-11.7-.5-23.5-2.2-35-2.8-18.2-4.4-36.6-6.5-54.8-2.4-20.2-5.5-40.2-8.6-60.3-1-7-.6-23.2-5-29-2.2-2.5-10-4.8-13-2.8s-1.7 3.8-2 7.2c-2 20.8 1 43.4 1.6 64.3.5 17.7 1.5 35.4 1.7 53 .2 15.2.6 31 2 46 .3 5.7 0 12.6 3.5 17.2 2 2.6 24.2 14.5 25.7 12zm-833.3-18c5.7-7.6 11.6-15 17.4-22.4 1.5-2 8-8 7.7-11-.7-4.2-10.4-4.6-13.5-5.2-8.2-1.4-20-5.5-25 3.3-3.5 6.4-2.4 18.3-3 25.4-.4 4-2.8 12.2-.8 16 5.8 11.4 13.8-1.5 17.2-6zm57 3.2c7.4-5.4 13.8-12 20.6-18 14.2-12.5-3-13.7-14.5-15.2-12-1.5-14-1.3-15.6 11.6-.5 3.5-2 32.8 9.5 21.6zm670.3-12c2.5-2.4 6.3-5.6 8.2-8.7 1-2 .4-4.6 2-6.2 3.6-4.3 7-3.4 9-9 1-2.8 2-12-.7-14.3-5-4-11.6 7.2-14.2 10.4-6 7.8-17 16.5-18.6 26.4-3 16.6 7.6 8.2 14.3 1.5zm66 2.3c6.6-5.4 1.4-34.4 1-42.3-.6-18-1.2-35.8-1.6-53.7-.4-19-1.2-38.2-1.6-57.3-.2-11 .4-32.4-10.6-12.5-5 9-13.4 19.2-15.2 29.5-2.5 14.7 2.6 33.7 4.3 48.4 2 17 3.7 34 6.2 50.8 1 5.3 2.6 49.2 17.5 37zm-675-7.3c4.4-4-2.5-9.7-6.4-6-3.7 3.3 2.3 9.6 6.4 6zm1.7-16.2c4-6-4-10.2-7-5-2.8 4.7 3 8.5 7 5zm-142-7c.8-4-2.5-10.4-6-5-2 3.3 1.4 9.3 3 12.4a28 28 0 0 0 3-7.4zm122 4c5.2-5.5 6-37.7-2.8-32-4 2.4-3.6 17.3-3.7 21.7-.2 3-1 18.4 6.5 10.3zm-14.5-2.4c2.7-2 1.8-10.7 2-13.5.7-10.8 1.2-21.7 2-32.5.4-7 2.5-13-3.4-17-4.6-3-23-9-28.4-7.8-9.4 2.2-8.3 33.3-6.4 41.4 1.4 6.2 29.3 33.7 34 29.6zm634-5c8.3-11 26-23.3 29-37 3-12.3-4-28.6-6-40.7-2.8-17-6.3-34-9.8-51-1.3-6-1.4-21-7-24.2-2.7-1.5-22.2 6.5-23.8 9.4-3.7 6.6 1 24.6 1.7 31.4 2 19.8 3 39.6 4.2 59.4 1 15.7 1.7 31.5 2.8 47.2.4 5 2.5 17.6 9 5.4zm-654.7 1.3c0-5.7-15-16-14.3-4.8.4 6 14.8 8.6 14.3 4.7zm-34-4.6c6.5-5 1-22.5-3-27.8-3.4-4.8-9-11.6-15.4-11.3-4.2.3-15.7 7.5-18.6 10.2-5.3 5-9 18.8-2.3 24 4 2.8 15 2.5 20 3.2 5.5 1 13.7 4 19.2 1.7zM420 1759c6-5.6-5-16.2-8.4-6.4-2.3 6.2 3.5 10 8.5 6.3zm140.6-1c4-3.4 3.8-9.3 4.2-14 .3-3.7 3.2-20 .4-23s-8-1.3-10 1.2c-2 2.7-.6 12.5-.6 15.2 0 3.7-3.6 27 6 20.6zm22.3-21.3c5.8-3.7 6.8-15-2.3-11-4.7 2-4.8 15.6 2.2 11zm-164.4-4.5c6.2-4 7-6 3.6-11.7-2.6-4.5-6-10.8-11.4-7.3-7.5 4.7-5.6 27.5 7.8 19zm57.3-3.7c4-5-.5-18-8-11.3-5.5 5 2.4 15.5 8 11.3zm123-8.5c8.4-8.8 14-23.5 20.2-34 6.8-11.3 13-23 19.5-34.7 7.8-13.5 20-28.6 24.8-43.3 3.6-11-3.6-6.4-11-2.5-6 3-11.8 6.2-17.6 9.4-9.8 5.4-26 11.3-32.4 20.3-6.4 9-7.4 27.6-9.8 38.5-1.2 5.3-2.4 10.5-3.8 15.8-1.7 6.3-7 16-6.2 22.5.8 6 10 12.5 16.2 8zm-157.2-1c4.8-4-2.3-11-6.3-6-3.6 4.5 1 10.5 6.3 6zm124-8.2c3.8-7 2.3-21 2.8-28.4.4-5.8 5-25.8-5-22.3-9.5 3.3-6.4 22.4-6.7 29.2 0 3-2 33.5 9 21.5zM460 1709c4.7-2.3 19.2-6.3 15.3-14-2-4-17.6-8-22.2-8-5.8-.4-18.6 4-16.6 12.2 2 8.5 16.7 13.6 23.6 9.8zm71.8-5.4c3-2 4.3-15.4 2.6-18-2.8-4.3-4.6-2-9 0-3.6 1.6-16.7 7-14.4 12.4 1.3 3 18.5 7 20.8 5.6zm101.7-15.4c35-34.5 69.4-70.2 104.2-105 12.7-12.7 25.6-25.4 37.2-39 13.6-16.2-4.4-17.6-18-20.2-7-1.4-14-2.5-21-4.2-4.8-1.2-13.3-4.6-18.3-2.6s-12.5 15-10.8 19.8 14.8 6 14.8 9.4c0 3-13.2-3.5-14.4-3.3-6.6 1-8.8 9.8-11.8 15.3-9.2 16.7 2.2 10.2 12.6 4 4.3-2.4 19.7-16 22-4.5 1.5 8-16.8 13.7-23 17.3-10.4 6.5-24.6 11.2-32 21.3-8.8 12.4-14.4 28.2-22 41.5-6.5 11.4-12.4 23.2-18.8 34.7-2 3.6-9 11.5-9 15.7-.2 6 4.7 4 8 0zm-48.3.6c4-8.8 4.5-19 7-28 2-7.4 10-29.7-5.4-17-9 7.4-6.8 17.7-6.7 28.4 0 2.3-1 22.8 5.2 16.6zm-81.5-2.3c8-4 24.2-13 29.7-20.2s8.7-31.6-5.6-23.7c-9.3 5.2-19.8 12.4-27.2 20-5.2 5.2-6.4 10.7-5 18.7 1 4.6 1.3 10.7 8 5.2zm-225.8-10c5-4.3 2.2-27.5 2.4-33.7.2-11 3.7-27.2 1-38-2-7.5-13-12.6-19-5.3-7 8.7 2.5 24.7-3.6 32.2-7.8 9.5-8-9.8-12.6-11.7-6.4-2.5-27.5 11-29.8 16.8-4.6 11.7 19.8 19.3 27.7 23.5 6 3 29.3 19.8 34 16.2zm174.7-7.6c7.8-4.7 21-13.2 25-21.8 4.4-10.2-.8-14.7-8-7.3-5 5-9.5 11.4-14.3 16.8-1.4 1.7-14 17.7-2.7 12.2zm-156.7-6c7-7 14.3-9.6 15.7-20.2.7-5.7 4.4-23.5-4-14.4-2.7 3-8.4 24-11.4 14.8-3.3-10 12-20 10.8-29-.4-3.8-11.7-12.8-16-11.2-5.5 2-4 11.7-4 16.7-.2 10.8-1.5 21.5-1.7 32.3 0 5 1.6 22.5 10.6 11.2zm895.5-7.3c1.7-6.2 2-35.2-6.3-36.7-9-1.8-2.3 17-1.5 21 .2 1.2 5.4 25 7.8 15.8zm-745.7-1.8c9.5-5.2 18-20.7 24.5-28.8 5.7-7 9-10.7 9.8-19.5 3.2-31.5 2.8-63.6 3.4-95.2.2-8.6 5.5-35.6-1.8-42-3.4-3-12-3.8-16.2-4.3-6.3-1-8-1.4-10 5.3-2.7 7.6-1.6 17.4-2.6 25.4l-2.4 22.4c-1.8 19.6-3 39.3-4.7 59-1.4 17-3.2 34-4.3 51.2-.3 3.7-4.7 30.3 4.4 26.3zm767-4.8c3.3-3.7 8.7-14.3 10.2-19.3 2.4-8.5-8.7-14.7-16.6-10-5.6 3.6-2.5 14-2 19.6.2 4 1 19.3 8.3 9.7zm-646.3-4.3c7.7-5.3 8.5-39.2-4.7-25.6-5 5-7.7 34.4 4.7 25.5zm-237-10c7-6.2 2.4-15.6-5.3-10-6.5 5-5.6 19.4 5.3 10zm185-12.4c6.7-5.2 16-9.6 21.7-15.8 4.8-5 4.2-11 4-17.7 0-8 4-25.7-7.5-19-8.6 5-16.4 16.3-23.2 23.4-4.5 4.7-7.6 7-9 13.3-.7 4-4 21.2-1 23.5 4 3 11.6-5 15-7.5zm75.4 7c7-3.8 12.3-8 15.2-15.3 1.7-4 3.6-23.5 7.6-25.3 1.8-.8-2.5 16-2.7 17.2-1.7 9.3 2 9.2 9 5.8 13.7-6.6 27-14.4 40.2-21.7 5.4-3 12.4-5.6 16.8-9.7 4.6-4.4 6.6-11 10-16.5 3.3-5.4 13.7-17.7 10.2-24.6-2.2-4.4-15.6-9.6-20.5-9.3-4 .4-6.4 2.7-9.6 5.4-8.4 7-17 14-25.7 21-7.4 5.8-16.2 11.5-21 19.8-1 2-2 8-4.3 9-2 .7-6-1.5-9.4 0-5.6 2.6-15.5 12-18.7 16.8s-7.7 34.3 2.8 27.5zm-380.4-3.5c10-7 12.2-32.2 15-43.4 3.4-13 6.2-26.4 9.2-39.6 2.7-12.3 7-25 7-37.8.2-18.8-1-37.8-1.6-56.6 0-4.2 1.2-29-7.8-18.5-7.7 9-3.3 36.7-2.7 46.8.2 3.8 3.8 18.6 1.3 20.7-5.3 4.7-3.2-5-6-7.4s-1.8-.8-3.7 2.8c-3.7 7-3.7 17.6-4.8 25.3-3 21-6.4 42-9.3 63-1.7 12.5-4 25.4-4.3 38-.3 4.5.7 13.3 7.5 7zm225-6.3c.2-5 2.6-10 3-15.4.4-9.8-.2-19.6.3-29.5.6-12.2 1.2-24.2 2.2-36.5 1.5-17.7 2.5-35.5 4-53.3.5-5 3.7-16.8 1.4-21.7-4-8.5-9-2.8-10.6 2.8-4.6 15.8-3.3 34.4-4.8 50.6-1.6 16-1 32-1.2 48-.2 8.5-1.5 17-1 25 .7 7.7.5 15.4.7 23 0 1.7-.8 8.3.5 9.3 2.2 1.7 4.7-.2 5.2-2.2zm-205.3-3.6c5.2-3 10-4.8 12-10.3 2-5.3.5-15 .6-20.5 0-2.8 2-32.7-1.6-33.7-4-1-9.5 28.5-10.6 32.7-1.3 4.7-15.4 41-.5 32zm1022.6-1.5c4.7-3.3 1.6-21.5-5.5-20-3.3.5-7.3 13-5.7 16.3 2 4 7.7 5.2 11 3.7zm-104.5-5.2c0-2.8-3-1.2-4.2-1.3-2.2-.2 4.2 7 4.2 1.3zm83.3.6c3.3-3.5 1.5-18.6-2.3-20.4-3.4-1.6-19.2 5.4-22.6 7.7-14.8 10 17.5 16 24.8 12.6zm-917.2-10c4-5.6 9-19.8 7.8-26.7-1.2-6.6-2.8-5-6.7-1-3.7 4-13.8 18.3-13.2 23.4.7 5.6 7 9 12 4.4zm867.5-3.5c10.5-4.3 3.8-29.4 2.8-37.7-.4-4.4-.2-11.5-3.8-14.7-2.6-2-11-4-14-1-4 4.5 3 30 6 35.3 1.5 2.8 6 4.8 7 7.6 1.6 4.6-.7.2-1 5-.4 3-3.8 9 3 5.5zm-15-2c3.4-7.7-23-19-26.3-14-5.4 8.7 21.8 19 26.2 14zm78.2-2.5c3.7-1.4 6.2-9.5 1-10.5-7-1.3-9 13.5-1 10.4zm-964-2.2c6-6 2.7-28.7 2.8-35.6.8-35.3 1-70.6 2.3-105.8.5-13.5 1.4-23.6-16.7-22.7-7 .3-6.2 2-7.2 7-1.4 7-.4 15.6-.5 22.8l-.3 56.3c0 19.8-.2 39.5-.4 59.3 0 4-1 9 1.4 12.6 3 4 14 8.6 18.6 6.2zm18-8.3c5.5-9.6 15-21 18-31.3 3.2-11.2 1.4-26.2 1.8-37.7.4-15.5.6-30.8 1.7-46.2.5-6.2 5-21.5 1.8-27-2.7-5-13.8-6.2-18.7-6.3-10.6 0-9.2 8-9.7 17.3-.7 18-1 36.2-1.4 54.2-.4 21-.8 41.8-1.4 62.7-.2 8-2.5 32.6 8 14.3zm268 2.8c10-7.5 7.7-16.5 8.4-28.2.5-7 5.3-25-6-19-9.8 5.4-10.4 15.2-11 25 0 3.4-2.7 32.8 8.7 22.3zm648.8-2.7c8-4.3 13.5-3 15-12 2.2-11.8-14.3-17.7-24.5-16.2-9.2 1.4-7.2 12.6-6.6 19.8 1 12.4 4.5 14.7 16 8.4zm-693-12.2c6.7-6.7 15.5-12.7 17.8-22 3-12 .7-27.5.7-40 0-8 3-23-4-28.3-4.4-3.3-24.2-6.7-27.7-2.6-4.4 5.3-1.7 25.3-2 31.6-.5 14-2.4 27.8-3.3 41.7-.4 5-5.6 29.8-1.5 34 4.7 4.4 16.8-11.2 20-14.3zm604.4 12.8c10.4-10.3-17.7-18.6-22.4-20.5l-42.7-17.3c-12.2-5-25-14-38-11.2-4 1-32 1.7-32.6 7.4-.7 7.8 49.6 20.4 57.3 22.2 14.4 3.5 28.6 7.5 42.8 11.5 6 1.7 30.8 12.7 35.6 8zm34.8-12.6c.7-5.8-2.6-25.2-7-29.7-5-5-16.7-6.6-18.8.6-1.6 5.3.3 19.7 3.8 24.4 2.5 3.3 21 12.5 22 4.6zm84.2 1.8c4.8-2.6 0-13.2-6.3-8.8-5.7 4-.2 12 6.4 8.8zm-371.8-4.4c6.5-3 16.7-4 22.4-8.2 9-6.8-6-7.4-12.4-8.6s-16-5.4-20.5.5c-6.2 8.4 0 21 10.7 16.3zm-276.5-4.4c6.4-4.6 55.8-35.8 51.3-43.5-.2-.3-13.8-7.3-3-8.4 4.7-.5 5 10.8 12.4 6.8 5.5-3 2.4-9.7-2.4-11.7-2.5-1-5 .6-6.7 0-1.8-.5-2-2.2-4-3-6.3-2.8-14-4.7-20.7-6-1.4-.2-6.4-1.7-8-.8-2.2 1.2-.7 3.2-2.3 4.4l-.3 2.5a27.8 27.8 0 0 0-6.6.5 46.8 46.8 0 0 0-4.7 3.2c-3.4 2.2-9 6.2-11.2 9.6-6.5 9.6-4.5 28.7-4.7 40 0 11 1.7 13.6 11 6.3zm38.5-49.3c-4.8-2.7 4 .4 2 .7q-1.5.2-2-.7zm-8.4-3.4c-.3-.2-11-4.8-10.2-5.7 2.3-2.2 12 6.4 13 6.2q-2.6.8-2.6-.6zm497.4 46.6c2-3.7 1.5-18.3-1.4-22.2-4-5-15.2-5.6-21-7-13-3-31-9.8-44.2-3-8.2 4-3 6 4.2 9 4 2 8.4 3.3 12.5 5q15.2 6.2 30.2 12.7c4.6 2 15.4 9.5 19.8 5.6zm-159.8-4.4h-2.3c-1 .4 4 .4 2.3 0zm-27-5.2c5.5-4-7.2-11.7-10.5-5-3 7 6.7 6.7 10.7 5zm-23.7-2.6c9.3-5-10.3-9.5-12.6-9.8-4.4-.4-23.7-5.4-27-2.3-5 4.5 13.5 8 17 8.6 6.5 1 16 5.6 22.5 3.4zm330.7-1.6c4.2-4.2-1-35.8-7.4-32.4-5 2.7-4.4 43.5 7.4 32.4zm-27-7.8c9-13.6 11.5-30.3 12.2-46.3 1-25.5 3.3-49.7-.8-75-1.8-11-3-22-4.6-32.8-1-7-2-14-2.8-21.2-.6-4.7.6-17.6-3-21-5.8-6-5 3.4-5.3 9-.3 4.5 1.4 21.8-4.4 24.2-10 4.4-3-34-3-37.7 2-24.7 6.2-49.8 4.3-74.6-3.3-44.3-13.7-88-15.2-132.2 0-4.4-2-23.5-8.6-11.7-2.2 4 .5 10 1 14.6 1.3 16 1 32.5 1 48.6.4 31.7-.2 63.2-.6 94.8-.5 31.5-1 63 0 94.6.6 15 1.8 29.7 2.3 44.7.3 7-1 16 1 22.8s1 4.3 9.8 6.2c1.5.3 19.3 7 9 9.7-3.4 1-11.4-7.8-15.4-4-10.3 9.5 21.4 6.5 24 7 12.4 1.5 5 6-4 6.6-8.5.6-19.4-2.6-21.6 7.2-.6 3-1 15.4 1.8 18.2s6.8.8 10.2 1c18.3.3-6.3 7.7-9 12-3.5 5.4-2.3 27.6 1 33s17.2 8.8 20.8 2.3zm9.7-.2c2-1.7 2-6 1.2-8-3.7-4-10.3 14.7-1.2 8zm-528-.2c3.6-1.6 9-11.7 9.4-15 .5-5.8-5.3-7.8-11.4-7.5-5 .3-18 7.2-17.5 13.2.3 5.3 15.3 11.4 19.5 9.4zm276.6-.3c7.3-1.6 14.8-3 22-4.2 6.3-1 17.7-1.3 11-8-3-3.5-9.3-4.6-13-9.2-4.2-5.4-2.4-6-11-7.5-11-2-26-8.2-27.4 6-1.3 15 .3 27.4 18.4 23zm-121-.4c7.2-2-11.6-17.7-15.6-7.7-3 7.6 11.3 9 15.5 7.6zm325-3c10.7-10.8-13.4-43.7-21.2-24.6-4.4 11 7.5 33.5 21.3 24.5zm-614.4-2c11-5.6 11.6-16.8 12-27.5 0-3 1.2-8.8-1-11.6-1.7-2.6-9-6-11.7-4.7-6.8 3-4.4 22.6-4.5 28.3 0 3-2.4 20.3 5.2 15.5zm585.8-2c7.4-7.3-5.7-32.2-16.8-19-7.3 8.8 8 28 17 19zm-205.8-1c6.7-6.7 1-36.3-12.7-22.7-9.3 9-2 29.5 12.7 22.7zm-615.5-7.3c3-16.3 6.5-32.5 10-48.7 1.4-6.8 5.3-15.5 4.8-22.3-.4-5-4-11.6-11.3-9-9.2 3.7-6.7 34.2-7 44 0 4.8-4 39.6 1 42 1.2.7 2.6-5.6 2.6-6zm714.3 3.3c7.4-2.5.5-6-1.6-7.2-4.6-2.3-12.8-1.6-18-2-.7 8.8 13 11 19.6 9.2zm76.4-1.2c13.2-9.3-20.6-14.6-18.6-3.8 1 4.6 15.6 5.6 18.7 3.7zm-262.8-.6c5.7-4.3-10-8.6-12.4-9.4-4-1.4-14-6.2-15.7 0-2.6 9 23.3 11.3 28 9.4zm-78.8-4c2-8.4-25.8-10.2-30.7-11-2.2-.4-29-7.5-22.8 1.7 3.5 5 53 11.8 53.5 9.3zm135.2 0c-.4-3.8-7-2.6-5 1 1.6 3 4.8.6 5-1zm170.4-3.6c18-4.5 21.4-19 26-34.8 1.3-4.2 5.5-11.7 1.6-15-3-2.8-17.5-1-21-1-14.3 0-28.5-.8-42.7-.8-17.4 0-37 3.8-54.3 1.5-18.7-2.6 15.7-7 15.8-8.7.2-3.6-38-8.2-42.3-8.4-5.7-.3-7.3-.7-9.6 4.2-2 4.5-2.8 19.7-.7 24.5 2.4 5.7 4 2 8.8 4.6 5 2.5 7 9.7 10.5 12.8 11 10 39 10.2 53.5 13 16 3.4 38.2 12 54.3 8.2zm-179.7-5.4c13.4-6.7 9.2-10.6-3.3-12-7-.7-27.6-5.8-32.4 2.3-4.4 7.5 10 10 14.6 11.4 8.7 2.6 12.6 2.5 21-1.8zm-96.6 1c9-8.4-17.6-18.7-20.4-8.3s14.6 14.3 20.4 8zm-602-5c4.3-7.8 3.4-17.6 4.2-26.2 1-12.5 4.3-24.6 6.3-37 2-12-3.8-11.7-9.3-19.6-1.7-2.4-2.8-10.2-8-7-2.8 1.6-1.6 2.5-2 6.8-1.2 15.6 1.2 32.5 1.3 48.2 0 6.5.5 12.8 1 19 .4 2.5 0 23.8 6.4 16zm571.5 1.3c10.6-13.7-26.7-25.7-35.3-23.7-3.6.8-9.5 7.3-9.6 11 0 5 2.6 4.8 7 6.4 5 1.7 34.4 10.8 38 6.3zm343-.7c3.8-4.3-1.8-14-7.4-6.8-4.5 6 3.6 11.7 7.2 6.8zm-525-3c3-4-3-5-5.3-2.6-3 3 2.4 5.7 5.3 2.6zm548.5-2.5c8.3-4-3.3-16.6 0-22.6 3.3-5.4 6.8-1 8.7 3.3 3.7 8.2 1.2 20.4 14.4 15.3 8.3-3.3 8.3-17.2 7-25.3-1-7.2-4-7.6-11.4-7.8-11-.3-14 4.4-21.3 11.2-7.3 6.7-12.5 8.6-10.4 20.2 1.4 8 5 9 12.8 5.7zm-298-3c9.7-1.7-1.5-11-7-8.4-9.6 4 1 9.2 7 8.2zM728 1490c8-6 2.4-13.5-4.7-5.6-4.5 5-1.4 12 4.7 5.6zm-39.4 1.5c7.5-2-5.6-8-5.5-8.4-.5 3 39.4.6 22-13.2-3.8-3-18.5-5.2-22.8-3.4-2.2 1-6.7 5.3-7 7.7-.2 1 1.2 9 3 7-2.7 2.7-16.5-.2-9.8 7.7 3 3.6 16 3.3 20.2 2.8zm258.2-6.3c3.5-6.5 3.5-29 1.3-36.3-2-7-10.3-10.2-14-2.2-2.5 5.2-2.8 22-1.2 27.4 1.2 4.2 9.2 15.3 14 11zm-297-.2c4.2-2.6 4-10.6 8-14 3.8 9.3 15.5-3.6 10.7-7.8-4-3.5-5 1.7-8.2 1.5-3.8-.2-4-2.2-7.8-1-3.3 1.2-17.6 12.7-17.6 17 0 5.5 10.7 6.8 14.8 4.3zm228.7-1q-2.3-2-4.5-.4c0 2 5 1.7 6.4 1.5l-1.8-1zm-15-.8c3.7-6.8-11.7-10-13.8-6.7-4.3 7 10 8.6 13.7 6.7zm-242-2.7c8-5.6 24.8-16.7 10.8-23.4-7.8-3.6-18.8-4.3-27.2-5.6-2-.4-8.4-2.5-10.5-1-3.2 2.6-5.3 19.4-3.3 23.4 3.3 7 24.7 10.2 30.4 6.7zm294.7-5.5c1-8 5.4-27.3.2-34-3.3-4.2-15.8-4.4-20.8-2.7-6.2 2-12.2 8.4-17 12.7s-9 7.4-8 14.5c1 8 7 8 14.8 9.5 5 1 32.6 10.2 30.8 0zm-338-2.8c2.5-4.2 5-19.2 2.4-23.6-2-3.6-12-7.8-15.7-5-4 3.3-2.6 19.6-1.4 23.7 1.4 4.5 10.3 11.5 14.5 5zm558.3-1c5-2.6 10-9.4.8-9.7-9.8-.3-8.4 13.7-.8 9.8zm-321.7-1.7c0-3-5.4-1.2-5.6-1.7 1 1.7 4.5 1.8 5.6 1.7zm-275.3-2.8c3.2-3 2.2-19 1.6-23.8s.2-5.6-4.7-8.4c-2.4-1.3-16.5-5.6-19.2-4.6-6.2 2.3-9.7 26.3-6.5 31.2 3.8 5.5 23.8 9.4 29 5.5zm318.7-8c9.6-9 16.5-22.4-.2-25.8-6-1.4-21.3-6.5-24.4 0-2 3.8-1.7 23 0 27 4.5 10.7 18.6 4.6 24.6-1.2zm-40.3-1.4c3.5-3.6.6-27-2.4-29.7-6-5.7-23-1.6-28.2 3.8-4.7 4.8-6.3 17.2-.6 22 4.7 3.7 26 7 31 4zm-334.4-2.3c3-5 4-25.8 1.2-31s-21-8.4-24.7-4.7c-4 4-5.3 28-1.4 32.6 3.6 4 21 6.3 25 3zm632.4-.7c7.5-6-1.5-14-7-15.5-7.6-2-16.8-1.7-24.8-2.5-17.4-1.7-34.8-3.8-52.3-5.6-13.2-1.4-26.3-3.3-39.4-4.4-8.7-.8-32.4-8.3-34.4 3.6-2.5 13.7 32.5 12.8 41.5 14.2 16.3 2.6 32.6 5.5 49 8.3 21.5 3.6 45.6 5.6 67.4 1.8zm42-1.2c6.8-4.4 6.5 2 12.2 1.7 4.2-.3 6.4-5.8 3.7-9.6-4.5-6-25.4-4-32.3-4-7.2-.4-18 5.7-10.3 13.2 4.6 4.4 21.5 2 26.6-1zm-524.4-2.3l2-1.5c0-7.6-41-13.8-41.8-10.5-2.2 9 33.3 14.4 39.8 12zm140.7 0c3.2 0-.8-9.6-4.3-5-2.6 3 1 6 4.3 5zm-327.4-2.3c4.6-5 5.5-33.8-.5-35-7.4-1.7-7 10-7.6 14.5-.6 4-2.6 10.3-2 14.5.7 3.8 5.2 11.2 10 6zm306.8-6.3c6.3-5.6 30-17.6 14-24-7.7-3.3-17.5-4-25.6-5.7-7.6-1.7-11.2-3.3-17.3 1.3-5.2 3.8-13.5 12.5-16 18s-3.6 6 3.6 9c9 4 33.5 9 41 1.5zm-327.3 1.7c3.2-5 3-20 2.3-25.7-1.4-10.3-10.5-9-19.4-10.2l-27.6-3c-6.5-.6-16.7-4.2-21.4 1.8-2.8 3.6-5.6 19.5-3.7 23.4 2.3 4.8 9.6 5 14.5 6l31.4 6c6.3 1.3 18.5 6 24 1.7zm452.8-2.8c4.3-4.3-3.8-8.3-5.7-2.4-1.4 4.4 3.3 4 5.7 2.3zm-298-3c1.7-5.8-14.7-9.4-15.8-4.4-1 5.3 13 7 15.7 4.3zm-327.8-1c3.4-6.3.6-20.4-5-10.3-1.8 3.5-.3 13.3 5 10.3zm446.4-5.5c3.3-3.6 19.3-17 16.8-23-3-7-11 2.8-13.5 5.2-4.3 4-13.7 10.6-15.7 16-3.5 9.5 7.2 7 12.3 1.8zm248 4c7.2-6.4-5-20.6-12.5-12.3-7.8 8.6 5 15.6 12.4 12.3zm226-1.5c3-6.4-1-22.7-1.4-30-.7-10.5-1.7-20.8-2.5-31.2 0-3.5.6-25-2.2-26.2-6.8-3.3-10 15-11.5 19.7-6.6 18.4-14 37-19.3 55.7-3.3 11.6 0 12.4 11.4 13 5 .3 23 4.3 25.6-1zm-349.8-.6q-.3-1.5-1 0 0 1.5 1 0zm93.6-1.6c6-7.2-7.2-11.3-9.6-3-1.7 6 5.8 6.3 9.6 3zm197.3 0c2.8-4.8.3-15 0-20l-2-29.4c-1.2-14.5-2.4-29-3.2-43.6-2.6-50.2-4.5-100.3-8-150.4-5.8-86-11-172.2-12.5-258.4-1.5-80.5-1.7-161.4-6-241.8-2.3-41.4-3.6-83-5-124.5l-1.4-34.6c-.3-4.6 1.2-16.6-1.6-21-2-3-1.4-1-5-2-3-1-11 .2-13.8 1.2-3.6 1.3-6.4 6.2-10 6.6-3 .3-8.6-3.3-12.2-3.8-10.4-1.3-23 .6-33.4 1.7-3.7.4-6.6 0-8.8 3-5.5 7.3-2.4 28-2.5 36.6-.2 12-1.7 24.5-1 36.6.8 13 3.4 26 4.7 38.8.8 8.5-.7 21 4.3 28.3 2 3 24.4 17.3 22.5 19.2-4.4 4.4-17-17-23-10.8-3 3.2.5 19 2 22.5 1 2.3 3.5 3.5 3.8 6.2 0 1-2.8 3.2-3 4.3-.8 3-.3 4.6 0 7.6.3 3.8 5.3 21 1.5 23-5.7 3-6-13-7.7-16.7-.5-1.3-1.8-1.6-2.4-3.3-1.3-3.3-.3-8.8-.4-12.3-.2-7.7 1.3-18-1-25-2.6-7.6-5.5-5-7.4.3s-.7 14-.8 19.7c-.2 6-1.8 14.6 0 20.4.6 2.7 3.3 3.8 4 6.4 1 3.6-2.5 11-3 15.3-.5 7.6-.7 15.3-1.4 23-3.4 42-6.3 83.7-8.5 125.7-4.6 87-7 173.5-9.8 260.5-1.6 50.2-.8 100.5-1.7 150.8q-.4 23.5-1.4 47c0 4-1.7 11.2.7 15s8 4.5 11.6 6c2.8 1 5.6 2.8 8.6 3.5 3.7.8 6.4-1.4 10-1 6 1 5.2.6 4.6 7.8-.6 5.8.8 6.3-5 7.6-4.2 1-7.2-1.3-11.5.4-4.4 1.7-10 6-14 9-6.8 5.2-6 7.2-6 15.6 0 7-2 11 3.8 14s16.6 1.8 23 2.4c6.7.6 13.4 1.2 20 2l38 4.6q17.5 2.2 35 4c9.8 1 27 6 36.4 2.3zm-449-.5c4.7-3 7.7-19 8.8-24.3 2.5-11.2-6-10.5-15.2-12.6-11.4-2.5-22.8-4.7-34-7.2-7.8-1.8-26.3-9.8-30-1.8-2.2 4.6-1.5 18.5-.8 24 1 7.6 3.6 7.6 12 9.5 11.5 2.5 22.8 6 34.4 8.4 7.3 1.6 17.6 5.8 25 4zm-125.6-1c7-3.7-18.7-16-23.4-10.8-6.4 7 18.7 12.4 23.4 11zm355-1.5c16.2-10.7-14-13.7-18.5-9.2-9.8 9.5 12 13.5 18.3 9.2zm-548-2.2c2-4.3 7.6-18.6 4-23-2.2-3-14.4-3.5-17-1.7-4.2 2.7-4 12.7-3 17 .8 5.7 11.5 16.4 16 7.6zm520.7-.7c10-9.8-28.4-13-31.6-11-11 6 6.3 9.4 10.4 10s18 4.8 21.3 1zm-178.4-8.8c7.4-6.7 15.5-11.7 3-15.7-9.6-3-12.6-1-15.8 7.5-1.3 3.8-6 13.7-2 17 4 3 12.5-6.7 14.8-8.8zm-367.7 5.5c3.6-4.5 4.6-18.5-.2-22.2-3.8-3-21.6-4-25.3-2-5.4 2.5-5.3 13-1 17.5 3.7 3.8 21.5 9.3 26.4 6.7zm493-2.8c3.6-2-.3-9-4.6-6s.5 8 4.5 6zm9.6-2.4c-.4-2-3.3-.8-2.7.7 1.2 2 1.8-.7 2.6-.7zm123.3-3.2c5-3.8-.2-14.4-7.8-9-9.5 7 1.3 13.7 7.7 9zM917 1413c2.8-2.2 3-11 1.5-14-2.6-5.3-10-5.7-15-6.8-12.3-2.7-24-9-26.4 6.3-2.7 17.3 4 13.4 19 14.5 6.8.6 14 2 21 0zm-632.6-1.8c9.5-11.4-13-21-19.3-10.6-5.5 9 14 14 19.3 10.6zm297.7 0c7-6 1.5-46.7-12-35.7-3.2 2.7-4.2 23-3.5 27.3 1.2 6.2 9 12.4 15.5 8.3zm189.4-.3c2-3.6-32.3-11.4-33.4-8.5-1.5 4 27.6 10.5 33.4 8.4zm98-.7c3.2-5.2 3.5-14.3 3.2-20.6-.2-1.7-2.5-4.3-2-6 .2-1.2 3-2 3.4-3 1.4-3.7 5.3-10 4-14-2.8-7.8-11.8.8-16 5-1.8 1.4-4.7 3-5 5.7-.7 7.3 6.3 1.8 10 5.8-.7-.8-15.3-2-17.7-1.2-6 1.8-15.8 10-17 16.4-2.6 12.4 11 11 19 11.6 5.4.5 13.4 3 18 .3zm262-1c6.6-10.6 9-25.7 13-37.4 6-16.2 13-32 18.4-48.3 4-11.8 2-25.3.8-37.5-1.3-14.6-2.3-29.2-3.5-43.8-2.5-28.6-4-57.2-6.8-85.8-3.2-32.2-6.6-64.8-8.6-97.2-7.6-126.8-15.2-253.8-24.4-380.5-2-28-1.6-56.5-2.8-84.5q-1-23.5-2.6-47l-1.6-24c-.3-4.5 1.2-18.7-2.4-22.5-4-4.2-19.7-1-22.8 3.5-1.8 2.5-.4 10-.4 12.8.2 9.4.7 19 1.3 28.4 2.2 33.8 2.6 67.7 3.5 101.6.7 28.2 3.5 56.2 4.4 84.3 1 34.2 0 68.4 1.3 102.6 2.4 62.2 3.5 124.5 5.2 186.8 1.7 63.7 9.7 127.2 11.6 191 1 37.7 2.7 75.6 5.2 113.3q1.8 26.2 3.8 52.3c.6 7.8 1 15.8 2 23.6.4 3.5-.2 12.8 5.4 8zm-912.8-6c4-4.6 1-22-.3-27.2-1.6-6.7-7-9.5-14.7-6s-6.3 17-4.8 24.7c1 4.8.4 5 4.5 7.5 2.8 1.8 12.4 4.2 15.2 1.2zm35-1c3.8-5-5.6-9-8-4.5s4.4 9.5 8 4.7zm540.2 2c9-3.4 10.5-20 10.5-27.7 0-10.4 2.5-20.7 3.6-31.4.3-2.7 3.5-15 1-17.6-3.6-3.7-8.8 4.3-11 6.6-7 7.2-14.2 14-21 21.4-9 9.8-18.3 19.4-27.2 29.3-2.5 2.7-8.6 7-5.5 11.2 2.3 3.2 13.7 3 17.5 3.5 2.5.4 7.5 2 10 .2 2-1.8.5-6.3 2.5-7.8 8.2-5.8 10.5 15.3 19.7 12.2zm-367.5-1.7c2-6.3-30.3-10.4-35.5-11.5-2.7-.4-37.3-11.8-28.3 4.3 3.8 7 34 5.7 42 6.6 5.7.6 17.4 4.4 21.7.6zm127.6 0c2.3-3 2-8.6 2.5-12 .3-2.5 3.2-30-6.8-19.7-3 3-3.3 35.8 4.4 31.5zm-15-2c4.8-4.3 2.2-19.7 2-25.4-.4-7.5-8.7-16.2-17.6-12.8-5.4 2-8.8 26-6 31.3 2.5 4.3 17 8 21.5 7zm171.3-3.4c12.3-11.7 27.4-20.6 40.2-32 11.5-10.3 21-22.5 31.4-33.7 8.2-8.8 24-19.7 30-30.4 3.3-5.7.4-11.3-1.2-16.7-3.3-10.4-2-10.3-14-13.8-4.6-1.4-16.5-6.6-6.2-9.3 8-2 18.7 10.3 25.2 2 4.5-5.8 3.4-21.8 4-28.8 1.2-11.8 3-23.5 5-35.3 6-37.4 9.5-75.6 11.2-113.6.4-10.8 4.4-28.5-1.5-37.4-3.5-5.2-4.2-3.3-4.7-9.4-.6-7.3.3-15 .5-22.4 1-33.3 1.3-67 3.5-100.2 5-79.5 1.5-159.8 2.5-239.5.4-33 .5-66 2.4-99 .8-16 5-35 2.5-51-.5-3.4.8-7.7-5.4-7.3-7.4.4-9.2 22-18.2 9.5-5.3-7.4 1.2-7.6-8.3-8.8-11-1.4-23-.4-34-.5-22.2-.2-44.4.3-66.5-1-8.8-.5-17.6-.7-26.4-1-8.3-.3-22-4.2-30-1.7-5.6 1.7-6.2 5-8.8 10.6-4.8 10.4-10 20.6-14.7 31-7.6 17-16.3 33-17 51.7-.6 23.7-1.7 47.7-.7 71.3 1.5 39-.2 78 1.7 117 3.3 70.4-.3 141.7-1.6 212.2-1.6 88-14.8 175.5-16.2 263.7-.5 25.6 0 51.2 0 77 0 5.7-2 16.6 1.2 22 3 4.8 10.7 5 16 6.4 9.7 2.6 19.7 4.5 29.6 6.5 9 1.8 20 6 29 5.5 7-.5 8.7-4 11.3-10.4 1.2-3 2-11.3 5-13.4 6-4 2 4.6 1 7.3-1.8 4.8-7 14.6-3 19 3.7 4 20.5 6 25.3 4.2zm-357.4-3c10-10-14.8-17.4-19.6-11-8 10.8 13.7 16.8 19.6 11zm592-2.4c6.2-4.3 4-13.2 4.2-20 .2-6.5-6.2-19.5-12.3-10.3-3.6 5.5-4.2 46 8 30.3zm-621.2 1c14.6-12.7-23.7-25.3-30.8-11.2-4.4 8.8 2.8 10.4 9.4 11.2 5.4.7 16.5 3.7 21.4 0zm101.8-4.3c-1.8-7.5-23-8.7-29.5-10.4-3.5-1-35.2-14-29.7-1.4 2.5 6 26 7.8 31 9.2s30 10 28.2 2.7zm492.2 2c4.8-5.2 3.5-27 2.2-33-2-9-16.4-16.2-25.6-12-6.5 2.8-7.5 10.6-9 16.6-1 4.2-6 14.4-5.2 18.7 1.4 6.3 32.7 15.3 37.6 10zm-641-2c18.2-8.7 1-26-8-16.7-6 6.2-3.8 25 8 16.8zm-23.5-.5c4-4-.6-26-7.8-19.8-4 3.2-.8 28.4 7.8 19.8zm231-3.8c3.4-3.5 2-22.4 1-26.3-1.8-5.2-12.3-13.5-18.4-9-3.4 2.7-4.7 24.4-2.8 28.3 2.6 5.4 15 9.6 20.2 7zm337.2-1.3c7-5.4-1-7.5-4.4-2.8-3 4.3.4 7.2 4.4 2.7zM966 1377c7-2.8 2-12.6-4.4-10.2-6.3 2.4-3.2 13.6 4.3 10.2zm-512-3.5c1.8-4.5 4.5-21 3-25.7-2-5.6-7.2-5.3-9.7-1.2s-2.4 19-1.4 23 3.8 10.8 8 4zm-98 .6c7.5-8.5-16.3-16.4-21-10.7-7.7 9.7 16 13.5 21 10.8zm-30.4-5.5c9.3-8.8-9.3-15-15-16.4-7.2-2-12-1.8-15 6-3 9 2.2 8.5 10.4 9.6 5.8.8 14.3 4.5 19.5.8zm105 .2c3.4-4.5 7.3-21.6 4.8-26.7-2-4-7-4.5-11-5.6-14.2-4-28.4-7.4-42.8-10-9-1.6-10-.7-11.6 8.4-1.3 7-4 15.3 2 20 8 6 23.2 7.2 32.6 9.8 6.6 1.8 19.8 8.3 26 4.2zm74.4-.5c2.6-3.4 3.6-12.4-3-10-4.5 1.5-2 16.3 3 10zm316-3c7-8.4 7-18 4.7-27.8-1.2-5 3.2-31.6-7-23.2-6.5 5.2-5.2 28.7-6 37-.7 4.8-2.3 29.2 8.4 14zm-238.8 3.5c2.5-1.6 1-16.5 1-18.7.3-23.7.2-47.3.3-71 .2-30.2 2-60 4.2-90 5.7-85.7 11.2-170.5 12-256.4.2-17 3.7-35.6 2-52.4-.6-6.8-4.4-8.3-6.6-14-4-10-.5-24.5-2.6-35.4-.6-3-1.6-11.8-5.6-8-3 3-.7 21.4-.7 25q0 41.8-1.5 83.5c-2.7 79.6-6.4 159.2-8.3 238.7-.6 24.5-4.2 48-4.3 72.8-.2 29.2 0 58.4-.5 87.6-.2 10.4-8.3 44.3 10.7 38.2zm256-.6c7.7-5.3 14-13 21-19.4 5.2-5 18-16 1.4-16.3-8.7-.2-15.3 10.3-20.5 16.7-3 3.6-8.5 9.6-7.5 15 .6 3.5 2 6 5.6 4zm-280.4-6c6-6.8 2.7-29.2 2.8-37 .5-30 .4-60.3 1.2-90.5.2-10 6.3-145 4-145-8 0-9.4 64.3-9.7 71-1 23.6-3 47-3.7 70.7-.7 25.6-1.6 51.3-2 77q-.3 17.3-.4 34.7c0 2.2-1 28 7.7 19zm-349.8-2.5c4.7-2.6-2.4-6.4-.8-9.5 1.5-3 5-.6 6.7-2.2 4.4-4.4 1.6-13.4.8-19l-4-30c-.4-3.8 0-14-2.8-16.7-5.2-5-8 .5-9 5.2-1.7 9.6 0 21 0 31 0 6.3-6 47.7 9 41zm332.3-2c2.7-3.2 1-15.2 1-19 .3-16.7.4-33.5.6-50.3.3-26.3.6-52.6 2-79 2.2-36 4.7-72.3 8.8-108.3 5.8-50.6 7-102 10.5-152.7 3.4-49 7.5-97.8 10.5-147 1.7-27.7 6-58.2 2.7-86-.8-7-6-62.3-9.8-62.4-6-.2-7.2 106.5-8 117.5-6.3 96-12 192.5-16.6 288.6-2.7 57.2-8.7 113.8-13.5 171-2.2 27.2-2.8 54.7-4.5 82-.5 7.7-1 15.3-1.7 23-.5 4.6-2.8 12.4-1 16.8 2.4 6 13 8.6 19 5.8zm-286.7-3.5c4.3-4 3.3-21-5.7-17.8-8.6 3-5 25.2 5.5 17.8zm22.3-1.4c19.3-2.3 0-13.7-8.5-12.4-4.5.6-8.2 6.4-4.6 11 2.8 3.7 8.6 2 13 1.5zm-46.4-4c6-7.7 3.3-24.3-4-30.3 7.7-8 7.3-11.4 7.5-22.6.2-4.4 2.3-14.5-1.7-17.8-2.8-2.4-14 .6-16 3.7-3.5 5 2.5 30.7 3 36.2.6 4 2.7 40.7 11.3 31zm130.2-1.4c2.5-5.3 5.7-20 1-24.5-3.5-3.5-20.5-6.7-24-2.6-3.2 3.4-1.4 20 1.3 23.4 3.2 4 19 9.2 21.8 3.8zm147 1c4.7-7.3 2-23.3 2.5-31.5.8-15 1.6-30 2-45.2 1.2-31.3 4.6-62.2 7-93.4 4-58 9.5-115.4 12-173.5 2.3-53.3 4.2-106.8 8.7-160 4.3-51.2 4.2-102.7 7-154 1-21.2 2.6-42.2 3-63.3.3-10.4.4-21 .4-31.3 0-9.8-.6-11.2-6-19.2-5-7.4-7.3-20.7-18.4-23.7-7-2-6.6 1-7.6 7s-1.4 12.6-2 19c-3 22.4-5.7 44.6-7 67.2-6.8 109-3 218.2-2 327.2.5 63.8.8 127.4-1 191.2-1.3 37.5-1.6 75-3 112.6-.3 15-1.4 30.3-1.5 45.5 0 4.5-2.7 32.5 6 25.2zm442.5 0c2-3.4 1.2-10.4 1.3-13.8.3-8.2 1-16.6.5-24.8-.2-5.7-5.2-17.6-13.7-9-5 5-2 29-1.7 35s5.2 20.6 13.8 12.5zm-465.3-3.7c3.8-2 2.4-18.8 2.5-22.7.6-13 1-26 1.2-39.2.5-26.2.4-52.6.8-79 .4-27 2.8-53.8 3.2-80.8 1-61.2-.3-122-.8-183.3-.4-38 1.2-76-.5-114-.3-6-4.3-19.8-6.4-5.2-2.4 17.6-1 36.7-1 54.4 0 20.6 0 41-.8 61.6-1.6 44.8-2.7 89.8-2.7 134.7 0 51-3.4 102-6.3 153-1.5 25.7-3.3 51.4-5 77.2-.6 10-4.2 24.5-2 34.3 1.5 6.5 11 11.2 17.8 9zm360-6.5c2.3-3 6.3-7.4 3.3-11-1.8-2-8-2-10 0-4.6 4.2-4.6 24.8 6.7 11zm74.6 1.8c6.3-3.2 3-14.8-5.6-10.4-9.2 4.5-2.5 13 5.6 10.3zM457 1336c4.6-11.7 2.5-29.8 3-42.3.8-17.4 1.3-35 3.2-52.3 3-25 2.4-50.6 5.2-75.8a281.6 281.6 0 0 0 1.7-33.5c0-2.6 1.2-8.4-3-8-5.3.2-4 17.6-4.2 21-2 30.8-6 61.6-9.2 92-2.3 20.7-4.2 40.8-5 61.5l-1 27.5c0 2.7-1 7 .6 9.4s7 4.6 8.7.7zm-142.7-5.3c5.8-1.4 11.6.3 13.6-6 4-12-8-8.4-12.7-12.8-8-7.3 8.5-3.2 9.8-3.8 4-2 3-4.7 3.5-8.6 2-17.8.5-36.5.8-54.4.2-17.6 3.6-38 1.2-55.4-2-14-19.5-29.8-28-40.6-4.7-5.7-9-13.6-12.3-5.6-1.6 3.6-.2 10.3 0 14 0 9 .3 18 .5 26.8.7 19.3 1.5 38.6 2 58 .5 23.2.7 46.6 1.3 70 0 3.2-1.7 15.5.6 18.5 3.8 4.8 14.8.8 19.7-.3zm122.2 1.2c5-7.8 2.4-24.8 2.7-33.2 1.3-40 1.7-80.2 2.5-120.4 1.5-71.4 4.2-143.3 12.7-214.3 4.5-37.2 10.4-74.4 14.8-111.8 5-41 7.4-81 8.4-122.3.5-20 1.5-40 1-60 0-11.6-3.7-21-7.4-31.8-11.5-33-25.8-64.3-38.8-96.5-4.6-11.4-9.2-37.6-20-44-7-4-20.2-4.2-28-5.8-8.7-2-17.4-4.4-26.2-5.7-20.7-3.2 3 17-7.4 23-12 7.3-11.3-41-25-26.8-3.6 4-.6 16.2-.6 21 .2 9 .5 17.8 1 26.6.5 20.3.6 40.6 1.7 60.8 1.5 33 2.3 65.8 3 98.7 2.4 118 11.2 235.7 10.3 353.7-.3 36.8-5.2 76.2.3 112.6 2.3 15.6 4.2 33.8 9 49 3 9.7 10.6 20 17 28 8.7 10.8 9 .7 10.7-8 1-4.5 6.2-20 9-7.4 1 5.7-3.2 16.8-4.2 22.6-.5 3.2-2 7.3-1.4 10.6.6 3.2 8.7 10.5 8 13.5-1.2 4.5-8.5-3.7-11.7 5-3 8-2.6 19.4-3.6 27.8-.5 4.7-3.6 15.7-.7 20.2 3.6 5.4 17.6 6 23.3 7.5 8.3 2 33 12.5 39.6 7.4zm-152-4.8c5-6.5 1.5-24.6 1.5-31.7 0-19.8-.6-39.6-1.3-59.4-.7-21-1.6-42.2-2-63.4 0-14.4 3.7-34.7-1.2-48.6-1.6-4.6-10.2-16.3-15-11.2-4 4-.8 24.6-1 30.3-.4 10.8-1.2 21.4-1.5 32.2-.6 22.5-1 45-1.4 67.7 0 4.7-2.7 18 .8 22.4 2.3 2.8 13.2.4 9.8 5.2-1.8 2.7-7.8.5-10.4 4.3-2 2.8-1 9.5-1 12.8 0 3.7-.3 7.8.7 11.5.5 1.6 2.7 4.2 2.8 5.8.2 5.6-6.7 11.6-1.6 17.7 2.8 3.4 17.2 9 20.7 4.5zm602.2-2.7c6.2-6.3 6.7-13 8.2-21.4 1.4-8.6 2.3-10-5.4-13.5-6.3-2.7-14.5-2.5-21.3-3.5-8-1.2-15.8-4.7-22.7 0-6.3 4.4-9.2 17-7 24.2 1.5 4.5 4.6 5.7 9 7.4 2.2 1 5.6 2.5 8 2.3 2-.2 8.6-4.5 9.4-4 2 1.2 0 5.2 1 6.8 1.3 2 4.6 2.7 7 3.5 5.3 1.7 9.8 3.8 13.7-1.8zm-632.8-8.8c3.2-4.7 1.4-15.8 1.5-20.7 0-3.4 2.3-17.6-.8-20-8.2-6.7-8 20-8.2 24.2-.2 1.2-2 29.4 7.4 16.5zm108.2 1c5.4-3 4.8-19.2 5.4-24.2 1-9 2.3-17.8 3.6-26.7 1-5.6 3-11.5 1-17-.8-2.6-13.6-21.4-15.8-20.7-4.4 1.5 7.5 33-2.6 25.3-3-2.3-3.6-16.5-4-19.8-1.3-6.5-1.6-13.5-3.3-19.8-2.4-9-5-12-8-5.4-1.8 4.2-.6 12.8-.7 17.2l-.8 40.3c-.3 11.3-4.4 30.7-.3 41.6 2.7 7.2 18.3 10.2 25.5 9.3zm871-32.6c-.5-21-1-42.3-3-63.5-.3-2-.5-16.8-4.6-16.6-3.8 0-2.6 11.3-2.6 13.3-.3 10.5 4.6 99 9.2 98.4 2.2-.3 1-29.5.8-31.5zm-324.3 19c6.4-7 0-13.8-6-7.6-5.8 6-3 17 6 7.5zm37.7-11.5c1.2-1.3 2-24 2.3-23.8 3 1.8 1.6 3 4-.7 1-1.3 1.6-11.4 0-12.8-4-3.4-13.7.7-16 5-2.5 5.3-2 21.3-.5 26.8 1.5 5.3 3.7 8 10.2 5.5zm-122.8-2c6.3-3.8-4-4-3.3-3 2 3.6-2 3 3.2 3zm89-5.3c3-4 1-19.8-5.7-15-7 5-1 23.6 5.6 15zm-14.6-2.2c4.2-4.6 5-14.4-.8-16.4-4.5-1.5-21 4.2-25.2 6-10.2 5-3 6.8 3.8 8.3 5.4 1 17.2 5.7 22.2 2zm-692-8.3c3.2-4 1-12.6.7-17.2l-1-25.6c0-3.3 2-35-8-25.3-2 2.2-.5 14.8-.5 17 0 10 .2 20 .4 30 0 4-2.5 29.5 8.5 21zm17.8-1.7c13.7-4.5 9.5-22.3 9.5-34v-51q0-63.2-.4-126.5c-.5-74.6-.2-149-4-223.5-1.5-31-5-62-7.4-93l-2.7-36.5c-.4-5 1-17-2.4-21-1.3-1.2-4.8.4-5.8-.6-1.3-1.6-2-11-3.7-10.6-3.6.7-2.8 22.6-3 24.7-.8 20.8-1.3 41.4-1.7 62-1.2 53.3-2.3 106.5-1.3 159.7.7 38.8 3.3 77.6 5.4 116.3 2.2 42 1 84.4 1.5 126.4.2 22.2.3 44.4 2 66.5 1 11-.8 26 2.6 36.3 2.2 6.6 4 7.6 11.2 4.7zm604.5-4.3c3.5-5.6 2.3-18.6 3-25 .6-7 1.7-14 2.3-20.8.4-4-.8-38.2 1.2-39.5-2.2 1.4-.8 10.5-1.5 13-.7 2.3-2.7 3.2-3.4 5.2-3 8.7-3.8 19-5 28-.8 4.7-9 44 3.4 39zm19-2c3.8-2.4 5.4-5 9.4-6.5 2-.8 3.7 0 6-1.2 4.7-2.5 10.7-15.7 16.6-14.7 10.4 1.7-9.6 12.6-4 17 3.8 3 26.7-4.8 29.6-9 3.6-5.4 3.3-18 3.6-24.4.5-10.7-1-21.4-1.6-32-.2-2.7-1.6-8.7.8-11 10.8-9.4 9.5 17 12 17 3.2 0-2.4-295.2-8.7-328.5-2.7-14.5-5.7-29-8.3-43.6-.6-3.5-3.7-30.3-8.8-25-2.6 2.8-2.2 14.8-2.7 18.4l-2.2 20c-1.8 16-3.3 32-4.8 48.2-5.7 62.8-17 124.3-27 186.5a914.5 914.5 0 0 0-10 105.8c-.8 18-1.7 36-3 54-.3 3-5 34.4 3.3 29zm-593-2.7c5.4-4.5 4-62.8.5-65-7-4-7 36.2-7 40a176.5 176.5 0 0 0 .8 20c.4 4.2.5 11.6 5.7 5zm688.6-20.6c.4-.5 1.2-3.2 2-4s4.8 0 6-1.4l.7-1.6c2.6-3.5.7-14.7.7-18.8.2-21.8.4-43.6 1-65.4 1.4-37.5 1.5-75 2-112.4.6-70.4 5-141.4 10.3-211.6 1.8-23.8 5-48 5.8-72 .5-21-15.3 8-19.7 14.4-7 10.2-12.5 15.5-13.4 28-1.4 17.2-1.4 34.8-1.6 52.2-.3 26.7 0 53.4-.5 80-.3 16.8-1.7 33 2 49.5 1.3 6 6 16 3.8 22-1.2 3.3-3.2 1.7-4 3.7-2.6 6-1.5 14.5-1.6 21q-1 65.4-.4 131c.2 22.2.4 44.5.8 66.7.2 3-2 23.8 6.3 18.6zm232.6-37c2.6-31.8-1-65.4-1.2-97.3 0-38 1-76 1.3-114 .7-53-12-106-15.6-158.6-3.4-51.8-7.3-103.2-12.5-154.8-5-47.6-3.2-96.4-5.2-144.3-.3-7.5-.6-15-.7-22.6 0-4 1.8-16-.7-19.5-2.3-3.4-6-3.6-10.4-.5-4.4 3-3 1.5-3.7 7.2-1.3 10.2 1 21.6 1.7 32 1.2 16 1.8 32 2.6 48 4.8 105.6 10.7 211 19.7 316.3 2.4 28.6 1 57.7 2.3 86.4 1 21.5 3.4 43 5.2 64.6 1.5 17.3 10 165.4 16 165.4.7 0 1-8.4 1-8.2zM455 1178c3.8-7.2 2-19.8 2.6-27.6.5-8.6 1-17.2 2-25.8q3-28 4.3-56c1-20.8 1.7-41.5 3-62.2.6-10.7 4.6-19.7 5.2-30.2.8-11.7.8-23.5 1.3-35.2 0-3.8 3.2-22-.5-24.4-5.7-3.7-5.2 12.4-5.5 14.8-1.3 12.4-3 25-4.3 37.4-4.2 38.2-8.2 76-10 114.5-.7 17-1.6 34-2.2 51l-1 31.5c0 2.2-1 20 5 12.3zm-198-1c3-5.4 2-16 2-21.7 0-3.5-.5-16.3-6.5-9.2-2.7 3.2-1 16-1 20 0 1.2.3 21.3 5.6 11zm74-6c3.5-12.2 1.3-30-.2-42.6-2.3-18.8-6.6-37.6-9.4-56.4-6.7-44.2-8.7-89-15.4-133.2l-4.5-32.8c-.3-2.6-2.2-24.2-6-22-1.5.7-.7 9.8-.8 11-.3 13.8-.2 27.5-.3 41.2-.3 47.7-3.4 95.3-4 143-.2 15-5.2 37.6 3 51 6 9.8 15.3 18.4 22.5 27.4 2.7 3.5 11.3 19 15 13.5zm509.2-8c4.4-14.5 4.3-32.8 4.2-47.7-.2-11.4-4-11.2-6 .4-1.6 9.8-1.8 20-2.2 30 0 4-3.3 21.3 4 17.4zm374.7-2c1.4-3.8.4-10.4.5-14.4l1-38.2c1-37.7 1-75.4 3-113 .6-12.7 2.6-27 1.3-39.8-.5-4.8-.6-3.6-2.6-7.7-3-6-3.7-7.2-3.7-14.2 0-34.3 2-68.8 4-103 .7-10.2 1.6-16.8-1.5-26.5l-13.6-41c-1.8-5-3.3-22-9.5-21.7-4 .2-2.4 6.7-2.5 10q-.8 22.2-1.3 44.5c-1 34-3.7 67.7-4.2 101.6-.3 18.4-.5 37 1.2 55 1.5 16 5.2 31.5 6.4 47.3 2 27.3 5.4 54.5 8.6 81.7 1.8 15.2 3.8 30.2 5.3 45.4.5 5.6 1.8 36.8 7.4 34zm-932.4-82c.8-53 3.4-105.7 3.8-158.7.5-50.8 3-103-2-153.8-.6-6-5-43.4-8.8-41-3 1.8-2.2 19.6-2.4 22-1 12.6-2 25.2-2.7 37.8-1.5 32-1.7 64-2 96-.4 33.3-3.6 66.5-3 99.8.6 34.2-.6 68.5.5 102.7.4 14.4 4 18.5 13.4 28.5 6.4-6.5 3-25.3 3-33zm51.5-48.7c0-65.7-7-131.4-6-197.4.4-43.3-2.5-86.8-4.3-130-1.7-41-2.8-82-4-123-.5-19.3-1-38.5-1.8-57.7-.4-8-1-16-1.2-24-.5-11 2.4-18-8.6-21.5-12-3.8-14.2-2.8-14.7 9.4-.6 13.3-1.5 26.6-2.7 40-2.4 25.7-5 51.4-7 77.2-2 24.3 1 49.2 2.4 73.5 1.2 22.2 2.8 44.2 5.2 66.3 4.5 41 3 82 9.7 122.8 9.5 56 16.7 112.5 21.5 169l3 37.7c.2 3.7 2.8 17.7 8 11.5 1.7-2.2.5-10.7.5-13.3.2-13.5 0-27 0-40.5zm-132 44.3c5-10.7-.3-29.2-.7-40.5-.5-14.2.6-30.5-1.7-44.4-4.3-26-4-54-4.5-81-.7-60.8.2-121.8 2.3-182.6.4-14.6 1.3-29.2 1.6-43.8 0-7 3-28-.3-34.3-2.2-4-7.5-4.3-11.6-5-6.6-1-7.7-1.7-9.6 3.7-3.5 9.8-.2 26.7 0 37 1 66.7 5 133.6 7.6 200.2 1.2 31.5 4 63 5.2 94.4.6 17 1.6 34 3.3 50.6 1 9.6 1.5 19.4 2 29 .2 3-.7 25 6.5 16.7zm657.4-41c9.8-49.7 15.4-99.7 20-150 2.4-26 3.7-53 8.2-78.8 1.7-9.8 12.6-59.7-6-57.4 1.3-11 1.5-19.7-1.5-30.3-1-4.2-10.4-32.3.2-21.4 5.3 5.5 4.5 21 8 28 .5 1.4 3.8.4 4.5 2.3.6 1.8-1.5 4.8-1.7 6.6-.3 2.6 0 15.2 4.3 15.3 1.7 0 5-19.3 5-22.3 0-.7 1.5-5.2 0-6.2-3.6-2.5-3.4 4-5.2 3-2.4-1.6 11.7-30.2 12.5-36.6 2.2-18 .4-37 .6-55.2.3-21.7 1-43.3 1.7-65 .3-11 .5-22 1-33.2.2-3.8 2-10-1.3-12.7-3-2.4-12.4-.7-15.6-.6-6 0-24.6-3-28.8 2.8-2.8 4-.8 16.3-.8 20.8-.5 45.3.8 90.5.6 135.8 0 20.7-.7 41.2-2 61.7-.4 6.2-5.4 26.7-2 31.4 5.2 7.5 9-9.5 14.7-12.6.2 0-7.4 16-9 18-3 4.5-6.7 8.5-8 14-3 12-2 26-2.3 38.2l-.8 37c0 3.3-1 7.8-.3 11 .8 2.8 3.7 5.2 4.3 8 1.8 9.6-2.5 22-2.7 32-.4 15.5 0 31-.7 46.3-.8 19.5-1.6 39-2 58.5 0 1 1 26 2 25.2 2.2-1.8 3-11 3.4-13.5zM878 753.4c0-4 0 4.4 0 0zM249.2 1024c3.3-13 1.7-28.7 2-42 .2-13.2 1.7-26.2 2.5-39.3 2-33.3 1.5-66.8.8-100-1-51.8-4.2-103.5-4.4-155.3 0-7.5 3.6-26.7-.6-33.6-2.5-4-18.7-7.2-22.7-3.5-3.6 3.4-.7 14-.4 18 1.4 16.6 2.5 33.3 4.3 50 5.4 52.6 9.2 106 10.6 158.8 1 35 5.4 73 1.5 107.8a249.8 249.8 0 0 0-1.3 28c0 2.3-1.5 11.6 0 13.5 3 3.7 6.7 2 7.8-2.3zM845 965.5c3.2-15.2 4-30.3 4.5-45.8.2-7.4 4.6-28.6-1.3-33.4-6.8-5.7-6.4 8.5-6.8 13.2-.7 10.3-1 20.6-1.4 31s-2 21.5-.8 31.8c.2 1.7 2 11.3 2.7 10.8 1.8-1 2.6-6 3-7.5zm3-141c.4-2.8 4-33.8-4.6-21.6-3 4-.8 29.2 1.8 32.8.2.2 2.8-11 2.8-11.3zm62.5-8.2c5-14-.2-36.5-.6-51.4-.2-4 2.2-29-5.5-26-7.5 3-6 31.2-5.8 37 .5 8.3 2.6 16.6 4 24.8 0 .5 5.5 22.7 7.8 15.6zm-61.8-22.8c3.6-3.2 2.7-12 3-16l3-36.6c1.2-17.3 2.3-34.3 2.5-51.5.4-41.4-.3-82.8-1-124.2 0-6.4 4.4-44.6-2.8-45.2-8.6-.6-6 44.3-6.2 51.5-1.3 34.5-2.6 68.8-3 103.3l-.7 81.7c0 3.5-3.5 41 5.2 37zm370.5-4.8c2.6-3 1-12.6 1.2-16 .8-30 1-60 1.5-89.8.6-43.7 1.7-87.2 2-130.7 0-22.6.2-45.2 0-67.8 0-4.6 1.4-10.6-2.7-13.7-4.3-3.3-18-1.8-21.6 3-4.2 6-2 20.8-2 27.5l-1.3 62.3c-.8 30.4-1 58 4.5 88 1.6 9.2 2 8.2-3.4 14.2-2.4 2.7-3 2-4.2 6-3.4 11.4-1 27.7-1 39.8s4.4 22.3 8.6 33.7c3.4 9 5.8 18.6 9 28 1.2 3.6 3.4 19.5 9.2 15.3zm-294-4.7c1-20.3 2.2-40 1.8-60.5-.2-7 3.3-58.4-3.3-60.2-9.3-2.6-4.5 50-4 56.8.5 13.4.6 26.6.8 39.8 0 5.3-1.4 24.4 3 28.6 1.3 1.4 1.7-5.2 1.6-4.4zm22-11.6c5.8-12.6 18.4-22.3 23.2-35.4 4.5-12 2.3-29 3-41.8l1.2-41.6c.2-9.8-.8-11.8-7-19.2 11.3 4.2 9-14.2 9.7-21 1.2-14.3 1.3-29 1.4-43.4a363.3 363.3 0 0 0-2-45.4c-1.5-13-7.4-10.6-18.6-9.6-9.6.8-16.8-1.2-19.3 9-3.5 14.4-6 33.7-5 48.5.5 11.8 2.2 30.7 10.3 39.7 1.8 2 18.2 14.7 17 16-3 3-14-15.7-21.3-9-2.5 2.3-3 6.7-3.3 9.8-3.2 21.5-.5 46 .4 67.5 1 22 1.4 43.8 2.6 65.6 0 2.5 1.5 21 7.7 10.5zM964 632l-1.6-1.3c.3-1.8 4.3 2.7 3.5 2.3zM598.6 772c3-9 2.8-17 2.8-26.7s3-26.4-.5-35.2c-5.6-13.5-9.5 9.8-9.8 15.3-.3 4.6-1.3 49.2 6.4 48q1.5-.5 1-1.2zm573.8-41c2.7-6.6.6-18.6.7-25.3.2-11 0-22 .6-33l1.5-27.7c1.3-36.4 4.2-73.8 1.6-110.2-.5-7-1.6-14-2.3-21.2-.7-6.7 1-23.4-3.4-28.6-3.4-3.7-11.4-2.3-14 3-4 7.4.4 25.2.6 33.5.6 33.8 3 67.7 2 101.5a306.4 306.4 0 0 0 2.6 50c1.5 10.5 2 21 3 31.5.5 4.6.7 30.2 7 26.3zM262 722c6-33.4 6-69.6 7.6-103.5.6-14.6 1.2-31.3-2.3-45.6-1.7-7-2-8-4.6-2.2-3.8 8-2 23-2.4 31.6-.7 16 .3 33.5-1 48.8-.6 8-4 74 1.3 73.3q2-1 1.3-2.3zm229.8-49c3.3-8.5 1.7-23.7 2.2-33.5 1-19.4 0-38.7 1.7-58 1-11.3 10.2-44.5-2-52-9-5.3-6.7 3.8-6.8 10.3-.3 25.3 0 50.6.2 76 0 8 .2 16 .6 24.2.3 6.2.7 12.4.8 18.6 0 4.3-2.4 16.2 3.3 14.4zM990 646.8c3.2-4-.5-18.2-5.4-9.6-1.7 3 .7 15.7 5.4 9.6zm-743-3.4c6-4 4-16.3 4.4-22.3.6-10.4 1.5-20.8 2-31.3.8-15.7 1.4-31.5 2-47.2.7-16 1-32 1-48-.2-10.3 1.4-26-8-31.5-5.3-3-13.6-3-19.6-4.2-5.7-1-17.7-7-22.7-5-8.2 3.3-1.6 34.8-1 43 1.5 28.3 2.7 56.6 2.6 85 0 7.4-1 16 4.7 19.3 2.8 1.7 5-.8 7.5 3.4 1.8 3 1.7 9.5 2 12.7.7 7-1 21.4 5.3 25.8 4.2 2.7 15.8 3.3 20 .7zm-49.6-6.8c4-3.2.7-25.7.6-29.7q-.4-27-1-53.8c-.4-21.2-1.5-42.3-2.5-63.5-.5-9.8-.8-19.6-1-29.4-.4-7 .4-8.2-5-11.7-2-1.3-16-6.7-18.4-5-5 3.3-1.5 21-1.3 26q1 37 2.7 74c1 23.8 2.6 47.7 3.8 71.6.3 5.2-1.3 16.4 3.4 20.3 3.7 2.8 15.2 3 18.8 1zm281-10c-.5-33 1.5-68.4-3-101.3-1.3-8.3-4.2-9.4-11.2-13.8-5.7-3.6-12-7.5-18.4-9.2-3.2-.8-18.4-4.4-21.4-2-5 4 10 33.7 12 38.7 4.4 11.6 8.7 23.2 14 34.5 5.8 12.8 12.2 25.7 16.7 39 1.7 5 3 16.2 6.7 19.7 5 4.8 5-.6 4.6-5.5zM593 630c7.2-15 6.4-37.6 6-53.7-.5-16.8-1.5-33.3-2.6-50-1-14.7-2-17.5-19.3-17-15 .5-10 18.2-9.8 30 .5 18.7 2.3 37.6 4.3 56.2.4 3.5 1 23.2 6.6 16.6 2.8-3.2 1-15.3 1.2-19.3.3-11 .4-22 1-33 .3-5.6-.8-16.6 6.7-18 10-2 6.7 8 6 13.2-2 11.3-2 23.5-2.6 35-.5 10-1 20-1 29.8 0 3.6-1.3 13.5 3.7 10zm24.7-68.7c3.7-4.5 5-13 6.3-18.4 1.6-6.5 6-17 5.6-23.7-.5-8.4-16-10.7-19.8-4.3-3.6 5.8-.2 23 0 29.6.2 3 0 22.7 8 16.7zm-82-9c.6-4.4-10.3-19.8 3.2-17.3 5 1 6.3 12.7 11 10.6 3.7-1.5 2-21.3 2.2-23.7 0-6.3 1-10.7-4.5-13.6-3.7-2-17.5-2.7-21.2-.8-5 2.5-4.4 8.4-5 13.4-.7 6-3.6 16.6-1.3 22.4 1.7 4.3 12.2 13.8 15.5 9zm95-7.6c2.2-7.6 8.4-14.3 10.5-22.3 1.6-6.6-.4-12-6.6-4.4-4 4.8-4.4 12-6.4 17.8-.4 1.2-3.3 5.7-3 7.2.7 3.6 3.2 4.7 5.5 1.7zm-353.8-9c2.3-16.6 2.6-34 4-50.8 0-2.7 1.6-9.3.3-12-1.6-3.3-8-7.2-12-5.5-8 3.4-2.8 24.7-1.7 32 .4 3 5.8 40 8 39q0-3.2 1.3-2.7zm956.7-13.2c5.4-4.3 3.8-28.5 4-34.8 0-3-.8-27.8-7.7-14-3.4 7-.4 23.3-.2 30.7 0 7.8 2.5 16.5 2.3 24 .2-2.2 1-3.5 1.7-6zM498 525.8c4.2-7-2.4-28.8-12.8-18.4-6 6 4.7 22.6 12.7 18.4zm434.4-4q.8-2.8-1.7-3c-1.7.7-1.7 6 1.8 3zm-126-9c5.2-.3 24-3.7 12-10.2-4.3-2.2-15.8.3-20.6.6-6.3.3-12.6 1.4-18.8 1.6-7.4.2-61.5-1-61 5s19.7 4 21.7 4c22.3-.2 44.6-.3 67-1zm35.3-2.2c2.6-2.8 2.4-9.6-2.8-8.5-7 1.6-2.8 14.4 2.7 8.6zm-367.6 0c4-3.7-5.8-8-7-4.4-1.4 4 4 6.3 7 4.5zm383.5-1.4c2.3-4.2-2-11.4-6.5-7.3-5 4.5 2.6 14.2 6.5 7.2zm39.3 1.2c5.6-.2 21.7-.3 15-11.8-4.2-7-27.7-1-34.7-.4-4 .4-18.7 2-12 11 4 5.6 26 1.4 32 1.2zm38.3-3c5.6-6.2-1.4-20-6.5-10.8-2.4 4.5 0 15.3 6.7 11zm27.7-.2c3-.2 9 .4 11-2 1.3-1.7 1.8-11 .5-13-3.8-5.8-15.6-2.2-21-1.2-6.4 1-14 4-12.2 12.4s15 4.2 21.7 3.8zm-331.4-1.7c3.6-2.7 6.7-18 3.3-21s-19.8-3-23.2 0-4 15-1.2 18.4c3.3 3.7 16.6 4 21 2.5zM1017 504c5.7-.2 15.2.6 20.2-2.7 3.3-2.2 11-13.5 11.6-17.2 1.3-7.6-2-6-8.7-4.6-4.4 1-9 1.8-13.6 2.4-8.3 1.2-29-.5-34 8-2.2 4-1 13 3.3 15.3s17-.8 21.3-1zm-422.3-2c3-2.7 2-16.3-1-19-3.5-3-16.7-3.6-20.6-1.7-5.2 2.7-7.6 14.5-3.4 19 3.7 4.4 20 3.8 25 1.5zm-43-3c4.6-4.8 1-16.6-4.3-19.7-5.8-3.5-17-3.8-20.8 1.6-4 5.7-4 16.4 2.3 19 4.8 2.3 18 1.5 22.6-1.2zm515 0c8.6-1.4 9.4-7.6 8.2-15.4-1.5-9-1.4-6.4-6-2-6.3 5.6-21 21-2 17.2zM498 498c3.2-2.5 3-18 1-21-2.3-3.6-11.4-6.5-15-3.6-3.4 2.8-2.6 19-.2 22.2 3 4.3 9 4 14 2.2zm-24.8-2c2.5-3 1.3-17-.4-20.6-3.3-6.8-8.8-5.4-16-6.4-9-1.3-17.8-2.2-26.7-3.3-3.4-.4-17.2-4.6-20.3-1.2-9.4 10.5 20 24.3 25 26.6 9.2 4.4 29.3 10.2 38.5 5zm275.6-1.8c2-.2 16.5-.8 11-7.6-1.3-1.4-14-1.5-17-2-7-1.5-30-5-36.6-.3-6 4-2.3 10 2.6 11.5 10.8 3.4 28.7-.5 40-1.6zm-95.7-1.8c6.5-6.3-4.8-11.5-9.7-8-8.2 5.5 3.7 14 9.8 8zm449.5.4c16-3 7.6-32-10.7-23.3-6.2 3-5.5 10.5-4.5 17.3 1.5 9.5 6.3 7.7 15.2 6zm-414.2-1.2c9.5-4.3-2-6-6.2-6.3s-16.6-2.6-20 .3c-12 10 22 7.3 26.3 6zM405.6 488c7.7-3-9-11.5-9.8-12-5.7-2.7-11.5-5.4-17.3-8.3-8.4-4-37.7-24.3-36.5-6 1 15.7 7.7 16.2 20.6 18.5 9.6 1.6 19 3.4 28.4 5.5 4.6 1 10 3.2 14.6 2.2zm729-3c12.3-3.7 7-21-5.6-15-8 3.7-4.6 20.3 5.7 15zm30.5-9.6c9.4-4.5-3-8.3-6.3-4.6-4.4 5 2 6.8 6.4 4.6zM405.4 474c5.6-2.8-5-11-7.5-12-2.8-1.5-17.3-6-19.8-2-4 6.2 23.6 15.5 27.3 14zm-72.8-1.7c3.2-3.8-2-13.5-7-8.2-4.2 4.6 2 12.3 7 8.2zm-20-3c2.3-1.5-1-6-.7-8.6.7-4 5.3-4.4 2.3-8.7-2.2-3.4-16-3-18.6-.8-10.8 9.6 8.2 22.3 17.2 18.2zm854.4-3.6c3.7-5.8-.4-19.2-8.8-12.4-7.5 6 4.4 19 8.7 12.4zm69-.4c.7-1.7-4.4-2-3 .6 1.3 2 2.2-.5 3.2-.7zm-108-1.4c4-10.4-10.2 4.5 0 0zm-372.2-1.3c5.7-7-4.6-8-8.7-8.2-14.5-1.3-29.4-1.2-44-1.7-1.4 0-40.3-1.7-32.3 9.5 2 3 16.4 1.4 19.2 1.4l45 .3c6 0 15.4 1.8 20.8-1.3zm457-1c8.7-2.7 13-6 10.6-16-1.8-8.2-12.6-8-19.7-4.3-5 2.6-8.6 14.6-5 20.3 3 5 9.5 1.5 14.2 0zM639.4 463c7.5-2.2 4.4-14.4-4.8-7.6-6.7 5-4 10.3 4.8 7.5zm24.5-.6c10.6-3-3.2-20.4-13-8.7-8.8 10.2 6.5 9.7 13 8.7zm108-1.6c0-7-7-.4-4.5.4 3 1 2.6 1.3 4.6-.4zm-491.4-.3c2-4 0-15.7-4.4-8.7-2 3.2.7 10 4.4 8.7zm312 .3c13.7-9.2-12-20-20.2-14.7-12.7 8.2 12.7 19.7 20 14.8zm312.8-5c2.8-4-1.2-21.8-5-24.6-6-4.8-21.2 3.8-27.2 7-9 4.6-13.7 13.6-.8 16.5 7.7 1.8 26 6 33 1zm-412.7 0c4.4-1.8-10.4-15.5-12.4-4.4-1.3 7.3 8.3 5.3 12.4 4.2zm445.8-.3c2.7-2.8 5-24 1.2-26-5.5-3-7.8 12-9 15.3-2 5.4-2.5 17.5 7.8 10.7zm30.7-2.4c5-2 4.3-23 1.8-26.8-3-4.7-17.2-3.2-21.2.5s-3 17.4-2.3 22.4c1.7 11 12.6 7 21.7 4zM250 454.4c3.8-4.7-4.4-10.4-7-4.3-2 4.5 3.8 6.4 7 4.3zm220-.5c6.5-6.6-11.8-12-15.5-5.3-3.4 6.2 12 7.7 15.4 5.3zm155.3 0c4.3-6-15-10-16-3-.7 6.8 13.2 5.3 16 3zm612.8-2.3c1-5-1-22-7.4-11.6-3.5 5.5 3.3 22 7.5 11.5zm-1007.4-2c7.3-7.4-21.2-9.4-24.6-8-7.7 2.7-.4 5.5 4.2 7 5.3 1.5 15.7 5.4 20.4 1zm322.8-.6c0-8-5.7 5.4-.8 2.3zm273.5.2c2.8-2.7 15.2-9.5 11-13.6-2.6-2.4-19 5.8-21.6 7.2-15.3 7.5 3.2 8.7 10.5 6.4zM984 436c0-2.5 1.3-12.7-.5-14-7.6-5.4-6.2 9.5-6.2 11.4 0 1.4-1 23.6 6.7 16.3 1.5-1.4 0-11.4 0-13.8zm-184.7 11.4c8-4.7 12.4-9.4.7-9-5.2 0-29.7.5-33 4.3-5 6 9.5 4.7 13.6 5 6.4.7 12.3 1.5 18.7-.3zm217.6-3.2c9-2.8 18.6-4.5 28-6.8 5-1.2 15.2-2 19.5-5.7 2.6-2.3 4.4-5.6 3-9.5-2.6-6.5-12-5.2-18-5.7s-13.6-2.3-19.6-.8c-9.7 2.5-16.7 13-23.4 19.5-2.2 2.2-9.5 7.2-8.4 10.5 1.3 4.3 16.2-.8 18.7-1.5zm247 .8c5-2.6 11.5-3.4 16-6.8 7.2-5.7 3-8.8-4.2-9-6.6 0-22 3-23.5 10.4-2 8.8 5.8 8.3 11.8 5.4zm-861.7-2.7c4.6-.4 32 1.4 31.3-5s-28.4-7-33-7.4c-5.4-.4-26 .6-25.4 9.3.4 7.3 23.2 3.2 27 3zm701.8-4c5.8-5.2-2.3-8.5-6.8-4.7-6.4 5.4 1.5 6 7 4.7zm-744-2.8c5.8-3 14.5-6 6.4-10.5-4.2-2.4-25.6-2.8-30-.3-13 8 15.6 15 23.6 10.8zm553-.7c1-5.6-3.8-1-4.2-1.3.6.4 3.3 6 4.2 1.3zm218.6-1c5.3-4.6-5.7-9.8-9.2-6-6 6.2 4.7 9.8 9 6zm-957-.5c4.4-4 12.2-5.8 8-13.3-1.7-2.8-12-9-15.6-5.7-3.4 3.2-.8 27.4 7.5 19zm45.6.3c2-1.4-16.5-14.6-19-6.4-2.8 8 14.5 7.8 18.8 6.4zm785.2-6.4c2-2.2 8.6-7.2 5.7-10.8-2-2.8-13.4.8-15 2.6-2 2.2-4 11.5-1.4 14 3.2 3.6 8.5-3.4 10.6-5.7zm-483.5 2c6-5.5 10.7 4.5 11.5-4.4.6-8.2-5-10-10.7-11-8.4-1.6-17-2-25.6-3-3-.4-8.5-2-11.4-1-7.7 3-7 14 0 18.2 5.7 3.7 30 7 36 1.4zm-362 .7c5-9.4.4-23-9-26-6-2-47.5-11.5-50.4-6.3-6.3 11 49.5 39.8 59.4 32.2zm154-.6c6.8-6.6-12.7-12.2-16-8.5-6.6 7 12 10.2 16 8.4zm277.7-1.5c6.7-4.5-4.7-9.8-8-5.6-4.2 5.6 4 7.6 8 5.5zm158.8-1.8c9.3-3.7-1.8-7.8-4.7-8-4.3-.4-34.4.8-36 4.6-2.7 6 35.8 4.3 40.7 3.4zm-282-.5c2.6-2.5 2.3-10.5 1.2-13.3-2.2-5.7-6.2-5.4-12-6.5-10.6-2-15-1.5-25.3 2.7-3.2 1.4-14.6 4.6-15.6 8-2.2 6.3 10.8 7.5 15.3 8 9.4 1.5 28 5 36.6 1zm79.5.3c7-3.6 8.4-10.2-1.4-9.6-10 .6-6 12.4 1.4 9.6zm248.3-1.7c4.2-.4 8.8-.2 12-3 1.5-1.3 5-8.7 4-10.4-2.8-3.8-31 3-35.8 3.5-3.5.4-24 3-13 10.7 6 4.3 26.3-.3 32.8-1zm366.8-1.6c4.5-1.7 1-24-7.2-18.2-5.5 3.8-1.8 21 7.4 18.2zM650 421c19.3-2.6 42-1.8 59.2-11 2.4-1.4 13.6-6.2 12.8-9s-7.8-2.6-9.7-2.7c-15-1.2-30.3-1-45.4-1-14 0-34.6-4-47 2-9.6 4.2-15.7 14.8-3.6 19 11.6 4 21.5 4.3 33.8 2.6zm185.3-.7c6-1 13-2.4 13.8-10 1.2-10.4-14.8-6-21.3-3.3-4 1.6-13.6 9-10 14.4 2 3 15-.6 17.6-1zm482.7-2c13-9 35.6-14.6 29-32.6-3.6-9.6-3-12-13.3-7.7-3.7 1.5-17.2 5.8-19 9.5-.2.7 1.8 8.6 2.2 9.2 3 4.3 1 1.8 6.6 3.6 10.6 3.3 5 5.8-4 7.4-6.6 1-14 .3-13.5 9.2.5 8.3 6 5.3 12 1.2zm-140.7-4c.4-12.3-6.8-3.5-3.5 3.2 2.3 4.8 4.5 2.5 3.5-3.2zm-216.4 2.4c21.8-3.4 1.2-14-8.8-7.6-11.4 7.4 3.2 8.6 8.8 7.7zm-643.2-.2c3.8-2.4-5-16.2-10.8-5.8-4 7.2 5.3 7 10.8 5.8zm29.7-.8c2.2-6.5-15.3-12.8-18.5-8.6-5.7 7.7 17 14 18.6 8.7zm58-4c4.3-2 18.2-4.7 15.3-11.3-1.8-4-18.6-4.3-22.5-5-11.6-2-23.2-4.4-34.8-6.8-8.3-1.7-15.5-3.8-23 1.5-11.8 8.6 6.4 11.5 13.4 13.6 16 5 35.8 16 51.7 8.2zm871 .5c2.6-1.3 12.3-6 6-10.7-2.6-2-13.6 4.2-15.7 5.6-11 7.3 2.6 8.7 9.7 5zm-399.2 1c2.5-1 19-2.2 17.4-7-1.7-4.8-15.6-4-18.8-3.8-13.3.3-13.3 14.7 1.4 10.6zm216.4-4c7.6-7.5-2.8-11.8-7.4-5-4.4 6.4 2.5 10.6 7.5 5zm-350.4.5c13.7-2.7 6.6-13.3-4.4-8-1.3.6-11 5.7-9.8 8.2 1.5 3 12 .2 14.2-.2zm-459.5-1c2.4-4 3.5-28.7-6.3-23.7-9 4.7 1.3 31.6 6.3 23.7zm269.8.2c3-2.5 3.3-11 1-13.8-2-2.5-17-3.4-19.4-1.7-10 7.2 10.4 20.7 18.5 15.4zm26-2c2.7-2 12-4.4 10.7-9-1-3.8-10.6-3.3-13.4-2.3-10 3.4-5.5 19.2 2.6 11.4zm-318.5-1c5-6-7-41.5-13.2-32-2.6 3.7 1 44.2 13.2 32zm515 .6c4-.4 24-1.5 17.5-7.3-4.2-3.6-18.3-1.4-22.7-1.3-4.3.2-11-.8-12.2 4.6-1.7 8.7 13 4.4 17.4 4zm-469.7-2c8.7-5.4-1.3-13-6.8-9-5 3.7-.8 16.4 6.7 9zm-63 1.3c4.6-2-.4-32-4.5-35.6s-36.4-8.5-40-4.6c-2.8 2.8-2 15 0 18 2.8 4.7 11 8 15.6 10.4 7 3.8 20.6 14.4 29 11.7zm281.6-.5c3.6-2.5.3-9.7-2.6-11.7-3.4-2.3-9-1.4-12.8-1.5-5.6-.2-21.2-4.2-26-.4-12.4 9.6 15.6 11.8 19 12.2 6.3.7 16.8 4.3 22.4 1.3zm697-.2c3.4-2.8 1.4-13.2-1.6-16s-15.5-5.3-19-2.8c-4 3-2.5 14.6.8 17.4s16.2 4.2 19.8 1.3zm-186.6-8.5c1.8-2 6.2-7.8 9-6 4 2.8-2.5 6.3-1.5 9 2 5.6 11 1.6 15.7.6 7.5-1.7 19.3-8.4 5.3-11.8-11-2.7-23.7-3.7-35-5.3-8-1.2-24.7-3.5-31.3 3-4 4-3.2 12.8 1.5 15.7s20.8 3 26.5 1.6c4.7-1 6-3 9.8-6.8zm200 3c8.2-5.6-2.3-13-6-7.3-3.2 4.5.6 12 6 7.2zm-765-1.4c4.6-4.6-4-9-6.7-3.3-1.8 4.3 3.8 6.3 6.8 3.4zm513 .7c4.6-2.3-1.2-8.5-3.5-4.2-1.5 2.8.2 5.8 3.6 4.3zm193.7-.4c2.2-1.7 2.6-4.4 5-6 2-1.4 6.3-.5 7.6-3 3.6-7-6.8-8.6-11.3-7.8-11 1.8-7.8 19.7-1.2 16.8zm-992-3.5c1.2-7.5 1-10-4-15.5-2.5-3-5.3-7.2-8.5-9.5-4.6-3.3-4.4-3.7-6.5.3-2 4-1.3 16.4 1.5 20.2 2.7 3.7 14.2 8.7 17.4 4.6zm977 .4c2-5-4.5-9.5-7.5-5s5 9 7.4 5zm-717.5-2c8-3.2-5-6.4-7.5-7-5.5-1-11.2-1.3-16.8-1.8-4.4-.5-32-6-35.2-2-2.8 3.7 23 7.7 26 8.3 10.3 1.8 23.3 6.5 33.5 2.5zm914.3-1c8.5-3.3 17.3-12.7 23.7-18.8 5.2-5 19-16.6 21-24 2-7.6-2.6-.6-4-4-1.8-4 .2-7.3-1-11.4-2.5-10.6-7.5-1-8 5.8-.6 4 .7 17-6.3 15-4-1.2-.6-9.3-7-9.6-2.4 0-8.3 7.2-9.7 8.6-6.8 6.6-9.6 10.8-11.3 20.3-.6 3-5 21.5 2.6 18zM331 389.6c7.4-6.3-7-11.3-9.5-6-2.5 6 5.3 9.5 9.5 6zm-237.2-.2c4.2-2.7.2-19-2-22.8-2.2-4.3-14.2-18.4-19.8-16-6.8 3.2 13 42 21.8 38.8zm1009.5-2.8c7.3-11-5-27.7-16.5-16-10.6 11.2 8.4 24.6 16.5 16zm-793.3 0c6-7.3-12.5-13-12.2-4 .2 5 8.8 6 12.2 4zM106 384c7.2-7.2-6-10-7-3-.7 4.5 3.6 6.8 7 3zm53 1.6c1.3-2.3 2-18.4 1-21.7-2-6.4-8-7-13.3-4.5-3.8 1.7-16 10-15 14.8 1 4.2 25 15 27.2 11.4zm586-.5c3.6-2.6.6-18-2.3-20.8s-8.6-1-12.6-1c-19 .8-43.4-3.2-61 5.7-4.8 2.3-18 7.6-10 12.6 4.7 3 20 1.2 26 1.5 13.4 1 26.7 1 40 2 6.2.4 14 2.8 20 .2zm20.7-.5c6.6-4 15-5.3 21.5-9.3 12.5-7.5-.7-8-8.3-9-6.4-.6-22.6-5.4-26.4 1.4-1.4 2.4 1 11 2 13 2.7 5.5 4.4 7 11 4zm369 0c4.2-3.6 3.8-14.6-3.5-11.2-7.7 3.8-6.6 19 3.5 11.4zm-323.3 0c4.6-.3 30 .2 29-9.4-1-7.5-24-5-29.7-3.4-3 1-25.6 9.7-23.2 13.3 2.2 3 21-.3 24-.5zm257.3 0c4-1.7 4.3-9.8.7-12-1.6-.7-11 2-13 2.6-16.5 5.3 4.7 10.8 12.3 9.4zM852 380c4-3.8-.4-8.8-4.6-4.6-3.7 4 .6 8 4.7 4.6zm415-.3c10.5-5.3-3-12.4-7.7-5.8s2.2 9.6 7.6 5.7zm-762 0c4.8-5.8-7-3-4.2-1.2 2.3 1.4.7 2.8 4.3 1zm124.7-3.5c3.2-2 9.5-6.5 3.8-10-3-2-14 3.6-16.3 6-9.5 9 7 7.8 12.5 4zm-160.7 2c8.5-1.8-3-8.6-5-9.2-9.3-3-20.4-2.8-30-3.8s-19.2-1.8-28.8-3c-4-.3-16.8-4-20.7-1.8-9.3 5.4-.3 9 5.2 10 8 1.3 16 2.6 24 3.4 11 1.3 22.3 1.6 33.3 2.8 7 .6 15 2.8 22 1.6zm420.4-1.2c6.2-3-10.6-7.6-14.2-4-7.6 7.3 11.7 4.7 14.2 4zm348.8-1c5.7-5 .3-14.7-7-11.4s0 18 7 11.5zm-330-.7c-.2-4-7.5-3-6.5.2.8 2.7 5.3 1.3 6.5-.2zm-314.3-1c11-7-15-13.7-20.6-9.6-12.6 9 14.4 12.2 20.5 9.7zm727.6-6.2c13.2-6.6 18.4-8 19.2-22.7.3-5.7 3.3-25-1-27.2-4-2-17.4 8.6-20.3 10.5-6.6 4.2-6.8 8.7-9.4 16.3-4.6 14-10 34 11.6 23zm-1191.5-3c7-5.5 8-6.8.6-10.3-5.2-2.4-15.2-4.4-20.8-3.8-8 1-7 3.3-1.4 9.2 7.3 7.5 13 12 21.7 5zm241 1.4c5.4-3-.7-7.6-2.8-8.7-6-3.2-25.8-4-31.8-2.3-6.8 2-5.6 4 1.2 6.3 8.7 2.7 24.4 7.3 33.3 4.8zm157.6-.2c1.2-2.4-2.5-1.8-2.5 0 0 2.7 2.2 0 2.5 0zm752.2 0c3.4-2.5 8.4-11.6 8.4-16 0-11.5-11-4.3-17.2-1.5s-15.3 5.7-8.4 14c3.4 4 12.3 5.7 17.2 3.7zm-780-1.3c8.8-2.4-8-6.2-10.8-5.5-12.3 2.8 4.3 7 10.7 5.5zm710.3 0c9.2-.4-1-16-9.6-7.8-8.3 8 5.4 8 9.6 7.8zm-188.4-1.8c16.2-11-9.8-8.7-14.3-4-6.7 7 9.8 6.8 14.3 4zm-551.2-1c8-7-27.4-9.6-31-10-8.5-1-23-7.4-31.3-4-13 5.3 21 9.7 25 10.2 8.5 1 30 9.2 37.5 4zm705-1.5c12.3-6.2-3.4-13-8-9.3-6 5 .6 14 8 9.3zm-237 0c8.4-8.6-3-20-10-11-5.5 7 3 18 10 11zm-27.5-.5c9-9.3-17.5-14.5-16-2.6 1 5.2 12.5 4 16 2.5zm55-.7c3.7-3.8-17.6-14.4-15.5-2 1 6 11.2 4 15.5 2zm189.7-2.2c2-9-8.8.4-3.8 2 2.8 1 2.6 0 3.7-2zm-928.4.4c0-6.5-26.4-14.4-29.8-11-11.2 11.3 25.6 14.5 29.8 11zm369.7-1.6c0-2-6.7-1.3-7.7-.6-.2.2 6 1.3 7.8.6zm-413-8c2-16.5-22.7-14.4-21.3-1.5 1 7.3 22.7 10.5 21.3 1.3zm207.5 1.5c6.6-6.4-13-8.2-16.2-9s-7-2-10.3-2.2c-3.8-.2-6 1.5-9.5 1.7-10.4.6-21-10.3-32.7-3.3-17.2 10.2 19.2 11.2 25 12 10.7 1 34.3 7.5 43.7.7zm847.8.3c6-9-7.3-13.3-10-4.8-2 6 5.6 9 10 4.8zm-254.5.5c3-3.8 1.3-11.3-4.4-8.3s-1.2 10.7 4.4 8.3zM1351 348c3-8.4 4-17.6 6-26.2 1.5-5.5 3.5-26.3-7-12-4 5.5-2.4 15.7-2.7 22.3-.2 2-2.3 21.6 3.8 16zm-1200.5-.2c5-2 9.2-8 5.7-12.7-3.3-4.5-13.3-3.4-18.2-3.8-7.2-.7-14.5-2-21.8-2.8-3.6-.4-15-3.5-18.2-1.3-3 2-3.6 7-2.2 10.5 2.3 5.5 6.3 4.8 11.8 5.5l26.2 3.7c4.7.6 12.3 3.2 16.7 1zm854.5-.7c5-4.2-3.4-8.6-7-5-4.5 4.7 2.8 8.3 7 5zm94.5 0c4.5-4.6-4.6-3.5-3.6-2.5 2.2 2.3-1 3.8 3.5 2.4zm-128.7-2.7l-1.3-1.4c-1.7-.4-1.6 4 1 3q1-1.3.3-1.7zm307.2-5c6.6-3 11.3-3.2 12.4-10.6 2-13.3-11-6.7-18-3.2-4.7 2.4-17 12-9.8 18 3.5 3 11.5-2.4 15.4-4.2zm-997-.2l-1.4-1.4c-1.4.3-.7 2.5 1.4 1.5zm219.2-1.3c-2-3-4.4 1-5.2.5 1.5 1 4-.2 5.2-.5zm51-.5c5-1 .7-7.4-1-8.6-2.6-1.8-9-1.7-12-2-4.8-.8-20-4.8-24-2-11 7.7 9.2 9.6 12.3 10 9.4 1.4 14.7 4 24.8 2.6zm117.3.4a6.5 6.5 0 0 0-6 0c-.4.3 5.3.5 6 0zM412 337c0-.8-24.7-8.4-26.8-5 0 .3 24 6 26.8 5zm721.2-2c7-7-4.4-12-8.7-4.7-3.8 6.6 4.2 8.5 8.8 4.7zm43.2-.3c3.3-5 3.5-7.7 8.2-12 3.6-3 5.2-2.8 6.7-8 3.7-13-2.8-14-13-11.4-10 2.5-16 8.4-15.6 19.6.2 8.5 3.6 18.5 13.7 11.8zm-942.8-.3c3.5-5.5-2.2-20-6.8-23.4-6.4-4.7-22.4-7-27 1.3s-2 15.8 5.7 18.8c6.4 2.6 21.6 7.6 28.2 3.4zm536.4 1c6-3.4 19.7-1.4 26-1.6 5.5-.2 20.3 2 25-1 6.4-4.2-6.7-3.3-10.5-3.4-11.7-.3-23.4-.2-35.2-.2-5.6 0-16.7-2-22.3.3-12 5 13 7 17 5.8zm-682-2c7.5-5.2-2-13.8-6.6-9-3 3 1.3 12.3 6.6 9zm168-2c18.5-5.2-4.7-19-12.4-16-5 1.8-3.3 9.3-.3 13.7 4 5.8 5.4 4.7 12.8 2.6zm245-.4c8.5-5.4-10.8-13-16-7.6-8.7 9 12.5 8.2 16 7.6zm-126.7-1.4q-2-1-2.8.2a15 15 0 0 0 2.8-.2zm97.7-4.3a1.6 1.6 0 0 0-2.3-1.5c-3 1.8 3.8 1.7 2.3 1.5zm349.3-.5c7.2 0 21 2.4 28-.4 3.3-1.3 5.8 0 2-4.3-4.6-4.8-19.6-4.6-25.5-5.4-12.3-1.7-24.7-4.2-37-5.4-6.6-.7-36.3 10-30 15.7 4 3.4 21 0 26.4 0q18-.2 36.2-.2zm-474.5-1c0-6.6-26.6-7.3-26-5.4 1 4.3 22.4 7.3 26 5.4zm366.4-.5c4.4-2.4 31-15.7 28-21-4-7-27 2.7-32 5.3-4.5 2.3-25 8.4-24 14.4.8 4.8 23.6 3.3 28 1.3zm-531.8-1.5c9.5-11.7-9.3-22.2-17.4-14-9 9 10 17.8 17.4 14zm1141.2-1.8c5.5-3.3 12-6 16.4-10.7 6.5-7 4-15-6.3-10.8-7 3-17 7.5-19.4 15-2.5 8.6 2.4 11 9.3 6.5zm-1197 .3c4.5-2.4-14-11.8-16.5-13-5-2.4-13.5-7.6-16.2-.4-5.6 14 25.8 16 32.7 13.3zM662 320c4-1.6 18.3-4.8 20.5-9.3 5-10-9.3-4.8-13-3.5-5 1.8-20.5 3.8-22.3 10-1.7 5.8 10.8 4 14.8 2.7zm737-1.7c2.8-2.4 4.4-17.5-.6-18.2-6.5-.8-11.6 25.7.6 18.3zM597.6 315c6.2-5-2-8.6-5.2-9.5-8-2.3-19.7-2.5-28-2s-12.6.3-20.8-1.4c-4.7-1-16.5-3.8-21-1.5-6.5 3.4-2.4 6.6 2.4 8.3 8 2.8 18.4 3 27 4 12.2 1.5 34 7.2 45.7 2.3zm28.5-1.5c12.4-5.2 1-9.3-7-7.5-3.5 1-6.6 1.2-6.7 6-.2 8 9 3.7 13.8 1.6zm-536.4 1c5.4-4.8-2.6-14.3-7.2-7.7-5.8 8.3 3.5 7.8 7.2 7.8zm859.5 0c2.5-2 6.2-14.5 3-16.8-4.4-3.2-13.3 3.8-16.4 6-13 9.8 4.3 15.5 13.5 10.8zM1212 313c7.5-2.8 27.6-4.7 31-13 4.8-11-9.8-8.3-15.2-7.5-8.2 1.2-23.7 1.4-27 10-4 11.4 2.3 14.3 11.2 10.7zm-751 .4c10.3-7-17.8-10.7-22.2-6.6-10 9.2 16.7 10 22.3 6.6zm-305-.2c3.4-8.7-12.8-10.8-12.7-5 0 4.6 9.5 7.2 12.8 5zm811-.7c5.7-4 8.4-20.5-1.7-15-4.5 2.6-6 20.4 1.8 15zM416.2 311c19-11-12.8-7.7-20-11 1 .4 7.5-3.3 7.2-5.5-.5-3.3-8.8-4.5-11.2-5-4-1-27.4-6.4-29.7 0-2 5.5 9.6 6.8-2.2 6-3-.2-21.8-6-24.3-1.4-3.6 6.7 26.2 14 31 15 14 3.4 34.7 6.4 49.2 2zm-31-12.2q2-1 2.8.3c-.2 0-3.2 0-2.8-.2zm524.5 9.4c9.6-13.7-12.2-21.7-20.7-13.8-10.7 9.8 14 20.2 20.7 13.8zm-839-1.5c4.2-1.5 10.3-19.3.8-17.5-4.2.8-8.4 18.2-4.4 19.6a35.8 35.8 0 0 0 3.8-2zm1320.2.2c4.3-9.3-10.4-12.8-9.2-3.6.6 5 5 7 9 3.5zm-369.7-1.5c6-5.3-9-3.8-9.2-.2 0 3.8 7.6 1.8 9.3.2zm-733.4.7c2-3.2-17.7-8.8-17.7-8.4 0 3.8 15 9 17.6 8.4zm698.2-1.7c7.4-3.2-2.3-11.6-6.7-6.6-3.8 4.2 2.3 9 6.7 6.5zm-106-1.8c3-8-8.5-9.6-9-3.3-.3 4.4 6.4 6.6 9 3.3zm-385-.4c5.2-5-22.6-11.2-27-4 0 5.3 23.3 6.7 27 4zm858.5-2.4c6.7-5-6.3-3.7-4.3-2 1.6 1-.7 4.5 4.3 2zm-299.4-1c2.8-1 19-5.3 19.8-9 1.5-7.3-14.3-1-17.3 0-2.3.6-13.8 3.2-12 8 1.3 3.5 7.4 1.7 9.6 1zm-996.5-3.5c4.2-8.5 4.8-11-2.2-16.7-2.2-1.8-14.8-14.2-17-10.6-2.4 4.2 13.3 36 19.2 27.3zm64.5 2.2a4 4 0 0 0-3.2-1.7c-3 1.6 3 1.8 3.3 1.7zm126-1.3a3 3 0 0 0-2.8-1.5c-1.4.3 2.5 4 3.6 3.2q.4-1.7-.6-1.7zm854.4.5c10.5-3-4.3-14.3-12.6-5.3-7.7 8.5 7.4 6.5 12.8 5.2zm-453 .2c7-4.5-24.6-8.6-25-8.6-3.6-.2-35-6-34 4.2.5 8.6 51 5.5 59 4.4zm18.6-1.3c1-3-14.8-5.4-12.4 0 .5 1.5 11.7 1.7 12.3 0zm-102-2.3c2.7-.7 11-2.6 10.6-7.2-.7-5.7-13-1.2-15.7 0-13.3 5.3-7.4 10.5 5 7.2zm-352-.4c2.3-3.5-14-13.5-15.3-5.7-.8 5.5 11.7 7 15.4 5.7zm804.2-3.4c2.6-2.2 18.4-10 12.3-13.6-3-1.7-22.3 1.7-25.5 3.2-4 1.8-10 6.5-5.7 12.2s14.7 1.4 19-2zM297 291l-.3-1.6a2.6 2.6 0 0 0-2 3q2 1.4 2.5-1.4zm1093 1.3c4.4-6.8-6.3-12.5-10-5.4s5.3 7.2 10 5.5zm-402-1c5.6-4-5.3-16-9.6-6.8-3 6.3 4.7 10 9.6 6.7zm-465.3-.8c5.3-1.8 13-5.5 6.8-10.3-5-4-21-3-27-1-6.3 1.8-14 5.2-7.5 9.8 5.3 3.7 21.4 3.3 27.7 1.5zm901.8-3c2.5-12 5.5-23 6-35.2.3-4 2-9.2-2-10-5.5-1-5 9.8-7.5 11.5-2.4 1.4-4.3-2.4-7.5.8-1.5 1.5-1 4.7-1 6.5-.5 4.6.4 7 1.7 9.3.4.7 2.7 1.8 3.5 3.3 1.4 2.3-.6 6.5 0 9.2.6 3 4.8 11.7 6.8 4.3zm-1289.6 1c4-3-18-12-21.5-12.3-4.3-.2-14 3.4-13.4 9 1 7 29.5 4.7 35 3.2zm836.5.3c1.6-1-3-4.8-4-.8q1 2.3 4 .8zm159.8-.3c3.8-3.8-6.5-9.3-7.2-3-.4 4.3 4 4.7 7.2 3zm-38.8-2c2.2-5.7-6.7-7-6.7-2a3.6 3.6 0 0 0 6.6 2zm-753.3 0c11-5-15.6-11.3-20.5-8-10.5 6.5 15 10.2 20.4 8zm714.5-1.2c2.8-1.2 14.4-3.3 12.2-8.7-2.2-5-10.4-.6-13.2.5-2 1-14 6.6-11.2 9.8 2.3 2.7 9.4-.5 12-1.5zm280.5-1.2c8-4.4-4-11.3-9.7-3.5-5.3 7.5 4.8 6 9.7 3.6zM88.6 282c1-2.4 2-8.4.2-10.7-1-1-6.8-1-6.8-2 0-4 2.8-7.5-3-11-4-2.4-9-.2-13-1.2-7.2-1.7-15.7-13.5-23.3-12.5-7.3 1 1.3 8.2 4 11.2C50 259 56.4 263 58.5 267c.7 1.4.5 4 1.3 5l.2 3 2.3.2c3 3.4 23 13.4 26.3 6.7zm388.2 2.8c5.8-1.3 2.3-7 0-8.5-3.3-2-12.3-1-15.8-1-2.3-.2-32-2.6-31.7 2.3.5 8.5 41.2 8.7 47.5 7.2zm-192.6-2c1.8-3-6.2-6-5.6-2.7.6 3.3 3 4 5.6 2.8zm431.3-.8c8.4-2 13-9.7 5-13.3s-20.4-3-29.2-4.4c-14.3-2.2-27.4-5.4-41 2.2-4.5 2.5-8.6 3-2.5 7 4.6 3 15.7 2.7 21 3.4 13.3 1.6 33.6 9 46.7 5zm142.3-1.6c.8-8.7-11.4-7.7-11.6-2.4-.2 4.6 9.2 3.4 11.6 2.4zm17.8-1.6l-.5-2.2c-4-4 .6 9.2.6 2.3zm28.4 0c8.7-2 6-5.2.3-7-3.3-1-14.6-1.6-18 .2-3 1.7-6.2 5.8-1.6 8.8 3 2 16.6-1.6 19.3-2zm-82.4-2.3c7.2-3.6 2-9.2-4.5-5-7 4.3-2.4 9 4.6 5zm-666.5 0c5.3-14.3-31-21.2-30.2-9.5.5 6 25 12.5 30.3 9.5zm10.3-.5q3-.7 2.2-3c-5.5-2.7-6 4.7-5.6 4.7zm88.5 1c8.6-4.7-14.5-17.5-18-4.7-2 7.4 13 5.8 18 4.5zm34.8-1.3c4.8-1.8-6.5-11.5-9-5.6-2.3 5 6 6.7 9 5.7zm865.6-5c19-6.3-20-12-25.2-5.6-9.3 11.5 21.3 7 25.2 5.7zm-366.7-.4c12.8-7-12.4-9.6-17-10.5-6.2-1-14.3-4.6-20.4-1.5-8.8 4.6-4 8.8 3.2 10 9.8 1.8 25 7.2 34.2 2zm170.2.7c8.2-9-28-23-28.3-4.6 3.2-.2 11.7-2 14.6-1 5.4 2.3 5 11 13.7 5.5zm405.3-1c3.6-3.6-5-12.5-7.7-7-2.3 4.5 4 8.6 7.7 7zm-1143.3-.6q-1.3-1.6-1.5 0c2 3 .8 0 1.4 0zm411-1.2c8-4.2 25-9.2 6.8-13-12.4-2.5-24-4-34.8 4.8-6.8 5.6-3.5 6.4 3.8 7.7 7 1.3 17.3 4.4 24 .5zm298-.7q-1-1.7-1.4.4c0 2 1.5-.5 1.5-.5zm275-.3c3.3-1.5 11.3-.8 13.5-4 3.3-5 0-7.6-5.2-8.4-4-.6-12.8 2.3-14.8 6.4-2 4.3 1.5 9.6 6.4 6zm-463-4c12.5-7-6.2-11.3-12.2-12.5-11.4-2.3-26.3-7-37.2.2-11.6 7.6 12.5 9.3 18 10.2 8.4 1.3 23.6 7.4 31.3 2zM890 263c3-.7 21-.6 18.6-7-1.2-3.5-15-3-17-3-13.3.6-18.3 14.5-1.6 10zm-778.7-1c6-6.5 10.2-17.6-3-9.7-8 4.8-5.3 14.5 3 9.8zm479.2-1.7c6.8-4.4 21.3-11 6-13.2-5-.6-13.5-1-18.5.3-3.7 1-16 7.3-15.2 11.2 1.5 7 23.6 4.5 27.7 1.8zm584.5 1.6c8.6-2-8.2-15-14-7-5.3 7 9.6 8.7 14 7zm116.5.5c5-5-6-10-7-3.3-.4 3.6 4 5 7 3.3zm93-1c3.4-2.8 1-4.7 2.7-7.8.7-1.4 4-1.3 4-3 0-1 1-2.5-1-3.4-4.4-2.2-3.6 3-5.2 3.8-.8.5-5 2.2-6.3 4-3.4 4.5.5 11.4 5.8 6.5zm-905 .4c8.4-2-9.3-15-13-6-2 6 9 6.8 13.2 6zm334.4-3.5c14.3-10-.5-10-10.6-10.5-8.4-.5-27.4-5-35.5-1.3-11.5 5.5 8.3 8 12.6 8.6 10 1.6 23.8 8 33.5 3.2zm-393.4 0c3.8-1.3 5.3-5 2.3-7.3-2.4-2-10.7 0-13.6 0-4.2 0-23.6-3.5-22.7 4.8.7 6 28.7 4 34 2.4zm590-.5c9.5-3.3-2.6-11.6-8-7.6-7 5 2.6 9.5 8 7.6zm304.7-2c4.7-4.2-4.2-11-8-6.5-4.5 5.3 2.5 11.5 8 6.6zm-327-.2c4.4-3-2-9.3-6.3-5.5-4.4 4 2.4 7.2 6 5.5zm143-.7c0-2-4-1.4-3.2 0a2.3 2.3 0 0 0 3.4 0zm-596.6-4.7c19.8-9.4-16.2-6.2-20.7-2.7-11 8.5 16.2 5 20.7 2.7zm143.5 0c9.4-4.8 7.2-6.8-1.4-8-6-1-18-3-24-1.7-5.2 1.4-11.2 5.7-7 10 6 6.4 25.7 3 32.4-.4zm-416.8 1c7.3-13.8-25.6-11.6-24.8-2.5.4 5.2 21.2 4 24.8 2.5zm185.8 0c5.2-3.2-12.6-8-12.6-5.2 0 4.5 9.7 6 12.6 5.5zM98 248.7c14.5-9.2-16.8-22-23.8-25.5-5.6-2.7-13.4-8.4-20-7.2-3.7.7-12.3 6.8-12 11 1 8 23.7 17.4 30.5 20.8 7.5 3.8 17.3 5.8 25.2 1zm1090 2c12.6-3 1.4-14-6.3-14.7-5.4-.7-24.6 3.2-27.3 8.5-2.7 5.6 8.8 3 13 3.3 6.2.5 14.7 5 20.6 2.8zm24.7.3c3.7-1.5-4.2-7.5-7-6-5.8 3.6 3.3 7.3 7 6zM910 247.5c4.4-2.3-3.2-6.7-4.2-2.7-.7 2.7 2 3.3 4.3 2.6zm-285.8-2.3c10.6-3.7-15.8-14-21.3-7.6-6.5 7.5 17.2 8.6 21.2 7.6zm331.3-.3c5-3.6-32.2-16.7-24.3-1.3 2.6 5 19.7 2.8 24.3 1.3zm81 0c3.3-9-18.4-15.7-20.7-9.2-2 5.5 17 11.3 20.6 9zm210-1.7c15.8-11.2-26.7-14-28.4-10.7-2 4.2 7 6.2 10 8 6.4 3.7 10.4 8 18.4 2.7zM231 241.7c2.2-4.4-3.6-5.8-5.3-2-2.2 4.6 3.7 5.2 5.3 2zm902.6.7c1-.5 10.7-3.7 10.3-4.8-1-3-16.5 1.7-17.2 3.4-1.6 4 3.4 3 6.8 1.5zm-916.7-.2c4.8-5-4.3-5.5-3-3.6.2.6-.7 7.2 3 3.6zm346.8-.2a2.3 2.3 0 0 0-3-.7c-1 1.2 2.6 2.7 3 .7zm287-1.3c6-2 12.4-10.3 6.8-16.3-4-4.3-16.8-3.6-22.2-4.4-7.2-1-16-3.4-23.4-3-4.4.5-19.5 7.2-20 8.5 1-2.7 6.8-2.3 6.3-6.7s-5.2-4-8.4-4c-6.7 0-18 4.4-23.5 7.7-8 4.6-6 7 2.6 9a23 23 0 0 0 11.4 0c2-.3 9-5.7 11-4 1 1-.4 5 1 6.7s4.7 1 6.5 1.6c6 1.8 13 2.2 19.5 3.3 10.4 2 22 4.7 32.4 1.7zm-83.2-.5c7.5-6-38.8-14.6-30.7-.7 2 3.6 25.7 3.5 30.6.7zm-246.7-.8c5.8-4.8-11-7.6-13-7.8-5-.7-25-4-28 2.6-3.3 7.4 13 5.5 17 5.7 6 .3 19 3.5 24-.6zm812.2.7c3.3-1.7-.2-9.5-5-4.3-4 4.4 1 6.5 5 4.4zm-1127-1.3c.8-2-4.2-1.5-4-.7 0 2.8 3.5.8 4 .7zm162.8-.5c13.5-3.5-6.4-13-12.2-4.2-5.5 8.5 7.7 5.5 12.2 4.2zm735-.2c6.6-2.4 27.4-5.3 31-10.8 6-9.7-18-9-21.7-8.6-6.8.5-23.7 5-27 11.6-6 11.6 11.8 9.6 17.7 7.8zm-803.3.6q-1.2-1.5-2.7 0c.4 2 2 0 2.7 0zm415.4-1c6.3-2 9-4.2 4.5-8.3-4-3.8-23.6-.4-27.5 2-13.3 8.2 17.6 8.3 23 6.4zm251.5 1c3.4-12-33.5-18.7-31.4-8 1 5 27.4 9.5 31.5 8zM1389 236c5-2 2-9.8-3-5.3-3.3 3-1.5 7.6 3 5.4zm-1092.7-1.7c4.4-3 11.8 1.7 14.2-5.8 1.6-5.3-1-5.6-6-4.5s-4.7 4.8-8 7.3c-1.6 1.3-14 2.8-13.8 3.4.8 3.3 11.8.3 13.6-.4zm-272.4-3c-2-7.5-9.2-2.6-4 2 2.5 2 3.5.4 4-2zm306.6 1.4c15.2-5 2.2-12.8-7-9.2-3.4 1.2-10 6.4-6 10 3.2 3 10 .3 13-1zm1026.5-5.2c2-4.3 1.4-12.2-4-6.6-3.3 3-1.2 10.3-.3 14a48.6 48.6 0 0 0 4.4-7.5zm-289.8 4c4.3-1.8 27-9 22-15.2-3-4-24-.8-29 .5-4.2 1.2-24.6 5.2-22.8 11.5s24.6 5.3 29.8 3.2zm-495.3.3c9.4-5-14.7-10-15.3-10-4-.7-21.4-3.4-20.7 4.3.5 6.5 30.2 7 36 5.8zm106-1.7c12.2-5.5 2.4-7-4.8-8.5-10.7-2-19-3.4-29.6-.3-12.8 3.8-11.5 7.7 1.6 9.4 10.2 1.4 23 4 32.7-.5zm744.2-2.6c2.2-4.5 6.6-18.5 3.2-22.8-5.3-6.6-7.3 1.6-7.8 6.6-.5 4.5-2.8 12.4-1.7 16.8 1 5 4.4 6.2 6.2-.6zm-1007 3.2c5.8-1.7-7-6-8.3-6a15.4 15.4 0 0 0-9.5 3c5.4 3.2 11.6 4.7 17.7 3zM133 229c2.6-5-13.6-10-15.5-8-2.8 2.7 11.2 11.3 15.4 8zm1160.2-2c4-2.6 7-21.4-1.4-19-6.8 1.7-9 27 1.4 19zm-1183 .5c2.3-4-4-2.3-3.4-2 .8.6.8 4.7 3.3 2zm147.3-1.2c3.5-3.7 11.3.4 15.8.7 6.4.5 16.3-1.3 21.8-4.6 12.5-7.3-7.5-9.3-14.2-9.4a87.7 87.7 0 0 0-27 5c-10 4-2 14 3.7 8.2zm123.4 1.2a4.7 4.7 0 0 0 2.5-1.4c-1-.2-4.2-.3-4.7 1-1 2 2 .4 2 .5zm864.3-.4l1.7-1c-4.2-3.8-24.6-14.3-27.2-5-2 7.6 20.8 7.5 25.5 6zm-506.6-.4c3.6-1 35-12.3 22.4-16.3-5.3-1.8-19 5.3-23.5 7.7-3 1.6-7 1.4-5.8 6.3 1 3.4 4 3 7 2.3zm-123.2-3.8c6.3-2.6 20.2-5 8.3-10.3-9.4-4.3-26.6.3-36.4 2.4-12.5 2.7-5 5.5 3.3 7.4 8.5 2 16.2 3.3 24.8.4zm415.4 0c8.3-2 23.7-8 5.7-9.7-8.5-.8-29.8-6-36.2 1.4 6.5 7 21.5 10.8 30.4 8.5zM451 221.3c8-1.5 7.3-4.3-.2-6.3-7-2-14.8-2-22-3-2.4 0-32.7-2.3-23.5 7 3.2 3.3 19.4 2 23.7 2.5 7.5.5 14.6 1.3 22-.3zm259 0c6.4-1.5 27-4.3 30.4-10 5-7.8-20-8-24.5-8-5.8.4-11.4 2.6-17 4.2-4.3 1.2-17.5 2-19.6 6-4.3 8.3 24.8 10 30.8 8zm658.5-.7c0-.2-.7-12.5-3-7.3-.6 1.2 0 10.7 2 9.5zM146 221c3.8-3.8 3-26-1-29.6-8.3-7.6-29.4-.5-37.5 2.6-3.6 1.3-9.6 2.5-11.6 6.3-4.4 8.3 5.4 9.5 11.2 11 7.6 2.2 32.5 13.7 39 9.6zm1128.2-1.4c13-15.4-23.3-19.5-30.4-14-9.6 7.7 26.3 18.5 30.4 14zm-80.7 0c5-4.8-7-8.4-7-2 0 3.6 4 3.6 7 2zM38 216c6.2-6 10.7-9.6 1.5-15.3-2.6-1.6-13.5-5.2-16.8-3-7 5 5.3 30.5 15.4 18.2zm1342.7 2c4.5-6.6-4.7-3.6-3.6-2.6.4.2 0 8.5 3.7 2.7zm-172.2.2c5.8-7.5-10.4.6 0 0zm187.3 0q-1.3-1.5-1.5 0c2 3.3.8 0 1.5.2zm-1021.3-2c4.6-1.4 16.2-5.7 7.8-10.2-4-2-17 2-20.5 3-4 1.5-11.8 2.7-7.5 8.2 2.6 3.3 16.6.4 20.2-1zM173 214c6-2 23-4.8 18-15-3-6-20.3-6-26-5.6-9.3.8-9.3 10-6.2 18.4 2.8 7.8 7 4.7 14.3 2.2zm733.3 1.7c2.2-2-32-22.6-32.8-8-.6 8 27.4 11.4 32.7 8zm411-1.2c7-7-5.5-9.5-8.6-4.3-3.7 6.2 4.4 8.4 8.4 4.3zM76 214c-.5-3.4-5-7-7-2.4-1.4 3.7 7 5.3 7 2.3zm406.6.6c8-4.2-21-10.3-23-10.7-2-.5-31.3-6-23.8 4 2.6 3.4 19.7 2.7 24 3.4 6.5 1 16.6 5.2 22.8 3.2zm673.5-1c8.6-10.4-13.2-18-14.3-6-.6 5.7 10 7.8 14.4 6zM334 211c2.7-2 9.2-4.5 5-8.4-2.2-2.2-18.3 1.4-21 3.4-10 8 11.2 9.6 16 5zm836.8-1c6-6.4-6.5-10-8-3.3-1 5.7 4.2 7 8 3.4zm-312-1c6.4-5.3-5-7.6-7.4-8-4.4-.7-18.5-2.6-23 .2-7.5 4.7 4.6 6.6 8.8 7.2 6.3 1 15.6 3.5 21.6.7zm210.7-.6c5.4-14-58-11.6-51-2 1.3 2 24.8 1 26.5 1 5.8.6 20.5 5.3 24.5 1zM533 206c25.5-5.5-4.6-9.2-14-10.7-15-2.4-27.8-4.8-42.6-3-2 .2-20.8 1-19.3 4.7 2 4.5 16.5 4.4 20 5 19 2.5 37.2 8.5 56 4zm697.7 1.5c3.8-4-6.3-6.8-9-4.2-4.5 4.7 6.2 7 9 4.2zm-96-3.8c14.8-7.2-10.5-14.5-16.6-7.4-7.6 9 11.6 10 16.7 7.4zm-926.2.6c4.5-2.8-3-8.3-6.4-6-4 3 3 8.3 6.5 6zm416.5-1.8c4.8-1 10-4.7 4.3-9.4-3.3-2.6-13.8.4-16.6 2.3-12 7.8 5.7 8.3 12.3 7.2zm694.7 0c6-3.2-4.8-10-9.5-6.6-7.2 5.3 5.3 8 9.5 6.6zM646 200c15.8-5.3-2.8-12.6-9-9-2 1.2-5.6 6.6-3.2 9.5s9.2.5 12-.5zm318-3c12.2-6.6-2-7-7.4-7.4s-18.6-4.5-22.8-.3c-10.3 10 23.8 11.3 30.3 7.6zm-897.4.6c2.7-7-10.2-15-11-21.3-1.3-10.3 7.8-.8 14-4 5.5-3 5.6-8.8.8-11-4-2-13.6 2.7-14.5-2.4-1-4.5 15-17.4-1-12.3-7.7 2.5-20 14.7-23 22.2-3.2 7.2 3.7 20 10.2 24.4 4.7 3.2 19 7.5 24.4 4.2zm512-1.4c2.3-1.2 4.6-7.7 2.6-9.7-1-1-7 0-8.3 0-9 .2-18.2 0-27.2.6-4.7.5-11 .3-5.4 4.5 7 5.3 30.5 8.7 38.3 4.7zm243-.7c15-4.4 12.6-11.8-2.4-11.5-15.4.2-17 17.2 2.5 11.5zm290-.5c7.4-5-24.7-15-20.8-2.2 1.8 6 16.3 4.6 20.6 2.2zm-863.2-.8c2.8-2.3 7-1.7 9.6-4 1.6-1.5 0-4.2 2.3-5.8 3.8-3 16 1.5 20.3 2 8.4.8 9.4-2.8 2.5-6.6-5.5-3-11.7-4-18-4.4-9.6-.8-17-.5-25.4 4.3-4.2 2.4-11.2 8-8 13.3 2.6 3.8 13.3 2.8 16.8 1.2zm484-2.5c3.8-1 32-5 23.3-10.3-4.2-2.4-14.6 0-19 .5l-25.4 2c-4.4.2-21.3 0-14.3 7 2.7 2.8 17 2.4 20.8 2.7 5 .3 9.2-.6 14.5-2zm177 1.2c8.4-5.4-13-10-14.6-10.3-4.3-.5-19.2-2.6-21 2.6-3 8 30 9.7 35.5 7.6zM793 191.4c8.4-3.3 5.8-8.7-1.7-9-3.3 0-16.6 3-17.8 6.2-2.5 7.2 15.7 4 19.5 2.8zm-704.4-1.3c5-2.7-7-9.8-9-1-1 5 6 2.4 9 1zm1256.8-1c12.3-13.6-17-16-21.5-8.7-5.8 9.6 16.6 15.7 21.4 8.6zm90.3 2c3.3-3-1.4-3.6-1.7-4-1-2-3 8.6 1.7 4zM31 190.5c5-5.2-8.6-18-10.5-5.5-.8 5.3 5 8.2 10.4 5.5zm189-1c6-3.8 7.7-11.2 2-14.5-4-2.2-15.5-3.4-19.7-1.6a8.6 8.6 0 0 0-2.5 14.7c3.6 3.2 16 3.3 20 1.5zm373-.8c0-2-4.5-.6-2.3 1.2 2.6 2 1-1.2 2-1.3zm722.8.2c6.2-5-16.7-13-18-2-1 6.5 13.8 3.2 18 2zm83.4-2.2c1.2-4.4-4.6-8-5.2-2.5-.4 3.5 3 5.7 5.2 2.5zm-1209.2-1c12-16.2-29.7-9.5-29.5-4 0 4.7 26 6.7 29.5 3.8zm659.2-2q-1.6-2-2.6 0c-1 2.4 2.7 0 2.5 0zm387.5-1.3c0-6.5-8.2-.8-4.7 1.3 3 1.8 3.7.5 4.7-1.3zm-330-2.8c1.6-6.2-9-1.7-8.8-1.2 1.3 2 7.8 5 8.8 1.2zm346 0c4-5.8 8-18-3.4-12-9.4 5-2.6 18.6 3.4 11.8zm34 .3c2-3.2 3.2-10.3 1-13.4-5.4-8.5-14.3 3.2-15.2 2.6-3.2-2-1-9.6-8.4-7.4-4.2 1.3-3.5 3.5-3.2 7.3.6 7.3 7 9.6 12.3 4.3 1.2 7.6 7 9.7 13.7 6.7zm-1158.5-2.2c6.3-2 24.3-6 16.3-15-3.7-4-31-7.5-36-6.4-6.3 1.4-10.4 9.3-8.3 17 2 8 21 7 28 4.4zm199 0c10.4-10.2-12.4-12-14.7-14.8-5.5-7 12-.5 13.3-7 3.8-18.3-39.6-3.5-45-2a71 71 0 0 0-14.6 6.2c-11 6-9 8.7 2.4 11l26.2 5c6.4 1 27.3 6.8 32.5 1.7zm895.3-1c6.2-8-13.2-19.2-20-19.7-4.4-.2-23.3 7.8-24 12.2-1.3 6.7 40.5 12.2 44 7.6zm-578 0c5.6-3.7-12-6.5-12-.4 0 4 10 1 12 .2zm667-1.5c6.3-6.2-7.2-11-11-4-4.5 8.4 6.6 7.8 11 4zm-232.3.3c5.6-5.5-13.6-10-14.7-10-2.8-.3-18.7 4.3-13.6 9.3 1.8 1.7 26.4 2.3 28 .6zm-986.5 0c3.5-3 5.8-18.5-2-14-5 3-7.7 19 2 14zm1079-7.6c4.3-2.2 24.8-10 21.8-16.2-2.8-5.7-23.7-6.4-29.6-7-13-1-13 5-10.5 16.2s8 12.3 18.2 7zm-789 1.3c9.2-2.8 12-16 0-11.3-3 1-12.4 5.8-11 9.6s8.2 2.7 11 1.6zm765-.6c2.4-2.3 1-13.6-2-15.7-4.3-3.5-13.8 3.5-17.7 5.8-20.8 11.8 15.7 14 19.7 10zm202-1.2c11.8-12-9-11.3-14.7-14-6.3-3.2-21-12.4-27.3-5.6-11.8 12.6 35 26 42 19.5zm-311-1.2c7-4.6-2.3-9.8-6.3-5.2-5 5.8 1.2 8.7 6.4 5.3zm-599.2-.6c4.3-4.3-19.5-7-18.5-.5.6 4 16.6 2.4 18.5.5zm578 .8c17-4.8-3-14.6-10.8-14-7 .7-10.6 8-4 13.2 3.7 3 10.5 1.7 15 .8zm-656.7-3c8-5.6 13-9.8.2-12.4-6.5-1.2-17.6-3.8-24-2.4-7.2 1.6-8.8 9.2-2.7 14.2 5.5 4.5 20.8 4.8 26.5.8zm624 2.5c11-7.7 1.6-17.5-8-17.5-7.7 0-19.2 3.3-25.7 7-11.6 6.5-1.2 7.4 6.4 7.7 6 .2 12.3-.2 18.2 1 2 .4 7.6 3 9 1.8zm-322.6-1.5c2.7-1-7-2-9.7-.5 3 1 6.7 1.6 9.7.5zm582.7-1c5.3-4.2-5-7-7-4.8-3.3 3.6 3.2 8 7 5zm-1019.4 0c4.6-2.2 7.3-23 4.5-27-2.6-3.8-26.5-7.4-30.6-5.2-4.4 2.4-4.7 22.2-2.7 26 3.8 7.2 21.8 8.3 29 6.2zm276.8-.6c5-.4 16.3 1 11.4-4.2-6.4-7-24-2.5-32-1.2-6 1-17.8 3-5.5 6 7.8 2 18.2-.3 26-.7zm607.2-1.5c4.5-2.7 36.2-14.5 29.3-21-6-5.7-24-3.7-31-1-6.6 2.4-22.6 8-27 14.2-6.6 10 22.7 11.5 28.6 7.8zm-699.4 1c6.5-2.8-4-7.8-7.4-5.3-6.4 5 3.4 7.3 7.4 5.3zm183-3c11-11.3-10.3-14.2-13.5-4.7-2.5 7.3 8.6 7 13.4 4.7zm-404-1.3c2.7-2.8 2.5-24.8-1.4-27.3s-29.5 5.5-32.2 8.4c-4.7 5-3.5 13 2 15.7s26 5.5 31.5 3.2zm57-1c8-3 16.7-4 24.3-8.2 12.6-6.8-1.4-9-9.5-10.3-7-1-18-4.5-22.6 1-2 2.4-3.7 15-1.7 17.6 2.2 3 6.6 1.2 9.6 0zm367.3.3c5-4.2-5.5-20.2-11-7.6-4.3 9.6 3.8 10 11 7.5zm294.7-.5c2-2 4.3-6 7.3-6.6 5.3-1 3.7 2.6 6.6 5 2.7 2 .8 3 5 3.3 2.2.2 9-4 11-4.6 9-3.4 24-8 6.6-11.7-14.7-3-26.6-.6-40.7 4.2-2.5.8-13.2 3-13.3 6.8 0 6.4 14.6 6.3 17.6 3.7zm-203.8.6c4.6-.6 13.7-2.8 8-7.7-2.6-2.2-10.6-1.7-13.6-2-22.8-2.4-45.8-5-69-4.5-5 .2-13.2-1.3-13.6 5.7-.3 7.7 7.5 8.2 12.8 8.3 12.6.3 25.3-.6 38-.2 12.3.5 25 2 37.3.3zm520.3 0q-1-1.5-2.2 0c1.2 2 1.2 0 2.2 0zm-668.7-3l2-1.2c.5-1-24-6.4-22.4.4 1 4.4 18 1.4 20.4.7zm-111.7-.8c6-2 22.2-2.7 9.4-8.4-7-3-20.8-5.7-28.7-4.7-4 .5-17 5-14.8 10 .8 1.5 15.2 3.6 17 4a38.3 38.3 0 0 0 17-1zm938.8-1.2c1.5-5.6-6-7.5-6.4-2.2a3.5 3.5 0 0 0 6.5 2.3zm-316-1c6.2-3.5 12.3-6.8 18.8-9.7 7-3.3 12.2-5 5-10-4-2.6-12-2.4-16.6-3.4-7-1.6-13.4-4.4-20.6-4-4.6.5-13 1.8-16.4 5-2.8 3-6 12.7-3.4 16.6 4.6 6.8 27 9.3 33.2 5.6zm-921.6.4c9.4-6.8-10.7-16-16-5.4-3.6 7.2 11.7 7 16 5.4zm1104.8.6c6.5-2.5-4.7-9.7-6.5-10.5-4.6-2-13-3.8-17 .7-9.4 10.3 17.7 10.5 23.5 10zm42.7-1.2c7-7.8-7-13.5-11-6.7-4 6.3 6.5 8.7 11 6.7zm80.7-3c4.4-7.2-1.6-17.5-8-8.6-4.6 6.5 3.5 17.6 8 8.6zM859 150c3-4 3-16.8-4.6-15-2.5.5-3 5.5-4.8 5.8-2.8.6-3.6-2.5-6.8-3.4-4.5-1-21 2-14.5 8.7 4 4 16 2.2 19.5-2 .6 5.2 6.4 8.6 11 6zm-469-4c3-4.8.3-13.6-3.5-16.5-9.3-7.2-14.4 1-22.4 4-7.6 3.3-13.3 5.3-1.6 8.7 6.5 1.8 21.7 7.6 27.6 4zm498.3-.7c2.8-1 15.6-3.3 16.2-7 1-5-15.6-5.8-18.7-5.8-6 0-9.8 1-9 8.7.5 7.5 5 6.6 11.5 4zm326.8-.3c6.3-2.7 14.5-5 6.3-10.7-5.8-4-22.5-5-29.3-4.2-8.2 1-9.2 4-3 9.6s18.3 9 26.2 5.5zm55.7-1c1-8.8-18.7-11.3-15.5-2.5 1.5 4 13.7 6.3 15.5 2.4zM94 138.7c15.2-15.7-12.4-9.3-17.3-2.2-3.6 5.2 3 9.4 8.2 8.7 3.8-.5 6.6-3.6 9-6.5zm395 4.6l26.5-6.7 13.7-3.8c3-1 11-1.5 13-3.8 7-7.5-12.7-8.4-18-9.6-10-2.5-21.8-8.2-32-8.5-11.7 0-28.4 11-38 17-7.6 4.5-8.5 7.8-.3 11.4 10.3 4.6 24 6.8 35 4zm538.5-1c7.3-17.5-23-8.2-23.6-3.6-1 5 21 8 23.5 3.5zm-280.4.5a2.7 2.7 0 0 0-1.6-3c-1.3 0-2.3 5.2 1.7 3zm610.5-1.2c11.3-12.5-27.5-28.7-36-27-10.5 2 5.2 10 9.4 12.3 6 3.5 21 18.3 26.5 14.8zm-1234.6-1c5-1.5 19.3-2.6 22.8-7 5-6.2 0-11.7-6.8-9.7-5.3 1.6-11.7 5.8-16.5 8.8-2.8 1.7-11.4 6-7.6 9.3 1.4 1.4 6.5-.8 8-1.3zm285.6.6c7-4.5-3.4-11.2-7.3-6-4.2 5.8 2.8 8.3 7.3 6zm141.6-1.8c4.3-.6 31-1 23.3-8.2-4.3-4-16-3.4-21.3-2-4 1-29.5 5.7-31 9.4-2.6 6.8 26 1.2 29 .8zm254.7 0c.6 0 15-3.2 13.3-5-3-3.2-20.7-2-24.5-.5-12.5 4.8 4.6 7.3 11 5.7zM292 138c2.6-2.8-22.5-9.7-25.2-10.3-5-1-27-9.3-27.6-.3-.7 7.8 12.4 7.2 17.6 8 7.3 1 29 9 35 2.6zm1030.6.4c3.5-6.5-10.5-12.7-11.7-5.4-1 5.5 7.7 8.6 11.6 5.4zm-1264.3-5a384.2 384.2 0 0 1 71.7-26.6c4.6-1.2 11.8-2 15-6 1.4-2 3.7-10.8 1-12.8-4.3-3.4-13.2 3-17.3 4.7-16.6 7-34 12.3-50.2 20.5-8.8 4.5-18 9.4-25.8 15.7-1.6 1.3-10.7 8-7 10 2.2 1.3 10.6-4.4 12.6-5.4zm1097.8 4c4.5-2.2-5.8-9.6-6.5-3-.5 4 3.6 4.5 6.7 3zM987.5 136c3-2.5 2-8.5-.8-10.5-3.5-2.5-11 0-14.2 1.8-15 8 9.8 13 15 8.7zm153.3-1.4c7.7-3-11.4-14-11.5-3.2 0 4.2 8.7 3.7 11.5 3.2zm-706-3.3l14-7c5.7-3 19.6-7 23.6-12.7 4.8-7-3.6-7-9.2-6.6-8.3.5-17.2 3-25.4 4.7-7.5 1.4-37 3-37.4 12.6-.6 10.2 28.7 12.4 34.5 9zm167.2 1c1.2-3.4-1.5-10.8-4-13-2-1.6-15.7-1.8-15.7-1.4 0-3.4 10-2.8 10.4-7.5.4-5.4-8.5-5.6-12-6.2-8.7-1.5-17.7-2.8-26.6-3.7-10.2-1-22-2.6-32-1-6.4 1-22 4.2-13.3 10.4 6.4 4.6 21 4.8 28.8 6.8 7 1.8 14.2 4.8 21.4 5 5 .4 8.4-2.2 13.2-2.4 9-.5 2 2.2 4 6.7 1.5 3.2 23.7 9 25.7 6.3zm16.2.6c3.7-2 28.6-8.5 28.3-13.6s-14.5-5.7-18-6.3c-9.2-1.5-12.5-2.4-16.2 6.5-3 7-6 18.6 6 13.3zm669.7 1c1.7-.6.8-2 1.6-2.8 2.6-3 .2-.7 4.4-1.5 4-.7 6.6 2.2 9.4-1.6 6-8-5.4-10.8-10.6-11a20.7 20.7 0 0 0-9 1.3c-1 .4-1 2.3-2.2 2.8s-3.8-.7-5 0c-9.4 5.6 2.8 14.3 11.3 13zm-596.7-2.7c12.5-1.4 2-5.3-3.8-6.8-6.7-1.7-14-4-21-4-6.7 0-24.4 3.8-23.5 12.5 16-.3 32.4 0 48.3-1.7zm317.6-.6c14-2 1.2-11.8-6-7-8.4 5.5-.4 8.8 6 7zm-844.5-.4c7-1.8 17.2-3 23.4-7.2 3.2-2.2 3.3-6 7.7-6.6s7.7 3 12.8 1.7c3.3-.6 5.8-2.6 9-3.6 4-1.3 11.7-.7 15-3.5 2.8-2.7 4.8-11.3.4-13.8-3.7-2-18 3.8-21.6 4.7-10 2.3-19.8 4.4-29.6 7-6.6 1.7-23.2 4.6-27.4 10.6-6.6 9.3 3 12.4 10 10.7zm67-.5c3.6-2.8.8-9-2.5-10.3s-10.8 1.7-13.5 3c-17.6 7.2 10.3 12.2 16 7.4zm87.7.2c3.5-3.5-10-4.6-8.2.2 1 2.5 6.7.5 8.2-.2zm790.3 0c3.8-2.5-5.2-3.5-6.6-2.7-2.6 1.4 4.8 3.3 6.5 2.6zm-164.3-1.2c3.5-4.2-8.2-2.3-5.6.2 1.7 1.6 4 .7 5.6 0zm450.6-.2c6.8-6.8-22.7-34.8-28.8-24.6-5.4 9 22.2 29 28.8 24.6zm-1100-2.5c7.2-2.2 30.6-7.7 11.2-12-15.5-3.5-29.5-6.3-45.3-3.4-2.6.5-13.8 1.3-15.2 4.7-2 5 13 5.2 15.8 6 11 2.6 22.6 8.4 33.6 4.8zm41 .3c9.4-4.3-4.2-9-8.3-4.6-5.6 6 3.6 6.8 8.4 4.6zm402.2.3c7.6-15-.7-17-14.5-18.8-9-1.3-17.5-2.7-26.3-.5-3 .7-13.8 3-12.2 8 1 3.2 15.4 4.7 17.5 5.2 8 2 28 11 35.4 6zm29.4.6c8.4-.3 24.3 1.7 30.8-5.8-5-6.3-17.6-5.8-24.8-6.7-6-.8-17.4-5-22.5-2.3-3.3 1.6-7.8 11.6-4.6 15s16.8 0 21-.2zm497.8-.5c7-9-8.2-19.5-15.5-19.8-5-.3-25.2 5.6-24.4 11.6 1 8.6 21.8 8.5 27 6 1.3-.5 4.2-4.2 5.7-4.3 4.7-.2-.7-.7 3 2.5 2 1.5-1.4 6.8 4.2 4zm-659.5-8.5c1.4-6.3-7.3-5.3-5.2-.4 1.2 3 3.4 2.7 5 .4zm592.8 1c14-3-6-16.2-16.5-11.4-15.3 7 8.8 13.5 16.5 11.5zm-825-2c3-1 12.4-2 14-5 3.4-5.7-2-6.4-6.5-5.8-3.5.5-13 2.8-15 5.8-4.7 7.4 3 6.4 7.5 5zm525-1.3c5-1.4 30.6-5.8 31.8-11 1-4.7-24-7-28.6-7.6-9.7-1.2-25.2 2-24 14.5 1 10.7 13 6 21 4zm40 2c11.8-3.3 25.4-.4 37.6-2 11.6-1.2 8-6.2-1.6-8-10.7-1.6-20.8-3-31.3-.2-2.6.7-10.4 2.4-11.4 5.7-1 4 3 6 6.7 4.4zm197.6-1.5c4.8-3-17.3-11.5-18-5.6 0 2.8 15.7 7 18 5.5zm-316-2.7c3.2-7-28.2-9.3-33-10.3-4.4-.8-33.5-8-31.8-.7 1 4.5 26 7 30.4 8 6.8 1 29 9 34.3 3zm232.4.7c9.3-3.3-4.7-9-8.6-8.4-12 1.7-1 12 8.5 8.6zm-709.6-2.2c7.4-1.4 14.3 1.5 19.7-4 7-7.4-1.2-6.8-7.2-6.4-6.6.3-25-.8-30 3.7-10.3 9 13.8 7.4 17.5 6.6zm329.6-1c10.7-3.3 8-7-1-7.8-9.5-.8-19-1.5-28.5-1.4-8.5 0-13 2.4-2.8 5.8s21.8 6.6 32.2 3.5zm357.8-.4c3-4.6-4-6.2-6.3-2.7-2.8 4.2 4 5.6 6.2 2.6zm194.4-2.2c19-9.4-9.7-15-18-11.2s-4.6 7 1.6 10.3c8 4.5 7.8 5 16.4.8zM1164 107c7-3.6 14.6-4 7.4-10.4-4-3.6-11.7-5.5-16.6-7.6-2-1-8.8-5.3-10.6-5-5.8 1.3-2.7 14.5-.7 18.7 4 9 12.4 8.2 20.4 4.3zm-751 .5c2.7-1.2 12.3-1 9.3-5.8-2-3.4-15.6-1.8-18-.2-10 6.4 2.2 8 8.7 6zm-160.6-.4c20.4-3-5.5-13.3-9.5-9.4-9.5 9 4.6 10.3 9.4 9.5zm592.8-.7c7.5-2.7 17.5-12.3 6-16.4-9.2-3.5-24.3-1-34.2-1l-35.2-1c-2.8-.2-20.7-3-23 .7-5.2 7.7 27.3 10.3 31 11 9.4 1.5 18.7 2.7 28 4.6s18.2 5.5 27.4 2zm146.7-2.7c0-6-21-7.7-18 1 1.4 4.2 17 4.7 18-1zm355.3 2c4-3.5 6.4 2.6 10 1 3.2-1.6 3.5-7.7 1.8-10.3-3-4.7-20.4-9.6-26-10-8-.6-14.4 6.6-8.7 14 3.6 4.7 17.5 8.8 23 5.4zm-210.4-3c1.4-2.4-1.2-16.6-3.3-19-4.6-5-17.2-3-23.6-3.5-6-.4-14.3-3-20.3-.3-2.3 1-3.2 3.7-5.7 5-5 2.3-11 1-16.2 2.7-9.3 3-8.8 6.6 1 8.2 8.5 1.3 17 2 25.2 3.4a124.8 124.8 0 0 0 28.3 1.7c6.8-.4 2 .5 8.4 2.2 2.6.6 3.5 2.3 6.2-.3zm-848.3-4c5.6-1.3 30.2-3.6 24.4-14.2-4.5-8.4-28.7 1-35.8 2-4.2 1-22.5.5-19.6 8 3.3 8.4 24.8 5.6 31 4zM164 98c13-3.2 29-2.4 41.2-7.4 14.2-5.8-7.4-13-14.4-15-9.6-2.7-23 1-32 5.8-10 5-7.5 20.8 5.2 16.6zm575.6-1c.5-1.3-3.3-1.4-3.8-1-2.7 3.2 3.7 1.2 3.8 1zm569.4-.4c14.8-16-11.6-17.5-21-19.3-15-3-30-5.5-45-7.5-28-3.6-56-10.4-84-12-5-.3-17.4-2-20.5 4.2-4.6 9 8.6 8.4 14 8.8 21.5 1.7 42.6 5 64 8 16.3 2 33.8 5 50 8.6 8.8 2 34 15.6 42.5 9.2zm-119.8-.2c7-6.3-11-10-12.5-7-2.4 4.8 9.2 10 12.5 7zm-826-.8c7.3 0 28 3.8 25.8-8.2-2-11.5-19-3.8-26.4-2-5 1.3-24.8 2.8-27.2 8.6-1.5 3.7 24.4 1.7 28 1.6zm354.2-.2c10-4.7-10.7-10-14-10.6-5.6-1-20.7-3.3-25.4 1.5-9.7 10 32.8 11 39.4 9zm-136.2-.8c5.5-2-5.3-9.2-10.7-3.6-4.7 5 7.6 4.5 10.7 3.6zm29 0c5.4 0 5.4-5.7 2.2-8.3-2.8-2-16.3-1-19 1-12.3 9 10.8 7.4 16.8 7.3zm25 0c6-2.3-8.6-9.7-11.4-5.2-4.2 6.8 7.6 6.6 11.3 5.2zM479.6 94c4.6-.5 16.5-1 13-9-3-7-15.3-2-20.7-1.2-3.8.6-20 1.8-15 9 3 4.2 19 1.4 22.7 1zM986 91c5-4.5-19.2-8-20-8-6.4-1.3-26-7.6-31.4-.2-6.8 9.2 15.7 6.6 19.4 7 2 .2 32 6 32 1.3zm-655.3-2.5c6-1.5 24-3.4 27.5-9.2 4.7-8-10-5-14-4.6-5 .7-20.7.4-24 5.3-5.6 8 4.8 11.2 10.5 8.5zm333.6-.8c3.4-5.4-11.6-4.6-11.5-1 .2 4 10 3.6 11.5 1zm393.2-.4c3-1.3 10.5-5.2 6.5-9.5-1.2-1.3-14 2.2-15.5 3.2-11.7 7.7 1.8 9 9 6.3zm-623.7.5c11-2.7 22.2-5.4 33.2-7.8 4-1 24.3-2.8 26.5-7.3 6.2-12.8-40.7 1-42.7 0-.6-.4 4.7-3.6 4.7-4-.4-5.8-37-1.8-41 1.2-2.5 2-10 10-9.7 11 2.4 8.2 19.4-.8 21.7 1.8 1.4 1.5-2.8 4 .5 5.4 1.7 1 5.6 0 6.8-.4zm-4.5-7.8c3.3-2.2 13.7-6.7 17.6-5.6-3-.8-12.4 6.7-17.7 5.6zM544 86c3.2-.6 13.4-1.4 10-6.6-1.8-3-11-2.6-13.7-3-10.6-1.7-21.3-5.3-31.5-.5-10.7 4.8-.8 7 6.6 8.7 10.3 2.2 18 3.3 28.6 1.3zm361.2-.8c5-1.3 42-11.3 40.8-17.3-1-4.7-29.7-3.7-34.8-4.2-14.3-1.5-27-7.5-29.2 10.2-1.8 14.5 11 13.8 23.2 11.3zm119.7-1c3.2-1 14.2-1.7 13.2-7.5-1-5-17-4.2-20.7-4.5-7-.7-55-9.6-55 3.2 0 2.6 30 7.8 33.5 8.6 10 2.5 18.8 2.8 29 .2zM232.3 83c6.6-2.7 9-16 2-19.3-3.5-1.8-31 3-33 7-2.8 6.4 24.8 15 31 12.3zM858 81.7c2.2-1.7 5-15.6 3.8-18-1.6-3-3.6-2.7-6.6-3-4.8-.7-11.6 2.8-16 4.2-5.3 1.6-18.6 3.7-22.5 7.7-5.7 5.7.6 5.4 6.7 6.4 9.2 1.6 25.8 7.2 34.7 2.7zm16-8c.5-3.5 2.2-10-2.3-11.8-8-3.2-5.5 9.5-5 12.7 2.2 10.5 6.4 9 7.4-1zm-614.6 3.2c13.7-3.3 30.4-4.2 43.7-8.8 19-6.5-15-11-20.7-11-11.5 0-19.4-4-31.4 1.6-6.2 3-5.6 4.5-6.5 10.7-1.8 12.8 5.3 9.7 15 7.4zM617 78c1.6-.5 2.8-2 4.3-2.5 5.7-2 2.6-.5 7.4 0 1 0 2.5 1 3.6 1.2 4.3.7 26.3 2.2 28.3-.6 4.2-6-28-13.7-34-14.6-10-1.5-20.8-1-31-1-3.5 0-12.5-1.4-15.3 1.7-3.6 4.2 1.6 13.5 5.6 15.7 7 4 23.4 2.3 31 .4zm116 0q3.3.4 3.3-2c-2-2.4-16.6-4.2-17.4-.7-1.6 5.5 11 3.3 14 2.7zm-27.7-3.6c9.7-7-47.6-12-46-9.8 2.8 4.6 15.2 6.8 19.6 8.2 7.3 2.4 19 6.8 26.2 1.6zM577 75c4.6-4.8-3.5-12.2-7.6-13-3.2-.7-24.3 1.7-26.3 4.4-4.8 6.4 9.6 6.5 14 7.2 5.8.7 14.5 3.5 20 1.3zm214.6-1.7c4.4-1.6 38.3-8 36.6-13.3-1.8-5.4-38-1-43.4-.8-6 .3-13-1-17.3 3.5-14.7 14.6 17.2 13 24 10.6zm-33.8-3.7c7-11.5-8.2-10.7-13.6-4.8-7 8 10.2 10 13.6 5zm-28.3-2c6-1.4 7.8-5 3-8-2.8-1.8-17.2-.7-19.8.7-12.5 6.7 11.2 8.2 16.8 7.2zm-207.7-2c4-4.4-10.3-4-8.3 0 1.4 2.6 6.6 1 8.3 0zM356.2 61c8.8-1.4 26 1.2 30.6-7.8 2-4-1-11.6 5.8-11.6 8.2 0 2.7 9.6 6.6 13.2 6.5 5.8 27.5.2 35.7-.4 13.4-1 26.8-2.2 40.3-3s27.4 0 40.3-3.7c4.2-1.2 11.6-6.3 16-5.6 2 .3 4.2 4.5 6.5 5.4 3 1 8.2-.4 11-.6 5-.4 23.8 1 13.6-6.8-4.6-3.5-14.5-1-18.2-5.5-1.3-1.6-1.4-9.6-.5-9-5-3-22.3 1.4-27.6 1.7-15.3 1-30.6 1.6-46 2.6-25.2 1.7-50.3 4-75.3 7.6-24 3.4-48.8 4.2-73 7-16.6 2-6.5 11.7 3.6 14.8 10.5 3.3 19.7 3.2 30.6 1.4zm682.5-4.5c5.3-8-10.3-6.2-10.5-1.7 0 5 8.4 4.8 10.5 1.7zm-734-3.4c5.7-3-6-8-7.4-3-.8 3.3 5.4 4 7.5 3zM665 45.7c2.5-1.3 7.5-.6 10-.7 12-.4 24-.3 35.8-.4 11 0 21.8 0 32.7-.3 2.8 0 10 1 12.4-.7 3.7-2.7-.3-4 3.4-5.7 1.6-1 4.4 0 6.2-.3 4.5-1 2.7.5 5.2-2.7 1-1.4 3-7.6 1.7-9.5-3-4.4-14.2-1.7-18.5-1.5-13 .6-26 .4-39 0-9.6-.3-16.5-1.4-24 2.6-1 .4 1.4 1.6-2 2.7a25.5 25.5 0 0 0-3.7-1.2c-7.7 0-15.4.4-23 .7-6.5.3-11 0-16.7-1.2l-5.8-1.5c-19.2-3.2-41-1-60.3-.6-7 0-20.5 3.2-7.7 12 6.4 4.5 21.5 6.8 29 7.5 7 .5 14.3-.3 21-1 7.4-1 18-6 25-5.5 6.4.5 2.7 1 6.4 4s6.3 5.7 11.8 3.2zm202.3-4.2c6.8-8.3-1.5-11.8-8-13-5-.7-11.4-2-16.2-1.4-3.4.6-7 3.8-10.2 4-7.3 0-1.6-2.3-5.5-4.2a30.6 30.6 0 0 0-3.7-1.8c-4.3-1.7-11.4-.8-16-1-6-.4-16.6-3-22.6-.8-4 1.4-9.8 5.6-8.4 11 1.5 5.6 10 5.3 14.8 5.7 2.4.2 26.6-2.5 26-3.6 2 3.7-1.6 3.5 3.5 6s15.3 1 20.6 1.3c5.5.2 22.5 3.5 25.7-2.2zM562 33.8c9.3-5-15.7-13.2-15.7-8 1.5 5.5 10.7 10 15.8 8z"/>
</svg>
