<?xml version="1.0" encoding="utf-8"?>
<!-- Generator: Adobe Illustrator 21.1.0, SVG Export Plug-In . SVG Version: 6.00 Build 0)  -->
<svg version="1.1"
	 id="Слой_1" xmlns:cc="http://creativecommons.org/ns#" xmlns:dc="http://purl.org/dc/elements/1.1/" xmlns:rdf="http://www.w3.org/1999/02/22-rdf-syntax-ns#"
	 xmlns="http://www.w3.org/2000/svg" xmlns:xlink="http://www.w3.org/1999/xlink" x="0px" y="0px" viewBox="0 0 216 215.5"
	 style="enable-background:new 0 0 216 215.5;" xml:space="preserve">
<style type="text/css">
	.st0{fill:#F9D8C1;}
</style>
<path class="st0" d="M39.5,214.1c-2.8-2-1.6-5.1,2-5.1c2.3,0,3.1,0.5,3.3,2.2C45.2,214.1,42,215.9,39.5,214.1L39.5,214.1z
	 M52.4,214.1c-0.9-2.4,0-5,2.1-5.4c2.6-0.5,4.8,2.6,3.5,5C56.7,215.8,53.2,216.1,52.4,214.1L52.4,214.1z M66.4,214.1
	c-1.1-2.8,0.1-5.1,2.5-5.1c3.2,0,4.9,2.8,3.2,4.9C70.4,215.9,67.1,216,66.4,214.1L66.4,214.1z M80.4,214.1c-1.1-2.8,0.1-5.1,2.5-5.1
	c3.2,0,4.9,2.8,3.2,4.9C84.4,215.9,81.1,216,80.4,214.1L80.4,214.1z M95,214.1c-2.7-3.3,1.8-7.2,4.8-4.2c1.3,1.3,1.4,2.1,0.6,3.4
	C98.9,215.6,96.6,215.9,95,214.1L95,214.1z M109,214.1c-2.7-3.3,1.8-7.2,4.8-4.2c1.3,1.3,1.4,2.1,0.6,3.4
	C112.9,215.6,110.6,215.9,109,214.1L109,214.1z M123.2,214.3c-1.6-1.6-1.5-3.3,0.3-4.8c2.2-1.8,5.5-0.3,5.5,2.4
	C129,215.2,125.5,216.6,123.2,214.3L123.2,214.3z M137,214c-1.8-2.2-0.1-5,3.1-5c2,0,2.4,0.5,2.4,3c0,2.3-0.5,3.1-2.1,3.3
	C139.3,215.5,137.7,214.9,137,214L137,214z M151,214c-1.8-2.2-0.1-5,3.1-5c2,0,2.4,0.5,2.4,3c0,2.3-0.5,3.1-2.1,3.3
	C153.3,215.5,151.7,214.9,151,214L151,214z M165.1,213.7c-1.7-3.1,0.4-5.1,5.1-5.1c0,0,9.1,5.7,0.4,6.5
	C167,215.4,165.9,215.1,165.1,213.7L165.1,213.7z M26.6,209.9c-2-2-0.4-5.4,2.4-5.4s4.4,3.5,2.4,5.4c-0.9,0.9-2,1.6-2.4,1.6
	S27.4,210.8,26.6,209.9z M182.4,209.3c-0.7-2.2,1.9-5.2,3.9-4.5c1.7,0.6,3,3.4,2.3,5.1C187.7,212.3,183.3,211.9,182.4,209.3
	L182.4,209.3z M16.5,203.1c-2.5-1.8-1.5-5.1,1.6-5.4c2.8-0.3,4.3,1.6,3.3,4.2C20.6,204,18.4,204.5,16.5,203.1z M193.6,203
	c-0.8-2.2-0.9-2.1,0.9-3.9c2.2-2.2,5.7-0.3,5.2,2.7C199.4,204.6,194.6,205.5,193.6,203L193.6,203z M203,194c-1.9-2.3-0.8-5,2.1-5.4
	c3.5-0.4,5.1,3.4,2.3,5.5C205.1,195.9,204.5,195.8,203,194L203,194z M7.2,192.3c-1.6-1.6-1.6-2.4,0.3-4.3c2.2-2.2,5.7-0.3,5.2,2.7
	C12.4,193.3,9.1,194.2,7.2,192.3L7.2,192.3z M207.9,181.9c-1.8-2.1,0-4.9,3.2-4.9c2.7,0,3.7,2.8,1.9,5
	C211.4,183.9,209.6,183.9,207.9,181.9L207.9,181.9z M1.6,180c-0.8-2.2-0.9-2.1,0.9-3.9c2.2-2.2,5.7-0.3,5.2,2.7
	C7.4,181.6,2.6,182.5,1.6,180L1.6,180z M210,169c-1.8-2.2-0.3-5.5,2.5-5.5c1.5,0,2.6,0.7,3,2c0.7,2.2-1,5-3,5
	C211.8,170.5,210.7,169.8,210,169z M0.3,166.9c-0.8-2.2,0.9-4.9,3.2-4.9c1,0,2.2,0.7,2.8,1.6c1.5,2.4,0.1,4.9-2.8,4.9
	C2,168.5,0.7,167.8,0.3,166.9z M210,155c-2.1-2.5-0.8-5,2.5-5c2.1,0,3.1,0.5,3.3,1.8c0.4,2.1-1.5,4.7-3.3,4.7
	C211.8,156.5,210.7,155.8,210,155z M0.3,152.9c-0.8-2.2,0.9-4.9,3.2-4.9c1,0,2.2,0.7,2.8,1.6c1.5,2.4,0.1,4.9-2.8,4.9
	C2,154.5,0.7,153.8,0.3,152.9z M210,141c-2.1-2.5-0.8-5,2.5-5c2.1,0,3.1,0.5,3.3,1.8c0.4,2.1-1.5,4.7-3.3,4.7
	C211.8,142.5,210.7,141.8,210,141z M1,139.1c-2.7-3.3,1.8-7.2,4.8-4.2c1.3,1.3,1.4,2.1,0.6,3.4C4.9,140.6,2.6,140.9,1,139.1L1,139.1
	z M210.7,127.4c-2.2-1.3-2.2-4.5,0.1-5.7c2.3-1.2,5.2,0.4,5.2,2.9C216,127,213,128.6,210.7,127.4L210.7,127.4z M1,125.1
	c-2.7-3.3,1.8-7.2,4.8-4.2c1.3,1.3,1.4,2.1,0.6,3.4C4.9,126.6,2.6,126.9,1,125.1L1,125.1z M209.7,112.9c-1.4-1.4-0.7-4.3,1.1-5.3
	c2.4-1.3,5.5,0.8,5,3.5C215.5,113,211.1,114.3,209.7,112.9z M1,111c-1.8-2.2-0.3-5.5,2.5-5.5c1.5,0,2.6,0.7,3,2c0.7,2.2-1,5-3,5
	C2.8,112.5,1.7,111.8,1,111z M209.3,97.9c-0.8-2.2,0.9-4.9,3.2-4.9c1,0,2.2,0.7,2.8,1.6c1.5,2.4,0.1,4.9-2.8,4.9
	C211.1,99.5,209.7,98.8,209.3,97.9z M1,97c-2.1-2.5-0.8-5,2.5-5c2.1,0,3.1,0.5,3.3,1.8c0.4,2.1-1.5,4.7-3.3,4.7
	C2.8,98.5,1.7,97.8,1,97z M209.5,83.5c-0.7-2.2,1-5,3-5s3.7,2.7,3,5c-0.4,1.3-1.5,2-3,2S209.9,84.8,209.5,83.5z M1,83
	c-2.1-2.5-0.8-5,2.5-5c2.1,0,3.1,0.5,3.3,1.8c0.4,2.1-1.5,4.7-3.3,4.7C2.8,84.5,1.7,83.8,1,83z M210.1,70.1
	c-2.7-3.3,1.8-7.2,4.8-4.2c1.3,1.3,1.4,2.1,0.6,3.4C213.9,71.6,211.6,71.9,210.1,70.1L210.1,70.1z M1.5,69.1c-2.8-2-1.6-5.1,2-5.1
	c2.3,0,3.1,0.5,3.3,2.2C7.2,69.1,4,70.9,1.5,69.1L1.5,69.1z M210.1,56.1c-2.7-3.3,1.8-7.2,4.8-4.2c1.3,1.3,1.4,2.1,0.6,3.4
	C213.9,57.6,211.6,57.9,210.1,56.1L210.1,56.1z M0.7,54.9c-1.4-1.3-0.7-4.3,1.1-5.3c2.4-1.3,5.5,0.8,5,3.5C6.5,55,2.1,56.3,0.7,54.9
	z M209,41.6c-0.8-1.5-0.6-2.3,0.6-3.5c0.9-0.9,2.1-1.5,2.7-1.3c1.8,0.6,3.1,3.4,2.4,5.1C213.8,44.1,210.3,43.9,209,41.6L209,41.6z
	 M1.7,41.9C0.2,40.3,1,36.6,3.1,36c2.9-0.9,5.8,1.9,4.3,4.3C6.2,42.1,2.9,43.1,1.7,41.9L1.7,41.9z M205.4,30.1c-0.9-2.4,0-5,2.1-5.4
	c2.6-0.5,4.8,2.6,3.5,5C209.8,31.8,206.2,32.1,205.4,30.1L205.4,30.1z M6.1,29.1c-1.9-2.3-0.4-5.6,2.5-5.6c2.8,0,4.2,2.5,2.7,4.9
	C9.9,30.6,7.6,30.9,6.1,29.1L6.1,29.1z M198.1,19.1c-2.5-3,1.5-7,4.5-4.5c2.1,1.8,1.4,5.4-1.1,5.7C200.3,20.5,198.8,19.9,198.1,19.1
	L198.1,19.1z M13.3,17.9c-1.5-3.8,3.8-6.7,6-3.2c0.8,1.2,0.7,2.1-0.3,3.3C17.4,20,14.1,19.9,13.3,17.9L13.3,17.9z M188.1,11.1
	c-2.7-3.3,1.8-7.2,4.8-4.2c1.3,1.3,1.4,2.1,0.6,3.4C191.9,12.6,189.6,12.9,188.1,11.1L188.1,11.1z M23.7,10.1
	c-1.3-3.5,2.3-6.7,5-4.4c0.8,0.6,1.3,2.1,1.1,3.3C29.4,11.5,24.6,12.4,23.7,10.1z M36.1,5.7c-1.2-2.3,0.4-5.2,2.9-5.2
	c1,0,2.3,0.8,2.9,1.7c1.3,2.3-0.4,5.3-2.9,5.3C37.9,7.5,36.7,6.7,36.1,5.7z M175.4,6c-1.4-3.7,2.7-6.9,5.3-4.2
	c2.2,2.2,0.8,5.7-2.3,5.7C177.1,7.5,175.7,6.8,175.4,6L175.4,6z M50.3,5.8C49.6,5.6,49,4.3,49,3c0-3.1,3.6-4.3,5.8-2.1
	C57.6,3.6,54,7.4,50.3,5.8L50.3,5.8z M64.1,5.1c-2.7-3.3,1.8-7.2,4.8-4.2c1.3,1.3,1.4,2.1,0.6,3.4C67.9,6.6,65.6,6.9,64.1,5.1
	L64.1,5.1z M78.1,5.1c-2.7-3.3,1.8-7.2,4.8-4.2c1.3,1.3,1.4,2.1,0.6,3.4C81.9,6.6,79.6,6.9,78.1,5.1L78.1,5.1z M92.2,5.3
	c-1.6-1.6-1.5-3.3,0.3-4.8C94.6-1.3,98,0.2,98,3C98,6.2,94.5,7.6,92.2,5.3L92.2,5.3z M106,5c-1.8-2.2-0.1-5,3.1-5c2,0,2.4,0.5,2.4,3
	c0,2.3-0.5,3.1-2.1,3.3C108.3,6.5,106.7,5.9,106,5L106,5z M120,5c-1.8-2.2-0.1-5,3.1-5c2,0,2.4,0.5,2.4,3c0,2.3-0.5,3.1-2.1,3.3
	C122.3,6.5,120.7,5.9,120,5L120,5z M134.1,4.7c-1.2-2.3,0.4-5.2,2.9-5.2c1,0,2.3,0.8,2.9,1.7c1.3,2.3-0.4,5.3-2.9,5.3
	C135.9,6.5,134.7,5.7,134.1,4.7z M148.4,5.1c-0.9-2.4,0-5,2.1-5.4c2.6-0.5,4.8,2.6,3.5,5C152.8,6.8,149.2,7.1,148.4,5.1L148.4,5.1z
	 M162.4,5.1c-1.1-2.8,0.1-5.1,2.5-5.1c3.2,0,4.9,2.8,3.2,4.9C166.4,6.9,163.1,7,162.4,5.1L162.4,5.1z"/>
</svg>
