<?xml version="1.0" encoding="utf-8"?>
<!-- Generator: Adobe Illustrator 21.1.0, SVG Export Plug-In . SVG Version: 6.00 Build 0)  -->
<svg version="1.1"
	 id="Слой_1" xmlns:cc="http://creativecommons.org/ns#" xmlns:dc="http://purl.org/dc/elements/1.1/" xmlns:rdf="http://www.w3.org/1999/02/22-rdf-syntax-ns#"
	 xmlns="http://www.w3.org/2000/svg" xmlns:xlink="http://www.w3.org/1999/xlink" x="0px" y="0px" viewBox="0 0 421.7 131.2"
	 style="enable-background:new 0 0 421.7 131.2;" xml:space="preserve">
<path d="M28.7,130.2c-12.3-1.7-21-8-21-15.2c0-1.4-0.9-4.1-2-5.9c-2-3.3-2.5-8.7-1.1-12.3c0.6-1.4,0.1-2.9-1.6-5.2
	c-3.4-4.4-3.9-9-1.4-13.6c2-3.8,2-3.8,0-8.4C-1.2,63.5-0.3,59.5,4.7,55c5.5-5,10.3-6.1,26.3-6.1l13.8,0l0-4.5
	c0-3.4-1.2-6.8-4.6-13.6c-3.6-7.2-4.6-10.2-4.7-14.6C35.2,7.4,40.9,0,47.8,0c4.2,0,6.7,3,10.8,13c1.8,4.3,6.5,12.8,10.5,18.9
	c7.8,11.8,16,26,17.6,29.9c0.6,1.7,2.2,2.8,4.7,3.5c10.5,2.9,12.6,0.7,13.3-13.8c0.5-10.6,0.5-10.7,3-10.7c2.5,0,2.5,0,2.8,10.8
	c0.3,12.5-0.9,16.4-6.5,19.8c-2.8,1.8-4.5,2-8.8,1.6c-8.6-0.9-11.8-3-15.5-10c-5.6-10.6-14-24.9-18.8-31.7c-2.5-3.6-6.2-10.3-8.2-15
	C48.8,7.5,46.5,5.5,44,8.9c-2.6,3.6-1.6,10.4,2.9,18.9c4,7.6,4.2,8.4,4.3,17.2c0.1,12.2-0.1,12.4-11.9,11.2
	c-15.4-1.5-28.1,0.3-31,4.4c-2.1,3-1.9,5.1,1,8.5c3,3.6,3.2,6.3,0.6,8.6c-1.1,1-2.2,2.8-2.5,4.2c-0.7,2.7,1.7,8.2,3.9,9
	c2.2,0.9,2.6,3.3,1,6.4c-2.1,4.1-1.8,7.3,0.9,9.9c1.9,1.8,2.3,3,1.9,5.6c-1.2,7.2,6.2,10.3,25.7,10.7l10.5,0.2v-27l-3.7-0.3
	c-3-0.2-3.9-0.8-4.4-2.8c-0.8-3.3,1.2-5.4,5.2-5.4c3.1,0,3.4-0.3,3.4-3c0-6.3,6.7-15.1,12.7-16.6c4.7-1.2,8.1,3.1,4.7,5.8
	c-6.1,4.8-9.4,8.8-9.4,11.2c0,2.3,0.4,2.6,3.6,2.6c4.5,0,7.4,1.5,7.4,3.8c0,2.9-2.1,4.2-6.7,4.2h-4.3v15.5
	c0,19.9,0.3,19.6-14.3,19.4C39.8,131.1,32.3,130.7,28.7,130.2L28.7,130.2z M91.2,128.9c-8.5-3.1-14.5-13.2-13-22
	c3.1-19.1,27.8-24.6,37.9-8.4c2.6,4.2,3,5.9,3.4,15.1c0.3,5.7,0.2,11.6-0.1,13c-0.9,3.6-4.5,4.5-6.8,1.8c-1.7-2.1-1.9-2.1-4.2-0.6
	C104.8,130.1,96.1,130.7,91.2,128.9L91.2,128.9z M106.6,119.6c8.2-6.1,4.5-20.4-5.9-22.7c-6.2-1.4-15,6-15,12.4
	C85.7,119.5,98.3,125.7,106.6,119.6L106.6,119.6z M141.7,128.1c-11.7-5.9-15.3-21-7.3-31.5c7.7-10.2,25-10.1,32.9,0.2
	c2.9,3.9,2.7,7-0.6,8.1c-1.5,0.5-3.2-0.4-6.3-3.3c-4.9-4.5-8.9-5.8-13.2-4.2c-6.3,2.4-10.1,8.5-9,14.4c0.8,4.3,5.9,9.4,10.2,10.2
	c4.3,0.8,10.1-1.2,12-4.1c1.9-2.9,5-4,6.9-2.4c2.2,1.8,1.8,4.4-1.3,8C160.3,130.2,149.8,132.2,141.7,128.1L141.7,128.1z
	 M190.8,127.7c-7.3-3.7-10.5-8.6-10.9-17.3c-0.3-5.5,0.1-7.4,2.1-11.1c9.1-17,36.4-12.4,38.5,6.6c0.8,7.2,0.2,7.4-16.9,7.4
	c-16.4,0-17.6,0.5-11.8,5.4c4.1,3.4,7.4,4.2,12.4,2.7c8-2.4,9.3-2.4,10.5-0.1c1.5,2.8,0,4.7-5.5,7.2
	C203.4,131.1,197.1,130.8,190.8,127.7L190.8,127.7z M211.7,103.9c0-2.1-5.6-6.4-9.3-7.1c-5.1-1-11.4,2.1-13.8,6.8
	c-0.9,1.6-0.1,1.8,11.1,1.8C209.4,105.3,211.7,105.1,211.7,103.9L211.7,103.9z M244.3,128.9c-4.7-1.7-9.9-6.6-12.2-11.4
	c-1.5-3.2-1.6-6.8-1.2-33.3c0.5-27.6,0.4-29.9-1.3-32.7c-3.6-6-9.9-6.9-15.2-2.2c-3.2,2.9-3.3,3.1-3.8,13.3
	c-0.5,10.2-0.5,10.3-3,10.3c-2.5,0-2.5,0-2.8-10.6c-0.3-9.6-0.1-10.9,2-14c7.1-10.5,20.6-10.9,28.1-0.7c2.2,2.9,3.4,15,3.6,35.4
	l0.1,9.2l4.3-1.9c5.9-2.7,11.3-2.5,17.6,0.6c7,3.5,10.4,8.6,10.9,16.4c0.6,7.7-1,12.1-6.3,16.9C258.9,130.1,252,131.6,244.3,128.9
	L244.3,128.9z M256.2,120.9c6.3-2.6,9.4-11.3,6.2-17.5c-1.8-3.5-7.4-7-11.2-7s-9.5,3.6-11.2,7c-3.1,6.1-0.1,14.8,6,17.5
	C250.1,122.7,252,122.7,256.2,120.9L256.2,120.9z M295.9,129.2c-5.3-1.5-11.7-8.6-13.1-14.7c-4.9-20.6,19.6-34.6,34.5-19.7
	c8.5,8.5,8.5,20.6,0,29.1C311.5,129.8,304.1,131.6,295.9,129.2L295.9,129.2z M308.6,120.5c10-5.4,8.4-19.6-2.6-23.2
	c-8.8-2.9-18.3,6.6-15.4,15.4c1.1,3.4,5.2,8,8.1,9C301.7,122.7,305.3,122.3,308.6,120.5L308.6,120.5z M348.9,129.2
	c-5.3-1.5-11.7-8.6-13.1-14.7c-4.9-20.6,19.6-34.6,34.5-19.7c8.5,8.5,8.5,20.6,0,29.1C364.5,129.8,357.1,131.6,348.9,129.2
	L348.9,129.2z M361.6,120.5c10-5.4,8.4-19.6-2.6-23.2c-8.8-2.9-18.3,6.6-15.4,15.4c1.1,3.4,5.2,8,8.1,9
	C354.7,122.7,358.3,122.3,361.6,120.5L361.6,120.5z M389.4,129.1c-1.6-1.1-1.7-3.9-1.4-30.1c0.2-26.3,0.4-29,2-30
	c1.3-0.8,2.2-0.8,3.5,0c1.5,1,1.8,3.1,2,16.7c0.2,8.6,0.5,15.6,0.8,15.6s4.9-2.9,10.2-6.5c9.9-6.6,11.9-7.4,14-5.3
	c2.6,2.6,1.1,4.8-6.5,9.9c-4.3,2.8-7.9,5.3-8.1,5.5c-0.2,0.2,3.3,4.7,7.8,10.1c4.5,5.4,8.1,10.3,8.1,11c0,1.7-2.8,4.4-4.5,4.4
	c-0.8,0-5.3-4.7-10.1-10.5c-10.4-12.5-11.3-12.5-11.3,0c0,7.2-0.3,8.5-1.9,9.4C391.4,130.6,391.4,130.6,389.4,129.1L389.4,129.1z
	 M123.6,71.9c-3.4-1.8-5.4-6.2-3.8-8.1c1.7-2,3.3-1.7,5.8,1.2c2.4,2.7,3.9,2.8,5.5,0.3c1.6-2.5,0-4.6-4.2-5.8
	c-5.6-1.5-8.4-5.4-7.8-10.5c0.7-5.3,4.4-8.5,9.7-8.5c5.6,0,9.6,3.8,9.1,8.8c-0.2,2-4.9,1.5-6.1-0.8c-1.3-2.5-4.6-2.6-5.9-0.3
	c-1.3,2.3,0.4,5.3,3,5.3c3.2,0,7.4,2.6,8.7,5.5C141.7,68,132.5,76.7,123.6,71.9L123.6,71.9z M172.1,71.4c-5.7-2.6-8.7-7.2-9.2-14
	c-0.3-4.6,0-6.2,2-9c7.2-10.6,20.6-10.9,28.2-0.7c3.1,4.2,3,14-0.3,18.5c-2.7,3.8-9.1,7.1-13.6,7.1
	C177.6,73.3,174.4,72.5,172.1,71.4L172.1,71.4z M185.4,64.6c3.2-2.1,4.8-7.6,3.3-11.3c-2.9-7-10.6-9-16-4.2
	C162.9,57.9,174.2,71.8,185.4,64.6L185.4,64.6z"/>
</svg>
