<svg xmlns="http://www.w3.org/2000/svg" width="auto" viewBox="0 0 134 142.552"><path d="M102.783 139.33c-4.776-4.775-3.281-9.148 3.129-9.148 7.116 0 7.403-1.557 1.789-9.695-11.82-17.143-19.843-21.51-19.843-10.803 0 3.291-3.039 9.379-6.751 13.535-8.926 9.992-23.536 11.012-32.821 2.287-5.212-4.895-6.165-7.904-6.165-19.461v-13.67l-11.434 1.063C15.256 94.869 6.539 91.105 2.412 81.23c-3.802-9.1-2.618-16.584 4.167-26.321 5.33-7.647 19.44-14.327 28.301-13.397 7.731.811 12.763-2.298 11.028-6.816-2.337-6.087 7.64-24.1 16.314-29.463 25.471-15.742 45.967 6.249 34.006 36.487-1.363 3.445-.354 4.212 5.538 4.212 20.515 0 33.089 18.834 23.776 35.613-3.159 5.693-14.022 12.531-19.907 12.531-5.958 0-3.547 4.244 6.69 11.773 7.113 5.23 11.665 6.965 15.646 5.967 4.443-1.117 5.619-.432 5.619 3.266 0 6.699-1.846 7.705-9.892 5.398-7.081-2.031-7.113-1.996-5.563 6.266 2.373 12.637-7.34 20.596-15.352 12.584zm-31.416-16.562c6.268-3.352 11.839-16.713 9.963-23.891-.804-3.072-5.665-9.918-10.806-15.217l-9.344-9.628-4.114 5.745c-5.947 8.311-10.226 28.174-7.574 35.152 3.254 8.557 13.606 12.266 21.875 7.839zM50.348 75.245c9.516-10.836 9.342-14.579-1.006-21.601-11.063-7.512-24.411-6.118-33.933 3.543-13.038 13.23-10.794 26.032 5.164 29.45 11.255 2.412 20.891-1.274 29.775-11.392zm65.793 6.016c5.309-4.779 7.085-14.669 3.572-19.924-5.802-8.692-29.177-11.066-38.475-3.908l-5.413 4.167 8.528 12.027c11.52 16.236 19.978 18.27 31.788 7.638zM77.023 51.042c12.609-7.278 19.381-27.336 13.155-38.967-1.802-3.365-5.059-4.657-11.754-4.657-7.71 0-10.684 1.571-17.729 9.369-9.967 11.034-11.333 23.055-3.716 32.738 5.494 6.984 9.983 7.324 20.044 1.517z"/></svg>