<svg xmlns="http://www.w3.org/2000/svg" width="auto" viewBox="0 0 117.923 103.719"><path d="M64.323 103.101c-2.035-1.357-3.125-4.693-3.81-11.654-.91-9.251-4.124-16.789-6.985-16.381-2.813.402-3.292 5.434-1.073 11.245 2.351 6.156 1.36 8.556-3.532 8.556-4.703 0-5.578-1.82-3.962-8.237 1.469-5.834.937-11.156-1.156-11.552-2.041-.387-5.755 7.222-6.823 13.974-.975 6.171-3.451 9.011-7.509 8.614-2.305-.226-3.13-.857-3.375-2.584-.373-2.628 3.762-10.309 7.935-14.742 2.742-2.913 5.028-9.473 3.302-9.473-.461 0-1.788 1.191-2.949 2.648-1.749 2.192-2.443 2.462-4.038 1.563-1.422-.801-1.926-2.181-1.926-5.274 0-2.907-.539-4.533-1.761-5.313-1.501-.958-2.583-.201-7.33 5.126-3.063 3.438-6.198 6.25-6.966 6.25-.768 0-2.135-1.127-3.038-2.505-2.09-3.19-.79-4.999 5.595-7.78 6.124-2.669 8-4.515 8-7.87 0-4.188-1.876-3.533-7.602 2.647-4.055 4.378-5.733 5.508-8.177 5.508-6.024 0-9.536-8.685-5.246-12.975 2.188-2.188 3.113-2.444 14.303-3.965 8.958-1.217 14.723-3.328 14.723-5.393 0-1.536-2.911-2.632-7.05-2.654-2.99-.016-4.95-1.685-4.95-4.214 0-2.4 3.05-2.324 8 .2 4.649 2.372 6.345 2.494 7.94.572 1.728-2.081-.881-6.569-6.489-11.165-5.717-4.685-7.452-7.98-7.452-14.157 0-5.039 1.233-7.25 4.045-7.25 2.897 0 4.813 3.354 5.938 10.392.603 3.773 1.758 8.14 2.567 9.705 1.48 2.861 5.146 5.541 6.174 4.514.304-.305.662-4.713.795-9.797.179-6.796-.178-10.128-1.349-12.583-1.74-3.648-.871-6.453 2.187-7.054 1.373-.27 1.643.634 1.644 5.5 0 3.401.832 8.012 2 11.084 1.1 2.894 2 6.156 2 7.25 0 2.943 4.522 2.648 6.537-.427 2.132-3.254 4.17-3.876 7.407-2.261 1.766.88 3.503 1.056 4.996.504 2.135-.791 2.241-1.219 1.59-6.428-1.159-9.278 2.125-13.706 8.903-12.005 3.498.878 3.929 3.626 1.606 10.234-2.516 7.158-2.56 9.592-.211 11.717 2.522 2.283 3.363 2.109 6.714-1.389 3.804-3.971 7.803-3.799 8.28.354.406 3.546-1.227 5.528-6.465 7.852-5.013 2.223-6.026 4.256-3.131 6.284 3.075 2.153 6.238 1.066 14.274-4.908 8.857-6.585 10.673-7.538 14.363-7.538 3.576 0 6.137 2.274 6.137 5.449 0 3.419-2.019 4.511-8.07 4.366-4.263-.102-6.747.539-11.554 2.979-3.369 1.709-6.397 3.818-6.73 4.688-.375.977.531 2.768 2.374 4.697 3.627 3.795 3.689 4.807.48 7.821-1.375 1.292-2.5 3.16-2.5 4.151 0 3.011 4.448 5.171 9.479 4.604 7.276-.82 11.411 3.813 11.811 13.236.448 10.545-6.726 10.198-9.829-.476-1.72-5.917-4.906-9.056-10.285-10.131-2.468-.494-3.288-.146-4.688 1.99-1.665 2.541-1.609 2.736 2.907 10.325 4.716 7.925 5.512 10.99 3.403 13.099-1.559 1.56-5.469 1.544-6.439-.024-.416-.674-1.084-3.639-1.485-6.589-.898-6.622-3.157-9.393-7.325-8.985-2.807.275-3.075.631-3.354 4.463-.531 7.289-4.864 6.612-8.25-1.29-2.05-4.781-2.976-5.592-4.979-4.354-2.217 1.371-1.569 7.732 1.528 14.996 3.833 8.988 3.788 14.807-.094 12.22z"/></svg>