<svg width="500" height="500" viewBox="0 0 500 500" xmlns="http://www.w3.org/2000/svg"><path d="M124.41 409.82c0-.54-1.148-.98-2.551-.98-4.247 0-5.79-5.405-5.55-19.442.084-4.963.307-5.674 1.351-4.32.687.893 2.15 1.767 3.25 1.942 1.737.277 1.988-.218 1.91-3.766-.048-2.247-.42-4.621-.824-5.276-.405-.654-.991-3.667-1.304-6.694-.312-3.027-.954-5.742-1.425-6.033-.471-.291-.825-2.866-.787-5.72.052-3.823.297-4.664.93-3.192.473 1.1.891 3.436.93 5.191.038 1.755.465 3.436.949 3.734s1.151 3.138 1.485 6.31c.985 9.373 3.078 21.675 3.902 22.946.422.65.31 1.464-.25 1.81s-1.016 1.276-1.016 2.068c0 1.628 3.552 1.976 4.5.441.934-1.511 2.5-1.198 2.5.5 0 1.795 3.111 1.99 4.8.3.933-.933 1.2-.933 1.2 0 0 .66-.45 1.2-1 1.2s-1 .954-1 2.12c0 1.974.402 2.087 5.82 1.63 5.42-.456 11.657-1.992 15.18-3.737 1.161-.575 1.525-2.862 1.61-10.128.061-5.161-.255-9.855-.702-10.43-1.164-1.497-2.694-23.455-1.85-26.539.39-1.42.275-3.357-.254-4.302-.623-1.112-.608-2.144.04-2.925 1.635-1.97-.122-94.471-1.856-97.711-1.793-3.35-2.307-29.93-.952-49.194.708-10.056 1.327-23.233 1.375-29.283.076-9.355-.135-10.927-1.41-10.51-.826.27-6.464.451-12.53.403-8.27-.067-11.947-.525-14.7-1.831-2.019-.959-4.067-1.498-4.552-1.198-.484.3-1.724 2.59-2.755 5.09s-2.232 4.546-2.67 4.546c-.735 0-1.351-8.946-.927-13.463.313-3.329 4.205-6.674 7.089-6.092 1.399.282 4.92-.313 7.823-1.322 2.904-1.01 11.94-6.587 12.23-6.116s-6.593 5.993-7.45 5.993-1.56.675-1.56 1.5c0 .833.89 1.5 2 1.5 1.1 0 2 .45 2 1s-.45 1-1 1-1 .9-1 2 .623 2 1.384 2 1.594.806 1.852 1.792c.4 1.532 1.249 1.713 5.866 1.25 4.52-.454 5.348-.839 5.087-2.366-.469-2.753 1.683-4.676 5.234-4.676 5.127 0 8.56-2.08 8.57-5.191.008-3.093-1.525-4.372-4.743-3.957-1.237.16-2.25-.14-2.25-.667 0-1.319 6.35-2.164 7.126-.949.364.57 2.326.694 4.671.298 3.7-.625 4.073-.486 4.374 1.621.219 1.531 1.336 2.634 3.33 3.285 1.65.539 3.13 1.055 3.292 1.146.161.092-.482 1.791-1.43 3.778-.946 1.986-1.45 3.883-1.117 4.215.892.892 7.927-1.865 8.487-3.325.555-1.445 7.976-2.571 7.976-1.182 0 1.635-7.786 4.928-9.85 4.928-1.1 0-3.96 1.35-6.359 3s-4.811 3-5.363 3c-1.328 0-2.454 3.678-1.566 5.115.763 1.234 12.421.46 15.324-1.017.883-.45 3.044-1.089 4.804-1.422l3.199-.606-.43 10.715c-1.583 39.484-1.076 70.74 1.487 91.715.538 4.4 1.215 10.313 1.504 13.14.464 4.541 1.116 32.723 1.944 84.056.188 11.652.633 16.644 1.587 17.792 1.004 1.21 1.044 1.878.167 2.755-2.835 2.835-.034 15.758 3.416 15.758 1.69 0 1.883-2.145.333-3.694-.602-.602-.898-1.93-.657-2.95.367-1.565.61-1.434 1.545.833 1.87 4.533 4.732 5.245 19.884 4.95 10.158-.197 10.316-.439 10.216-15.643-.044-6.811.154-12.765.441-13.23.288-.464.839-6.002 1.226-12.306s.877-13.036 1.09-14.96.577-5.976.807-9c.23-3.026.81-9.326 1.292-14 .48-4.676.531-20.2.112-34.5-1.075-36.697-1.135-42.67-.46-45.5 1.475-6.18 2.663-25.789 2.393-39.5-.162-8.25-.224-20.138-.138-26.416.114-8.364-.201-11.772-1.18-12.75-1.02-1.02-1.092-2.106-.305-4.586 1.339-4.218 1.243-6.544-.35-8.464-.71-.856-1.342-2.057-1.404-2.67a156.44 156.44 0 0 0-.266-2.384c-.156-1.3-4.585-.765-6.652.805-1.182.897-10.264 1.982-16.17 1.931-2.293-.02-4.457.43-4.809.999-.99 1.601-6.192 1.221-7.997-.585-.89-.89-1.894-1.344-2.23-1.008-.336.335-1.154.158-1.82-.394-1.691-1.404-3.864 1.423-3.16 4.113.714 2.734.7 11.758-1.11 11.758-1.068 0-2.154-7.686-1.749-10.1 1.81-10.764 2.342-15.81 1.861-17.647-.354-1.355.017-2.293 1.065-2.696.885-.34 2.589-2.36 3.786-4.491 3.067-5.456 10.832-7.862 10.832-3.357 0 1.628 3.552 1.976 4.5.441.34-.55 1.492-1 2.56-1 2.11 0 2.647-2.445.789-3.593-1.412-.873 1.703-3.407 4.188-3.407.91 0 2.468-.9 3.463-2 1.897-2.096 5.5-2.735 5.5-.975 0 .564 1.09 1.439 2.421 1.945 1.785.679 2.281 1.455 1.888 2.957-.406 1.555.145 2.307 2.33 3.175 2.97 1.181 28.965 1.627 30.076.516 1.127-1.126 4.34-.64 4.868.738.286.745-.455 3.01-1.648 5.03-1.85 3.137-2.335 3.449-3.304 2.124-1.23-1.683-6.118-2.294-8.801-1.1-1.261.561-1.751.173-2-1.583-.305-2.155-.82-2.335-6.964-2.444-8.996-.159-13.613-1.136-16.921-3.582-3.392-2.508-5.418-2.103-13.315 2.66-3.23 1.946-6.316 3.54-6.859 3.54s-.724 1.047-.402 2.329c.509 2.029.104 2.448-3.142 3.25-2.751.68-3.81 1.508-4.045 3.169-.47 3.303 3.484 4.39 15.18 4.173 10.563-.196 18.776-1.833 21.49-4.282.907-.82 4.228-2.844 7.38-4.5 5.79-3.043 8.644-2.691 4.731.584-7.391 6.186-7.282 5.982-6.418 12.099.44 3.123.836 10.174.879 15.669l.077 9.99 4.626.206c5.958.265 12.856-4.291 12.906-8.524.03-2.493.12-2.546 1.426-.823 1.034 1.365 1.996 1.637 3.719 1.054 1.277-.433 2.918-.671 3.646-.53.845.164 1.207-.535 1-1.934-.18-1.225.338-2.505 1.177-2.905.825-.393 2.506-1.235 3.736-1.87 1.23-.635 4.24-1.155 6.687-1.155 4.29 0 4.462.117 4.764 3.25.305 3.169.419 3.241 4.563 2.914 4.692-.371 5.533.734 1.855 2.438-1.489.69-2.988.763-4.004.194-1.23-.688-1.823-.372-2.444 1.308-.696 1.883-.916 1.967-1.457.556-.784-2.042-4.526-2.107-7.148-.124-1.07.81-2.673 1.243-3.56.961-1.14-.361-2.017.519-2.99 2.995-.844 2.154-2.052 3.508-3.13 3.508-.965 0-2.046.471-2.402 1.048-.447.724-1.063.704-1.987-.063-1-.829-2.138-.698-4.482.514-3.822 1.976-2.957 3.535 3.064 5.522 3.253 1.074 4.992 1.11 8.472.18 2.408-.644 5.027-.922 5.82-.618.792.304 1.738.072 2.1-.515.364-.588 2.382-1.068 4.485-1.068 2.808 0 3.947-.468 4.284-1.758.253-.967 2.218-2.655 4.367-3.75 3.693-1.883 8.427-5.266 12.907-9.225 1.968-1.74 1.944-1.776-1.5-2.342l-3.5-.574 3-.814c1.65-.447 3.576-1.267 4.28-1.822.858-.677 2.01-.679 3.5-.005 1.22.552 3.12.65 4.22.217 4.75-1.87 9.629-.563 7.963 2.132-.422.683-1.069.494-1.82-.533-1.041-1.424-1.534-1.32-4.654.986-1.919 1.418-5.85 3.735-8.738 5.15-5.37 2.63-11.25 8.288-11.25 10.823 0 .778.777 1.85 1.728 2.383 1.637.916 1.637 1.069.006 2.872-1.224 1.353-1.85 4.203-2.161 9.832a535.714 535.714 0 0 1-1.144 15.677c-.619 6.8-.504 7.75.933 7.75 2.072 0 2.072.863-.003 3.156-1.318 1.456-1.8 5.313-2.448 19.579-.862 18.967-.456 77.463.612 88.266 1.742 17.625 1.921 24.22 1.238 45.476-.636 19.812-.53 23.183.769 24.483 1.884 1.884 5.058.2 4.798-2.545-.222-2.338 1.67-3.782 9.922-7.578 3.712-1.707 6.75-3.649 6.75-4.315s.963-2.068 2.141-3.116l2.142-1.905-.527 4.825c-.582 5.325-.718 5.196 6.494 6.162 4.754.636 6.674 2.513 2.57 2.513-3.979 0-8.82 2.306-8.82 4.2 0 1.572-.944 1.8-7.441 1.8-4.093 0-7.683.39-7.978.868-.295.478-2.684 1.156-5.309 1.507s-6.061 1.31-7.637 2.132-3.643 1.493-4.595 1.493-2.545.9-3.54 2-2.614 2-3.596 2-2.095.5-2.473 1.11c-.411.666-2.105.88-4.232.535-1.95-.317-5.544-.128-7.985.419-3.1.694-4.834.666-5.75-.093-2.07-1.718-25.077-3.151-29.898-1.863-2.237.598-4.517 1.413-5.067 1.81s-3.757.685-7.128.639c-4.198-.057-5.99.275-5.69 1.054.323.844-.766.863-4.207.076-3.49-.798-5.129-.76-6.596.156-1.578.986-2.37.926-4.138-.312-2.604-1.824-7.037-1.987-9.65-.355-1.525.952-2.218.84-3.644-.587-1.056-1.055-2.602-1.55-3.855-1.233-1.15.29-4.792 1.216-8.092 2.056s-7.61 1.271-9.578.957c-2.527-.402-4.043-.105-5.16 1.012-1.236 1.236-4.716 1.702-15.922 2.134-7.887.303-16.253.753-18.59 1-2.416.253-4.25.023-4.25-.534zm58.316-11.34c7.77-2.706 8.163-3.71 8.354-21.419.093-8.647.41-27.422.705-41.722.318-15.448.081-31.682-.584-40-1.634-20.428-1.836-23.273-2.207-31-.185-3.85-.834-15.1-1.442-25-.875-14.241-.759-61.775.164-66.917.29-1.618-13.007-1.92-18.306-.417-2.475.703-4.99 1.175-5.589 1.05-7.698-1.617-8.89 43.127-3.878 145.6.789 16.125 1.69 29.731 2.002 30.237.312.505.99 8.912 1.504 18.681 1.285 24.345 1.805 28.04 4.274 30.34 2.469 2.3 9.282 2.556 15.003.564zm-5.316-5.641c0-.55.45-1 1-1s1 .45 1 1-.45 1-1 1-1-.45-1-1zm0-175.56c0-.858.45-1.281 1-.941s1 1.041 1 1.559-.45.94-1 .94-1-.7-1-1.558zm99.792 175.26c.886-.695 1.657-.65 2.45.144 1.63 1.63 4.28 1.438 5.822-.42 1.176-1.417 1.478-1.355 2.96.61 1.471 1.95 1.89 2.04 3.85.828 2.95-1.824 3.66-5.221 2.362-11.305-1.128-5.285-.983-14.564.516-33.055.91-11.222.376-19.786-1.831-29.382-.967-4.202-.981-7.052-.063-13 1.398-9.061 1.267-6.387 1.655-33.618.277-19.388.072-23.008-1.723-30.487-2.265-9.431-2-19.517.797-30.335.918-3.554 1.457-9.786 1.382-16-.067-5.598-.066-11.044.003-12.101.07-1.058-.777-2.826-1.88-3.93l-2.007-2.006-4.293 2.204c-4.568 2.346-19.13 3.907-21.207 2.274-.597-.47-4.51-1.152-8.694-1.516l-7.61-.66-1.24 10.278c-.683 5.654-1.37 12.08-1.528 14.28-.158 2.2-.571 5.574-.918 7.5-1.377 7.635-1.463 32.466-.132 38 3.178 13.211 3.528 15.204 2.859 16.287-.39.63-.814 6.336-.943 12.68-.129 6.342-.447 18.957-.707 28.032-.26 9.075-.094 18.285.37 20.467.505 2.378.46 4.427-.11 5.115-.524.631-.894 2.67-.822 4.533.072 1.862-.348 7.21-.931 11.885s-1.173 13.9-1.309 20.5c-.206 10.008-.008 11.946 1.191 11.675.791-.179 1.558-.629 1.705-1s.684-1.337 1.195-2.146c1.454-2.301 2.208-.605 1.067 2.397-2.94 7.73 1.362 11.44 14.472 12.485 8.474.676 11.2.427 13.292-1.213zM249.41 354.84c0-1.1.45-2 1-2s1 .9 1 2-.45 2-1 2-1-.9-1-2zm11-98c0-.55 1.602-1 3.559-1 2.118 0 11.442-.451 11.075.144-.34.55-10.075 1.856-11.693 1.856s-2.941-.45-2.941-1zm-3-9c0-.55 1.125-1 2.5-1s11.49.022 11.49.572c0 .55-10.115 1.428-11.49 1.428s-2.5-.45-2.5-1zm-85.736-88.25c1.23-.688 2.564-1.7 2.964-2.25.9-1.238-.004-4.538-1.746-6.376-1.963-2.07-9.863 3.42-10.298 7.157-.292 2.511-.043 2.719 3.263 2.719 1.97 0 4.587-.563 5.817-1.25zm240.74 233.05c-1.925-.496-5.862-1.86-8.75-3.033-4.885-1.983-5.706-2.04-11.863-.816-11.045 2.195-13.854 1.87-21.387-2.476-1.582-.912-5.346-1.447-10.25-1.457-4.49-.009-7.75-.435-7.75-1.015 0-.55.852-1 1.893-1s2.128-.612 2.415-1.36c.29-.755 2.583-1.593 5.156-1.883 2.55-.287 4.913-.8 5.254-1.14.708-.71-1.914-9.396-8.64-28.617-.675-1.925-2.054-6.875-3.067-11l-1.842-7.5 2.276 2.842c1.252 1.563 3.735 7.413 5.519 13 1.783 5.587 3.646 10.94 4.14 11.895.492.955.896 2.616.896 3.69 0 1.076.383 2.192.852 2.482s1.89 4.253 3.161 8.809c2.655 9.52 3.112 10.273 7.494 12.353 3.028 1.437 3.508 1.39 7.612-.73 5.039-2.602 5.873-3.355 7.749-6.995 1.53-2.968.834-5.052-1.4-4.195-.808.31-1.468.118-1.468-.427s.864-1.216 1.92-1.493c1.644-.43 1.798-.987 1.068-3.866-2.27-8.954-2.038-8.253-5.481-16.527-.953-2.29-1.492-4.765-1.199-5.5.296-.742.569-.336.613.912.043 1.238.529 2.25 1.079 2.25s1 .675 1 1.5c0 .834.889 1.5 2 1.5 2.204 0 2.59-2.027.965-5.065-.678-1.266-.69-1.935-.036-1.935.55 0 1.532 1.013 2.182 2.25s1.79 2.61 2.535 3.05c.744.44 1.354 1.373 1.354 2.073s1.35 4.06 3 7.466 3.01 6.749 3.022 7.427c.012.679.902 2.36 1.978 3.734 1.31 1.677 1.963 4.082 1.978 7.301.02 4.56.203 4.877 3.625 6.307 5.082 2.123 8.809 1.515 9.236-1.507.186-1.32-.09-3.344-.616-4.5a181.558 181.558 0 0 1-2.09-4.85 150.23 150.23 0 0 0-2.301-5.25c-.643-1.373-.885-2.781-.538-3.128s1.143.665 1.769 2.248c3.344 8.463 5.153 11.521 7.43 12.558 2.035.927 2.839.831 4.331-.52 2.275-2.058 3.788-2.111 4.537-.158.656 1.71 2.448 1.908 4.639.515 1.31-.834 1.319-1.243.067-3.235-1.372-2.183-6.523-11.806-10.857-20.28-1.125-2.2-2.944-6.25-4.042-9-8.802-22.045-10.5-26.36-11.406-29-.567-1.65-1.42-3.782-1.896-4.737-1.087-2.18-1.09-2.764-.014-2.764.775 0 2.825 4.15 9.879 20a620.367 620.367 0 0 0 5.358 11.623c1.601 3.368 2.91 6.435 2.91 6.817 0 1.367 10.379 24.136 12.672 27.8 1.863 2.977 3.139 3.867 6.259 4.365 2.615.419 11.003-3.732 10.674-2.875-.333.866-10.515 6.185-16.255 6.42-8.06.332-8.661.515-11.281 3.448-2.35 2.63-3.658 3.173-8.668 3.6-3.246.275-7.476.095-9.4-.401zm-9-17.788c0-.545-1.41-4.145-3.134-8-2.353-5.263-3.627-7.009-5.113-7.009-1.627 0-1.881.49-1.427 2.75 2.028 10.089 3.767 13.25 7.289 13.25 1.312 0 2.385-.446 2.385-.991zm-61.75 9.352c-2.907-1.227-.866-2.361 4.25-2.361 3.025 0 5.5.45 5.5 1s-1.012 1.006-2.25 1.014c-1.238.008-3.15.207-4.25.444-1.1.237-2.563.193-3.25-.097zm109.75-3.411c0-.797-1.35-4.303-3-7.79s-2.99-6.637-2.977-7c.04-1.173 3.933 4.298 3.955 5.56.013.67.95 2.87 2.084 4.889 1.453 2.587 1.748 3.982 1 4.73s-1.062.633-1.062-.389zm-336.92-1.533c.048-1.165.285-1.402.604-.604.289.721.254 1.584-.079 1.916-.332.333-.568-.258-.525-1.312zm343-1c-29.417-79.167.285-1.402.604-.604.289.721.254 1.584-.079 1.916-.332.333-.568-.258-.525-1.312zm-345.41-5.084c-1.067-1.067-.768-10.333.333-10.333.55 0 1 2.475 1 5.5 0 5.562-.13 6.036-1.333 4.834zm212.87-3.583c-.277-1.237-.107-3.825.379-5.75.826-3.277.888-3.134.984 2.25.106 5.933-.481 7.44-1.363 3.5zm89.195-6.354c-.401-.401-.73-1.42-.73-2.263 0-1.125.297-1.237 1.113-.42.612.611.94 1.63.73 2.262-.211.633-.712.822-1.113.42zm27.736-3.464c-.873-1.687-1.37-3.6-1.105-4.25.265-.65.518-.394.561.568.044.963.477 1.75.962 1.75.486 0 1.099 1.125 1.362 2.5.632 3.31.144 3.154-1.78-.568zm-116.45-3.868c-.82-3.046 3.62-34.785 4.587-36.335 2.052-3.285-1.604 27.92-1.604 33.712 0 6.67-1.53 8.016-2.983 2.623zm12.941 1.386c-1.755-2.115.988-4.861 5.06-5.066 3.513-.177 4.09 2.304 1.153 4.961-2.291 2.073-4.548 2.111-6.213.105zm-223.34-8.7c1.044-6.876 1.95-7.267 3.03-1.308.988 5.449.961 5.558-1.334 5.558-2.19 0-2.3-.276-1.696-4.25zm293.46.401c-1.634-3.052-1.295-3.902.521-1.309.881 1.258 1.368 2.522 1.081 2.808-.287.287-1.007-.387-1.602-1.498zm27.169.129c-.688-.246-1.25-1.41-1.25-2.586 0-2.124.011-2.123 1.602.148 1.725 2.463 1.626 3.144-.352 2.438zm-51.566-6.28c-1.962-5.696-3.884-11.7-6.242-19.5-4.076-13.482-10.557-32.865-11.368-34-.393-.55-1.323-3.025-2.068-5.5-.745-2.475-1.726-4.927-2.18-5.45s-.826-1.54-.826-2.26c0-.722-.86-3.22-1.913-5.55-1.052-2.332-2.46-6.04-3.13-8.24-.67-2.2-1.534-4.45-1.92-5-.386-.55-1.304-3.608-2.04-6.797-.737-3.188-1.712-6.027-2.168-6.309-.456-.281-.83-1.56-.83-2.842s-.84-3.369-1.868-4.639c-1.734-2.14-2.159-2.221-5.866-1.11-2.199.658-5.695 1.197-7.77 1.197-4.103 0-6.41 2.008-6.463 5.628-.018 1.17.643 2.687 1.468 3.372s1.507 2.202 1.515 3.372c.018 2.663 2.34 7.187 3.567 6.952.505-.097 1.818-.47 2.918-.83 1.502-.491 1.289-.044-.854 1.797-2.332 2.002-2.667 2.802-1.827 4.371.566 1.057.974 2.577.908 3.38s.926 3.68 2.206 6.395c1.28 2.716 4.041 11.716 6.137 20 2.096 8.285 4.963 18.657 6.37 23.05 2.512 7.838 3.382 13.854 1.73 11.962-1.99-2.28-9.204-21.909-10.335-28.126-1.882-10.338-4.037-15.58-7.115-17.307-2.207-1.238-3.06-1.285-4.707-.256-1.918 1.198-2.013 1.017-2.013-3.817 0-2.791-.403-5.832-.895-6.759-.492-.926-1.21-8.884-1.598-17.684s-2.055-58.813-2.139-60.389c-.136-2.56 1.486 38.63 4.453 38.385 2.938-.242 11.057-5.452 12.013-7.708.183-.433.993-.787 1.8-.787s2.781-.68 4.389-1.512c2.762-1.428 3.288-1.339 9.556 1.623 6.053 2.86 7.301 3.095 14.277 2.692l7.644-.442.151 4.814c.14 4.455-.009 4.774-2 4.284-2.44-.6-10.572 4.9-9.65 7.114 90.982 218.79-1.744 1.462-2.35-1.573-.397-1.984-1.202-2.999-2.376-2.996-2.616.006-8.275 3.734-8.275 5.452 0 2.228 4.692 12.043 6.457 13.509.849.704 1.543 2.29 1.543 3.523s.9 3.387 2 4.785 2 3.018 2 3.6c0 .581.9 1.539 2 2.127s2 1.73 2 2.535.45 1.465 1 1.465 1 .863 1 1.917.563 2.144 1.25 2.42c1 .404 1 .521 0 .584-1.334.085-1.774 6.222-.535 7.46 1.165 1.166 3.193 9.826 3.241 13.839.024 2.046.842 5.196 1.818 7 .975 1.804 2.822 5.98 4.104 9.28s2.912 7.35 3.623 9c2.526 5.864 7.5 18.661 7.5 19.298 0 .356-.701-.353-1.557-1.575-1.979-2.825-3.28-2.816-4.376.027-.656 1.7-.994 1.884-1.384.75zm-25.15-109.04c1.316-1.454 2.59-1.874 4.449-1.466 1.93.424 3.184-.046 4.844-1.812 3.015-3.21 1.27-4.442-5.532-3.907-5.778.455-10.295 3.603-10.295 7.175 0 2.747 4.052 2.753 6.534.01zm-6.123-4.039c1.424-1.692 2.589-3.466 2.589-3.943 0-1.672-4.478-3.98-7.723-3.98-3.883 0-4.33 2.098-1.277 6 1.075 1.375 1.965 3.062 1.977 3.75.038 2.097 1.713 1.407 4.434-1.827zm-235.38 116.77c-.413-.416-2.034-13.97-2.034-17.565 0-4.569-1.946-17.119-1.21-16.383.582.583 3.178 14.736 3.011 18.192-.166 3.432.645 16.172.233 15.756zm286.04-12.28c.048-1.166.285-1.403.604-.605.289.722.253 1.584-.079 1.917-.332.332-.569-.259-.525-1.313zm-4.843-10.178c-1.167-2.49-1.14-2.571.367-1.065.896.896 1.464 2.109 1.263 2.695s-.935-.148-1.63-1.63zm-69.158-5.823c.048-1.165.285-1.402.605-.604.289.722.253 1.584-.08 1.917-.332.332-.568-.259-.524-1.313zm-216.46-8.644c-.467-4.25-.473-8.526-.012-9.5 1.003-2.12 1.682 5.05 1.183 12.478-.29 4.315-.398 4.043-1.17-2.978zm307.1 1.896c-1.114-2.833-.932-4.28.374-2.975.601.602.926 1.93.72 2.95-.36 1.79-.399 1.792-1.094.025zm-91.72-3.227c0-.858.45-1.281 1-.941s1 1.041 1 1.559-.45.94-1 .94-1-.701-1-1.558zm77.334-3.048c-.392-1.041-2.288-4.368-4.214-7.393s-4.316-7.643-5.31-10.261c-1.932-5.082-2.4-8.352-.805-5.623.976 1.669 5.492 1.507 6.569-.236.3-.484 1.023-.88 1.608-.88.7 0 .663.481-.108 1.41-1.328 1.6.194 3.16 1.996 2.046 1.703-1.052 2.793-4.84 1.762-6.122-.638-.794-.306-1.367 1.038-1.793 1.086-.345 3.528-2.346 5.426-4.447 4.892-5.415 5.795-5.797 5.064-2.144-.492 2.46-.275 3.05 1.122 3.05 1.169 0 1.535.514 1.125 1.581-.334.87 37.076 103.23-.607 3.509-.59-1.56-.265 1.761-1.975.693-1.668-1.042-2.207-.927-3.468.741-.821 1.087-1.507 2.777-1.525 3.757-.017.98-.707 2.04-1.532 2.357-2.365.907-1.762 3.869 1.496 7.357 1.648 1.764 38.37 83.12 38.065 83.613-.998 1.616-37.576-78.552-39.558-82.232-2.15-3.992-5.833-6.908-7.459-5.903-1.71 1.057-1.188 8.025.981 13.086 1.114 2.598 1.8 4.95 1.524 5.226-.276.276-.823-.35-1.215-1.392zm-77.139-6.893c.02-1.65.245-2.204.499-1.231s.236 2.323-.038 3c-.273.677-.48-.12-.46-1.77zm98.963-.5c24.401 64.55 28.48 72.977 28.758 73.664s-27.976-73.102-28.253-72.414-.99-2.537-.504-1.25zm-40.158-.06c0-.582.45-.78 1-.44s1 .816 1 1.059-.45.44-1 .44-1-.476-1-1.058zm-275.29-9.673c-.528-8.86-.369-11.351.652-10.184.765.875 1.437 19.917.702 19.917-.425 0-1.034-4.38-1.354-9.733zm216.22 3.233c-.314-.55-.654-2.33-.755-3.956-.133-2.123.977-8.644 1.756-7.865.596.596-.149 8.36-.1 9.949.854 28.184-.586 2.422-.9 1.872zm56.282-1.101c-.709-.77-.848-1.4-.309-1.4 1.039 0 2.542 1.903 1.95 2.466-.193.183-.931-.297-1.64-1.066zm38.868-1.983c.048-1.165.285-1.402.605-.604.289.722.253 1.584-.08 1.917-.332.332-.568-.259-.524-1.313zm-310.97-18.417c.045-4.153.125-4.29 1.04-1.787.669 1.826.653 3.296-.048 4.5-.828 1.422-1.03.869-.991-2.713zm262.03-3.05c-.746-1.685-1.095-3.326-.775-3.646.674-.674 2.843 4.58 2.418 5.855-.157.471-.896-.523-1.643-2.209zm26.918 1.155c-1.143-2.136 1.173-5.162 2.414-3.153.357.576 1.522 1.048 2.59 1.048 2.212 0 2.49 1.05.74 2.8-1.79 1.79-4.595 1.451-5.744-.695zm-290.48-10.658c-.35-1.396-.352-3-.004-3.563.349-.564.658-5.962.688-11.997.03-6.035.425-10.602.877-10.151.451.451.797 5.308.768 10.793-.03 5.484-.022 11.409.016 13.165.087 3.985.3 25.799-.556 22.389zm231.42-11.447c1.957-1.264 4-1.264 4 0 0 .55-1.237.993-2.75.985-2.142-.012-2.418-.23-1.25-.985zm36.08-6.583c23.04 58.583.284-1.402.604-.604.289.722-3.7-5.686-4.033-5.354-.332.333 21.115 55.334 21.158 54.28zm-251.58-2.417c.34-.55 1.041-1 1.558-1s.941.45.941 1-.701 1-1.559 1-1.28-.45-.94-1zm-3.5-5.598l-2.5-1.527 2.5.549c1.374.302 3.85.587 5.5.633 2.584.072 2.723.203 1 .943-2.819 1.211-3.667 1.133-6.5-.598zm-12-3.843c0-.857.45-1.559 1-1.559s1 .424 1 .941-.45 1.22-1 1.56-1-.084-1-.942zm1.078-4.142c.048-1.165.285-1.402.605-.604.288.722.253 1.584-.08 1.916-.332.333-.568-.258-.525-1.312zm210.42-1.417c-.729-1.18.217-3 1.56-3 .517 0 .94.9.94 2 0 2.11-1.455 2.691-2.5 1zm-211.07-3.11c-1.031-1.669-.737-19.638.408-24.89.54-2.475 1.295-9.112 1.679-14.75s.85-10.25 1.038-10.25c.644 0 5.443 4.73 5.443 5.365 0 .35-.648.635-1.44.635-.793 0-1.71.433-2.036.963-.89 1.439-2.596 22.162-2.745 33.337-.124 9.35-.797 12.098-2.347 9.59zm213.14-3.186c-.448-1.538-.535-3.076-.194-3.417 1.12-1.12 1.778.478 1.39 3.372l-.381 2.841zm-14.899-7.362c-1.027-1.027 1.36-3.342 3.447-3.342 2.348 0 2.391.89.128 2.608-2.006 1.523-2.653 1.656-3.575.734zm14.95-30.467c.09-5.112.552-22.156 1.66-22.156.603 0-.285 8.448-.285 14.781 0 5.775-.168 10.5-.375 10.5s-1.972 52.635-1-3.125zm-115.62-1.875c0-.55.675-1 1.5-1s1.5.45 1.5 1-.675 1-1.5 1-1.5-.45-1.5-1zm-3.5-1c-.34-.55-.168-1 .382-1s1.278.45 1.618 1 .168 1-.382 1-1.278-.45-1.618-1zm20-9c.34-.55.817-1 1.06-1s.44.45.44 1-.476 1-1.059 1-.78-.45-.44-1zm40.132-13.517c-.882-2.298 3.452-29.356 4.49-27.718 1.121 1.768-1.89 27.973-3.017 28.67-.646 4.906-1.155-.124-1.473-.952zm-115.59-10.4c-.846-1.58-2.084-2.083-5.138-2.083-2.428 0-3.779-.396-3.406-1 .774-1.253 6.772-1.316 8.05-.084.522.503 2.015 1.065 3.317 1.25l2.367.334-2.037 1.833c-1.982 1.783-2.068 1.776-3.153-.25z"/></svg>