<svg width="300" height="1500" viewBox="0 0 300 1500" xmlns="http://www.w3.org/2000/svg"><path d="M146.46 1459.6c-.87-3.244-.77-21.546.12-22.095.412-.255.787 5.119.832 11.941.045 6.822-.015 12.404-.134 12.404s-.486-1.012-.818-2.25zm-8.63-29.35c-3.025-.807-9.667-3.49-14.76-5.961-22.963-11.143-33.24-28.978-33.24-57.687 0-15.554 2.451-23.112 12.568-38.751 2.507-3.876 5.974-10.072 7.705-13.77 2.91-6.222 3.191-7.77 3.75-20.727.627-14.497 1.88-19.177 5.785-21.616 1.34-.837 1.71-2.312 1.588-6.332-.087-2.883-.686-6.229-1.332-7.436-.646-1.207-.907-3.04-.58-4.073.329-1.033.1-2.185-.506-2.56-1.316-.814 9.692-11.138 14.684-13.772 1.861-.982 6.749-2.321 10.86-2.976l7.478-1.19V660.13c0-381.52.334-573.27 1-573.27s1 191.79 1 573.36v573.36l4.64.637c2.55.35 6.488.636 8.75.636 3.738.001 16.61 5.018 16.61 6.474 0 .308-2.236-.573-4.968-1.958-6.046-3.064-7.165-3.195-3.648-.428 3.237 2.546 5.615 6.935 5.615 10.362 0 2.053-.487 2.55-2.5 2.55-1.375 0-2.5.45-2.5 1s.46 1 1.022 1 1.568 1.237 2.237 2.75 1.897 3.285 2.729 3.939c1.247.98 1.293 1.548.262 3.236-1.62 2.652-1.584 5.144.108 7.602 2.58 3.748 3.849 9.665 4.6 21.442.887 13.878 3.231 19.995 12.335 32.18 10.629 14.227 15.708 28.236 15.708 43.33 0 13.696-5.88 28.63-15.427 39.179-3.065 3.387-5.573 6.597-5.573 7.133 0 .537-.787 1.25-1.75 1.586s-3.55 1.953-5.75 3.594c-7.877 5.877-27.843 12.111-38.315 11.964-2.576-.036-7.16-.726-10.185-1.533zm28.765-8.553c17.45-5.385 31.562-16.696 38.38-30.765 1.756-3.62 3.87-7.912 4.7-9.537 2.267-4.438 2.68-16.945.802-24.276-1.915-7.475-6.866-17.882-10.672-22.432-7.121-8.514-12.099-15.032-10.926-14.307.969.599 1.085.32.467-1.117-3.551-8.256-4.842-14.073-5.584-25.164-.592-8.845-1.321-13.11-2.626-15.343-1.694-2.9-2.08-3.056-6.196-2.5-2.414.326-7.994.593-12.4.593h-8.009l.606 22.75c.653 24.495 1.883 32.424 6.06 39.042 3.694 5.85 8.714 9.204 13.816 9.23 2.374.012 6.23.89 8.567 1.95 3.383 1.537 4.25 2.45 4.25 4.479 0 3.58-3.838 3.395-10.77-.517-2.988-1.686-5.687-2.81-5.998-2.5-.31.311-.056.566.566.566 2.005 0 3.391 3.778 2.202 6-1.481 2.767-4.803 2.527-6.157-.444l-1.113-2.444-1.8 2.194c-1.7 2.07-1.9 2.097-3.537.487-1.636-1.61-1.812-1.61-3.064 0-1.242 1.595-1.43 1.576-2.876-.293-.904-1.169-1.424-3.455-1.25-5.5.252-2.977-.04-3.548-1.953-3.82-2.582-.366-2.945.998-.75 2.82 1.625 1.349 2.054 6.54.613 7.43-1.196.74-3.087-1.68-3.999-5.116-.624-2.354-1.35-2.865-4.43-3.125-4.223-.355-4.574.27-1.534 2.732 2.451 1.984 2.027 6.413-.714 7.465-2.272.872-5.436-1.12-5.436-3.421 0-2.46.173-2.48-5.44.657-7.368 4.118-16.56 2.376-16.56-3.138 0-3.15 2.022-3.819 13.448-4.442l9.949-.542 2.004-3.44c1.102-1.891 2.557-5.491 3.234-8 .676-2.508 1.26-3.553 1.297-2.32.037 1.23-.832 4.606-1.932 7.5-1.1 2.892-2 5.282-2 5.309-.005.49 8.105-.97 9.682-1.744 1.24-.608 2.968-.721 4-.262 2.132.949 14.653 3.33 15.172 2.884.195-.167-1.296-1.754-3.314-3.526-8.403-7.377-10.506-16.118-11.407-47.402l-.634-22-4.75-.304-4.75-.305-.198 7.305-.199 7.305-.345-7.25-.345-7.25-7.706.01c-11.641.018-15.07.817-16.622 3.878-.812 1.6-1.516 7.846-1.819 16.124-.42 11.502-.88 14.466-3.083 19.922-1.424 3.525-2.316 6.851-1.981 7.392.334.54.135.691-.443.334-.577-.357-1.316.047-1.643.898-.39 1.02-.171 1.328.646.907.68-.351.16.239-1.156 1.311-1.583 1.29-2.121 2.42-1.59 3.337.443.763.435 1.052-.016.643-1.073-.972-3.806 2.94-2.984 4.27.348.563.084.9-.587.749-.67-.151-3.291 3.697-5.824 8.552l-4.605 8.827v13.673c0 16.944 2.088 24.765 9.099 34.092 7.036 9.361 21.602 18.743 35.195 22.67 6.25 1.806 20.192.968 28.97-1.741zm-23.765 1.12c-1.614-.54-.55-.633 3-.266 3.025.313 5.687.734 5.916.934.802.701-6.439.158-8.916-.669zm-7-1.967c-1.828-1.182-.25-1.182 2.5 0 1.318.566 1.489.878.5.914-.825.03-2.175-.381-3-.914zm-10.593-5.898c-3.8-2.694-9.157-7.284-11.907-10.2-4.707-4.99-4.593-4.93 1.944 1.045 3.819 3.49 9.626 8.08 12.904 10.2s5.512 3.852 4.963 3.852c-.549 0-4.106-2.203-7.905-4.897zm37.593-3.239c10.305-2.203 15.18-4.158 20.929-8.39 7.322-5.39 8.062-5.093 1.073.43-5.861 4.634-13.316 7.606-21.002 8.373-5.497.55-5.498.55-1-.413zm-11.371-.654c-.27-.435 1.054-.611 2.94-.391s3.43.576 3.43.791c0 .753-5.886.383-6.37-.4zm.46-4.719c.873-.878 5.373-2.253 10-3.057 12-2.084 14.618-3.144 19.256-7.798 3.932-3.946 4.004-3.975 1.571-.635-3.377 4.636-9.748 7.685-18.916 9.054-4.125.616-8.85 1.775-10.5 2.576-2.746 1.333-2.866 1.321-1.411-.14zm-45.685-9.74l-1.905-2.25 2.25 1.905c1.238 1.047 2.25 2.06 2.25 2.25 0 .8-.805.209-2.595-1.905zm83.595.872c0-.208.788-.995 1.75-1.75 1.586-1.244 1.622-1.208.378.378-1.307 1.665-2.128 2.195-2.128 1.372zm-89.376-8.161c-.965-2.515-.68-3.164.499-1.136.583 1.003.85 2.035.593 2.293-.258.257-.749-.263-1.092-1.157zm-2.461-6.004c-1.675-3.677-1.356-4.462.456-1.119.846 1.561 1.351 3.026 1.122 3.254s-.939-.732-1.578-2.135zm93.838-11.887c0-.275.906-.985 2.013-1.578 1.45-.776 2.5-.765 3.75.04 1.615 1.04 1.61 1.078-.085.546-1.003-.314-2.69-.108-3.75.46-1.06.567-1.928.807-1.928.532zm2-6.54c0-.532.675-.709 1.5-.392s1.5.752 1.5.968c0 .217-.675.393-1.5.393s-1.5-.435-1.5-.968zm-.986-12.445c.648-.648 1.324-.648 1.972 0 .647.647.31.986-.986.986s-1.633-.339-.986-.986zm-48.597-38.086c0-10.45.147-14.861.328-9.802.181 5.059.182 13.609.002 19-.18 5.39-.328 1.252-.33-9.198zm-2.327 42.892c1.134-1.367 1.049-1.818-.568-3-2.62-1.915-4.521-1.743-4.521.408 0 1.783 1.77 4.2 3.077 4.2.373 0 1.278-.724 2.012-1.608zm-11.976-1.576c2.138-1.201 3.887-2.551 3.887-3 0-.449-3.405-.816-7.566-.816-10.064 0-14.408 2.26-9.184 4.78 3.64 1.755 8.7 1.376 12.864-.964zm43.59.573c.204-.61-.78-1.864-2.185-2.785-2.279-1.493-2.619-1.507-3.149-.126-.326.851-.022 2.236.676 3.078 1.395 1.68 4.075 1.584 4.658-.167zm-23.108-4.221c-1.958-1.959-2.187-.107-.39 3.148 1.114 2.015 1.237 2.04 1.597.316.214-1.028-.329-2.587-1.207-3.464zm6.995 1.338c-.357-1.423-1.086-2.318-1.62-1.988-1.395.862-1.197 4.235.28 4.762 1.815.648 2.068.125 1.34-2.774zm7.253 1.055c.556-2.868-1.343-3.92-3.389-1.875-1.755 1.752-1.796 1.738-1.23-.436.404-1.545.147-2.25-.818-2.25-2.06 0-1.719 2.04.786 4.705 2.436 2.593 4.13 2.54 4.651-.144zm22.156-.376c0-1.299-6.806-4.188-9.784-4.154-2.617.03-2.571.12 1.284 2.495 3.896 2.4 8.5 3.298 8.5 1.66zm-20.317-2.373c-.32-.797-.556-.56-.604.605-.044 1.054.193 1.645.525 1.312.332-.332.368-1.195.079-1.916zm11.317-83.965c.966-.6-.46-.698-4-.277-3.025.359-6.175 1.071-7 1.583-.966.598.46.697 4 .277 3.025-.36 6.175-1.072 7-1.583zm-13-1.818c11.598-1.905 12.307-2.122 11.048-3.38-.8-.8-8.212-1.15-24.349-1.15-12.76 0-24.099-.413-25.199-.919-1.98-.91-1.98-.897-.074 1.274 1.477 1.681 1.652 2.467.75 3.37-.647.646-1.176 1.602-1.176 2.124 0 1.186 29.905.175 39-1.319zm-31.25-1.735c1.238-.238 3.263-.238 4.5 0 1.238.238.225.433-2.25.433s-3.487-.195-2.25-.433zm19.514-.012c1.52-.23 3.77-.224 5 .014 1.23.237-.014.425-2.764.418-2.75-.01-3.756-.202-2.236-.432zm10.467-.938c.677-.274 2.027-.291 3-.037s.419.477-1.231.498c-1.65.02-2.446-.187-1.769-.461zm6.019-1.007c.688-.277 1.813-.277 2.5 0s.125.505-1.25.505-1.937-.227-1.25-.505zm-17.25-4.395c-5.012-1.036-16.187-1.004-19.5.057-1.52.487 2.598.795 10.5.785 9.447-.01 11.907-.241 9-.842zm23.5-.923c0-1.943-14.716-4.007-21.5-3.017l-5 .73 4.5.18c2.475.1 7.425.781 11 1.515 8.196 1.682 11 1.833 11 .592zm-43.083-2.66c.23-.198-2.133-.36-5.25-.36s-5.667.43-5.667.953c0 .86 9.856.324 10.917-.593zm42.958-4.984c3.895-.78 3.979-2.676.283-6.371-4.366-4.366-16.572-6.637-25.158-4.68-2.677.61-3.147.533-2-.323 1.148-.857.443-.972-3-.492-7.302 1.02-13.381 3.324-17.057 6.466-3.173 2.712-3.266 2.946-1.193 2.984 1.238.022 2.25-.326 2.25-.774 0-.925 7.034-4.485 7.648-3.871.742.742-.852 3.685-2.005 3.7-.628.01-.468.452.357.986s4.425 1.015 8 1.072c3.575.057 8.75.453 11.5.882 6.48 1.009 16.408 1.214 20.375.42zm-34.375-8.912c1.65-.755 3.675-1.36 4.5-1.342.825.017-.075.637-2 1.379-4.566 1.758-6.362 1.732-2.5-.036zm-81.5 181.66c0-1.658 2.523-2.94 12.847-6.527 5.69-1.977 10.528-3.595 10.75-3.595.222 0 .403.863.403 1.917 0 1.55-2.067 2.606-10.752 5.5-11.245 3.747-13.248 4.156-13.248 2.705zm170.56-7.88c-13.75-8.048-17.839-11.242-14.391-11.242 1.221 0 24.239 12.132 29.576 15.59 2.412 1.562 3.06 4.416 1 4.401-.687 0-7.971-3.942-16.185-8.75zm-172.35-67.204c-10.319-2.71-12.967-4.018-11.835-5.85.556-.9 4.266-.17 19.866 3.909 3.384.885 4.959 3.096 3 4.213-.412.235-5.376-.787-11.031-2.272zm166.78-2.038c0-1.1.49-2 1.089-2 .598 0 3.347-1.975 6.107-4.39 5.874-5.138 15.593-10.22 16.95-8.863 1.647 1.647-.17 3.944-4.037 5.102-2.083.624-5.724 2.601-8.092 4.393-11.6 8.777-12.017 8.977-12.017 5.758zM150.868 83.95c-.613-1.146-2.603-2.177-4.974-2.577-5.934-1.003-14.532-7.73-18.374-14.375-1.514-2.62-1.553-3.018-.25-2.518 1.05.403 1.563-.004 1.591-1.263.05-2.238 3.851 4.27 3.917 6.706.04 1.5 6.042 8.058 6.042 6.601 0-.39 1.19.07 2.646 1.024 1.455.954 3.512 1.866 4.57 2.027 1.526.233 1.02-.893-2.457-5.46-4.473-5.876-7.773-13.684-7.764-18.37.007-3.9 3.574-7.885 7.057-7.885 2.364 0 3.272.716 4.865 3.839 1.923 3.769 5.073 18.945 5.08 24.47.001 1.617.427 2.546 1.002 2.19.55-.34 1-2.41 1-4.6 0-5.263 2.788-18.589 4.637-22.164 1.728-3.341 3.454-4.18 6.847-3.329 2.855.717 5.52 5.217 5.507 9.294-.015 4.186-4.304 12.6-9.046 17.744-4.547 4.933-4.013 5.652 1.94 2.614 4.345-2.216 9.729-7.96 11.697-12.48.737-1.693 1.358-2.468 1.38-1.721.022.789.666 1.116 1.538.781 2.372-.91 1.793.627-2.486 6.603-4.18 5.837-9.677 9.343-16.346 10.425-2.28.37-3.667 1.222-3.988 2.45-.643 2.46-4.31 2.442-5.632-.026zm-.902-16.365c-2.132-10.437-3.728-14.47-6.377-16.116-2.758-1.712-5.29 1.556-5.174 6.677.118 5.197 2.857 10.691 8.55 17.15 5.3 6.01 5.63 5.16 3.001-7.71zm10.365 8.025c5.288-6.129 8.49-12.923 8.49-18.017 0-4.664-1.308-6.733-4.257-6.733-2.417 0-5.296 6.482-7.173 16.145-2.917 15.03-2.828 15.29 2.94 8.605z"/></svg>