<svg width="412" height="480" viewBox="0 0 412 480" xmlns="http://www.w3.org/2000/svg"><path d="M291.41 477.12c-22.227-3.783-41.096-10.868-57.254-21.499-6.424-4.226-8.397-5.048-11.5-4.791-3.028.25-3.684.67-3.423 2.184.292 1.703-.12 1.804-4.5 1.107-2.653-.423-6.173-.704-7.823-.626-1.65.078-10.875.563-20.5 1.078-18.745 1.002-25.889.494-38.5-2.74-10.826-2.774-20.129-4.87-25.25-5.69-5.514-.881-5.71 1.037-.25 2.457 2.2.572 5.74 1.49 7.866 2.04s4.8 1 5.941 1 2.39.509 2.774 1.131c1.24 2.007-12.425-.021-21.94-3.257-4.872-1.656-13.197-5.05-18.5-7.54-5.302-2.491-10.654-4.924-11.89-5.407-2.752-1.073-2.842-3.348-.392-9.798 4.122-10.848 11.671-16.405 22.335-16.442l5.694-.02-1.544-3.584c-6.325-14.68-10.167-32.618-10.564-49.33-.21-8.838-.602-11.747-1.582-11.75-.716-.002-5.235 3.934-10.04 8.747-12.32 12.335-25.848 33.229-30.108 46.5-.662 2.062-1.54 3.75-1.952 3.75-.411 0-4.184 2.944-8.385 6.543-9.114 7.807-13.132 8.81-23.744 5.926a3185.15 3185.15 0 0 0-12.967-3.488c-6.237-1.661-6.569-1.908-8.196-6.106-1.943-5.015-2.298-13.444-.739-17.546 2.256-5.932 7.193-8.466 15.761-8.086 10.668.473 15.052-5.13 20.53-26.243 1.927-7.425 4.403-15.975 5.503-19l2.001-5.5.07 7.201c.182 18.698-8.303 40.893-19.316 50.522-3.737 3.268-5.522 3.424-8.887.777-1.398-1.1-3.406-2-4.46-2-2.744 0-6.253 4.136-6.902 8.137-.48 2.964-.197 3.615 2.117 4.853 1.47.787 3.106 2.24 3.635 3.23.704 1.315 1.642 1.628 3.488 1.164 1.896-.476 3.194.004 5.21 1.928 4.898 4.672 12.923 5.993 21.685 3.571 4.606-1.273 5.743-2.56 4.43-5.013-1.501-2.806-1.09-3.87 1.497-3.87 1.967 0 2.933-1.067 5.089-5.625 1.464-3.094 3.314-7.482 4.113-9.75.798-2.269 3.394-6.15 5.767-8.625s7.898-9.225 12.274-15 10.266-13.531 13.087-17.236l5.13-6.736-2.389-6.764c-2.104-5.96-3.633-12.224-6.533-26.764-1.324-6.643-2.03-28.525-1.168-36.196.7-6.227.575-7.396-.926-8.682-2.152-1.842-1.09-7.278 1.34-6.858 1.144.198 1.698-1.059 2.206-5 .373-2.895 1.164-6.839 1.757-8.764 2.288-7.422 4.015-12.579 4.859-14.5.482-1.1 1.578-3.756 2.435-5.903s1.794-3.668 2.082-3.38c.287.288-.336 2.72-1.385 5.403-4.983 12.741-9.122 34.906-9.875 52.88-.922 21.998 4.78 50.025 12.776 62.806l3.007 4.806 5.962-4.982c10.952-9.151 23.889-14.747 32.23-13.942 2.785.27 2.066.703-5.177 3.127-11.186 3.744-17.257 6.92-21.681 11.344-11.201 11.201-11.712 31.975-1.296 52.67 9.505 18.885 23.93 33.672 32.848 33.672 1.672 0 3.04.45 3.04 1s-1.013 1.01-2.25 1.022l-2.25.023 2.5 1.975c1.375 1.087 5.079 2.934 8.23 4.105 5.48 2.036 7.148 4.689 2.16 3.437-1.314-.33-2.39-.164-2.39.369s2.7 1.5 6 2.149c8.315 1.636 7.656 3.92-1.132 3.92-4.564 0-8.356-1.726-11.733-5.341-1.908-2.044-2.703-2.32-4.12-1.435-2.181 1.361-5.216-.672-16.5-11.056-8.99-8.272-14.11-11.167-19.752-11.167-4.007 0-9.762 2.352-9.762 3.99 0 1.29 2.793 2.619 7.153 3.405 2.01.363 3.908 1.322 4.219 2.132.72 1.878-.704 1.87-4.372-.028-4.013-2.075-12.408-.332-14.613 3.033-2.386 3.64-1.43 6.582 2.613 8.037 20.725 7.462 22.88 8.164 36.824 11.985 16.194 4.438 33.307 6.644 50.676 6.535 15.167-.096 21.737-.857 21.226-2.46-.43-1.346-6.208-4.35-9.726-5.055-3.467-.695-27.215-18.808-30.196-23.031-2.795-3.96 5.738.568 16.408 8.706 15.115 11.528 25.315 16.306 37.186 17.42l6.898.646-.687-2.74c-.378-1.506-2.251-5.011-4.162-7.79-3.48-5.058-5.184-9.38-4.119-10.446.313-.312 2.365 2.296 4.562 5.797 5.749 9.162 8.235 12.14 9.27 11.104.493-.493 1.348-3.703 1.9-7.133.98-6.078 2.646-10.107 4.181-10.107 1.181 0 .907 1.97-1.253 9-2.498 8.131-1.92 10.925 3.225 15.573 8.179 7.389 25.278 12.89 43.768 14.082 10.08.65 10.328.72 6.5 1.848l-3.98 1.173 4.5 1.327c5.11 1.506 23.796 1.874 37.874.744 8.342-.669 9.235-.583 8.108.775-1.98 2.384-.525 2.807 5.05 1.47 4.263-1.023 5.055-1.553 4.647-3.114-.603-2.302 3.578-5.879 6.872-5.879 3.068 0 16.581-9.147 20.114-13.616 1.56-1.972 6.079-6.875 10.044-10.896 4.18-4.24 7.47-8.503 7.831-10.149.343-1.56 1.068-4.02 1.612-5.466 1.509-4.007 2.526-21.553 1.674-28.866-1.346-11.545-4.29-21.116-12.307-40.007-7.22-17.01-9.04-22.568-10.574-32.282-2.217-14.035.85-29.647 6.093-31.018 2.404-.628 2.413-.891-.16 4.967-1.478 3.368-2.273 7.72-2.622 14.36-.571 10.851 1.625 21.201 8.642 40.731 7.341 20.431 10.102 25.903 10.102 20.019v-2.222l1.49 2.126c2.889 4.125 4.48 14.394 4.496 29.01.009 8.398-.394 14.443-.986 14.809-.55.34-1.01 2.054-1.02 3.809-.03 4.392-5.351 19.758-7.349 21.219-.897.655-1.63 2.2-1.63 3.43 0 3.458-2.95 8.869-6.028 11.062-3.335 2.374-3.973 2.451-3.973.48 0-.825-.276-1.5-.615-1.5s-4.4 3.582-9.025 7.96c-9.673 9.157-18.08 13.722-28.86 15.67-8.895 1.607-35.693 1.519-45.5-.15zm.5-32.48c-13.832-2.033-23.38-7.751-27.888-16.7-2.916-5.79-1.402-16.03 1.958-13.242.786.653 1.43 2.514 1.43 4.135 0 4.099 8.178 15.355 12.865 17.71 8.62 4.33 24.904 5.883 35.62 3.398 9.258-2.146 19.82-7.709 25.888-13.635 5.672-5.537 11.627-15.852 11.627-20.138 0-1.58.562-2.528 1.5-2.528.825 0 1.5.675 1.5 1.5 0 3.33 2.016 1.185 3.461-3.682 1.924-6.478 1.94-12.025.066-22.675-1.4-7.955-5.587-23.364-7.511-27.643-.495-1.1-1.21-3.567-1.588-5.482-.379-1.916-1.478-5.966-2.442-9-.965-3.035-2.04-6.755-2.389-8.268s-1.283-2.75-2.076-2.75c-2.959 0-3.907-7.136-2.689-20.237 1.333-14.338 3.608-22.96 8.708-33.002 12.8-25.203 32.003-36.959 47.96-29.36 9.627 4.583 11.293 7.582 2 3.599-8.819-3.78-17.065-2.059-24.292 5.071-1.81 1.787-5.821 7.09-8.913 11.783-3.091 4.695-7.278 10.135-9.304 12.09-2.426 2.342-4.563 5.945-6.262 10.555-5.72 15.532-6.143 25.214-1.683 38.638 1.788 5.38 2.828 10.241 2.518 11.765-.578 2.84 1.714 11.682 5.858 22.597 8.578 22.596 8.697 43.473.328 57.623-6.328 10.701-21.448 21.704-35.492 25.83-7.854 2.307-22.402 3.275-30.758 2.047zm-34.483-8.604c-5.107-4.613-9.406-12.16-11.621-20.396-.961-3.575-2.135-7.016-2.609-7.646-1.122-1.496-4.208-.65-6.377 1.746-1.873 2.07-4.41 2.544-4.41.825 0-.592 1.183-2.054 2.629-3.25 6.873-5.684 7.37-6.415 6.723-9.866-.342-1.82-2.14-9.303-3.994-16.63-1.855-7.328-4.033-17.404-4.84-22.392-.807-4.988-1.728-9.33-2.048-9.65s-2.693-.7-5.275-.844c-5.381-.303-13.107-2.148-14.945-3.57-2.657-2.056-.952-2.723 7-2.738 11.212-.021 11.668-.395 9.369-7.683-6.277-19.898-10.671-28.833-30.784-62.599-3.21-5.388-5.836-10.056-5.836-10.372 0-2.41 10.5 11.993 18.167 24.921 10.246 17.276 18.35 36.16 21.32 49.683.494 2.254 1.17 2.959 2.674 2.79 1.887-.21 2.032.434 2.322 10.276.217 7.39 1.075 13.314 2.898 20l5.586 20.5c1.65 6.05 3.006 11.309 3.016 11.687.01.377 1.38.827 3.043 1 3.309.342 4.156 2.106 1.278 2.66-2.948.568-3.197 1.39-2.146 7.094 1.24 6.724 4.771 13.841 10.48 21.121 2.4 3.06 4.363 5.872 4.363 6.25 0 1.563-2.227.477-5.983-2.916zm14.006-15.396c-.012-1.375.677-5.848 1.531-9.94 3.612-17.315 5.023-53.129 2.563-65.06-3.24-15.71-6.534-23.177-13.428-30.435l-4.811-5.065.621 7.25c.711 8.294-.57 9.614-3.127 3.223-.886-2.215-2.542-4.679-3.68-5.475-1.835-1.286-2.155-2.93-2.844-14.592-.917-15.535-3.463-26.288-8.854-37.406-4.72-9.733-8.53-14.63-9.843-12.647-1.286 1.94-3.953.274-9.59-5.996-8.76-9.743-8.394-12.306.473-3.316 4.149 4.207 5.976 5.415 7.584 5.014 2.53-.63 10.38 7.157 14.762 14.643 3.776 6.452 8.159 19.743 10.273 31.154 1.419 7.658 2.34 10.175 4.696 12.837 1.612 1.821 4.455 5.671 6.318 8.556 1.863 2.884 5.4 7.715 7.86 10.736 2.46 3.02 4.473 6.146 4.473 6.946 0 .8.403 1.704.895 2.009 2.241 1.385 4.38 19.33 4.358 36.565-.027 21.814-3.829 45.223-8.282 51l-1.927 2.5-.02-2.5zm-84.57-83.815c-8.531-8.412-10.668-9.996-14.953-11.084-6.917-1.754-9.5-2.876-9.5-4.125 0-1.475 6.08-.272 13.545 2.681 7.148 2.828 14.983 9.373 19.331 16.15 6.035 9.405 3.823 8.453-8.422-3.622zm-105.83 6.066c.362-1.513 1.045-3.508 1.519-4.435s.862-3.037.862-4.69c0-3.29 1.464-4.964 2.341-2.677 1.293 3.367-2.079 14.552-4.386 14.552-.576 0-.717-1.155-.336-2.75zm-33.869-18.828c-2.241-2.259.255-23.883 5.685-49.245 1.738-8.118 5.434-19.907 8.748-27.905 2.159-5.21 2.16-5.258.373-14.5-2.415-12.49-3.157-32.286-1.565-41.72 1.117-6.62 1.696-7.87 5.214-11.25 2.177-2.092 4.327-3.803 4.779-3.803s1.29-1.345 1.862-2.989c1.4-4.016 5.722-10.139 12.795-18.128 3.319-3.748 7.797-10.468 10.33-15.5 2.46-4.885 6.909-13.158 9.887-18.383 2.979-5.225 6.069-10.752 6.867-12.28s3.23-5.355 5.404-8.5 5.022-7.294 6.329-9.22c4.685-6.9 10.187-12 12.948-12 1.45 0 5.477-1.287 8.948-2.86 8.614-3.906 10.645-7.253 10.645-17.536 0-6.492.446-8.533 2.92-13.382 3.88-7.601 6.122-10.48 16.904-21.7 5.015-5.217 10.011-11.239 11.104-13.38 2.633-5.161 6.144-6.435 11.275-4.093 5.29 2.414 9.216 13.452 10.313 28.995 1.22 17.289 2.547 19.207 19.204 27.763 8.13 4.176 11.06 6.322 15.27 11.18 2.865 3.307 5.779 6.012 6.475 6.012 3.242 0 6.316 4.091 7.943 10.57 1.377 5.48 1.545 9.317.973 22.145l-.693 15.518-3.343 1.397c-3.796 1.586-3.92 2.057-1.844 7.025 2.427 5.81 1.97 8.639-1.75 10.821-1.787 1.049-7.664 5.29-13.06 9.426l-9.81 7.52-9.335.04c-7.449.03-9.726.392-11.27 1.789-2.583 2.338-3.555 2.207-2.738-.369.924-2.91-1.312-2.063-3.976 1.505-1.935 2.591-2.066 4.163-2.143 25.694l-.081 22.934 2.72 4.743c1.496 2.609 4.613 6.886 6.927 9.505 3.775 4.274 3.94 4.66 1.604 3.772-4.81-1.829-8.073-3.827-10.513-6.439-3.483-3.728-6.072-3.45-6.091.655-.018 3.761-1.314 6.282-2.769 5.384-.666-.412-.68-1.895-.042-4.378.531-2.066 1.21-4.755 1.507-5.977.422-1.731-1.26-4.314-7.625-11.715-4.492-5.221-10.407-10.945-13.145-12.719-3.1-2.009-4.78-3.74-4.455-4.59.331-.862-.578-1.75-2.466-2.408-3.416-1.191-3.975-2.847-.961-2.847 3.975 0 14.547 6.368 21.14 12.733 3.684 3.557 7.159 6.183 7.721 5.835.564-.348.93-3.535.817-7.097-.168-5.256-.515-6.465-1.857-6.468-1.167-.002-2.012-1.542-2.885-5.253-1.88-8-7.426-18.93-12.975-25.57-2.744-3.285-4.99-6.244-4.99-6.576 0-1.625 2.613-.233 5.694 3.034 2.375 2.518 3.75 3.317 4.47 2.597.72-.72 1.669-.531 3.081.613 6.786 5.496 8.837 7.633 9.372 9.764.868 3.456 2.136 2.937 3.33-1.362 2.38-8.571.893-17.02-7.243-41.139-4.45-13.19-5.85-18.515-4.954-18.833.873-.31 1.25-3.121 1.25-9.313 0-9.104 1.129-13.415 3.778-14.432 2.41-.925 2.444-.127.272 6.32-3.227 9.577-2.869 14.184 2.421 31.148 4.998 16.028 6.51 22.51 7.166 30.75.362 4.537.972 8.25 1.355 8.25 1.139 0 3.72-3.33 4.457-5.75.714-2.344 2.964-3.01 4.078-1.206.355.574.092 1.71-.583 2.524-.676.814-.986 1.723-.689 2.02.297.298 4.346.593 8.997.657 7.489.102 8.982-.192 13.037-2.569 7.127-4.176 10.096-9.422 11.207-19.798.68-6.35.773-6.51 5.666-9.916 2.736-1.905 6.406-4.663 8.156-6.131l3.182-2.669-2.25-2.395c-2.761-2.94-2.767-3.343-.144-9.275 1.573-3.554 1.943-5.805 1.461-8.877-1.325-8.445-4.79-15.594-8.529-17.595-1.585-.848-2.044-.297-3.524 4.227-2.008 6.139-5.923 11.379-11.274 15.086-6.027 4.177-20.147 7.244-21.709 4.716-.829-1.34 2.767-3.05 6.417-3.05 1.693 0 3.86-.41 4.816-.913.955-.502 4.346-2.121 7.537-3.598 4.058-1.879 6.58-3.864 8.396-6.608 1.428-2.157 2.372-4.145 2.098-4.419-.523-.523-8.579 1.342-20.295 4.699-18.093 5.184-24.835 11.511-24.676 23.154.09 6.524-1.754 5.665-4.048-1.885-1.666-5.485-1.687-6.446-.285-12.817 2.35-10.677 6.916-16.373 16.26-20.285 4.848-2.03 16.813-1.958 20.806.124l2.943 1.535-6 .018c-11.666.035-24.012 5.22-27.55 11.57-2.053 3.683-3.441 9.425-2.28 9.424.457 0 2.773-2.257 5.148-5.014 5.16-5.992 9.333-8.205 18.682-9.908 11.963-2.178 18.807-4.16 21.846-6.324 2.803-1.996 2.846-2.141 1.04-3.5-9.657-7.258-29.22-12.54-34.377-9.28-1.305.825-1.272 1.313.266 3.916.988 1.672 1.349 3.225.824 3.55-1.623 1.002-5.886-1.231-8.123-4.258-1.233-1.667-3.835-3.422-6.068-4.09-4.096-1.228-5.423-4.091-1.895-4.091 1.108 0 2.893-.549 3.966-1.22 1.668-1.041 2.36-.83 4.739 1.45 2.6 2.49 3.086 2.6 7.284 1.64 2.474-.565 6.635-.752 9.248-.415 2.852.369 4.75.222 4.75-.366 0-.54-3.057-2.587-6.794-4.55-8.774-4.611-10.2-7.008-10.226-17.193-.024-9.522-1.393-19.52-3.562-26.015-1.76-5.266-5.866-10.331-8.377-10.331-3.143 0-8.717 5.966-12.989 13.903-2.704 5.023-6.408 10.035-9.762 13.207-7.001 6.622-10.29 11.89-10.29 16.487 0 4.011.215 4.042 7.196 1.02 4.745-2.053 6.168-.263 1.704 2.142-4.525 2.439-10.9 8.204-10.9 9.857 0 1.85.986 1.754 7.194-.693 7.23-2.849 14.678-4.088 18.305-3.045l3 .863-3 .79c-4.242 1.116-9.947 4.201-12.035 6.507-1.856 2.052-5.465 2.687-5.465.962 0-2.294-4.137-.69-10.118 3.922-3.51 2.707-7.646 5.237-9.19 5.623-1.545.386-4.02 2.03-5.5 3.655l-4.984 5.464c-1.784 1.955-2.596 2.26-3.663 1.373-1.91-1.585-5.475 2.39-11.174 12.463-2.49 4.4-5.166 8.36-5.948 8.8-.783.44-1.423 1.53-1.423 2.421s-.585 2.332-1.3 3.2c-.716.87-1.866 3.817-2.556 6.552-1.52 6.023-1.94 6.525-3.586 4.276-1.84-2.517-2.236-2.265-4.51 2.879-2.51 5.671-2.51 5.654-.048 4.873 3.285-1.043 2.331.83-4.123 8.101-3.368 3.794-7.836 9.149-9.929 11.898-8.734 11.48-12.44 16.212-15.604 19.93-2.424 2.85-3.347 4.912-3.355 7.5-.006 1.964-.665 5.728-1.465 8.366-.8 2.637-1.197 6.09-.88 7.673.445 2.227.099 3.175-1.534 4.195-2.378 1.485-2.629 5.216-1.46 21.683.617 8.688.766 9.153 2.943 9.153 1.262 0 2.994-1 3.85-2.222 2.364-3.374 2.064.308-.42 5.179-2.188 4.288-2.75 8.37-1.627 11.794.831 2.53-1.08 3.234-2.034.75-2.477-6.454-8.99 7.846-11.844 26-.864 5.5-2.01 12.438-2.545 15.417s-.973 6.9-.973 8.715-.72 5.419-1.6 8.01-1.892 7.598-2.25 11.124-.987 6.072-1.4 5.656zm121.79-87.996c-4.314-4.91-10.964-13.112-14.778-18.227-5.37-7.203-7.228-9.057-8.238-8.219-1.902 1.58-7.231-6.05-9.241-13.231-.885-3.163-2.048-5.75-2.585-5.75s-3.118 1.319-5.738 2.93c-4.243 2.611-4.811 2.74-5.218 1.184-.358-1.366-1.25-1.653-4.111-1.319-4.379.511-9.524 5.87-14.097 14.682-3.772 7.268-4.535 5.57-.972-2.159 1.476-3.2 3.512-7.73 4.525-10.068 1.18-2.72 2.485-4.251 3.628-4.254.983-.002 4.261-1.562 7.286-3.465 11.507-7.242 14.33-8.194 22.75-7.67 3.58.222 3 4.04-.728 4.785-5.63 1.126-5.649 2.624-.134 10.563 2.786 4.01 8.702 11.79 13.146 17.29 13.807 17.087 23.081 29.656 22.706 30.778-.197.592-3.888-2.941-8.202-7.85zm-96.538-36.345c0-2.98 1.078-5.082 2.607-5.082 1.757 0 1.744.421-.133 4.05-1.771 3.426-2.474 3.719-2.474 1.032zm52.632-28.6c-2.723-7.096-1.103-21.797 3.773-34.24 1.342-3.422 2.057-6.457 1.591-6.746-1.366-.844-9.49 2.287-16.015 6.174-3.324 1.98-6.31 3.334-6.635 3.008-1.287-1.287.835-3.858 5.323-6.454 2.592-1.499 6.172-4.187 7.955-5.975 1.928-1.932 4.254-3.25 5.738-3.25 3.166 0 5.372-2.212 7.758-7.78 3.21-7.487 11.901-19.072 19.7-26.258 9.875-9.1 22.317-15.268 36.93-18.307 3.332-.693 2.84 1.989-.7 3.82-1.623.839-3.985 1.533-5.25 1.542-4.692.036-15.682 2.898-17.897 4.66-10.48 8.343-19.283 19.395-27.902 35.029-2.774 5.032-2.187 6.152 5.187 9.89 2.647 1.34 4.813 3.07 4.813 3.844s1.125 2.744 2.5 4.378c4.986 5.926 2.04 5.74-5.052-.318-5.923-5.06-9.038-5.63-12.226-2.236-4.219 4.49-5.507 9.562-6.233 24.539-.652 13.44-1.84 18.633-3.357 14.679zm41.443-24.057c-5.537-5.371-9.886-9.947-9.664-10.17 1.437-1.436 15.208 10.18 19.089 16.104 3.69 5.632.297 3.496-9.425-5.935zm35.12-2.925c.02-1.65.244-2.204.498-1.231s.237 2.323-.037 3c-.274.677-.481-.12-.461-1.77zm5.884-8.084c.048-1.165.285-1.402.604-.604.289.722.254 1.585-.079 1.917-.332.332-.568-.259-.525-1.313zm-5.844-8.914c-1.796-.78-3.516-2.072-3.823-2.87-.804-2.098 2.208-7.377 4.652-8.153 3.434-1.09 3.373.234-.158 3.46-3.966 3.622-3.029 5.874 1.473 3.54 2.616-1.358 2.774-1.337 2.082.275-.413.96-.782 2.533-.82 3.496-.038.962-.086 1.732-.105 1.71-.02-.02-1.505-.677-3.301-1.458zm35.86-2.252c-.719-2.063-3.043-6.563-5.165-10-2.377-3.852-3.356-6.25-2.55-6.25.72 0 2.138.915 3.151 2.035s2.49 1.786 3.282 1.482c2.366-.907 7.225 7.145 7.155 11.855-.03 1.981-.123 2.007-1.36.377-1.955-2.575-2.636-2.14-1.959 1.25.853 4.265-.996 3.722-2.554-.75zm-29.526-6.469c2.364-3.329 3.456-3.502 3.352-.531-.043 1.237-.315 1.66-.604.938-.404-1.01-1.001-.895-2.602.5l-2.078 1.812zm-25.501-13.731c-.052-2.63.21-3.172 1.1-2.283.863.864.88 1.763.067 3.45-1.033 2.144-1.104 2.073-1.167-1.167z"/></svg>