<svg width="486" height="490" viewBox="0 0 486 490" xmlns="http://www.w3.org/2000/svg"><path d="M227.8 398.62c-5.354-.677-12.256-3.665-11.111-4.81.237-.236 4.733.05 9.992.636 38.599 4.304 76.65-4.632 110.76-26.012 4.32-2.707 8.077-4.922 8.35-4.922.272 0-.349 1.39-1.381 3.087-5.56 9.143-40.546 24.764-63.594 28.393-5.5.866-12.475 2.02-15.5 2.565-7.507 1.353-30.155 1.995-37.521 1.063zm33.926-12.358l-1.905-2.25 2.5 1.99c1.375 1.093 2.688 2.106 2.917 2.25.229.143-.039.26-.595.26s-1.87-1.013-2.917-2.25zm3.432-1.625c-.915-.344-3.615-2.875-6-5.625-2.386-2.75-4.65-5.142-5.03-5.315-.382-.173-.423-1.073-.091-2 .331-.927.258-1.375-.163-.996-.42.38-1.82-.295-3.11-1.5-4.384-4.09-5.467-4.792-6.456-4.181-.543.335-.987.182-.987-.342s.705-1.223 1.567-1.553c1.075-.413 4.6 2.396 11.223 8.945 8.384 8.289 9.99 9.463 12.183 8.913 1.39-.348 3.293-1.384 4.229-2.302a66.448 66.448 0 0 1 3.257-2.965c1.064-.887 1.352-2.15.91-4-.913-3.821-.808-3.724-6.086-5.679-9.178-3.4-30.283-15.299-30.283-17.074 0-.264 1.687.648 3.75 2.026 5.27 3.521 13.607 7.962 14.5 7.723.412-.11.75.325.75.967 0 .642.278.888.619.548.34-.34 1.298.06 2.128.89s2.127 1.274 2.881.984c.755-.29 1.372-.063 1.372.502s.45.75 1 .41 1-.142 1 .44.623 1.06 1.385 1.06 2.643.651 4.179 1.448c1.535.797 3.231 1.177 3.768.846.542-.335.659-.09.263.55-.4.648-.138 1.162.596 1.17.95.012.899.28-.191.985-1.265.817-1.208.972.357.985 1.236.01 1.664.516 1.281 1.515-.317.825-.027 1.515.643 1.532.713.019.5.578-.514 1.348-1.603 1.217-1.548 1.4.75 2.446 2.474 1.128 3.556 5.174 1.384 5.174-.605 0-2.672.747-4.594 1.659-1.98.94-3.778 1.264-4.15.75-.73-1.01-4.111-1.157-5.659-.246-.549.323-1.747.306-2.662-.038zM251.4 373.929c.048-1.165.285-1.402.604-.604.289.722.253 1.584-.08 1.916-.331.333-.568-.258-.524-1.312zm-110.84-9.359c-11.662-8.787-22.238-18.99-31.085-29.989-7.427-9.232-18.815-26.74-17.954-27.6.597-.598 9.49 9.807 16.269 19.031 7.547 10.272 27.987 30.556 37.284 37 3.967 2.75 7.071 5.45 6.898 6-.765 2.425-3.94 1.19-11.412-4.441zm104.97 4.341c-.71-.77-.849-1.399-.31-1.399 1.039 0 2.542 1.903 1.95 2.466-.193.183-.931-.297-1.64-1.066zm-4.211-7.565c0-.642-.292-.875-.648-.519-.357.357-1.511-.346-2.566-1.561-3.08-3.551-.013-3.442 3.555.126 2.424 2.423 2.734 3.12 1.39 3.12-.952 0-1.731-.525-1.731-1.166zm-20.5-13.463c-26.007-22.878-38.842-33.092-58.521-46.568-1.363-.934-1.967-1.722-1.341-1.75 1.227-.057 7.796 4.278 18.74 12.365 3.783 2.795 7.257 4.974 7.72 4.842.464-.132 1.277.57 1.807 1.56.53.991 4.48 4.68 8.78 8.197s12.737 10.69 18.752 15.94c8.687 7.58 11.563 9.543 13.986 9.543 2.183 0 3.152.53 3.41 1.868.223 1.16-.056 1.612-.737 1.191-1.475-.911-1.398.739.104 2.24.66.66.772 1.184.25 1.164-.523-.02-6.35-4.786-12.95-10.593zm15.127 1.901c.272-1.5.759-2.962 1.081-3.25.323-.287.338.49.033 1.728-.305 1.237-.12 2.25.412 2.25s.687.45.347 1c-1.226 1.984-2.357.941-1.873-1.728zm-6.17-.34c-.362-.588-1.289-.827-2.058-.532-.807.31-1.399-.084-1.399-.932 0-.807-.45-1.468-1-1.468s-1-.45-1-1c0-1.96 4.18-1.025 4.725 1.056.307 1.176 1.102 1.84 1.855 1.551.837-.32 1.115.023.762.944-.664 1.73-1.008 1.799-1.884.38zm-81.457-3.493c-2.475-1.29-6.12-2.817-8.1-3.392-8.163-2.367-30.753-28.417-37.115-42.8-3.555-8.037-.625-6.34 3.605 2.09 2.323 4.628 5.435 9.855 6.917 11.615s2.693 3.604 2.693 4.096c0 1.59 22.247 22.951 23.9 22.95 2.61-.002 13.073 5.396 13.087 6.752.007.687-.1 1.202-.237 1.143-.138-.058-2.275-1.163-4.75-2.454zm83.459-.506c-.363-.586-.445-1.28-.183-1.543.262-.262.743.218 1.07 1.067.675 1.762.099 2.072-.887.476zm136.4-1.444c.526-1.107 1.948-2.907 3.16-4 3.201-2.892 10.958-12.86 16.721-21.49 10.923-16.355 20.825-40.26 24.855-60 2.068-10.127 2.967-11.563 3.875-6.189 1.597 9.456-7.543 36.777-19.266 57.587-5.733 10.177-8.41 13.648-18.502 24-6.49 6.656-11.37 11.197-10.843 10.091zm-147.33-2.414c-.362-1.141-1.079-2.075-1.591-2.075-.513 0-.933-.388-.933-.862s1.114-.648 2.476-.387c1.727.33 2.391 1.037 2.193 2.335-.434 2.846-1.413 3.297-2.145.99zm12.349.261c-1.245-1.509-1.163-1.552.877-.465 2.327 1.24 2.9 2.129 1.373 2.129-.483 0-1.495-.749-2.25-1.664zm-12.872-7.93c-5.775-3.615-11.175-7.274-12-8.13-1.91-1.984-1.547-1.779 11.452 6.46 9.297 5.894 12.624 8.28 11.498 8.252-.248-.006-5.175-2.968-10.95-6.583zm26.274-16.39l-3.226-1.74 11.226-.523c36.841-1.718 68.147-22.695 83.772-56.135 2.087-4.466 4.594-11.137 5.572-14.827 1.402-5.29 2.053-6.48 3.08-5.628 1.873 1.555 1.618 4.555-1.054 12.411-12.177 35.794-43.923 62.185-81.008 67.343-10.205 1.42-14.443 1.211-18.362-.902zm-33.422-5.361c-14.828-6.167-25.61-13.808-29.172-20.674l-2.636-5.08 5.728 4.898c10.802 9.239 20.29 14.677 33.728 19.331 5.926 2.053 7.222 2.788 5 2.834-1.65.034-3.9.282-5 .55s-4.541-.568-7.648-1.86zm164.15-6.12c0-.845.374-1.536.83-1.536s1.469-1.237 2.248-2.75 2.88-4.828 4.669-7.37 3.253-5.134 3.253-5.763c0-1.489 4.275-8.088 5.25-8.104 1.358-.023.74 2.444-1.25 4.987-1.076 1.375-1.966 3.012-1.978 3.638-.012.626-1.492 3.326-3.288 6-1.796 2.674-3.916 6.135-4.71 7.69-1.76 3.443-5.024 5.527-5.024 3.207zm-209.25-4.07c-2.613-1.917-4.75-3.706-4.75-3.975 0-1.383 2.273-.08 6.122 3.51 5.256 4.901 4.859 5.036-1.372.465zm1.453-2.895c-4.392-3.105-5.461-4.433-1.703-2.115 5.196 3.206 6.977 4.546 5.972 4.495-.535-.027-2.456-1.098-4.269-2.38zm70.338 1.317c-4.116-.6-9.61-2.727-17.769-6.88-14.449-7.358-15.773-8.171-15.773-9.698 0-.682 3.053.522 7.008 2.763 17.937 10.164 30.699 14.17 38.497 12.084 2.569-.687 2.072-1.035-5.888-4.112-4.782-1.849-10.71-4.931-13.173-6.85-3.555-2.77-6.075-3.764-12.211-4.817-6.738-1.157-8.151-1.78-10.983-4.838-2.135-2.306-3.25-4.52-3.25-6.453 0-3.158-2.653-5.872-7.84-8.02-1.856-.77-3.915-3.038-5.65-6.226l-2.73-5.017 5.11-4.722c2.81-2.598 5.11-5.379 5.11-6.18 0-2.434-4.956-8.922-6.814-8.922-.958 0-2.537.93-3.51 2.065-2.685 3.136-5.035 2.062-6.054-2.77-.777-3.681-.543-4.747 1.975-8.986 2.697-4.542 2.885-5.614 3.38-19.309.512-14.2.587-14.593 3.623-19 1.706-2.475 5.08-7.65 7.5-11.5 5.546-8.824 16.586-20.159 20.487-21.033 5.768-1.293 6.478-1.662 11.598-6.033 4.033-3.442 5.991-4.434 8.755-4.434 1.957 0 6.934-.632 11.06-1.404s10.7-1.711 14.614-2.088c6.485-.623 7.795-.41 14.826 2.404 7.85 3.144 11.952 3.76 14.462 2.17 2.474-1.567-6.576-5.256-24.517-9.995-2.264-.598-12.276-1.087-22.25-1.087-11.423 0-18.134-.37-18.134-1 0-1.651 34.732-1.265 42.212.47 10.282 2.384 18.879 5.39 23.738 8.298 2.502 1.498 5.865 3.299 7.472 4.002s3.546 2.168 4.307 3.255c.76 1.086 1.874 1.975 2.474 1.975 2.137 0 10.083 7.408 13.313 12.412 2.995 4.64 11.883 14.09 9.959 10.588-5.35-9.736-14.947-20.857-24.28-28.136-3.683-2.872-7.127-5.595-7.653-6.05-.526-.455 1.863.278 5.31 1.629 7.077 2.773 11.377 6.143 18.733 14.677 5.17 5.998 5.738 6.93 9.044 14.87 1.028 2.469 3.378 6.687 5.221 9.373 4.368 6.365 8.055 17.342 8.812 26.23.5 5.87.335 7.194-.953 7.688-1.205.463-1.695-.345-2.176-3.592-1.189-8.02-3.833-18.218-5.859-22.59-1.121-2.422-5.3-7.89-9.287-12.154s-8.135-9.482-9.219-11.598c-1.685-3.29-6.912-8.347-8.63-8.347-2.599 0 3.221 9.121 12.444 19.5 3.42 3.85 7.412 9.25 8.868 12 2.516 4.749 2.634 5.628 2.364 17.5-.156 6.875.213 17.45.82 23.5 1.29 12.859.279 17.196-5.502 23.595-1.905 2.108-4.568 6.014-5.918 8.678-1.35 2.665-4.331 7.219-6.624 10.118-2.78 3.517-3.481 4.906-2.105 4.17 1.135-.608 3.312-2.73 4.838-4.715 5.634-7.328 8.518-10.346 9.887-10.346 2.815 0-22.552 28.401-28.904 32.361-1.535.958-8.285 3.55-15 5.762-9.921 3.268-14.455 4.19-24.208 4.919-13.935 1.042-16.877 1.024-24.958-.154zm50.367-7.452c2.425-.844 5.319-2.022 6.43-2.617 1.964-1.051 1.968-1.121.15-2.45-3.58-2.619-8.404-1.16-12.315 3.726-2.104 2.628-2.151 2.904-.5 2.89 1.005-.007 3.81-.705 6.235-1.549zm16.091-7.96c0-.839 1.047-1.923 2.325-2.41 2.062-.783 5.675-4.985 5.675-6.599 0-.795-5.773 3.187-9.25 6.381-3.263 2.997-3.471 4.152-.75 4.152 1.126 0 2-.666 2-1.525zm-183.6 13.107c-7.197-2.253-18.334-11.228-23.582-19.004-1.142-1.693.436-.378 3.509 2.922 3.072 3.3 5.606 5.437 5.631 4.75.026-.688 1.059-1.215 2.296-1.171 1.238.043 1.688.306 1 .583-2.015.813-1.443 2.072 1.25 2.748 1.375.346 2.5 1.07 2.5 1.609 0 1.404-1.725 1.212-2.417-.27-.355-.76-.455-.663-.255.25.481 2.203 7.369 5.778 13.672 7.097 4.541.95 6.72.865 12.5-.486 3.85-.9 8.19-1.63 9.643-1.623 1.454.007 2.902-.662 3.218-1.487.893-2.326 3.907-1.92 3.162.425-.398 1.256.013 2.316 1.183 3.048 1.568.981 1.505 1.043-.506.491-3.402-.933-10.216-.697-14.193.491-4.655 1.392-13.54 1.213-18.61-.373zm31.594-19.332c-.008-7.168-.452-9.7-2.454-14-1.344-2.888-2.247-5.25-2.007-5.25s1.647 2.362 3.125 5.25c2.191 4.28 2.745 6.865 3 14 .187 5.274-.08 8.75-.672 8.75-.567 0-.986-3.694-.992-8.75zm-24.585 4.5l-1.905-2.25 2.25 1.905c1.238 1.047 2.25 2.06 2.25 2.25 0 .8-.805.209-2.595-1.905zm15.595.784c0-.806-1.407-3.168-3.127-5.25l-3.127-3.784 3.627 3.735c3.115 3.208 4.759 6.765 3.127 6.765-.275 0-.5-.66-.5-1.466zm-20.86-6.568c-1.3-1.081-1.932-1.966-1.406-1.966s1.77.9 2.766 2c2.287 2.527 1.695 2.512-1.36-.034zm45.71-1.56c-3.425-2.54-5.703-5.486-8.647-11.178-4.782-9.244-9.035-22.326-9.876-30.378-.521-4.983-.371-5.85 1.011-5.85.893 0 1.826 1.012 2.073 2.25 3.6 18.038 8.63 31.03 16.5 42.618 2.29 3.372 4.034 6.1 3.876 6.06-.158-.04-2.38-1.625-4.937-3.522zm-90.738-1.787c-4.986-5.307-8.39-24.142-8.518-47.12-.087-15.646.078-17.318 2.075-21l2.169-4-.554 15c-.63 17.018 1.185 34.74 5.144 50.25 1.3 5.088 2.262 9.25 2.14 9.25s-1.226-1.07-2.456-2.38zm40.888-1.12c-.685-.824-1.02-1.5-.745-1.5s1.06.676 1.745 1.5 1.02 1.5.745 1.5-1.06-.674-1.745-1.5zm15 0c-.685-.824-1.02-1.5-.745-1.5s1.06.676 1.745 1.5 1.02 1.5.745 1.5-1.06-.674-1.745-1.5zm-4-4c-.685-.824-1.02-1.5-.745-1.5s1.06.676 1.745 1.5 1.02 1.5.745 1.5-1.06-.674-1.745-1.5zm-42.757-8.219c-2.803-6.604-3.63-12.577-2.298-16.613 1.15-3.488 5.598-8.459 6.637-7.42.324.325-.268 1.05-1.317 1.61s-2.732 2.853-3.742 5.092c-1.64 3.638-1.7 4.683-.563 9.811.7 3.157 1.93 7.019 2.73 8.582.802 1.564 1.26 3.04 1.02 3.28-.24.241-1.35-1.713-2.467-4.342zm14.063-4.853l-2.806-2.573 3.25 2.26c1.788 1.244 3.25 2.402 3.25 2.574 0 .789-1.106.112-3.694-2.261zm40.194-1.646c-4.507-4.416-13.148-9.887-18.715-11.849-2.043-.72-3.936-1.885-4.206-2.589-.598-1.557 9.149 2.592 14.922 6.352 5.612 3.656 13.5 10.315 13.5 11.397 0 1.562-1.367.739-5.5-3.311zm-49.5-5.281c-.685-.825-1.02-1.5-.745-1.5s1.06.675 1.745 1.5 1.02 1.5.745 1.5-1.06-.675-1.745-1.5zm18.813-12.183c.722-.29 1.585-.254 1.917.078.332.333-.259.57-1.313.526-1.165-.048-1.402-.285-.604-.604zm-5.062-.98c.687-.277 1.812-.277 2.5 0s.125.505-1.25.505-1.938-.227-1.25-.505zm-7.5-1.027c.962-.251 2.537-.251 3.5 0 .962.252.175.458-1.75.458s-2.713-.206-1.75-.458zm49.25-9.9a414.969 414.969 0 0 0-10.5-2.41c-16.024-3.424-23-8.55-23-16.903 0-3.226 1.845-8.097 3.067-8.097.41 0 .548-.788.307-1.75-.31-1.237.791-2.446 3.755-4.123 3.967-2.245 4.946-2.352 18.179-2l13.985.373 1.708-5c3.339-9.77 7.19-15.971 13.972-22.5 3.714-3.575 7.899-8.75 9.3-11.5 4.239-8.317 14.368-16.495 22.995-18.564 2.878-.69 8.369-2.758 12.203-4.595 3.835-1.838 7.56-3.341 8.28-3.341s4.108-1.221 7.529-2.713c5.733-2.5 7.276-2.716 19.72-2.75 11.02-.03 14.088.284 16.7 1.713 1.76.962 3.926 1.75 4.814 1.75 1.865 0 11.727 4.09 11.181 4.637-.2.201-3.927-.603-8.28-1.786-11.701-3.182-34.411-3.22-46.792-.08-28.707 7.282-52.056 26.636-64.673 53.61-2.09 4.465-4.114 9.389-4.5 10.941l-.703 2.822-15.732-.705c-11.766-.527-15.919-.404-16.47.49-.407.657-1.883 1.63-3.28 2.16-4.464 1.697-1.79 1.968 3.072.312 3.53-1.203 6.943-1.461 13.92-1.054 11.477.671 16.743 1.574 16.743 2.872 0 .606-1.475.74-3.75.338-9.543-1.683-21.115-1.738-26.657-.127-6.775 1.97-9.129 4.878-8.263 10.213.703 4.331 2.627 6.629 7.511 8.967 4.997 2.392 16.16 5.336 16.16 4.262 0-.48-.866-.872-1.924-.872-2.366 0-8.077-4.659-8.077-6.59 0-2.034.802-1.752 3.31 1.162 2.74 3.187 11.618 6.352 17.94 6.395 2.613.018 4.75.483 4.75 1.033s-1.21 1-2.69 1c-2.502 0-2.562.094-.85 1.347 2.749 2.01.674 2.454-4.96 1.063zm267.52-6.014c-.008-2.256-.267-6.981-.574-10.5-.529-6.045-.476-6.259.964-3.896 1.729 2.837 2.14 14.608.594 17-.713 1.103-.973.414-.984-2.604zm-253.02-25.115c0-1.01.617-2.724 1.372-3.809.754-1.085 2.424-4.447 3.709-7.472 3.002-7.066 8.655-15 10.687-15 1.32 0 1.252.372-.41 2.25-2.669 3.019-5.406 7.401-7.65 12.25-5.588 12.076-7.708 15.317-7.708 11.782zm9-6.198c0-2.746 3.734-11.083 4.964-11.083 1.42 0 1.33.486-.964 5.236-1.1 2.277-2 4.955-2 5.952s-.45 1.812-1 1.812-1-.863-1-1.917zm17-27.488c0-3.74 14.988-18.498 22.299-21.956 8.19-3.875 9.2-2.127 1.118 1.938-6.73 3.386-19.66 15.463-20.969 19.584-.685 2.16-2.449 2.472-2.449.434zm209.13-11.268c-6.136-12.377-12.756-22.648-21.318-33.077-3.274-3.988-5.493-7.25-4.93-7.25 4.731 0 12.208 8.726 23.663 27.616 6.879 11.344 8.834 16.232 8.292 20.729-.287 2.374-1.17 1.133-5.707-8.018zm-17.132 4.732c0-1.068-.438-2.212-.973-2.542-.535-.331-1.479-2.48-2.097-4.774s-1.98-5.262-3.027-6.593c-1.047-1.33-1.903-2.944-1.903-3.585 0-.64-1.953-3.842-4.34-7.115-4.235-5.81-7.817-9.336-16.706-16.45a378.406 378.406 0 0 1-8.725-7.25c-2.393-2.062-4.864-3.75-5.49-3.75-.839 0-.845-.295-.024-1.116 1.31-1.309 1.578-1.139 12.81 8.116 12.877 10.612 19.671 17.97 24.19 26.2 2.319 4.222 4.523 8.942 4.9 10.488s1.29 3.7 2.034 4.784c1.582 2.311 1.786 5.527.35 5.527-.55 0-1-.873-1-1.94zm-272.63-34.597c2.91-5.98 14.082-20.028 18.46-23.212 1.7-1.238 4.096-2.25 5.323-2.25 1.803 0 .322 1.961-7.743 10.25-5.485 5.637-11.89 12.5-14.233 15.25l-4.26 5zm212.63-47.576c-16.408-8.374-38.037-14.701-58-16.97-9.839-1.118-33.475-.808-43.5.57-3.813.524-3.743.452 1.5-1.539 8.895-3.377 15.558-4.181 29-3.5 23.678 1.201 46.55 5.892 53.348 10.941 1.733 1.288 5.305 3.055 7.938 3.928 4.244 1.407 19.713 10.263 19.713 11.287 0 .218-.113.337-.25.264a6597.68 6597.68 0 0 0-9.75-4.981zm-134.96-8.77c1.945-1.07 5.32-2.213 7.5-2.539 3.902-.583 3.887-.564-1.038 1.269-8.14 3.03-10.505 3.495-6.462 1.27zm12.775-3.8c.721-.288 1.584-.253 1.916.08.333.332-.258.568-1.312.525-1.165-.048-1.402-.285-.604-.604z"/></svg>