<svg width="1500" height="1000" viewBox="0 0 1500 1000" xmlns="http://www.w3.org/2000/svg"><path d="M655.09 997.49c-1.1-.446-8.844-1.335-17.21-1.974-8.365-.64-16.465-1.577-18-2.082s-8.64-1.396-15.79-1.979c-7.15-.582-15.475-1.502-18.5-2.044s-9.767-1.675-14.982-2.52c-16.71-2.705-49.061-9.456-64.518-13.464-21.271-5.515-37.355-8.432-66-11.97-29.854-3.688-34.3-4.421-73-12.03-16.5-3.243-33.599-6.418-37.998-7.055-12.295-1.778-17.502-5.143-17.502-11.309 0-2.847-2.054-3.447-21-6.133-16.537-2.344-18.14-2.705-18.717-4.208-.299-.778.395-5.55 1.541-10.605 4.687-20.667 9.439-48.115 14.142-81.69 5.588-39.887 15.738-107.54 19.653-131 3.568-21.377 3.756-24.029 2.365-33.337-1.24-8.293-1.515-50.127-.479-72.663.84-18.23 9.287-77.05 11.383-79.253.395-.414 3.325-.27 6.512.32s6.065.801 6.394.472c1.066-1.066 6.1-38.626 7.171-53.516.865-12.006 6.831-55.136 8.664-62.629.284-1.16-.148-2.77-.96-3.581-1.3-1.3-3.366-1.154-17.421 1.235-25.926 4.407-52.582 7.44-100.64 11.455-45.456 3.797-67.043 3.123-81.997-2.56-2.808-1.068-5.873-1.942-6.811-1.942-.938 0-3.414-1.103-5.5-2.45-13.041-8.42-14.922-10.637-21.237-25.037-5.356-12.212-8.418-26.241-11.023-50.513-1.152-10.725-2.556-21.975-3.12-25-1.878-10.064-6.996-31.401-9.355-39-3.236-10.423-8.573-34.784-15.554-71a6103.586 6103.586 0 0 0-4.842-24.685c-1.655-8.352-2.775-16.085-2.487-17.184.972-3.72-1.623-21.816-7.212-50.283C49.402 36.89 48.042 28.805 46.242 8.179l-.501-5.75h6.533l1.144 14.81c1.087 14.074 3.682 30.11 5.046 31.19.348.275.711 2.35.808 4.61.096 2.262 1.782 11.712 3.746 21 1.964 9.29 5.38 27.465 7.592 40.39 3.598 21.027 5.5 31.203 8.882 47.5 3.086 14.872 9.11 43.303 9.59 45.25 1.037 4.224 2.514 2.26 2.631-3.5l.117-5.75.833 5c.458 2.75 1.258 10.625 1.779 17.5.797 10.533 1.66 14.703 5.481 26.5 2.495 7.7 5.088 15.912 5.763 18.25.675 2.337 1.65 4.25 2.17 4.25 1.086 0 .652-4.786-1.588-17.5-.872-4.95-1.841-11.665-2.154-14.922-.313-3.257-1.468-9.782-2.569-14.5-1.1-4.718-2.847-13.978-3.882-20.578s-2.781-16.5-3.881-22c-1.1-5.5-2.74-13.825-3.644-18.5-.904-4.675-3.428-17.5-5.61-28.5-8.888-44.824-13.615-76.166-16.409-108.8-1.998-23.344-2.11-21.7 1.477-21.7 2.464 0 3 .411 3 2.3 0 4.842 2.189 29.926 4.052 46.432 2.152 19.068 6.921 48.258 12.87 78.768 2.144 11 4.455 23.6 5.135 28 .68 4.4 1.565 8.45 1.966 9 .78 1.067 2.878 12.368 3.53 19 .215 2.2.841 6.025 1.39 8.5 1.758 7.92 4.793 24.196 6.433 34.5.875 5.5 2.222 13.375 2.993 17.5.77 4.125 1.688 9.921 2.038 12.88.35 2.96.83 5.696 1.07 6.082s.696 4.714 1.018 9.62c.322 4.904.98 10.267 1.462 11.917 1.253 4.29 2.885 19.48 4.077 37.94 1.556 24.114 4.442 34.195 12.705 44.376 5.27 6.495 10.467 9.541 16.603 9.735 2.836.089 8.983.664 13.658 1.277 24.225 3.176 173.11-6.363 182.5-11.693 4.272-2.425 6.111-6.824 7.494-17.922.905-7.27.925-10.438.08-12.598-1.094-2.8-1.287-2.867-6.351-2.258-2.873.346-11.523 1.091-19.223 1.656-29.301 2.15-39.2 3.142-45.312 4.542-3.472.795-7.825 1.446-9.674 1.446-4.717 0-8.967-3.921-11.454-10.567-2.02-5.4-5.06-27.881-5.06-37.417 0-4.618.119-4.816 3.25-5.397 5.311-.985 21.526-2.447 51.25-4.618 30.357-2.217 48.982-4.163 62.873-6.569 13.568-2.35 13.761-2.241 16.633 9.353 1.324 5.343 2.444 9.808 2.49 9.922.176.433 26.507 4.293 29.286 4.293h2.917l-1.75-9.25c-.963-5.088-2.448-14.632-3.299-21.21-1.603-12.382-1.235-14.767 2.139-13.884 1.662.434 51.486-4.172 55.899-5.169 1.203-.272 2.463-.049 2.8.495 1.37 2.217 3.68 28.182 3.32 37.328-.42 10.704-.542 10.925-7.06 12.73-2.062.57-3.75 1.4-3.75 1.844 0 .444 4.613 1.361 10.25 2.038 12.139 1.459 48.249 7.434 76.218 12.613l19.967 3.697 21.533-4.1c51.792-9.863 139.34-22.364 263.03-37.558 42.043-5.165 67.857-8.306 120-14.603 32.175-3.886 67.725-8.18 79-9.543 53.523-6.47 143.25-17.981 163-20.912 5.225-.776 12.748-1.66 16.718-1.967 3.97-.306 10.045-1.223 13.5-2.038 3.455-.815 8.082-1.496 10.282-1.514s13.45-1.589 25-3.491c11.55-1.903 23.925-3.911 27.5-4.465 12.186-1.885 26.487-4.217 34.5-5.626 4.4-.774 10.905-1.665 14.456-1.98s8.5-1.015 11-1.557c2.499-.542 9.494-1.624 15.544-2.405 24.247-3.132 33.584-6.638 42.346-15.903l4.85-5.13 1.302-17.533c1.564-21.067.875-62.104-1.476-87.907-1.902-20.888-8.593-69.75-11.057-80.75-.419-1.871-.08-2.25 2.016-2.25 1.385 0 2.519.276 2.519.614s1.105 7.2 2.457 15.25c3.255 19.397 7.133 47.998 9.099 67.127 1.572 15.296 1.881 16.905 3.027 15.759 1.686-1.686-4.544-65.047-8.623-87.705-1.036-5.75-1.686-10.652-1.445-10.893.724-.725 1.289 1.75 3.496 15.326 1.16 7.137 2.308 13.175 2.55 13.417 1.382 1.382 1.536-2.022.548-12.14-1.678-17.185-1.739-16.754 2.372-16.754 4.177 0 4.165-.041 4.97 16 1.364 27.124 4.153 51.37 10.697 93 3.905 24.842 6.529 58.42 5.196 66.5-.804 4.872-5.331 22.79-6.444 25.5-4.713 11.483-15.746 21.642-32.9 30.295-11.744 5.924-21.164 7.92-48 10.175-10.725.9-29.85 2.516-42.5 3.59-12.919 1.096-33.3 3.69-46.5 5.916-30.382 5.124-41.836 6.82-50.937 7.545-4.07.324-8.113.953-8.982 1.396-.87.444-4.28 1.094-7.58 1.445-6.711.713-9.14 1.045-18.5 2.532-23.895 3.794-50.68 6.826-89.5 10.133-34.802 2.963-47.9 4.579-77 9.497-78.459 13.259-78.164 13.223-137.5 16.962-28.87 1.819-38.046 2.91-84.5 10.05-19.25 2.96-47.826 6.985-63.5 8.946-42.282 5.29-56.104 7.27-70.5 10.102-17.243 3.391-21.637 4.979-18.738 6.77 1.216.752 41.29 6.57 48.862 7.094 3.781.262 15.65 2.135 26.375 4.163 11.314 2.138 24.537 3.955 31.5 4.328 19.212 1.028 21.658 3.287 23.085 21.327 1.662 21.003 1 31.068-4.59 69.735-1.074 7.425-3.11 23.85-4.525 36.5s-3.9 29.468-5.522 37.374c-2.321 11.319-2.948 16.978-2.948 26.624 0 9.105-.434 13.374-1.69 16.626-1.285 3.33-1.745 8.2-1.927 20.376-.132 8.8-.494 17.8-.806 20-1.275 9.007-2.484 20.542-3.093 29.5-.78 11.494-3.718 24.575-7.172 31.94-3.447 7.352-5.93 14.755-6.748 20.115-.373 2.444-1.74 9.394-3.038 15.444-2.774 12.935-5.891 30.748-7.99 45.655-.824 5.86-3.719 20.485-6.432 32.5-8.34 36.925-17.552 88.623-23.585 132.35-4.395 31.849-9.531 60.036-11.368 62.382-.482.615-1.151 3.564-1.488 6.553-1.068 9.479-7.13 14.998-19.306 17.578-7.316 1.55-25.535 1.897-28.856.55zm36.529-8.197c4.87-2.065 4.264-.903 8.203-15.74 1.15-4.327 1.123-4.41-2.44-7.677-3.873-3.548-9.066-5.433-14.997-5.442-3.503 0-3.739.199-4.336 3.745-1.17 6.947-1.3 6.69 3.223 6.387 5.687-.381 8.318 1.178 8.318 4.93 0 4.899-2.605 9.675-6.895 12.645-2.216 1.534-4.046 3.165-4.067 3.626-.056 1.232 7.77-.258 12.991-2.473zm-20.3-1.212c6.58-1.379 9.55-3.36 11.925-7.95 3.037-5.874-1.115-8.693-7.046-4.783-2.266 1.494-4.105 1.805-8.5 1.437-10.629-.89-37.818-4.397-56.108-7.237-3.575-.555-11.9-1.738-18.5-2.63s-13.012-1.865-14.25-2.164c-1.306-.315-2.25-.078-2.25.566 0 .61 1.099 1.108 2.441 1.108s2.757.51 3.142 1.135c.486.786-.186.97-2.19.598-1.591-.294-12.118-2.137-23.393-4.095s-28.368-5.158-37.985-7.112c-16.048-3.26-67.039-10.806-114.93-17.009-17.387-2.252-21.374-2.471-19.999-1.102.765.761 102.89 19.824 144.92 27.049 14.575 2.506 28.075 4.964 30 5.462 1.925.499 5.525 1.224 8 1.613 2.475.388 4.725 1.043 5 1.456.275.412 3.65 1.423 7.5 2.245 3.85.823 14.425 3.097 23.5 5.055 9.075 1.958 20.55 4.086 25.5 4.729s10.8 1.527 13 1.965c6.395 1.274 23.451 1.084 30.23-.336zm-12.506-3.38c2.048-.214 5.648-.217 8-.01 2.352.212.676.387-3.724.391-4.4 0-6.324-.17-4.276-.384zm-36.224-3.777c-10.175-1.822-22.775-4.21-28-5.307s-11.188-2.284-13.25-2.637-3.75-1.08-3.75-1.616c0-.957 2.497-.63 8.5 1.116 8.069 2.347 40.31 8.176 52.857 9.557 7.778.856 14.329 1.744 14.559 1.974 1.39 1.39-15.1-.256-30.916-3.087zm-47 .602c0-1.027-5.4-3.098-8.078-3.098-.978 0-2.517-.737-3.418-1.639-.902-.901-2.957-1.792-4.567-1.98-4.894-.57-32.454-5.274-49.775-8.497-14.244-2.65-18.688-3.036-17.078-1.481.23.221 14.367 3.192 31.417 6.602s35.05 7.251 40 8.535c10.21 2.648 11.5 2.822 11.5 1.558zm98.861-16.848c.644-5.362 1.412-12.675 1.707-16.25 1.038-12.573 12.566-93.257 24.93-174.5l7-46c6.072-39.917 11.546-77.766 23.573-163 13.417-95.085 20.238-140 28.54-187.92 3.785-21.845 3.824-21.529-2.61-21.57-3.76-.023-33.615-3.466-43.5-5.016-19.89-3.118-75.511-11.197-192.5-27.96-34.925-5.004-76.325-11.084-92-13.509s-30.3-4.635-32.5-4.91-7.825-1.2-12.5-2.055c-10.292-1.883-13.437-1.948-14.774-.308-.56.688-2.889 16.1-5.174 34.25-6.523 51.805-22.214 160.02-33.131 228.5-1.71 10.725-3.513 22.425-4.007 26-.494 3.575-1.614 11.675-2.49 18s-2.22 14.875-2.988 19-1.6 9.975-1.848 13c-.442 5.378-10.133 75.224-19.147 138-6.146 42.806-13.659 92.154-17.881 117.45-1.923 11.522-3.398 21.031-3.278 21.131.12.1 12.368 1.62 27.218 3.376 32.547 3.85 59.78 7.672 96.5 13.545 64.666 10.343 137.77 21.085 190.5 27.992 34.472 4.515 66.88 9.59 73 11.432 6.115 1.84 6.096 1.863 7.36-8.675zm-75.117-44.045c-1.812-.223-4.039-1.89-6.5-4.866-2.059-2.49-6.771-7.481-10.471-11.09-4.495-4.386-7.296-8.086-8.442-11.155-.944-2.527-4.983-10.082-8.976-16.791-9.832-16.517-10.662-18.26-14.35-30.13-3.341-10.755-13.566-33.057-21.304-46.471-2.474-4.29-7.091-13.74-10.26-21-10.937-25.063-39.568-88.146-45.477-100.2-7.733-15.777-18.964-39.54-18.964-40.124 0-.36-3.106-7.004-6.902-14.765-14.45-29.54-23.098-47.772-23.098-48.694 0-.527-2.086-5.11-4.636-10.187-4.228-8.418-19.247-41.341-24.967-54.73-3.373-7.895-3.158-11.872.853-15.753 3.657-3.54 9.405-6.247 13.266-6.247 3.432 0 6.761 3.761 9.547 10.787 1.245 3.142 7.538 16.513 13.983 29.713s12.057 25.125 12.472 26.5c.998 3.313 12.167 28.252 19.686 43.958 3.302 6.898 7.965 17.11 10.362 22.693 2.397 5.583 6.577 14.583 9.29 20 4.284 8.553 50.873 108.69 67.157 144.35 3.14 6.875 13.927 30.275 23.97 52 19.588 42.368 20.367 44.222 22.604 53.777 1.416 6.048 4.668 28.453 4.16 28.663-.135.056-1.487-.05-3.003-.236zm-5.494-17.935c4.455-1.28-.671-23.27-5.424-23.27-.454 0-.826.675-.826 1.5s-.675 1.5-1.5 1.5-1.5.513-1.5 1.14c0 1.503-3.07 3.788-5.143 3.828-2.386.047-2.907 2.364-1.27 5.658 2.07 4.167 10.56 11.543 12.403 10.776.83-.346 2.297-.855 3.26-1.132zm-14.727-18.86c1.088-.6 2.743-2.626 3.68-4.5s1.737-2.735 1.781-1.91c.069 1.29.25 1.279 1.298-.088.67-.873 1.78-1.398 2.468-1.166.688.231 1.25.095 1.25-.303 0-.399-12.105-26.423-26.9-57.833-14.796-31.41-30.383-64.534-34.638-73.61s-9.53-20.324-11.724-25c-9.898-21.097-31.203-66.838-34.699-74.5-1.255-2.75-4.437-9.5-7.07-15s-7.796-16.524-11.472-24.5-12.211-25.75-18.966-39.5-12.594-26.011-12.974-27.25c-.768-2.499-2.345-2.964-3.129-.922-.561 1.462 5.648 16.124 14.048 33.172 2.981 6.05 6.341 13.25 7.467 16 2.969 7.25-.187 2.867-4.765-6.617-2.884-5.974-4.141-7.62-5.824-7.625-2.08-.007-2.1.107-.638 3.617.83 1.994 2.39 5.356 3.467 7.472 1.076 2.116 1.763 4.041 1.525 4.279-.541.541-8.72-16.401-8.675-17.971.018-.635-3.02-7.338-6.75-14.896-6.387-12.94-6.928-13.708-9.28-13.17-1.374.316-2.621.696-2.77.846-.336.335 4.786 11.553 13.724 30.065 3.718 7.7 7.102 15.125 7.519 16.5.417 1.375 4.08 9.342 8.141 17.704 4.06 8.362 7.383 15.663 7.383 16.223s3.375 8.003 7.5 16.54c4.125 8.537 7.5 15.747 7.5 16.023 0 .574 11.326 25.224 14.018 30.51 1.728 3.392 10.103 21.482 41.005 88.568 8.124 17.637 16.15 34.309 17.835 37.047 1.685 2.738 4.938 9.683 7.23 15.432 4.29 10.765 24.18 54.806 26.25 58.124.911 1.462 1.382 1.59 2.185.596.563-.696 1.913-1.757 3-2.357zm-3.846-10.528c-1.866-4.06-7.23-15.482-11.919-25.382s-15.948-33.975-25.02-53.5c-38.668-83.225-52.736-113.83-52.69-114.64.112-2.003 6.727 11.887 58.16 122.14 29.45 63.128 36.006 77.62 35.395 78.23-.293.294-2.06-2.788-3.926-6.848zm-2.722-19.967c-.614-1.147-.928-2.274-.698-2.504s.932.708 1.56 2.086c1.378 3.024.707 3.35-.862.418zm-6.64-13.938c-2.829-6.436-2.08-6.422 1.185.024 1.394 2.75 2.189 4.99 1.767 4.976-.422-.013-1.75-2.263-2.953-5zm-9.066-19.249c-3.37-7.275-20.535-44.036-38.142-81.69-27.205-58.18-33.282-71.814-30.736-68.954.204.23 7.58 15.942 16.391 34.917s23.67 50.945 33.018 71.046c24.143 51.91 26.465 57.043 26.007 57.501-.224.225-3.166-5.543-6.537-12.819zm-75.179-147.59c-1.138-2.231-2.048-4.637-2.023-5.347.026-.71 1.182.892 2.57 3.558s2.297 5.073 2.022 5.347-1.43-1.326-2.569-3.558zm-4.882-10.79c-4.693-9.246-12.265-26.602-11.807-27.06.276-.276 1.827 2.36 3.447 5.856s4.817 10.349 7.106 15.228 3.946 9.084 3.683 9.347c-.262.262-1.356-1.254-2.43-3.37zm1.36-10.03a2700.52 2700.52 0 0 0-12.34-26.317c-10.36-21.745-14.37-31.003-13.421-30.992.827.01 1.234.81 9.894 19.492 3.57 7.7 8.302 17.825 10.516 22.5 7.976 16.84 11.938 26.096 11.602 27.106-.188.566-3-4.74-6.25-11.789zm-24.066-38.788c-1.95-4.278-3.997-8.622-4.549-9.653s-.646-1.875-.21-1.875c.982 0 9.454 18.156 8.786 18.825-.266.265-2.078-3.018-4.027-7.297zm-32.586-75.42c2.302-1.227 2.998-2.055 2.163-2.572-1.484-.916-9.23 2.378-8.473 3.604.787 1.273 2.512.99 6.31-1.033zm-3.831-7.231c2.714-1.168 4.935-2.504 4.935-2.969s-.753-.556-1.674-.203c-1.298.498-1.52.242-.988-1.143.544-1.417.322-1.638-1.077-1.07a158.93 158.93 0 0 1-4.401 1.67c-1.943.704-2.604 1.603-2.5 3.397.077 1.342.282 2.44.455 2.44.173 0 2.535-.954 5.25-2.122zm-1-6c2.714-1.168 4.935-2.518 4.935-3s-.337-.764-.75-.627-.75-.197-.75-.743.555-.866 1.234-.71c.744.17 1-.329.643-1.257-.325-.847-.983-1.54-1.462-1.54-1.526 0-11.915 5.386-11.915 6.177 0 .418.747.474 1.66.123 1.318-.505 1.544-.189 1.094 1.531-.694 2.656-.755 2.656 5.31.046zm-3.76-7.277c3.682-1.595 6.695-3.507 6.695-4.25 0-1.766.422-1.877-8.39 2.195-4.261 1.969-7.396 3.993-7.05 4.553.343.554.944.871 1.336.705.392-.167 3.726-1.608 7.408-3.203zm-2.055-5.932c4.263-2.05 7.743-4.052 7.735-4.448-.008-.396-.459-1.395-1-2.22-.764-1.163-1.167-1.22-1.793-.251-.55.85-1.372-.03-2.572-2.75-.97-2.2-2.407-3.999-3.192-3.999s-1.428-.466-1.428-1.035c0-.688.7-.66 2.086.08 2.704 1.448 3.387.685 1.743-1.948-1.86-2.976-5.673-2.635-11.157.997-3.767 2.495-4.672 3.653-4.672 5.978 0 2.89 4.958 14.227 5.965 13.638.294-.173 4.023-1.992 8.285-4.042zm163.37 13.262c-64.286-9.826-117.12-18.105-117.42-18.398s-.332-.733-.088-.977c.245-.245 53.532 7.627 118.42 17.494 64.885 9.866 118.08 17.94 118.22 17.945.138.004.25.456.25 1.006s-.562.954-1.25.898c-.687-.056-53.848-8.142-118.13-17.968zm129.95 433.92c2.717-12.71 7.626-55.911 6.506-57.261-.763-.92-.232-5.468 1.89-16.183 1.625-8.197 5.254-26.828 8.066-41.403s10.72-54.625 17.573-89 13.822-69.925 15.487-79c4.977-27.127 12.91-83.18 14.324-101.21.96-12.231 7.078-65.681 12.566-109.79 2.772-22.275 6.013-51.173 7.2-64.217 2.393-26.266 2.144-29.156-3.014-34.93-3.401-3.805-15.79-8.369-17.655-6.503-.657.657-2.826 14.458-4.897 31.164-6.042 48.722-13.48 100.52-31.521 219.49-6.47 42.665-16.002 108.79-24.076 167-10.432 75.221-23.424 161.6-26.868 178.65l-.838 4.146 6.803.384c5.653.32 7.53.906 11.097 3.467 2.362 1.696 4.678 2.738 5.147 2.316.47-.422 1.465-3.622 2.211-7.113zm-388.16-319.6c.294-.963 1.464-8.95 2.599-17.75 1.135-8.8 2.688-19.15 3.452-23s1.657-9.925 1.985-13.5 2.39-19.243 4.58-34.82c2.191-15.574 3.984-28.922 3.984-29.661 0-1.27-7.578-3.275-8.582-2.271-.605.605-5.949 38.799-7.94 56.752-2.22 20.023-3.908 53.404-3.048 60.291.709 5.668 1.944 7.315 2.97 3.959zm-69.4-242.72c33.947-3.066 88.713-10.587 89.954-12.354.3-.428 2.355-1.305 4.565-1.95s4.91-1.83 6-2.634c4.379-3.231.162-3.434-21.463-1.03-30.05 3.338-54.203 5.132-93.556 6.949-18.7.863-42.325 2.024-52.5 2.58-25.316 1.382-28.547 1.234-34.738-1.587-5.102-2.325-16.159-12.27-19.465-17.509-2.801-4.438-3.015-1.364-.28 4.034 4.052 7.994 10.712 14.535 17.323 17.008 10.653 3.986 41.04 4.885 67.16 1.987 4.675-.519 19.075-1.656 32-2.527 12.925-.87 31.748-2.24 41.83-3.042 19.354-1.541 23.781-1.737 23.062-1.018-.361.362-37.119 3.428-72.89 6.08-4.126.306-14.7 1.265-23.5 2.131-11.408 1.123-22.316 1.442-38 1.113-19.777-.416-22.709-.702-29-2.83-11.978-4.05-18.052-12.12-25.58-33.986-3.54-10.283-3.66-10.544-4.472-9.732-1.093 1.094 3.759 17.449 7.346 24.76 4.345 8.856 13.399 18.556 20.479 21.94 3.18 1.522 7.852 2.56 14 3.112 13.919 1.25 71.77.306 91.726-1.496zm57-60.501c18.378-1.778 46.816-5.333 52.75-6.594 1.238-.263 2.25-1.17 2.25-2.018s-.415-1.283-.921-.97c-.507.313-8.278 1.216-17.27 2.006-8.99.79-21.288 2.182-27.328 3.091-10.963 1.651-25.787 2.308-34.688 1.538l-4.708-.408-2.182-6.59c-1.595-4.816-2.255-9.547-2.456-17.588l-.275-11 .796 9.682c.438 5.326 1.744 12.803 2.902 16.617 2.048 6.742 2.212 6.952 5.868 7.557 6.981 1.154 19.913.654 34.616-1.337 8.044-1.089 19.691-2.448 25.885-3.02 6.193-.573 13.373-1.311 15.956-1.642l4.695-.6 1.975-8.629c1.086-4.746 2.286-10.653 2.668-13.128 1.043-6.77 1.572-7.093 10.595-6.463 5.835.407 7.872.233 7.872-.673 0-2.366-2.414-7.864-3.45-7.859-.578.003-6.868 1.126-13.979 2.495-7.11 1.369-20.836 3.423-30.5 4.566-18.863 2.23-59.073 3.813-59.069 2.326.001-.49 6.414-.936 14.25-.99 24.08-.166 57.02-3.623 80.43-8.44 10.852-2.232 10.242-2.48 13.063 5.288 2.14 5.891 4.84 6.591 3.859 1-.362-2.063-.935-5.898-1.273-8.522-.485-3.767-.953-4.67-2.223-4.286-9.484 2.873-40.94 6.778-73.108 9.076-23.83 1.703-47.855 3.99-48.44 4.61-.657.698 1.488 28.336 2.513 32.36 2.723 10.699 5.038 12.677 13.284 11.354 2.828-.454 14.368-1.718 25.643-2.809zm356.14-3.6c4.598-.86 10.61-2.201 13.36-2.979 2.75-.777 11.525-2.548 19.5-3.935 29.384-5.11 47-8.767 47-9.76 0-.645-2.11-.791-5.75-.4-3.163.34-12.95 1.09-21.75 1.668-19.709 1.294-39.205 3.472-48.775 5.448-15.726 3.247-34.725 7.951-34.725 8.598 0 .555 7.28 1.511 21.14 2.777.902.082 5.402-.555 10-1.417zm-16.606-7.42c28.87-6.457 36.323-7.519 69.967-9.966 33.227-2.416 41.284-3.408 86.5-10.652 77.149-12.359 177.77-26.034 212.5-28.879 10.45-.856 24.85-2.215 32-3.02a6092.64 6092.64 0 0 1 32.5-3.526c48.597-5.14 87.716-10.59 147.5-20.543 24.75-4.121 51.75-8.391 60-9.49 35.82-4.769 44.595-5.778 54.5-6.27 11.81-.585 9.98-.276-19.5 3.286-24.584 2.97-62.484 8.459-83 12.019a33887.46 33887.46 0 0 1-31.5 5.448c-34.318 5.912-89.962 13.385-130.5 17.525-11 1.123-23.375 2.506-27.5 3.072s-15.375 1.708-25 2.537c-36.865 3.176-68.148 7.075-152.5 19.007-53.036 7.502-77.5 11.51-77.5 12.698 0 .598 1.57.744 3.939.365 2.166-.346 15.779-1.966 30.25-3.6 63.509-7.17 101.08-11.724 263.31-31.917 57.2-7.12 106.48-13.262 109.5-13.65a772.78 772.78 0 0 1 8-.989c30.704-3.488 111.6-14.953 155-21.969 5.225-.844 20.525-2.843 34-4.442 24.732-2.933 27.686-3.493 29.5-5.59.55-.636 3.925-2.173 7.5-3.417 13.538-4.71 20.89-12.034 25.235-25.138 1.957-5.903 2.124-8.522 2.099-32.913-.02-18-.573-31.472-1.726-42-1.952-17.814-6.595-51.3-7.2-51.917-.93-.95-.986.907-.315 10.417.765 10.82.908 28.417.201 24.75-.238-1.238-.878-2.25-1.423-2.25s-.786.337-.539.75 1.007 9.525 1.686 20.25c1.989 31.407-.814 63.513-6.066 69.5-8.147 9.285-10.472 11.465-14.663 13.743-7.866 4.275-29.772 9.489-47.59 11.327-2.86.295-9.024 1.21-13.7 2.033s-13.45 2.17-19.5 2.991c-6.05.822-14.15 2.127-18 2.9s-10.6 1.9-15 2.505c-9.036 1.244-36.686 5.468-49.5 7.561-24.938 4.074-141.9 19.054-327.5 41.945-158.85 19.592-337.62 44.28-340.34 47.001-.62.62 1.43 1.226 7.84 2.319 9.828 1.674 13.92 1.248 36.534-3.811zm713.97-94.153c4.4-.48 13.175-1.565 19.5-2.412s13.461-1.733 15.857-1.97c9.314-.922 25.873-5.638 34.017-9.688 9.364-4.657 17.931-11.896 21.709-18.342 3.16-5.393 6.215-15.963 7.058-24.43.805-8.082 2.201-12.277 2.296-6.899.14 8.004-2.98 21.17-6.689 28.228-7.36 14.008-17.624 22.197-33.248 26.532-20.129 5.584-51.933 10.469-65 9.983-1.925-.071.1-.522 4.5-1.002zm99.658-69.86c0-1.375.227-1.938.504-1.25s.278 1.812 0 2.5-.504.125-.504-1.25zm-1.158-7.187c0-1.936-.236-6.398-.525-9.917-.398-4.84-.278-5.833.49-4.083 1.17 2.66 1.726 15.829.712 16.843-.372.372-.677-.907-.677-2.843zm-987.17 149.01l12.445-2.175-.656-11.575c-1.892-33.352-1.735-32.075-3.946-32.075-5.188 0-19.67 2.364-19.67 3.21 0 .522 1.237.704 2.75.404 1.512-.3 4.987-.657 7.72-.794l4.97-.25 2.412 6.966c2.666 7.7 3.771 17.824 2.714 24.87-1.181 7.878-2.065 5.058-2.087-6.658-.015-7.924-.552-12.988-1.82-17.14l-1.797-5.891-9.681.567c-9.573.562-19.686 2.354-29.69 5.262l-5.154 1.498.831 6.08c.458 3.344 2.406 10.61 4.33 16.147 3.95 11.372 3.856 14.214-.164 4.898-1.464-3.393-3.038-6.169-3.498-6.169-1.057 0-1.055.082.257 7.614 1.088 6.25 1.11 6.279 4.75 6.664 10.475 1.107 23.408.57 34.984-1.452zm-29.375-.748c.366-.593 2.102-1.086 3.857-1.097 2.923-.018 19.28-2.057 27.69-3.453 2.869-.476 3.096-.402 1.261.41-1.922.85-12.187 2.493-29.117 4.66-2.98.381-4.146.217-3.69-.52zm4.612-39.17c3.265-.642 5.936-1.56 5.936-2.038 0-1.094.695-1.127-13.462.639-6.58.82-12.092 1.492-12.25 1.492-.159 0-.288 1.323-.288 2.94v2.94l7.064-2.402c3.886-1.322 9.736-2.929 13-3.571zm-289.42 85.537c-2.121-.778-5.3-2.306-7.063-3.396l-3.206-1.981-1.22-14.284c-1.94-22.731-5.1-43.891-10.37-69.456-.586-2.845-1.115-8.92-1.174-13.5l-.11-8.327 9-.632c42.847-3.008 46.598-3.172 47.69-2.079.834.834.761 1.565-.282 2.823-2.106 2.539-1.823 34.405.439 49.388 1.592 10.546 4.603 48.675 4.639 58.75.01 3.007-.4 4.25-1.402 4.25-.78 0-1.586-.508-1.792-1.128-.28-.836-1.732-.836-5.633 0-7.314 1.569-24.76 1.316-29.516-.428zm33.233-3.945c1.114-1.147.295-6.723-.88-5.997-.955.59-1.193-.745-4.92-27.503-1.846-13.258-3.396-30.096-4.042-43.924-.576-12.333-1.225-22.6-1.44-22.817-.477-.476-32.538 1.66-34.423 2.293-.885.297-1.13 1.367-.734 3.197.328 1.513 1.27 9.276 2.092 17.251.823 7.975 1.93 17.283 2.461 20.685.932 5.97 1.63 9.206 7.84 36.284l2.86 12.47 5.905 1.862c3.594 1.133 9.037 1.885 13.905 1.92 4.995.037 7.25.355 6 .849-3.635 1.437-13.227.96-19.41-.964-3.35-1.042-6.09-1.492-6.09-1s-.392.895-.87.895-1.182-2.363-1.56-5.25-2.457-12.298-4.619-20.912c-4.104-16.358-7.549-35.758-8.316-46.838a664.409 664.409 0 0 0-1.178-14.117l-.728-7.617 3.386-.6c1.862-.33 10.412-.907 19-1.283l15.614-.682.645 4.4c.355 2.419 1.09 14.073 1.633 25.898.543 11.825 1.639 25.775 2.434 31 2.94 19.304 3.874 24 4.775 24 1.24 0 .227-12.247-2.936-35.5-2.634-19.366-3.635-45.835-1.963-51.906l.8-2.905-10.308.667c-24.233 1.567-34.044 2.595-35.382 3.706-1.614 1.339-1.808 9.353-.423 17.438.471 2.75 1.515 8.825 2.32 13.5 3.62 21.035 4.782 28.752 7.142 47.408 1.385 10.949 2.634 20.005 2.777 20.123 1.303 1.082 7.442 3.67 10.476 4.417 4.897 1.205 26.894.855 28.158-.448zm15.472-1.746c-.359-.582.133-1.632 1.093-2.334 1.61-1.176 1.651-2.135.534-12.248-1.606-14.549-1.048-24.325 1.554-27.213 2.8-3.108 4.717-3.642 17.553-4.897 6.28-.614 12.881-1.38 14.668-1.7 2.85-.512 3.25-.316 3.25 1.593 0 1.198.48 3.074 1.067 4.17 1.424 2.662 4.922 23.217 4.913 28.876-.009 6.042-.733 8.365-3.059 9.817-1.073.67-7.906 1.859-15.186 2.642-20.58 2.214-25.665 2.463-26.387 1.294zm35.536-5.381l4.384-.535-.597-11.67c-.678-13.247-3.588-26.683-5.77-26.64-7.251.143-20.114 1.89-23.035 3.13-2 .848-4.137 2.643-4.75 3.99-1.51 3.312-1.347 11.477.385 19.352.786 3.575 1.445 8.19 1.465 10.254l.035 3.755 11.75-.551c6.462-.303 13.723-.792 16.134-1.086zm-23.386-3.376c-.398-.645 2.636-.968 8.508-.905 12.858.138 13.45-.477 12.614-13.092-.347-5.225-.912-11.188-1.256-13.25-.618-3.704-.682-3.75-5.245-3.739-2.54.006-6.364.3-8.498.652l-3.88.64.477 12.349c.261 6.791.16 12.348-.227 12.348-.807 0-1.973-11.02-1.984-18.75-.005-3.486-.427-5.278-1.257-5.332-.687-.045.132-.688 1.82-1.43 1.689-.74 6.639-1.454 11-1.585l7.93-.238 1.146 4.558c1.213 4.827 1.839 13.302 1.537 20.81-.254 6.306-3.178 7.966-14.028 7.966-4.42 0-8.316-.451-8.657-1.003zm288.83-32.715c-1.746-.218-3.648-.968-4.226-1.664-1.272-1.533-3.156-10.28-6.611-30.698-1.43-8.442-3.087-15.94-3.685-16.66-.598-.72-.807-1.589-.465-1.931.95-.95 17.62-3.94 37.914-6.8 10.037-1.416 19.243-2.793 20.46-3.06 1.508-.333 2.543.137 3.262 1.48 2.153 4.022 5.83 29.556 5.625 39.05-.071 3.29-.501 4.5-1.598 4.5-1.173 0-1.747-2.393-2.635-11-1.348-13.06-3.5-29.875-3.877-30.307-.148-.169-5.066.619-10.93 1.75s-10.861 2.057-11.108 2.057-.45.45-.45 1c0 .596 3.8 1 9.4 1h9.4l1.723 7.748c2.06 9.254 1.671 25.87-.639 27.365-3.185 2.061-12.185 4.11-24.384 5.552-7.15.845-13.288 2-13.64 2.568-.364.586-.888.218-1.21-.85-.855-2.825-4.387-25.096-4.978-31.382-.93-9.898 1.037-1.989 3.357 13.5 1.236 8.25 2.381 15.248 2.545 15.552.573 1.058 24.975-2.067 31.537-4.039l6.612-1.986.66-8.264c.635-7.938-.359-16.939-2.489-22.542l-.955-2.513-14.22.583c-7.928.324-16.825 1.284-20.111 2.17-3.241.873-6.129 1.352-6.417 1.063-.288-.288 0-.524.642-.524s1.167-.45 1.167-1-2.025-1-4.5-1c-3.286 0-4.5.395-4.5 1.465 0 .806 1.347 7.782 2.993 15.504s3.286 17.187 3.644 21.035l.65 6.996 8.107-.001c8.53-.001 16.52-1.213 35.839-5.435 13.782-3.012 12.767-2.918 12.767-1.182 0 .929-4.835 2.72-14.75 5.462-19.312 5.342-29.553 6.737-39.926 5.438zm70.256-12.152c-.389-.63-.116-1.33.606-1.556 2.43-.762 7.278-1.707 12.53-2.442 5.093-.713 7.144-1.605 6.097-2.652-.286-.286-4.186-.803-8.666-1.148-12.304-.95-9.769-1.924 3.102-1.193 6.188.351 13.163.403 15.501.114 3.52-.435 4.25-.237 4.25 1.153 0 1.484.894 1.6 7.75 1 4.263-.371 7.837-.74 7.944-.818s-.13-4.856-.525-10.615l-.72-10.473-1.278 9.5c-.703 5.225-1.759 9.95-2.346 10.5-.753.705-.843-.18-.306-3 .948-4.982.661-25.211-.44-31.11-.452-2.414-.466-4.39-.033-4.39.76 0 2.954 8.578 2.954 11.549 0 .798.503 1.45 1.117 1.45.67 0 .875-.9.513-2.25-.331-1.237-.609-4.837-.616-8l-.014-5.75h-4.5c-4.305 0-5.9 1.185-3.25 2.413.688.318-1.675.336-5.25.038-6.098-.507-28.32.994-32.31 2.183-1.583.472-1.784 1.598-1.607 8.977.112 4.64-.086 8.726-.44 9.08-.354.354-.643-3.932-.643-9.524 0-8.157-.283-10.167-1.433-10.167-2.773 0-3.116 7.338-.91 19.5.3 1.65.763 8.063 1.03 14.25.423 9.81.282 11.25-1.101 11.25-.872 0-1.612-.112-1.644-.25-.032-.137-.443-5.2-.914-11.25-.47-6.05-1.434-16.498-2.14-23.218-.707-6.72-1.02-12.484-.695-12.808 1.409-1.408 26.634-3.344 41.266-3.167l15.959.194.816 3.5c1.404 6.021 2.5 42.355 1.319 43.686-1.143 1.288-25.883 4.874-40.92 5.931-6.576.463-9.554.318-10.052-.487zm-364.83-1.858c-2.902-.304-3.838-.886-4.156-2.582-.699-3.724-3.754-35.69-4.328-45.28l-.544-9.09 17.387-.741c9.563-.408 18.947-.818 20.853-.91 3.41-.167 3.485-.082 4.765 5.33 1.197 5.068 3.874 50.73 3.023 51.58-1.755 1.755-25.864 2.858-37 1.692zm29.496-4.914c2.86-.472 3.75-1.09 3.75-2.596 0-1.262-.495-1.786-1.369-1.45-1.074.411-1.514-1.559-2.046-9.144-.735-10.5-3.095-25.75-4.596-29.697-.923-2.43-1.131-2.47-12.397-2.47-10.798 0-11.496.121-12.13 2.121-1.53 4.816 2.025 27.632 5.433 34.878l1.646 3.5 10.455-.063c9.937-.06 10.284.007 6.997 1.348-4.56 1.86-17.685 1.305-19.047-.807-3.182-4.932-6.154-18.066-6.67-29.478l-.544-12 6.384-1.188c6.671-1.243 18.097-.5 19.89 1.294.533.533 1.696 4.102 2.586 7.931 2.87 12.351 3.245 12.614 3.33 2.338.043-5.293-.213-11.079-.568-12.857-.617-3.081-.814-3.203-4.25-2.613-1.982.34-9.344.908-16.36 1.262-8.76.441-13.104 1.062-13.865 1.98-.82.987-.555 5.447 1.016 17.094 1.169 8.668 2.296 19.134 2.504 23.26s.43 7.612.49 7.75c.237.534 25.82.193 29.361-.393zm425.58-6.638c-2.017-.671-3.91-1.464-4.208-1.762-.297-.297-1.027-6.577-1.623-13.954-.596-7.376-1.554-15.458-2.13-17.959-.576-2.5-1.035-6.258-1.02-8.35.016-2.384-.505-4.01-1.394-4.35-2.562-.984.384-4.386 5.878-6.79 6.7-2.933 10.705-3.502 29.55-4.203 8.588-.319 17.19-.641 19.115-.716 2.488-.097 3.5.292 3.5 1.346 0 1.848-5.343 2.875-15.5 2.98-9.778.1-28.058 2.555-34.786 4.671-4.16 1.309-5.167 2.017-4.648 3.269 3.484 8.393 4.567 13.603 5.626 27.044l1.178 14.956 5.452.68c3 .375 9.103.448 13.565.163 7.978-.51 28.457-4.366 29.797-5.61.377-.35.047-3.336-.734-6.636-1.453-6.14-1.717-20.864-.584-32.5.677-6.943 2.561-8.492 2.742-2.252.228 7.862 2.5 38.814 2.945 40.109.292.85 1.302 1.146 2.714.791 2.68-.672 5.269.676 4.302 2.24-.378.612-1.589 1.113-2.69 1.113s-4.113.63-6.692 1.401c-15.593 4.663-42.406 6.962-50.356 4.318zm-395.6-.665c-2.348-.382-4.735-1.16-5.305-1.73-1.979-1.98-4.186-19.834-4.306-34.825l-.119-15 7-.236c3.85-.13 12.85-.738 20-1.352 15.213-1.305 16.5-1.312 17.71-.102 1.123 1.122 5.72 25.32 5.76 30.317.017 1.995.705 4.188 1.53 4.873 1.015.842 1.5 3.102 1.5 6.986v5.742l-4.319 1.65c-10.335 3.946-27.793 5.573-39.45 3.677zm31.848-6.07c2.944-.558 5.68-1.346 6.08-1.75.4-.404.093-5.235-.684-10.735-.777-5.5-2.049-14.86-2.827-20.8-.778-5.941-1.656-11.043-1.952-11.338-.295-.295-3.16.035-6.366.734l-5.829 1.27 4.92 1.104c3.728.836 4.964 1.58 5.1 3.067.1 1.08.683 5.338 1.298 9.463 1.467 9.854 2.194 24 1.234 24-.418 0-1.068-5.556-1.446-12.346s-1.23-14.542-1.896-17.225c-1.175-4.739-1.339-4.901-5.71-5.681-2.513-.449-8.823-.35-14.289.225-5.384.565-10.268 1.028-10.854 1.028-.726 0-.833 2.626-.338 8.25.855 9.69 2.682 17.262 5.497 22.78 2.333 4.574 3.026 4.682 16.734 2.618 4.537-.683 8.25-.915 8.25-.516 0 1.374-11.519 3.137-21.245 3.252-8.569.102-9.746.327-9.75 1.865-.004 1.586 1.344 1.75 14.359 1.75 7.9 0 16.772-.456 19.715-1.015zm-29.92-7.235c-1.104-1.788-2.544-5.388-3.2-8-1.258-4.999-3.495-6.727-2.59-2 .29 1.512.818 5.112 1.173 8 .618 5.018.78 5.25 3.635 5.25h2.987zm59.884 8.44c-2.538-.507-3.641-1.354-4.15-3.19-1.208-4.362-.976-9.754.444-10.299 1.098-.421 1.022-2.267-.429-10.357-2.754-15.363-3.435-26.661-1.695-28.105.87-.722 8.181-1.577 18.56-2.17 14.04-.8 18.452-1.435 24.5-3.523 4.058-1.4 7.627-2.546 7.932-2.546 2.008 0 7.456 25.649 8.417 39.63.374 5.429 1.127 10.163 1.675 10.52 3.47 2.262-6.63 6.343-22.077 8.92-7.612 1.268-28.837 1.986-33.177 1.12zm41.441-6.679c3.841-.868 7.345-1.939 7.785-2.38.681-.68-.102-8.655-3.956-40.277-.85-6.973-1.109-7.107-8.199-4.244-5.24 2.117-9.084 2.732-22.71 3.634l-16.403 1.085.01 4.586c.006 2.522 1.086 11.336 2.4 19.586s2.183 15.338 1.93 15.75-1.106.75-1.899.75c-1.773 0-1.85 1.173-.191 2.904 1.712 1.785 31.643.775 41.234-1.393zm-33.855-.618c-.23-.766-1.805-8.593-3.5-17.393s-3.354-16.949-3.685-18.109c-.77-2.695 2.275-3.388 14.932-3.398 11.147-.01 21.758-1.594 23.183-3.462.703-.922 1.54-1.08 2.5-.474.793.502 1.165.92.827.928-.339.008.25 2.603 1.308 5.765 1.987 5.939 3.601 24.95 2.494 29.364-.447 1.78-1.31 2.403-3.393 2.45-1.537.034-6.262.822-10.502 1.75-4.24.927-10.314 1.614-13.5 1.526-3.738-.103-4.55-.293-2.292-.536 5.944-.64 20.296-3.213 24.397-4.375l3.897-1.104-.61-12.662c-.502-10.445-1.873-19.557-3.15-20.94-.141-.153-1.557.232-3.146.856-1.588.623-9.817 1.512-18.285 1.974s-15.809 1.254-16.313 1.758c-.555.555-.318 3.237.602 6.803 2.236 8.676 5.83 29.5 5.2 30.13-.3.299-.733-.083-.964-.85zm333.1 7.107c-1.633-4.198-5.704-24.17-5.862-28.758-.25-7.235.726-7.569 1.536-.526.367 3.181 1.697 10.267 2.957 15.747l2.291 9.963 6.192-.13c9.57-.2 28.61-1.449 29.087-1.906.235-.226-.207-4.793-.981-10.15s-1.404-13.21-1.4-17.45c.01-8.943.342-8.714-11.046-7.616-8.43.812-29.247 1.867-25 1.266 16.25-2.297 28.822-3.555 32.754-3.277l4.754.336.516 10.5c.284 5.775.844 14.398 1.246 19.162l.73 8.663-3.615.578c-1.99.318-10.181.876-18.206 1.24-12.175.554-14.655.928-14.98 2.26-.335 1.378-.468 1.391-.972.097zm69.274-1.505c0-.685 1.39-1.523 3.087-1.862l3.086-.618-2.101-3.4c-1.156-1.87-2.738-5.136-3.516-7.258l-1.415-3.857-.241 5.5c-.133 3.025-.287 6.366-.342 7.424-.108 2.06-2.023 3.25-2.912 1.812-.571-.924-2.344-20.063-3.172-34.236-.273-4.675-.736-9.666-1.03-11.091-.312-1.519.003-3.01.762-3.601 2.446-1.91 15.655-3.3 37.632-3.96l22.013-.663.522 3.407c.757 4.937 1.691 16.537 2.529 31.407.622 11.048.497 13.3-.835 15-.861 1.1-2.467 2.077-3.567 2.171-1.1.095-4.925.658-8.5 1.252-5.906.982-25.316 2.823-37.25 3.535-3.275.195-4.75-.104-4.75-.962zm21.918-6.596c5.675-.95 24.034-5.67 24.871-6.394.16-.137.665-4.695 1.124-10.128.827-9.79-.115-22.979-1.759-24.624-1.47-1.47-19.873-2.925-23.683-1.873-2.854.788-3.47.69-3.47-.555 0-1.254-.902-1.385-5.25-.768-2.888.41-7.941 1.015-11.23 1.344-5.348.535-6.078.882-6.921 3.286-.627 1.789-.52 5.052.32 9.75 1.664 9.312 3.566 9.402 2.789.132-.4-4.768-.211-7.233.605-7.898 1.616-1.318 11.563-4.193 14.118-4.08 2.332.102-8.968 3.873-11.671 3.895-1.564.012-1.687.948-1.224 9.263.963 17.305 1.45 20.933 3.401 25.343 1.908 4.312 2.05 4.407 6.674 4.407 2.598 0 7.686-.496 11.306-1.101zm22.634.115l8.052-.014-.75-6.75c-.413-3.712-.814-7.65-.89-8.75-.077-1.1-.795.762-1.596 4.138l-1.456 6.137-7.956 2.3c-4.375 1.264-7.955 2.717-7.955 3.228s1.012.659 2.25.327c1.237-.331 5.873-.609 10.302-.616zm33.495-5.39c-2.01-5.288-3.269-11.532-5.596-27.77-1.343-9.366-2.695-17.44-3.005-17.942-.31-.501-1.212-.912-2.005-.912s-1.44-.626-1.44-1.391c0-1.542 2.895-2.472 9.868-3.17 2.547-.254 7.106-.933 10.13-1.509 3.026-.576 11.576-1.864 19-2.863 7.426-.999 15.076-2.107 17-2.463 3.895-.719 7.437.791 5.219 2.225-1.036.67-.999 1.915.191 6.484 3.359 12.895 4.404 36.04 1.811 40.106-.38.595-.696 1.532-.705 2.082-.008.55-2.04 2.004-4.515 3.232-5.46 2.709-26.399 5.386-35.75 4.572-4.271-.372-6.25-.19-6.25.575 0 2.098-3.046 1.13-3.953-1.255zm36.724-5.708c4.55-.548 9.184-1.334 10.3-1.746 2.003-.741 2.004-.777.108-2.964-1.793-2.067-2.142-2.12-5.3-.8-5.38 2.246-18.28 4.603-24.587 4.491-5.326-.095-5.006-.21 3.977-1.435 10.819-1.474 20.044-3.857 23.48-6.063 1.97-1.265 2.249-2.282 2.236-8.172-.026-11.887-4.71-27.761-7.895-26.761-4.021 1.262-26.467 5.492-26.89 5.067-.855-.854 4.07-2.182 16.718-4.508 11.933-2.194 12.47-2.213 13.74-.477 1.756 2.402 2.494 1.464 1.755-2.231-.476-2.378-1.05-2.934-2.757-2.668-1.186.184-7.331 1.277-13.656 2.429s-13.3 2.304-15.5 2.562c-9.342 1.093-16.747 2.274-17.219 2.746-.278.278.156 2.45.966 4.825 1.17 3.433 5.196 22.804 7.358 35.397.35 2.036.781 2.094 12.628 1.706 6.746-.221 15.989-.85 20.538-1.398zm-28.095-10.782c-1.526-4.602-2.6-8.542-2.387-8.756.765-.764 5.906 13.372 5.539 15.228-.214 1.078-1.572-1.711-3.152-6.472zm-3.035-12.344c-.337-1.26-.574-3.19-.526-4.29.047-1.1.498-.245 1.002 1.9.975 4.156.558 6.249-.476 2.39zm63.706 23.395c-.582-.377-1.578-6.783-2.213-14.237s-1.815-17.007-2.623-21.228c-.808-4.222-1.412-10.738-1.343-14.482l.126-6.807 32.603-7.235c53.152-11.796 95.632-16.877 181.6-21.722 15.717-.886 34.104-2.582 44-4.06 18.912-2.823 46.5-4.375 46.5-2.616 0 .589 1.35 3.244 3.002 5.9 3.893 6.262 5.959 16.275 5.98 28.987.02 11.342-.974 15.315-3.829 15.315-1.042 0-7.016 1.573-13.275 3.495-6.258 1.922-16.329 4.179-22.379 5.015-6.05.835-17.3 2.627-25 3.981-24.968 4.39-59.474 9.387-83 12.019-120.55 13.487-152.12 17.097-156.55 17.898-1.4.254-3.023.153-3.606-.223zM900.294 245c9.987-2.085 19.946-3.326 36.815-4.586 16.957-1.267 106.14-10.68 138-14.564 22.23-2.71 51.161-6.905 57.941-8.4 2.233-.492 10.584-1.86 18.56-3.038s16.524-2.742 19-3.474c5.798-1.714 13.746-5.297 14.517-6.544.33-.535 1.65-.972 2.935-.972 3.06 0 3.549-1.561 3.542-11.332-.01-12.91-2.524-25.63-5.889-29.786l-1.868-2.307-12.87 1.194c-7.077.657-18.268 2.126-24.868 3.264-16.01 2.76-23.896 3.465-71.854 6.417-46.645 2.872-54.234 3.54-86.646 7.638-46.998 5.94-62.633 8.655-89 15.452-7.975 2.055-14.658 3.87-14.852 4.034-.194.163.35 2.463 1.208 5.111.858 2.648 2.02 8.865 2.58 13.815 3.154 27.806 3.422 29.5 4.664 29.5.698 0 4.336-.64 8.084-1.422zm-3.184-7.175c4.602-.748 12.277-.847 11.847-.153-.256.413-3.476.689-7.156.614s-5.791-.282-4.691-.461zm28.23-4.059c.678-.274 2.027-.29 3-.037.973.254.42.478-1.23.498-1.65.02-2.447-.187-1.77-.46zm7.031-1.05c1.244-.24 3.044-.231 4 .02.956.25-.061.445-2.261.434-2.2-.01-2.983-.216-1.739-.455zm10.738-1.34c2.75-.428 6.8-.755 9-.725 3.483.046 3.289.151-1.5.813-3.025.418-7.075.745-9 .726-2.805-.028-2.507-.19 1.5-.814zm15.764-1.671c1.52-.23 3.77-.224 5 .013 1.23.238-.013.426-2.764.418-2.75-.008-3.756-.202-2.236-.431zm13.236-1.321c3.3-.41 8.25-.725 11-.7 4.742.041 4.665.081-1.5.774-3.575.402-8.525.717-11 .7-4.067-.027-3.923-.101 1.5-.774zm18.764-1.68c1.52-.23 3.77-.223 5 .014 1.23.238-.014.426-2.763.418-2.75-.008-3.757-.202-2.237-.431zm7.82-.662c.229-.21 4.917-.621 10.417-.915 7.228-.386 8.475-.308 4.5.281-5.806.862-15.623 1.279-14.917.634zm23.18-2.337c1.52-.23 3.77-.224 5 .013 1.23.238-.014.426-2.764.418-2.75-.008-3.756-.202-2.236-.431zm10-1c1.52-.23 3.77-.224 5 .013 1.23.238-.014.426-2.764.418-2.75-.008-3.756-.202-2.236-.431zm17.236-1.819c5.5-.7 11.575-1.256 13.5-1.233 1.925.022-.775.616-6 1.32s-11.3 1.258-13.5 1.233c-2.2-.025.5-.619 6-1.32zm19.262-2.17c1.244-.24 3.044-.231 4 .02.956.25-.062.445-2.262.434-2.2-.01-2.982-.216-1.738-.455zm6.738-.812c.55-.199 9.305-1.55 19.456-3.003s25.901-3.957 35-5.564c26.461-4.674 48.172-8.039 49.347-7.647 1.023.341-4.78 1.439-38.803 7.342-28.882 5.01-69.762 10.59-65 8.872zm-183.42-2.065c.048-1.165.285-1.402.604-.604.29.722.254 1.584-.079 1.916-.332.333-.568-.258-.525-1.312zm291.52-15.091c.605-.454 1.385-1.501 1.732-2.326.445-1.054.564-.93.4.417-.127 1.054-.907 2.101-1.732 2.326-.965.263-1.107.114-.4-.417zm-286.1-1.384c5.066-1.047 9.159-1 5 .058-1.65.42-4.35.765-6 .767-2.522.003-2.363-.129 1-.825zm11.231-1.598c.677-.274 2.027-.29 3-.037.973.253.42.477-1.23.498-1.65.02-2.447-.187-1.77-.461zm6.02-1.006c.687-.278 1.812-.278 2.5 0s.124.504-1.25.504-1.938-.227-1.25-.504zm6-1c.687-.278 1.812-.278 2.5 0s.124.504-1.25.504-1.938-.227-1.25-.504zm265.56-4.838c.01-3.3.191-4.53.414-2.732.223 1.797.218 4.497-.01 6-.228 1.502-.41.032-.405-3.268zm-259.5 3.817c.721-.29 1.584-.254 1.916.079.332.332-.259.568-1.313.525-1.165-.048-1.402-.285-.604-.604zm6-1c.721-.29 1.584-.254 1.916.079.332.332-.259.568-1.313.525-1.165-.048-1.402-.285-.604-.604zm6-1c.721-.29 1.584-.254 1.916.079.332.332-.259.568-1.313.525-1.165-.048-1.402-.285-.604-.604zm5-1c.721-.29 1.584-.254 1.916.079.332.332-.259.568-1.313.525-1.165-.048-1.402-.285-.604-.604zm5.937-.98c.687-.277 1.812-.277 2.5 0s.125.505-1.25.505-1.938-.227-1.25-.504zm7.062-1.02c.722-.29 1.585-.254 1.917.079.332.332-.259.568-1.313.525-1.165-.048-1.402-.285-.604-.604zm4.938-.98c.687-.277 1.812-.277 2.5 0s.125.505-1.25.505-1.938-.227-1.25-.504zm7.062-1.02c.722-.29 1.585-.254 1.917.079.332.332-.259.568-1.313.525-1.165-.048-1.402-.285-.604-.604zm6-1c.722-.29 1.585-.254 1.917.079.332.332-.259.568-1.313.525-1.165-.048-1.402-.285-.604-.604zm6.938-.98c.687-.277 1.812-.277 2.5 0s.125.505-1.25.505-1.938-.227-1.25-.504zm7.062-1.02c.722-.289 1.585-.254 1.917.079.332.332-.259.568-1.313.525-1.165-.048-1.402-.285-.604-.604zm6.938-.98c.687-.277 1.812-.277 2.5 0 .687.278.125.505-1.25.505s-1.938-.227-1.25-.504zm189.41-1.337c0-1.375.227-1.938.504-1.25s.277 1.812 0 2.5-.504.125-.504-1.25zm-180.41.338c.687-.278 1.812-.278 2.5 0s.125.504-1.25.504-1.938-.227-1.25-.504zm7.062-1.021c.722-.289 1.585-.253 1.917.079.332.332-.259.568-1.313.525-1.165-.048-1.402-.285-.604-.604zm8.438-1.006c.962-.252 2.537-.252 3.5 0 .962.251.175.457-1.75.457s-2.713-.206-1.75-.457zm8.48-.967c.678-.274 2.028-.29 3-.037.974.254.42.478-1.23.498-1.65.02-2.446-.187-1.77-.461zm9.02-1.006c.687-.278 1.812-.278 2.5 0s.125.504-1.25.504-1.938-.227-1.25-.504zm145.82-1.91c-.368-1.465-.476-2.857-.24-3.093.235-.235.729.771 1.097 2.236s.476 2.858.24 3.094c-.236.235-.73-.77-1.097-2.236zm-137.84.916c.677-.274 2.027-.29 3-.037.973.254.419.478-1.231.498-1.65.02-2.446-.187-1.77-.461zm10.03-1.051c1.245-.24 3.045-.23 4 .02.957.25-.061.446-2.261.435-2.2-.011-2.982-.216-1.738-.455zm9.989-.999c1.237-.238 3.262-.238 4.5 0 1.237.239.225.434-2.25.434s-3.488-.195-2.25-.434zm10.012-1.001c1.244-.24 3.044-.23 4 .02s-.062.446-2.262.435c-2.2-.011-2.982-.216-1.738-.455zm9.988-.999c1.238-.238 3.263-.238 4.5 0 1.238.239.225.434-2.25.434s-3.487-.195-2.25-.434zm9.514-1.011c1.52-.23 3.77-.224 5 .013 1.23.237-.014.426-2.764.418-2.75-.008-3.756-.202-2.236-.432zm11.212-1.343c1.84-.549 3.348-.516 3.95.086.632.632-.413.944-2.976.888-3.904-.085-3.915-.096-.974-.974zm74.615-3.03c-.676-2.258-1.045-4.289-.82-4.514s.962 1.438 1.638 3.695c.676 2.257 1.045 4.288.82 4.513s-.962-1.438-1.638-3.695zm-67.341 2.384c1.237-.238 3.262-.238 4.5 0 1.237.239.225.434-2.25.434s-3.488-.195-2.25-.434zm8-.956c.687-.278 1.812-.278 2.5 0s.125.504-1.25.504-1.938-.227-1.25-.504zm13.75-1.297c1.884-.848 12.312-1.463 11.417-.673-.23.202-3.342.638-6.917.97-4.19.388-5.79.283-4.5-.297zm14.262-1.748c1.244-.24 3.044-.23 4 .02s-.062.446-2.262.435c-2.2-.011-2.982-.216-1.738-.455zm8.488-.982c.963-.252 2.538-.252 3.5 0 .963.251.175.457-1.75.457s-2.712-.206-1.75-.457zm8.563-.994c.722-.289 1.584-.253 1.916.079.333.332-.258.569-1.312.525-1.165-.048-1.402-.285-.604-.604zm-673.62 67.415c-1.858-2.239-4.792-14.943-6.635-28.732-2.08-15.559-3.212-20-5.097-20-.803 0-1.461-.638-1.461-1.417 0-1.802 5.09-2.896 28.3-6.081 10.01-1.374 20.754-2.916 23.876-3.426 5.705-.932 9.824-.53 9.824.957 0 .44-.46.953-1.02 1.14-.654.218-.25 4.646 1.126 12.333 2.502 13.988 2.701 28.316.468 33.661-1.107 2.65-2.55 4.005-5.533 5.2-6.988 2.795-19.161 4.811-30.042 4.975-7.431.111-10.808.55-11.553 1.498-.875 1.114-1.256 1.095-2.255-.108zm13.535-7.644c2.43-1.311 24.048-4.345 25.327-3.554.567.35 1.687.094 2.488-.57 1.2-.996 1.456-.823 1.456.983 0 1.701.504 2.12 2.25 1.872 1.701-.241 2.212-.93 2.095-2.82-.086-1.374-.622-10.374-1.192-20-.66-11.145-1.583-18.803-2.541-21.09l-1.506-3.591-12.803 2.328c-7.041 1.28-17.753 3.056-23.803 3.945s-11.128 1.736-11.284 1.88c-.156.145.81 4.04 2.148 8.657 1.338 4.616 3.178 13.114 4.09 18.883 2.642 16.735 1.969 15.34 7.076 14.64 2.435-.334 5.224-1.037 6.198-1.563zm-6.02-2.452c-.403-1.025-1.858-6.847-3.233-12.939-3.895-17.253-4.375-18.698-6.214-18.698-3.326 0 .406-1.742 10.39-4.85 10.341-3.219 24.293-5.341 21.348-3.247-.825.586-3.075 1.064-5 1.062-1.925-.003-8.13 1.435-13.788 3.194-8.293 2.58-10.163 3.505-9.642 4.77 1.491 3.627 7.5 29.46 7.2 30.949-.28 1.38-.438 1.345-1.062-.242zm35.378-12.247c-.047-4.46-.323-10.31-.612-13-.41-3.81-.304-4.386.48-2.609 1.5 3.405 2.294 17.284 1.186 20.72-.8 2.479-.983 1.592-1.054-5.111zm-5.86-29.963c.95-.994 2-1.533 2.336-1.198s-.442 1.149-1.727 1.808c-2.232 1.145-2.26 1.118-.61-.61zm-408.43 40.053c-.39-.4.224-1.482 1.361-2.403 1.954-1.582 2.061-2.605 1.926-18.41-.078-9.203-.565-19.981-1.08-23.95-1.437-11.063-1.298-13.591.75-13.598 2.724-.01 17.851-2.012 27.25-3.608 4.675-.793 12.662-1.747 17.75-2.12l9.25-.677.001 2.393c0 1.317.852 4.644 1.893 7.394 2.867 7.572 5.27 25.603 4.916 36.892l-.31 9.892-4.5 1.376c-2.475.757-7.65 2.069-11.5 2.914-6.255 1.375-11.956 1.96-39.5 4.061-4.125.315-7.818.245-8.207-.155zm33.707-5.53c5.5-.56 13.739-1.776 18.31-2.702 7.509-1.52 8.257-1.879 7.764-3.715-.3-1.118-.553-3.495-.56-5.282-.008-1.788-.464-3.25-1.014-3.25s-1 1.317-1 2.928c0 2.622-.557 3.136-5.342 4.927-8.226 3.077-19.816 5.16-27.866 5.005l-7.292-.14 7.5-.729c8.866-.861 17.227-2.525 25.52-5.077l6.022-1.853-.3-7.78c-.457-11.812-1.98-22.587-3.858-27.28l-1.69-4.222-9.847.395c-5.416.218-9.847.043-9.847-.39 0-.431 3.319-.785 7.375-.785s8.732-.271 10.39-.603c2.9-.58 3.094-.39 5.115 5.01 1.155 3.088 2.387 7.41 2.738 9.604 1.01 6.318 2.72 4.852 1.91-1.638-.687-5.496-3.226-16.405-3.998-17.177-.214-.213-5.033.3-10.708 1.14-5.677.84-13.246 1.794-16.821 2.12-3.575.325-9.815 1.1-13.865 1.723l-7.365 1.133.582 4.094c.32 2.252 1.316 8.82 2.213 14.594 1.123 7.234 1.465 13.856 1.1 21.289l-.531 10.789 7.683-.556c4.225-.305 12.183-1.013 17.683-1.573zm-20.875-16.075c-.934-4.67-.754-29.875.213-29.875.461 0 .81 7.425.773 16.5-.035 9.075-.131 16.5-.213 16.5-.081 0-.43-1.406-.773-3.125zm63.285 14.517c-1.122-1.352-1.09-1.79.207-2.75 1.118-.828 1.334-1.911.784-3.945-2.072-7.672-4.96-33.023-4.694-41.197l.293-9 7.5-.756c11.213-1.13 32.153-3.72 35-4.33 2.221-.475 2.765.05 4.881 4.704 3.131 6.887 7.241 27.376 7.443 37.105.127 6.115-.197 8.08-1.558 9.44-.945.945-2.028 1.41-2.406 1.031-.378-.378-1.044-7.326-1.48-15.44-.577-10.712-1.472-17.177-3.27-23.602-1.362-4.867-2.706-9.08-2.988-9.362-.863-.863-33.679 3.628-36.488 4.994-2.574 1.25-2.63 1.485-2.48 10.249.085 4.932 1.097 14.419 2.25 21.08 1.153 6.66 2.096 13.524 2.096 15.25v3.139h11.631c6.397 0 16.11-.713 21.584-1.583s10.196-1.34 10.493-1.043c1.549 1.549-1.181 3.455-6.37 4.447-18.303 3.5-40.155 4.309-42.428 1.57zm64.68-13.142c-.972-19.045-2.544-33.423-4.595-42.033-1.372-5.757-1.54-7.886-.665-8.442.644-.41 6.12-.766 12.17-.793 11.436-.051 29.285-1.388 33.86-2.536 2.148-.54 2.64-.314 2.64 1.205 0 1.027 1.392 8.163 3.092 15.858 2.536 11.476 3.02 15.608 2.695 22.99-.234 5.294-.988 10.03-1.832 11.5-.79 1.376-1.44 3.4-1.445 4.5-.01 2.217-2.41 2.733-28.01 6.014-8.296 1.064-13.401 2.177-14.11 3.077-2.476 3.146-3.165 1.09-3.8-11.34zm12.91 4.75c1.65-.42 2.213-.816 1.25-.881-2.886-.196-1.973-2.12 1-2.107 1.513.006 7.867-.752 14.121-1.686l11.371-1.698-.54-17.064c-.594-18.787-1.938-26.107-4.588-24.999-6.564 2.745-11.745 3.658-21.364 3.765-5.913.065-10.75.207-10.75.315s.886 3.945 1.97 8.526c2.079 8.794 5.05 27.262 5 31.072-.054 3.98-1.648-.23-2.364-6.243-.36-3.025-1.812-11.944-3.226-19.821-1.414-7.877-2.379-14.514-2.142-14.75s5.766-.678 12.288-.982c7.663-.357 13.825-1.22 17.416-2.436 3.065-1.039 5.707-1.464 5.89-.947.577 1.619 2.168 1.017 2.152-.814-.034-3.916-1.135-4.233-9.516-2.74-4.383.781-13.706 1.436-20.719 1.455-7.012.02-12.75.429-12.75.91s.64 2.688 1.423 4.906c2.597 7.36 5.454 29.982 5.554 43.969.02 2.902.317 3.237 2.773 3.131 1.513-.065 4.1-.461 5.75-.881zm382.75 6.286l-7.25-.373v-3.32c0-4.214-5.616-35.453-7.053-39.233-.594-1.562-.817-4.239-.496-5.95.556-2.964.943-3.188 8.278-4.8 8.582-1.886 38.005-4.31 40.533-3.34 4.287 1.645 8.698 28.45 7.099 43.14l-.861 7.908-6.119 2.199c-3.365 1.21-9.44 2.507-13.5 2.885-4.06.377-8.731.814-10.38.971s-6.263.118-10.25-.087zm-.7-3.18c.752-.708 22.065-2.745 36.45-3.483 2.386-.123 2.487-.38 2.21-5.626-.394-7.433-3.027-29.267-4.311-35.747-.68-3.43-1.541-5.25-2.486-5.25-1.983 0-42.825 5.078-43.106 5.36-.124.124.929 3.807 2.34 8.183 1.57 4.864 3.203 13.69 4.202 22.707 1.554 14.012 2.275 16.139 4.701 13.856zm1.216-15.244c-.202-5.699-1.172-13.884-2.156-18.19s-1.589-8.026-1.344-8.27c.687-.688 31.837-3.632 32.406-3.063 1.387 1.387 2.27 9.333 2.188 19.662-.111 13.922-.532 12.688-1.395-4.089-.357-6.924-.958-13.091-1.337-13.704-.504-.814-3.92-.731-12.66.308-6.582.782-12.643 1.444-13.468 1.47-3.528.109-4.134 1.463-2.955 6.6.62 2.703 1.426 9.865 1.79 15.915l.665 11 12.629-.35c8.464-.235 12.853.012 13.309.75.479.774-2.555 1.1-10.254 1.1-6.014 0-12.31.275-13.992.611l-3.059.612zm30.234 8.138c-.883-.57-1.014-.975-.32-.984.65-.008 1.376-1.028 1.614-2.266.313-1.627.471-1.35.57 1 .152 3.639.198 3.583-1.864 2.25zm-478 5.984c-3.397-.389-1.803-.692 6.5-1.236 10.775-.705 16.5-1.796 19.5-3.714 2.392-1.53 2.097-25.408-.425-34.382-1.06-3.767-2.577-7.1-3.373-7.405-3.686-1.414-28.205 3.83-28.198 6.031.011 3.52 3.334 21.055 5.037 26.577 1.077 3.495 1.922 7.32 1.877 8.5-.044 1.18-1.176-1.23-2.513-5.355-2.604-8.027-5.697-25.762-5.204-29.838.384-3.182 4.752-4.755 18.677-6.726 11.95-1.691 11.69-1.817 14.478 7.025 2.734 8.675 3.799 19.4 2.688 27.085-.553 3.825-1.014 7.468-1.025 8.096-.055 3.171-17.665 6.53-28.02 5.342zm998.06-2.243c-5.31-1.485-5.584-2.202-6.426-16.879-.327-5.699-1.264-13.287-2.081-16.862s-1.503-7.575-1.522-8.89c-.02-1.314-.823-2.965-1.785-3.669-1.64-1.2-1.6-1.44.643-3.828 3.183-3.388 9.582-5.371 21.106-6.541 14.88-1.511 37.242-1.775 37.698-.445.628 1.83-2.118 2.347-18.066 3.402-16.14 1.068-28.63 2.73-28.634 3.812 0 .362 7.312.61 16.25.551l16.251-.108-16 .67c-9.963.419-16.898 1.16-18.38 1.964-2.205 1.197-2.338 1.718-1.786 6.998.544 5.205 3.166 17.66 5.784 27.48l1.039 3.897 13.172-.618c7.244-.34 15.647-.816 18.672-1.06 4.439-.356 4.921-.263 2.5.487-3.743 1.16-7.744 1.58-23.516 2.468l-12.516.704-1.646-8.715c-.905-4.793-1.91-8.98-2.234-9.304-1.329-1.329-1.541.72-.593 5.72.553 2.914 1.005 7.45 1.005 10.082v4.783l6.669.715c8.099.867 19.923-.034 31.33-2.387 9.994-2.06 9.364-.384 7.702-20.499-.793-9.605-.77-13.009.093-13.543.634-.392 1.454-3.956 1.823-7.92.368-3.963.999-7.207 1.401-7.207 1.148 0 1.98 5.598 1.99 13.375.01 8.286 1.71 28.73 2.578 30.991.427 1.113 1.412 1.385 3.504.967 2.21-.442 2.91-.21 2.91.965 0 1.59-4.38 3.466-9.65 4.133-1.618.205-7.4 1.338-12.848 2.519-12.178 2.638-30.238 3.526-36.438 1.792zm-492.27-2.815c-2.928-1.15-3.466-2.25-4.186-8.561-.571-5.014-2.512-12.494-3.597-13.865-.99-1.252-6.015-21.957-6.301-25.967-.209-2.918-.098-2.987 6.788-4.243 18.397-3.356 47.117-7.012 48.659-6.196 1.265.67 1.814 2.96 2.313 9.642.36 4.82 1.137 11.077 1.726 13.905 1.857 8.91-.047 25.844-2.616 23.274-.54-.54-1.385-5.481-1.5-8.772-.058-1.667-.52-2.189-1.582-1.781-1.243.476-1.5-.59-1.5-6.212 0-7.925-2.403-16.984-4.743-17.882-2.731-1.048-35.232 3.331-36.81 4.96-.454.468 2.504 19.134 3.48 21.963.746 2.165.649 2.584-.5 2.143-.99-.38-1.423.175-1.412 1.81.024 3.73 2.461 10.912 4.043 11.913 4.366 2.763 27.494-.188 36.015-4.595 3.487-1.803 4.926-1.853 4.926-.17 0 1.49-8.637 6.031-14.5 7.622-5.85 1.587-25.475 2.28-28.704 1.012zm-4.281-35.175c-.364-2.338-.87-4.998-1.127-5.911-.375-1.337.861-1.96 6.323-3.187 14.082-3.163 32.576-4.766 34.365-2.977.582.582 1.904 3.706 2.938 6.942l1.879 5.883.054-7.125c.081-10.792-.657-13.375-3.822-13.374-3.68 0-45.132 6.672-45.837 7.378-.855.855 3.83 16.622 4.94 16.622.553 0 .673-1.772.287-4.25zm-382.76 34.51c-2.134-.497-2.346-3.26-.25-3.26 1.95 0 1.91-1.592-.477-19.596-1.087-8.197-2.1-18.943-2.25-23.879l-.273-8.974 10-1.319c5.5-.725 13.963-1.897 18.807-2.604 7.847-1.144 8.896-1.112 9.625.294 1.43 2.759 6.914 29.377 7.124 34.578.317 7.834-.004 11.874-1.071 13.5-1.666 2.537-2.682-.424-3.431-10-.73-9.323-4.782-34.561-5.696-35.475-.3-.3-5.835.36-12.3 1.465-6.467 1.105-13.796 2.01-16.288 2.01h-4.53l.544 4.25c.3 2.337 1.93 10.775 3.622 18.75s3.08 17.148 3.085 20.385l.008 5.885 12.742-.726c7.008-.4 13.12-.96 13.581-1.244.462-.286.601-1.482.31-2.66-.29-1.177-1.015-8.89-1.609-17.14-.942-13.088-2.484-25.37-3.27-26.045-.672-.577-14.535 1.843-17.39 3.037l-3.25 1.357 2.89 8.495c2.91 8.556 6.409 24.576 5.554 25.43-.253.253-.766-.83-1.141-2.407-2.459-10.355-5.728-22.306-7.416-27.108-1.086-3.09-1.868-5.699-1.738-5.796 1.507-1.125 10.525-3.456 15.196-3.928 3.277-.332 7.102-.871 8.5-1.199 1.93-.453 2.276-.311 1.436.589-.809.867-.746 2.712.234 6.88 1.151 4.896 3.31 29.001 3.357 37.49.014 2.65.196 2.76 3.515 2.138 4.696-.881 4.536.937-.25 2.838-4.951 1.967-33.25 4.976-37.5 3.988zm-238.59-6.26c0-1.376.227-1.938.504-1.25s.278 1.812 0 2.5-.504.124-.504-1.25zm1191.3.89c-1.132-1.832 1.203-2.555 12.406-3.842 5.864-.673 13.108-1.635 16.096-2.137 2.988-.501 8.163-.919 11.5-.927 3.336-.008 6.741-.452 7.566-.985 1.843-1.19 2.723-1.126-16-1.19-14.207-.049-14.79-.118-7-.832 4.675-.429 11.762-.824 15.75-.878l7.25-.1v-9.75c0-10.719-1.719-27.275-2.962-28.577-1.281-1.342-32.007-1.256-36.6.103-2.236.66-5.112 2.317-6.393 3.68-2.24 2.384-2.302 2.887-1.651 13.261.372 5.93.87 12.808 1.108 15.283.278 2.884.166 3.629-.31 2.074-.41-1.334-1.294-2.609-1.966-2.833-.892-.298-1.223 1.663-1.223 7.26 0 9.692-2.15 9.972-3.216.418-3.378-30.277-4.358-41.549-3.677-42.32 1.951-2.21 41.147-5.278 53.105-4.158l7.568.71 1.182 7.674c.65 4.222 1.432 14.875 1.739 23.675.519 14.89.425 16.12-1.356 17.71-1.842 1.647-18.008 5.117-19.51 4.188-.4-.247-5.364.2-11.03.995-17.234 2.415-21.624 2.709-22.373 1.497zm-1.932-36.477c0-7.291.124-7.692 3.25-10.484 1.787-1.596 3.25-3.139 3.25-3.428 0-.954-8.483.777-9.304 1.9-.805 1.099-.168 12.868.935 17.262 1.112 4.433 1.869 2.307 1.869-5.25zm-498.37 33.878c-.621-.664-1.13-2.352-1.13-3.75 0-1.398-.4-2.542-.89-2.542-.93 0-5.169-14.523-5.346-18.317-.056-1.2-.722-5.108-1.48-8.683-.759-3.575-1.642-8.3-1.963-10.5s-1.229-4.743-2.017-5.65c-1.983-2.284-.579-2.933 7.49-3.463 15.626-1.027 39.4-4.135 53.457-6.988 2.033-.412 2.75-.164 2.75.954 0 1.894-.48 2.033-17.5 5.06-15.18 2.699-28.112 4.436-36 4.834l-5 .253.34 5c.647 9.52 7.077 33.639 9.153 34.331.687.23.748.79.163 1.516-.56.696-.568 2.1-.021 3.545.882 2.332 1.107 2.375 8.945 1.722 4.422-.37 10.582-1.333 13.69-2.142 3.108-.81 6.793-1.472 8.19-1.472 2.343 0 11.906-1.825 18.18-3.47 1.53-.4 2.915-.25 3.291.36.372.601-.544 1.316-2.14 1.669-4.595 1.016-15.718 4.65-16.792 5.485-4.249 3.303-32.693 5.111-35.37 2.248zm-436.63-1.19c2.2-.465 6.475-1.115 9.5-1.445 4.35-.475 4.977-.383 3 .441-1.375.574-5.65 1.224-9.5 1.446-5.6.323-6.2.235-3-.442zm-257.34-10.559c-1.29-5.33-2.143-9.89-1.897-10.136.708-.708 4.983 16.101 4.593 18.06-.194.972-1.407-2.594-2.696-7.924zm1196 4.206c.083-1.613.243-1.768.564-.55.33 1.259 1.795 1.795 5.634 2.065l5.186.365-5.75.185c-5.382.174-5.743.041-5.634-2.065zm-425.54.38c-1.048-1.696 2.393-2.673 21.567-6.129 9.544-1.72 20.427-3.856 24.185-4.747 6.552-1.554 6.806-1.725 6.215-4.187-.338-1.412-2.004-10.442-3.701-20.067-4.2-23.818-3.129-21.99-12.02-20.521-4.029.665-15.311 2.517-25.072 4.115l-17.747 2.906-.003 4.255c-.001 2.34 1.347 10.624 2.997 18.408 3.047 14.375 3.831 23.837 1.975 23.837-.563 0-1.477-1.191-2.03-2.647-1.96-5.155-6.926-31.925-6.836-36.853.15-8.237.89-9.63 5.912-11.123 6.857-2.039 19.129-4.185 33.48-5.855 9.469-1.102 13.32-1.95 14.183-3.118.65-.882 1.65-1.316 2.219-.964 2.689 1.662 8.023 24.637 9.713 41.838.366 3.728 1.053 7.017 1.525 7.309 2.176 1.344.1 2.558-9.89 5.783-17.71 5.717-45.117 10.273-46.67 7.758zm506.42-2.22c-12.78-1.23-12.47-1.068-12.703-6.616-.11-2.637-1.39-10.868-2.844-18.293-3.02-15.427-2.908-21.99.432-25.333 2.062-2.065 3.31-2.197 26.389-2.796 13.323-.346 24.337-.683 24.474-.75.138-.066.25-.77.25-1.562 0-2.994 4.252-2.95 5.405.055 1.277 3.326 4.594 25.565 5.13 34.387.317 5.225.75 10.033.964 10.685.7 2.14-6.81 5.681-17.999 8.486-11.456 2.872-15.343 3.1-29.498 1.739zm37.266-7.903c6.658-2.262 6.76-2.35 6.242-5.403-.289-1.707-1.426-10.946-2.528-20.531s-2.166-17.59-2.365-17.79c-.2-.198-4.582.509-9.74 1.572l-9.377 1.934 5.273.738c2.9.405 5.468 1.054 5.707 1.44.239.387-1.684.355-4.273-.072-2.589-.426-7.924-.802-11.856-.835-6.048-.05-8.01.394-12.75 2.887-3.08 1.62-5.601 2.576-5.601 2.123 0-1.356 2.6-3.103 7.692-5.171l4.808-1.952-8.787.35c-11.258.447-12.223 1.278-12.186 10.492.015 3.692 1.122 12.726 2.46 20.076l2.435 13.364 19.04-.461c16.465-.4 19.953-.773 25.806-2.76zm-35.268.19c-2.475-.178-4.95-.766-5.5-1.307-1.08-1.063-2.409-29.894-1.378-29.891.342 0 .822 6.295 1.068 13.987.245 7.691.747 14.285 1.114 14.652 1.568 1.568 36.653-1.26 38.496-3.104.392-.393-.965-11.415-3.389-27.533-.363-2.416-.235-3.036.414-2 2.02 3.219 5.565 29.64 4.099 30.547-1.067.66-21.163 4.182-26.424 4.631-2.2.188-6.025.197-8.5.019zm-556.5 6.803c1.65-.42 3.9-.771 5-.782 1.567-.014 1.459.155-.5.782-1.375.44-3.625.793-5 .782-2.246-.016-2.195-.096.5-.782zm-23.828-5.288c-1.428-3.183-2.856-7.458-3.174-9.5-.406-2.605.472-1.176 2.946 4.788 4.002 9.652 4.19 13.55.228 4.712zm48.328-1.745c0-3.853-.335-5.052-1.306-4.68-1.013.389-1.21-.832-.878-5.425.273-3.77-.19-8.133-1.27-11.984-.935-3.332-1.494-6.263-1.243-6.514.251-.251.744.69 1.096 2.09 1.238 4.935 2.139 2.467 1.533-4.204-.667-7.342-.498-8.25 1.537-8.25 2.424 0 5.643 26.277 4.592 37.49-.434 4.638-.956 6.066-2.311 6.324-1.484.282-1.75-.454-1.75-4.847zm-10 3.033c.825-.533 1.95-.969 2.5-.969s.325.436-.5.97-1.95.969-2.5.969-.325-.436.5-.97zm39.093-1.254c-1.509-3.968-3.961-19.007-4.716-28.92l-.66-8.673 3.891-1.042c2.14-.574 10.192-2.159 17.892-3.523 7.7-1.364 15.416-2.776 17.148-3.138 2.87-.601 3.198-.408 3.724 2.195 1.01 4.998 4.808 35.51 4.462 35.833-.184.172-5.509 1.06-11.833 1.974-13.66 1.974-27.207 5.265-28.185 6.847-.43.696-1.094.097-1.722-1.554zm12.407-3.882c3.85-1.005 11.867-2.361 17.816-3.015 10.692-1.175 10.809-1.216 10.213-3.59-.681-2.715-3.026-18.77-4.034-27.629l-.669-5.87-3.663.548c-5.46.815-31.41 5.7-33.32 6.272-.912.273-1.88 1.074-2.15 1.78-.515 1.339 1.262 16.26 3.324 27.924 1.108 6.264 1.363 6.73 3.341 6.094 1.178-.379 5.292-1.51 9.142-2.514zm62.319-2.024c-11.752-1.163-11.265-.554-12.282-15.34-.87-12.651-3.54-28.567-5.257-31.344-1.324-2.14-1.25-2.559.838-4.782 2.975-3.166 9.884-5.072 22.882-6.312 12.681-1.21 34.75-1.646 35.69-.706 1.853 1.854-2.99 2.836-20.467 4.153-18.476 1.393-30.544 3.492-33.64 5.854-1.314 1.002-1.273 1.792.352 6.638 1.686 5.029 5.075 27.854 5.067 34.133-.004 3.315 1.763 3.835 13.113 3.853 7.5.011 33.38-3.94 35.865-5.475.453-.28.125-2.647-.729-5.26-1.888-5.776-2.194-37.71-.38-39.525.602-.601 1.317-.871 1.589-.6.272.272.976 8.792 1.566 18.933 1.394 23.995 1.708 25.44 5.522 25.44 1.957 0 2.951.505 2.951 1.5 0 1.089-3.557 2.39-13 4.754-14.228 3.562-29.289 5.112-39.68 4.085zm64.93-6.411c-.412-.42-.75-1.12-.75-1.557 0-1.982 18.139-4.605 39.443-5.704l12.942-.668-.276-11c-.151-6.05-.463-11.188-.691-11.417-1.038-1.039-1.701 1.39-2.353 8.617-.494 5.468-.955 7.237-1.542 5.916-.484-1.088-.305-5.167.424-9.656 1.236-7.61.926-13.2-1.093-19.71l-1.008-3.25-8.672.024c-4.77.013-14.062.44-20.65.95-9.642.747-12.244 1.278-13.346 2.727-1.888 2.481-.939 19.868 1.514 27.733 1.574 5.045 2.297 6.064 4.83 6.807 3.82 1.121 19.51.146 28.674-1.782 9.437-1.985 9.94-1.121.626 1.074-7.671 1.807-27.026 3.138-31.002 2.132-3.55-.899-6.085-10.464-6.536-24.664-.201-6.325 0-12.035.447-12.69.981-1.435 20.593-3.286 34.98-3.3l10.21-.01 1.198 4c1.82 6.07 3.245 4.935 2.609-2.08-.303-3.343-.703-6.22-.89-6.393-.523-.486-43.504 2.37-48.711 3.239l-4.625.77-.318 4.982c-.175 2.74.419 9.932 1.32 15.982 1.987 13.34 1.742 26-.503 26-1.039 0-1.58-1.229-1.765-4-.145-2.2-1.179-13.216-2.296-24.479-1.833-18.477-1.88-20.591-.476-21.617 3.746-2.74 57.123-5.289 59.459-2.84 1.077 1.13 2.8 17.334 3.661 34.436.858 17.028 2.124 15.98-22.682 18.798-28.466 3.235-31.326 3.469-32.15 2.631zm248.41-3.429c0-1.375.228-1.937.505-1.25s.278 1.813 0 2.5-.504.125-.504-1.25zm-314.7-1.5c-.255-1.1-1.588-8.956-2.96-17.459-1.373-8.502-2.742-16.234-3.043-17.182-.626-1.97.606-2.212 19.672-3.86 6.395-.552 13.994-1.453 16.886-2.001 9.911-1.88 9.354-2.498 8.794 9.752-.27 5.913-.2 14.35.155 18.75s.35 9.125-.013 10.5c-.957 3.63-2.316-21.836-1.67-31.273.532-7.746.497-7.901-1.619-7.303-4.39 1.242-20.466 3.412-30.51 4.12l-10.348.727.508 2.615c.279 1.437 1.549 9.076 2.821 16.974 2.155 13.368 2.485 14.425 4.782 15.298 1.358.516 9.133.804 17.278.64s14.81-.005 14.808.353c-.002.78-19.928 1.862-28.789 1.562-5.37-.182-6.355-.505-6.753-2.213zm-857.91-10.587c-1.909-8.396-3.06-17.306-4.575-35.413-1.043-12.465-1.7-16.386-7.45-44.5-3.593-17.567-5.51-34.05-5.987-51.5l-.41-15 .902 13c1.693 24.407 4.13 41.054 9.512 65 2.333 10.38 4.007 21.895 5.435 37.386 1.136 12.312 2.759 25.747 3.607 29.855 1.994 9.656 1.122 10.646-1.033 1.173zm997.31 3.338c-2.315-5.844-3.89-13.322-5.948-28.25-2.255-16.35-3.026-19-5.53-19-.851 0-1.368-.541-1.148-1.202.62-1.858 8.493-3.5 30.266-6.311 11-1.42 21.88-3.01 24.178-3.531 5.086-1.155 7.596-.393 6.814 2.07-.312.983.35 6.288 1.47 11.788 2.316 11.362 2.751 29.573.834 34.875-.85 2.35-2.415 3.917-5.316 5.321-5 2.421-24.173 5.13-34.426 4.864-4.913-.127-7.579.202-7.834.967-.668 2.004-2.227 1.266-3.36-1.59zm39.167-6.364c5.922-.9 11.454-2.832 8.224-2.871-.917-.011-1.25-2.719-1.25-10.158 0-6.972-.593-12.208-1.898-16.75-1.043-3.634-2.188-7.891-2.544-9.46l-.647-2.852-16.205.409c-13.295.335-16.88.746-19.955 2.287-2.063 1.033-3.75 2.606-3.75 3.496 0 .89 1.59 8.096 3.535 16.014 1.944 7.918 3.382 15.094 3.196 15.947-.468 2.142-7.732-27.668-7.732-31.73 0-1.994.589-3.507 1.5-3.857 2.938-1.127 1.43-1.87-3.066-1.513-3.753.298-4.453.656-3.929 2.007 2.303 5.942 5.502 19.376 6.999 29.392l1.756 11.748 14.62-.558c8.04-.307 17.557-1.005 21.147-1.55zm-30.526-.875c-1.64-.714-1.363-.883 1.541-.941 1.948-.039 8.872-.77 15.386-1.624 6.515-.854 13.021-1.41 14.458-1.235 1.438.176-2.56 1.082-8.885 2.014-16.833 2.48-20.28 2.754-22.5 1.786zm37.138-35.262c-.322-1.787-.88-5.162-1.24-7.5-.757-4.918-.462-4.852-12.398-2.75-4.675.824-8.613 1.498-8.75 1.499s-.25.451-.25 1.001c0 .597 3.844 1 9.531 1 10.276 0 9.858-.24 10.936 6.25.343 2.063 1.103 3.75 1.69 3.75.655 0 .84-1.25.48-3.25zm-336.14 39.735c4.4-1.283 8.9-2.334 10-2.335 1.1 0-1.825 1.07-6.5 2.378s-9.175 2.359-10 2.334c-.825-.024 2.1-1.094 6.5-2.377zm-143.5-2.774c0-.867.938-1.874 2.085-2.238 1.528-.485 1.941-1.237 1.547-2.818-1.666-6.69-5.609-30.302-6.204-37.156-.382-4.4-1.075-8.74-1.54-9.645-1.182-2.298 1.568-4.34 5.474-4.065 1.726.122 15.963-1.085 31.638-2.68 15.675-1.596 28.688-2.723 28.919-2.504 1.131 1.076 3.184 23.48 3.269 35.68.086 12.423-.091 13.926-1.796 15.201-3.863 2.89-37.562 9.647-55.615 11.152-6.688.558-7.777.428-7.777-.928zm33-6.789a6874.91 6874.91 0 0 1 23.336-3.634c2.11-.316 4.096-1.252 4.414-2.08.615-1.604-1.496-44.287-2.227-45.018-.858-.858-13.523.994-13.523 1.978 0 .612 1.669.776 4.25.416 2.972-.414 3.627-.32 2.18.313-1.138.498-8.563 1.408-16.5 2.022-15.436 1.196-25.284 2.665-28.154 4.2-2.57 1.377-2.286 6.902 1.122 21.752 1.594 6.946 3.153 14.39 3.464 16.543.949 6.566-1.05 2.614-2.864-5.664-.934-4.262-2.14-7.75-2.678-7.75s-.743 1.238-.454 2.75 1.04 6.013 1.67 10c1.382 8.75-.88 8.386 25.964 4.173zm-17.5-3.304c2.604-1.206 12.986-2.739 34.75-5.13l5.75-.632-.002-4.178c0-2.298-.671-10.478-1.49-18.178-1.766-16.625-1.719-15.5-.642-15.5.476 0 1.117 3.037 1.424 6.75.308 3.712 1.133 12.698 1.834 19.968s.898 13.57.438 14c-.46.43-1.006.31-1.215-.265-.208-.576-2.06-.885-4.113-.687-3.966.383-31.68 3.984-36.734 4.773l-3 .469zm482.5 9.926c0-.952.933-1.976 2.074-2.274 1.521-.398 1.934-1.106 1.548-2.656-1.658-6.658-5.6-30.282-6.194-37.114-.382-4.4-1.116-8.817-1.63-9.814-1.345-2.605.735-4.72 4.04-4.109 1.464.272 15.925-.847 32.135-2.486 16.21-1.638 29.683-2.769 29.94-2.513 1.058 1.06 2.975 23.84 3.029 36.016.05 11.266-.186 13.31-1.692 14.631-3.201 2.81-36.716 9.646-55.743 11.37-6.714.609-7.507.498-7.507-1.051zm28.5-6.057c15.478-2.271 23.825-3.667 30.393-5.082l2.393-.515-.656-13.695c-.36-7.532-.936-17.858-1.28-22.945-.706-10.466-.195-10.055-10.71-8.614-6.38.874-5.838 2.364.86 2.364 5.477 0 5.5.013 5.5 3.08 0 1.694.7 8.46 1.556 15.038.856 6.577 1.418 13.852 1.25 16.167l-.305 4.209-17 3.7c-18.364 3.995-29.05 5.582-26.461 3.927 1.783-1.14 27.736-6.625 36.21-7.653l5.75-.698-.031-5.135c-.026-4.117-.846-12.943-2.927-31.503-.09-.802-18.325 1.167-31.97 3.452-7.934 1.33-14.544 2.417-14.687 2.417-.144 0-.573 2.084-.955 4.63-1.119 7.46 1.89 24.663 6.054 34.62.436 1.043.292 1.75-.356 1.75-.599 0-1.37-1.125-1.716-2.5-.586-2.335-2.41-3.565-2.41-1.625 0 3.503 1.463 7.124 2.875 7.116.893-.005 9.275-1.132 18.625-2.504zm-24.302-36.736l.302-5.249 6.75-1.936c6.545-1.877 9.555-4.275 4-3.186-1.512.296-5.337.834-8.5 1.194-5.64.643-5.75.715-5.739 3.79.017 4.789 1.154 10.636 2.068 10.636.45 0 .953-2.362 1.119-5.249zm-345.45 42.586c.687-.277 1.812-.277 2.5 0s.125.504-1.25.504-1.938-.227-1.25-.504zm5.5-1.027c.962-.252 2.537-.252 3.5 0 .962.252.175.457-1.75.457s-2.713-.205-1.75-.457zm-683.34-1.895c-2.402-1.272-2.748-2.371-4.762-15.144-1.194-7.574-2.685-17.822-3.314-22.772-.724-5.698-1.701-9.454-2.665-10.24-.838-.681-1.222-1.54-.854-1.909 1.589-1.588 54.003-8.89 55.808-7.775 1.205.745 1.109 3.424-.123 3.424-1.808 0-1.055 4.52 3.096 18.58 2.252 7.63 4.305 16.133 4.561 18.896 1.246 13.44-9.43 18.583-38.157 18.387-7.263-.05-11.88-.541-13.59-1.447zm37.369-4.451c6.76-1.721 10.72-5.677 10.72-10.71 0-3.842-3.246-14.902-4.844-16.5-.44-.439-.618 2.924-.398 7.473.373 7.69.207 8.566-2.348 12.44-2.15 3.259-3.749 4.454-7.33 5.48-5.436 1.556-19.95 1.59-22.666.052-1.43-.81.384-.936 7.178-.503 15.982 1.019 22.064-2.01 23.922-11.917.908-4.84-1.005-14.094-4.42-21.394l-2.897-6.19-8.584-.714c-7.84-.653-14.695-.306-23.363 1.183-3.957.68-3.965.812-.83 14.934 1.995 8.99 4.064 15.069 7.37 21.651.208.412-.052.75-.576.75-1.64 0-5.953-11.323-8.333-21.878-1.256-5.567-2.642-10.122-3.082-10.122s-.799.324-.799.72c0 .95 3.876 29.805 4.59 34.177l.556 3.397 15.677-.557c8.622-.306 17.828-1.104 20.456-1.773zm654.48 5.328c1.244-.24 3.044-.23 4 .02s-.062.446-2.262.435c-2.2-.01-2.982-.216-1.738-.455zm-621.44-6.684c.356-.928.233-2.457-.274-3.398-.506-.941-2.133-8.588-3.616-16.992-4.002-22.695-2.818-39.218 2.81-39.218.968 0 1.76.381 1.76.848 0 .466 4.837.026 10.75-.979 17.118-2.907 30.157-4.545 31.176-3.915 1.83 1.132 5.109 21.184 6.498 39.745.773 10.34 1.21 18.998.97 19.24-.24.24-8.19.787-17.666 1.215-10.727.485-19.304 1.388-22.728 2.395-9.795 2.878-10.404 2.945-9.68 1.06zm12.56-5.755c2.541-.603 11-1.385 18.799-1.738 7.798-.352 14.448-.91 14.776-1.238.712-.712-2.02-31.668-3.597-40.752-1.637-9.426-3.834-11.017-13.108-9.483-6.119 1.011-4.474 2.679 1.862 1.887 3.777-.472 5.403-.363 4.972.334-.351.569.75 6.345 2.448 12.836 2.687 10.273 5.264 30.729 3.691 29.3-.303-.274-1.048-4.084-1.657-8.465s-2.314-13.493-3.79-20.25L226.26 82.42l-3.546.02c-6.368.036-16.847 1.918-20.574 3.695l-3.65 1.74.604 9.023c.332 4.962 1.608 13.624 2.835 19.248l2.232 10.225 10.503-.516c5.777-.283 11.966-.694 13.753-.912s3.25-.04 3.25.397c0 .438-5.062 1.1-11.25 1.472s-13.5.916-16.25 1.208c-4.368.463-4.785.355-3.304-.856 1.591-1.3 1.572-1.848-.311-8.815-1.18-4.362-2.249-12.345-2.59-19.337-.526-10.76-.407-12.037 1.238-13.24 2.598-1.9 1.239-2.658-3.367-1.88-2.92.493-4.124 1.247-4.554 2.85-1.06 3.952-.639 12.21 1.388 27.178 1.1 8.123 2 16.273 2 18.11 0 3.195.115 3.297 2.632 2.34 1.447-.55 4.71-1.494 7.25-2.096zm529.28 3.193c-2.383-.387-4.71-1.313-5.171-2.059-.91-1.473-5.04-22.51-7.55-38.469-.865-5.489-2.058-10.28-2.653-10.649-.595-.367-.84-1.3-.543-2.072.867-2.258 62.985-11.965 64.821-10.13 1.767 1.767 5.877 28.273 5.905 38.083.022 7.515-.25 9.25-1.454 9.25-1.87 0-1.966-.516-4.46-23.922-1.138-10.682-2.27-19.623-2.517-19.87-.246-.246-9.623 1.191-20.838 3.195-11.214 2.003-23.346 3.918-26.96 4.255s-7.116.953-7.786 1.367c-.93.575-.6 3.55 1.403 12.614 1.441 6.523 3.11 15.46 3.707 19.86.598 4.4 1.297 9.463 1.554 11.25l.468 3.25 6.705-.02c8.858-.025 17.127-1.278 36.25-5.49 18.37-4.045 16.955-3.87 16.955-2.107 0 2.36-26.042 9.71-40.974 11.565-9.207 1.144-10.38 1.15-16.861.099zm484.79-2.125c-3.225-6.029-7.25-26.02-7.331-36.421-.095-12.218 1.761-14.135 15.874-16.394 6.866-1.1 29.74-3.089 30.269-2.634.148.128 1.68 5.811 3.406 12.63 2.406 9.51 3.203 15.034 3.424 23.722l.287 11.325-3.452 1.443c-7.238 3.024-19.996 5.394-29.076 5.4-7.2.007-9.266.327-9.719 1.508-.81 2.11-2.373 1.864-3.68-.579zm16.043-5.38c4.675-.32 12.438-1.295 17.25-2.166 7-1.267 8.75-1.928 8.75-3.306 0-2.664-2.847-22.563-4.64-32.439l-1.612-8.869-9.124.687c-5.018.377-12.274 1.36-16.124 2.183-3.85.824-8.687 1.753-10.75 2.065l-3.75.567v7.702c0 7.983 1.739 19.035 2.995 19.035.396 0 .497-5.4.225-12-.32-7.756-.136-12 .518-12 .557 0 2.53-.25 4.387-.553l3.375-.553-3.353 1.548-3.353 1.548.406 12.255c.386 11.684.83 13.717 4.58 21.005.213.412-.07.75-.63.75-.558 0-1.3-.9-1.65-2-1.07-3.374-2.727-2.319-1.962 1.25.958 4.464 1.27 4.82 3.773 4.316 1.204-.243 6.014-.704 10.69-1.024zm-6.5-3.511c-1.508-.671-.74-.907 3.122-.96 4.17-.058 23.902-4.26 24.958-5.317.158-.158-.575-5.23-1.629-11.27-1.053-6.042-2.148-12.784-2.432-14.984-.484-3.748-.452-3.811.503-1 .997 2.933 4.978 24.48 4.978 26.942 0 1.48-15.347 6.23-22.5 6.965-2.75.283-5.9.113-7-.376zm3.5-37.555c5.776-1.532 20.879-3.174 19.972-2.17-.29.32-4.565 1.072-9.5 1.67-4.935.597-10.547 1.282-12.472 1.522-2.06.257-1.238-.163 2-1.022zm-970.75 42.275c-1.143-2.37-4.134-15.556-6.716-29.61-2.104-11.445-2.043-21.775.14-23.961.921-.923 2.384-1.74 3.25-1.817.865-.076 4.829-1.058 8.808-2.182 7.7-2.175 26.365-3.874 30.677-2.791 3.118.782 3.386 2.59.496 3.346-1.877.49-2.021 1.022-1.403 5.156.379 2.535 2.48 10.234 4.671 17.109 3.549 11.141 3.946 13.39 3.653 20.685-.3 7.478-.583 8.45-3.272 11.256-4.088 4.267-7.892 5.047-24.638 5.053-14.135.005-14.614-.063-15.666-2.244zm32.426-3.778c8.6-3.698 9.311-11.778 2.769-31.472-2.01-6.05-3.95-13.25-4.313-16l-.66-5-8.487.329c-11.203.434-22.126 2.686-23.833 4.915-2.064 2.694-.901 20.348 2.4 36.429l2.806 13.673 12.57-.538c8.897-.381 13.791-1.064 16.75-2.336zm-26.917-6.585c-3.071-6.485-3.281-7.641-3.594-19.79-.183-7.097-.066-14.326.26-16.065.572-3.047.913-3.24 9.333-5.295 15.425-3.765 13.954-3.907 15.633 1.505.812 2.617 3.08 9.164 5.041 14.549 3.98 10.929 4.53 17.548 1.954 23.49-.887 2.045-1.816 3.181-2.065 2.524-.25-.657.026-2.09.611-3.184 2.295-4.287 1.192-12.412-3.554-26.201-2.54-7.382-4.725-13.542-4.854-13.691-.375-.433-10.596 1.777-15.68 3.39-5.66 1.797-5.774 2.17-5.287 17.38.308 9.576.832 12.713 3.136 18.75l2.767 7.25 5.519-.084c3.035-.046 8.106-.408 11.269-.803s5.75-.415 5.75-.044c0 .69-4.367 1.374-16.238 2.542l-6.739.663-3.261-6.887zm470.73 9.607c-.26-.42 2.56-1.058 6.266-1.417 17.415-1.69 30.129-4.582 33.903-7.714.76-.632 1.664-.867 2.008-.523 1.479 1.479-12.615 6.594-22.173 8.048-13.43 2.042-19.436 2.524-20.004 1.606zm-419.36-2.744c-1.066-1.994-3.743-19.306-4.6-29.75-.316-3.85-.145-10.364.38-14.476.67-5.245.628-7.87-.138-8.793-.652-.785-.726-1.668-.185-2.187 1.288-1.237 38.284-11.238 39.285-10.62.455.28 1.108 3.338 1.45 6.793.342 3.455 2.431 13.482 4.642 22.282 4.38 17.434 5.118 26.504 2.465 30.291-3.676 5.249-16.066 8.181-34.65 8.201-6.329.007-7.882-.306-8.65-1.742zm18.467-2.66c19.25-2.036 21.947-4.084 21.513-16.34-.172-4.865-2.115-3.921-2.115 1.028 0 5.659-1.985 8.23-7.411 9.595-6.298 1.586-21.239 1.5-21.311-.123-.03-.687-.78-3.932-1.667-7.21-1.13-4.18-1.611-10.245-1.611-20.3V75.318l3.75-1.579c4.216-1.774 21.902-3.182 20.966-1.668-.634 1.026.88 4.092 1.639 3.32.255-.259.216-2.65-.086-5.314-.649-5.71.77-5.668-18.666-.554l-12.897 3.392.63 20.002c.737 23.415 1.522 31.507 3.054 31.491.61-.006 7.006-.635 14.212-1.397zm14.695-7.865c3.392-2.223 3.95-7.284 2.144-19.459-1.58-10.652-3.426-17.068-6.072-21.106-1.466-2.239-1.93-2.333-8.211-1.667-3.662.388-8.12 1.313-9.908 2.055l-3.25 1.35v12.867c0 7.077.475 15.538 1.056 18.801 1.877 10.546.846 9.754 11.991 9.217 6.612-.318 10.623-.992 12.25-2.058zm923.86 9.392c-3.042-1.928-4.867-19.618-4.369-42.347l.213-9.73 3.75-1.878c5.337-2.673 6.623-2.888 27.75-4.633 10.45-.863 28-2.445 39-3.514 11-1.07 29.008-2.074 40.017-2.23l20.017-.285 2.244 13.5c2.194 13.2 2.863 27.55 1.582 33.953-.423 2.116-1.453 3.512-3.033 4.113-5.78 2.197-23.076 4.903-37.826 5.918-8.8.605-22.3 1.964-30 3.02-31.293 4.289-56.33 6.024-59.344 4.113zm45.158-7.116c9.247-1.099 26.797-2.636 39-3.417 12.203-.78 26.574-2.204 31.937-3.164l9.75-1.745V98.864c0-9.602-1.415-28.26-2.511-33.123-.489-2.166-.601-2.176-19.24-1.673-10.312.279-28.747 1.597-40.966 2.93s-22.708 2.422-23.31 2.422-.813.45-.473 1c.91 1.472 23.328 1.196 35-.43 5.5-.768 15.85-1.68 23-2.028 7.15-.348 14.8-.857 17-1.13 2.647-.328 3.493-.189 2.5.413-.825.5-7.8 1.196-15.5 1.547s-18.275 1.39-23.5 2.31c-7.219 1.271-15.983 1.69-36.5 1.745-25.283.068-27.25.204-30.943 2.141-5.754 3.02-7.853 6.381-8.36 13.394-.381 5.27.923 18.305 2.48 24.787.546 2.274 4.59 3.247 5.742 1.382.902-1.46 7.976-2.185 35.581-3.647 14.575-.772 32.575-2.117 40-2.989 7.425-.872 18.225-1.79 24-2.043l10.5-.458V92.167c0-7.286-.33-16.06-.734-19.497-.404-3.437-.38-6.25.053-6.25 1.984 0 4.064 30.336 2.587 37.724l-.595 2.974-13.655.68c-7.51.373-18.83 1.314-25.155 2.09s-24.55 2.153-40.5 3.063c-19.37 1.104-30.09 2.12-32.284 3.061-5.265 2.258-5.84 1.892-7.216-4.591-1.637-7.714-3.51-7.997-2.617-.395 1.17 9.953.893 9.791 15.481 9.043 6.95-.357 20.202-1.548 29.45-2.647zm-582.35 6.915c-.021-.229-1.583-6.266-3.47-13.417-5.664-21.454-4.97-23.332 9.08-24.55 4.91-.427 10.84-1.097 13.179-1.49s4.25-.482 4.25-.196-5.288 1.274-11.75 2.197c-6.463.923-12.72 2.068-13.906 2.545-3.696 1.485-3.66 5.526.18 20.377 1.969 7.616 3.332 14.096 3.028 14.399-.303.303-.57.364-.59.135zm80.552-2.895c-1.035-1.674.873-2.712 6.402-3.483 8.846-1.233 11.085-1.769 11.085-2.65 0-.488-2.362-.895-5.25-.904-6.393-.018-7.505-.659-8.783-5.055-1.028-3.54-3.506-33.723-2.824-34.405.21-.21 6.969-.915 15.018-1.564 14.699-1.186 30.07-1.062 31.386.253.388.388.936 8.764 1.219 18.612l.513 17.906-4.89.716c-17.364 2.544-19.628 5.026-3.639 3.991 5.913-.382 10.975-.82 11.25-.97s.205-6.056-.155-13.121c-.36-7.066-.756-16.74-.88-21.497-.123-4.758-.584-9.233-1.023-9.944-.654-1.058-4.784-1.06-22.621-.016-12.002.703-23.846 1.577-26.321 1.944l-4.5.666-.316 5.5c-.174 3.025.42 10.45 1.321 16.5 1.968 13.221 1.738 25-.488 25-1.194 0-1.829-3.611-3.252-18.5-.973-10.175-1.88-21.383-2.017-24.907-.241-6.22-.168-6.429 2.493-7.161 5.234-1.44 26.686-2.932 42.161-2.932 15.323 0 15.566.034 16.051 2.25.893 4.086 2.458 21.048 3.113 33.75.588 11.39.48 12.647-1.21 14.153-1.31 1.166-6.716 2.26-18.357 3.717-24.295 3.04-34.554 3.662-35.487 2.151zm36.487-10.981l10.5-1.656.323-7.942c.178-4.368.026-12.073-.338-17.122l-.661-9.18-6.162-.63c-3.39-.346-13.137-.04-21.662.68l-15.5 1.31-.322 5c-.327 5.067 1.35 25.167 2.436 29.198.466 1.73 1.474 2.273 4.739 2.553 5.586.48 14.025-.22 26.647-2.21zm-74 2.704c0-4.332-2.79-28.032-3.525-29.948-.507-1.32-1.291-1.342-6.277-.168-3.134.737-6.598 1.309-7.698 1.27-1.1-.04 1.6-.885 6-1.88s8.1-1.717 8.223-1.606c1.767 1.59 5.52 35.588 3.929 35.588-.359 0-.652-1.465-.652-3.256zm-379 .84c0-1.558 10.62-4.335 27-7.062 17.069-2.841 20-3.665 20-5.622 0-2.858-1.241-2.927-8.068-.45-8.11 2.944-27.88 5.934-29.373 4.443-.301-.301 4.859-1.307 11.466-2.234s14.975-2.658 18.594-3.846l6.58-2.16-.643-4.077c-.65-4.124-5.257-23.508-6.29-26.469-.37-1.06-.227-1.267.421-.607 1.486 1.512 5.119 15.146 7.047 26.447 1.123 6.583 2.155 10.053 2.99 10.053 1.51 0 1.632-1.93.338-5.334-.515-1.356-1.883-8.697-3.04-16.315s-2.552-15.538-3.101-17.601c-1.208-4.536-1.585-4.573-17.922-1.75-6.325 1.092-11.612 1.99-11.75 1.993-.138.004-.25.348-.25.764 0 .416 1.912.652 4.25.523 12.903-.71 18.55-.766 18.187-.179-.224.362-5.251.956-11.172 1.322s-14.313 1.397-18.65 2.294l-7.884 1.63.654 8.509c.703 9.147 2.87 18.806 5.256 23.418.814 1.574 1.3 3.394 1.08 4.044-.658 1.948-3.702-4.92-5.778-13.036-1.16-4.538-1.944-10.955-1.944-15.923 0-8.042.084-8.342 2.5-8.948 3.97-.997 2.922-2.572-1.25-1.878-6.596 1.096-6.459.923-5.708 7.214.377 3.164 1.767 10.393 3.088 16.064 2.743 11.773 3.51 22.25 1.676 22.898-1.399.493-2.347-2.725-5.801-19.685-2.39-11.731-3.134-22.08-1.914-26.623.462-1.72 2.223-2.48 9.736-4.205 5.045-1.157 15.023-2.827 22.173-3.711 18.511-2.29 19.5-2.468 19.5-3.53 0-.525.656-.955 1.457-.955 2.85 0 8.264 21.994 10.157 41.25.364 3.713 1.05 6.75 1.525 6.75.474 0 .862.418.862.928 0 2.244-23.904 9.188-39.743 11.547-12.917 1.924-16.257 1.946-16.257.109zm496.9-5.334c-2.063-5.389-3.83-13.93-5.43-26.25-2.025-15.604-3.126-20-5.006-20-3.081 0-1.343-2.954 2.288-3.89 10.173-2.62 55.604-8.627 57.304-7.577.704.435.715 1.04.035 1.86-.69.832-.35 4.357 1.077 11.161 1.439 6.862 2.091 13.687 2.104 22.012.026 17.444-1.606 19.328-19.016 21.952-5.365.809-14.141 1.473-19.503 1.476-5.83.004-9.75.408-9.75 1.006 0 2.168-3.111.84-4.103-1.75zm24.103-4.726c13.914-.572 24.102-2.27 24.143-4.024.205-8.775-3.322-44.013-4.526-45.216-.222-.222-7.826.956-16.899 2.617s-19.583 3.3-23.357 3.642c-9.253.837-9.673 1.005-8.416 3.354 1.665 3.11 5.844 20.9 7.071 30.104 1.505 11.279 1.346 10.957 5.182 10.486 1.816-.224 9.377-.656 16.802-.961zm-9.5-3.458c-1.433-.663.269-.95 6-1.013 6.567-.072 21.056-2.229 22.045-3.281.28-.298-1.632-36.14-1.946-36.486-.288-.319-16.8 3.153-27.349 5.751l-9.25 2.278v4.73c0 3.777 2.918 16.356 5.499 23.704.241.688.091 1.25-.333 1.25-2.031 0-8.157-25.975-6.899-29.253.295-.768 3.843-2.351 7.885-3.517 9.846-2.841 28.684-6.507 30.284-5.893 1.38.53 2.184 7.231 3.215 26.759l.612 11.596-6.881 1.74c-8.212 2.076-20.093 2.925-22.881 1.635zm55 2.934c-.837-1.355.292-3 2.059-3 1.866 0 1.826-.908-.553-12.47-1.097-5.33-2.9-16.488-4.01-24.795-1.602-12.01-1.756-15.27-.755-15.91.692-.441 1.798-.606 2.457-.365.658.24 15.005-.906 31.88-2.548 16.875-1.641 30.798-2.856 30.94-2.698.492.547 3.496 32.31 3.489 36.897 0 2.536-.29 6.672-.635 9.193-.563 4.107-1.004 4.732-4.25 6.03-5.314 2.127-21.416 5.466-39.622 8.218-17.988 2.719-20.124 2.866-21 1.449zm24-6.045c7.7-1.118 19.063-2.967 25.25-4.108l11.25-2.075-.015-8.636c-.014-8.367-1.727-37.246-2.234-37.684-.248-.214-18.797 1.831-28.001 3.087-2.613.357-4.75.965-4.75 1.352 0 .749 8.798.415 20.805-.79 4.017-.402 7.532-.365 7.809.083.277.449-.535.818-1.805.82-1.27.002-9.66.68-18.644 1.507-15.905 1.463-24.794 2.978-26.508 4.518-1.215 1.09 1.059 27.652 2.896 33.837l1.55 5.221 6.199-.602c10.183-.989 26.822-3.446 32.698-4.829 3.853-.907 5.398-1.722 5.16-2.725-.186-.787-.494-9.307-.685-18.931-.273-13.733-.17-15.67.48-9 .454 4.675.988 13.45 1.186 19.5l.359 11-7 1.749c-6.852 1.711-23.806 4.206-34.254 5.039l-5.254.419-1.155-3.854c-1.385-4.623-3.358-5.206-2.463-.728.344 1.719.625 4.194.625 5.5 0 2.86-.8 2.843 16.5.33zm-511 3.613c-.55-.226-3.025-.684-5.5-1.019s-5.066-.96-5.759-1.393c-.814-.508-1.607-5.347-2.245-13.702-1.076-14.109-3.76-29.577-5.308-30.603-2.91-1.928 2.76-6.476 10.641-8.537 7.397-1.935 45.335-4.05 46.777-2.607 2.09 2.089-2.335 3.076-18.909 4.219-14.683 1.012-26.635 2.767-31.447 4.616-2.923 1.123-1.958 2.359 1.5 1.921 1.788-.226 8.65-.91 15.25-1.52s15.041-1.678 18.757-2.373l6.757-1.264 1.61 5.097c1.032 3.269 1.791 10.39 2.117 19.847.279 8.113.901 14.75 1.383 14.75s.876.392.876.87c0 1.598-23.148 5.55-32.747 5.59-5.086.023-9.248.316-9.25.653 0 .336 2.405.895 5.346 1.24 6.164.725 18.321-.617 30.891-3.41 4.807-1.069 8.958-1.943 9.226-1.943s.062-1.113-.456-2.475c-3.592-9.449-3.204-46.053.45-42.399.313.313 1 8.468 1.527 18.123 1.335 24.45 1.558 25.57 5.158 25.947 7.817.82.687 4.062-16.98 7.723-9.176 1.901-27.5 3.538-29.664 2.65zm19.922-9.172c5.662-.881 10.92-1.99 11.687-2.463 1.886-1.166 1.896-22.936.014-32.26-1.245-6.17-1.582-6.776-3.5-6.302-2.138.528-19.494 2.91-31.711 4.351l-6.588.778 4.32 17.434c2.377 9.588 4.116 17.639 3.867 17.889-.716.715-2.159-3.717-5.117-15.713-1.507-6.111-3.132-11.11-3.612-11.11s-.62 1.462-.31 3.25c1.353 7.837 2.49 17.579 2.508 21.5l.02 4.25h9.064c4.985 0 13.696-.722 19.358-1.604zm41.578 1.326c0-2.453 12.598-4.411 40.25-6.258l9.75-.65-.032-4.157c-.029-3.77-.161-3.986-1.426-2.318-.766 1.012-3.175 2.24-5.353 2.73-4.725 1.061-35.692 4.96-38.631 4.863-5.544-.182 3.31-1.995 21.402-4.382 10.702-1.413 19.89-3 20.418-3.527.612-.612.532-5.403-.22-13.24-1.435-14.935-1.479-20.783-.157-20.783.55 0 1 1.125 1 2.5s.507 2.5 1.128 2.5c.765 0 .91-1.354.454-4.212-.37-2.317-.788-4.327-.927-4.466-.46-.46-37.015 1.748-44.058 2.661-3.797.493-7.278 1.485-7.735 2.206-1.241 1.958-1.038 6.661.68 15.715.847 4.469 1.635 12.717 1.75 18.33.177 8.7-.03 10.254-1.407 10.533-1.79.364-1.552 1.929-4.512-29.544-1.05-11.152-1.36-18.622-.796-19.162 2.563-2.458 51.413-5.277 56.507-3.26 2.458.974 2.64 1.575 3.744 12.361 2.12 20.702 2.436 34.128.852 36.1-1.096 1.362-5.01 2.218-17.298 3.78-8.735 1.11-20.27 2.298-25.631 2.64-8.482.54-9.75.415-9.75-.96zm512.78-2.786c-2.254-1.313-3.06-4.544-7.173-28.74-1.899-11.168-4.008-20.975-4.687-21.793-.735-.885-.867-1.84-.327-2.357 1.952-1.871 63.292-11.433 64.718-10.09 1.276 1.203 5.57 25.926 6.296 36.24.545 7.755.394 9.559-.886 10.622-1.026.851-1.757.932-2.183.242-.353-.57-1.502-8.805-2.553-18.299-1.052-9.493-2.173-19.118-2.49-21.387l-.58-4.125-7.207 1.386c-13.772 2.648-36.247 6.292-42.957 6.965-5.802.581-6.75.951-6.75 2.632 0 1.777.48 1.895 5.25 1.29 17.068-2.161 34.017-4.816 39.111-6.127 3.223-.829 6.066-1.301 6.317-1.05 1.155 1.154-29.158 6.884-41.677 7.877-3.35.266-3.487.429-3.188 3.778.172 1.925 1.192 7.28 2.267 11.9s1.762 8.592 1.527 8.827c-.349.349-3.1-11.027-5.194-21.477-.248-1.238-1.117-2.25-1.932-2.25-1.83 0-1.926-1.225.967 12.17 1.345 6.231 2.98 15.492 3.63 20.58 1.15 8.979 1.26 9.252 3.803 9.326 1.44.043 3.342.218 4.225.39 3.503.685 19.674-1.614 34.822-4.95 18.141-3.995 18.073-3.987 18.073-2.178 0 1.456-24.955 8.96-35.5 10.675-7.757 1.262-23.505 1.215-25.72-.076zm83.549-5.394c-1.744-.759-3.609-2.203-4.143-3.21-1.33-2.507-6.89-28.372-8.725-40.594-1.703-11.337-1.38-12.318 4.39-13.319 2.007-.348 9.97-2.133 17.694-3.966 7.724-1.833 17.512-3.647 21.75-4.031 4.238-.384 7.706-1.086 7.706-1.56 0-2.4 1.992-.306 3.875 4.07 2.996 6.964 4.82 15.692 6.182 29.568l1.177 12-2.755 4.843c-4.565 8.027-13.32 12.968-28.714 16.206-8.525 1.794-14.302 1.791-18.436-.007zm25.727-6.381c8.735-2.543 12.195-4.438 15.289-8.375 1.42-1.807 3.165-3.965 3.878-4.795 1.063-1.238 1.032-2.674-.17-8l-1.464-6.491-.592 4.5c-1.676 12.726-10.738 19.407-29.247 21.56-3.962.462-5.75.324-5.75-.445 0-.668 1.962-1.115 4.895-1.115 6.483 0 16.795-3.268 21.837-6.92 3.034-2.198 4.488-4.227 5.746-8.014 1.575-4.74 1.577-5.77.025-15.818-.912-5.911-1.91-12.683-2.216-15.047-.519-3.994-.744-4.265-3.173-3.812-1.438.268-5.314.76-8.614 1.092-10.446 1.054-16.573 2.62-24.396 6.239-4.182 1.934-8.504 3.57-9.604 3.638-1.929.117-1.87.638 1.675 14.632 2.02 7.98 3.984 17.749 4.362 21.706.597 6.245.97 7.259 2.825 7.68 4.134.935 18.21-.326 24.693-2.214zm-23.305-12.051c-.412-3.515-2.13-10.264-3.815-15-4.108-11.534-4.546-13.747-1.409-7.11 3.674 7.774 6.643 19.232 6.281 24.24-.284 3.925-.367 3.758-1.057-2.13zm-593.14 14.742c-.283-1.844-.99-7.451-1.57-12.461-.58-5.01-1.953-11.718-3.05-14.907-1.097-3.189-1.995-5.887-1.995-5.997s6.638-.5 14.75-.87c8.113-.37 18.125-.875 22.25-1.123 5.148-.31 6.503-.19 4.32.386-1.75.46-11.087 1.425-20.75 2.142-9.663.718-17.565 1.568-17.56 1.89.007.323.68 2.788 1.495 5.478 1.593 5.25 4.072 27.366 3.169 28.269-.3.3-.776-.964-1.06-2.808zm512.59-4.029c-2.949-8.395-2.743-10.063.249-2.01 1.29 3.473 2.503 6.47 2.697 6.66.194.19 2.603-.07 5.353-.577 13.06-2.408 35.86-5.87 36.228-5.502.889.889-23.655 5.681-36.267 7.082l-6.039.671zm-421.87.017c-2.905-3.656-7.219-23.05-7.972-35.84-.41-6.953-.169-9.137 1.32-12 1.623-3.117 2.588-3.695 8.822-5.286 3.85-.983 12.625-2.056 19.5-2.385 6.875-.329 13.082-1.058 13.792-1.621.77-.61 1.632-.657 2.134-.116.463.5 2.324 6.983 4.136 14.408 3.482 14.27 4.67 31.668 2.322 34.015-2.576 2.577-18.919 6.158-29.734 6.516-8.627.286-11.096.697-12.053 2.005-.99 1.354-1.39 1.408-2.267.304zm27.17-7.976c3.85-.556 8.734-1.458 10.854-2.004l3.854-.993-.655-4.684c-1.25-8.96-1.78-11.184-2.664-11.184-.489 0-.934 1.913-.988 4.25-.229 9.735-1.619 8.624-1.565-1.25.04-7.268-.483-12.303-1.698-16.357-.966-3.221-1.536-6.078-1.266-6.347.27-.27 1.042 1.354 1.717 3.607s1.627 4.098 2.115 4.098c.824 0 .605-2.18-1.1-10.942l-.67-3.443-5.966.245c-7.437.306-16.8 1.676-26.182 3.832l-7.215 1.657-.644 4.292c-.753 5.02.632 13.959 4.295 27.724l2.625 9.865 9.077-.678c4.992-.372 12.227-1.132 16.077-1.688zm-23-3.794c-2.391-.665-2.554-.858-.805-.952l2.194-.118-2.612-5.705c-2.172-4.746-2.646-7.344-2.816-15.447l-.204-9.742 8.621-1.975c8.476-1.94 26.763-3.887 20.622-2.195-1.65.455-4.519.88-6.376.945-1.857.065-7.426 1.07-12.376 2.231l-9 2.113.454 10.211c.375 8.414.885 10.99 2.9 14.637l2.444 4.426h9.477c5.213 0 11.165-.31 13.227-.687 4.276-.784 5.199.642 1 1.545-4.958 1.065-23.683 1.564-26.75.712zm-527.44 10.044c-.584-1.09-1.061-3.786-1.061-5.99s-1.767-10.895-3.926-19.315c-4.625-18.035-5.531-23.56-4.642-28.3 1.595-8.503 8.672-11.42 29.692-12.235l14.624-.568 1.087 3.397c2.537 7.932 4.312 25.996 3.936 40.066-.377 14.083-.403 14.223-2.826 14.912-1.345.383-9.195 2.565-17.445 4.849-8.25 2.284-15.76 4.38-16.689 4.66-1.027.308-2.104-.27-2.75-1.476zm19.809-7.84l14.37-3.743-.528-23.516c-.29-12.934-.857-24.569-1.26-25.857-.713-2.275-.963-2.323-8.843-1.71-15.377 1.198-21.587 2.56-24.813 5.442-4.704 4.203-4.702 8.682.013 28.623 2.21 9.343 4.301 18.674 4.649 20.737s.95 3.754 1.337 3.76c.387.004 7.171-1.676 15.075-3.735zm-11.29-3.622c.34-.885-1.24-6.99-3.509-13.565-4.635-13.427-7.134-27.167-5.436-29.89 1.276-2.045 9.805-4.007 17.365-3.994 4.858.009 4.449.158-3.5 1.281-4.95.7-9.787 1.6-10.75 2.001-3.472 1.447-1.822 12.13 5.218 33.765 3.612 11.102 3.2 10.87 13.524 7.68 3.686-1.138 6.914-1.857 7.174-1.598.815.816-10.26 4.545-15.6 5.254-4.44.589-5.023.468-4.486-.933zm22.013-7.27c-.341-.89-1.086-7.077-1.655-13.75-.57-6.673-1.367-15.395-1.774-19.383-.79-7.74.186-10.11 1.236-3 .345 2.338 1.056 9.928 1.58 16.867s1.25 14.477 1.614 16.75c.668 4.175.142 5.495-1.001 2.516zm959.21 7.118c-.591-7.666-1.782-15.078-4.417-27.5-.34-1.6-.188-2.14.42-1.5 1.74 1.828 5.298 24.053 4.989 31.154l-.298 6.845zm-395.48 4.804c-1.198-.233-2.645-.988-3.217-1.677-1.781-2.146-13.393-48.32-12.515-49.764.532-.874 4.097-1.489 31.274-5.388 18.425-2.643 23.891-3.124 24.796-2.183 2.537 2.641 5.476 37.865 3.71 44.458-.935 3.486-3.356 2.785-3.455-1-.047-1.787-.61-11.574-1.25-21.748l-1.165-18.498-4 .341c-6.315.538-44.528 6.85-45.132 7.454-.3.3 1.242 6.768 3.427 14.373 2.184 7.606 4.734 17.27 5.666 21.476l1.695 7.648 4.172.623c6.159.919 21.391-.938 28.213-3.44 7.96-2.918 10.46-3.429 10.46-2.138 0 1.915-8.477 6.107-16.497 8.158-7.279 1.862-20.05 2.498-26.18 1.305zm499.68-.721c0-1.903 5.64-3.024 30.6-6.083 11.352-1.392 21.078-2.801 21.614-3.132.536-.332.714-1.787.397-3.235-.317-1.448-1.475-10.872-2.572-20.942s-2.293-18.792-2.657-19.381c-.693-1.121-7.129-.756-23.632 1.34-13.793 1.752-10.853 3.216 4.94 2.46 7.528-.36 13.381-.347 13.005.028-.375.376-8.673 1.04-18.439 1.475-9.766.436-18.839 1.11-20.162 1.497-1.7.498-2.197.365-1.69-.453.393-.636 1.588-1.157 2.655-1.157 1.068 0 1.942-.466 1.942-1.034 0-.572-1.232-.832-2.75-.583-1.513.249-3.83.49-5.147.535-2.395.082-2.397.09-1.807 9.332.66 10.335 2.559 20.75 3.783 20.75.742 0 .64-3.729-.578-20.892-.249-3.516-.184-6.124.145-5.795.328.329 1.22 8.373 1.982 17.877s1.638 18.074 1.946 19.045c.308.97.08 1.765-.507 1.765s-1.067-.9-1.067-2-.45-2-1-2-1 1.8-1 4c0 2.753-.435 4-1.393 4-1.96 0-2.303-1.278-4.582-17.063-2.283-15.814-2.53-23.52-.927-28.869l1.098-3.664 11.297-1.752c6.213-.963 17.756-2.02 25.652-2.348 10.505-.436 14.57-.959 15.155-1.95 3.647-6.174 8.232 12.928 9.995 41.647.185 3.025.682 6.257 1.102 7.183.639 1.405-.365 2.015-6.066 3.687-9.857 2.892-20.356 4.874-32.187 6.077-14.465 1.47-19.144 1.382-19.144-.364zm-1036.6-2.392c-4.625-.745-5.018-1.254-2.538-3.278 2.064-1.683 2.29-2.494 1.723-6.175-.359-2.331-2.326-9.188-4.372-15.238-3.204-9.478-3.72-12.251-3.722-20.044-.007-15.562 2.822-17.505 26.496-18.19 14.702-.426 15.562-.346 16.705 1.557 1.995 3.322 8.26 36.116 8.537 44.686.194 6.035-.11 8.358-1.244 9.49-3.468 3.468-33.006 8.576-41.586 7.192zm6.087-5.191c-.34-.55-.48-1.02-.31-1.044.17-.024 4.938-.427 10.595-.895 13.56-1.124 16.826-3.105 17.786-10.79.361-2.885.37-6.94.02-9.009-.594-3.517-5.305-24.068-6.225-27.159-.667-2.241-17.25-.823-23.015 1.969-4.035 1.953-4.468 2.482-3.94 4.81.326 1.44 1.46 6.893 2.519 12.118s3.308 12.824 4.998 16.888c3.049 7.332 4.186 12.363 2.06 9.112-2.612-3.994-7.297-18.304-9.43-28.803l-2.375-11.697 2.355-2.155c3.004-2.75 10.474-4.348 20.262-4.332l7.7.012 2.89 11.988c1.59 6.594 3.278 11.988 3.75 11.988 1.193 0 1.167-.217-1.64-14-1.375-6.751-2.5-12.438-2.5-12.638s-4.477-.362-9.95-.362c-12.726 0-19.381 1.43-23.4 5.027-2.974 2.662-3.144 3.197-3.053 9.646.072 5.02 1.184 10.268 4.206 19.827 2.26 7.15 4.374 14.687 4.698 16.75s1.047 3.75 1.604 3.75.736-.45.396-1zm1036.5 1.072c0-.598 1.88-1.063 4.25-1.052 2.337.011 11.522-1.398 20.41-3.132l16.16-3.153-.488-5.118c-.268-2.814-1.127-9.275-1.91-14.357-1.377-8.945-1.851-16.032-1.015-15.177.525.537 4.592 29.231 4.592 32.398 0 1.32-.413 2.656-.918 2.969-1.335.825-28.572 6.242-35.331 7.026-3.84.446-5.75.312-5.75-.404zm-442.27-1.164c-.975-.567-1.504-1.464-1.177-1.993.327-.53-.327-3.764-1.453-7.189-2.635-8.012-5.608-21.079-7.106-31.226-.65-4.4-1.873-8.776-2.72-9.724-1.403-1.574-1.329-1.802.845-2.606 1.31-.485 7.405-1.177 13.546-1.538 6.14-.361 15.815-1.318 21.5-2.126 11.706-1.664 25.594-1.946 22.336-.454-3.495 1.6-31.602 6.012-42.361 6.649l-10.361.613.639 5.649c.72 6.363 3.576 18.97 6.748 29.788 1.612 5.496 2.558 7.25 3.91 7.25 1.64 0 1.585-.493-.668-6.037-3.742-9.21-5.676-18.716-5.06-24.87.601-6.006 1.017-6.44 8.153-8.52 8.792-2.562 41.245-5.588 40.102-3.739-.593.96 3.5 13.61 4.826 14.915.419.413.436-4.312.038-10.5-.633-9.838-.527-11.25.838-11.25 2.041 0 2.298 1.032 4.276 17.151 1.818 14.82 1.346 26.85-1.053 26.85-1.608 0-2.527-2.211-2.527-6.083 0-1.605-.503-2.918-1.117-2.918-.624 0-.886.882-.594 2 .288 1.099.115 2.25-.383 2.558-.514.318-.933-3.256-.969-8.249-.05-6.921-.638-10.416-2.75-16.309-1.478-4.125-2.912-7.454-3.187-7.398-.275.055-4.775.42-10 .808-12.103.9-20.952 2.24-28.377 4.297l-5.878 1.628.514 9.083c.61 10.792 5.717 26.595 8.586 26.565 3.384-.036 15.186-2.922 26.165-6.398 6.227-1.972 11.787-3.585 12.356-3.585 2.958 0-2.277 2.098-15.115 6.058-13.934 4.298-18.485 6.78-10 5.454 2.338-.366 10.286-1.755 17.663-3.088 15.264-2.758 15.087-2.74 15.087-1.506 0 1.18-19.302 7.585-28.815 9.562-8.301 1.725-23.797 1.976-26.456.428zm-540-.573c-2.06-3.491-5.094-24.699-6.271-43.835-.339-5.5-.836-10.787-1.105-11.75-.453-1.618.703-1.738 15.328-1.597 12.518.12 14.46.305 9.317.883-3.575.402-9.762.783-13.75.847-3.987.065-7.248.455-7.246.867.014 3.227 3.2 34.094 4.05 39.25 1.539 9.333 2.88 11 8.847 11 6.007 0 19.1-2.87 19.1-4.188 0-.563-1.288-.688-3.07-.297-1.687.371-6.143.366-9.9-.012-5.88-.59-6.905-.987-7.356-2.844-.288-1.187-2.155-6.659-4.15-12.158-3.172-8.742-3.58-10.887-3.24-17.047.214-3.876.932-7.926 1.596-9 1.031-1.67 1.106-1.445.516 1.547-1.519 7.698-.657 14.399 3.346 26.017l3.957 11.483 8.264.292c7.878.279 23.265-2.505 25.123-4.545 1.046-1.148-4.09-34.585-5.534-36.028-.269-.269-4.47.022-9.338.646-4.867.624-11.744 1.084-15.282 1.022-5.656-.1-5.044-.267 5.068-1.383 6.325-.699 13.638-1.6 16.25-2 4.005-.617 4.75-.478 4.75.883 0 .887.45 1.613 1 1.613s1-1.575 1-3.5c0-2.444.452-3.5 1.5-3.5.825 0 1.501.113 1.504.25.002.138 1.157 6.1 2.566 13.25 3.642 18.477 3.44 33.346-.54 39.5-.791 1.225-1.332 1.275-2.947.274-1.604-.993-4.69-.777-16.281 1.14-18.828 3.116-26.47 3.94-27.072 2.921zm480.43.171c.271-.272 5.634-.64 11.917-.819 7.89-.224 12.62-.844 15.295-2.006 2.903-1.26 3.584-1.334 2.72-.292-1.893 2.28-9.342 3.611-20.203 3.611-5.623 0-10.002-.222-9.73-.494zm-3.024-9.234c-4.343-15.672-6.223-25.463-5.14-26.768 1.695-2.042 11.715-4.36 24.301-5.623 7.887-.791 12.131-.851 12.801-.18.552.55 1.65 3.431 2.44 6.4 1.687 6.34 2.067 31.393.46 30.4-.583-.36-1-5.985-1-13.483 0-7.076-.533-15.176-1.185-18.001l-1.186-5.136-6.564.612c-11.543 1.078-20.436 2.517-25.22 4.082-4.557 1.49-4.639 1.592-3.855 4.724 4.238 16.931 7.134 29.911 6.758 30.287-.251.252-1.426-3.04-2.61-7.314zm574.89-14.414c-2.05-30.216-2.108-29.042 1.468-30.016 7.906-2.155 25.894-3.835 40.284-3.762 8.644.043 15.266.254 14.716.468-.55.214-7.25 1.291-14.89 2.394-13.405 1.934-15.539 2.464-14.425 3.578.493.492 28.081-1.27 56.314-3.597 7.15-.59 14.125-1.15 15.5-1.247 2.337-.164 2.628.362 4.457 8.075 1.96 8.265 4.309 11.548 3.219 4.5-2.042-13.205-2.039-14.25.042-14.25 1.724 0 2.186 1.265 3.629 9.954 2.276 13.703 2.1 19.615-.727 24.54-1.261 2.197-3.627 4.774-5.258 5.726-3.687 2.154-14.26 3.734-25.152 3.76-11.324.027-24.012 1.52-48.21 5.672-11.276 1.934-22.546 3.752-25.045 4.04l-4.543.523zm15.469 13.675c3.85-.808 13.187-2.232 20.75-3.165 7.562-.934 13.75-2.11 13.75-2.613 0-.532-4.08-.662-9.75-.312-5.363.332-13.8.206-18.75-.28l-9-.884 13.105-.14c23.904-.253 45.334-2.546 68.28-7.303l10.385-2.153-.647-8.41c-.57-7.423-1.888-15.527-3.075-18.908-.274-.782-1.741-.884-4.724-.328-4.401.82-19.582 2.07-48.326 3.978-17.773 1.18-29.779 2.566-36.373 4.2l-4.372 1.084.626 6.118c.345 3.365 1.525 9.258 2.623 13.097 2.239 7.828 2.378 8.84 1.11 8.057-.487-.302-1.679-3.478-2.648-7.06-.97-3.58-2.146-6.511-2.614-6.511-.469 0-.852 5.175-.852 11.5 0 13.195-.824 12.407 10.5 10.032zm75.068-7.476c10.999-1.265 16.256-3.426 16.072-6.608-.096-1.656-.615-2.278-1.64-1.965-5.113 1.56-26.363 6.39-30.75 6.988-2.888.394-5.25 1.124-5.25 1.622 0 1.17 11.247 1.15 21.568-.037zm-525.57 9.598c0-1.474 11.839-4.518 28-7.198 9.985-1.656 23.004-4.404 24.212-5.11.391-.23.246-1.639-.323-3.132-.95-2.493-5.876-30.086-5.885-32.965-.006-1.919 3.795-1.483 4.36.5.99 3.48 2.65 12.961 4.072 23.271.798 5.786 1.728 11.243 2.067 12.127 1.093 2.85-19.907 9.305-40.245 12.37-12.314 1.856-16.258 1.89-16.258.137zm-553-2.154c0-.825.51-1.5 1.135-1.5 1.733 0 .475-6.734-4.096-21.92-4.958-16.471-5.332-24.08-1.182-24.08 1.36 0 1.645 1.16 1.656 6.75.01 5.48.81 8.864 4.25 17.995 2.486 6.598 4.237 12.954 4.237 15.38v4.134l4.75-.57c2.612-.314 12.512-1.352 22-2.306 16.239-1.633 17.249-1.856 17.239-3.81-.006-1.14-1.13-9.724-2.497-19.073-2.97-20.314-2.909-18.5-.62-18.5 1.65 0 2.185 1.99 4.514 16.75 1.454 9.212 2.637 17.74 2.628 18.95-.008 1.21.773 2.644 1.735 3.187 3.247 1.832-.022 2.908-16.75 5.515-31.23 4.867-39 5.484-39 3.097zm548.56-4.683c-4.083-14.17-7.037-33.058-6.067-38.798.654-3.871.814-4.014 4.341-3.883 2.585.096 2.96.269 1.275.587-2.303.436-2.368.688-1.827 7.114.309 3.665 1.699 11.612 3.09 17.662s2.663 13.427 2.827 16.393c.407 7.373-1.632 7.891-3.64.924zm-536.56-3.036c0-.774-1.104-3.694-2.453-6.49-2.906-6.026-6.23-18.594-6.953-26.291l-.516-5.5 1.058 4.5c3.787 16.103 5.283 21.195 7.86 26.75 2.553 5.506 3.232 6.247 5.701 6.228 3.32-.025 18.567-3.332 22.691-4.921 1.589-.612 3.114-.888 3.389-.613 1.129 1.129-16.046 5.896-25.527 7.085-4.158.522-5.25.366-5.25-.748zm82.59-1.94c-2.003-4.757-3.378-11.01-5.13-23.334-1.81-12.728-1.81-14.507.001-14.507 2.225 0 5.87 14.956 7.772 31.88.265 2.365.337 2.379 11.767 2.192 11.075-.18 24.434-1.44 28.31-2.671 1.705-.541 1.81-1.404 1.241-10.246-.341-5.31-.879-12.28-1.194-15.489-.558-5.686-.513-5.825 1.778-5.5 2.964.42 3.608 3.181 3.69 15.834.078 12.037-1.188 15.944-5.918 18.257-4.53 2.216-23.76 4.937-32.092 4.542-4.693-.222-6.62.086-7.5 1.2-1 1.266-1.426.928-2.725-2.158zm467.91.216c-2.007-.549 1.406-.86 10.307-.94 16.289-.144 21.945-1.356 23.36-5.006 1.463-3.775.445-20.75-1.586-26.457-.949-2.664-1.5-5.07-1.223-5.346s1.408 2.43 2.515 6.015c1.408 4.56 2.07 9.772 2.203 17.347l.19 10.83-4.883 1.893c-5.379 2.086-25.4 3.165-30.883 1.664zm-7.794-7.271c-2.333-9.431-3.005-15.315-2.288-20.036.62-4.088.883-4.352 6.863-6.911 3.42-1.463 8.019-2.926 10.218-3.251 3.743-.553 3.807-.523 1 .467-1.65.582-6.037 2.229-9.75 3.66l-6.75 2.602v7.394c0 4.067.719 10.552 1.597 14.411 1.995 8.772 1.224 10.212-.89 1.663zm71.598 4.058c-4.724-1.06-4.595-.672-5.793-17.345-.316-4.4-.843-10.138-1.172-12.75-.538-4.285-.4-4.75 1.407-4.75 2.418 0 2.687 1.129 4.343 18.21 1.428 14.722.4 13.756 14.654 13.777 7.558.011 34.67-4.072 36.03-5.426.149-.149-.407-3.149-1.236-6.666-.83-3.517-1.514-9.432-1.522-13.145-.013-6.004.198-6.75 1.913-6.75 2.038 0 2.094.267 3.598 17.032.702 7.824 1.444 9.247 4.586 8.805 1.578-.222 2.388.157 2.388 1.12 0 1.754-4.748 3.23-21.126 6.57-12.861 2.623-29.659 3.205-38.07 1.318zm-471.71-.589c-1.153-1.153-.565-3.256.91-3.256 1.998 0 1.914-1.371-.98-16-3.15-15.928-3.187-15.192.73-14.814 3.791.367 4.58 1.68 4.692 7.814.076 4.144 2.335 14.61 3.38 15.654.246.247 4.662-.284 9.813-1.18 8.388-1.456 30.807-4.474 33.244-4.474.525 0 .727.227.45.505-.695.695-35.54 6.495-39.02 6.495-1.545 0-2.81.45-2.81 1 0 1.792-1.848 1.053-2.5-1-1.057-3.332-2.82-2.351-2.114 1.177.35 1.748.79 3.331.977 3.52.42.42 17.577-1.925 35.461-4.847 12.617-2.061 13.29-2.288 12.672-4.263-1.505-4.823-2.411-10.4-2.45-15.086l-.042-5 3.498-.25 3.498-.25-.015 9.75c-.02 13.531-.45 14.167-11.503 17.023-4.94 1.277-16.182 3.42-24.982 4.764-21.935 3.348-22.244 3.385-22.91 2.719zM340.34 21.42c-.376-7.425-.965-14.85-1.311-16.5-.469-2.236-.336-2.726.522-1.924 1.725 1.612 3.602 23.167 2.434 27.967-.826 3.397-1.06 2.044-1.645-9.542zm59.48 7.172c-2.468-8.237-5.846-25.171-5.02-25.171.467 0 .85.134.85.297 0 .63 4.986 23.32 5.593 25.452.576 2.025 1.266 2.25 6.887 2.25 6.813 0 15.44-1.363 19.77-3.124l2.75-1.118v-12.58c0-8.06.346-12.232.963-11.615.58.58.72 5.802.35 13.152l-.613 12.189-4.1 1.696c-2.651 1.096-8.006 1.862-15.156 2.167l-11.056.47zm595.99 2.218c.29-1.508 1.925-2.163 8.1-3.243 9.18-1.607 10.239-3.349 1.737-2.86-3.3.19-6 .024-6-.37 0-.393 5.738-.991 12.75-1.33 11.855-.57 18.87-1.489 23.75-3.11 1.627-.541 1.72-.46.5.43-.825.602-3.187 1.561-5.25 2.132-5.937 1.645-4.403 2.484 3.998 2.189 13.034-.46 12.124.476 11.496-11.821-.512-10.032-.438-10.59 1.357-10.246 1.7.325 1.929 1.468 2.181 10.918.244 9.107.038 10.762-1.5 12.073-1.65 1.405-23.047 4.407-46.132 6.47-6.849.612-7.325.528-6.987-1.232zm-60.122-.32c-6.89-.526-7.512-.76-8.15-3.07-1.18-4.266-.844-6.693.416-3.008 1.459 4.267 3.157 4.735 17.694 4.868 8.453.078 11.377-.291 15-1.892 4.403-1.947 4.446-1.948 2-.035-4.863 3.802-10.17 4.42-26.96 3.137zm54.596-3.767c-.3-1.541-.845-7.64-1.21-13.553-.643-10.383-.596-10.75 1.382-10.75 1.722 0 2.148.834 2.684 5.25.939 7.734.226 21.017-1.152 21.473-.637.211-1.404-.878-1.704-2.42zm-455.81-1.947c-3.734-.662-4.384-1.783-6.214-10.713-2.1-10.255-2.061-11.643.332-11.643 2.677 0 2.894.583 3.666 9.846l.68 8.154h9.307c9.779 0 19.405-1.53 19.405-3.083 0-.504-4.837-.949-10.75-.987-5.912-.039-11.65-.474-12.75-.967-1.239-.555 2.184-.677 9-.321 12.36.645 22.13-.694 27.376-3.754 1.857-1.083 3.559-1.787 3.781-1.564.55.549-3.625 3.22-6.407 4.1-1.237.39-2.25 1.13-2.25 1.643 0 1.204.358 1.177 7.5-.547 12.556-3.032 15.913-1.06 4.25 2.496-20.204 6.16-37.936 8.933-46.927 7.34zm432.82-5.502c-.94-8.992-.785-15.853.357-15.853.606 0 1 4.333 1 11 0 6.05-.16 11-.357 11s-.647-2.766-1-6.147zm29.885-3.525c-.357-3.756-.882-8.066-1.168-9.579-.285-1.512-.09-2.75.432-2.75.977 0 2.766 17.776 1.878 18.664-.271.272-.785-2.579-1.142-6.334zm71.096 2.421c-1.98-5.453-3.61-11.766-3.618-14 0-1.279.802-1.75 2.995-1.75 2.762 0 3 .278 3 3.5 0 3.234.231 3.5 3.045 3.5 2.95 0 3.028-.117 2.496-3.75l-.55-3.75 1.363 3.5 1.364 3.5 8.89-.26c8.525-.249 20.676-1.656 24.892-2.883 1.339-.39 1.67-.249 1 .425-1.52 1.529-22.196 4.218-32.432 4.218h-9.068v5.227l15.25-.678c13.478-.598 24.123-1.743 28.758-3.091 1.13-.329 1.418-1.57 1.149-4.948-.32-4.029-.135-4.51 1.742-4.51 1.642 0 2.1.622 2.1 2.847 0 4.844-2.674 8.806-7.155 10.599-5.55 2.22-25.775 4.807-34.07 4.357-4.824-.262-6.867-.003-7.22.916-.92 2.397-2.385 1.29-3.931-2.969zm-143.07-4c-.388-3.437-.908-7.6-1.156-9.25-.386-2.57-.313-2.692.506-.854 1.06 2.38 2.646 16.354 1.856 16.354-.275 0-.818-2.812-1.206-6.25zm114.33 3.898c.761-.922 1.609-4.81 1.883-8.64.274-3.828.853-6.742 1.288-6.473.817.505.193 8.888-.991 13.318-.37 1.385-1.324 2.733-2.12 2.995-1.238.41-1.246.238-.06-1.2zm93.115-4.241c0-.877.919-1.834 2.042-2.128 1.8-.47 1.964-1.053 1.386-4.906-.597-3.984-.469-4.373 1.446-4.373 1.68 0 2.23.805 2.742 4 .601 3.762.843 4 4.055 4 2.7 0 3.355-.367 3.123-1.75-.427-2.541 8.661-5.283 19.179-5.786 9.16-.438 8.06-.085-7.995 2.561-3.587.592-7.174 1.479-7.971 1.971-3.864 2.388 1.864 2.057 22.204-1.284 12.204-2.004 22.406-3.427 22.672-3.161 1.142 1.142-2.068 2.384-12.571 4.864-11.672 2.756-41.441 7.545-47.062 7.57-2.313.011-3.25-.444-3.25-1.578zM535.82 10.31c-1.616-4.379-2.222-7.889-1.362-7.889.468 0 1.34 2.137 1.937 4.749 1.179 5.151.843 6.984-.575 3.14zm95.809 1.101c-2.387-1.475 2.55-3.319 16.249-6.067 14.31-2.871 34.585-4.132 28.768-1.789-8.846 3.563-42.47 9.43-45.017 7.856zm-51.837-1.99c-.096-1.375-.424-3.625-.729-5-.478-2.154-.399-2.254.575-.728.622.974.95 3.224.73 5-.313 2.511-.441 2.673-.576.728z"/></svg>