<svg xmlns="http://www.w3.org/2000/svg" width="auto" viewBox="0 0 45.15 50.57"><path d="M36.04 32.991c.45.847.849 1.729 1.363 2.537 1.953 3.062 3.279 6.333 3.48 10.001.01.175.073.353.06.524-.135 1.705-.101 3.659-2.005 4.345-1.871.677-3.2-.769-3.981-2.166-1.583-2.83-3.281-5.711-4.183-8.789-1.538-5.258-2.5-10.682-3.801-16.471-.84.517-1.929.917-2.644 1.67-4.113 4.346-8.066 8.843-12.226 13.143-1.936 1.999-4.195 3.688-6.362 5.445-.308.25-.936.105-1.416.145.003-.49-.142-1.04.029-1.464 1.277-3.158 3.813-5.275 6.278-7.453 4.034-3.568 8.088-7.12 12.044-10.773 2.679-2.472 2.51-2.985-.745-4.471-4.771-2.18-9.602-4.257-14.226-6.718-2.324-1.237-4.302-3.162-6.322-4.908C.773 7.06.426 6.128.165 5.314c-.687-2.125.862-3.689 3.086-3.543 3.986.259 7.008 2.357 9.912 4.766 1.005.834 1.967 1.721 2.95 2.584l.451-.276c-.283-.696-.589-1.383-.843-2.089-.546-1.52-1.184-3.021-1.536-4.587-.136-.606.211-1.709.677-1.964.571-.312 1.773-.269 2.222.144 1.443 1.328 3.021 2.712 3.901 4.409 1.884 3.624 3.333 7.471 5.04 11.19.226.493.939 1.142 1.359 1.098 1.149-.127 2.524-.821 3.089.574.384.951-.029 2.222-.086 3.351l-.599.188c1.713 1.171 3.46 2.301 5.136 3.524 2.55 1.859 5.164 3.657 7.528 5.734 1.132.992 1.92 2.493 2.538 3.904.304.693.148 1.974-.331 2.497-.369.401-1.724.308-2.378-.049-1.58-.861-3.016-1.993-4.49-3.041-.459-.327-.858-.734-1.285-1.106-.156.125-.31.247-.466.369zm2.829 15.056c1.111-4.247-5.651-19.485-8.949-20.166 0 .527-.098 1.07.015 1.565.592 2.62 1.069 5.283 1.903 7.826 1.034 3.145 2.329 6.208 3.614 9.261.585 1.392 1.721 2.041 3.417 1.514zM20.8 16.549c-.219-.517-.254-.775-.399-.914-2.824-2.697-5.614-5.429-8.51-8.046C9.553 5.478 6.712 4.297 3.62 3.784c-.581-.096-1.223.173-1.836.275.167.579.177 1.286.528 1.715.951 1.162 1.863 2.524 3.116 3.243 4.32 2.48 8.77 4.735 13.194 7.028.566.293 1.276.305 2.178.504zm13.056 9.93c2.746 3.248 5.051 6.999 9.248 8.661-1.701-4.369-5.31-6.688-9.248-8.661zM22.264 11.561c-1.304-3.875-2.814-7.206-6.083-9.739-.205 2.72 3.736 9.126 6.083 9.739z"/></svg>