<svg xmlns="http://www.w3.org/2000/svg" width="auto" viewBox="61.975 47.095 114.744 119.218"><path d="M123.683 165.628c-.213-.523-.666-3.881-1.005-7.461-1.868-19.686-7.229-39.492-15.23-56.274-2.212-4.64-8.009-14.968-8.4-14.968-.105 0-.67 1.276-1.255 2.837-1.621 4.325-4.841 8.104-8.606 10.099-1.784.945-7.072 1.116-9.214.298-3.866-1.477-6.249-5.662-5.705-10.02.143-1.139.163-2.071.045-2.071s-1.21.51-2.428 1.133c-3.447 1.765-5.254 1.718-7.371-.194-1.273-1.151-1.607-1.787-2.121-4.047-.551-2.422-.553-3.032-.029-6.293.87-5.403 1.842-7.998 4.289-11.441 1.036-1.458 1.187-1.878.735-2.051-.313-.12-.938-1.196-1.392-2.391-.695-1.834-.792-2.711-.626-5.629.212-3.725.786-5.207 2.527-6.53.814-.619 1.592-.762 4.078-.753 2.714.01 3.408.171 5.952 1.379 1.584.753 3.782 2.087 4.885 2.965 1.103.878 2.166 1.597 2.362 1.597s.535-.509.752-1.131c1.049-3.011 5.818-6.399 10.321-7.334 4.111-.854 8.061.514 9.118 3.156.95 2.375.758 5.347-.558 8.634-.633 1.582-1.152 2.958-1.152 3.056 0 .099 1.281.063 2.847-.079 2.489-.226 3.072-.149 4.632.606 1.084.525 2.133 1.417 2.673 2.271 1.896 3.004 1.585 8.105-.699 11.458-1.623 2.381-6.641 6.169-10.034 7.574-3.348 1.386-3.542 1.553-2.803 2.404.777.893 4.371 7.078 6.629 11.409 7.38 14.152 13.065 32.329 15.919 50.904 1.74 11.309 2.191 20.147.864 16.887zM87.791 98.377c3.037-1.136 5.917-3.928 7.63-7.399.737-1.494 1.442-3.341 1.565-4.104.2-1.239.123-1.413-.718-1.624-1.883-.473-4.068-3.396-3.274-4.38.918-1.14 4.606-.011 5.358 1.641.409.896.612.981 1.825.763 3.872-.697 10.381-5.349 12.163-8.693.507-.952.694-2.183.706-4.647.016-3.283-.01-3.378-1.239-4.608-1.204-1.204-1.379-1.256-4.257-1.256-2.703 0-3.171.115-4.697 1.152-.933.634-1.923 1.368-2.203 1.632-.279.264-.841.48-1.248.48-1.113 0-.915-.695 1.041-3.648 2.84-4.29 3.729-6.525 3.76-9.463.021-2.032-.129-2.726-.741-3.413-2.543-2.855-8.423-2.498-12.657.769-3.257 2.512-4.312 5.539-2.979 8.549 1.167 2.64-.204 3.744-1.485 1.195-2.288-4.55-6.574-8.041-11.706-9.533-2.777-.808-4.846-.748-6.018.174-1.021.802-2.21 3.839-2.212 5.649-.002 1.426 1.912 7.416 2.37 7.416.197 0 .896-.278 1.555-.619 2.569-1.329 7.056.465 9.51 3.802 2.146 2.918 1.048 4.194-1.184 1.376-2.065-2.608-3.997-3.791-6.188-3.791-1.75 0-2.019.135-3.687 1.848-3.184 3.271-5.063 8.681-5.063 14.58 0 7.408 4.927 8.562 11.283 2.641 1.032-.96 2.118-1.839 2.415-1.954 1.01-.387.998.977-.029 3.072-1.587 3.242-2.009 5.941-1.243 7.949.779 2.039 3.012 4.39 4.61 4.853 2.082.605 4.744.449 7.037-.409zm-1.197-22.511c-.12-.376-.735-.879-1.369-1.119-2.075-.783-2.016-2.334.198-5.234.754-.988 1.609-1.796 1.9-1.796.677 0 2.77 2.083 3.083 3.067.404 1.274-2.09 5.765-3.202 5.765-.217 0-.491-.307-.61-.683zm45.639 86.987c1.535-18.623 7.854-38.886 16.237-52.074.72-1.132 1.256-2.104 1.19-2.16s-1.296-.666-2.737-1.355c-3.07-1.469-6.59-4.536-7.383-6.432-.721-1.728-.713-4.619.02-6.371.777-1.862 2.469-2.708 5.279-2.641 1.214.029 2.207-.004 2.207-.073s-.349-.914-.775-1.877c-1.56-3.527-.973-6.952 1.387-8.076 3.875-1.848 9.755.514 12.28 4.933.389.68.496.652 1.921-.487 1.727-1.383 5.073-2.933 7.152-3.314 1.75-.321 3.747.443 4.611 1.763 1.354 2.065 1.164 7.457-.313 8.935-.456.457-.334.871.839 2.841 1.712 2.872 2.543 5.956 2.57 9.54.018 2.37-.125 2.987-.994 4.301-1.36 2.055-2.965 2.388-5.529 1.147-1.01-.489-1.916-.896-2.016-.904-.098-.008-.128.81-.066 1.818.146 2.372-.994 4.756-2.89 6.038-1.183.8-1.872.96-4.134.96-2.267 0-3.01-.173-4.502-1.051-2.176-1.278-3.841-3.315-5.25-6.42l-1.062-2.338-1.831 3.079c-5.779 9.715-10.527 22.443-13.041 34.955-.83 4.129-1.244 7.008-2.417 16.801-.107.896-.38 1.631-.605 1.631-.278-.001-.326-1.015-.148-3.169zm32.411-45.477c2.44-1.789 2.895-4.918 1.215-8.385-.42-.869-.764-1.698-.764-1.842 0-.682 1.461-.142 2.449.906 2.533 2.684 5.742 3.407 7.164 1.615.762-.96.822-1.388.666-4.704-.199-4.211-.968-6.337-3.178-8.783-1.227-1.358-1.652-1.585-2.978-1.585-1.343 0-1.798.251-3.466 1.92-2.001 2-2.578 2.305-2.578 1.357 0-.887 2.272-3.246 3.953-4.104 1.463-.746 2.352-.773 4.361-.134.736.234.893.034 1.439-1.848.761-2.616.775-4.126.055-5.85-.697-1.669-1.721-2.063-4.193-1.613-3.523.64-6.84 2.909-8.701 5.952-.678 1.109-1.374 2.016-1.547 2.016-.686 0-.744-.806-.141-1.971 1.867-3.611-3.705-8.659-8.637-7.826-4.039.683-4.205 4.817-.416 10.43 1.712 2.537 1.496 3.608-.426 2.11-2.818-2.196-5.716-2.599-7.52-1.046-.971.836-1.076 1.167-1.071 3.362.007 3 .819 4.538 3.472 6.578 2.32 1.784 3.823 2.608 5.414 2.969 1.049.237 1.322.125 2.027-.829.621-.84 1.129-1.104 2.126-1.104.721 0 1.396.139 1.501.31.379.614-.752 2.199-1.971 2.763-1.104.51-1.219.707-1.014 1.728.635 3.14 4.193 7.435 6.834 8.246 1.779.543 4.747.224 5.925-.638zm-6.967-16.237c-1.445-1.717-1.494-3.09-.162-4.525 1.014-1.092 1.67-1.094 2.251-.008.252.471.699 1.098.994 1.393.731.73.471 2.38-.456 2.896-.418.233-.948.658-1.179.945-.338.423-.614.289-1.448-.701z"/></svg>