<svg xmlns="http://www.w3.org/2000/svg" width="auto" viewBox="0 0 432.626 499"><path d="M161.248 498.325c-10.671-2.674-22.427-12.798-26.681-22.979-4.406-10.545-6.778-49.374-3.543-57.993.859-2.29 3.241-5.737 5.293-7.658 2.515-2.358 3.486-4.524 2.979-6.652-3.782-15.902-2.171-24.597 4.555-24.597 2.261 0 6.436-.678 9.277-1.507 4.608-1.346 5.482-1.129 8.121 2.016 1.626 1.938 4.066 5.57 5.423 8.067 1.355 2.501 5.207 5.945 8.559 7.655 6.896 3.517 10.298 8.386 15.526 22.208 12.573 33.247 12.973 58.955 1.112 71.449-7.692 8.103-20.93 12.423-30.621 9.991zm128.341-20.588c-1.781-.537-6.764-3.971-11.072-7.629-19.42-16.494-22.952-23.9-24.76-51.956l-1.111-17.21-6.89-10.771c-7.489-11.706-7.697-12.944-5.632-33.536 1.326-13.223 3.783-16.482 10.368-13.755 2.478 1.026 5.422 3.925 6.682 6.58 2.865 6.035 5.461 8.241 16.559 14.065 13.224 6.941 19.098 12.407 26.066 24.264 3.432 5.839 6.672 10.946 7.201 11.354 4.049 3.104 13.474 27.963 15.291 40.319 3.064 20.857-16.095 43.279-32.702 38.275zM34.067 418.273c-6.651-1.935-13.6-9.93-15.337-17.651-4.933-21.905-7.43-42.344-5.96-48.789 1.892-8.3 9.103-20.262 15.152-25.133 5.758-4.636 15.922-4.88 23.323-.558 5.667 3.31 6.371 5.132 8.783 22.734.947 6.912 2.653 16.323 3.792 20.912 2.906 11.715 2.579 17.111-1.578 26.043-5.779 12.41-12.065 20.573-17.233 22.375-5.276 1.841-4.865 1.838-10.942.067zm323.074-32.664c-2.848-.771-9.83-4.527-15.52-8.348-13.477-9.053-16.664-14.741-18.321-32.717-.877-9.487-2.019-14.331-3.862-16.368-1.587-1.753-2.619-5.222-2.619-8.8 0-4.576-.785-6.422-3.494-8.194-1.921-1.261-3.495-3.633-3.495-5.272 0-1.641-1.433-5.783-3.184-9.206s-3.58-9.883-4.065-14.353l-.882-8.128-5.51.478c-8.41.728-10.894-.672-18.314-10.314-7.063-9.177-10.363-17.326-11.06-27.302-.219-3.158-.592-6.146-.825-6.639-.234-.494-3.413 1.966-7.066 5.467-7.88 7.549-12.963 8.837-27.847 7.058-16.378-1.959-17.357-1.605-29.332 10.613-7.795 7.953-13.828 12.515-21.879 16.546-10.156 5.085-12.145 5.559-22.998 5.495-13.966-.081-29.703-4.738-34.446-10.193-2.791-3.211-3.63-3.394-9.468-2.08-8.509 1.914-27.372-.648-35.601-4.838-7.139-3.636-18.24-12.213-22.334-17.258-2.375-2.927-3.625-3.262-9.107-2.44-5.811.871-6.79.528-11.435-4-7.399-7.211-18.926-34.278-20.676-48.552-.749-6.106-1.704-13.857-2.122-17.226-.419-3.369.388-11.291 1.793-17.605 1.99-8.945 2.302-14.285 1.414-24.183-1.568-17.47-1.393-19.849 1.587-21.562 1.427-.82 4.569-3.196 6.982-5.279 3.929-3.392 4.503-5.016 5.492-15.523.608-6.455 1.554-12.807 2.102-14.116.62-1.48-.366-3.999-2.609-6.665-4.021-4.778-8.379-14.315-8.379-18.333 0-4.507 8.762-20.531 12.603-23.046 4.939-3.237 4.612-5.417-1.515-10.09-3.852-2.938-5.174-5.061-5.174-8.307v-4.36h155.354l4.462 3.3c5.655 4.181 13.783 4.107 21.483-.193C212.725.031 214.526-.1 245.44.294l32.445.415 2.71 9.61c1.49 5.285 4.431 14.839 6.536 21.231 3.196 9.711 3.658 13.114 2.81 20.698-1.306 11.641-5.396 20.859-12.556 28.295-3.251 3.375-6.159 8.135-6.773 11.088-.596 2.846-2.657 7.055-4.584 9.354-2.087 2.488-3.505 6.093-3.505 8.911 0 2.608-2.654 9.923-5.913 16.296-3.255 6.36-5.914 13.012-5.914 14.782 0 1.77 2.873 7.858 6.386 13.528 10.731 17.326 15.876 31.589 16.857 46.741l.856 13.212 6.263-.939c8.322-1.248 12.191 1.417 20.752 14.295 7.76 11.673 12.457 23.801 12.457 32.164 0 4.828.571 5.934 3.44 6.653 4.484 1.126 20.823 17.342 22.842 22.671.863 2.275 1.97 5.974 2.459 8.214.671 3.08 3.867 6 13.056 11.935 12.927 8.348 17.721 13.946 23.839 27.822 10.139 22.998 10.401 34.318 1.025 44.174-4.94 5.194-6.341 5.855-12.1 5.72-3.582-.084-8.84-.782-11.688-1.554h.001zM61.455 330.025c-11.034-5.511-5.644-14.74 11.601-19.862 7.941-2.357 11.519-2.813 13.306-1.692 6.628 4.161 5.828 18.266-1.245 21.923-5.772 2.985-17.311 2.804-23.662-.369zm71.701-2.38c-2.81-4.29-4.747-22.295-2.543-23.656 2.63-1.626 5.685.459 10.503 7.168 5.873 8.178 7.214 14.207 3.9 17.521-3.565 3.563-9.167 3.077-11.86-1.033zm86.235-8.746c-10.995-8.326-15.205-22.456-8.498-28.526 2.544-2.303 2.914-3.854 2.141-9.006-.789-5.256-.476-6.47 2.003-7.797 4.171-2.233 10.231.429 12.088 5.311 1.862 4.898.826 7.94-3.052 8.956-4.27 1.115-3.62 3 1.417 4.105 9.479 2.082 16.332 11.008 16.332 21.272 0 7.454-3.021 10.528-10.34 10.528-4.145.001-7.432-1.315-12.091-4.843zm171.318-185.097c-5.271-2.014-11.605-5.968-17.785-11.103-1.48-1.231-5.139-5.564-8.13-9.628-2.99-4.064-9.928-12.608-15.415-18.986-5.489-6.378-9.979-12.623-9.979-13.878 0-1.254-1.691-3.848-3.757-5.763-7.034-6.519-.355-11.765 14.485-11.377 16.759.436 38.921 7.124 58.758 17.729 13.84 7.401 18.454 11.047 21.576 17.046 10.146 19.501-17.461 44.476-39.753 35.96zM.839 110.111c-2.282-2.75.375-6.653 4.529-6.653 3.445 0 4.781 2.2 3.598 5.927-1.102 3.475-5.519 3.869-8.127.726zm309.006-54.682c-2.591-3.124-.743-6.672 3.477-6.672 4.575 0 5.946 3.464 2.576 6.514-3.209 2.903-3.761 2.918-6.053.158zm18.215-17.391c-1.584-2.515-.563-19.142 1.316-21.437.832-1.017 2.739-1.848 4.238-1.848 6.592 0 8.146 15.514 2.155 21.504-4.058 4.059-5.993 4.506-7.709 1.781z"/></svg>