<svg width="602" height="645" viewBox="0 0 602 645" xmlns="http://www.w3.org/2000/svg"><path d="M331.21 634.79c-2.099-.749-4.574-2.024-5.5-2.834-1.267-1.109-5.644-1.612-17.684-2.032-24.373-.852-40.478-4.224-88.946-18.626-21.884-6.503-28.29-9.145-33.767-13.924-1.808-1.578-9.587-6.164-17.287-10.192-18.978-9.928-29.643-17.033-38.137-25.407-8.243-8.127-15.792-13.982-20.632-16.004-1.946-.813-4.587-3.227-6.205-5.672-7.779-11.755-16.86-18.486-23.444-17.374-3.596.607-3.948.386-10.692-6.712-10.934-11.511-25.883-35.067-24.59-38.75.284-.812 1.008-3.909 1.608-6.882 1.05-5.203.955-5.69-2.554-13.024-2.004-4.19-6.22-15.413-9.368-24.94-3.327-10.07-6.555-18.096-7.711-19.173-1.094-1.018-1.714-2.296-1.379-2.838 1.235-1.998-1.584-10.773-3.77-11.736-1.163-.512-2.274-1.831-2.468-2.931-.285-1.618-.105-1.761.944-.75 2.026 1.951 3.198 1.472 2.447-1-.376-1.238-1.738-8.55-3.026-16.25-1.523-9.105-2.414-12.601-2.548-10l-.205 4-.948-4c-1.276-5.385-1.932-67.946-.818-78 .548-4.95.526-8.363-.06-8.95-1.248-1.255-1.208-10.151.066-14.557.555-1.922 1.43-7.169 1.945-11.66 1.044-9.11 7.012-27.802 20.143-63.083 7.649-20.551 8.465-22.25 10.69-22.25h2.409l-2.145-3.636-2.146-3.636 2.133-2.27c1.724-1.835 1.924-2.658 1.046-4.298-1.672-3.125-1.291-8.837.873-13.078 3.235-6.342 19.983-19.658 24.317-19.335 4.08.304 9.63-3.604 17.392-12.247 4.445-4.95 11.85-12.375 16.457-16.5 4.606-4.125 9.275-8.338 10.376-9.362 4.115-3.831 25.289-19.4 33-24.266 11.497-7.255 26.719-15.626 37.98-20.89 20.257-9.464 52.529-21.086 53.626-19.311.398.644 2.18.47 5.006-.489 2.413-.819 9.563-1.982 15.888-2.584 10.332-.984 12.295-1.501 19.331-5.097 4.307-2.201 9.032-4.002 10.5-4.001 3.908.001 12.292 3.433 14.229 5.825 2.17 2.679 3.164 2.87 24.091 4.63 24.848 2.091 37.849 5.028 37.849 8.55 0 .528-2.264 2.108-5.03 3.51-15.08 7.64-40.4 24.212-56.08 36.703-26.953 21.472-51.827 50.864-64.768 76.531-3.125 6.198-4.84 8.099-3.833 4.25.288-1.1.123-2-.366-2-1.591 0-9.987 18.852-14.401 32.338-7.764 23.716-12.476 49.88-14.486 80.425l-1.07 16.262 4.858 10.298c2.672 5.665 6.504 13.108 8.516 16.541 2.013 3.434 3.66 6.505 3.66 6.825 0 1.405-4.065-4.84-7.934-12.188-6.86-13.028-7.713-12.92-5.085.649 1.023 5.282 2.796 12.746 3.94 16.585 2.49 8.361 2.483 8.265.51 8.265-1.022 0-1.387.609-1.051 1.75.284.963 1.023 4.64 1.643 8.173 2.924 16.665 12.833 39.638 25.63 59.423 8.852 13.685 30.56 42.58 32.02 42.62.645.019 3.12 1.505 5.5 3.304 2.812 2.126 5.44 3.263 7.51 3.25 3.168-.02 9.103 5.34 34.301 30.98 2.703 2.75 8.798 7.439 13.545 10.42 10.01 6.284 30.87 15.545 40.932 18.172 6.796 1.774 9.466 1.726 6.51-.118-.963-.6-.089-.716 2.529-.334 5.403.788 14.5 4.93 14.5 6.601 0 1.479 9.074 3.87 24.374 6.422 19.403 3.236 61.054 2.35 63.467-1.35.362-.556 5.834-1.293 12.16-1.638 17.84-.972 38.742-6.842 52.7-14.8 2.861-1.632 6.236-2.876 7.5-2.765 4.47.39 5.568-.12 6.087-2.833.373-1.951-.02-3.101-1.384-4.057-1.047-.733-1.904-2.053-1.904-2.932 0-1.443.177-1.438 1.829.057 1.006.91 2.356 1.655 3 1.655s1.171 1.106 1.171 2.459v2.458l7.25-3.857c3.988-2.122 8.263-4.158 9.5-4.526 3.626-1.078 2.8 2.252-1.594 6.433-2.114 2.011-4.146 4.858-4.514 6.326-.937 3.733-5.577 8.728-13.7 14.75-3.818 2.83-6.942 5.726-6.942 6.436 0 .709-1.827 2.804-4.06 4.655-2.232 1.851-8.87 7.876-14.75 13.388-25.24 23.662-41.96 36.673-63.19 49.173-11.234 6.615-49.579 25.463-55.5 27.281-3.85 1.182-9.218 3.134-11.93 4.337-2.711 1.203-5.534 2.053-6.272 1.889-.738-.165-2.001.36-2.806 1.164-1.504 1.504-15.897 5.025-25.258 6.178-5.462.673-7.234 2.23-7.234 6.352 0 1.537-1.022 2.303-4.228 3.166-15.224 4.1-27.136 4.97-34.088 2.49zm-42.684-13.551c0-.55-.675-1-1.5-1s-1.5.45-1.5 1 .675 1 1.5 1 1.5-.45 1.5-1zm16.25-3.986c4.438-.01 5.75-.356 5.75-1.514 0-1.249-1.966-1.498-11.75-1.486-11.954.013-16.25.557-16.25 2.055 0 .863 10.958 1.823 14.5 1.27 1.1-.171 4.587-.318 7.75-.325zm41.814-2.51c13.746-1.8 21.821-3.508 22.61-4.785 1.976-3.197-11.128-3.595-23.674-.72-4.675 1.073-9.963 1.961-11.75 1.975-3.619.029-4.454 2.225-1.5 3.946 2.216 1.29.995 1.326 14.314-.417zm-32.564-3.489c10.868-.996 17.761-1.974 18.417-2.61.23-.223-4.185-.405-9.808-.405-11.612 0-29.108 1.9-29.108 3.16 0 1.075 7.805 1.02 20.5-.145zm87.562-2.862c4.64-1.566 10.125-3.16 12.188-3.545 2.062-.384 3.75-1.128 3.75-1.653 0-.525.9-.955 2-.955s2-.188 2-.418c0-.23.261-1.099.58-1.93.512-1.334.008-1.355-4.25-.178-6.992 1.933-28.768 8.708-29.18 9.078-.81.727 1.104 2.448 2.721 2.448.964 0 5.55-1.281 10.191-2.847zm-139.06.305c0-.298-.465-1.086-1.034-1.75-.569-.665-1.581-1.98-2.25-2.925-1.272-1.796-9.74-3.685-9.684-2.16.017.482.66 1.706 1.428 2.72 1.876 2.475 11.54 5.921 11.54 4.115zm23.412-.268c.501-.28 4.551-.591 9-.693 4.449-.102 9.347-.535 10.885-.961 2.658-.738 2.713-.869 1.108-2.642-1.473-1.628-3.364-1.881-14.796-1.984-16.9-.152-30.997.147-31.518.668-.884.882 3.412 4.499 6.329 5.328 3.27.929 17.456 1.142 18.993.284zm67.267-2.39c4.481-1.621 4.213-3.039-.429-2.267-5.264.874-6.25 1.259-6.25 2.436 0 1.37 2.604 1.304 6.679-.17zm43.688-1.179c2.677-.823 5.732-2.424 6.789-3.559s2.804-2.062 3.883-2.062c1.078 0 1.96-.675 1.96-1.5 0-.915-.932-1.5-2.392-1.5-1.317 0-2.63-.618-2.92-1.374-.29-.755-2.026-1.655-3.858-1.998s-8.5-2.61-14.818-5.037l-11.488-4.412-1.755 2.66c-.965 1.464-1.757 2.95-1.76 3.302-.022 2.024 16.876 6.8 24.791 7.009 3.136.082 4.464.337 2.951.566-2.862.434-3.874 2.284-1.25 2.284.825 0 1.5.39 1.5.866s-1.91.516-4.246.089c-3.011-.55-5.264-.344-7.75.712-1.927.818-5.907 1.644-8.844 1.834-6.168.4-6.939.855-5.133 3.03 1.08 1.302 2.915 1.493 10.392 1.084 4.994-.274 11.27-1.171 13.949-1.994zm-173.37.486c0-1.11-3.076-2.364-3.864-1.576-.318.318.084.996.893 1.508 1.87 1.182 2.97 1.208 2.97.068zm24.443-1.357c-.38-1.238-.753-2.33-.828-2.427-.074-.097-1.706-.322-3.625-.5-4.642-.43-5.083 1.267-.879 3.379 4.786 2.403 6.174 2.286 5.332-.452zm71.151 1.098c1.146-1.855-2.627-3.848-7.285-3.848-5.114 0-5.58 1.544-1.059 3.51 3.99 1.733 7.396 1.871 8.344.338zm14.406-1.813c0-1.754-3.795-3.035-8.993-3.035-5.27 0-5.967 1.267-1.655 3.007 2.953 1.191 10.648 1.212 10.648.028zm14.559-1.13c1.123-1.818-2.307-4.305-5.937-4.305-2.255 0-3.249-.41-2.942-1.21.455-1.185-2.301-2.864-20.87-12.722l-8.69-4.614-1.452 2.908c-1.268 2.542-1.267 2.978.004 3.466.8.307 1.221.935.937 1.396-.286.462 3.074 2.753 7.465 5.093 5.923 3.156 9.719 4.458 14.705 5.046 4.976.587 6.137.985 4.471 1.532-3.267 1.072-2.769 2.169 1.5 3.302 5.164 1.372 9.998 1.42 10.81.107zm-77.559-3.3c0-2.468-9.716-7.871-15.078-8.387-2.71-.26-4.922-.054-4.922.459 0 1.44 6.204 7.096 9 8.205 3.929 1.558 11 1.38 11-.278zm26-.092c0-3.36-13.997-9.547-21.428-9.472l-4.072.04 3.5 3.067c1.925 1.687 5.75 4.14 8.5 5.45 5.786 2.757 13.5 3.28 13.5.915zm-43-.079c0-3.319-7.202-10.434-10.562-10.434-3.279 0-3.073 1.811.776 6.818 2.62 3.41 3.821 4.182 6.5 4.182 1.807 0 3.286-.254 3.286-.565zm51.5-1.112c0-1.83-14.218-11.322-16.96-11.322-1.35 0-.353 1.903 1.21 2.311 1.274.333 1.117.49-.577.574-1.849.092-.819 1.149 5 5.13 6.876 4.706 11.328 6.006 11.328 3.308zm13.5-.344c0-1.318-1.627-3.054-4.677-4.988-5.395-3.421-9.8-4.494-13.233-3.221-2.283.846-2.085 1.09 3.792 4.66 9.257 5.623 14.118 6.845 14.118 3.549zm-76 .035c0-2.336-5.61-8.939-7.625-8.975-1.169-.02-3.638-.34-5.486-.71l-3.362-.672 1.638 2.422c.901 1.332 2.332 2.364 3.18 2.293.848-.072 2.263 1.391 3.145 3.25 1.365 2.877 2.117 3.38 5.057 3.38 1.899 0 3.453-.445 3.453-.988zm34 .161c0-1.923-4.944-5.409-6.7-4.723-1.598.624-1.463.974 1.2 3.121 3.006 2.423 5.5 3.15 5.5 1.603zm-49.659-4.174c-.975-1.65-2.188-3-2.696-3-.509 0-1.424-.642-2.035-1.427-.61-.785-2.235-1.573-3.61-1.75-2.3-.297-2.5-.006-2.5 3.632 0 4.395 1.385 5.251 8.807 5.445l3.806.1-1.772-3zm202.36 1.109c5.33-1.948 15.884-7.63 16.737-9.01.265-.428-1.996-1.228-5.024-1.777-4.721-.856-5.423-.786-4.935.486 1.23 3.206-23.337-.952-46.247-7.827-7.297-2.19-13.485-3.98-13.75-3.98-.266 0-.483.924-.483 2.055 0 2.525 4.834 4.809 18.688 8.832 10.607 3.08 17.746 5.9 15.265 6.03-.85.045-6.926-1.727-13.5-3.938-11.313-3.805-17.453-4.491-17.453-1.95 0 1.06 20.017 7.639 28.988 9.528 4.662.982 6.773 1.06 7.5.28.69-.741.613-1.234-.238-1.546-1.33-.488-1.766-3.323-.5-3.247 1.46.088 9.73 4.865 8.5 4.91-1.643.06-1.629 3.045.014 3.045.695 0 3.593-.85 6.438-1.891zm23.048-3.152c4.537-2.126 8.25-4.373 8.25-4.994 0-1.36.506-1.532-11.922 4.037-9.803 4.393-12.852 6.652-7.328 5.43 1.512-.335 6.462-2.348 11-4.474zm-102.03 2.178c.683-.382-4.55-2.98-11.872-5.892-12.076-4.806-14.85-5.431-14.85-3.349 0 .427 3.853 2.74 8.563 5.138s8.81 4.763 9.114 5.255c.558.902 6.788.108 9.044-1.152zm5.81-4.236c.367-1.155.285-2.424-.182-2.82-.708-.6-16.629-7.944-35.088-16.186-5.33-2.38-5.26-2.388-5.26.607 0 1.375.504 2.5 1.121 2.5.752 0 .69.521-.185 1.576-1.084 1.307-1.062 1.732.127 2.485.79.5 2.329.915 3.42.924 1.091.008 4.466 1.22 7.5 2.692s6.529 3.048 7.766 3.5 3.262 1.257 4.5 1.788c2.81 1.204 14.011 4.956 14.933 5.002.375.018.983-.912 1.35-2.068zm-157.1-1.995c1.599-1.49-.15-2.126-2.454-.892-1.548.828-2.506.86-3.256.111-.75-.75-.365-1.32 1.306-1.938l2.368-.876-2.608-.498c-2.245-.43-2.665-.11-3.02 2.306-.286 1.952.067 2.93 1.16 3.217 1.898.497 5.224-.234 6.505-1.43zm54.167-1.638c-.335-.335-2.52-.743-4.855-.905-2.334-.163-5.482-.588-6.995-.945-2.123-.501-2.75-.285-2.75.948 0 1.695 4.085 3.201 6.337 2.337.737-.283 2.876-.192 4.752.203 3.145.661 4.962-.186 3.51-1.638zm24.96 1.202c-2.051-1.551-5.521-1.852-9.394-.816-3.77 1.01-.447 2.32 5.835 2.3 5.052-.014 5.342-.135 3.559-1.484zm-45.885-4.127c-.28-.28-2.347-.756-4.592-1.057-3.64-.488-4.083-.322-4.083 1.524 0 1.672.724 2.131 3.75 2.382 3.414.282 6.354-1.42 4.925-2.85zm131.08 2.409c2.614-3.267 2.32-5.35-.997-7.05l-3.259-1.67 3.636.575c4.643.734 5.858-1.063 1.698-2.513-2.547-.888-3.488-.81-4.827.402-1.755 1.588-3.463 2.054-2.64.72.268-.432-.268-.838-1.19-.903-.922-.064-2.582-.41-3.688-.768-1.844-.597-1.982-.279-1.656 3.816.338 4.255.577 4.564 5.011 6.474 5.619 2.42 6.617 2.535 7.911.917zm-92.337-1.357c2.558-.982 1.84-1.999-2.285-3.235-5.801-1.738-10.218-1.54-9.463.426 1.05 2.737 7.757 4.34 11.748 2.809zm186.21-2.475c1.852-1.144 3.368-2.436 3.368-2.869s-6.188-1.751-13.75-2.929c-14.09-2.193-26.644-5.06-25.812-5.892.256-.256 3.525.258 7.264 1.144 13.663 3.238 37.567 6.759 38.635 5.69 1.532-1.532.557-2.013-5.938-2.926-5.66-.796-5.515-.83 3.6-.834 7.977-.004 10.294-.39 14.45-2.404 6.723-3.257 7.006-4.866.884-5.016-10.372-.254-10.215-1.43.187-1.407 10.48.024 11.351-.138 17.75-3.288 3.701-1.822 6.73-3.96 6.73-4.75s-.113-1.432-.25-1.426c-.138.006-2.46.68-5.16 1.5-5.655 1.715-11.194 1.94-12.09.489-.34-.55-4.08-1.008-8.31-1.017-8.069-.019-19.944-2.089-22.933-3.998-1.495-.955-1.384-1.031.742-.51 7.648 1.875 19.153 3.705 19.721 3.137.362-.362-.357-1.37-1.599-2.239-1.398-.979-2.028-2.177-1.656-3.147.331-.861.024-1.976-.682-2.477-.788-.559.454-.614 3.216-.142 7.167 1.223 14.267 1.051 14.743-.357.287-.85-.806-1.272-3.41-1.32-7.683-.141-8.126-1.787-.5-1.86 8.07-.077 9.525-1.819 2.84-3.4-2.02-.478-3.674-1.444-3.674-2.147s-.962-1.918-2.138-2.699c-1.924-1.277-3.436-.978-15.109 2.983-12.932 4.389-22.252 6.038-27.164 4.805-4.86-1.22-2.6-2.167 5.161-2.162 5.84.003 10.645-.831 19.5-3.385 6.463-1.864 11.736-3.88 11.718-4.477-.017-.598-1.168-2.38-2.556-3.96-2.362-2.686-2.86-2.827-7.719-2.196-2.856.372-12.394 2.398-21.194 4.504-16.212 3.879-26.27 5.636-23.5 4.104.825-.457 5.325-1.581 10-2.5 7.559-1.485 24.081-5.566 29.5-7.288 6.512-2.068-15.448-1.848-31.4.314-4.23.573-5.233.458-4.623-.529.452-.73.2-1.627-.599-2.132-.814-.515 4.752-.83 13.622-.768 15.53.108 24.5-.716 24.5-2.25 0-.796-26.144-1.558-41.5-1.21-29.958.68-55.024.132-56.389-1.232-.244-.245 4.356-.445 10.222-.445 8.446 0 10.667-.29 10.667-1.392 0-1.368-2.985-2.556-8.088-3.22-1.423-.184-5.473-1.016-9-1.847s-9.413-1.518-13.082-1.526c-14.993-.033-50.933-7.824-66.864-14.493-7.437-3.114-19.118-10.342-20.608-12.752-.421-.682 1.463.384 4.188 2.37 8.765 6.385 20.062 11.113 21.396 8.955.5-.81 2.127-.51 5.628 1.039 7.857 3.475 23.118 7.54 36.527 9.727 18.783 3.064 22.904 3.473 22.904 2.271 0-1.397-4.984-2.673-24.24-6.206-23.406-4.295-36.041-8.046-41.953-12.452-2.528-1.885-2.665-1.925 8.443 2.487 7.795 3.095 24.17 7.322 33 8.518 5.371.728 6.44-.694 1.75-2.33-1.65-.574-3-1.518-3-2.097s-1.565-1.052-3.478-1.052c-1.913 0-5.984-1.23-9.048-2.732-4.767-2.338-5.707-2.518-6.522-1.25-.798 1.242-1.043 1.159-1.513-.518-.66-2.357-36.62-21.459-37.188-19.755-.194.582-2.467-1.035-5.052-3.593-2.585-2.559-8.524-6.983-13.199-9.833-9.468-5.771-16.435-11.39-18.176-14.657-1.057-1.984-1.008-2.044.588-.726 1.142.942 1.972 1.08 2.414.4.758-1.165 4.592-3.336 5.893-3.336 1.275 0 4.082 5.315 3.565 6.75-.248.688.258 1.25 1.123 1.25.866 0 2.591 1.573 3.834 3.496 1.242 1.922 3.046 3.753 4.009 4.067.962.315 1.75.992 1.75 1.505 0 .512.469.932 1.042.932.573 0 2.008.9 3.188 2 2.436 2.27 5.77 2.661 5.77.678 0-.727-1.785-2.82-3.966-4.65-3.791-3.18-4.611-5.57-1.502-4.377 1.62.621 1.762.28.861-2.07-.676-1.762-3.393-2.18-3.393-.522 0 1.967-2.02-.172-3.494-3.7-.805-1.926-1.927-3.217-2.492-2.867-.566.349-1.33-.153-1.7-1.116-.668-1.741-6.206-7.075-9.088-8.755-1.226-.714-1.414-.382-1.001 1.774.279 1.46.157 2.869-.27 3.133-1.456.9-8.727-8.497-9.415-12.168-.433-2.306-1.822-4.547-3.858-6.224-7.3-6.013-14.105-12.917-16.888-17.135l-2.97-4.5 3.64 4c9.81 10.78 11.684 12.685 12.086 12.284.412-.412-4.83-14.247-8.253-21.784-2.718-5.984-6.957-11.488-9.939-12.905a281.108 281.108 0 0 1-6.67-3.326c-3.393-1.75-3.997-1.804-5.5-.479-5.061 4.462-12.188-5.791-12.188-17.536 0-8.641 3.43-13.755 9.223-13.755 4.383 0 4.372-2.391-.046-9.758-4.866-8.113-7.483-14.478-6.962-16.933.238-1.123 1.054.168 2.154 3.408 1.77 5.215 5.652 12.791 8.802 17.176 3.176 4.42 3.63 1.71 1.237-7.393-1.301-4.95-2.375-10.171-2.387-11.602-.011-1.431-1.13-4.131-2.484-6-4.661-6.428-8.55-13.405-9.601-17.222-1.743-6.332-.414-6.606 1.562-.323 1.01 3.211 2.377 6.379 3.037 7.04.661.66 1.516 2.192 1.9 3.404.385 1.212 1.356 2.203 2.159 2.203 1.196 0 1.4-1.665 1.137-9.25-.258-7.45-.847-10.418-3.023-15.25-1.486-3.3-2.045-5.149-1.241-4.108s1.641 2.39 1.86 3c1.157 3.212 1.791-1.69 1.945-15.025.143-12.448-.127-15.558-1.66-19.116-1.005-2.338-2.422-4.25-3.148-4.25s-2.251-1.186-3.391-2.635c-2.294-2.917-2.709-8.535-1.066-14.448.856-3.08 1.411-3.583 3.957-3.583 1.716 0 5.189-1.48 8.263-3.52l5.302-3.521 1.83-8.802c2.876-13.842 10.322-38.903 15.296-51.491 9.19-23.258 20.049-41.143 33.39-55 4.502-4.675 9.36-10.075 10.798-12s4.355-5.525 6.485-8 4.508-5.724 5.283-7.22c1.281-2.472 5.072-5.43 5.899-4.604.186.186-2.15 3.4-5.19 7.144s-5.28 7.052-4.98 7.354c.302.3 3.161-1.486 6.354-3.97 3.194-2.485 9.68-6.79 14.414-9.566 6.088-3.57 9.735-6.525 12.455-10.093 3.908-5.124 4.327-5.39 8.025-5.105 1.38.106 3.361-1.392 5.837-4.414 4.967-6.061 14.575-10.953 14.575-7.42 0 .667.697.817 1.75.378.962-.402 3.695-1.117 6.072-1.59 2.377-.474 5.692-1.836 7.366-3.029 1.675-1.192 5.3-3.4 8.057-4.908 4.51-2.466 4.79-2.811 2.796-3.444-1.218-.387-3.758-.414-5.644-.06-2.534.475-3.36.304-3.163-.655.411-2.007-6.492-2.156-12.948-.279-3.11.904-9.162 3.407-13.448 5.562-7.407 3.724-12.416 5.508-6.588 2.347 2.8-1.52 3.455-2.874 1.865-3.857-1.47-.909-7.333 1.522-12.25 5.077-2.548 1.844-5.628 3.352-6.843 3.352-1.342 0-2.408.758-2.715 1.93-.457 1.751-3.098 3.613-3.936 2.775-.945-.946 7.186-7.159 15.553-11.884 5.184-2.927 9.595-5.843 9.803-6.48.251-.769-1.658-1.274-5.676-1.5-4.296-.242-6.054.014-6.053.883.001.673-1.268 1.88-2.82 2.684s-3.408 2.163-4.121 3.023c-.759.914-2.287 1.385-3.678 1.132-1.308-.237-2.38-.033-2.38.454 0 .486-3.037 2.552-6.75 4.59s-8.423 5.547-10.468 7.799c-3.07 3.38-3.891 3.833-4.709 2.602-.788-1.188-1.242-1.24-2.23-.25-.684.683-1.715 1.231-2.293 1.22s.068-.882 1.434-1.932c1.537-1.18 2.724-1.52 3.114-.889.35.567 2.914-1.264 5.769-4.119 2.826-2.826 7.05-5.994 9.386-7.04 2.336-1.046 4.26-2.486 4.274-3.2.015-.741.982-1.196 2.25-1.06 1.223.13 2.23-.094 2.237-.5.008-.406.285-1.751.617-2.989.743-2.774-1.14-2.983-4.658-.517-1.36.953-3.191 1.612-4.07 1.463-.877-.148-3.802 1.564-6.5 3.805-2.802 2.329-5.625 3.891-6.588 3.647-.927-.234-1.925.199-2.219.963-.293.764-1.115 1.39-1.827 1.39s-1.739.935-2.281 2.08c-.543 1.143-3.913 3.655-7.488 5.581-3.575 1.926-5.375 2.59-4 1.474 1.927-1.563 2.229-2.3 1.317-3.215-.914-.917-2.462-.097-6.773 3.586-3.074 2.627-5.323 4.15-4.998 3.384.325-.765 4.61-4.761 9.522-8.88 4.913-4.12 8.932-7.833 8.932-8.25 0-1.495-1.913-.71-6.173 2.533-6.058 4.613-7.333 5.344-6.292 3.611.464-.773 1.658-1.993 2.654-2.711.996-.719 1.811-1.731 1.811-2.25 0-1.855-2.319-.888-6.131 2.556-4.091 3.696-6.189 4.498-5.23 2 .887-2.31-1.165-1.778-3.784.983-1.295 1.366-3.283 2.49-4.418 2.5-1.134.01-3.356 1.367-4.937 3.017-2.706 2.825-6.5 4.062-6.5 2.12 0-.486 1.43-2.28 3.178-3.99 1.748-1.708 2.9-3.384 2.561-3.724-1.515-1.515-11 3.676-19.314 10.57a4427.844 4427.844 0 0 1-16.182 13.348c-3.909 3.203-9.176 8.036-11.706 10.74-4.385 4.688-10.18 8.625-11.199 7.608-.262-.262 1.13-1.758 3.093-3.324 1.963-1.566 3.583-3.523 3.6-4.348s.693-2.373 1.5-3.44c1.846-2.44 1.89-5.184.094-5.873-2.892-1.11-13.625 12.764-13.625 17.613 0 2.485.278 2.747 2.25 2.122 1.573-.499.461 1.137-3.692 5.432-3.269 3.38-6.013 6.146-6.097 6.146-.085 0 .89-2.137 2.166-4.75s2.624-6.775 2.995-9.25l.674-4.5-2.26 2c-1.242 1.1-4.238 5.938-6.657 10.75s-4.608 8.75-4.864 8.75-.18-1.425.169-3.168c.535-2.675.376-3.069-1.025-2.531-2.631 1.01-1.943-.633 1.774-4.236 1.889-1.83 4-4.73 4.692-6.446.692-1.716 1.797-3.45 2.455-3.856s1.502-1.953 1.875-3.44c.373-1.485 1.548-3.923 2.612-5.416 3.465-4.867 2.066-5.077-5.972-.895-10.08 5.244-14.598 9.228-17.566 15.488-1.304 2.75-2.406 4.212-2.45 3.25-.043-.963-.7-1.75-1.458-1.75-2.41 0-9.345 7.627-10.582 11.638-2.159 7.004-2.201 7.044-3.502 3.362l-1.236-3.5-2.146 3.5c-1.452 2.366-2.148 2.914-2.15 1.691-.01-4.655-5.09 3.608-5.23 8.505-.085 3.01-.092 3.014-1.336.689-1.196-2.234-1.32-2.095-2.824 3.139-1.856 6.46-3.21 18.428-4.154 36.726-.547 10.612-.422 13.25.628 13.25 1.02 0 1.045.267.112 1.2-.66.66-1.2 2.712-1.2 4.559 0 2.17-.386 3.12-1.09 2.685-.67-.414-.876-2.43-.534-5.226.307-2.503.815-11.564 1.13-20.135.314-8.57.784-17.27 1.044-19.333.274-2.174.048-3.75-.539-3.75-.556 0-1.011.848-1.011 1.884 0 1.08-.908 2.12-2.132 2.44-2.076.543-2.116.893-1.536 13.367.328 7.045.219 14.834-.243 17.31-.62 3.324-.872.308-.964-11.55-.125-15.927-.635-18.45-3.732-18.45-.817 0-1.41 3.15-1.836 9.75a821.805 821.805 0 0 1-1.513 19.25c-.773 8.298-.817 7.679-.344-4.904.477-12.716.36-14.334-1.004-13.81-1.297.497-1.24-.079.358-3.598 1.046-2.304 1.912-4.752 1.924-5.44.024-1.396-4.562-1.731-5.39-.393-1.393 2.255-1.484 9.446-.151 12.023 1.284 2.483 1.24 3.063-.416 5.589-2.618 3.99-4.17 13.429-4.996 30.372-.677 13.91-.732 14.2-1.072 5.66-.464-11.674-.428-12.999.513-19.25.961-6.377-.754-7.2-3.134-1.502-1.093 2.614-1.417 5.615-1.07 9.921.31 3.87.077 6.592-.625 7.294-.827.827-.74 1.355.331 2.018 1.254.775 1.218 1.349-.265 4.208l-1.717 3.311.586-3.25c.495-2.742.286-3.25-1.334-3.25-1.274 0-2.832 1.674-4.625 4.97-1.488 2.732-3.134 5.234-3.659 5.558s-.954 1.64-.954 2.924-.582 2.557-1.292 2.83c-2.125.815-10.515 15.895-11.643 20.926-1.046 4.669-.634 7.792 1.029 7.792.484 0 2.49-3.196 4.457-7.102 1.967-3.907 3.833-6.846 4.147-6.533.643.643-.545 3.838-5.37 14.458-2.724 5.993-3.329 8.555-3.329 14.103 0 8.874 1.088 19.074 2.034 19.074.412 0 1.492-1.856 2.4-4.124.907-2.269 1.87-3.906 2.137-3.639.57.572-4.886 14.48-6.195 15.787-1.877 1.877-3.424-.924-4.603-8.334-.673-4.23-1.583-7.69-2.023-7.69-1.638 0-2.854 5.607-2.218 10.23.603 4.384.487 4.77-1.438 4.77-1.151 0-2.093.188-2.093.418 0 .23-.302 1.204-.67 2.164-.474 1.234-.308 1.522.567.982.796-.493 1.433-.017 1.787 1.336.302 1.155 1.224 2.1 2.049 2.1 1.057 0 1.332-.665.933-2.25-.537-2.132-.494-2.152.835-.374.876 1.171 2.033 1.633 3.085 1.23 1.453-.558 1.597-.132 1.059 3.124-.343 2.074-.628 4.768-.634 5.989-.008 1.591-.45 2.05-1.562 1.623-1.266-.485-1.424-.066-.862 2.282.38 1.582 1.077 3.634 1.55 4.56.475.927.822 2.502.772 3.5-.05.999-.512.354-1.028-1.434-1.059-3.665-2.34-4.132-3.808-1.387-.735 1.374-.416 3.346 1.215 7.498 1.216 3.1 2.466 5.636 2.776 5.637.311.001 1.436-2.092 2.5-4.65l1.936-4.654.11 6.125c.06 3.37-.265 5.895-.721 5.612-.457-.282-1.116.624-1.465 2.014-.622 2.48 2.327 11.543 3.758 11.551 1.218.007 2.016-4.07 1.335-6.818l-.663-2.678 2.132 2.272c1.172 1.249 2.038 3.049 1.923 4-.268 2.223 5.796 15.228 7.1 15.228.545 0 1.004-1.238 1.021-2.75.029-2.58.103-2.627 1.213-.75.65 1.1 3 6.5 5.22 12 4.666 11.556 6.11 14.259 7.093 13.277.388-.389-.928-5.572-2.925-11.518-3.423-10.192-4.761-17.862-2.74-15.71.49.523 2.038 4.407 3.439 8.631 2.971 8.962 5.325 13.82 6.695 13.82 1.315 0 1.228-2.16-.44-10.902-2.171-11.388-.05-19.874 2.612-10.448 1.618 5.73 4.28 7.41 3.278 2.07-.444-2.365-.242-3.746.626-4.283.74-.458 1.446-.295 1.673.386.216.647 1.03 1.177 1.809 1.177.844 0 1.417 1.01 1.417 2.5 0 1.375.45 2.5 1 2.5s1-1.11 1-2.465c0-2.932 3.1-5.035 4.846-3.288 1.843 1.842 1.447-9.644-.483-14.03l-1.636-3.717-.837 3c-.46 1.65-1.364 5.7-2.008 9-.644 3.3-1.382 5.396-1.64 4.658-.259-.738.312-5.5 1.27-10.582 1.36-7.225 1.485-9.713.578-11.408-1.527-2.853-5.95-5.725-7.034-4.567-.463.494-1.62 5.305-2.574 10.69s-1.953 9.572-2.221 9.303c-.268-.268.3-4.975 1.264-10.459.963-5.484 1.503-10.619 1.2-11.41-.568-1.478-8.195-3.922-9.177-2.94-.302.302-.548 2.584-.548 5.073 0 4.11-.128 4.35-1.392 2.62-1.182-1.616-1.634-1.701-2.999-.57-1.45 1.204-1.582.72-1.358-4.988l.249-6.322-4.375-.768c-2.405-.422-7.13-.384-10.5.086-6.89.96-8.028.606-5.124-1.593 1.554-1.176 3.666-1.383 9.499-.93 4.125.32 8.412.84 9.527 1.153 1.715.483 2.21-.118 3.223-3.901.99-3.703 1.533-4.384 3.159-3.959 1.61.421 2.086-.142 2.647-3.133.745-3.971-.114-5.867-1.595-3.524-.71 1.122-.934.835-.946-1.208-.009-1.473-.69-3.353-1.515-4.178-2.086-2.086-1.885-2.643.954-2.643 2.053 0 2.562-.614 3.112-3.75.36-2.063 1.253-5.775 1.982-8.25.73-2.475 1.607-6.639 1.95-9.252.56-4.259.82-4.648 2.497-3.75 2.68 1.434 2.847 1.35 4.42-2.248.782-1.788 1.451-2.575 1.488-1.75.07 1.58-1.47 6.018-4.242 12.218-.914 2.045-1.661 4.776-1.661 6.068s-.71 4.739-1.576 7.657c-.867 2.918-1.204 5.639-.75 6.045 1.3 1.164 10.324 3.131 11.377 2.48.522-.322 1-1.572 1.065-2.777.107-2.033.152-2.047.615-.19.275 1.1.993 2.31 1.596 2.689.702.442.163 1.553-1.5 3.095-1.831 1.696-3.047 4.442-4.122 9.31-3.01 13.62-3.008 12.776-.019 14.155 4.044 1.864 6.208 1.546 6.788-1 .282-1.237 1.824-8.245 3.426-15.574s3.236-13.628 3.63-14c.395-.372.461.224.147 1.324s-1.258 5.375-2.097 9.5-2.389 11.413-3.442 16.195l-1.916 8.695 2.139.305c1.274.182 2.947 1.82 4.139 4.052 2.167 4.062 3.433 4.763 3.615 2.003.22-3.368 1.795 6.354 2.934 18.13.71 7.332.792 12.116.214 12.5-2.12 1.404-6.154 9.94-6.802 14.394-.385 2.642-1.975 6.661-3.56 9-1.576 2.324-2.88 5.126-2.899 6.226-.025 1.536-.236 1.68-.91.616-.68-1.075-1.9-.361-5.45 3.19-2.516 2.515-4.913 5.838-5.328 7.384l-.753 2.81-.53-3.074c-.495-2.863-.736-3.02-3.531-2.279-1.65.437-4.658 2.166-6.684 3.842l-3.683 3.047 5.158 6.982c2.837 3.84 5.705 6.982 6.373 6.982s1.391-1.687 1.607-3.75c.256-2.442.451-1.516.56 2.655.166 6.302.137 6.377-1.792 4.631-1.078-.975-3.627-4.195-5.666-7.155-3.595-5.22-5.373-6.615-5.373-4.214 0 .642 1.542 3.974 3.428 7.405 1.886 3.43 3.124 6.578 2.75 6.993-.373.416-.116.432.572.036 1.142-.657 1.725.526 1.343 2.723-.079.454.296.554.832.222.536-.33 1.484.35 2.107 1.514.83 1.553 1.745 1.962 3.439 1.537l2.307-.58-1.78 5.742-1.78 5.741 3.89 4.228c2.14 2.325 3.883 4.575 3.872 5-.01.425-1.623-1.14-3.583-3.478-1.96-2.337-4.21-4.25-5-4.25-1.032 0-1.26-.702-.808-2.5.437-1.743.216-2.507-.731-2.525-.747-.013-3.554-2.938-6.238-6.5-2.683-3.561-5.333-6.475-5.889-6.475-.628 0-.78 1.947-.4 5.154.8 6.749 5.581 14.636 12.918 21.309 3.163 2.876 5.75 5.768 5.75 6.427s2.417 3.712 5.371 6.786l5.37 5.59 3.978-5.384c2.187-2.961 4.728-6.007 5.646-6.77 1.48-1.228 1.593-3.07.999-16.248-.478-10.58-.353-14.863.433-14.863.619 0 1.263-2.307 1.467-5.25.2-2.888.155 1.781-.098 10.375l-.462 15.625h2.595c2.26 0 2.635-.468 2.898-3.625.329-3.93 3.11-5.228 3.482-1.625.16 1.554.092 1.61-.31.25-.983-3.337-2.369-1.728-2.369 2.75 0 3.333.39 4.5 1.5 4.5.825 0 1.5-.342 1.5-.76s.96-1.359 2.134-2.092c1.697-1.06 2.293-1.076 2.908-.08.613.992 1.465.96 4.116-.159 2.124-.896 6.986-1.41 13.342-1.41 9.205 0 10.545.259 16.854 3.247 12.718 6.023 21.453 17.867 25.04 33.951 2.736 12.265 1.838 18.402-3.48 23.803-1.084 1.1-3.205 4.52-4.713 7.602l-2.743 5.602 2.095 5.398c4.035 10.395 8.568 18.958 9.886 18.677.72-.154 4.992 3.883 9.492 8.97 8.353 9.444 12.682 12.272 9.568 6.25-.853-1.65-1.341-3-1.084-3s1.956 2.796 3.775 6.212c3.191 5.99 13.084 17.79 14.916 17.79 1.596 0 .942-4.87-1.104-8.227-2.664-4.37-2.684-6.216-.049-4.57 3.048 1.903 3.65.082.966-2.928-3.024-3.392-.863-1.883 7.58 5.295 3.3 2.805 8.025 6.476 10.5 8.157s6.75 5.114 9.5 7.63c5.81 5.312 10.08 7.462 11.668 5.874 1.51-1.511.73-2.36-6.88-7.484-3.733-2.514-8.139-6.036-9.789-7.827l-3-3.256 4 3.01c2.2 1.654 7.375 5.5 11.5 8.546s8.357 6.492 9.405 7.658c1.896 2.11 1.89 2.121-.916 2.121-1.552 0-2.51.312-2.128.694 1.632 1.632 15.639-.706 15.639-2.61 0-.42-1.013-1.24-2.25-1.822-1.238-.582-6.917-4.367-12.621-8.41s-12.3-8.34-14.658-9.549c-4.108-2.105-6.135-3.972-5.26-4.846.401-.402 5.346 2.859 26.01 17.155 10.078 6.972 15.842 10.389 17.525 10.389.465 0 .6-2.138.3-4.75-.542-4.712-.602-4.78-7.516-8.413-6.563-3.448-10.53-6.845-10.53-9.015 0-.526 1.913.595 4.25 2.49 4.215 3.418 11.785 7.688 13.631 7.688.528 0 1.277-1.463 1.663-3.25 2.004-9.267 9.243-17.796 16.852-19.853 2.143-.58 6.213-2.803 9.045-4.941 10.273-7.756 16.822-8.812 24.677-3.979 6.39 3.931 11.613 6.063 13.286 5.42 1.6-.613 10.095 7.448 11.063 10.498.368 1.157 1.027 2.105 1.465 2.105 1.31 0 3.97 8.095 4.68 14.248.66 5.721.683 5.753 4.776 6.842 2.262.601 8.774 2.434 14.471 4.073 11.023 3.17 18.18 4.027 18.811 2.252.217-.61-3.448-2.274-8.392-3.81-9.314-2.894-15.496-5.39-13.684-5.525.601-.044 3.751.841 7 1.968 19.937 6.915 39.892 11.72 49.289 11.867 3.819.06 6.36-.52 8.75-1.997zm-16.132-11.346c-4.4-1.253-9.125-2.807-10.5-3.453l-2.5-1.176 2.5.581c11.03 2.564 23.937 6.38 21.5 6.356-1.65-.016-6.6-1.055-11-2.308zm12-9.572l-2-.86 2 .03c1.1.016 3.125.39 4.5.83l2.5.8-2.5.03c-1.375.016-3.4-.358-4.5-.83zm-182.5-5.5c-.695-.837-.803-1.5-.245-1.5.55 0 1.56.675 2.245 1.5.694.836.802 1.5.245 1.5-.55 0-1.56-.675-2.245-1.5zm-30.43-4.072c-1.058-.774-1.7-1.633-1.425-1.908s1.367.134 2.426.908c1.059.775 1.7 1.633 1.425 1.908s-1.366-.133-2.425-.908zm22.459.61c-2.44-1.542-.74-1.846 2.47-.442 2.275.996 2.517 1.32 1 1.343-1.1.017-2.661-.389-3.47-.9zm-45.855-8.353c-2.495-2.655-2.944-4.569-.62-2.64 1.519 1.26 3.871 4.955 3.155 4.955-.199 0-1.34-1.042-2.535-2.315zm184.58-8.45c-4.104-1.702-3.125-2.348 1.778-1.173 2.184.523 6.784.873 10.222.778 6.499-.18 8.844.519 5.402 1.612-3.053.968-13.97.205-17.402-1.218zm-199.47-9.972c-4.884-10.459-7.184-16.377-5.897-15.173.963.9 11.66 25.2 11.268 25.593-.19.19-2.606-4.499-5.371-10.419zm14.35 9.947c-1.031-1.67-2.59-6.21-2.13-6.21.75 0 3.683 6.151 3.174 6.66-.26.26-.73.058-1.043-.45zm38.37-4.21c-.824-.533-2.872-.977-4.55-.985-3.77-.019-5.45-1.597-5.45-5.122 0-2.17.378-2.607 1.91-2.207 1.269.332 2.092-.118 2.458-1.343.302-1.014.415-.34.25 1.5-.376 4.21 1.51 5.081 5.894 2.72 4.029-2.17 5.943-5.607 5.943-10.673 0-3.652.944-5.196 1.731-2.833.532 1.596 3.549.068 4.111-2.083.633-2.42-2.209-8.007-4.781-9.4-1.092-.59-2.57-1.85-3.287-2.796-2.031-2.686-8.507-4.05-13.213-2.783-6.1 1.643-9.44 5.004-9.317 9.374.057 1.994-.302 3.376-.798 3.07s-.9-1.656-.9-2.999c0-3.535-1.872-2.994-3.552 1.027-2.275 5.445-1.88 11.192.966 14.037 2.229 2.23 2.273 2.46.585 2.995-1.006.32-2.972.294-4.369-.056-5.412-1.359-8.184-17.66-4.36-25.637 8.617-17.98 38.473-13.755 46.225 6.542 2.253 5.901 1.672 17.418-.954 18.888-.915.512-3.901 2.919-6.636 5.347-5.355 4.756-5.641 4.88-7.906 3.417zm119 .042c-4.124-.361-8.85-1.4-10.5-2.31-3.544-1.952-3.22-2.1 1.507-.69 5.802 1.733 36.595 1.008 48.686-1.144 3.406-.607 6.781-.887 7.5-.624 1.688.619-1.524 1.298-12.693 2.684-4.95.614-11.752 1.55-15.115 2.08-6.515 1.025-7.713 1.025-19.385.003zm-163.47-8.993c-1.74-3.365-1.92-4.412-.624-3.61.953.589 3.295 6.56 2.573 6.56-.233 0-1.11-1.327-1.948-2.95zm206.47-.05c-1.237-.8-1.15-.96.5-.914 1.1.03 2.9.442 4 .915 1.832.787 1.79.864-.5.914-1.374.03-3.174-.381-4-.914zm-70.5-6.531l-6-1.314 5.952.563c3.274.31 7.099.912 8.5 1.337l2.549.774-2.5-.023c-1.375-.013-5.2-.614-8.5-1.337zm-9.75-2.13c.688-.278 1.813-.278 2.5 0s.126.504-1.25.504-1.937-.227-1.25-.505zm-80.111-11.839c.316-.825.963-1.5 1.437-1.5.474 0 .602.675.286 1.5-.317.825-.964 1.5-1.437 1.5-.474 0-.603-.675-.286-1.5zm35.862-19.583c-2.051-1.414-2.367-1.91-1-1.568 1.1.276 3.466.797 5.258 1.158 1.793.36 3.004 1.069 2.691 1.574-.933 1.51-3.76 1.037-6.95-1.164zm-184.5-49.417c0-3.208.24-5.593.533-5.3.764.765.844 9.756.094 10.506-.345.345-.627-1.998-.627-5.206zm15.195-15c.02-1.65.244-2.204.498-1.23s.237 2.322-.037 3c-.274.676-.482-.12-.461-1.77zm-14.628-10c.501-11.527 2.31-26.325 6.356-52 1.04-6.6 1.93-10.425 1.977-8.5s-.824 9.575-1.938 17c-4.078 27.181-3.998 26.253-2.352 27.457 1.118.818 1.412 2.523 1.135 6.574l-.375 5.47-.185-5.75c-.18-5.564-1.33-7.424-2.578-4.169-.334.87-.652 5.933-.707 11.25-.055 5.318-.495 10.793-.977 12.168-.546 1.554-.68-2.041-.356-9.5zm15.619-2.5c-.025-2.475.342-5.4.814-6.5.785-1.825.86-1.781.872.5.007 1.375-.36 4.3-.814 6.5l-.828 4-.044-4.5zm-6.068-11.006c-.13-5.014 2.627-30.072 3.394-30.839.716-.716.536 1.658-1.466 19.345-.996 8.8-1.864 13.972-1.928 11.494zm-17.93-4.494c-.007-1.65.338-5.25.766-8l.78-5 .033 5.5c.019 3.025-.326 6.625-.767 8-.78 2.434-.8 2.421-.812-.5zm-39.05-75c-.017-2.145 3.59-13.672 3.756-12 .054.55-.766 3.925-1.821 7.5-1.056 3.575-1.927 5.6-1.935 4.5zm17.933-1.75c.038-.687.457-2.15.93-3.25.685-1.596.873-1.663.929-.333.039.917.6 1.843 1.247 2.06 1.54.513.126 2.773-1.736 2.773-.792 0-1.41-.562-1.37-1.25zm37.006-18.3c.041-.522.722-2.525 1.512-4.45l1.437-3.5-.531 3.47c-.467 3.042-2.623 7.039-2.418 4.48zm70.86-26.928c-2.932-6.468-3.615-12.116-1.937-16.022.627-1.457.885-.509.951 3.5.05 3.025 1.164 8.538 2.474 12.25 1.31 3.713 2.172 6.75 1.916 6.75s-1.788-2.915-3.403-6.478zm-85.861.123c-.145-1.648 5.231-18.134 5.584-17.122.195.563-.964 4.838-2.577 9.5-1.613 4.663-2.966 8.093-3.007 7.622zm-39.075-16.287c0-.536.7-1.849 1.555-2.917 1.466-1.83 1.487-1.798.364.56-1.457 3.06-1.92 3.628-1.92 2.357zm85.44-4.06c-1.165-1.166-3.629-1.773-7.82-1.93a765.119 765.119 0 0 1-7.37-.297c-.688-.039-1.25-.71-1.25-1.49 0-1.156.691-1.229 3.724-.391 10.546 2.912 25.084-6.117 29.128-18.09 1.413-4.183 1.51-12.1.148-12.1-.55 0-1-.96-1-2.132 0-4.6-6.386-11.916-14.406-16.502-5.438-3.11-12.287-3.182-16.117-.17l-2.793 2.198.677-2.697c.554-2.208.338-2.697-1.19-2.697-1.026 0-2.272.85-2.768 1.89-.706 1.478-1.399 1.7-3.176 1.024-2.002-.763-2.121-1.112-1-2.918.7-1.128 3.23-3 5.62-4.16 8.277-4.015 23.855-1.169 34.296 6.266 5.083 3.62 7.187 9.84 7.237 21.398.047 10.907-.74 15.5-2.656 15.5-.68 0-1.819 1.864-2.53 4.141-1.923 6.164-6.66 12.477-10.318 13.752-4.134 1.441-4.425 1.414-6.435-.595zm5.56-2.871c0-.931-.68-1.441-1.667-1.25-2.51.486-2.854 2.823-.417 2.823 1.229 0 2.084-.645 2.084-1.573zm11-44.02c0-1.175-4.204-5.9-6.717-7.549-1.413-.927-3.214-1.438-4.001-1.136-1.875.72 6.358 9.278 8.926 9.278.985 0 1.792-.266 1.792-.592zm-13.067-10.766c-.239-.216-1.446-.704-2.684-1.084-1.638-.504-2.25-.285-2.25.802 0 1.697 3.024 2.71 4.434 1.485.513-.446.738-.987.5-1.203zm-60.793 46.359c0-.825.386-2.4.86-3.5.54-1.26.859-1.446.859-.5 0 .825-.387 2.4-.86 3.5-.542 1.26-.86 1.445-.86.5zm-22.956-5.11c-.102-1.986-.408-5.811-.681-8.5-.46-4.533-.42-4.647.55-1.56.574 1.832.88 5.657.68 8.5-.26 3.695-.417 4.14-.55 1.56zm15.546-.97c.353-1.352.807-1.806 1.056-1.057.24.722-.038 1.787-.619 2.369-.742.742-.872.351-.437-1.312zm16.376-.92c-.03-.825.797-3.3 1.838-5.5 1.04-2.2 1.917-3.325 1.947-2.5s-.797 3.3-1.838 5.5c-1.04 2.2-1.917 3.325-1.947 2.5zm-5.559-4.39c.308-1.589 1.213-4.289 2.01-6l1.452-3.11-.56 2.89c-.307 1.589-1.212 4.289-2.01 6l-1.451 3.11zm22.076-2.61c.35-1.925 1.029-4.4 1.51-5.5.601-1.373.676-.903.24 1.5-.348 1.925-1.028 4.4-1.51 5.5-.6 1.373-.675.903-.24-1.5zm-52.61-8.25c.009-.138.636-2.034 1.395-4.215 1.338-3.844 3.59-6.001 3.59-3.44 0 2.652-2.459 7.905-3.7 7.905-.715 0-1.293-.113-1.285-.25zm15.271-6.25c.008-2.75.202-3.756.432-2.236.23 1.52.224 3.77-.014 5s-.425-.014-.418-2.764zm27.756 3.75c.023-.413.904-2.325 1.958-4.25 2.264-4.134 2.7-2.252.475 2.05-1.464 2.83-2.521 3.786-2.433 2.2zm-16.71-4.75c2.967-10.678 3.923-13.578 4.34-13.161.728.727-2.586 12.984-3.825 14.152-.748.705-.904.406-.516-.991zm11.256-.5c.364-1.375 1.297-3.625 2.073-5l1.412-2.5-.66 2.5c-.365 1.375-1.297 3.625-2.074 5l-1.412 2.5zm14.443-13.5c0-.55.437-1.675.97-2.5s.969-1.05.969-.5-.436 1.675-.97 2.5-.969 1.05-.969.5zm-14.317-14.5c.63-3.84 1.006-4.614 1.837-3.783.303.303-.116 2.065-.93 3.917l-1.48 3.366zm23.286-4.642c0-.537.7-1.85 1.556-2.917 1.466-1.83 1.487-1.798.364.559-1.458 3.06-1.92 3.628-1.92 2.358zm-23.805-2.858c.02-1.65.245-2.204.498-1.231.254.973.237 2.323-.037 3-.274.677-.481-.12-.46-1.769zm20.327-5c5.36-9.787 7.47-13.167 7.475-11.976.005 1.287-8.682 16.598-10.191 17.965-.615.556.608-2.139 2.717-5.989zm-8.71-9.292c3.003-6.47 4.966-9.399 7.189-10.727 1.171-.7 1.124-.358-.218 1.561-.944 1.352-3.328 5.27-5.298 8.708s-3.758 6.25-3.972 6.25.82-2.607 2.3-5.792zm3.384 3.292c.02-1.65.244-2.204.498-1.231s.236 2.323-.037 3c-.274.677-.482-.12-.461-1.769zm54.11-13.125c-1.543-1.444-1.993-2.043-1-1.331.994.711 3.919 1.862 6.5 2.557l4.695 1.264-3.694.067c-2.67.05-4.473-.66-6.5-2.557zm8.945-2.615c-2.338-.483-4.25-1.301-4.25-1.82s-.643-.94-1.428-.94-2.588-1.463-4.006-3.25c-2.052-2.587-2.764-2.961-3.484-1.834-.66 1.033-1.336-.03-2.494-3.931-.874-2.942-1.588-6.665-1.588-8.274 0-2.257-.362-2.787-1.582-2.318-.87.334-1.77.607-2 .607-.23 0-.418.627-.418 1.393s-.646 1.64-1.436 1.944c-.79.303-3.04 2.932-5 5.843s-3.564 4.786-3.564 4.166c0-1.56 7.717-11.737 13.88-18.302 2.816-3 5.12-5.743 5.12-6.096 0-1.252 33.62-34.542 40.518-40.12 3.858-3.12 8.357-5.991 9.998-6.38 1.641-.388 4.109-1.674 5.484-2.856 5.896-5.07 7-5.85 7-4.945 0 .979-10.8 12.353-11.728 12.353-.282 0-4.905 3.803-10.274 8.452-5.369 4.649-9.975 8.238-10.237 7.976-.262-.262-1.103.322-1.869 1.298-1.292 1.645-1.248 1.668.607.317 1.1-.8.45.212-1.446 2.25-3.574 3.844-5.324 5.014-2.926 1.957 1.242-1.584 1.207-1.62-.367-.387-.956.75-1.513 1.729-1.237 2.175.276.447-1.178 2.397-3.23 4.334-2.054 1.936-3.454 3.8-3.112 4.143.342.342 3.929 1.062 7.97 1.6 9.403 1.254 13.583 2.562 17.48 5.47 6.38 4.76 5.234 12.39-3.15 20.978-2.995 3.068-5.915 5.288-6.488 4.933-.574-.354-.92-.215-.768.31.339 1.18-9.802 8.186-13.225 9.138-1.375.382-4.413.3-6.75-.183zm8.54-6.663c10.497-5.383 14.722-17.77 8.56-25.094-2.518-2.992-2.902-3.115-7.653-2.462-2.752.379-6.455 1.295-8.23 2.037-6.515 2.722-10.961 10.879-10.296 18.89.611 7.374 9.584 10.75 17.619 6.63zm18.166-17.883c1.038-2.953 1.182-4.915.5-6.845-1.604-4.537-3.399-4.079-3.177.811.107 2.376-.184 5.835-.648 7.688-1.246 4.979 1.466 3.63 3.325-1.654zm-82.956 20.723c0-.55 3.543-10.548 7.875-22.219s8.12-21.894 8.42-22.719c.347-.952.575-.647.625.835.044 1.284-1.745 6.684-3.975 12-3.705 8.834-7.378 22.066-6.398 23.047.222.222 1.1-.175 1.952-.882 2.847-2.362 2.453-.458-.629 3.042-2.467 2.803-2.92 3.032-2.39 1.208.36-1.237.246-2.25-.253-2.25-1.306 0-3.27 4.726-2.643 6.36.292.76-.17 1.651-1.027 1.98s-1.558.148-1.558-.402zm-7.921-13.52c.048-1.166.284-1.403.604-.605.289.722.253 1.584-.08 1.917-.332.332-.568-.259-.524-1.313zm8.29-6.504c.836-3.134.787-4.199-.222-4.823-1.025-.633-.946-1.15.378-2.473 1.315-1.316 1.42-1.979.488-3.102-.652-.785-.895-1.898-.54-2.472.99-1.603 3.527-1.237 3.527.51 0 2.746-3.13 15.408-3.93 15.903-.427.263-.292-1.331.298-3.543zm12.63-1.209c0-2.232 18.622-42.66 20.527-44.566 1.344-1.343-2.825 8.458-7.81 18.361-5.678 11.284-9.717 21.87-9.717 25.468 0 1.14-.66 2.032-1.5 2.032-.825 0-1.5-.583-1.5-1.295zm-15.92-10.288c.047-1.165.284-1.402.603-.604.29.722.254 1.584-.079 1.917-.332.332-.568-.259-.525-1.313zm29.92.933c0-.607.675-1.665 1.5-2.35s1.5-1.954 1.5-2.822c0-1.237.262-1.315 1.214-.364.951.952.627 1.8-1.5 3.928-1.493 1.492-2.714 2.216-2.714 1.608zm99-52.112c0-1.146 2.719-4.238 3.727-4.238.32 0-.27 1.013-1.311 2.25-1.042 1.238-2.012 2.438-2.155 2.667-.144.229-.26-.076-.26-.679zm-25.054-3.577c3.67-3.9 4.054-4.162 4.054-2.78 0 .485-1.687 2.133-3.75 3.661l-3.75 2.78zm13.46-4.515c2.116-2.384 2.594-2.602 2.594-1.181 0 .53-1.012 1.496-2.25 2.145-2.238 1.175-2.24 1.17-.345-.964zm77.675-5.464c4.492-4.376 18.577-12.005 26.19-14.184 7.564-2.165 9.368-1.453 3.146 1.242-9.185 3.977-21.898 10.14-27.416 13.29l-5.5 3.14zm-114.08 537.82c0-1.111-1.166-1.5-4.5-1.5-5.322 0-5.715.592-1.25 1.881 4.726 1.365 5.75 1.297 5.75-.38zm40.82-1.75c-.256-1.807-1.057-2.311-4.07-2.56-2.422-.2-3.75.114-3.75.89 0 1.751 3.144 3.852 5.82 3.888 1.84.025 2.254-.433 2-2.218zm-9.55-.675c.61-2.328-1.229-3.201-11.65-5.534l-2.881-.645 2.082 3.302c1.987 3.152 3.307 3.72 10.813 4.66.623.078 1.36-.724 1.637-1.783zm114.34-1.825c1.915-2.521 1.835-7.634-.107-6.888-.895.343-3.678-1.2-6.9-3.824-5.23-4.259-5.598-4.39-11.495-4.096-3.351.167-6.77.866-7.599 1.553-2.085 1.73-1.926 5.002.244 5.015.963.006 6.475 2.213 12.25 4.905s10.9 4.937 11.39 4.99c.49.052 1.488-.693 2.218-1.655zm-164.25-.759c-.584-1.523-2.186-2.07-8.107-2.764-4.565-.535-4.044.826 1 2.61 5.682 2.012 7.839 2.059 7.108.154zm80.643-1.37c0-1.538-6.335-3.582-11.165-3.602-3.246-.013-5.59-.703-7.71-2.269-3.307-2.444-7.687-3.096-6.71-1 .321.688.85 1.993 1.175 2.9.556 1.554 5.234 2.782 12.666 3.327 1.516.111 3.053.5 3.416.863.989.988 8.327.796 8.327-.219zm107.99-6.37c-.012-6.604-3.338-14.003-9.106-20.26-6.002-6.512-7.58-7.196-10.174-4.41-1.422 1.526-2.234 1.848-2.517.998-.23-.69.082-1.755.694-2.367.612-.611 1.113-1.428 1.113-1.814 0-2.126-13.292-3.874-17.418-2.291-2.007.77-2.062 2.393-.082 2.393 2.593 0 1.629 1.936-1.25 2.51-1.513.3-4.053.97-5.646 1.486-1.596.518-3.567.564-4.392.103-2.184-1.222-4.652-.287-5.751 2.18-.529 1.185-2.07 2.412-3.427 2.725-2.586.598-5.426 4.593-6.573 9.246-.569 2.307-.357 2.75 1.315 2.75 1.097 0 2.725-1.116 3.618-2.48 2.095-3.196 7.474-6.052 8.835-4.691.59.59 3.988.773 8.287.448 6.191-.468 7.973-.219 11.853 1.66 2.622 1.269 5.868 3.987 7.625 6.386 2.434 3.323 4.637 4.828 10.782 7.366 4.248 1.754 8.736 3.216 9.973 3.25 2.057.055 2.25-.39 2.24-5.19zm-184.35 2.736c.753-1.961-1.367-4.487-3.766-4.487-2.112 0-2.365 1.22-.842 4.066 1.234 2.306 3.795 2.54 4.608.421zm-7.244-.324c1.592-2.575-7.702-8.163-13.577-8.163-4.323 0 .27 6.31 5.797 7.966 3.825 1.145 7.143 1.23 7.78.197zm70.62-3.687c.697-.838 1.09-1.655.873-1.814-.216-.16-2.46-1.946-4.988-3.97-4.424-3.542-10.904-5.93-10.904-4.018 0 1.43 7.95 9.364 10.356 10.334 2.998 1.21 3.242 1.182 4.664-.532zm-28.77-1.2c-2.408-.298-3.25-.904-3.25-2.34 0-1.064.676-1.936 1.5-1.936s1.5-.276 1.5-.614c0-1.788-4.567-8.352-6.55-9.413-2.722-1.457-7.29-.552-8.118 1.608-.662 1.725 2.996 6.07 5.88 6.986 1.443.458 1.632.917.794 1.927-1.69 2.037 2.61 4.54 7.467 4.346 3.692-.146 3.757-.193.778-.563zM157.3 560.49c-1.369-1.674-6.777-1.628-6.777.057 0 1.828 5.17 3.562 6.65 2.23.791-.714.83-1.426.127-2.287zm44.207 1c-.037-1.81-1.871-3.418-3.533-3.098-1.723.332-1.726.432-.059 2.098 1.81 1.81 3.619 2.313 3.592 1zm-6.985-2.25c-2.132-3.984-10.742-7.076-13.992-5.025-2.358 1.49.166 3.284 7.282 5.179 8.112 2.16 7.95 2.163 6.71-.154zm-20-4.5c0-.825-.73-1.5-1.622-1.5-1.329 0-1.397.272-.378 1.5.685.825 1.415 1.5 1.623 1.5.207 0 .377-.675.377-1.5zm23.74-1.781c-.552-1.655-4.74-1.916-4.74-.296 0 .776.562 1.607 1.25 1.847 1.774.619 3.898-.325 3.49-1.551zm-32.103-2.242c-.9-.658-1.637-1.658-1.637-2.22 0-1.862-4.343-2.256-6.213-.564-2.658 2.405-2.285 2.883 3.463 4.445 5.334 1.45 7.513.625 4.387-1.66zm328.02 2.2c1.302-1.3-1.068-2.669-4.465-2.577-5.082.137-8.456 1.197-9 2.825-.367 1.103.847 1.266 6.233.833 3.678-.295 6.933-.781 7.232-1.08zm-356.24-.543c.63-1.02-3.166-4.718-3.993-3.892-.655.656 1.721 4.758 2.757 4.758.386 0 .942-.39 1.236-.866zm51.136-.22c.908-1.47-1.153-3.378-3.853-3.57-1.21-.086-4-.48-6.2-.875-3.67-.66-3.874-.585-2.463.908.846.895 3.546 2.257 6 3.026 5.725 1.795 5.722 1.795 6.516.51zm17.864-2.52c2.05-.787 2.018-3.255-.073-5.565-2.008-2.22-3.689-2.324-5.34-.334-1 1.205-.923 1.981.4 4 1.721 2.628 2.421 2.893 5.013 1.898zm-53.418-1.707c0-2.964-10.924-10.096-12.718-8.302-1.45 1.45 1.405 6.198 4.73 7.864 4.129 2.069 7.989 2.28 7.989.438zm352.16-1.44c5.152-3.043 2.995-5.6-3.85-4.564-3.982.602-10.309 3.87-10.309 5.326 0 2.44 9.613 1.924 14.16-.761zm-333.16.253c0-.977-.958-1.489-2.75-1.468-2.634.03-2.668.094-.809 1.5 2.474 1.87 3.56 1.861 3.56-.032zm343.23-2.47c3.146-2.862 3.18-2.972.92-3-2.488-.032-8.154 3.47-8.154 5.038 0 1.963 4.109.805 7.234-2.038zm-322.86-.78c-1.046-4.364-3.31-8.25-4.804-8.25-.89 0-1.374-1.172-1.374-3.329 0-1.98-1.865-6.993-4.6-12.369-2.53-4.972-4.6-9.783-4.6-10.692 0-.909-1.125-2.165-2.5-2.792-2.518-1.147-2.58-1.373-3.007-10.952-.065-1.448-.94-3.455-1.945-4.46-2.155-2.155-4.571-7.599-4.494-10.124.03-.98.96.468 2.065 3.218 2.182 5.427 4.412 8.301 5.555 7.158.67-.669-.548-6.586-2.277-11.072-.476-1.234-.366-1.684.31-1.267.575.356 1.547 2.567 2.158 4.914 1.167 4.48 3.092 8.213 3.12 6.048.007-.67.641-.978 1.407-.684 2.572.987 5.109-8.053 5.097-18.167-.01-8.582-.225-9.495-4-16.967-3.834-7.589-6.49-10.448-6.49-6.988 0 2.608-1.681.866-2.34-2.423-1.077-5.392-7.66-9.733-7.66-5.052 0 1.1-.45 2-1 2-1.238 0-1.239-.24-.01-3.47 1.08-2.842.971-2.93-4.825-3.936-2.778-.482-3.826-.087-6.28 2.367l-2.946 2.946.28-2.704c.259-2.487.01-2.69-3.104-2.541-1.862.089-4.675 1.115-6.25 2.28-3.158 2.335-3.795 1.743-1.204-1.12.913-1.009 1.348-2.147.967-2.528-.91-.911-11.456 1.318-13.24 2.799-1.893 1.571-1.755 3.261.205 2.51 5.803-2.228 6.076-2.078 6.755 3.7 1.253 10.661 9.225 33.074 11.458 32.217.747-.286 1.985-.52 2.751-.52 1.013 0 1.25-.887.868-3.25l-.526-3.25 2.136 3.868c1.21 2.194 3.348 4.327 4.937 4.927 1.827.69 3.58 2.648 5.041 5.63 3.94 8.047 4.031 9.282 1.009 13.715l-2.734 4.009 2.881 9.39c3.408 11.107 7.301 19.961 8.776 19.961.58 0 1.056-.45 1.056-1s.45-1 1-1c1.572 0 1.168 2.156-.653 3.488-.91.665-1.351 1.697-.983 2.293.786 1.272 11.51 3.678 12.405 2.783.336-.336-3.084-8.137-7.6-17.337-4.517-9.2-8.203-17.399-8.19-18.22.011-.823 5.45 9.415 12.084 22.75 9.596 19.285 12.463 24.244 14.02 24.244 1.626 0 1.844-.462 1.296-2.75zm-48.658-82.582c-.396-1.007-.707-2.582-.69-3.5.027-1.488.142-1.476 1.067.113.57.98.881 2.555.69 3.5-.316 1.57-.409 1.56-1.067-.113zm-6.79 81.582c-.154-3.814-1.748-5.482-7.467-7.811-7.356-2.997-9.455-3.122-8.775-.525.762 2.918 4.508 5.969 9.923 8.083 6.107 2.385 6.405 2.397 6.318.253zm21.07-.182c0-1.167-3.923-2.48-4.797-1.605-.75.75 1.711 2.5 3.546 2.522.688.008 1.25-.404 1.25-.917zm12-1.092c0-.498-.949-1.413-2.108-2.033-3.122-1.671-4.68.392-1.814 2.4 2.22 1.554 3.921 1.395 3.921-.367zm10-.976c0-1.619-.667-2-3.5-2-4.197 0-4.532 1.207-.75 2.7 3.959 1.565 4.25 1.517 4.25-.7zm-17-.345c0-1.965-2.754-4.037-9.25-6.958-5.62-2.527-7.735-4.449-3.75-3.407 1.45.38 2 .03 2-1.267 0-1.98-3.079-3.21-5.025-2.007-3.485 2.153 3.293 10.842 10.433 13.375 5.248 1.862 5.591 1.878 5.591.264zm353.81-1.222c.722-.23 1.033-.872.69-1.426-.57-.922.79-1.453 2.82-1.1.454.078.563-.28.244-.797s-.015-1.14.676-1.388c.69-.246.962-.766.603-1.154-.848-.918-15.847 5.317-15.847 6.587 0 .878 7.325.389 10.813-.722zm-9.876-2.317c2.727-1.036 10.045-5.48 16.26-9.875s13.328-9.002 15.803-10.239c5.332-2.664 4.611-2.046 5.405-4.634 1.05-3.422-1.69-3.55-9.255-.43-3.803 1.568-8.358 3.168-10.122 3.556-2.473.543-3.099 1.127-2.728 2.545.352 1.344-.3 2.114-2.41 2.85-1.778.62-2.89.642-2.89.059 0-.522.45-.948 1-.948s1-.45 1-1-.9-1-2-1c-1.45 0-2 .666-2 2.427 0 2.859-3.551 5.946-8.812 7.661-6.797 2.216-19.283 9.233-17.942 10.084 2.372 1.506 13.62.87 18.692-1.057zm-390.62-.732c-.529-1.377-.302-1.446 1.531-.465 2.5 1.338 2.493 1.359 1.043-2.802-.75-2.148-2.21-3.641-4.5-4.598-3.282-1.371-4.685-3.44-2.141-3.158 2.849.317 1.678-1.877-2.149-4.027-4.498-2.526-5.778-1.161-2.064 2.2 1.695 1.534 1.795 1.98.593 2.653-2.045 1.145-.848 4.757 2.008 6.058 1.3.592 2.362 1.589 2.362 2.216 0 1.293 2.01 3.54 3.168 3.54.423 0 .49-.728.149-1.617zm50.683-1.456c0-1.1-3.811-3.157-5.071-2.737-.528.176-.266 1.311.583 2.523 1.444 2.062 4.488 2.207 4.488.214zm-21-1.88c0-1.728-7.66-6.722-8.706-5.675-1.316 1.316.869 5.303 3.424 6.246 2.82 1.041 5.282.775 5.282-.57zm-19-2.073c0-.843-3.987-2.975-5.565-2.975-1.422 0-.07 2.211 1.815 2.969 3.027 1.217 3.75 1.218 3.75.006zm7-1.428c0-3.926-2.634-6.653-10.25-10.616l-7.962-4.142.72 4.356c.396 2.395.78 4.367.856 4.382.074.015 3.51 1.696 7.635 3.736 8.445 4.177 9 4.318 9 2.284zm28.567-6.797c-1.289-3.437-3.59-9.85-5.113-14.25-3.348-9.668-3.936-10.447-6.191-8.192-1.63 1.63-1.626 2.004.067 6.957 4.304 12.59 7.942 20.647 9.509 21.063 3.956 1.049 4.072.675 1.728-5.578zm-19.567 2.323c0-1.202-4.591-4.808-7.158-5.623-4.822-1.53-2.543 2.898 2.657 5.164 3.633 1.583 4.5 1.672 4.5.459zm353.26-.62c.955-.367 1.737-1.133 1.737-1.703 0-.678-2.34-.812-6.75-.388-9.067.872-11.816 1.644-10.085 2.832 1.386.95 12.053.427 15.097-.74zm-340.26-.124c0-.37-1.058-3.407-2.35-6.75a751.57 751.57 0 0 1-4.095-10.862l-1.746-4.783-5.124.585c-2.818.323-5.312.775-5.543 1.005-.958.958 2.357 9.865 5.063 13.6 3.368 4.649 13.795 10.094 13.795 7.204zm-13.002-10.875c-1.449-.802-1.868-1.391-.999-1.403 1.786-.024 4.643 1.64 3.97 2.313-.26.26-1.597-.15-2.971-.91zm-39.18 5.296c-.205-1.446-1.123-2.364-2.569-2.57-2.74-.389-3.09 2.231-.5 3.74 2.686 1.564 3.418 1.285 3.07-1.17zm7.791-2.95c-.715-3.577-2.043-4.762-5.36-4.785-2.99-.02-2.84 1.76.437 5.18 3.73 3.893 5.748 3.731 4.923-.395zm18.39 2.2c0-1.823-3.812-4.851-9.924-7.883-3.318-1.647-6.283-2.59-6.589-2.096-1.1 1.779 1.936 4.762 7.918 7.782 6.48 3.272 8.595 3.812 8.595 2.197zm277.88-1.45c-.397-.397-18.079-4.55-19.374-4.55-.28 0-.51.413-.51.917 0 1.615 8.309 3.923 14.417 4.004 3.254.044 5.714-.123 5.467-.37zm-269.56-2.3c-.883-2.513-5.463-7.25-7.009-7.25-2.185 0-1.482 2.608 1.588 5.894 3.21 3.437 6.436 4.244 5.421 1.356zm-57.338-1.73c1-1.205.638-2.528-1.943-7.102-1.745-3.09-2.872-5.912-2.505-6.269.672-.654 1.12-.13 6.513 7.601 1.805 2.588 3.744 4.25 4.958 4.25 2.503 0 2.502-1.082-.007-6-1.1-2.156-2-4.783-2-5.838 0-2.52-2.443-4.473-4.702-3.757-1.372.435-2.39-.536-4.298-4.097-3.04-5.676-6.934-8.781-9.85-7.856l-2.089.664 2.383 6.192c1.31 3.406 3.528 8.513 4.927 11.35 1.4 2.836 2.851 6.436 3.225 8 .375 1.563.87 3.18 1.102 3.592.694 1.238 2.975.85 4.286-.73zm-7.04-.77c-.15-3.37-8.423-18.744-10.089-18.748-.842-.002 2.604 11.041 4.754 15.238 2.217 4.327 5.468 6.465 5.336 3.51zm28.056-2.059c0-1.772-2.685-5.339-3.446-4.578-.87.87 1.194 5.887 2.422 5.887.563 0 1.024-.589 1.024-1.309zm9-2.268c0-2.044-5.379-7.423-7.423-7.423-2.485 0-1.847 2.884 1.346 6.077s6.077 3.832 6.077 1.346zm23.774-2.601c-.548-1.644-3.534-3.395-4.368-2.56-.951.95 1.51 3.738 3.3 3.738.804 0 1.284-.53 1.068-1.178zm-34.012-4.22c.131-1.581-.634-2.943-2.246-4-3.646-2.389-4.643-2.065-3.433 1.115 2.097 5.517 5.326 7.157 5.68 2.885zm38.773-3.534c-1.962-3.794-6.14-4.456-5.165-.818.332 1.238.609 2.783.617 3.434.014 1.259 5.298 2.288 5.824 1.134.17-.375-.403-2.063-1.276-3.75zm-31.535 2.648c0-.707-1.35-2.082-3-3.057-3.7-2.186-3.962-.56-.365 2.269 3.088 2.429 3.365 2.494 3.365.788zm37.436-4.315c-1.494-6.428-2.152-7.43-3.526-5.372-2.022 3.03.571 10.971 3.582 10.971.988 0 .977-1.158-.056-5.6zm5.857 1.828c1.471-1.625 1.462-2.33-.12-8.594-1.316-5.218-2.303-7.145-4.197-8.193-3.115-1.725-3.972-1.766-3.988-.192-.022 2.173 5.296 18.75 6.015 18.75.378 0 1.409-.797 2.29-1.77zm-42.805-3.208c.668-1.08-1.136-5.04-2.272-4.989-.393.018-1.615.72-2.715 1.562-1.976 1.512-1.977 1.547-.059 2.968 2.258 1.673 4.188 1.848 5.046.459zm11.802-.578c1.076-.413 1.34-1.773 1.02-5.25-1.306-14.194-4.962-19.462-5.511-7.943-.272 5.72-.48 6.232-2.45 6.03-1.183-.122-2.697.436-3.364 1.24-.992 1.195-.782 1.621 1.152 2.346 1.815.68 2.503.51 2.963-.734.463-1.254.976-.888 2.275 1.625 1.822 3.523 1.79 3.501 3.915 2.686zm7.525-5.616c-.409-4.137-2.814-5.058-2.814-1.077 0 1.605.3 3.217.667 3.584 1.529 1.529 2.44.465 2.147-2.507zm-46.83 1.423c-.027-1.368-1.866-3.701-2.453-3.114-.788.788.467 3.864 1.576 3.864.491 0 .886-.337.878-.75zm75.016-1.095c0-1.74-3.618-5.948-4.356-5.065-.189.226.052 1.873.535 3.66.933 3.455 3.82 4.517 3.82 1.405zm32.53-8.646c.339-2.755.185-6.134-.341-7.509-.87-2.271-1.02-2.043-1.65 2.5-.776 5.61-.929 8.08-.68 11 .293 3.428 1.98-.357 2.672-5.991zm-124.97 1.27c-.38-2.872-1.616-8.591-2.746-12.71-1.527-5.562-1.934-9.36-1.587-14.778.258-4.01.348-7.29.2-7.29s-.925-.253-1.727-.56c-1.933-.743-3.12 5.337-1.747 8.948.788 2.073.637 3.062-.711 4.636-.942 1.1-2.425 4.185-3.295 6.853-1.568 4.809-1.559 4.878.983 7.801 1.411 1.622 4.019 5.058 5.795 7.635 4.329 6.281 5.72 6.127 4.836-.535zm69.523 2.971c.636-1.237 2.259-3.433 3.606-4.879 2.274-2.44 2.368-2.94 1.313-7-2.09-8.04-9.207-30.362-9.926-31.136-1.26-1.356-7.202 2.285-6.702 4.108.25.912.746 3.908 1.104 6.658.574 4.412 3.716 18.942 5.136 23.75.284.962.092 1.75-.426 1.75s-1.212-1.35-1.542-3c-.97-4.85-2.18-3.439-1.797 2.096.326 4.708.529 5.064 2.656 4.657 1.88-.359 2.408.083 2.872 2.403.684 3.421 2.132 3.653 3.706.594zm-56.622-1c-.369-1.237-1.673-3.288-2.898-4.557-1.906-1.974-2.4-2.099-3.427-.862-.963 1.161-.684 2.057 1.42 4.557 3.147 3.74 5.906 4.226 4.905.862zm28.535-.178c0-4.03-4.62-7.21-5.713-3.933-.326.977 4.046 6.361 5.165 6.361.301 0 .548-1.093.548-2.428zm8.984-.822c-.022-3.213-1.376-4.92-3.314-4.177-2.066.793-2.082 1.394-.114 4.205 1.996 2.85 3.448 2.838 3.428-.028zm-17.346-5.25c-.35-.913-.001-1.5.893-1.5.808 0 1.469-.443 1.469-.985 0-1.191-6.581-5.548-9.836-6.512-2.04-.604-2.21-.458-1.348 1.153.542 1.014 1.002 2.22 1.022 2.68.03.731 7.077 6.563 8.019 6.637.196.015.098-.648-.219-1.473zm209.18-.143c-.178-.903-1.216-2.14-2.308-2.75s-2.58-1.894-3.306-2.857c-1.376-1.82-5.209-2.434-5.209-.834 0 .504 1.35 1.514 3 2.245s3.056 1.668 3.125 2.083c.069.416.238 1.206.375 1.756l.375 1.5c.069.275 1.058.5 2.198.5 1.388 0 1.967-.543 1.75-1.643zm-194.78-4.439c.905-1.69.771-2.342-.715-3.468-2.586-1.96-4.329-1.772-4.329.469 0 5.022 3.005 6.81 5.044 3zm184.96 1.117c0-.53-.9-1.446-2-2.035-1.573-.842-2-.76-2 .382 0 1.32 1.298 2.334 3.25 2.54.413.043.75-.356.75-.886zm-196.46-13.56c-1.415-3.707-4.552-5.82-4.537-3.058.023 4.321 2.248 13.208 3.714 14.837 1.736 1.93 1.787 1.86 2.092-2.83.178-2.73-.37-6.597-1.269-8.949zm18.456 9.478c0-1.372-5.14-5.88-6.75-5.92-2.034-.052-1.427 3 1 5.024 2.457 2.05 5.75 2.563 5.75.896zm177.5-1.714c0-1.835-14.412-12.209-16.076-11.571-2.769 1.063-2.063 1.862 9.076 10.282 4.018 3.037 7 3.586 7 1.289zm-221.05-5.042c-1.404-3.393-4.886-7.12-6.702-7.174-1.131-.034-.9 2.767.291 3.503.572.353.77 1.495.44 2.537-.446 1.403.237 2.403 2.638 3.864 4.25 2.584 5.208 1.799 3.333-2.73zm20.548 1.746c0-7.242-7.223-19.839-10.628-18.532-.779.3-1.372-.108-1.372-.942 0-.807-.45-1.468-1-1.468s-1 1.8-1 4c0 2.842.423 4 1.461 4 .857 0 1.903 1.639 2.528 3.957 1.068 3.968 6.757 11.042 8.879 11.042.623 0 1.132-.925 1.132-2.057zm-14-3.975c0-2.064-2.925-7.967-3.949-7.967-1.498 0-1.314 7.727.2 8.337 2.141.865 3.75.706 3.75-.37zm34.153-3.967c-.19-2.75-.64-4.997-1-4.993-.36.004-1.873 1.916-3.365 4.25-2.44 3.817-2.54 4.31-1 4.922.941.374 2.612.712 3.712.75 1.787.064 1.963-.461 1.653-4.929zm-41.173-3.109c-.861-4.71-3.867-9.23-6.48-9.743-3.156-.62-1.137 7.3 2.767 10.85 1.778 1.619 3.51 2.956 3.849 2.972.338.016.277-1.82-.136-4.08zm26.02 1.153c.275-.06-.22-.656-1.099-1.326-1.556-1.186-1.9-1.83-1.9-3.552 0-.458-.614-.833-1.363-.833-.86 0-1.196.77-.912 2.083 1 4.61.938 4.568 5.274 3.628zm-47.439-7.927c-.858-1.66-1.56-4.25-1.56-5.753 0-2.96-3.461-7.365-5.786-7.365-1.112 0-1.282.826-.753 3.647.763 4.069 2.656 7.486 6.455 11.653 2.994 3.284 3.87 2.123 1.644-2.182zm25.373-9.278c-1.251-3.022-2.49-3.637-3.199-1.59-.868 2.512.476 11.317 2.099 13.75 1.66 2.489 1.668 2.473 1.972-3.41.167-3.251-.225-7.189-.872-8.75zm14.067 9.004c0-1.588-2.997-6.844-3.903-6.844-.468 0-1.39.649-2.048 1.441-.952 1.148-.747 2.048 1.006 4.42 2.02 2.73 4.945 3.312 4.945.983zm-31-6.785c0-5.022-1.513-7.436-3.096-4.937-1.275 2.013-1.095 7.288.296 8.679 2.15 2.15 2.8 1.282 2.8-3.741zm12-.936c0-2.683-.638-6.405-1.417-8.27-1.57-3.756-5.221-7.547-6.265-6.504-1.078 1.079 1.357 14.505 3.118 17.193 2.71 4.138 4.564 3.155 4.564-2.42zm10.142-4.122c-.925-4.472-3.805-4.909-3.295-.5.398 3.439 2.103 5.957 3.244 4.792.427-.436.45-2.367.051-4.292zm-31.592-8.655c-.323-1.29-1.142-2.346-1.82-2.347-1.845-.002-1.614 9.2.27 10.68 1.265.996 1.55.62 1.82-2.404.175-1.97.054-4.639-.27-5.929zm202.3 4.405c-1.256-1.788-5.188-7.075-8.737-11.75-3.55-4.675-7.511-10.808-8.803-13.63-2.25-4.915-8.905-13.11-9.865-12.15-.911.91.867 6.963 2.195 7.473.817.313 1.358 2.047 1.358 4.348 0 3.161 1.014 5.101 5.823 11.143 6.203 7.792 16.81 17.72 18.995 17.78.884.024.565-1.036-.965-3.214zm-192.3-4.296c.663-5.307.217-7.553-1.216-6.12-.368.367-.874 3.142-1.124 6.167-.61 7.342 1.422 7.301 2.34-.047zm10.36-5.77c-1.205-4.204-2.477-5.287-4.367-3.72-2.163 1.796-1.939 3.012 1.148 6.233 3.135 3.273 4.56 2.16 3.22-2.514zm-26.909-.234c0-3.322-2.13-7.33-5.553-10.45-2.682-2.444-2.73-2.451-2.201-.298.298 1.211.027 2.414-.602 2.674-.78.321-.666.839.356 1.624 1.133.87 1.194 1.276.25 1.66-1.464.594-1.685 2.34-.295 2.34.525 0 2.08 1.125 3.454 2.5 3.185 3.185 4.591 3.17 4.591-.05zm9.375-1.575c1.03-5.151.714-9.377-.856-11.434-1.16-1.52-1.668-1.658-2.343-.636-1.032 1.562-1.465 10.707-.632 13.333.925 2.914 3.142 2.183 3.831-1.264zm-8.566-15.302c-.411-7.829-1.683-11.573-3.931-11.573-.483 0-.878 1.139-.878 2.532 0 1.392-.638 4.06-1.418 5.926-1.333 3.191-1.26 3.637 1.224 7.468 4.28 6.601 5.521 5.521 5.003-4.353zm-9.56 3.903c.266-1.388.134-2.74-.293-3.004-1.625-1.004-3.956.842-3.956 3.135 0 3.392 3.597 3.282 4.25-.131zm25.113 1.024c.347-.905.005-1.5-.862-1.5s-1.209.595-.862 1.5c.317.825.705 1.5.862 1.5s.545-.675.862-1.5zm8.558-1.43c1.923-1.669 2.061-2.246 1.02-4.25-2.259-4.348-3.004-4.9-4.54-3.364-1.715 1.716-1.835 6.709-.2 8.344 1.477 1.477 1.085 1.554 3.72-.73zm-11.884-3.653c.598-3.263-2.532-9.748-4.41-9.133-1.808.593-1.883 6.318-.126 9.716 1.918 3.708 3.792 3.467 4.535-.583zm14.965-5.983c0-3.652-1.746-6.434-4.036-6.434-2.49 0-2.482 1.638.025 5.75 2.381 3.906 4.01 4.184 4.01.684zm-33.986-1.684c.008-1.238.26-3.167.56-4.286.43-1.603-.236-2.41-3.137-3.793-2.027-.967-3.845-1.598-4.04-1.402-.195.195.373 2.914 1.263 6.043 1.224 4.299 2.073 5.687 3.48 5.687 1.258 0 1.864-.727 1.873-2.25zm183.99-12.8c0-1.581-2.943-6.95-3.81-6.95-1.217 0-.663 4.725.756 6.434 1.488 1.794 3.054 2.058 3.054.516zm-172.7-5.992c.432-1.653.17-1.925-1.384-1.432-1.054.334-1.917.165-1.917-.376s.53-1.16 1.177-1.376c1.261-.42.28-2.775-1.157-2.775-1.588 0-2.35 6.176-.877 7.11 2.212 1.402 3.59 1.02 4.157-1.15zm-8.301-.412c0-2.414-2.24-6.547-3.547-6.547-1.607 0-2.54 6.277-1.075 7.235 1.904 1.246 4.622.842 4.622-.688zm2.776-9.522c-.472-4.912-4.701-13.025-6.79-13.025-1.314 0-1.26 7.147.08 10.685 1.184 3.122 4.757 7.315 6.236 7.315.54 0 .745-2.155.474-4.976zm166.04 2.225c-.244-2.123-.772-2.671-2.316-2.405-2.897.5-3.029.913-1.006 3.149 2.51 2.774 3.697 2.508 3.322-.744zm-6.816.822c0-1.203-2.869-4.072-4.071-4.072-2.387 0 .393 4.888 2.821 4.962.688.021 1.25-.38 1.25-.89zm-171.02-7.822c.013-3.588-.296-4.25-1.985-4.25-1.548 0-2 .667-2 2.953 0 1.624.528 4.112 1.174 5.529 1.54 3.378 2.79 1.495 2.81-4.232zm53.783 4.75c.687-1.1 1.868-2 2.624-2 1.88 0 2.578-3.18 2.594-11.8.014-7.147-1.826-13.2-4.012-13.2-1.247 0-1.258-.144.62 8.112 1.853 8.146 1.32 11.888-1.692 11.888-1.755 0-1.966.432-1.423 2.905.366 1.666.187 3.183-.42 3.559-1.218.752-1.429 2.536-.3 2.536.418 0 1.322-.9 2.009-2zm-34.406-4.5c.767-2-.263-4.5-1.855-4.5-.704 0-1.478 1.35-1.72 3-.343 2.341-.062 3 1.28 3 .946 0 1.978-.675 2.295-1.5zm157.64.81c0-2.11-5.56-17.311-6.458-17.655-2.374-.911-8.008 1.956-9.76 4.968-1.88 3.231-1.532 6.602.599 5.785.668-.257 2.284.671 3.591 2.063 2.79 2.97 3.997 3.199 4.11.78.049-1.061.641-.47 1.503 1.5 1.058 2.419 2.059 3.25 3.918 3.25 1.373 0 2.497-.312 2.497-.691zm-132-2.728c0-2.513-1.177-4.582-2.607-4.582-1.655 0-1.779 1.41-.358 4.066 1.209 2.258 2.965 2.564 2.965.516zM49.087 353.2c.496-3.648.212-4.96-1.563-7.21-2.39-3.028-6.714-3.723-7.67-1.232-1.185 3.088 5.88 15.646 7.751 13.776.481-.481 1.148-2.882 1.482-5.334zm51.224-1.221c.203-1.057-.282-1.739-1.238-1.739-.866 0-1.574.188-1.574.418 0 .23-.29 1.176-.646 2.102-.486 1.267-.18 1.593 1.239 1.32 1.036-.2 2.035-1.145 2.219-2.101zm-32.522-.739c-.288-1.1-.92-2-1.406-2-.486 0-.884.9-.884 2s.633 2 1.407 2c.914 0 1.223-.7.883-2zm150.72-.25c.01-2.761-3.484-10.75-4.702-10.75-.717 0-1.303.638-1.303 1.418 0 .78-.301 2.204-.67 3.164-.44 1.149-.29 1.51.442 1.059.66-.408 1.791.743 2.784 2.836 1.66 3.497 3.44 4.67 3.449 2.273zm-182-1.75c0-1.484-.667-2-2.583-2-1.645 0-2.417.454-2.125 1.25.252.688.964 1.138 1.583 1s1.125.2 1.125.75.45 1 1 1 1-.9 1-2zm63-8c0-.965-.623-2.272-1.385-2.904-1.103-.916-1.51-.652-1.999 1.298-.881 3.511.218 5.989 2 4.51.762-.632 1.384-1.939 1.384-2.904zm-68.561-1.525c.5-2.67.12-4.489-1.573-7.5-3.308-5.886-5.228-5.307-4.593 1.387.879 9.261 4.839 13.188 6.166 6.113zm6.825-2.725c1.23-.687 2.378-1.317 2.552-1.399.174-.082-.181-1.994-.788-4.25-1.282-4.758-3.52-5.384-4.354-1.218a139.16 139.16 0 0 1-1.234 5.5c-.737 2.94.329 3.32 3.824 1.367zm14.736-1.24c0-.269-1.173-3.419-2.606-7-2.56-6.394-4.286-8.218-4.505-4.76-.401 6.343 2.076 12.25 5.137 12.25 1.086 0 1.974-.22 1.974-.49zm9.6-3.966c-.339-1.35-1.088-3.698-1.665-5.216-.841-2.211-1.234-2.469-1.977-1.294-1.351 2.136-1.166 4.225.599 6.744 2.093 2.988 3.819 2.856 3.043-.234zm-28.036-4.036c.36-1.921.31-4.284-.112-5.25s-.67-2.347-.552-3.067c.329-2.005-2.26-7.237-3.395-6.864-1.671.55-1.744 11.165-.104 15.091 1.891 4.527 3.325 4.558 4.163.09zm19.825-2.825c-.126-4.106-2.715-8.683-4.912-8.683-2.041 0-1.85 2.125.718 8.009 2.494 5.71 4.358 6.01 4.194.674zm-11.389 2.466c0-1.862-2.247-7.149-3.038-7.149-1.632 0-1.77 1.553-.42 4.76 1.236 2.941 3.458 4.476 3.458 2.39zm2.567-6.56c.764-3.044-3.027-12.04-4.65-11.037-1.964 1.213.97 13.448 3.225 13.448.45 0 1.093-1.085 1.425-2.411zm-18.197-4.839c1.413-5.271.642-13.22-1.623-16.75l-2.246-3.5-.316 7.5c-.444 10.551 2.43 19.303 4.185 12.75zm179.63-.185c0-3.445-2.682-15.773-4.116-18.922-.663-1.454-1.765-2.643-2.45-2.643-1.569 0-.86 7.132 1.159 11.65.774 1.734 1.407 4.681 1.407 6.55 0 3.213 1.428 5.8 3.2 5.8.44 0 .8-1.096.8-2.435zm-158.18-3.893c.543-2.799-2.798-12.848-4.12-12.39-1.636.567-1.437 8.976.29 12.203 1.48 2.768 3.313 2.857 3.83.188zm-9.303-8.066c-.39-4.78-2.935-10.606-4.634-10.606-1.361 0-.474 6.655 1.527 11.442 2.042 4.888 3.54 4.484 3.107-.837zm-9.566-10.898c-1.131-10.924-5.953-17.432-5.953-8.035 0 5.617 1.247 10.528 3.575 14.08 2.332 3.56 3.155 1.468 2.378-6.046zm12.762.423c-.285-1.997-.838-4.531-1.23-5.631-.5-1.401.06-1.102 1.865 1l2.578 3 .036-3.783c.043-4.515-2.503-11.12-3.943-10.23-.561.346-1.035 2.291-1.053 4.321-.028 3.284-.178 3.498-1.36 1.941-4.168-5.491-4.823 1.793-.938 10.448 2.178 4.854 2.843 5.637 3.615 4.257.52-.93.714-3.325.43-5.323zm54.6-16.248c.617-2.46.4-2.65-3.625-3.202-2.354-.323-5.01-.867-5.9-1.209-1.327-.51-1.921.73-3.282 6.846-2.456 11.037-2.009 12.853 3.492 14.192l4.5 1.096 2.08-7.553c1.144-4.155 2.375-8.73 2.735-10.17zm105.21-12.497c-.312-1.712-1.492-3.95-2.623-4.973l-2.056-1.86.326 15.021c.282 13.04.59 15.412 2.325 17.973l2 2.952.298-13c.164-7.15.043-14.401-.27-16.113zM32.502 285.79c0-1.281-.885-3.392-1.966-4.69-1.8-2.16-1.97-2.197-2-.432-.05 2.851 2.202 8.543 3.148 7.958.45-.278.819-1.554.819-2.836zm2.261-12.44c.672-2.57-.709-4.537-2.66-3.788-2.348.9-2.11 5.677.283 5.677 1.036 0 2.106-.85 2.377-1.89zm-5.93-12.362c1.974-.904 2.603-1.803 2.271-3.25-.252-1.1-.766-4.137-1.143-6.75-.816-5.653-2.456-6.318-2.465-1-.003 2.063-.678 5.04-1.5 6.615-1.637 3.139-1.944 5.635-.693 5.635.44 0 2.029-.562 3.53-1.25zm177.86-2.5c.674-2.774-.3-11.25-1.292-11.25-.495 0-.9 2.925-.9 6.5 0 6.067 1.227 8.726 2.192 4.75zm-170.66-.5c.68-1.83-.94-7.054-2.33-7.518-1.278-.426-1.67 4.368-.59 7.187.727 1.893 2.275 2.07 2.92.331zm4.474-2.212c0-3.206-3.871-13.538-5.072-13.538-1.38 0-1.153 1.732 1.21 9.222 2.175 6.89 3.862 8.774 3.862 4.315zm12 1.212v-5.75c0-3.777-.367-5-1.5-5-1.146 0-1.5 1.26-1.5 5.334 0 2.933.309 5.642.687 6.02.829.83 2.313.441 2.313-.604zm149.79-9.58c.199-4.863-.072-7.17-.844-7.17-.626 0-1.373.9-1.66 2s-.92 2-1.407 2-.883 1.35-.883 3 .45 3 1 3 1 1.163 1 2.584c0 1.62.466 2.429 1.25 2.17.806-.267 1.354-2.958 1.544-7.584zm-157.18 1.08c.387-2.062 1.023-6.225 1.414-9.25.496-3.84.75-4.482.842-2.127.106 2.746.387 3.16 1.51 2.227 1.79-1.486 2.73-6.302 1.97-10.1-.786-3.935-1.678-3.784-4.42.75l-2.267 3.75-.976-3.25c-1.285-4.278-2.115-4.1-3.574.77-1.26 4.203-.875 5.98 1.292 5.98 1.035 0 1.054.917.096 4.69-1.008 3.969-.946 5.118.404 7.493 2.124 3.733 2.868 3.546 3.709-.933zm155.3-20.127c.644-5.157.942-9.605.662-9.885-.928-.929-5.637 2.823-7.615 6.067-3.454 5.665-2.357 11.918 2.544 14.5 2.677 1.411 2.995.64 4.409-10.681zm8.47-3.373c.88-6.187 2.31-16.425 3.18-22.75 1.296-9.426 2.135-12.4 4.657-16.5 3.434-5.584 14.292-37.83 12.894-38.297-.492-.163.91-2.999 3.115-6.3s4.185-5.827 4.4-5.611c.216.215-1.187 3.808-3.116 7.984s-3.509 8.073-3.509 8.659c0 2.422 1.744.77 3.89-3.685 1.259-2.612 5.33-10.15 9.048-16.75 7.334-13.02 9.686-18.21 8.697-19.199-.349-.349-.754-.447-.899-.218-4.287 6.758-10.101 14.885-10.419 14.567-.232-.231 1.815-4.185 4.55-8.785 3.247-5.466 4.633-8.711 3.998-9.365-1.16-1.193-2.365.268-11.547 14-9.633 14.405-21.02 39.83-18.53 41.37.75.462-.04 3.714-2.465 10.155-6.785 18.015-11.313 40.305-11.32 55.725-.002 3.438.398 6.25.888 6.25s1.61-5.062 2.488-11.25zm-173.99 7.669c.97-2.527.702-14.418-.325-14.418-1.255 0-2.263 3.416-1.997 6.768.12 1.503-.035 3.407-.343 4.232-.91 2.441-.485 5 .833 5 .674 0 1.499-.712 1.833-1.582zm6.984-17.931c1.582-4.119 3.199-7.488 3.592-7.488 1.203 0 3.032-7.46 3.032-12.366 0-3.294-.403-4.634-1.393-4.634-1.612 0-2.607 2.13-2.607 5.582 0 1.505-.578 2.418-1.531 2.418-1.95 0-3.142 2.966-1.581 3.93 1.259.78.48 4.07-.964 4.07-.474 0-.602-.675-.286-1.5.317-.825.127-1.5-.423-1.5-1.076 0-4.215 7.09-4.215 9.52 0 .814.486 1.48 1.08 1.48.677 0 .835 1.109.425 2.976-.638 2.905-.083 5.037 1.304 5.012.38-.007 1.985-3.382 3.567-7.5zm7.484 4.484c.58-1.666.85-3.69.598-4.5-1.555-4.998-1.657-5.064-3.033-1.972-1.815 4.079-1.828 9.5-.023 9.5.771 0 1.877-1.363 2.458-3.028zm5.531-8.992c1.698-4.244 2.223-14.98.732-14.98-1.342 0-5.123 9.486-5.123 12.854 0 3.459.874 6.146 1.998 6.146.432 0 1.509-1.809 2.393-4.02zm6.975-11.793c.744-1.478 1.632-4.824 1.974-7.437.556-4.252.418-4.75-1.324-4.75-2.688 0-3.649 2.436-3.878 9.827-.208 6.667.72 7.344 3.228 2.36zm6.44-10.25c.71-1.134 1.017-2.919.685-3.966-.455-1.433-.01-2.054 1.8-2.508 1.43-.359 3.075-2.007 4.057-4.067 1.558-3.266 2.161-6.396 1.234-6.396-.23 0-1.031-.235-1.78-.522-.75-.288-3.036 1.01-5.082 2.885-3.575 3.274-3.72 3.665-3.72 10.023 0 6.925.658 7.993 2.807 4.552zm-4.66-20.991c.907-1.895 1.867-6.477 2.135-10.181l.486-6.735-2.752 1.959c-3.19 2.271-6.465 6.894-5.54 7.819.348.349 1.052-.028 1.564-.837.568-.898.936-1.007.945-.28.009.655-.434 1.47-.984 1.809-1.123.694-1.38 8.788-.313 9.854 1.254 1.254 2.793.078 4.46-3.408zm9.354-8.06c1.516-2.568 1.99-5.128 1.96-10.593-.045-7.801-.35-8.656-2.756-7.733-1.636.628-3.966 9.154-5.307 19.418l-.715 5.478 2.409-1.593c1.325-.875 3.309-3.115 4.409-4.977zm5.88-19.04c.952-4.759 4.62-8.209 4.62-4.346 0 .825.45 1.5 1 1.5s1-1.35 1-3c0-2.944-.097-3-5.131-3h-5.13l.619 3.75c.341 2.062.625 4.762.63 6 .017 3.346 1.668 2.722 2.393-.905zm187.25-37.096c10.937-11.332 25.116-28.75 23.405-28.75-2.861 0-23.645 22.001-29.522 31.25-3.017 4.748.516 3.305 6.117-2.5zm-102.66-41.71c.81-.512 1.212-1.191.894-1.509-.788-.788-3.864.467-3.864 1.576 0 1.14 1.1 1.115 2.97-.068zm30.719-.79c.064-.962.438-2.762.83-4 .874-2.754-1.168-3.08-3.127-.5-1.984 2.614-1.755 6.25.394 6.25.989 0 1.838-.78 1.903-1.75zm10.224-8.623c2.94-4.274 3.056-5.627.477-5.627-1.49 0-6.511 7.994-5.773 9.19 1.005 1.625 2.35.72 5.296-3.563zm47.479-24.627c1.622 0 3.142-1.8 2.263-2.679-.3-.3-2.77-.013-5.488.64-4.099.983-4.857 1.508-4.445 3.082.458 1.75.714 1.783 3.337.427 1.563-.808 3.513-1.47 4.333-1.47zm42.609-14.5c0-.833-.89-1.5-2-1.5-2.214 0-2.71 1.547-.75 2.338 2.176.878 2.75.703 2.75-.838zm187 498.5c1.955-1.264 4.719-1.264 5.5 0 .37.601-.903.994-3.191.985-2.828-.011-3.423-.265-2.31-.985z"/></svg>