<svg width="135" height="115" viewBox="0 0 135 115" xmlns="http://www.w3.org/2000/svg"><path d="M95.188 88.346c-1.615-1.702-7.662-5.31-13.437-8.017-5.775-2.707-12.638-6.04-15.251-7.405-2.613-1.366-5.324-2.484-6.026-2.484s-4.582 2.059-8.624 4.574c-4.042 2.515-9.174 4.885-11.403 5.266-3.519.6-4.345 1.27-6.26 5.074-2.161 4.292-2.233 4.336-3.43 2.098-1.819-3.397-.638-8.075 3.96-15.694 4.735-7.843 5.763-10.988 4.129-12.622-.637-.637-5.723-3.417-11.302-6.177s-10.33-5.588-10.557-6.283c-.782-2.394 6.957-4.53 19.62-5.416 6.797-.475 13.097-1.27 14-1.765.904-.496 4.087-5.549 7.074-11.228 2.987-5.68 6.587-11.903 8-13.83 2.21-3.013 2.88-3.365 4.795-2.523 1.915.843 2.142 1.506 1.622 4.753-.645 4.038.757 5.14 2.572 2.023.561-.962 1.033-1.273 1.05-.69.017.582-.584 1.898-1.334 2.924-1.18 1.613-1.06 2.556.876 6.941 1.232 2.792 2.523 5.906 2.87 6.92.562 1.65 1.615 1.812 9.874 1.521 5.084-.178 12.586-.221 16.669-.095l7.424.23-2.183 2.324c-2.32 2.47-1.992 3.675 1.001 3.675 3.543 0 1.786 1.832-2.417 2.52-4.177.684-9.059 2.792-17.528 7.568-5.15 2.905-5.15 2.91 1.71 17.913 2.64 5.775 5.119 12.075 5.509 14 .39 1.924.93 4.287 1.201 5.249.745 2.643-.927 2.108-4.205-1.344zm-53.14-20.437c1.388-1.907 1.481-2.469.41-2.469-.762 0-1.898 1.125-2.525 2.5-1.455 3.195-.22 3.177 2.115-.031zm37.4-5.226c-1.618-1.619-2.697-2.153-2.697-1.337 0 1.564 4.052 5.376 4.857 4.57.295-.295-.677-1.75-2.16-3.233zM89.722 47.48c.81-.512 1.211-1.19.893-1.508-.788-.788-3.864.467-3.864 1.576 0 1.14 1.101 1.114 2.97-.068z"/></svg>