<svg xmlns="http://www.w3.org/2000/svg" width="auto" viewBox="44.04 76.705 562.496 559.197"><path d="M498.15 635.47c-1.366-.844.367-8.981 25.893-121.569 2.12-9.351 6.667-29.488 10.104-44.75 5.5-24.423 6.478-27.75 8.152-27.75 2.191 0 2.384-1.469-2.823 21.5-1.87 8.25-8.817 39.074-15.438 68.5-6.62 29.425-13.566 60.25-15.437 68.5-1.869 8.25-4.396 19.5-5.614 25-2.435 10.98-2.816 11.815-4.839 10.564l.002.005zm-215.88-84.315c-1.448-1.782 112.28-163.88 114.4-163.061a1.593 1.593 0 0 1 .91 2.063c-.841 2.19-112.93 162.13-113.67 162.189-.345.03-1.084-.507-1.643-1.194l.003.003zm307.27-145.82c-43.558-2.706-84.61-13.603-124-32.913-29.272-14.351-54.365-31.34-78.061-52.849-63.317-57.479-103.299-142.71-106.16-226.27l-.566-16.598 3.142.461 3.142.461.01 7.137c.024 16.589 3.237 42.99 7.623 62.637 5.871 26.296 13.14 46.698 25.836 72.5 15.836 32.184 35.282 59.278 61.018 85.014 57.052 57.052 130.55 89.8 211.51 94.246l13.5.74v3c0 3.595.513 3.521-17 2.434h.006zm-469.83-23.356c-.409-1.066.702-2.288 3.621-3.984 27.066-15.722 167.41-95.788 168.13-95.918.529-.096 1.124.558 1.321 1.452.271 1.229-20.376 13.5-84.444 50.187-46.642 26.708-85.531 48.84-86.42 49.182-.976.373-1.852.008-2.208-.919zm-75.668-201.4c0-1.204.867-2.168 2.25-2.502 2.845-.687 62.172-12.243 113.75-22.158 51.041-9.812 75.098-14.524 77.132-15.107 1.425-.409 3.541 2.252 2.566 3.228-.492.492-12.599 2.868-124.2 24.37-37.4 7.206-68.788 13.333-69.75 13.615-1.246.366-1.75-.051-1.75-1.445h.002z"/></svg>