<svg width="181.76" height="176" viewBox="0 0 181.75999 176" xmlns="http://www.w3.org/2000/svg"><path d="M153.96 151.55c-5.123-4.974-5.184-5.05-6.916-8.584-1.07-2.183-1.668-3.774-1.542-4.102.423-1.101 7.057-3.676 8.524-3.308.439.11 3.01 2.467 5.79 5.309 4.771 4.875 5.075 5.264 6.612 8.45.886 1.837 1.611 3.498 1.611 3.691 0 .682-6.752 3.562-8.351 3.562-.308 0-2.885-2.258-5.728-5.018zm4.46.893c-.837-2.636-.95-3.317-.623-3.711.22-.266.537-.484.704-.484.442 0 5.112-1.973 4.98-2.104-.061-.061-1.472.314-3.136.833-1.664.52-3.222.946-3.461.948-.24.002-1.146-.59-2.013-1.317-2.178-1.824-2.304-1.356-.152.562 1.6 1.426 1.864 1.866 3.097 5.17.741 1.985 1.41 3.548 1.487 3.471.077-.077-.321-1.592-.884-3.368zm-4.928-3.838c-.241-.684-.656-1.656-.922-2.16-.557-1.054-5.23-5.764-5.476-5.518-.429.429 2.157 4.837 3.985 6.79 2.346 2.508 3.08 2.778 2.413.888zm2.69-5.597c1.487-.581 2.75-1.2 2.81-1.376.165-.496-4.946-5.224-5.647-5.224-.861 0-5.85 1.862-6.375 2.379-.357.352-.2.629.945 1.662.756.682 1.957 1.776 2.669 2.431.781.72 1.613 1.19 2.095 1.188.44-.002 2.017-.48 3.503-1.06zm-50.079-2.654c.408-10.313.965-15.837 2.737-27.145.746-4.763.928-5.898 1.28-8 .562-3.362.721-4.657.762-6.215.035-1.309-.033-1.434-.908-1.67-.52-.14-1.96-.324-3.2-.409a203.27 203.27 0 0 1-5.615-.499c-1.848-.19-4.728-.482-6.4-.65s-4.48-.454-6.24-.639-4.64-.466-6.4-.626c-1.76-.16-5-.466-7.2-.68-6.64-.645-6.199-.723-6.479 1.148-.866 5.797-2.11 16.187-2.316 19.36a260.77 260.77 0 0 1-.48 5.6c-.2 2.112-.444 6.262-.542 9.224-.174 5.263-.194 5.391-.93 5.727-1.348.614-1.642-.022-1.549-3.349.129-4.607.998-15.762 1.728-22.163.346-3.039.546-4.637 1.319-10.56.183-1.408.36-3.28.392-4.16l.057-1.6-2.56-.208c-1.408-.114-4.504-.374-6.88-.578s-6.048-.503-8.16-.667c-2.112-.163-5.64-.447-7.84-.63-2.2-.184-6.52-.406-9.6-.495-6.968-.201-7.04-.215-7.04-1.397v-.923l3.035-.11c3.595-.132 12.462.214 16.965.662 4.41.439 11.479 1.034 13.6 1.145.968.05 3.36.199 5.314.33 2.654.177 3.615.14 3.794-.15.132-.213.362-1.492.513-2.843.15-1.35.428-3.392.618-4.536.19-1.144.488-3.016.663-4.16.59-3.846.873-5.589 1.25-7.68.206-1.144.434-2.656.506-3.36.123-1.211.295-2.295 1.138-7.2.196-1.144.377-2.656.4-3.36l.044-1.28-3.2-.207c-1.76-.113-5.072-.375-7.36-.582-2.288-.206-4.952-.42-5.92-.474s-3.56-.265-5.76-.468c-5.55-.51-11.441-.94-17.28-1.263-2.728-.15-5.201-.377-5.495-.504-.819-.353-.933-1.036-.304-1.813.538-.665.678-.683 2.624-.352 2.005.341 6.34.699 11.175.921 4.118.19 15.072 1.016 22.72 1.714 1.848.169 4.745.392 6.44.496l3.079.19.21-1.069a726.371 726.371 0 0 0 1.917-10.189c.864-4.768 2.117-10.703 3.345-15.84.168-.704.474-2.144.68-3.2.206-1.056.508-2.17.672-2.475.163-.306.297-.776.297-1.045s.126-.738.28-1.044c.155-.306.455-1.132.667-1.836.528-1.75 1.242-3.29 1.641-3.538.183-.112.611.048.952.356.638.578.826 1.577.35 1.87-.147.092-.658 1.432-1.134 2.98-.476 1.546-1.003 3.254-1.171 3.795-.168.54-.305 1.288-.305 1.661s-.13.758-.287.855c-.157.098-.361.718-.453 1.38-.093.66-.325 1.85-.516 2.641-.192.792-.491 2.124-.666 2.96l-.671 3.2c-.194.924-.406 2.112-.47 2.64-.065.528-.276 1.68-.468 2.56-.193.88-.422 2.176-.508 2.88-.087.704-.285 1.568-.44 1.92s-.366 1.216-.47 1.92c-.104.704-.336 2.072-.517 3.04s-.357 2.264-.392 2.88l-.062 1.12 2.4.2c1.32.108 4.56.38 7.2.6 2.64.222 5.448.438 6.24.48.792.042 3.24.254 5.44.47s5.44.512 7.2.656c1.76.144 5.144.438 7.52.652 6.77.612 7.828.588 7.899-.178.032-.352.221-1.432.42-2.4s.432-2.264.52-2.88c.088-.616.287-1.408.442-1.76.155-.352.353-1.216.44-1.92.086-.704.317-2 .513-2.88.742-3.34 1.556-7.61 1.77-9.28.067-.528.273-1.68.459-2.56.719-3.414 1.498-7.688 1.912-10.477.175-1.186.474-2.446.663-2.8.424-.792 1.495-.842 1.737-.08.174.549-.125 3.094-.742 6.317-.168.88-.545 3.04-.837 4.8-.293 1.76-.67 3.92-.837 4.8s-.381 2.104-.473 2.72c-.091.616-.293 1.408-.448 1.76-.155.352-.353 1.216-.44 1.92a37.3 37.3 0 0 1-.512 2.88c-.68 3.057-1.896 9.643-2.14 11.576l-.167 1.336 1.39.17c1.645.2 6.867.591 8.91.666.793.03 2.377.157 3.52.283 1.145.127 3.233.288 4.64.358 2.526.126 9.245.643 13.92 1.072 2.4.22 2.4.22 2.498 1.217.096.986.077 1-1.593 1.16-.93.09-2.748.031-4.04-.13a85.896 85.896 0 0 0-4.488-.42c-2.027-.12-6.443-.479-14.296-1.158-8.263-.716-10.556-.808-10.971-.445-.226.198-.49.926-.586 1.618-.096.692-.299 1.546-.45 1.898s-.35 1.216-.437 1.92a60.812 60.812 0 0 1-.53 3.2c-.205 1.056-.361 2.341-.348 2.857.014.515-.1 1.091-.253 1.28-.152.188-.356.99-.452 1.783-.097.792-.334 2.232-.527 3.2s-.483 2.48-.644 3.36c-.161.88-.455 2.464-.653 3.52s-.479 2.568-.623 3.36-.425 2.304-.623 3.36c-.604 3.22-.62 3.13.616 3.423.616.146 2.632.416 4.48.6 1.848.185 4.44.458 5.76.608 4.409.497 9.745 1.036 11.2 1.13 1.54.1 7.04.665 10.72 1.102 6.661.79 6.546.752 6.556 2.15.007.926-.242.973-3.467.653a207.535 207.535 0 0 0-4.369-.39c-.88-.062-2.896-.267-4.48-.454-3.097-.366-7.234-.82-11.84-1.302a774.753 774.753 0 0 1-5.76-.628c-3.374-.384-9.05-.938-9.805-.958-.346-.01-.586.34-.706 1.026-.1.572-.338 1.832-.528 2.8s-.485 2.624-.655 3.68a510.99 510.99 0 0 1-.638 3.84c-.434 2.538-.963 6.126-1.108 7.52a178.77 178.77 0 0 1-.483 3.84c-.604 4.49-.946 7.656-1.21 11.2-.139 1.85-.346 3.515-.462 3.702-.115.187-.234 2.059-.264 4.159-.03 2.1-.147 4.394-.26 5.098-.181 1.112-.329 1.294-1.125 1.386l-.918.105zm5.767-45.834c.106-.335.346-1.451.533-2.48.187-1.03.465-2.52.616-3.311s.417-2.232.59-3.2c.331-1.849.64-3.512 1.484-8 .282-1.496.634-3.44.783-4.32.4-2.357.927-5.244 1.255-6.88 1.42-7.077 1.445-6.48-.285-6.782-.79-.138-3.381-.403-5.76-.59-13.235-1.042-16.801-1.328-19.846-1.59-16.152-1.391-16.52-1.413-16.761-1.021-.236.382-.724 2.797-1.176 5.823a205.19 205.19 0 0 1-.615 3.84c-.167.968-.46 2.84-.648 4.16s-.47 3.12-.625 4c-1.08 6.156-1.893 11.723-2.155 14.756l-.17 1.955 2.355.205c1.295.113 3.723.342 5.395.508s4.552.45 6.4.63c1.848.18 4.944.485 6.88.677s4.168.392 4.96.444c.792.052 2.232.19 3.2.308s2.48.28 3.36.359l5.254.472c2.01.18 3.726.4 3.814.487.36.36.981.12 1.162-.45zm-33.35-6.277c-.66-.468-.683-.579-.272-1.372.67-1.293 4.727-6.25 7.755-9.47 1.472-1.567 2.677-3.024 2.677-3.239 0-.394-1.598-1.769-7.36-6.333-1.155-.914-2.492-1.695-3.68-2.15-1.097-.418-1.28-.625-1.28-1.44 0-.728.16-.973.685-1.048.753-.107 3.075.88 5.075 2.159 1.437.919 6.393 5.016 7.33 6.06.335.373.774.679.976.679.32 0 2.805-2.48 9.701-9.68 1.886-1.969 2.421-2.193 2.936-1.232.402.75-.365 1.726-6.143 7.81-2.244 2.364-4.08 4.52-4.08 4.791 0 .271.468.876 1.04 1.343a145.54 145.54 0 0 1 2.761 2.348c.947.825 2.08 1.787 2.518 2.14s1.247 1.043 1.798 1.536c.551.493 1.795 1.46 2.763 2.147 2.894 2.056 3.273 2.42 3.153 3.029-.258 1.316-1.044 1.266-3.025-.193-1.736-1.278-8.127-6.492-11.614-9.476l-1.406-1.203-2.845 3.04c-1.564 1.672-3.74 4.176-4.833 5.564-1.095 1.389-2.422 3.014-2.95 3.612-.916 1.037-.993 1.063-1.68.578zm39.28 47.72c0-.597.18-1.17.4-1.273.22-.104.976-.55 1.68-.993s1.496-.901 1.76-1.02 1.082-.624 1.817-1.122c.736-.499 1.426-.906 1.534-.906.108 0 .37-.142.582-.316 1.684-1.373 2.426-1.924 2.59-1.924.247 0 3.479-2.494 5.314-4.102l1.437-1.259-1.41-1.56c-4.163-4.608-8.046-8.72-9.457-10.016-4.318-3.966-4.426-4.128-3.564-5.308.429-.586.485-.575 1.647.311 1.633 1.245 11.409 11.22 12.559 12.814 1.691 2.344 1.743 2.35 3.748.453 2.035-1.924 4.085-4.785 4.853-6.773.289-.748.648-1.497.797-1.664.15-.167.272-.77.272-1.34 0-2.219 1.24-3.718 2.102-2.54.975 1.333-.303 6.018-2.514 9.215-2.122 3.068-3.229 4.425-4.234 5.192-.613.467-1.114 1.085-1.114 1.372 0 .288 1.223 1.773 2.718 3.3l2.717 2.777-.518 1.038-.517 1.037-3.086-3.073c-1.697-1.69-3.242-3.074-3.434-3.074s-.982.54-1.755 1.2c-2.542 2.17-12.373 9.04-12.938 9.04-.088 0-.73.36-1.427.8-1.83 1.156-2.56 1.074-2.56-.286zm-80-4.055c-2.898-.462-5.112-1.605-6.93-3.578-1.55-1.68-2.633-4.476-2.02-5.213.724-.873 1.294-.474 2.196 1.537 1.216 2.71 2.575 3.844 5.452 4.55 5.335 1.306 10.55-1.131 14.183-6.63 2.761-4.179 3.28-5.787 3.275-10.166-.004-3.99-.625-6.405-2.345-9.12-1.058-1.668-3.271-4-3.798-4-.227 0-.413-.126-.413-.28s-1.01-.604-2.243-1c-4.23-1.361-7.885-.082-12.212 4.274-1.378 1.387-2.505 2.718-2.505 2.957s.36.67.8.959c1.042.682 1.014.941-.316 2.916-2.353 3.495-3.263 8.12-2.256 11.468.258.856.413 1.612.344 1.68-.298.299-1.513-.37-1.988-1.095-.58-.886-.91-7.02-.393-7.338.159-.098.289-.465.289-.815 0-.35.288-1.233.64-1.962.828-1.713.806-2.117-.129-2.472-1.216-.463-1.252-.87-.208-2.387.537-.781.977-1.574.977-1.763s.113-.342.251-.342.494-.412.792-.915c.69-1.168 3.58-4.143 5.037-5.184 1.06-.757 2.902-1.698 4.895-2.5 1.108-.447 5.555-.478 5.825-.041.109.176.484.32.834.32 1.832 0 6.726 4.455 8.143 7.412.45.94.954 1.958 1.12 2.263.167.306.303.91.303 1.342s.144.874.32.983c.402.248.43 8.277.031 9.044-.159.306-.475 1.204-.704 1.996-.228.792-.713 1.944-1.078 2.56a40.464 40.464 0 0 0-1.136 2.065c-.748 1.496-4.122 4.935-6.054 6.171-3.356 2.147-5.888 2.796-8.979 2.304zm15.52-86.7c-.11-.176-.407-.32-.663-.32-1.149 0-3.677-1.56-5.657-3.493-1.188-1.159-2.16-2.27-2.16-2.468 0-.198-.206-.531-.457-.74-1.09-.904-2.509-4.401-2.97-7.323-.208-1.313-.931-1.652-1.572-.738-1.048 1.497-2.414.156-1.698-1.667 2.512-6.39 4.476-9.582 8.067-13.113 1.704-1.675 3.141-2.768 4.347-3.307.992-.443 2.053-.937 2.358-1.098.722-.38 6.167-.38 6.889 0 .306.16 1.37.657 2.367 1.102 2.528 1.13 5.899 4.562 7.417 7.55.644 1.269 1.172 2.554 1.172 2.857s.174.724.386.937c.556.556.54 7.878-.02 9.341-1.251 3.267-2.225 4.772-4.67 7.221-2.64 2.644-6.367 4.94-8.023 4.94-.416 0-.845.143-.953.32s-1.045.32-2.08.32c-1.036 0-1.972-.145-2.08-.32zm5.47-2.742c2.16-.726 5.61-3.072 7.171-4.876 1.673-1.934 3.015-4.777 3.54-7.502.344-1.785.342-2.535-.012-4.32-.235-1.188-.526-2.376-.646-2.64-2.183-4.801-4.733-7.721-8.13-9.31-1.938-.908-2.355-.985-4.759-.882-2.113.09-3.014.298-4.554 1.048-2.115 1.032-5.91 4.647-7.106 6.772-1.777 3.156-2.026 3.694-1.847 3.983.105.17.387.31.628.31.343 0 .432.734.414 3.44-.02 3.194.05 3.595.976 5.624.975 2.138 4.621 7.095 5.217 7.095.166 0 .404.165.53.366.125.202 1.164.664 2.308 1.027 2.291.728 3.803.695 6.27-.135z" fill="#131313"/></svg>