<?xml version="1.0" encoding="utf-8"?>
<!-- Generator: Adobe Illustrator 19.2.1, SVG Export Plug-In . SVG Version: 6.00 Build 0)  -->
<svg version="1.1" id="Armchair" fill="#ed7d31" xmlns="http://www.w3.org/2000/svg" xmlns:xlink="http://www.w3.org/1999/xlink" x="0px" y="0px"
	 viewBox="0 0 400 400" style="enable-background:new 0 0 400 400;" xml:space="preserve">
<g>
	<path d="M162.8,203.8c19.5-14.3,30.9-37.7,35-61.6c4.1-23.8,1.5-48.3-2.3-72.3c-1.6-9.8-3.3-19.6-2.2-29.4
		c1.7-14.7,11.3-28.1,27-29.3c8.7-0.6,17.3,2.1,25.4,5.4s16,7.3,24.5,9.3c22.1,5.2,36.3-4.9,54.9-14.3c7.4-3.7,15.9-6.1,23.7-3.5
		c9.2,3,15,12.1,19.2,20.8c12.5,26.1,18,55.7,15.6,84.6c-2.5,29.1-13.6,58.5-35.8,77.4c-1.1,0.9-2.4,1.9-3.9,2.1
		c-2.3,0.3-4.3-1.5-6.1-2.9c-17.9-16-39.9-28-63.6-31.4c-23.7-3.4-49.2,2.5-67.5,18.1c-15.2,13.1-24.4,31.7-38.1,46.3
		c-17.6,18.8-42.7,30.4-68.5,31.6c-25.8,1.2-51.8-8-71.1-25.1c-5.7-5.1-11-11.1-12.7-18.5c-3.9-16.2,15.2-26.1,27.2-32
		c16.2-8.1,34.5-11.7,52.6-10.1C121.8,171.4,146.4,184.1,162.8,203.8z"/>
	<path d="M374.3,168.2c-4,52.8-31.9,103.5-74.4,135.1s-99,43.8-150.8,32.4c-51.7-11.3-97.9-46-123.4-92.6
		c5.1,9.4,27.2,16.3,36.6,19.1c36.1,10.9,76.4,1.9,104.4-23.2c20.4-18.3,34.1-44.6,57.6-59.3c19.6-12.2,44.9-14.2,66.5-6.1
		c13.6,5.1,42.3,15.8,43.5,32.9c0.7,9.7-6.4,18-13.4,24.7c-22,21.3-46.5,40-72.9,55.4c27.7-11.2,54.6-25.3,77.1-44.8
		C348,222.3,366.4,197,374.3,168.2z"/>
	<path d="M147,385.1c0-0.2,0-0.5,0.1-0.6c0.3-0.5,0.9-0.6,1.4-0.7c20.9-3.9,42.2-5.5,63.3-4.9c3.4,0.1,7.5-0.1,9.1-3.1
		c0.8-1.5,0.7-3.1,0.6-4.8c-0.2-4.6-0.4-9.2-0.6-13.8c-0.1-3,1.7-4.2,4.5-4.8c4-0.8,8-1.4,12.1-2c-0.6,0.1,0.4,17.9,0.4,19.5
		c0.2,4.4-0.4,8.1,5.2,8.5c7.4,0,14.7,0.6,22.1,1.1c7.2,0.5,14.5,0.7,21.6,1.6c4.5,0.5,9.1,1.1,13.6,1.9c4.2,0.7,9.6,1.2,13.3,3.1
		c-4.4,1.9-10.1,2.4-14.8,3.1c-5.5,0.9-11,1.7-16.7,2.1c-22.5,2.1-45.2,1.6-67.7,0.8c-13.1-0.5-26.1-1-39.2-1.9
		c-8.9-0.6-18-1.3-26.7-3.5C148.2,386.5,147.1,385.8,147,385.1z"/>
</g>
</svg>
