<?xml version="1.0" encoding="utf-8"?>
<!-- Generator: Adobe Illustrator 19.2.1, SVG Export Plug-In . SVG Version: 6.00 Build 0)  -->
<svg version="1.1" id="Bulb" fill="#fad9c2" xmlns="http://www.w3.org/2000/svg" xmlns:xlink="http://www.w3.org/1999/xlink" x="0px" y="0px"
	 viewBox="0 0 400 400" style="enable-background:new 0 0 400 400;" xml:space="preserve">
<g>
	<path d="M159.3,40.4c13.1-5.2,27.1-8,41.1-8c3.5,0,7,0.1,10.4,0.5c36.6,3.3,71,25.8,88.7,58c17.8,32.2,18.5,73.2,1.8,106
		c-12.7,24.9-34.1,44.3-48.7,68.2c-2.6,4.3-6.5,9.4-11.4,8.2c-3-0.7-5-3.9-5.3-7c-0.3-3.2,0.8-6.2,2.1-9.1
		c10.6-23.9,32.6-40.8,45.6-63.4c16.5-28.7,16.7-66.1,0.5-95c-16.2-28.8-48.4-48.1-81.5-48.9S136.5,66.8,119,95s-19.1,65.5-3.9,94.9
		c11.8,22.9,32.3,40.1,45.4,62.1c2.3,3.8,4.3,7.9,4.1,12.3c-0.2,4.4-3.5,8.9-7.9,9c-5.4,0-8.5-5.9-10.9-10.8
		c-10.1-20.7-28.5-36.1-41-55.4c-12.9-20-19.4-44.2-18-68c1.7-29.7,15.5-57.4,37.5-77.1C134.7,52.7,146.5,45.5,159.3,40.4z"/>
	<path d="M197.1,69.9c0,33.5,0,67,0,100.4c0,0.8,0,1.7-0.5,2.5c-0.5,0.9-1.5,1.4-2.4,1.9c-5.7,3.5-6.9,12.4-2.4,17.3
		c4.4,4.9,13.3,4.6,17.6-0.5c4.2-5.2,2.8-13.8-2.8-17.4c-1-0.6-2.1-1.2-2.6-2.2c-0.4-0.8-0.4-1.6-0.4-2.5c0-33.2,0-66.5,0-99.7
		c4.9,0.8,9.3,4.2,11.5,8.7c2.1,4.5,2,10-0.5,14.4c-0.4,0.7-0.8,1.4-1,2.2c-0.2,1,0.2,2.1,0.6,3c8.2,22.2,16.5,44.3,24.7,66.5
		c0.6,1.5,1.2,3,1.3,4.7c0.2,2.1-0.3,4.1-0.8,6.2c-5.6,22.3-9.5,45-11.8,67.9c-0.1,0.8-0.2,1.6-0.8,2.1c-0.5,0.3-1.1,0.3-1.6,0.3
		c-16.1,0-32.2,0-48.3,0c-0.6,0-1.4,0-2-0.4c-1-0.6-1.2-1.9-1.4-3.1c-2.4-22.5-6.4-44.8-12.1-66.6c-1.7-6.6,0.5-11.7,2.8-18
		c7.4-19.8,14.8-39.5,22.2-59.3c0.4-1.1,0.8-2.2,0.6-3.3c-0.1-1-0.6-1.9-1.1-2.8C181.6,83.5,186.5,70.6,197.1,69.9z"/>
	<path d="M200.3,303.3c6.1,0,12.2,0,18.3,0c7.1,0,14.6-0.7,21.7,0.3c4.8,0.6,9.9,3,10,8.5c0.1,2.5-1.1,5-3.1,6.6
		c-2.9,2.4-7,2.5-10.8,2.5c-13.5,0-27.1,0.1-40.6,0.1c-7.5,0-15.1,0.2-22.7,0.1c-5.8-0.1-16,1.2-20.6-3.2c-1.7-1.7-2.5-4.3-2.1-6.8
		c1.2-7.5,9.7-8,15.8-8C177.6,303.3,189,303.3,200.3,303.3z"/>
	<path d="M200.2,345.4c-12.9,0-25.8,0-38.7,0c-1.6,0-3.3,0-4.8-0.5c-3.3-1-5.9-4-6.2-7.3c-0.4-3.1,1.1-6.3,3.7-8.2
		c3-2.1,7.6-1.7,11.1-1.7c24,0,48.1-0.1,72.1-0.1c3.3,0,6.8,0.1,9.6,1.9c2.6,1.8,3.9,5.2,3.4,8.2c-0.5,3.1-2.8,5.8-5.7,6.8
		c-2,0.7-4.2,0.7-6.2,0.7C225.6,345.4,212.9,345.4,200.2,345.4z"/>
	<path d="M200.4,296.5c-12.3,0-24.7,0.1-37,0.1c-3.3,0-7-0.1-9.6-2.1c-2.2-1.6-3.4-4.3-3.2-7c0.6-8,9.9-8.7,15.9-8.6
		c16.7,0.2,33.4-0.3,50.1-0.3c8,0,16.9-0.8,24.8,0.4c5.2,0.8,10,5,8.8,10.7c-1.5,7-8.8,6.8-14.5,6.8
		C223.9,296.4,212.1,296.5,200.4,296.5z"/>
	<path d="M173.4,352.4c0.3-0.5,1-0.6,1.6-0.6c17.1-0.3,34.2,0,51.3,0.3c0.3,0,0.7,0,1,0.2c2.3,1.2-3.9,5.9-4.8,6.7
		c-4.6,3.7-9.9,6.9-15.8,8c-12.4,2.4-26.1-2.9-33.2-13.5c-0.1-0.2-0.3-0.4-0.3-0.6C173.2,352.6,173.3,352.5,173.4,352.4z"/>
</g>
</svg>
