<?xml version="1.0" encoding="utf-8"?>
<!-- Generator: Adobe Illustrator 19.2.1, SVG Export Plug-In . SVG Version: 6.00 Build 0)  -->
<svg version="1.1" id="Diez" fill="#ed7d31" xmlns="http://www.w3.org/2000/svg" xmlns:xlink="http://www.w3.org/1999/xlink" x="0px" y="0px"
	 viewBox="0 0 400 400" style="enable-background:new 0 0 400 400;" xml:space="preserve">
<g>
	<path d="M122.7,172.2c0-0.1-0.1-0.2-0.2-0.3c-0.7-0.9-3-0.6-4-0.7c-1.8-0.1-3.6-0.1-5.5,0c-3.7,0.1-7.5,0.3-11.2,0.4
		c-6.8,0.1-13.7,0.2-20.5,0.2c-7.5,0-15.8-0.5-21.9-5.6c-0.7-0.6-1.3-1.2-1.9-1.8c-4.5-4.9-7.4-10.3-7.6-17.1
		c-0.2-6.1,0.3-12.8,4.1-17.8c4.1-5.5,10.9-9.1,17.6-10.2c1.2-0.2,2.5-0.3,3.8-0.3c22.5-0.1,45-0.1,67.5-0.1
		c1.5-4.2,3.1-8.4,4.6-12.5c2-5.5,4-10.9,6-16.4c2.7-7.2,5.1-14.6,7.8-21.8c1.3-3.6,2.7-7.1,4.2-10.6c1.4-3.2,2.6-7,4.9-9.6
		c4-4.5,8.8-7.9,14.8-9c5.4-1,11.3-0.6,16.4,1.6c3.5,1.5,6.6,4.4,9.1,7.2c5.1,5.8,7,13.4,5.9,21c-0.7,4.5-2.7,8.9-4.2,13.3
		c-1.2,3.7-2.5,7.4-3.8,11.1c-1.3,3.5-2.8,6.9-4,10.4c-1.8,5-3.6,10.1-5.4,15.4c1.1,0,2,0,2.8,0c26.2,0,52.5-0.1,78.7,0.1
		c8.9,0.1,15.6,4.6,20.1,12.2c2.5,4.2,3.9,8.8,3.8,13.7c-0.1,8-2.4,14.7-9,20.1c-5.8,4.7-12.1,6.8-19.4,6.8c-20.5,0-41.1,0.2-61.6,0
		c-5.5,0-11,0-16.5-0.1c-5.2-0.1-10.5-0.5-15.7,0c-3.2,0.3-3.4,2.7-4.3,5.2c-7.1,19.1-13.4,38.5-21,57.4c-2.8,7-5.6,14-8,21.2
		c-2.2,6.5-4.9,13.3-9.6,18.5c-10.5,11.5-29.9,9.8-38.9-2.6c-2.9-4-4.9-8.4-5.3-13.5c-0.5-6.4,1.6-12.5,3.7-18.5
		c4.1-11.4,8.3-22.7,12.5-34c2.2-5.9,4.6-11.7,6.8-17.6c1.1-3,2.1-5.9,3-9c0.5-1.8,1.3-3.4,1.5-5.3
		C122.8,172.9,122.9,172.5,122.7,172.2z"/>
	<path d="M141.3,281.6c0.3-0.7,0.3-1.4,0.6-1.5c4-2.7,6.3-6.9,8.2-10.9c2.7-5.5,9.1-24.1,10.4-27.5c1.4-3.8,2.7-7.7,4.1-11.6
		c0.2-0.5,1-1,1.6-1.2s105.9,0,157.9-0.1c6.2,0,11.6,1.7,16.2,5.8c4.6,4.1,8.1,9.1,9.6,15.2c2.4,9.7-1.8,20.1-9.8,26
		c-5.7,4.2-11.8,5.9-18.9,5.9c-58.9-0.1-117.7-0.1-176.6-0.1C143.6,281.6,142.6,281.6,141.3,281.6z"/>
	<path d="M297.4,171.7c17.6-17.6,17.3-34.9,0.8-52.8c1,0,1.8,0,2.5,0c21.8,0,43.5-0.1,65.3,0c10.9,0.1,17.3,8.1,22.3,16.8
		c3.2,5.5,2.2,14-0.2,19.7c-2.6,5.9-7.4,10.5-12.9,13.7c-2.7,1.6-6.3,1.8-9.4,2.1c-10.1,1.1-20.3,0.7-30.4,0.5
		c-11.3-0.2-22.7-0.1-34-0.1C300.9,171.7,297.8,171.3,297.4,171.7z"/>
	<path d="M96.5,229c-0.5-0.1-3.1,8.5-3.3,9.2c-3.5,10.9-5.4,21.9,0.6,32.4c2.2,3.8,5.5,6.9,7.8,10.6c-0.4,0.4-0.9,0.4-1.5,0.4
		c-20.4,0-64.8,0-66.6,0c-16.7-0.1-27.1-19.1-22.8-34c0.7-2.3,1.7-4.5,3-6.6c4.2-6.3,11.5-10.7,18.9-12
		C37.2,228.1,95.8,228.9,96.5,229z"/>
	<path d="M261.8,113.1c0.9-2.3,1.5-3.6,2.1-5.1c4.8-13.5,10-26.8,14.8-40.3c2-5.5,3.7-11,6-16.4c2.3-5.5,8.6-9.5,14-11.5
		c7.1-2.7,15-1.8,21.8,1.5c4.5,2.2,7.9,6.3,10.4,10.9c4.7,8.3,2.8,17.8-0.1,26.4c-3.6,10.4-7.7,20.6-10.9,31.1
		c-0.3,0.9-0.7,1.8-1.5,2.4c-1.2,0.9-2.6,0.6-4,0.6c-15.4,0-30.7,0.5-46.1,0.5C267.6,113.1,261.9,112.7,261.8,113.1z"/>
	<path d="M254.2,287.8C254.2,287.8,254.3,287.8,254.2,287.8c0.1,0.3,0,0.5,0,0.8c-2.4,7.6-14.1,39.2-17.2,47.1
		c-2.6,6.6-5.2,13.4-10,19c-4.4,5.1-12.5,7-19.2,6.9c-8.9-0.2-16.9-5.2-21.4-12.8c-4.4-7.5-3.9-15.1-1.5-23.2
		c3.8-12.5,8.5-25,13.6-37c0.2-0.5,1.1-1.1,1.7-1.1C207.6,287.4,254.1,287.6,254.2,287.8z"/>
	<path d="M137.1,287.8c-4.7,13.8-9.5,27.7-14.2,41.5c-2.3,6.6-4.6,13.3-8.4,19.2s-9.4,10.9-16.1,12.6c-13.5,3.5-29.5-6.4-31.5-20.3
		c-0.7-4.6-0.2-9.2,0.8-13.8c1.7-8.1,4.7-15.9,7.8-23.6c1.5-3.7,6-14.4,7.4-15.2C84.1,287.4,120.4,287.5,137.1,287.8z"/>
	<path d="M277.9,222.8C277.9,222.9,277.9,222.9,277.9,222.8c-0.3,0.5-5.9,0.1-6.6,0.1c-16.4,0-32.8,0-49.1,0c0.4,0,2.3-6.4,2.5-7
		c0.9-2.4,1.7-4.9,2.6-7.3c3.6-10,7.3-19.9,10.8-29.9c0.2-0.5,0.4-1,0.7-1.3c0.5-0.4,1.2-0.4,1.8-0.4c17.9,0,35.8,0.1,53.7,0.1
		c-0.5,0-3.3,10-3.6,11.1c-1.3,3.8-2.6,7.5-3.9,11.3C284,207.3,281.1,215.1,277.9,222.8z"/>
</g>
</svg>
