<?xml version="1.0" encoding="UTF-8" standalone="no"?>
<svg
   xmlns:dc="http://purl.org/dc/elements/1.1/"
   xmlns:cc="http://creativecommons.org/ns#"
   xmlns:rdf="http://www.w3.org/1999/02/22-rdf-syntax-ns#"
   xmlns:svg="http://www.w3.org/2000/svg"
   xmlns="http://www.w3.org/2000/svg"
   viewBox="0 0 500 500"
   height="500"
   width="500"
   id="svg10"
   version="1.1">
  <metadata
     id="metadata16">
    <rdf:RDF>
      <cc:Work
         rdf:about="">
        <dc:format>image/svg+xml</dc:format>
        <dc:type
           rdf:resource="http://purl.org/dc/dcmitype/StillImage" />
        <dc:title></dc:title>
      </cc:Work>
    </rdf:RDF>
  </metadata>
  <defs
     id="defs14" />
  <path
     d="m 156.77539,62.384766 c -2.9282,-0.03419 -5.87903,0.760739 -9.07617,2.380859 -8.76161,4.43984 -13.11072,11.733465 -13.07422,21.921875 0.0354,9.88452 4.91935,17.88327 13.21875,21.65039 11.76402,5.33972 25.38109,-1.27321 29.2168,-14.18945 1.95438,-6.58124 1.93985,-9.590441 -0.0703,-15.511721 -2.21929,-6.53676 -5.50848,-10.525655 -11.26758,-13.660157 -3.11205,-1.693792 -6.01907,-2.557603 -8.94727,-2.591796 z m 17.50391,48.656254 -0.16602,0.004 c -0.0628,9e-4 -0.12474,0.002 -0.1875,0.002 -0.0639,7.7e-4 -0.1275,6e-4 -0.19141,0.002 -0.063,9.6e-4 -0.12645,6e-4 -0.18945,0.002 -0.0674,0.001 -0.13577,0.005 -0.20312,0.008 -0.0722,0.003 -0.14273,0.006 -0.21485,0.01 -0.076,0.004 -0.1526,0.009 -0.22851,0.0137 -0.0784,0.005 -0.15796,0.0116 -0.23633,0.0176 -0.0812,0.006 -0.16118,0.0136 -0.24219,0.0215 -0.087,0.008 -0.17301,0.0175 -0.25976,0.0273 -0.0898,0.0105 -0.17989,0.0232 -0.26954,0.0352 -0.0891,0.0116 -0.17877,0.0253 -0.26757,0.0391 -0.0915,0.0142 -0.18218,0.0294 -0.27344,0.0449 -0.0909,0.0157 -0.18261,0.0307 -0.27344,0.0469 -0.0876,0.0156 -0.17421,0.0327 -0.26172,0.0488 -0.0888,0.0163 -0.17698,0.0319 -0.26562,0.0488 -0.0875,0.0167 -0.17632,0.0336 -0.26367,0.0508 -0.0353,0.007 -0.0704,0.0142 -0.10547,0.0215 -4.33225,2.20713 -9.26667,8.27941 -9.95899,12.71484 -0.37632,2.41093 -0.48626,4.58013 -0.24414,4.82226 0.59214,0.59213 6.82508,-1.99458 10.64844,-4.90039 1.70192,-1.29349 4.16056,-2.1914 5.79102,-2.1914 2.59501,0 6.19632,3.09891 7.58789,5.47656 0.0125,0.007 0.0256,-3.9e-4 0.0352,0.0195 l 0.002,0.002 0.004,0.0117 c 0.002,0.004 0.006,0.006 0.008,0.01 0.003,0.005 0.005,0.0109 0.008,0.0156 0.003,0.005 0.007,0.008 0.01,0.0137 0.004,0.006 0.006,0.0137 0.01,0.0195 0.004,0.007 0.008,0.0109 0.0117,0.0176 0.004,0.007 0.008,0.0165 0.0117,0.0234 0.004,0.007 0.008,0.0106 0.0117,0.0176 0.005,0.007 0.009,0.0159 0.0137,0.0234 0.005,0.008 0.009,0.0139 0.0137,0.0215 6.8e-4,10e-4 0.001,0.0107 0.002,0.0117 0.003,-2.8e-4 0.006,-0.002 0.01,0.002 0.003,0.003 0.007,0.009 0.01,0.0117 0.003,0.003 0.005,0.009 0.008,0.0117 0.003,0.004 0.005,0.008 0.008,0.0117 0.003,0.004 0.005,0.0109 0.008,0.0156 0.003,0.005 0.007,0.0104 0.01,0.0156 0.003,0.006 0.007,0.0115 0.01,0.0176 0.003,0.006 0.007,0.0112 0.01,0.0176 0.003,0.007 0.007,0.0163 0.01,0.0234 0.003,0.007 0.007,0.014 0.01,0.0215 0.003,0.007 0.005,0.014 0.008,0.0215 8e-4,10e-4 0.001,0.0107 0.002,0.0117 0.002,0.003 0.004,0.008 0.006,0.0117 0.002,0.004 0.004,0.009 0.006,0.0137 0.001,0.001 0.003,0.003 0.004,0.004 0.003,0.004 0.007,0.008 0.01,0.0117 0.002,0.003 0.004,0.009 0.006,0.0117 0.002,0.003 0.005,0.008 0.008,0.0117 0.005,0.007 0.0107,0.0158 0.0156,0.0234 0.005,0.008 0.0108,0.0151 0.0156,0.0234 0.005,0.008 0.009,0.0154 0.0137,0.0234 0.005,0.008 0.009,0.0171 0.0137,0.0254 0.004,0.008 0.007,0.0169 0.0117,0.0254 0.004,0.009 0.01,0.0168 0.0137,0.0254 0.002,0.004 0.002,0.008 0.004,0.0117 h 0.002 v 0.002 c 0.002,0.005 0.004,0.009 0.006,0.0137 0.004,0.007 0.008,0.0126 0.0117,0.0195 0.003,0.007 0.005,0.0142 0.008,0.0215 0.001,0.001 -0.001,0.004 0.002,0.006 6.7e-4,0.002 0.003,0.005 0.002,0.006 0.005,0.009 0.0109,0.02 0.0176,0.0254 0.008,0.008 0.0127,0.01 0.0137,0.0254 2e-4,0.003 -0.001,0.009 -0.002,0.0117 v 0.002 c 6.9e-4,7.7e-4 0.003,-0.001 0.004,0.002 0.002,0.003 0.002,0.009 0.004,0.0117 0.002,0.003 0.002,0.008 0.004,0.0117 0.001,0.003 0.002,0.008 0.004,0.01 0.004,0.007 0.002,-0.002 0.006,0.0117 0.001,0.004 -10e-4,0.007 0.002,0.0117 6.2e-4,7.9e-4 0.003,-10e-4 0.004,0.002 0.002,0.004 0.004,0.009 0.006,0.0137 0.007,0.0182 10e-4,0.009 0.008,0.0195 0.005,0.008 0.006,0.0104 0.006,0.01 0.003,0.004 0.006,0.007 0.008,0.0117 0.002,0.006 0.002,0.0118 0.004,0.0176 9.5e-4,0.002 0.003,0.004 0.004,0.006 0.002,0.003 0.004,0.009 0.006,0.0117 0.002,0.0125 0.002,0.0126 0.002,0.0137 v 0.002 c 0.001,0.003 0.003,0.009 0.004,0.01 7.1e-4,0.002 0.001,0.006 0.002,0.008 0.002,0.005 0.003,0.0102 0.004,0.0117 l 0.002,0.004 v 0.006 c 0.003,0.004 0.006,0.008 0.008,0.0117 0.002,0.005 0.002,0.0109 0.002,0.0156 8.7e-4,0.003 0.003,0.009 0.004,0.0117 0.004,0.011 0.008,0.0221 0.0117,0.0332 0.004,0.0109 0.008,0.0188 0.0117,0.0293 0.004,0.0109 0.008,0.0223 0.0117,0.0332 0.004,0.0108 0.008,0.0224 0.0117,0.0332 0.004,0.0112 0.006,0.022 0.01,0.0332 0.003,0.011 0.008,0.0222 0.0117,0.0332 0.003,0.0109 0.008,0.0189 0.0117,0.0293 0.006,0.009 0.0151,0.004 0.0195,0.0176 3.9e-4,10e-4 0.003,0.008 0.004,0.01 0.001,0.004 0.003,0.008 0.004,0.0117 0.001,0.004 0.006,0.009 0.008,0.0137 0.002,0.005 0.002,0.0105 0.004,0.0156 0.002,0.006 0.006,0.008 0.008,0.0137 0.002,0.006 -8e-5,0.0139 0.002,0.0195 0.002,0.006 0.006,0.0115 0.008,0.0176 0.002,0.007 0.006,0.0147 0.008,0.0215 0.002,0.007 0.006,0.0128 0.008,0.0195 0.002,0.007 0.004,0.011 0.006,0.0176 5.2e-4,0.002 0.003,0.006 0.004,0.008 0.0172,0.0283 -0.0102,-0.0215 0.0156,0.0273 7.1e-4,0.004 0.003,0.008 0.004,0.0117 l -0.004,0.002 c 0.002,0.0123 0.0123,0.024 0.0117,0.0371 1e-5,0.007 0,0.0144 0,0.0215 5.7e-4,0.003 0.003,0.009 0.004,0.0117 0.002,0.008 0.006,0.017 0.008,0.0254 0.002,0.009 0.006,0.0168 0.008,0.0254 0.002,0.008 0.002,0.017 0.004,0.0254 v 0.002 h 0.004 c 7e-4,0.005 0.003,0.0126 0.004,0.0176 7.4e-4,0.003 0.001,0.009 0.002,0.0117 0.001,0.008 2.8e-4,0.0137 0.002,0.0215 0.17363,1.24145 0.32568,3.18479 0.38281,4.16406 l 0.004,0.0117 c 5.5e-4,0.002 0.004,0.01 0.004,0.0117 5.2e-4,0.003 -4.9e-4,0.01 0,0.0117 0.002,0.01 0.004,0.0192 0.004,0.0293 -7e-4,0.004 -1.8e-4,0.009 0,0.0137 l 0.002,0.002 -0.002,0.002 c 1.3e-4,0.003 -7e-5,0.007 0,0.01 v 0.004 c 0.005,0.0135 0.004,0.0271 0.002,0.041 5e-5,0.009 2e-5,0.0162 0,0.0254 0,0.001 0,0.005 0,0.006 -9e-5,0.0125 -2e-5,0.0246 0,0.0371 -0.002,0.008 -0.002,0.0152 -0.006,0.0215 -0.002,0.003 -0.006,0.009 -0.008,0.0117 4.3e-4,0.0134 2e-4,0.028 0,0.041 -3e-5,0.009 0,0.0164 0,0.0254 -0.003,0.007 -0.003,0.0125 -0.004,0.0176 0.001,0.0155 0.004,0.0406 0.004,0.0488 -0.002,0.003 -0.006,0.005 -0.008,0.008 v 0.0293 0.0488 0.0273 c -0.001,0.01 -0.005,0.018 -0.008,0.0273 -6.5e-4,0.002 -0.003,0.004 -0.004,0.006 -0.004,0.009 -1.4e-4,0.006 -0.002,0.0117 -0.002,0.005 -0.006,0.008 -0.008,0.0137 -5.5e-4,0.002 7.2e-4,0.01 0,0.0117 l -0.002,0.004 v 0.002 c -0.001,0.003 -0.003,0.008 -0.004,0.0117 -4.1e-4,0.005 -0.002,0.0102 -0.002,0.0156 8.2e-4,0.007 0.002,0.0114 -0.004,0.0176 -0.007,0.004 -0.005,0.005 -0.008,0.008 0.007,0.004 0.001,0.016 0,0.0215 -4.6e-4,0.002 2.5e-4,0.01 0,0.0117 -0.003,0.005 -0.004,0.009 -0.008,0.0137 -0.006,0.009 -0.005,0.0125 -0.004,0.0117 -1.4e-4,0.002 3e-4,0.01 0,0.0117 -6.3e-4,0.004 -0.003,0.008 -0.004,0.0117 -7e-4,0.003 7.6e-4,0.009 -0.002,0.0117 -0.002,0.006 -0.009,0.0115 -0.0117,0.0176 -0.002,0.002 -0.007,0.01 -0.008,0.0117 -0.001,0.003 -0.004,0.0162 -0.004,0.0176 -5.1e-4,0.002 -0.003,0.01 -0.004,0.0117 -0.001,0.006 -0.003,0.0118 -0.006,0.0176 -0.002,0.004 -0.001,0.008 -0.004,0.0117 -0.001,0.002 -0.008,0.009 -0.008,0.0117 -0.002,0.006 -0.005,0.0129 -0.008,0.0195 -0.002,0.004 -0.003,0.009 -0.004,0.0137 1.1e-4,0.006 -0.007,0.01 -0.006,0.0156 -3.6e-4,0.002 8.8e-4,0.008 0,0.01 -0.001,0.002 -0.006,0.009 -0.008,0.0117 -0.001,0.003 -0.005,0.01 -0.008,0.0117 -7.4e-4,0.002 -0.003,0.01 -0.004,0.0117 -0.001,0.003 -0.006,0.01 -0.008,0.0117 -0.001,0.003 -0.004,0.007 -0.006,0.01 -0.001,0.002 -0.002,0.01 -0.004,0.0117 -0.001,0.002 -0.002,0.01 -0.004,0.0117 -0.001,0.002 -0.003,0.006 -0.004,0.008 -3.8e-4,0.001 -0.003,0.002 -0.004,0.004 -0.004,0.008 -0.01,0.0155 -0.0137,0.0234 h -0.004 c 7.1e-4,0.001 -0.002,0.003 -0.004,0.006 -4.1e-4,0.003 -9.7e-4,0.009 -0.004,0.0117 -0.001,0.002 -0.004,0.004 -0.006,0.006 v 0.002 c -0.003,0.007 -0.003,0.004 -0.004,0.0117 -0.003,0.009 -10e-4,0.004 -0.008,0.0117 l -0.004,0.002 v 0.006 c -0.005,0.009 -0.006,3e-4 -0.008,0.01 -0.004,0.005 -0.008,0.0144 -0.0117,0.0195 -0.003,0.004 -0.007,0.006 -0.01,0.01 -0.001,0.002 -0.001,0.009 -0.002,0.0117 -0.003,0.007 -0.007,0.0142 -0.01,0.0215 -6.5e-4,0.002 6e-4,0.01 -0.002,0.0117 -0.004,0.007 -0.005,0.007 -0.0117,0.0117 l -0.002,0.0117 c -0.001,0.001 -0.007,0.009 -0.008,0.0117 l 0.002,0.002 c -6.9e-4,0.002 7.4e-4,0.01 -0.002,0.0117 -0.001,0.002 -0.004,0.006 -0.006,0.008 v 0.0117 c -0.002,0.007 -0.003,0.007 -0.008,0.0117 v 0.002 c -0.002,0.002 -0.004,0.01 -0.006,0.0117 -0.002,0.001 -0.004,0.005 -0.006,0.006 -0.002,0.002 -0.003,0.006 -0.004,0.008 -0.002,0.006 -0.004,0.0101 -0.006,0.0156 -0.006,0.007 -0.009,0.017 -0.0156,0.0234 -0.002,0.002 -0.006,0.002 -0.008,0.004 -0.003,0.002 -0.004,0.009 -0.006,0.0117 -8e-5,0.002 0.001,0.01 -0.002,0.0117 -0.002,0.002 -0.004,0.007 -0.006,0.008 l -0.002,0.004 c -0.004,0.0113 0.007,-0.008 -0.004,0.01 -5.2e-4,0.002 -0.001,0.01 -0.002,0.0117 -0.001,0.003 -0.004,0.009 -0.006,0.0117 -0.001,0.002 6.4e-4,0.008 -0.002,0.01 -9.6e-4,0.002 -0.003,0.006 -0.004,0.008 -0.006,0.0113 -0.001,0.001 -0.004,0.0117 -0.003,0.006 -0.008,0.0104 -0.0137,0.0137 -0.001,6.8e-4 -0.003,0.005 -0.004,0.006 -2.2e-4,0.001 -0.001,0.0107 -0.002,0.0117 -0.001,0.002 -0.001,0.002 -0.002,0.004 -5.3e-4,0.001 -0.001,0.005 -0.002,0.006 -0.005,0.009 -0.006,0.005 -0.0137,0.0137 -0.002,0.002 -0.01,0.013 -0.0117,0.0156 -0.003,0.004 -0.007,0.008 -0.01,0.0117 -0.001,0.002 -0.002,0.0107 -0.004,0.0117 -0.004,0.004 -0.005,0.005 -0.01,0.008 0.003,0.002 -0.016,0.0194 -0.0176,0.0215 -0.0154,0.0199 0.007,-0.003 -0.0117,0.0156 -0.002,0.002 -0.0141,0.0138 -0.0156,0.0156 -0.001,0.002 -0.003,0.002 -0.004,0.004 -0.002,0.003 -0.003,0.008 -0.006,0.0117 -0.011,0.0125 -0.0198,0.0274 -0.0293,0.041 -0.003,0.006 -0.0122,0.009 -0.0137,0.0156 -1.7e-4,9.3e-4 5e-5,0.003 0,0.004 -3.1e-4,0.005 -0.002,0.006 -0.004,0.0117 -0.005,0.007 -0.009,0.0148 -0.0156,0.0215 -0.004,0.005 -0.0104,0.009 -0.0117,0.0156 -8e-4,0.004 -0.001,0.009 -0.004,0.0117 -0.003,0.004 -0.0108,0.009 -0.0156,0.0117 l 0.002,0.002 c -1.8e-4,0.005 -0.005,0.0139 -0.008,0.0176 -0.01,0.0151 -0.004,0.003 -0.0176,0.0195 -0.003,0.003 -0.003,0.008 -0.006,0.0117 -0.003,0.009 -0.012,0.0126 -0.0176,0.0195 -0.002,0.004 -0.004,0.008 -0.006,0.0117 -0.001,0.002 -0.003,0.002 -0.004,0.004 -0.001,0.002 1.7e-4,0.0107 0,0.0117 -2.5e-4,0.003 6.3e-4,0.009 -0.002,0.0117 -0.004,0.0108 -0.006,0.0145 -0.0137,0.0234 -0.004,0.007 -0.0111,0.0104 -0.0156,0.0176 -0.002,0.003 -0.004,0.01 -0.006,0.0117 -0.006,0.009 -0.0135,0.0165 -0.0195,0.0254 -0.001,0.002 -0.003,0.008 -0.004,0.01 -8.2e-4,0.001 -0.003,0.01 -0.004,0.0117 -0.004,0.0109 -0.002,0.003 -0.008,0.0117 -5.1e-4,7.9e-4 2.1e-4,0.0107 0,0.0117 -0.001,0.002 -0.003,0.002 -0.004,0.004 1.9e-4,0.005 0.003,0.002 -0.002,0.0117 -0.008,0.0175 -0.0168,0.0266 -0.0312,0.0391 -0.002,0.002 -0.0126,0.0117 -0.0137,0.0137 -0.002,0.003 -5e-5,0.008 -0.002,0.0117 -0.002,0.004 -0.005,0.009 -0.008,0.0137 -0.004,0.007 -0.0121,0.0148 -0.0176,0.0215 -0.001,0.002 -0.003,0.01 -0.004,0.0117 -0.0535,0.10009 -0.0886,0.16902 -0.16406,0.30469 -1.37635,2.47373 -7.68752,6.42662 -12.26368,9.63672 -4.43616,2.25937 -9.2144,4.49932 -9.71875,4.56641 -0.009,-0.0141 -0.022,-0.0196 -0.0312,-0.0332 -0.0309,0.0332 -0.0157,0.0434 0.0312,0.0371 0.1171,0.19505 0.19204,0.47875 0.22071,0.89844 0.0686,1.19624 1.72441,8.42128 2.66211,15.5 0.93769,7.07874 1.33128,13.23672 0.875,13.68359 -0.45628,0.44687 -3.52813,0.22946 -6.82813,-0.48242 -3.3,-0.71189 -9.6,-1.82678 -14,-2.47851 -4.4,-0.65172 -10.31579,-1.67654 -13.14453,-2.27539 -8.55779,-1.81173 -7.78128,-2.26331 -31.61523,18.41601 -7.438584,6.45401 -15.598594,13.74993 -18.132814,16.21289 -4.43292,4.30832 -4.45711,8.25556 -3.84571,10.72071 0.0131,11.50101 8.09055,17.31882 16.73829,11.96875 2.62769,-1.62568 22.591944,-18.60139 31.000004,-26.35938 3.27933,-3.02593 7.23593,-3.52104 14.80663,-1.85352 2.30605,0.50793 7.56836,1.46196 11.69336,2.11915 4.125,0.6572 7.8038,1.37254 8.17578,1.58984 0.37198,0.21729 0.25079,1.85079 -0.26953,3.63086 -2.0266,6.93324 -3.92846,23.37239 -3.88086,33.55664 0.0774,16.57443 2.77717,34.22967 7.47071,48.86133 2.58177,8.04841 4.52833,11.24687 8.0039,13.1582 3.93187,2.16226 9.18077,1.38076 12.95117,-1.92969 5.67947,-4.98664 6.12692,-8.73361 2.44922,-20.50586 -4.33566,-13.87837 -5.19643,-20.46742 -5.21093,-39.90429 -0.0113,-15.18845 0.27073,-18.09554 2.64843,-27.28907 1.46371,-5.65953 2.66211,-10.43729 2.66211,-10.61718 0,-0.17986 1.78605,-1.50931 3.97071,-2.95508 7.41176,-4.90487 9.99892,-13.33745 10.01562,-32.63867 0.0205,-23.68808 -5.81357,-45.99602 -13.95312,-53.34961 -3.83309,-3.46296 -9.37542,-6.0036 -13.30079,-6.32617 z m -61.30469,1.36328 v 0.004 0.004 0.006 0.004 0.002 0.002 0.002 0.002 0.004 0.004 0.004 0.0117 0.0117 0.0117 0.004 0.0117 0.0117 0.0117 0.0117 0.008 0.006 0.006 0.006 0.006 0.0117 c -0.64692,-0.0572 -1.33354,0.0265 -2.20508,0.16602 -6.45669,1.0335 -9.03289,7.13817 -5.7168,13.55078 3.28585,6.35411 18.32359,17.98102 28.05079,21.68945 5.17374,1.97246 20.5827,2.67634 27,1.23242 1.04596,-0.20158 1.70443,-0.37742 2.03906,0.10743 l 0.002,-0.006 c 0.13164,-0.13562 0.89529,-0.59066 2.51367,-1.46875 3.38619,-1.33566 14.56632,-8.18443 16.56445,-10.125 1.01741,-0.99028 2.32867,-2.69808 3.13282,-3.67969 5.7e-4,-0.002 0.001,-0.01 0.002,-0.0117 0.002,-0.004 0.008,-0.0114 0.0117,-0.0156 0.002,-0.002 0.002,-0.007 0.004,-0.008 8.8e-4,-5.1e-4 -5e-5,0.005 0,0.006 0.001,-0.008 -9.5e-4,-0.01 0.006,-0.0156 h 0.002 c 0.004,-0.005 0.004,-0.0131 0.01,-0.0176 0.001,-10e-4 0.005,-0.004 0.006,-0.006 0.008,-0.0124 -0.004,0.004 0.008,-0.0117 v -0.002 l 0.002,-0.004 c 9.1e-4,-0.001 0.01,-0.0114 0.01,-0.0117 0.001,-0.002 0.002,-0.009 0.004,-0.01 0.002,-0.003 0.004,-0.009 0.008,-0.01 0.001,-0.001 0.002,-0.005 0.004,-0.006 0.002,-0.006 0.003,-0.0129 0.008,-0.0176 0.001,-0.002 0.002,-0.0107 0.004,-0.0117 0.001,-5.2e-4 0.002,0.0131 0.002,0.0117 7.2e-4,-0.004 -6.7e-4,-0.0119 0,-0.0156 0.002,-0.012 0.007,-0.0196 0.0137,-0.0293 0.001,-0.002 0.003,-0.01 0.004,-0.0117 v -0.002 -0.002 c -9e-5,-10e-4 -4e-5,-0.01 0,-0.0117 4.9e-4,-0.0168 0.003,-0.0136 0.0117,-0.0273 0.005,-0.003 0.008,-0.0107 0.0137,-0.0117 v 0.0117 c 0.005,-0.003 0.009,-0.009 0.0137,-0.0117 0.0163,-0.0218 -0.001,0.002 0.0117,-0.0137 0.008,-0.009 0.0143,-0.0196 0.0215,-0.0293 0.002,-0.005 0.005,-0.0109 0.008,-0.0156 0.002,-0.004 0.004,-0.008 0.006,-0.0117 l 0.002,-0.006 c 3.9e-4,-0.002 0.002,-0.008 0.002,-0.01 0.001,-0.006 0.002,-0.0133 0.004,-0.0195 7.8e-4,-0.002 0.006,-0.0109 0.01,-0.0156 v -0.002 c 0.001,-0.004 0.003,-0.008 0.004,-0.0117 0.002,-0.003 0.004,-0.01 0.006,-0.0117 8.6e-4,-0.001 0.005,-0.0107 0.006,-0.0117 9.9e-4,-0.003 0.003,-0.009 0.004,-0.0117 9.2e-4,-0.003 -0.001,-0.009 0.002,-0.0117 0.005,-0.0107 0.005,-0.009 0.0117,-0.0176 0.005,-0.008 0.008,-0.018 0.0156,-0.0234 0.001,-9.3e-4 0.002,-0.007 0.004,-0.008 3e-4,-5e-4 -3.3e-4,-0.0107 0,-0.0117 0.001,-0.008 0.003,-0.0165 0.008,-0.0215 h 0.002 c -0.002,-0.0129 0.002,-0.0195 0.01,-0.0293 0.002,-0.004 0.005,-0.008 0.006,-0.0117 0.002,-0.009 -9.9e-4,-0.0136 0.006,-0.0215 0.002,-0.001 0.004,-0.0107 0.006,-0.0117 l 0.002,0.0117 c 0.001,-0.0124 -0.002,-0.002 0.002,-0.0156 0.001,-0.0144 0.002,-0.0308 0.002,-0.0449 0.0273,-0.007 0.0451,-0.0588 0.0547,-0.14453 5.6e-4,-0.002 0.001,-0.01 0.002,-0.0117 v -0.01 c 0.0469,-0.47055 -0.0916,-1.76825 -0.16993,-2.78906 -3.1e-4,-0.002 2.7e-4,-0.01 0,-0.0117 -9.8e-4,-0.007 -0.003,-0.0139 -0.004,-0.0215 -0.002,-0.01 -0.005,-0.0195 -0.006,-0.0293 -0.001,-0.009 -0.003,-0.0186 -0.004,-0.0273 -0.001,-0.009 -0.003,-0.0185 -0.004,-0.0274 -0.001,-0.009 9e-5,-0.0166 -0.002,-0.0254 -0.001,-0.009 -0.003,-0.0184 -0.004,-0.0273 -8.6e-4,-0.008 -0.001,-0.0171 -0.002,-0.0254 -9.2e-4,-0.009 -0.003,-0.0165 -0.004,-0.0254 -6.5e-4,-0.009 -0.001,-0.0187 -0.002,-0.0273 -5.8e-4,-0.008 6e-4,-0.017 0,-0.0254 -5.6e-4,-0.008 -0.001,-0.0156 -0.002,-0.0234 -6.1e-4,-0.008 -0.001,-0.0139 -0.002,-0.0215 -6.6e-4,-0.007 -0.003,-0.0144 -0.004,-0.0215 -7.4e-4,-0.007 -0.001,-0.0128 -0.002,-0.0195 -7.9e-4,-0.006 -0.001,-0.0112 -0.002,-0.0176 -8.9e-4,-0.006 -1e-5,-0.0113 -0.002,-0.0176 -6.2e-4,-0.004 -6e-5,-0.008 -0.002,-0.0117 -4.2e-4,-0.002 -0.001,-0.01 -0.002,-0.0117 -2.6e-4,-0.002 2e-4,-0.004 0,-0.006 -8.3e-4,-0.004 -0.001,-0.008 -0.002,-0.0117 -0.002,-0.007 -0.004,-0.0143 -0.006,-0.0215 -0.003,-0.0155 -0.007,-0.0293 -0.01,-0.0449 -0.003,-0.0157 -0.006,-0.0331 -0.01,-0.0488 -0.004,-0.0161 -0.006,-0.0308 -0.01,-0.0469 -0.004,-0.0163 -0.008,-0.0324 -0.0117,-0.0488 -0.004,-0.0168 -0.006,-0.034 -0.01,-0.0508 -0.003,-0.017 -0.007,-0.0338 -0.01,-0.0508 -0.003,-0.0175 -0.007,-0.0353 -0.01,-0.0527 -0.003,-0.0181 -0.006,-0.0366 -0.01,-0.0547 -0.004,-0.0187 -0.008,-0.0379 -0.0117,-0.0566 -0.004,-0.019 -0.006,-0.0376 -0.01,-0.0566 -0.004,-0.0192 -0.008,-0.0373 -0.0117,-0.0566 -0.004,-0.0192 -0.006,-0.0394 -0.01,-0.0586 -0.004,-0.0193 -0.008,-0.0373 -0.0117,-0.0566 -0.004,-0.0193 -0.006,-0.0393 -0.01,-0.0586 -0.004,-0.0192 -0.008,-0.0394 -0.0117,-0.0586 -0.004,-0.0186 -0.008,-0.0362 -0.0117,-0.0547 -0.004,-0.0187 -0.006,-0.0379 -0.01,-0.0566 l -0.0117,-0.0566 c -0.004,-0.0186 -0.006,-0.0362 -0.01,-0.0547 -0.004,-0.0184 -0.008,-0.0363 -0.0117,-0.0547 -0.004,-0.0179 -0.008,-0.0369 -0.0117,-0.0547 -0.004,-0.017 -0.006,-0.0338 -0.01,-0.0508 -0.004,-0.0166 -0.008,-0.0341 -0.0117,-0.0508 -0.004,-0.0159 -0.008,-0.0311 -0.0117,-0.0469 -0.004,-0.0154 -0.008,-0.0315 -0.0117,-0.0469 -0.004,-0.0153 -0.008,-0.0296 -0.0117,-0.0449 -0.004,-0.0149 -0.008,-0.03 -0.0117,-0.0449 -0.004,-0.0142 -0.008,-0.0288 -0.0117,-0.043 -0.004,-0.0132 -0.008,-0.026 -0.0117,-0.0391 -0.004,-0.0127 -0.007,-0.0264 -0.0117,-0.0391 -0.004,-0.0123 -0.007,-0.0249 -0.0117,-0.0371 -0.004,-0.0115 -0.008,-0.0217 -0.0117,-0.0332 -0.004,-0.0108 -0.008,-0.0224 -0.0117,-0.0332 -0.004,-0.01 -0.008,-0.0194 -0.0117,-0.0293 -0.004,-0.009 -0.006,-0.0181 -0.01,-0.0273 -0.003,-0.008 -0.008,-0.017 -0.0117,-0.0254 -0.004,-0.008 -0.006,-0.017 -0.01,-0.0254 -0.003,-0.008 -0.007,-0.0158 -0.01,-0.0234 -0.003,-0.007 -0.005,-0.0127 -0.008,-0.0195 -0.003,-0.007 -0.007,-0.0129 -0.01,-0.0195 -0.003,-0.006 -0.005,-0.013 -0.008,-0.0195 -0.003,-0.006 -0.005,-0.0119 -0.008,-0.0176 -0.003,-0.006 -0.005,-0.0118 -0.008,-0.0176 -0.002,-0.005 -0.006,-0.009 -0.008,-0.0137 -0.002,-0.005 -0.004,-0.009 -0.006,-0.0137 -0.002,-0.004 -0.004,-0.006 -0.006,-0.01 -0.002,-0.004 -0.002,-0.008 -0.004,-0.0117 -0.002,-0.004 -0.005,-0.007 -0.006,-0.0117 -3.6e-4,-0.001 2e-4,-0.003 0,-0.004 v -0.002 c -0.004,-0.007 -0.008,-0.0132 -0.0117,-0.0195 -0.004,-0.007 -0.01,-0.0129 -0.0137,-0.0195 -0.004,-0.006 -0.006,-0.0116 -0.01,-0.0176 -0.003,-0.005 -0.007,-0.0102 -0.01,-0.0156 -0.003,-0.004 -0.005,-0.01 -0.008,-0.0137 -9.6e-4,-0.002 -0.003,-0.002 -0.004,-0.004 -0.002,-0.002 -0.002,-0.006 -0.004,-0.008 -0.94221,-1.25695 -2.41717,-2.96296 -2.82617,-3.23047 -1.311,-0.85755 -1.79159,-1.63636 -3.75195,-2.19141 -2.97052,-0.55727 -3.59165,-0.0664 -7.08008,2.41602 -6.39283,4.54912 -14.74631,7.26758 -22.33008,7.26758 -9.25992,0 -16.96216,-3.83617 -26.33789,-13.11914 -5.12472,-5.07414 -6.70571,-6.52169 -8.64648,-6.69336 z m 221.82227,2.91015 c -3.30994,0 -7.19336,4.29539 -7.19336,7.95508 0,1.675 0.18795,3.04492 0.41796,3.04492 1.95385,0 3.58204,-1.62088 3.58204,-3.5664 0,-1.2939 1.2314,-3.49532 2.73828,-4.89258 2.71077,-2.51357 2.71608,-2.54102 0.45508,-2.54102 z m 7.77539,3 c -1.45756,0 -7.48243,4.61936 -7.48243,5.35352 0,0.37735 -0.0613,-0.0387 -1.98632,1.94336 -1.925,1.98211 -3.5,4.02513 -3.5,4.53906 0,0.53407 2.70381,0.71746 6.3125,0.42773 9.7461,-0.78227 15.42996,3.11743 18.7246,12.84961 1.99049,5.87972 1.39069,9.09134 -2.73828,14.65235 -6.31634,8.507 -27.84317,13.92499 -34.43554,7.95898 -1.86368,-0.51177 -2.01637,-1.05976 -3.91993,-2.72461 -0.43728,-0.38245 -1.9408,-1.99835 -3.02148,-4.4414 -1.46095,-3.30271 -1.79712,-5.54681 -1.31055,-8.75 1.04052,-6.8501 5.37394,-14.68444 10.6211,-19.20313 5.13329,-4.42064 5.76572,-5.60547 2.99804,-5.60547 -5.66514,0 -15.13617,12.40602 -17.25195,22.59766 -1.35069,6.50625 0.0463,12.68774 3.75195,16.60742 2.48504,2.62858 2.50936,2.78103 0.83789,5.33203 -0.94615,1.44401 -1.47531,3.26435 -1.17578,4.04492 0.91991,2.39726 2.98959,1.576 5.56641,-2.20703 1.3532,-1.98663 1.11518,-3.18375 1.32031,-2.56836 0.24151,0.72451 5.36858,1.19336 11.76563,1.19336 15.26855,0 25.19375,-4.66741 30.01367,-14.11523 5.83129,-11.43027 -2.63331,-27.3927 -15.55273,-29.33008 -2.47837,-0.37166 -5.18752,-0.83006 -5.1875,-1.38867 0,-0.5586 1.99581,-2.6345 3.60351,-4.24219 1.60769,-1.6077 2.52869,-2.92383 2.04688,-2.92383 z m -3.54688,17.97852 c -1.54147,-0.005 -3.83809,0.86071 -5.12305,2.27148 -2.31201,2.53838 -3.3164,6.09158 -3.3164,7.68555 0,0.58616 -0.0824,1.96445 1.01758,3.06445 2.32206,2.32206 2.65171,2.36583 6.85546,0.90039 3.20362,-1.11678 4.68518,-3.95945 3.94532,-7.57031 -0.28518,-1.39184 -2.64002,-1.7889 -4.44336,-0.67383 -2.46748,0.99305 -2.72485,-0.90825 -0.91797,-2.23242 1.06762,-0.7824 2.30512,-1.42383 2.75,-1.42383 0.44488,0 0.81055,-0.45 0.81055,-1 0,-0.70263 -0.65324,-1.01836 -1.57813,-1.02148 z m -15.55078,1.72656 c -0.25685,-0.0141 -0.52897,-0.0214 -0.81055,0.01 -1.87707,0.1342 -4.19997,1.0082 -5.61328,2.33593 -2.88624,2.71149 -3.30869,8.27429 -0.89062,11.72657 2.08907,2.98256 5.96774,2.8769 7.99609,-0.21875 3.18802,-4.86553 -0.12268,-9.84608 -3.98047,-5.98828 -2.07514,2.07514 -2.59712,1.61063 -1.48828,-1.32032 0.57764,-1.52686 1.67439,-2.25 3.41406,-2.25 2.40348,0 4.45604,-2.37794 3.16602,-3.66797 -0.38426,-0.38425 -1.02243,-0.58477 -1.79297,-0.62695 z m 15.05273,6.20508 0.0156,0.26953 c 0.23101,0.18695 0.21347,0.4371 0.0312,0.55664 l 0.0293,0.51758 c 0.12086,2.14496 -1.61655,2.84089 -3.0879,2.33203 -0.88824,-0.54899 -0.95735,-1.20244 0.0273,-2.46094 -0.0383,-0.16648 0.06,-0.37859 0.36523,-0.51562 0.0523,-0.0235 0.0251,-0.0106 0.0801,-0.0352 0.01,-0.004 0.0197,-0.008 0.0293,-0.0117 0.0756,-0.0845 0.13744,-0.16063 0.2207,-0.25 l 0.67578,-0.11914 c 0.0162,-0.007 0.0329,-0.0138 0.0488,-0.0215 0.0491,-0.023 0.0985,-0.0452 0.14844,-0.0664 0.0489,-0.0202 0.0987,-0.0407 0.14844,-0.0586 0.0532,-0.0187 0.10527,-0.0355 0.16015,-0.0488 0.0534,-0.0128 0.10758,-0.0246 0.16211,-0.0312 0.0521,-0.007 0.10375,-0.0113 0.15625,-0.0137 0.0558,-0.002 0.11231,-0.003 0.16797,0.002 0.0449,0.005 0.0903,0.0112 0.13477,0.0195 0.0184,0.003 0.0364,0.008 0.0547,0.0117 z m -66.8457,0.42969 c -3.88172,0.0795 -8.38968,2.16596 -11.75586,6.35351 -1.83488,0.9907 -5.18035,5.43631 -4.56836,11.30664 0.6696,6.42292 1.7487,8.27367 4.41602,11.15625 1.67948,2.08928 5.04209,4.1108 6.91797,5.04688 1.87588,0.93608 4.43819,1.7236 5.69336,1.75 3.55434,0.0748 9.19705,-2.66202 11.5664,-5.60938 3.8462,-4.78451 4.57924,-6.75478 4.61524,-12.39258 0.0597,-9.34458 -5.97899,-16.27549 -15.26563,-17.52148 -0.52378,-0.0703 -1.06461,-0.10344 -1.61914,-0.0898 z m 50.30664,3.12695 c 0.56225,0.009 0.69756,0.44831 0.4082,0.65039 0.004,0.016 0.008,0.0312 0.01,0.0508 0.002,0.021 0.003,0.0435 0.004,0.0645 10e-4,0.0234 0.001,0.0469 0.002,0.0703 0.001,0.041 -5.2e-4,0.0803 -0.004,0.12109 -0.004,0.0507 -0.0147,0.10115 -0.0273,0.15039 -0.0119,0.0419 -0.026,0.0841 -0.041,0.125 -0.0143,0.039 -0.0306,0.0771 -0.0469,0.11524 -0.0187,0.0433 -0.0396,0.0848 -0.0605,0.12695 -0.009,0.0167 -0.0186,0.0324 -0.0273,0.0488 -6.5e-4,0.0175 0.002,0.0351 0,0.0527 -0.006,0.0467 -0.0142,0.0949 -0.0254,0.14063 -0.0136,0.0544 -0.0281,0.10796 -0.0488,0.16015 -0.023,0.0575 -0.0496,0.11402 -0.0801,0.16797 -0.0317,0.0565 -0.0648,0.11075 -0.10156,0.16406 -0.0405,0.0584 -0.0825,0.11608 -0.12891,0.16993 -0.0448,0.0515 -0.0907,0.10182 -0.14062,0.14843 -0.0351,0.033 -0.0722,0.0645 -0.10938,0.0957 -0.005,0.009 -0.0103,0.0183 -0.0156,0.0273 -0.0313,0.0523 -0.0632,0.10467 -0.0957,0.15625 -0.0344,0.0537 -0.0708,0.10732 -0.10937,0.1582 -0.0349,0.0471 -0.0704,0.0932 -0.10742,0.13868 -0.0398,0.0481 -0.0807,0.0945 -0.125,0.13867 -0.0374,0.0376 -0.0751,0.0765 -0.11328,0.11328 -0.0433,0.0413 -0.0867,0.0814 -0.13477,0.11719 -0.0425,0.0324 -0.0858,0.0653 -0.13086,0.0937 -0.0452,0.0288 -0.0908,0.0558 -0.13867,0.0801 -0.0385,0.019 -0.0777,0.0378 -0.11719,0.0547 -0.0463,0.0199 -0.092,0.0372 -0.14062,0.0508 -0.042,0.0117 -0.084,0.0239 -0.12696,0.0312 -0.0473,0.008 -0.0965,0.0127 -0.14453,0.0137 -0.055,5.9e-4 -0.11004,-0.002 -0.16406,-0.0137 -0.0641,-0.0137 -0.12736,-0.0317 -0.18555,-0.0625 -0.0564,-0.0307 -0.1104,-0.0662 -0.1582,-0.10937 -0.0502,-0.0473 -0.0968,-0.0983 -0.13477,-0.15625 -0.0354,-0.0558 -0.0662,-0.1139 -0.0898,-0.17578 -0.0225,-0.0576 -0.0423,-0.11549 -0.0566,-0.17578 -0.0161,-0.0701 -0.0277,-0.14088 -0.0293,-0.21289 -0.002,-0.0659 -5.9e-4,-0.13164 0.006,-0.19727 0.007,-0.0739 0.0167,-0.14861 0.0352,-0.2207 0.0196,-0.0732 0.0425,-0.14503 0.0723,-0.21485 0.0298,-0.0697 0.062,-0.13914 0.0996,-0.20508 0.036,-0.0632 0.0747,-0.12509 0.11524,-0.18554 0.0401,-0.0597 0.0797,-0.1184 0.12305,-0.17578 0.0421,-0.0551 0.0864,-0.10888 0.13085,-0.16211 0.0434,-0.0521 0.0869,-0.10438 0.13282,-0.1543 0.0434,-0.0482 0.0882,-0.0956 0.13281,-0.14258 0.0435,-0.0455 0.0865,-0.0901 0.13086,-0.13476 0.0432,-0.0435 0.0869,-0.088 0.13086,-0.13086 0.0414,-0.04 0.0835,-0.0792 0.125,-0.11914 0.0424,-0.0403 0.0839,-0.0816 0.12695,-0.1211 0.0426,-0.0386 0.0855,-0.0776 0.12891,-0.11523 0.0451,-0.0381 0.0917,-0.0736 0.13867,-0.10938 0.0405,-0.03 0.08,-0.0587 0.12109,-0.0879 0.0398,-0.0286 0.0808,-0.0579 0.1211,-0.0859 0.0417,-0.0282 0.0837,-0.0562 0.12695,-0.082 0.0415,-0.0243 0.0838,-0.0471 0.12695,-0.0684 0.0373,-0.019 0.0732,-0.0393 0.11133,-0.0566 0.0395,-0.018 0.08,-0.0346 0.1211,-0.0488 0.0345,-0.012 0.0702,-0.0237 0.10546,-0.0332 0.0343,-0.009 0.0684,-0.0175 0.10352,-0.0234 0.0302,-0.005 0.0593,-0.0113 0.0898,-0.0137 0.0268,-0.002 0.0532,-0.002 0.0801,-0.002 z m 13.90625,8.5332 c -3.52795,0 -5.83922,0.68825 -8.58594,2.55469 -2.0669,1.4045 -3.49356,2.9795 -3.17187,3.5 0.89595,1.44968 2.40334,1.14064 5.20898,-1.06641 1.40698,-1.10673 4.30022,-2.29049 6.42969,-2.63085 5.64792,-0.90317 5.72162,-2.35743 0.11914,-2.35743 z m -271.406251,1 c -1.58741,0 -2.95023,5.01783 -3.58008,13.18555 -0.33146,4.29828 -0.81656,7.81445 -1.08008,7.81445 -0.26327,0 -3.72789,-1.79215 -7.69921,-3.98437 -3.97133,-2.19222 -7.51417,-3.69287 -7.87305,-3.33399 -1.28525,1.28525 -0.55274,4.93044 2.37305,11.79102 1.63512,3.83414 2.97556,7.20914 2.97656,7.5 10e-4,0.29087 -2.72966,0.37371 -6.06641,0.18555 -7.02381,-0.39606 -10.93554,0.36062 -10.93554,2.11328 0,0.67769 3.63763,4.38113 8.08398,8.23047 l 8.08398,6.99804 -4.08398,3.52735 c -5.69927,4.922 -5.50579,7.45981 0.66602,8.74609 6.86514,1.43078 9.85701,1.40624 11.10351,-0.0957 1.73522,-2.09081 -0.66083,-3.67774 -5.55469,-3.67774 -2.365,0 -4.29882,-0.20776 -4.29882,-0.46289 0,-0.25513 1.83327,-2.17529 4.07421,-4.26562 l 4.07422,-3.79883 -4.32422,-4.1875 c -2.37844,-2.30239 -5.44921,-5.09233 -6.82421,-6.20117 l -2.5,-2.01758 6.78125,-0.0332 c 4.82906,-0.0237 6.93428,-0.4304 7.3125,-1.41602 0.29212,-0.76125 -0.85178,-4.43265 -2.54102,-8.1582 -1.68925,-3.72556 -2.90009,-6.94563 -2.69141,-7.1543 0.20868,-0.20868 2.93793,1.02526 6.06641,2.74219 7.52179,4.12801 8.56674,3.60901 8.58594,-4.26563 0.0233,-9.57883 1.13673,-10.03553 5.22656,-2.15039 1.93761,3.73572 4.00341,6.95101 4.58984,7.14649 0.58643,0.19548 2.55138,-1.91684 4.36719,-4.69336 1.81582,-2.77651 3.55551,-5.05446 3.86524,-5.06446 0.30972,-0.01 0.67306,2.11797 0.80664,4.73047 0.28157,5.5071 1.51371,7.34534 3.49218,5.20703 1.08425,-1.17185 1.14957,-3.17019 0.33204,-10.20703 -1.27082,-10.93773 -2.7595,-11.42333 -8.16602,-2.66406 -2.066,3.34718 -4.10206,5.70968 -4.52539,5.25 -0.42333,-0.45968 -2.66335,-4.54844 -4.97656,-9.08594 -2.31321,-4.5375 -4.62638,-8.25 -5.14063,-8.25 z m 154.970701,4.22461 c -0.44832,0.0111 -0.91033,0.0748 -1.38281,0.19336 -3.8452,0.96508 -5.03137,4.52398 -3.60742,10.83008 2.03112,8.995 9.0956,14.75195 18.10156,14.75195 2.21767,0 4.0332,0.17107 4.0332,0.37891 0,0.38769 -2.18169,5.78982 -4.49023,11.12109 -1.62777,3.7591 -3.80879,10.81948 -6.33203,20.5 -3.98656,15.29464 -7.38148,37.0711 -6.16016,65.29297 l 0.66797,15.41797 1.14258,5.60742 2.04297,3.55664 c 5.02607,3.51261 8.32093,1.55757 11.20508,-0.79687 2.47595,-2.47595 2.93232,-3.73791 2.98242,-8.25 0.16065,-14.47619 0.97808,-39.12556 1.51172,-45.57813 0.55642,-6.72811 0.76476,-7.25 2.90234,-7.25 1.87517,0 2.42965,0.69716 2.97852,3.75 2.76506,15.37952 17.11303,52.42051 22.46679,58 4.96214,5.17134 15.08204,0.59392 15.08204,-6.82226 0,-1.77454 -2.30021,-8.2209 -5.11133,-14.32617 -8.93722,-19.40991 -15.08691,-40.25648 -15.22071,-51.60157 -0.0665,-5.63785 0.5544,-9.36215 2.49805,-15 2.58218,-7.48998 5.8999,-16.17189 6.44727,-16.86914 0.15927,-0.20287 2.20515,1.27068 4.54492,3.27344 2.33978,2.00276 6.4722,4.30026 9.18359,5.10547 4.52627,1.34416 5.27224,1.31213 9.11719,-0.38867 2.3033,-1.01886 5.62094,-3.37508 7.37305,-5.23633 3.732,-3.96446 8.62814,-16.09054 9.59375,-23.76367 0.59373,-4.71806 0.40317,-5.67219 -1.54883,-7.75 -4.56796,-4.86237 -8.72541,-1.85683 -11.24024,8.1289 -2.25746,8.96378 -5.26178,15.2465 -7.65429,16.00586 -2.89347,0.91835 -7.31144,-1.89904 -12.50196,-7.97461 -2.59445,-3.03683 -9.50198,-9.11662 -15.34961,-13.50976 -8.77583,-6.59301 -11.27568,-7.99021 -14.32226,-8.00391 -2.03004,-0.009 -7.04892,1.9867 -7.36133,2.49219 -1.99775,0.79037 -6.52084,1.35691 -10.23437,0.77148 -2.91269,-0.45917 -3.4229,-1.03181 -4.49415,-5.03711 -1.22564,-4.58256 -3.72499,-7.09756 -6.86328,-7.01953 z"
     style="fill:#000000"
     id="path20" />
</svg>
