<?xml version="1.0" encoding="utf-8"?>
<!-- Generator: Adobe Illustrator 19.2.1, SVG Export Plug-In . SVG Version: 6.00 Build 0)  -->
<svg version="1.1" fill="#ed7d31" id="Sertificat" xmlns="http://www.w3.org/2000/svg" xmlns:xlink="http://www.w3.org/1999/xlink" x="0px" y="0px"
	 viewBox="0 0 400 400" style="enable-background:new 0 0 400 400;" xml:space="preserve">
<style type="text/css">
	.st0{fill:none;stroke:#ed7d31;stroke-width:10;stroke-miterlimit:10;}
</style>
<g>
	<circle class="st0" cx="200" cy="200" r="132"/>
	<path d="M200.6,111.2c8.3,30.8,16.6,61.6,25.1,92.8c22-8.4,43.5-16.6,64.9-24.8c0.5,0.7,0.4,0.6,0.9,1.3L200,288.8
		c-31.1-36.8-61.7-73.7-92.5-110.1c0-0.1,0-0.1,0.1-0.1c21.9,8.4,43.9,16.7,66.6,25.4c8.4-31.2,16.7-62,25.1-92.8
		C200,111.2,199.9,111.2,200.6,111.2z M285.4,185.8c-1.7,0.5-55.3,39.1-81.6,58.4c-1.8,1.3-3.2,4.3-3.3,6.5c-0.3,10-0.2,20-0.1,30
		c0,1.2,0,3,0.2,5.5C229,252.7,257.1,219.4,285.4,185.8z M200.7,242.5c1.4-1.6,2.2-2.3,2.7-3.2c6.4-10.3,12.8-20.6,18.9-31.1
		c1.2-2,1.6-5.1,1.1-7.3c-6.8-26-13.8-51.9-20.8-77.8c-0.3-1-1-2-1.9-3.8C200.7,160.8,200.7,201.1,200.7,242.5z M114.6,182.7
		c-0.2,0.3,54.4,40,80.5,59c-2-5.5-4.8-10.2-7.7-14.8c-4.3-6.9-7.3-15.3-13.3-20.3c-5.9-5-14.7-6.5-22.2-9.6
		c-0.2-0.1-0.3-0.2-0.4-0.2C140.1,192.4,126,187,114.6,182.7z"/>
</g>
</svg>
