<?xml version="1.0" encoding="utf-8"?>
<!-- Generator: Adobe Illustrator 16.0.0, SVG Export Plug-In . SVG Version: 6.00 Build 0)  -->
<!DOCTYPE svg PUBLIC "-//W3C//DTD SVG 1.1//EN" "http://www.w3.org/Graphics/SVG/1.1/DTD/svg11.dtd">
<svg version="1.1"
	 id="Слой_1" xmlns:cc="http://creativecommons.org/ns#" xmlns:dc="http://purl.org/dc/elements/1.1/" xmlns:rdf="http://www.w3.org/1999/02/22-rdf-syntax-ns#"
	 xmlns="http://www.w3.org/2000/svg" xmlns:xlink="http://www.w3.org/1999/xlink" x="0px" y="0px" width="auto" 
	 viewBox="0 0 134 142.552" enable-background="new 0 0 134 142.552" xml:space="preserve">
<path d="M102.783,139.33c-4.776-4.775-3.281-9.148,3.129-9.148c7.116,0,7.403-1.557,1.789-9.695
	c-11.82-17.143-19.843-21.51-19.843-10.803c0,3.291-3.039,9.379-6.751,13.535c-8.926,9.992-23.536,11.012-32.821,2.287
	c-5.212-4.895-6.165-7.904-6.165-19.461v-13.67l-11.434,1.063C15.256,94.869,6.539,91.105,2.412,81.23
	c-3.802-9.1-2.618-16.584,4.167-26.321c5.33-7.647,19.44-14.327,28.301-13.397c7.731,0.811,12.763-2.298,11.028-6.816
	c-2.337-6.087,7.64-24.1,16.314-29.463c25.471-15.742,45.967,6.249,34.006,36.487c-1.363,3.445-0.354,4.212,5.538,4.212
	c20.515,0,33.089,18.834,23.776,35.613c-3.159,5.693-14.022,12.531-19.907,12.531c-5.958,0-3.547,4.244,6.69,11.773
	c7.113,5.23,11.665,6.965,15.646,5.967c4.443-1.117,5.619-0.432,5.619,3.266c0,6.699-1.846,7.705-9.892,5.398
	c-7.081-2.031-7.113-1.996-5.563,6.266C120.508,139.383,110.795,147.342,102.783,139.33L102.783,139.33z M71.367,122.768
	c6.268-3.352,11.839-16.713,9.963-23.891c-0.804-3.072-5.665-9.918-10.806-15.217l-9.344-9.628l-4.114,5.745
	c-5.947,8.311-10.226,28.174-7.574,35.152C52.746,123.486,63.098,127.195,71.367,122.768L71.367,122.768z M50.348,75.245
	c9.516-10.836,9.342-14.579-1.006-21.601c-11.063-7.512-24.411-6.118-33.933,3.543C2.371,70.417,4.615,83.219,20.573,86.637
	C31.828,89.049,41.464,85.363,50.348,75.245L50.348,75.245z M116.141,81.261c5.309-4.779,7.085-14.669,3.572-19.924
	c-5.802-8.692-29.177-11.066-38.475-3.908l-5.413,4.167l8.528,12.027C95.873,89.859,104.331,91.893,116.141,81.261L116.141,81.261z
	 M77.023,51.042c12.609-7.278,19.381-27.336,13.155-38.967c-1.802-3.365-5.059-4.657-11.754-4.657
	c-7.71,0-10.684,1.571-17.729,9.369c-9.967,11.034-11.333,23.055-3.716,32.738C62.473,56.509,66.962,56.849,77.023,51.042
	L77.023,51.042z"/>
</svg>