<?xml version="1.0" encoding="utf-8"?>
<!-- Generator: Adobe Illustrator 16.0.0, SVG Export Plug-In . SVG Version: 6.00 Build 0)  -->
<!DOCTYPE svg PUBLIC "-//W3C//DTD SVG 1.1//EN" "http://www.w3.org/Graphics/SVG/1.1/DTD/svg11.dtd">
<svg version="1.1"
   id="svg2" xmlns:cc="http://creativecommons.org/ns#" xmlns:dc="http://purl.org/dc/elements/1.1/" xmlns:rdf="http://www.w3.org/1999/02/22-rdf-syntax-ns#" xmlns:svg="http://www.w3.org/2000/svg"
   xmlns="http://www.w3.org/2000/svg" xmlns:xlink="http://www.w3.org/1999/xlink" x="0px" y="0px" width="auto"
   viewBox="0 0 117.923 103.719" enable-background="new 0 0 117.923 103.719" xml:space="preserve">
<path id="path12" d="M64.323,103.101c-2.035-1.357-3.125-4.693-3.81-11.654c-0.91-9.251-4.124-16.789-6.985-16.381
  c-2.813,0.402-3.292,5.434-1.073,11.245c2.351,6.156,1.36,8.556-3.532,8.556c-4.703,0-5.578-1.82-3.962-8.237
  c1.469-5.834,0.937-11.156-1.156-11.552c-2.041-0.387-5.755,7.222-6.823,13.974c-0.975,6.171-3.451,9.011-7.509,8.614
  c-2.305-0.226-3.13-0.857-3.375-2.584c-0.373-2.628,3.762-10.309,7.935-14.742c2.742-2.913,5.028-9.473,3.302-9.473
  c-0.461,0-1.788,1.191-2.949,2.648c-1.749,2.192-2.443,2.462-4.038,1.563c-1.422-0.801-1.926-2.181-1.926-5.274
  c0-2.907-0.539-4.533-1.761-5.313c-1.501-0.958-2.583-0.201-7.33,5.126c-3.063,3.438-6.198,6.25-6.966,6.25
  c-0.768,0-2.135-1.127-3.038-2.505c-2.09-3.19-0.79-4.999,5.595-7.78c6.124-2.669,8-4.515,8-7.87c0-4.188-1.876-3.533-7.602,2.647
  c-4.055,4.378-5.733,5.508-8.177,5.508c-6.024,0-9.536-8.685-5.246-12.975c2.188-2.188,3.113-2.444,14.303-3.965
  c8.958-1.217,14.723-3.328,14.723-5.393c0-1.536-2.911-2.632-7.05-2.654c-2.99-0.016-4.95-1.685-4.95-4.214c0-2.4,3.05-2.324,8,0.2
  c4.649,2.372,6.345,2.494,7.94,0.572c1.728-2.081-0.881-6.569-6.489-11.165c-5.717-4.685-7.452-7.98-7.452-14.157
  c0-5.039,1.233-7.25,4.045-7.25c2.897,0,4.813,3.354,5.938,10.392c0.603,3.773,1.758,8.14,2.567,9.705
  c1.48,2.861,5.146,5.541,6.174,4.514c0.304-0.305,0.662-4.713,0.795-9.797c0.179-6.796-0.178-10.128-1.349-12.583
  c-1.74-3.648-0.871-6.453,2.187-7.054c1.373-0.27,1.643,0.634,1.644,5.5c0,3.401,0.832,8.012,2,11.084c1.1,2.894,2,6.156,2,7.25
  c0,2.943,4.522,2.648,6.537-0.427c2.132-3.254,4.17-3.876,7.407-2.261c1.766,0.88,3.503,1.056,4.996,0.504
  c2.135-0.791,2.241-1.219,1.59-6.428C66.294,5.987,69.578,1.559,76.356,3.26c3.498,0.878,3.929,3.626,1.606,10.234
  c-2.516,7.158-2.56,9.592-0.211,11.717c2.522,2.283,3.363,2.109,6.714-1.389c3.804-3.971,7.803-3.799,8.28,0.354
  c0.406,3.546-1.227,5.528-6.465,7.852c-5.013,2.223-6.026,4.256-3.131,6.284c3.075,2.153,6.238,1.066,14.274-4.908
  c8.857-6.585,10.673-7.538,14.363-7.538c3.576,0,6.137,2.274,6.137,5.449c0,3.419-2.019,4.511-8.07,4.366
  c-4.263-0.102-6.747,0.539-11.554,2.979c-3.369,1.709-6.397,3.818-6.73,4.688c-0.375,0.977,0.531,2.768,2.374,4.697
  c3.627,3.795,3.689,4.807,0.48,7.821c-1.375,1.292-2.5,3.16-2.5,4.151c0,3.011,4.448,5.171,9.479,4.604
  c7.276-0.82,11.411,3.813,11.811,13.236c0.448,10.545-6.726,10.198-9.829-0.476c-1.72-5.917-4.906-9.056-10.285-10.131
  c-2.468-0.494-3.288-0.146-4.688,1.99c-1.665,2.541-1.609,2.736,2.907,10.325c4.716,7.925,5.512,10.99,3.403,13.099
  c-1.559,1.56-5.469,1.544-6.439-0.024c-0.416-0.674-1.084-3.639-1.485-6.589c-0.898-6.622-3.157-9.393-7.325-8.985
  c-2.807,0.275-3.075,0.631-3.354,4.463c-0.531,7.289-4.864,6.612-8.25-1.29c-2.05-4.781-2.976-5.592-4.979-4.354
  c-2.217,1.371-1.569,7.732,1.528,14.996C68.25,99.869,68.205,105.688,64.323,103.101L64.323,103.101z"/>
</svg>