<?xml version="1.0" encoding="UTF-8"?>
<!-- Created with Inkscape (http://www.inkscape.org/) -->
<svg width="500" height="500" version="1.1" viewBox="0 0 500 500" xmlns="http://www.w3.org/2000/svg" xmlns:cc="http://creativecommons.org/ns#" xmlns:dc="http://purl.org/dc/elements/1.1/" xmlns:rdf="http://www.w3.org/1999/02/22-rdf-syntax-ns#">
 <metadata>
  <rdf:RDF>
   <cc:Work rdf:about="">
    <dc:format>image/svg+xml</dc:format>
    <dc:type rdf:resource="http://purl.org/dc/dcmitype/StillImage"/>
    <dc:title/>
   </cc:Work>
  </rdf:RDF>
 </metadata>
 <path d="m124.41 409.82c0-0.53948-1.148-0.98087-2.551-0.98087-4.2467 0-5.7897-5.4045-5.5503-19.441 0.0846-4.9627 0.30717-5.674 1.3513-4.3192 0.6875 0.89208 2.15 1.7656 3.25 1.9411 1.737 0.27718 1.9883-0.21802 1.9108-3.7661-0.049-2.2469-0.42026-4.621-0.82491-5.2757-0.40465-0.65473-0.99133-3.667-1.3037-6.694-0.31242-3.027-0.95371-5.742-1.4251-6.0333-0.47139-0.29134-0.82544-2.8656-0.78678-5.7207 0.0517-3.8225 0.29685-4.6637 0.92971-3.191 0.47269 1.1 0.89106 3.4359 0.92971 5.191 0.0387 1.755 0.46568 3.4354 0.94894 3.734s1.1515 3.1377 1.485 6.309c0.98566 9.3734 3.078 21.676 3.9027 22.947 0.42147 0.6495 0.30897 1.4636-0.25 1.809s-1.0163 1.2766-1.0163 2.0691c0 1.6275 3.5516 1.9756 4.5 0.44098 0.93407-1.5114 2.5-1.1982 2.5 0.5 0 1.7944 3.1112 1.9888 4.8 0.3 0.93333-0.93333 1.2-0.93333 1.2 0 0 0.66-0.45 1.2-1 1.2s-1 0.95412-1 2.1203c0 1.9737 0.4024 2.0864 5.8201 1.6298 5.4203-0.45679 11.657-1.9922 15.18-3.7371 1.1613-0.57521 1.5249-2.8622 1.6103-10.128 0.0606-5.1617-0.25564-9.8555-0.70283-10.431-1.1632-1.4959-2.6934-23.454-1.8493-26.538 0.38891-1.4212 0.27439-3.3573-0.25449-4.3024-0.6225-1.1124-0.60833-2.144 0.0402-2.9254 1.6352-1.9704-0.12198-94.471-1.8562-97.711-1.793-3.3502-2.3072-29.93-0.95166-49.194 0.70759-10.056 1.3265-23.233 1.3753-29.283 0.0755-9.3547-0.13558-10.927-1.4112-10.509-0.825 0.26995-6.4628 0.45086-12.529 0.40201-8.2695-0.0666-11.947-0.52464-14.7-1.8309-2.0192-0.95815-4.0675-1.4972-4.5519-1.1978-0.48438 0.29937-1.7243 2.5899-2.7553 5.0901-1.0311 2.5002-2.2324 4.5458-2.6696 4.5458-0.73553 0-1.3518-8.9461-0.92744-13.463 0.31271-3.3287 4.2052-6.6737 7.0888-6.0917 1.399 0.28233 4.9195-0.31269 7.8234-1.3223 2.9039-1.0096 11.939-6.5872 12.23-6.1162s-6.5935 5.9934-7.451 5.9934-1.559 0.675-1.559 1.5c0 0.83333 0.88889 1.5 2 1.5 1.1 0 2 0.45 2 1s-0.45 1-1 1-1 0.9-1 2 0.62252 2 1.3834 2 1.5942 0.80627 1.8519 1.7917c0.40077 1.5325 1.2494 1.7134 5.8666 1.25 4.5194-0.45354 5.3475-0.83864 5.0872-2.3659-0.46919-2.7532 1.683-4.6758 5.234-4.6758 5.127 0 8.5601-2.0797 8.5691-5.191 9e-3 -3.0928-1.5246-4.3723-4.7422-3.9566-1.2375 0.15989-2.25-0.14042-2.25-0.66736 0-1.3185 6.3507-2.1641 7.1262-0.94879 0.36321 0.56914 2.3251 0.69432 4.6707 0.29804 3.6991-0.62497 4.0725-0.48657 4.3737 1.6211 0.21876 1.5308 1.3364 2.6333 3.3293 3.2844 1.65 0.53899 3.1318 1.0548 3.2929 1.1463 0.16107 0.0915-0.48208 1.7914-1.4292 3.7776-0.94715 1.9862-1.4501 3.8832-1.1177 4.2156 0.89153 0.89154 7.9266-1.8652 8.487-3.3257 0.5544-1.4448 7.976-2.5708 7.976-1.1812 0 1.6348-7.7858 4.9276-9.8502 4.9276-1.0991 0-3.9606 1.35-6.3588 3s-4.8114 3-5.3628 3c-1.3281 0-2.4542 3.6782-1.566 5.1152 0.7627 1.2341 12.421 0.46025 15.324-1.0172 0.88239-0.44901 3.0439-1.0889 4.8033-1.422l3.199-0.60564-0.42964 10.715c-1.5833 39.484-1.0764 70.74 1.4874 91.715 0.53782 4.4 1.2143 10.313 1.5034 13.14 0.46428 4.5407 1.1162 32.723 1.9445 84.056 0.18801 11.652 0.63313 16.644 1.5865 17.792 1.0037 1.2094 1.0443 1.8775 0.16752 2.7543-2.8355 2.8355-0.0345 15.758 3.4156 15.758 1.6893 0 1.8826-2.1442 0.33298-3.6938-0.60158-0.60158-0.89741-1.9291-0.65739-2.95 0.36779-1.5644 0.61081-1.4335 1.5459 0.83298 1.8703 4.5332 4.7316 5.2456 19.884 4.9506 10.158-0.1978 10.316-0.43914 10.216-15.643-0.0447-6.8117 0.15372-12.765 0.441-13.23 0.28729-0.46483 0.83857-6.0024 1.2251-12.306s0.87752-13.036 1.0912-14.961 0.57628-5.975 0.80585-9c0.22958-3.025 0.81096-9.325 1.292-14 0.48101-4.675 0.5318-20.2 0.11287-34.5-1.075-36.696-1.1354-42.669-0.45967-45.5 1.4747-6.1788 2.6625-25.788 2.3926-39.5-0.1624-8.25-0.22483-20.137-0.13874-26.415 0.11469-8.3641-0.20064-11.772-1.1798-12.751-1.0201-1.0201-1.0923-2.1052-0.30507-4.5851 1.3391-4.2185 1.2428-6.5444-0.35042-8.4642-0.71008-0.8556-1.3418-2.0571-1.4038-2.6701-0.062-0.61295-0.1813-1.6855-0.26508-2.3835-0.15611-1.3007-4.5854-0.7653-6.6523 0.80413-1.1825 0.89791-10.264 1.9828-16.17 1.9317-2.2933-0.0199-4.4573 0.4295-4.809 0.99856-0.98979 1.6015-6.1918 1.2214-7.9976-0.58439-0.89048-0.89047-1.8937-1.3444-2.2294-1.0087-0.3357 0.3357-1.1546 0.15872-1.8197-0.39329-1.6917-1.404-3.8645 1.4224-3.1611 4.1121 0.71506 2.7344 0.70041 11.758-1.1097 11.758-1.0681 0-2.1539-7.6859-1.7483-10.099 1.809-10.765 2.3412-15.811 1.8609-17.648-0.35413-1.3542 0.0168-2.2929 1.0652-2.6952 0.8847-0.33949 2.5884-2.3607 3.786-4.4916 3.0663-5.4558 10.832-7.8622 10.832-3.3565 0 1.6275 3.5516 1.9756 4.5 0.44098 0.33992-0.55 1.4915-1 2.559-1 2.1105 0 2.6477-2.4452 0.78949-3.5936-1.4117-0.87248 1.7033-3.4064 4.1876-3.4064 0.90964 0 2.4684-0.9 3.4639-2 1.8968-2.096 5.5-2.7349 5.5-0.97525 0 0.56361 1.0893 1.4389 2.4207 1.9451 1.7853 0.67877 2.2809 1.4551 1.888 2.9574-0.40656 1.5547 0.14498 2.3065 2.3293 3.1748 2.9709 1.181 28.966 1.6271 30.077 0.51611 1.1268-1.1268 4.3391-0.64029 4.8678 0.73731 0.28608 0.74552-0.45572 3.0095-1.6485 5.031-1.8503 3.1361-2.3352 3.4478-3.3033 2.1237-1.2306-1.683-6.1181-2.294-8.8016-1.1004-1.2612 0.56101-1.7512 0.17313-2-1.5834-0.30518-2.1542-0.82065-2.3351-6.9641-2.4435-8.996-0.15872-13.613-1.1361-16.921-3.5824-3.3913-2.5073-5.4174-2.1026-13.315 2.6594-3.2291 1.947-6.3154 3.5401-6.8584 3.5401s-0.72416 1.0482-0.4026 2.3294c0.50928 2.0292 0.1043 2.4481-3.1416 3.25-2.7514 0.67972-3.8098 1.5088-4.0456 3.169-0.46924 3.3038 3.484 4.3906 15.18 4.1733 10.563-0.19623 18.776-1.8329 21.49-4.2824 0.90719-0.81879 4.2281-2.8439 7.3798-4.5002 5.7899-3.0428 8.6445-2.6903 4.7321 0.58435-7.3915 6.1866-7.2829 5.9819-6.4189 12.099 0.44109 3.1229 0.83673 10.174 0.87921 15.669l0.0772 9.9912 4.6258 0.20531c5.958 0.26444 12.856-4.2912 12.906-8.5242 0.0298-2.4928 0.12116-2.5456 1.4266-0.82279 1.034 1.3646 1.9958 1.6372 3.7182 1.054 1.2779-0.43271 2.9188-0.67124 3.6466-0.53007 0.84499 0.16392 1.2064-0.53494 1-1.9339-0.18079-1.2257 0.3376-2.5054 1.1769-2.9052 0.825-0.39303 2.5064-1.2346 3.7364-1.87 1.23-0.63549 4.239-1.1554 6.6866-1.1554 4.2898 0 4.4615 0.11714 4.7636 3.25 0.30558 3.1693 0.41891 3.2417 4.5634 2.914 4.692-0.37093 5.5326 0.73437 1.8548 2.4388-1.4886 0.68985-2.9877 0.76245-4.0037 0.19389-1.2306-0.68867-1.8228-0.37183-2.444 1.3077-0.69654 1.8829-0.91588 1.9666-1.4572 0.55611-0.78354-2.0419-4.5257-2.1068-7.1475-0.12398-1.0712 0.81009-2.6734 1.2425-3.5605 0.96095-1.1391-0.36152-2.0173 0.51853-2.9891 2.9953-0.84513 2.1539-2.0531 3.5072-3.1305 3.5072-0.96488 0-2.046 0.47185-2.4024 1.0486-0.44716 0.72351-1.0632 0.70404-1.9872-0.0628-0.99881-0.82894-2.1378-0.69838-4.4817 0.51372-3.8217 1.9763-2.9569 3.5349 3.0639 5.522 3.2533 1.0737 4.9923 1.1106 8.472 0.17993 2.4082-0.64408 5.027-0.9222 5.8196-0.61803 0.79263 0.30416 1.7382 0.0723 2.1013-0.51516 0.36309-0.58749 2.3811-1.0682 4.4845-1.0682 2.8079 0 3.9465-0.46726 4.2841-1.758 0.25286-0.96692 2.2178-2.6544 4.3666-3.75 3.6934-1.8831 8.4266-5.266 12.907-9.2248 1.9683-1.7391 1.9444-1.7763-1.5-2.3415l-3.5-0.57429 3-0.8136c1.65-0.44748 3.5758-1.2677 4.2796-1.8227 0.85825-0.67683 2.0108-0.67836 3.5-5e-3 1.2212 0.55247 3.1204 0.65026 4.2204 0.21731 4.7494-1.8693 9.6286-0.56293 7.963 2.1321-0.4223 0.68329-1.0689 0.49388-1.8198-0.53313-1.0416-1.4244-1.534-1.3202-4.654 0.98551-1.9191 1.4182-5.8512 3.7357-8.7382 5.15-5.3698 2.631-11.251 8.2884-11.251 10.823 0 0.77853 0.77813 1.851 1.7292 2.3832 1.6369 0.91606 1.6372 1.0693 6e-3 2.8723-1.224 1.3525-1.8506 4.2026-2.1617 9.832-0.24091 4.36-0.75547 11.415-1.1435 15.677-0.61892 6.7994-0.50454 7.75 0.93249 7.75 2.0729 0 2.072 0.86285-3e-3 3.1558-1.3177 1.4561-1.7999 5.3129-2.4479 19.579-0.86147 18.967-0.45597 77.463 0.61187 88.266 1.7422 17.625 1.9219 24.221 1.2388 45.476-0.6368 19.812-0.53097 23.183 0.76863 24.483 1.8839 1.8839 5.0585 0.20032 4.7979-2.5444-0.22201-2.3382 1.6694-3.7828 9.9217-7.5781 3.7125-1.7074 6.75-3.6493 6.75-4.3154s0.9637-2.0684 2.1416-3.1161l2.1416-1.905-0.5272 4.8253c-0.58178 5.3248-0.71763 5.1959 6.4941 6.1614 4.7546 0.63655 6.6745 2.5134 2.571 2.5134-3.9792 0-8.821 2.3058-8.821 4.2009 0 1.571-0.94362 1.7991-7.441 1.7991-4.0925 0-7.6824 0.39069-7.9776 0.86819-0.29511 0.47751-2.6842 1.1556-5.309 1.5069-2.6248 0.35131-6.0614 1.3106-7.6368 2.1318s-3.6431 1.4931-4.595 1.4931-2.5452 0.9-3.5407 2-2.6137 2-3.596 2-2.0948 0.4996-2.4721 1.1102c-0.4115 0.66582-2.1058 0.87984-4.2327 0.53469-1.9506-0.31654-5.5439-0.12792-7.985 0.41916-3.0991 0.69451-4.8341 0.66634-5.7495-0.0933-2.0698-1.7178-25.077-3.1508-29.898-1.8622-2.2368 0.59786-4.517 1.4122-5.067 1.8097s-3.7575 0.68496-7.1278 0.63884c-4.1984-0.0574-5.9903 0.27451-5.6911 1.0543 0.32369 0.84352-0.76525 0.86308-4.2066 0.0756-3.4889-0.79837-5.1287-0.75946-6.5953 0.15645-1.5783 0.98567-2.3704 0.9259-4.138-0.31219-2.6041-1.824-7.0377-1.9874-9.6506-0.35568-1.5244 0.952-2.2174 0.84049-3.6443-0.5864-1.0552-1.0552-2.6012-1.5499-3.8541-1.2333-1.1507 0.29077-4.7922 1.2161-8.0922 2.0563s-7.6102 1.271-9.5782 0.95739c-2.5274-0.40277-4.0428-0.10572-5.16 1.0115-1.236 1.236-4.7162 1.7024-15.922 2.1336-7.887 0.30351-16.253 0.75327-18.59 0.99947-2.4156 0.25443-4.25 0.0243-4.25-0.53323zm58.316-11.34c7.7707-2.7057 8.1626-3.7106 8.3537-21.419 0.0933-8.6471 0.41063-27.422 0.70515-41.722 0.31816-15.448 0.0812-31.682-0.58398-40-1.6335-20.428-1.836-23.273-2.2071-31-0.18489-3.85-0.8339-15.1-1.4422-25-0.87505-14.241-0.75842-61.775 0.16419-66.917 0.29029-1.6179-13.007-1.9205-18.306-0.41653-2.475 0.70255-4.99 1.1745-5.5888 1.0487-7.6976-1.6166-8.8892 43.128-3.8776 145.6 0.78862 16.126 1.6893 29.732 2.0015 30.238 0.31221 0.50516 0.9893 8.9116 1.5046 18.681 1.2843 24.345 1.8046 28.039 4.2738 30.34 2.4684 2.2997 9.2818 2.5557 15.003 0.56378zm-5.316-5.6412c0-0.55 0.45-1 1-1s1 0.45 1 1-0.45 1-1 1-1-0.45-1-1zm0-175.56c0-0.85746 0.45-1.2809 1-0.94098s1 1.0415 1 1.559-0.45 0.94098-1 0.94098-1-0.70156-1-1.559zm99.792 175.26c0.88565-0.69432 1.6567-0.64887 2.45 0.14443 1.6294 1.6294 4.2799 1.4381 5.8222-0.42018 1.1761-1.4171 1.4775-1.355 2.9598 0.61007 1.4712 1.9504 1.8891 2.0402 3.8501 0.8278 2.9507-1.8243 3.6602-5.2209 2.3617-11.305-1.1279-5.2851-0.98296-14.564 0.51649-33.055 0.90999-11.222 0.37611-19.786-1.8317-29.382-0.96681-4.2024-0.98055-7.0523-0.0627-13 1.3984-9.0614 1.2667-6.387 1.6555-33.618 0.27679-19.388 0.0721-23.008-1.7238-30.487-2.2646-9.4309-1.9996-19.517 0.79701-30.335 0.9188-3.5541 1.4573-9.7862 1.3825-16-0.0674-5.5981-0.0659-11.044 3e-3 -12.101 0.0691-1.0577-0.77712-2.8259-1.8805-3.9293l-2.0062-2.0062-4.2929 2.2038c-4.5688 2.3454-19.13 3.9063-21.207 2.2733-0.59717-0.46959-4.5098-1.1514-8.6947-1.5151l-7.6089-0.66126-1.2412 10.279c-0.68263 5.6534-1.3702 12.079-1.528 14.279-0.15777 2.2-0.57086 5.575-0.91798 7.5-1.3769 7.636-1.4632 32.467-0.13207 38 3.1787 13.212 3.5285 15.205 2.8592 16.288-0.38943 0.63012-0.81356 6.3357-0.94252 12.679-0.12895 6.3433-0.44727 18.958-0.70736 28.033-0.2601 9.075-0.0937 18.285 0.36981 20.467 0.50513 2.3778 0.46115 4.4266-0.10977 5.1146-0.52387 0.63122-0.89384 2.6711-0.82217 4.5331 0.0717 1.862-0.34734 7.2104-0.93116 11.885s-1.1726 13.9-1.3084 20.5c-0.20597 10.008-8e-3 11.946 1.1912 11.675 0.791-0.17875 1.558-0.62875 1.7044-1s0.68447-1.337 1.1956-2.146c1.4537-2.301 2.2078-0.60535 1.0661 2.3974-2.9388 7.7295 1.3624 11.44 14.472 12.485 8.4746 0.67543 11.2 0.4266 13.292-1.2134zm-27.792-37.698c0-1.1 0.45-2 1-2s1 0.9 1 2-0.45 2-1 2-1-0.9-1-2zm11-98c0-0.55 1.6016-1 3.559-1 2.118 0 11.442-0.45128 11.075 0.14384-0.33992 0.55-10.075 1.8562-11.693 1.8562s-2.941-0.45-2.941-1zm-3-9c0-0.55 1.125-1 2.5-1s11.49 0.0219 11.49 0.57192c0 0.55-10.115 1.4281-11.49 1.4281s-2.5-0.45-2.5-1zm-85.736-88.25c1.23-0.6875 2.5637-1.7 2.9636-2.25 0.8999-1.2375-4e-3 -4.538-1.7458-6.3756-1.9631-2.0709-9.8629 3.4191-10.298 7.1564-0.29226 2.5116-0.043 2.7193 3.2636 2.7193 1.969 0 4.5864-0.5625 5.8164-1.25zm240.74 233.05c-1.925-0.49594-5.8621-1.8606-8.7491-3.0327-4.8856-1.9834-5.7072-2.0399-11.864-0.81614-11.045 2.1954-13.854 1.8703-21.387-2.4757-1.582-0.9127-5.3458-1.4477-10.25-1.4571-4.4902-9e-3 -7.75-0.43536-7.75-1.0147 0-0.55 0.85186-1 1.893-1 1.0412 0 2.1279-0.61217 2.415-1.3604 0.28989-0.75545 2.5828-1.5926 5.1564-1.8827 2.5489-0.2873 4.9129-0.80088 5.2533-1.1413 0.70882-0.70882-1.9139-9.3947-8.6405-28.616-0.67368-1.925-2.0536-6.875-3.0665-11l-1.8416-7.5 2.2761 2.8417c1.2519 1.5629 3.7353 7.4129 5.5188 13 1.7834 5.5871 3.6461 10.94 4.1393 11.895 0.49318 0.95504 0.89669 2.616 0.89669 3.691 0 1.075 0.3833 2.1914 0.85177 2.481s1.8911 4.2536 3.1613 8.809c2.6546 9.52 3.1117 10.273 7.4941 12.353 3.028 1.4369 3.5078 1.3909 7.6122-0.72925 5.0386-2.6027 5.8728-3.3558 7.7485-6.9958 1.5294-2.968 0.83389-5.0519-1.4-4.1947-0.80738 0.30983-1.468 0.11766-1.468-0.42704s0.86422-1.2164 1.9205-1.4926c1.6437-0.42984 1.7976-0.98705 1.0675-3.8666-2.27-8.9537-2.0376-8.2527-5.4808-16.527-0.9527-2.2894-1.4921-4.7644-1.1987-5.5 0.29601-0.74203 0.56866-0.33578 0.61246 0.91261 0.0434 1.2375 0.52895 2.25 1.079 2.25s1 0.675 1 1.5c0 0.83333 0.88889 1.5 2 1.5 2.2044 0 2.5907-2.0278 0.96482-5.0657-0.67757-1.266-0.68973-1.9343-0.0352-1.9343 0.55 0 1.5315 1.0125 2.1812 2.25s1.7905 2.6099 2.5352 3.0497c0.74471 0.43983 1.354 1.3726 1.354 2.0728 0 0.7002 1.35 4.06 3 7.4662s3.01 6.7485 3.0222 7.4272c0.0122 0.67874 0.90222 2.3591 1.9778 3.7341 1.3112 1.6763 1.9628 4.0818 1.9778 7.301 0.0211 4.5601 0.20301 4.8766 3.6253 6.3065 5.0817 2.1233 8.8089 1.5152 9.2361-1.5067 0.18651-1.3196-0.0908-3.3446-0.61621-4.5-0.52542-1.1554-1.4655-3.3383-2.0891-4.8508-0.62359-1.5125-1.6595-3.8743-2.302-5.2485-0.6425-1.3742-0.88435-2.7823-0.53744-3.1292 0.3469-0.3469 1.1427 0.66492 1.7685 2.2485 3.3442 8.4626 5.1535 11.521 7.4297 12.558 2.0352 0.92731 2.8395 0.83078 4.3321-0.51993 2.2748-2.0586 3.7876-2.1115 4.537-0.15866 0.65598 1.7095 2.448 1.9085 4.6384 0.5152 1.3104-0.83358 1.3189-1.2424 0.067-3.2347-1.372-2.1835-6.5232-11.806-10.857-20.281-1.125-2.2-2.9439-6.25-4.042-9-8.802-22.044-10.5-26.36-11.406-29-0.56654-1.65-1.4198-3.7814-1.896-4.7364-1.0866-2.1789-1.0896-2.7636-0.014-2.7636 0.77553 0 2.8256 4.1505 9.8787 20 1.3461 3.025 3.7574 8.2552 5.3584 11.623 1.601 3.3675 2.9109 6.435 2.9109 6.8167 0 1.3668 10.378 24.136 12.671 27.8 1.8631 2.9769 3.1388 3.8668 6.2587 4.3657 2.6151 0.41817 11.003-3.7328 10.674-2.8756-0.33235 0.86609-10.515 6.1852-16.255 6.421-8.0604 0.33119-8.6606 0.5146-11.281 3.4473-2.3499 2.63-3.658 3.1732-8.668 3.599-3.2452 0.27585-7.4754 0.0958-9.4004-0.40016zm-9-17.788c0-0.54516-1.4102-4.1452-3.1339-8-2.3531-5.2627-3.6271-7.0088-5.1135-7.0088-1.6269 0-1.8811 0.48991-1.4267 2.75 2.0284 10.089 3.7675 13.25 7.2891 13.25 1.3117 0 2.385-0.44604 2.385-0.9912zm-61.75 9.3523c-2.9071-1.2274-0.86641-2.3611 4.25-2.3611 3.025 0 5.5 0.45 5.5 1s-1.0125 1.0061-2.25 1.0136c-1.2375 8e-3 -3.15 0.20751-4.25 0.44443-1.1 0.23693-2.5625 0.19329-3.25-0.097zm109.75-3.4111c-4.3e-4 -0.7975-1.3504-4.3029-3-7.7898-1.6496-3.4869-2.9892-6.6369-2.977-7 0.0395-1.1734 3.9325 4.2981 3.9555 5.5594 0.0122 0.67077 0.94969 2.8708 2.0832 4.889 1.453 2.5869 1.748 3.9824 1 4.7304s-1.0612 0.63323-1.0618-0.38901zm-336.92-1.5333c0.048-1.165 0.28494-1.4019 0.60417-0.60417 0.28887 0.72187 0.25334 1.5844-0.079 1.9167-0.33229 0.33229-0.56864-0.25834-0.52522-1.3125zm343-1c-29.417-79.167 0.28494-1.4019 0.60416-0.60417 0.28887 0.72187 0.25335 1.5844-0.0789 1.9167-0.33229 0.33229-0.56864-0.25834-0.52522-1.3125zm-345.41-5.0833c-1.0672-1.0672-0.76832-10.333 0.33334-10.333 0.55 0 1 2.475 1 5.5 0 5.5618-0.13079 6.0359-1.3333 4.8333zm212.87-3.5833c-0.27703-1.2375-0.10666-3.825 0.37859-5.75 0.82608-3.277 0.8888-3.1337 0.98464 2.25 0.10561 5.9326-0.48132 7.4395-1.3632 3.5zm89.195-6.3542c-0.40105-0.40104-0.72917-1.4192-0.72917-2.2625 0-1.1256 0.29583-1.2375 1.1125-0.42083 0.61187 0.61187 0.94 1.63 0.72917 2.2625-0.21084 0.6325-0.71146 0.82187-1.1125 0.42083zm27.736-3.4636c-0.87253-1.6873-1.3696-3.5998-1.1046-4.25 0.26498-0.65022 0.51731-0.39471 0.56073 0.56779 0.0434 0.9625 0.47649 1.75 0.96237 1.75 0.48589 0 1.0985 1.125 1.3613 2.5 0.63261 3.3093 0.1446 3.1536-1.7798-0.56779zm-116.45-3.8684c-0.82016-3.0459 3.6191-34.785 4.587-36.335 2.0516-3.2851-1.6042 27.92-1.6042 33.712 0 6.6702-1.5306 8.016-2.9828 2.6228zm12.941 1.386c-1.7553-2.115 0.98785-4.861 5.0604-5.0658 3.5127-0.17666 4.0889 2.3037 1.1525 4.961-2.2909 2.0732-4.5476 2.1113-6.2129 0.1048zm-223.34-8.6998c1.0445-6.876 1.9499-7.2669 3.03-1.3081 0.98758 5.4485 0.96127 5.5581-1.3341 5.5581-2.1893 0-2.2996-0.27623-1.6959-4.25zm293.46 0.40139c-1.6335-3.0522-1.2953-3.9023 0.52098-1.3092 0.8811 1.258 1.3676 2.5216 1.081 2.8082-0.28654 0.28654-1.0074-0.38797-1.602-1.4989zm27.169 0.12837c-0.6875-0.24553-1.25-1.409-1.25-2.5856 0-2.124 0.0114-2.1229 1.602 0.148 1.7248 2.4624 1.6263 3.1441-0.352 2.4376zm-51.566-6.2798c-1.9616-5.6965-3.8837-11.701-6.2417-19.5-4.0765-13.482-10.557-32.865-11.368-34-0.3928-0.55-1.3235-3.025-2.0682-5.5-0.74471-2.475-1.7258-4.9275-2.1801-5.45s-0.82612-1.5399-0.82612-2.2609c0-0.72099-0.86067-3.2185-1.9126-5.55-1.0519-2.3315-2.4606-6.0391-3.1303-8.2391-0.66974-2.2-1.5335-4.45-1.9196-5-0.38601-0.55-1.3043-3.6085-2.0406-6.7966-0.7363-3.1881-1.7118-6.0272-2.1678-6.309-0.45601-0.28183-0.82911-1.561-0.82911-2.8426s-0.84111-3.3689-1.8691-4.6385c-1.7338-2.1412-2.1584-2.2216-5.866-1.1108-2.1983 0.65863-5.6951 1.1975-7.7706 1.1975-4.1026 0-6.4083 2.0079-6.4624 5.6276-0.0175 1.1702 0.6432 2.6878 1.4682 3.3724s1.5066 2.2023 1.5147 3.3724c0.0184 2.6625 2.3399 7.1867 3.567 6.9516 0.50504-0.0968 1.8182-0.47034 2.9182-0.8302 1.5018-0.49129 1.289-0.0437-0.85435 1.7967-2.3319 2.0023-2.6662 2.8026-1.8264 4.3718 0.56539 1.0564 0.97374 2.5771 0.90744 3.3792s0.92645 3.6803 2.2061 6.3959c1.2796 2.7156 4.0415 11.716 6.1375 20 2.096 8.2844 4.9626 18.657 6.3703 23.05 2.5113 7.8375 3.3815 13.854 1.7303 11.962-1.9913-2.2814-9.2045-21.909-10.336-28.126-1.8821-10.338-4.0369-15.58-7.1144-17.307-2.2071-1.2388-3.06-1.2852-4.7078-0.25618-1.9172 1.1973-2.0124 1.0168-2.0124-3.8175 0-2.7908-0.4027-5.8321-0.8949-6.7585-0.49219-0.92634-1.2112-8.8843-1.5978-17.684s-2.0556-58.813-2.1394-60.389c-0.13593-2.5596 1.4864 38.629 4.4526 38.385 2.9386-0.24242 11.057-5.4519 12.013-7.7084 0.18334-0.43286 0.99318-0.78702 1.7997-0.78702s2.7817-0.68022 4.3894-1.5116c2.7622-1.4284 3.2884-1.339 9.5562 1.6224 6.053 2.8599 7.3015 3.0953 14.277 2.6923l7.6442-0.44166 0.15085 4.8135c0.13961 4.455-9e-3 4.774-2 4.2842-2.4392-0.60014-10.572 4.8994-9.6508 7.1137 90.983 218.79-1.7429 1.4626-2.35-1.5728-0.39669-1.9835-1.2014-2.9987-2.375-2.9963-2.6158 6e-3 -8.275 3.7341-8.275 5.4519 0 2.2284 4.6914 12.043 6.457 13.509 0.84867 0.70434 1.543 2.2898 1.543 3.5233 0 1.2335 0.9 3.3869 2 4.7853s2 3.0183 2 3.5997c0 0.58139 0.9 1.5388 2 2.1274s2 1.7295 2 2.5352 0.45 1.4648 1 1.4648 1 0.8625 1 1.9167c0 1.0542 0.5625 2.1436 1.25 2.421 1 0.40351 1 0.52017 0 0.58333-1.3342 0.0843-1.7742 6.2214-0.53488 7.4607 1.165 1.165 3.1931 9.8251 3.2408 13.838 0.0243 2.0458 0.84228 5.1958 1.8178 7 0.97553 1.8042 2.8224 5.9804 4.1041 9.2804s2.912 7.35 3.6229 9c2.526 5.8634 7.4993 18.661 7.4993 19.298 0 0.35583-0.70052-0.35318-1.5567-1.5756-1.9782-2.8243-3.2788-2.8162-4.3754 0.0275-0.65577 1.7006-0.99375 1.8837-1.3842 0.75zm-25.15-109.04c1.3161-1.4542 2.5902-1.8741 4.4486-1.4659 1.9295 0.4238 3.1847-0.0457 4.844-1.812 3.0159-3.2103 1.2712-4.4426-5.5318-3.907-5.7777 0.45483-10.295 3.6032-10.295 7.175 0 2.7468 4.0518 2.753 6.5343 0.01zm-6.1232-4.0388c1.4239-1.6922 2.5889-3.4667 2.5889-3.9433 0-1.6722-4.4778-3.98-7.7225-3.98-3.8832 0-4.3299 2.0978-1.2775 6 1.0755 1.375 1.9655 3.0625 1.9778 3.75 0.0373 2.0972 1.7124 1.407 4.4334-1.8267zm-235.38 116.77c-0.4125-0.41648-2.0342-13.971-2.0342-17.565 0-4.5692-1.9454-17.119-1.21-16.383 0.58253 0.58254 3.1786 14.736 3.0116 18.192-0.16587 3.4314 0.64518 16.172 0.23268 15.756zm286.04-12.281c0.048-1.165 0.28494-1.4019 0.60416-0.60417 0.28887 0.72187 0.25335 1.5844-0.0789 1.9167-0.33229 0.33229-0.56864-0.25834-0.52522-1.3125zm-4.8423-10.177c-1.1676-2.4906-1.1398-2.5714 0.36607-1.0655 0.89617 0.89617 1.4647 2.1089 1.2633 2.6949s-0.93457-0.1472-1.6294-1.6294zm-69.158-5.823c0.048-1.165 0.28494-1.4019 0.60416-0.60417 0.28887 0.72187 0.25335 1.5844-0.0789 1.9167-0.33229 0.33229-0.56864-0.25834-0.52522-1.3125zm-216.46-8.6447c-0.46786-4.2504-0.47349-8.5254-0.0125-9.5 1.0028-2.1201 1.6824 5.0504 1.1827 12.478-0.29035 4.3156-0.39738 4.0432-1.1702-2.978zm307.1 1.8962c-1.1143-2.8331-0.93262-4.2804 0.37332-2.9744 0.60158 0.60158 0.92578 1.9291 0.72046 2.95-0.36008 1.7903-0.3989 1.7912-1.0938 0.0244zm-91.72-3.2272c0-0.85746 0.45-1.2809 1-0.94098s1 1.0415 1 1.559-0.45 0.94098-1 0.94098-1-0.70156-1-1.559zm77.334-3.0478c-0.39201-1.0412-2.2885-4.3681-4.2144-7.3931s-4.3158-7.6423-5.3108-10.261c-1.931-5.0814-2.3986-8.3521-0.80393-5.6231 0.97549 1.6694 5.4914 1.5075 6.5686-0.23555 0.29934-0.48433 1.0228-0.8806 1.6077-0.8806 0.70041 0 0.66369 0.48166-0.10757 1.411-1.3282 1.6004 0.19351 3.1598 1.9962 2.0457 1.7028-1.0524 2.793-4.8405 1.7621-6.1226-0.63798-0.79341-0.30655-1.3662 1.0374-1.7927 1.0862-0.34474 3.5279-2.3458 5.426-4.4468 4.8922-5.4151 5.795-5.7973 5.0644-2.1443-0.4921 2.4605-0.27532 3.0497 1.122 3.0497 1.1685 0 1.5345 0.51462 1.125 1.5818-0.33385 0.86998 37.076 103.23-0.60699 3.5085-0.58972-1.5606-0.2649 1.7613-1.9752 0.69316-1.6683-1.0419-2.2072-0.92668-3.4682 0.74153-0.82115 1.0863-1.5073 2.7767-1.5248 3.7564-0.0175 0.97977-0.7068 2.0404-1.5318 2.357-2.3648 0.90745-1.7625 3.8691 1.4962 7.3575 1.6479 1.7641 38.37 83.119 38.065 83.613-0.99846 1.6155-37.576-78.552-39.558-82.232-2.1501-3.9925-5.8339-6.9079-7.4593-5.9034-1.7105 1.0572-1.1881 8.0252 0.98115 13.086 1.1138 2.5984 1.7994 4.9502 1.5235 5.226-0.27588 0.27588-0.82233-0.35031-1.2143-1.3915zm-77.139-6.8931c0.0204-1.65 0.2445-2.2039 0.49804-1.231s0.23687 2.323-0.0371 3c-0.27393 0.67703-0.48137-0.11903-0.46099-1.769zm98.963-0.5c24.401 64.55 28.48 72.977 28.758 73.664s-27.976-73.102-28.253-72.414-0.99058-2.5362-0.50439-1.25zm-40.158-0.059c0-0.58246 0.45-0.7809 1-0.44098s1 0.81648 1 1.059-0.45 0.44098-1 0.44098-1-0.47656-1-1.059zm-275.29-9.6739c-0.52862-8.8605-0.36938-11.351 0.65122-10.184 0.76529 0.87508 1.4368 19.917 0.70238 19.917-0.42511 0-1.0342-4.3798-1.3536-9.7329zm216.22 3.2329c-0.31439-0.55-0.65451-2.3301-0.75584-3.9558-0.13234-2.1233 0.97727-8.6437 1.756-7.865 0.59621 0.59621-0.14853 8.3599-0.10033 9.949 0.85493 28.184-0.5854 2.4218-0.89978 1.8718zm56.282-1.1009c-0.70918-0.76953-0.84824-1.3991-0.30901-1.3991 1.0384 0 2.5417 1.9022 1.9486 2.4657-0.19258 0.18294-0.93038-0.297-1.6396-1.0665zm38.868-1.9825c0.048-1.165 0.28494-1.4019 0.60416-0.60417 0.28887 0.72187 0.25335 1.5844-0.0789 1.9167-0.33229 0.33229-0.56864-0.25834-0.52522-1.3125zm-310.97-18.417c0.0448-4.1536 0.1249-4.2912 1.0404-1.7877 0.66788 1.8264 0.65203 3.2962-0.0485 4.5-0.82803 1.4228-1.0305 0.86923-0.99183-2.7123zm262.03-3.0498c-0.74619-1.6858-1.0951-3.3266-0.77545-3.6463 0.67401-0.67401 2.8429 4.579 2.4175 5.8552-0.15695 0.47086-0.89589-0.52315-1.6421-2.2089zm26.918 1.1548c-1.1435-2.1367 1.1723-5.1623 2.4138-3.1536 0.35642 0.57671 1.5215 1.0486 2.589 1.0486 2.2123 0 2.4904 1.0506 0.74098 2.8-1.7901 1.7901-4.5955 1.4507-5.7438-0.69499zm-290.48-10.658c-0.3505-1.3965-0.35233-3.0001-4e-3 -3.5636 0.34826-0.5635 0.65786-5.962 0.68798-11.997 0.0301-6.0346 0.42442-10.602 0.87621-10.151 0.45178 0.45179 0.79756 5.3085 0.76839 10.793-0.0292 5.4842-0.0219 11.409 0.0162 13.165 0.0864 3.9855 0.29943 25.799-0.55647 22.389zm231.42-11.447c1.9565-1.2644 4-1.2644 4 0 0 0.55-1.2375 0.99311-2.75 0.98469-2.1429-0.0119-2.4189-0.22931-1.25-0.98469zm36.079-6.5833c23.041 58.583 0.28494-1.4019 0.60416-0.60417 0.28887 0.72187-3.7-5.6857-4.0323-5.3534-0.33229 0.33229 21.115 55.334 21.158 54.28zm-251.58-2.4167c0.33992-0.55 1.0415-1 1.559-1s0.94098 0.45 0.94098 1-0.70156 1-1.559 1-1.2809-0.45-0.94098-1zm-3.5-5.5981-2.5-1.5272 2.5 0.54901c1.375 0.30196 3.85 0.58679 5.5 0.63296 2.5847 0.0723 2.7231 0.20292 1 0.94337-2.8182 1.211-3.6663 1.133-6.5-0.59811zm-12-3.8429c0-0.85746 0.45-1.559 1-1.559s1 0.42344 1 0.94098-0.45 1.2191-1 1.559-1-0.0835-1-0.94098zm1.0789-4.1424c0.048-1.165 0.28494-1.4019 0.60417-0.60417 0.28887 0.72187 0.25334 1.5844-0.079 1.9167-0.33229 0.33229-0.56864-0.25834-0.52522-1.3125zm210.42-1.4167c-0.7292-1.1799 0.21667-3 1.559-3 0.51754 0 0.94098 0.9 0.94098 2 0 2.1091-1.4549 2.691-2.5 1zm-211.07-3.11c-1.0316-1.6691-0.73718-19.638 0.4078-24.89 0.53957-2.475 1.2949-9.1125 1.6785-14.75s0.85073-10.25 1.0381-10.25c0.64416 0 5.4437 4.7299 5.4437 5.3647 0 0.34943-0.64844 0.63533-1.441 0.63533-0.79255 0-1.7087 0.43311-2.0358 0.96246-0.88942 1.4391-2.5953 22.162-2.7442 33.337-0.1246 9.3495-0.7972 12.098-2.347 9.5903zm213.14-3.1865c-0.4479-1.5381-0.53532-3.0756-0.19427-3.4167 1.1193-1.1193 1.7776 0.47794 1.3896 3.3718l-0.38097 2.8414zm-14.899-7.3614c-1.0272-1.0272 1.3605-3.342 3.4471-3.342 2.3473 0 2.3908 0.88991 0.12756 2.608-2.006 1.5228-2.653 1.6557-3.5747 0.73406zm14.95-30.467c0.0892-5.1122 0.55133-22.156 1.6592-22.156 0.60317 0-0.28425 8.4475-0.28425 14.781 0 5.775-0.16875 10.5-0.375 10.5s-1.9728 52.635-1-3.125zm-115.62-1.875c0-0.55 0.675-1 1.5-1s1.5 0.45 1.5 1-0.675 1-1.5 1-1.5-0.45-1.5-1zm-3.5-1c-0.33992-0.55-0.16803-1 0.38197-1s1.2781 0.45 1.618 1 0.16803 1-0.38197 1-1.2781-0.45-1.618-1zm20-9c0.33992-0.55 0.81648-1 1.059-1s0.44098 0.45 0.44098 1-0.47656 1-1.059 1-0.7809-0.45-0.44098-1zm40.132-13.517c-0.88207-2.2986 3.452-29.356 4.4904-27.718 1.1204 1.7674-1.89 27.973-3.0176 28.67-0.6465 4.9054-1.1551-0.12406-1.4728-0.95192zm-115.59-10.4c-0.84603-1.5808-2.0848-2.083-5.1386-2.083-2.4279 0-3.7787-0.39662-3.4058-1 0.77426-1.2528 6.7722-1.3159 8.05-0.0847 0.5225 0.50343 2.0152 1.0659 3.317 1.25l2.367 0.33468-2.0374 1.833c-1.9816 1.7827-2.068 1.7759-3.1522-0.25z"/>
</svg>
