<?xml version="1.0" encoding="UTF-8"?>
<!-- Created with Inkscape (http://www.inkscape.org/) -->
<svg width="300" height="1500" version="1.1" viewBox="0 0 300 1500" xmlns="http://www.w3.org/2000/svg" xmlns:cc="http://creativecommons.org/ns#" xmlns:dc="http://purl.org/dc/elements/1.1/" xmlns:rdf="http://www.w3.org/1999/02/22-rdf-syntax-ns#">
 <metadata>
  <rdf:RDF>
   <cc:Work rdf:about="">
    <dc:format>image/svg+xml</dc:format>
    <dc:type rdf:resource="http://purl.org/dc/dcmitype/StillImage"/>
    <dc:title/>
   </cc:Work>
  </rdf:RDF>
 </metadata>
 <path d="m146.46 1459.6c-0.86924-3.2436-0.77008-21.546 0.11971-22.095 0.4125-0.2549 0.78683 5.1186 0.83185 11.941 0.045 6.8224-0.015 12.404-0.13337 12.404s-0.48656-1.0125-0.81819-2.25zm-8.6303-29.35c-3.025-0.8073-9.667-3.4899-14.76-5.9614-22.963-11.143-33.24-28.978-33.24-57.687 0-15.554 2.4513-23.112 12.568-38.751 2.5071-3.8757 5.9743-10.072 7.7048-13.77 2.9113-6.2214 3.1916-7.7697 3.7512-20.727 0.62611-14.497 1.8785-19.177 5.7847-21.616 1.3391-0.8362 1.7091-2.3114 1.5879-6.3315-0.0869-2.8827-0.68661-6.2291-1.3327-7.4363-0.6461-1.2073-0.9065-3.0402-0.57866-4.0731 0.32784-1.033 0.0996-2.1849-0.50711-2.5599-1.3162-0.8135 9.6919-11.138 14.684-13.772 1.8614-0.9823 6.749-2.3212 10.861-2.9755l7.4767-1.1896v-573.27c0-381.52 0.3345-573.27 1-573.27s1 191.79 1 573.36v573.36l4.6396 0.6359c2.5518 0.3497 6.4893 0.6363 8.75 0.6367 3.7384 7e-4 16.61 5.0173 16.61 6.4736 0 0.3076-2.235-0.5733-4.9668-1.9576-6.0466-3.064-7.1658-3.1955-3.6481-0.4285 3.2367 2.546 5.6149 6.9349 5.6149 10.362 0 2.053-0.48702 2.5497-2.5 2.5497-1.375 0-2.5 0.45-2.5 1s0.45965 1 1.0214 1 1.5688 1.2375 2.2378 2.75 1.8969 3.2851 2.7286 3.9391c1.2466 0.9802 1.2926 1.5487 0.2622 3.2364-1.6193 2.6522-1.584 5.1443 0.10771 7.602 2.5794 3.7475 3.8492 9.6648 4.6009 21.442 0.88584 13.878 3.2305 19.995 12.334 32.18 10.629 14.227 15.708 28.236 15.708 43.33 0 13.696-5.8806 28.63-15.427 39.179-3.065 3.3865-5.5726 6.5965-5.5726 7.1334 0 0.5368-0.7875 1.2505-1.75 1.586s-3.55 1.9528-5.75 3.5939c-7.8775 5.8766-27.843 12.111-38.315 11.964-2.5765-0.036-7.1596-0.7264-10.185-1.5338zm28.765-8.5529c17.451-5.3852 31.562-16.696 38.381-30.765 1.7549-3.6204 3.8697-7.912 4.6995-9.5369 2.267-4.4385 2.6802-16.945 0.80216-24.276-1.915-7.4751-6.8662-17.882-10.672-22.432-7.1217-8.5143-12.099-15.032-10.926-14.307 0.96866 0.5986 1.0849 0.3205 0.4666-1.1169-3.5514-8.2564-4.8421-14.073-5.5839-25.164-0.59163-8.8451-1.3215-13.11-2.626-15.343-1.6937-2.8995-2.081-3.0558-6.1962-2.5002-2.4143 0.3259-7.9938 0.5926-12.399 0.5926h-8.0094l0.60579 22.75c0.65227 24.495 1.8832 32.424 6.0607 39.042 3.6927 5.8496 8.7134 9.2041 13.815 9.2301 2.3742 0.012 6.2292 0.89 8.5667 1.9511 3.3838 1.5359 4.25 2.4486 4.25 4.478 0 3.5798-3.8379 3.3956-10.77-0.5167-2.9876-1.6861-5.6864-2.8111-5.9975-2.5-0.31108 0.3111-0.0564 0.5656 0.56589 0.5656 2.0047 0 3.3911 3.7779 2.2018 6-1.4809 2.767-4.8026 2.5274-6.1565-0.444l-1.1136-2.4441-1.8005 2.1941c-1.6989 2.0702-1.8984 2.0977-3.5362 0.487-1.6364-1.6092-1.8118-1.6092-3.0645 0-1.2419 1.5954-1.4299 1.5762-2.8758-0.293-0.90413-1.1688-1.4236-3.4545-1.25-5.5 0.25262-2.9767-0.0394-3.5478-1.953-3.8196-2.5814-0.3666-2.9445 0.9983-0.75 2.8196 1.6254 1.349 2.0539 6.5397 0.61331 7.43-1.1963 0.7393-3.0868-1.6792-3.9989-5.1161-0.62457-2.3534-1.3497-2.8647-4.4306-3.1243-4.2225-0.3557-4.5734 0.2695-1.5331 2.7314 2.4506 1.9844 2.0267 6.4132-0.71456 7.4651-2.2716 0.8717-5.4362-1.1199-5.4362-3.4213 0-2.459 0.17378-2.48-5.4404 0.6578-7.3676 4.1178-16.56 2.376-16.56-3.1381 0-3.1509 2.0224-3.8189 13.449-4.442l9.9486-0.5425 2.0041-3.4394c1.1023-1.8917 2.5575-5.4917 3.2339-8 0.67639-2.5083 1.2602-3.5529 1.2973-2.3213 0.0371 1.2316-0.83228 4.6066-1.932 7.5-1.0997 2.8934-1.9997 5.2828-2 5.3099-5e-3 0.4908 8.1044-0.97 9.682-1.7441 1.2396-0.6082 2.9678-0.7213 4-0.2618 2.1314 0.9489 14.653 3.3293 15.172 2.8843 0.19526-0.1674-1.2961-1.754-3.3142-3.5259-8.403-7.3779-10.506-16.118-11.407-47.402l-0.63361-22-4.75-0.3048-4.75-0.3048-0.1987 7.3048-0.19869 7.3048-0.34512-7.25-0.34511-7.25-7.7062 0.011c-11.641 0.017-15.07 0.8166-16.622 3.8773-0.81107 1.6-1.5155 7.8459-1.8184 16.124-0.42095 11.502-0.87969 14.466-3.0833 19.922-1.4238 3.5251-2.3154 6.8515-1.9812 7.3922 0.33414 0.5407 0.13516 0.6911-0.44219 0.3343-0.57735-0.3569-1.3167 0.047-1.6431 0.8974-0.39127 1.0196-0.17154 1.3287 0.64522 0.9075 0.6812-0.3513 0.16133 0.2385-1.1553 1.3108-1.5835 1.2896-2.1216 2.4192-1.5897 3.3368 0.44228 0.763 0.43486 1.0526-0.0165 0.6436-1.0733-0.9726-3.8064 2.9389-2.9836 4.2701 0.34774 0.5627 0.0836 0.8994-0.58709 0.7483-0.67064-0.1512-3.2916 3.6974-5.8243 8.5524l-4.605 8.8271v13.673c0 16.944 2.0875 24.765 9.0987 34.092 7.0366 9.3607 21.602 18.743 35.195 22.67 6.2493 1.8055 20.192 0.9672 28.971-1.7417zm-23.765 1.119c-1.6139-0.5385-0.55056-0.6324 3-0.2649 3.025 0.3131 5.6875 0.7334 5.9167 0.9339 0.80118 0.7009-6.439 0.1577-8.9167-0.669zm-7-1.9665c-1.828-1.1813-0.24909-1.1813 2.5 0 1.3187 0.5667 1.4891 0.8782 0.5 0.9144-0.825 0.03-2.175-0.3812-3-0.9144zm-10.593-5.8977c-3.7988-2.6937-9.1568-7.2835-11.907-10.2-4.7065-4.9906-4.5924-4.9293 1.9438 1.0447 3.8191 3.4907 9.6264 8.0805 12.905 10.2s5.512 3.8529 4.963 3.8529c-0.54902 0-4.1063-2.2039-7.905-4.8977zm37.593-3.2385c10.305-2.2039 15.18-4.1585 20.929-8.3905 7.3222-5.3903 8.0618-5.0934 1.0731 0.4308-5.861 4.6329-13.316 7.6049-21.002 8.3727-5.4967 0.549-5.4973 0.5488-1-0.413zm-11.371-0.6548c-0.26888-0.4351 1.0546-0.6108 2.941-0.3906s3.4298 0.5762 3.4298 0.791c0 0.7526-5.8869 0.3826-6.3708-0.4004zm0.45943-4.7186c0.87373-0.8779 5.3737-2.2534 10-3.0567 12.001-2.0839 14.619-3.1441 19.257-7.7983 3.9315-3.9457 4.0036-3.9749 1.5711-0.6354-3.377 4.6362-9.748 7.6856-18.916 9.0542-4.125 0.6157-8.85 1.7749-10.5 2.5759-2.7465 1.3335-2.8658 1.3217-1.4114-0.1397zm-45.684-9.7404-1.905-2.25 2.25 1.905c1.2375 1.0477 2.25 2.0602 2.25 2.25 0 0.8002-0.80479 0.2094-2.595-1.905zm83.595 0.8724c0-0.2076 0.7875-0.9951 1.75-1.75 1.5861-1.2438 1.6214-1.2085 0.37756 0.3776-1.3064 1.6657-2.1276 2.1955-2.1276 1.3724zm-89.376-8.1611c-0.96498-2.5147-0.68031-3.1635 0.49854-1.1363 0.58369 1.0038 0.8506 2.0357 0.59313 2.2931-0.25747 0.2575-0.74872-0.2631-1.0917-1.1568zm-2.4611-6.0041c-1.6755-3.6773-1.3558-4.4618 0.45585-1.1188 0.84602 1.5611 1.3511 3.0255 1.1224 3.2542s-0.93891-0.7322-1.5782-2.1354zm93.838-11.887c0-0.275 0.90596-0.9849 2.0132-1.5775 1.4501-0.776 2.4991-0.7648 3.75 0.04 1.6151 1.0395 1.6091 1.0778-0.0857 0.5459-1.0024-0.3146-2.6898-0.1077-3.75 0.4597-1.0602 0.5673-1.9276 0.8066-1.9276 0.5316zm2-6.539c0-0.5328 0.675-0.7096 1.5-0.393s1.5 0.7524 1.5 0.9686c0 0.2161-0.675 0.393-1.5 0.393s-1.5-0.4359-1.5-0.9686zm-0.98571-12.446c0.64761-0.6476 1.3238-0.6476 1.9714 0 0.64762 0.6476 0.30953 0.9857-0.98571 0.9857s-1.6333-0.3381-0.98571-0.9857zm-48.597-38.086c-9.6e-4 -10.45 0.14644-14.861 0.32755-9.8019 0.18111 5.0589 0.1819 13.609 2e-3 19-0.18015 5.391-0.32834 1.2519-0.3293-9.1981zm-2.327 42.892c1.134-1.3664 1.0485-1.8175-0.56869-3-2.6188-1.915-4.5211-1.7432-4.5211 0.4082 0 1.7827 1.7713 4.2 3.0776 4.2 0.37265 0 1.2782-0.7237 2.0122-1.6082zm-11.976-1.5759c2.1374-1.2013 3.8862-2.5513 3.8862-3 0-0.4488-3.4046-0.8159-7.5657-0.8159-10.064 0-14.408 2.2604-9.1843 4.7795 3.6404 1.7557 8.6997 1.3767 12.864-0.9636zm43.59 0.5733c0.20339-0.6109-0.77992-1.8641-2.1851-2.7848-2.2792-1.4934-2.619-1.5071-3.1488-0.1265-0.32662 0.8512-0.0224 2.2361 0.67605 3.0777 1.3946 1.6804 4.075 1.5846 4.6579-0.1664zm-23.108-4.2217c-1.9582-1.9582-2.1875-0.1069-0.38984 3.1482 1.1131 2.0156 1.2364 2.04 1.5961 0.3161 0.21441-1.0275-0.3284-2.5864-1.2062-3.4643zm6.9947 1.3382c-0.35718-1.4231-1.0862-2.3175-1.6201-1.9876-1.3949 0.8621-1.1971 4.2344 0.27932 4.7617 1.8157 0.6484 2.0685 0.1254 1.3408-2.7741zm7.253 1.0552c0.55607-2.8684-1.3426-3.919-3.3889-1.8752-1.7548 1.7526-1.7966 1.7378-1.2293-0.4357 0.40323-1.5451 0.14659-2.25-0.81919-2.25-2.0588 0-1.7182 2.0392 0.78598 4.7048 2.4361 2.5931 4.131 2.5407 4.6514-0.1439zm22.156-0.3757c0-1.2987-6.8057-4.1882-9.7839-4.154-2.6176 0.03-2.5711 0.1205 1.2839 2.4949 3.8957 2.3994 8.5 3.2981 8.5 1.6591zm-20.317-2.3727c-0.31922-0.7977-0.55618-0.5608-0.60416 0.6042-0.0434 1.0541 0.19292 1.6448 0.52522 1.3125 0.33229-0.3323 0.36781-1.1948 0.0789-1.9167zm11.317-83.966c0.9656-0.5986-0.45945-0.6972-4-0.2768-3.025 0.3592-6.175 1.0716-7 1.583-0.9656 0.5986 0.45945 0.6972 4 0.2768 3.025-0.3592 6.175-1.0716 7-1.583zm-13-1.8174c11.598-1.9056 12.307-2.1225 11.048-3.3807-0.79944-0.799-8.2124-1.1488-24.349-1.1488-12.76 0-24.099-0.4138-25.199-0.9196-1.9797-0.9102-1.9805-0.8973-0.0736 1.2737 1.4768 1.6813 1.6518 2.4677 0.75 3.3695-0.647 0.647-1.1764 1.603-1.1764 2.1244 0 1.1868 29.905 0.1758 39-1.3185zm-31.25-1.7352c1.2375-0.2384 3.2625-0.2384 4.5 0 1.2375 0.2383 0.225 0.4333-2.25 0.4333s-3.4875-0.195-2.25-0.4333zm19.514-0.012c1.5201-0.2298 3.7701-0.2237 5 0.014 1.2299 0.2373-0.0137 0.4254-2.7638 0.4179-2.75-0.01-3.7563-0.2017-2.2362-0.4316zm10.467-0.9383c0.67703-0.274 2.027-0.2906 3-0.037s0.41903 0.4777-1.231 0.4981c-1.65 0.02-2.4461-0.1871-1.769-0.461zm6.019-1.0064c0.6875-0.2774 1.8125-0.2774 2.5 0s0.125 0.5044-1.25 0.5044-1.9375-0.227-1.25-0.5044zm-17.25-4.3951c-5.0116-1.0366-16.187-1.0037-19.5 0.057-1.5196 0.4866 2.5983 0.7946 10.5 0.7853 9.4474-0.011 11.907-0.2414 9-0.8427zm23.5-0.9235c0-1.9422-14.716-4.0069-21.5-3.0164l-5 0.7301 4.5 0.1803c2.475 0.099 7.425 0.7806 11 1.5144 8.1958 1.6822 11 1.833 11 0.5916zm-43.083-2.6592c0.22916-0.198-2.1333-0.3599-5.25-0.3599-3.1167 0-5.6667 0.4288-5.6667 0.9529 0 0.8589 9.8555 0.3235 10.917-0.593zm42.958-4.9849c3.8945-0.7789 3.9787-2.6751 0.28302-6.3708-4.3657-4.3658-16.572-6.6364-25.158-4.6802-2.6766 0.6098-3.1471 0.5339-2-0.3224 1.1477-0.8567 0.44307-0.9722-3-0.4918-7.3016 1.0188-13.381 3.3235-17.057 6.466-3.1726 2.7121-3.2661 2.9461-1.1926 2.9836 1.2375 0.022 2.25-0.3261 2.25-0.7742 0-0.9248 7.0334-4.4852 7.6473-3.8712 0.74216 0.7422-0.85193 3.6859-2.0043 3.7013-0.62865 0.01-0.46801 0.4515 0.35699 0.9847s4.425 1.0157 8 1.0723c3.575 0.057 8.75 0.4534 11.5 0.8817 6.4793 1.0092 16.408 1.2143 20.375 0.421zm-34.375-8.9111c1.65-0.7555 3.675-1.3598 4.5-1.3427 0.825 0.017-0.075 0.6375-2 1.3788-4.5657 1.7582-6.3621 1.7323-2.5-0.036zm-81.5 181.66c0-1.6586 2.5228-2.9405 12.847-6.5275 5.6907-1.9772 10.528-3.5949 10.75-3.5949 0.22178 0 0.40322 0.8628 0.40322 1.9173 0 1.5488-2.0669 2.6061-10.752 5.5-11.245 3.747-13.248 4.156-13.248 2.7051zm170.56-7.8813c-13.75-8.0472-17.839-11.241-14.391-11.241 1.2214 0 24.239 12.132 29.576 15.589 2.4124 1.5625 3.0608 4.4169 1 4.4023-0.6875 0-7.971-3.9423-16.185-8.75zm-172.35-67.203c-10.319-2.7099-12.967-4.0185-11.835-5.8495 0.55601-0.8997 4.2661-0.1698 19.866 3.9084 3.3842 0.8847 4.9586 3.0957 3 4.213-0.4125 0.2353-5.3764-0.7871-11.031-2.2719zm166.78-2.0379c0-1.1 0.48989-2 1.0886-2 0.59875 0 3.3471-1.9757 6.1075-4.3904 5.8735-5.138 15.593-10.22 16.95-8.8632 1.6473 1.6472-0.16998 3.9441-4.0372 5.1028-2.0825 0.6239-5.7241 2.6006-8.0924 4.3926-11.6 8.7774-12.017 8.977-12.017 5.7582zm-73.952-1260.9c-0.61327-1.1459-2.6028-2.1769-4.9736-2.5775-5.9347-1.0027-14.532-7.7288-18.374-14.375-1.514-2.6191-1.5536-3.0181-0.25-2.5179 1.0499 0.40287 1.5626-4e-3 1.591-1.2625 0.0505-2.238 3.8508 4.2696 3.9162 6.7059 0.0402 1.5004 6.0419 8.0575 6.0419 6.6011 0-0.39058 1.1908 0.0701 2.6462 1.0237 1.4554 0.95363 3.5118 1.866 4.5698 2.0274 1.5269 0.23302 1.0202-0.89311-2.4569-5.4608-4.4724-5.8752-7.773-13.684-7.7641-18.37 7e-3 -3.8993 3.5746-7.8849 7.0572-7.8849 2.3645 0 3.2726 0.71651 4.8655 3.8388 1.9229 3.7692 5.0728 18.945 5.079 24.47 2e-3 1.6174 0.4274 2.5468 1.0032 2.191 0.55-0.33992 1-2.4104 1-4.6012 0-5.2624 2.7878-18.588 4.6367-22.163 1.7278-3.3413 3.4542-4.1806 6.8473-3.3289 2.8542 0.71636 5.5204 5.2165 5.5062 9.2937-0.0146 4.1861-4.3037 12.6-9.0459 17.744-4.5467 4.9326-4.0131 5.6515 1.9402 2.6143 4.3455-2.2169 9.7289-7.9612 11.697-12.481 0.73708-1.6927 1.3578-2.4671 1.3793-1.7207 0.0228 0.78926 0.6667 1.1162 1.5391 0.78138 2.3718-0.91013 1.793 0.6269-2.4865 6.6031-4.1799 5.8372-9.6764 9.3427-16.346 10.425-2.2806 0.37009-3.667 1.2219-3.9882 2.4504-0.64303 2.459-4.3105 2.4415-5.6315-0.02678zm-0.90193-16.365c-2.1321-10.437-3.7283-14.47-6.3775-16.116-2.7573-1.7126-5.2893 1.5553-5.1734 6.677 0.1176 5.1967 2.857 10.691 8.5507 17.15 5.2986 6.0106 5.6296 5.1598 3.0003-7.7111zm10.365 8.0252c5.2879-6.129 8.4891-12.923 8.4891-18.017 0-4.6648-1.3075-6.7332-4.2562-6.7332-2.417 0-5.2964 6.4815-7.1725 16.145-2.9176 15.029-2.8283 15.29 2.9396 8.6048z"/>
</svg>
