<?xml version="1.0" encoding="UTF-8"?>
<!-- Created with Inkscape (http://www.inkscape.org/) -->
<svg width="412" height="480" version="1.1" viewBox="0 0 412 480" xmlns="http://www.w3.org/2000/svg" xmlns:cc="http://creativecommons.org/ns#" xmlns:dc="http://purl.org/dc/elements/1.1/" xmlns:rdf="http://www.w3.org/1999/02/22-rdf-syntax-ns#">
 <metadata>
  <rdf:RDF>
   <cc:Work rdf:about="">
    <dc:format>image/svg+xml</dc:format>
    <dc:type rdf:resource="http://purl.org/dc/dcmitype/StillImage"/>
    <dc:title/>
   </cc:Work>
  </rdf:RDF>
 </metadata>
 <path d="m291.41 477.12c-22.227-3.7832-41.096-10.868-57.254-21.499-6.4243-4.2264-8.3966-5.0481-11.5-4.7912-3.0279 0.25068-3.6841 0.66938-3.4235 2.1845 0.29281 1.7023-0.12032 1.8039-4.5 1.1064-2.6523-0.42237-6.1724-0.70394-7.8224-0.6257-1.65 0.0782-10.875 0.56324-20.5 1.0778-18.745 1.0021-25.889 0.49392-38.5-2.7389-10.826-2.7752-20.129-4.8718-25.25-5.6904-5.514-0.8815-5.7092 1.0366-0.25 2.4562 2.2 0.57208 5.7397 1.4901 7.866 2.0401s4.7998 1 5.941 1 2.3897 0.50918 2.7743 1.1315c1.2404 2.007-12.425-0.0216-21.94-3.257-4.8724-1.6567-13.197-5.05-18.5-7.5408-5.3026-2.4908-10.654-4.9237-11.891-5.4064-2.7512-1.0733-2.8419-3.3481-0.39093-9.7986 4.1218-10.848 11.671-16.405 22.335-16.442l5.6938-0.0198-1.544-3.5833c-6.3252-14.68-10.167-32.618-10.564-49.33-0.21024-8.8388-0.60187-11.747-1.5822-11.75-0.71651-2e-3 -5.2351 3.9339-10.041 8.7464-12.319 12.335-25.847 33.229-30.107 46.5-0.6621 2.0625-1.5404 3.75-1.9517 3.75-0.41134 0-4.1847 2.9442-8.3853 6.5427-9.1142 7.8078-13.132 8.8108-23.744 5.9266-3.5571-0.96676-9.3925-2.5366-12.967-3.4885-6.2367-1.6606-6.5687-1.908-8.1956-6.1058-1.9437-5.0151-2.2988-13.444-0.73929-17.546 2.2554-5.9323 7.1933-8.4654 15.761-8.0856 10.668 0.47304 15.052-5.1307 20.53-26.243 1.9265-7.425 4.403-15.975 5.5033-19l2.0006-5.5 0.0701 7.2008c0.1821 18.698-8.3034 40.893-19.316 50.522-3.7372 3.2678-5.5221 3.4238-8.8871 0.7769-1.3984-1.1-3.4057-2-4.4606-2-2.7439 0-6.2522 4.1363-6.9013 8.1367-0.48111 2.9648-0.19743 3.6152 2.117 4.8538 1.4699 0.78668 3.1058 2.2397 3.6352 3.2289 0.7039 1.3152 1.6412 1.6283 3.4876 1.1648 1.8959-0.47584 3.1941 4e-3 5.21 1.9274 4.8978 4.672 12.923 5.9937 21.685 3.5715 4.6057-1.2732 5.7431-2.5604 4.4302-5.0135-1.5013-2.8052-1.0895-3.8696 1.4972-3.8696 1.9668 0 2.9324-1.0674 5.0886-5.6253 1.4636-3.0939 3.3144-7.4814 4.1128-9.75 0.79841-2.2686 3.3939-6.1497 5.7677-8.6247s7.8971-9.225 12.274-15 10.266-13.531 13.087-17.236l5.1296-6.7363-2.3886-6.7637c-2.1046-5.9595-3.6336-12.224-6.533-26.764-1.3246-6.6426-2.031-28.525-1.1686-36.196 0.70011-6.2274 0.57545-7.3963-0.92584-8.6818-2.1518-1.8424-1.0896-7.2778 1.3402-6.8581 1.1434 0.19755 1.6975-1.0587 2.2055-5 0.37313-2.8951 1.1639-6.8388 1.7572-8.7638 2.2877-7.422 4.0155-12.579 4.8586-14.5 0.48263-1.1 1.5786-3.7566 2.4355-5.9035 0.85687-2.147 1.7935-3.668 2.0815-3.38 0.28794 0.28794-0.33529 2.7195-1.385 5.4035-4.9828 12.741-9.1219 34.906-9.875 52.88-0.92167 21.998 4.7798 50.025 12.776 62.806l3.007 4.8059 5.9621-4.9818c10.952-9.1513 23.889-14.747 32.231-13.942 2.7844 0.26878 2.0657 0.70285-5.1778 3.1269-11.186 3.7434-17.257 6.9197-21.681 11.344-11.201 11.201-11.712 31.975-1.2958 52.67 9.5052 18.885 23.93 33.672 32.848 33.672 1.6719 0 3.0398 0.45 3.0398 1s-1.0125 1.01-2.25 1.0222l-2.25 0.0222 2.5 1.9756c1.375 1.0866 5.0788 2.9337 8.2306 4.1047 5.48 2.036 7.1474 4.689 2.1603 3.4373-1.315-0.33005-2.3909-0.16416-2.3909 0.36865 0 0.5328 2.7 1.4999 6 2.1492 8.3154 1.636 7.6561 3.9202-1.1314 3.9202-4.5646 0-8.3562-1.7261-11.733-5.3417-1.9088-2.0435-2.7035-2.3203-4.121-1.435-2.1805 1.3618-5.2156-0.67191-16.5-11.056-8.9892-8.2717-14.11-11.167-19.751-11.167-4.0074 0-9.7625 2.3524-9.7625 3.9905 0 1.2893 2.7928 2.6187 7.1534 3.4051 2.0094 0.36236 3.9078 1.3216 4.2186 2.1316 0.72082 1.8784-0.70418 1.8695-4.3722-0.0273-4.0131-2.0752-12.408-0.33293-14.613 3.0329-2.3853 3.6405-1.429 6.5813 2.6135 8.0368 20.725 7.4622 22.88 8.1636 36.824 11.985 16.194 4.4374 33.307 6.644 50.676 6.5344 15.167-0.0957 21.737-0.85678 21.226-2.4587-0.43003-1.3467-6.2085-4.3506-9.7258-5.0559-3.4674-0.69526-27.215-18.808-30.196-23.031-2.795-3.9598 5.7373 0.56762 16.408 8.7064 15.115 11.528 25.315 16.306 37.186 17.419l6.8979 0.64631-0.68742-2.7389c-0.37809-1.5064-2.2511-5.0121-4.1622-7.7904-3.4797-5.0586-5.1838-9.381-4.1184-10.446 0.31235-0.31235 2.365 2.2961 4.5614 5.7966 5.7488 9.1618 8.2352 12.14 9.2709 11.104 0.4926-0.4926 1.3477-3.7025 1.9002-7.1332 0.97883-6.078 2.6452-10.107 4.1803-10.107 1.1812 0 0.90682 1.9706-1.2529 9-2.4982 8.1312-1.9196 10.925 3.2247 15.573 8.1788 7.389 25.278 12.891 43.768 14.082 10.08 0.64957 10.328 0.72019 6.5 1.8482l-3.9799 1.1729 4.5 1.3267c5.1102 1.5066 23.796 1.8741 37.874 0.74489 8.342-0.66912 9.2346-0.58389 8.1075 0.77416-1.9787 2.3842-0.52478 2.8075 5.0497 1.4702 4.2636-1.0228 5.0554-1.5533 4.6474-3.1136-0.60217-2.3027 3.5785-5.8789 6.8725-5.8789 3.0677 0 16.581-9.1476 20.114-13.616 1.5592-1.9719 6.0788-6.875 10.044-10.896 4.1807-4.2398 7.4702-8.503 7.8313-10.149 0.34241-1.5612 1.0677-4.0209 1.6118-5.4659 1.5088-4.0072 2.5261-21.553 1.6736-28.866-1.3458-11.545-4.2902-21.116-12.307-40.007-7.2195-17.011-9.0397-22.568-10.574-32.282-2.2165-14.035 0.85031-29.647 6.0932-31.018 2.4043-0.62874 2.4127-0.89179-0.15924 4.9666-1.4788 3.3684-2.2736 7.7198-2.623 14.36-0.57087 10.851 1.6252 21.201 8.6426 40.731 7.341 20.431 10.102 25.903 10.102 20.019v-2.2225l1.4891 2.126c2.8894 4.1252 4.4809 14.394 4.4961 29.01 9e-3 8.3986-0.39339 14.443-0.98522 14.809-0.55 0.33992-1.0096 2.054-1.0213 3.809-0.0293 4.3929-5.3503 19.758-7.3481 21.219-0.89683 0.65578-1.6306 2.1997-1.6306 3.431 0 3.4571-2.9489 8.8683-6.0277 11.061-3.3346 2.3745-3.9723 2.4516-3.9723 0.48031 0-0.825-0.27675-1.5-0.615-1.5s-4.3996 3.5824-9.0252 7.9609c-9.673 9.1563-18.08 13.721-28.86 15.669-8.8953 1.6075-35.693 1.519-45.5-0.15019zm0.5-32.48c-13.832-2.0333-23.38-7.751-27.888-16.7-2.916-5.7894-1.402-16.03 1.9578-13.242 0.78664 0.65285 1.4303 2.5138 1.4303 4.1354 0 4.0982 8.1774 15.355 12.865 17.709 8.6196 4.3297 24.904 5.8835 35.62 3.3987 9.2575-2.1466 19.819-7.709 25.888-13.635 5.6718-5.5375 11.627-15.852 11.627-20.138 0-1.5809 0.56216-2.5285 1.5-2.5285 0.825 0 1.5 0.675 1.5 1.5 0 3.3299 2.0158 1.1858 3.4613-3.6815 1.9237-6.4777 1.9397-12.025 0.0654-22.675-1.4001-7.9555-5.5867-23.364-7.5108-27.643-0.49463-1.1-1.2092-3.567-1.588-5.4823-0.37879-1.9153-1.4779-5.9653-2.4424-9-0.96454-3.0347-2.0394-6.7552-2.3886-8.2677s-1.2832-2.75-2.0757-2.75c-2.9591 0-3.9074-7.1362-2.6892-20.237 1.3333-14.338 3.6083-22.96 8.7082-33.002 12.8-25.203 32.003-36.959 47.96-29.361 9.6266 4.5839 11.293 7.583 2 3.5996-8.8189-3.7802-17.065-2.0586-24.292 5.0716-1.8107 1.7864-5.8216 7.089-8.9131 11.783-3.0915 4.6944-7.2784 10.135-9.3042 12.09-2.4258 2.3413-4.5634 5.9444-6.2617 10.555-5.7212 15.532-6.1429 25.214-1.6831 38.638 1.7874 5.3801 2.8275 10.241 2.5174 11.765-0.57798 2.8405 1.714 11.682 5.858 22.597 8.5787 22.596 8.6979 43.473 0.3289 57.623-6.3289 10.701-21.448 21.704-35.492 25.829-7.8546 2.3075-22.402 3.276-30.758 2.0477zm-34.483-8.6035c-5.1069-4.6138-9.4064-12.16-11.621-20.396-0.96114-3.575-2.135-7.016-2.6086-7.6468-1.1229-1.4954-4.2087-0.65035-6.3778 1.7465-1.8727 2.0693-4.4098 2.5437-4.4098 0.82464 0-0.59161 1.1831-2.0541 2.6291-3.25 6.8728-5.684 7.371-6.415 6.7231-9.8656-0.3417-1.8198-2.1391-9.3036-3.9942-16.631-1.8551-7.3271-4.033-17.403-4.8397-22.391-0.80674-4.9879-1.7282-9.3304-2.0477-9.6499s-2.6936-0.69964-5.2758-0.84474c-5.3809-0.30237-13.107-2.1481-14.945-3.5702-2.6568-2.0558-0.95111-2.7229 7-2.7377 11.212-0.0208 11.668-0.3952 9.3693-7.6826-6.2768-19.898-10.671-28.833-30.784-62.599-3.2096-5.3881-5.8355-10.056-5.8355-10.372 0-2.4101 10.5 11.993 18.167 24.921 10.246 17.276 18.349 36.16 21.319 49.683 0.49502 2.2538 1.1708 2.9587 2.675 2.7905 1.8864-0.21098 2.032 0.43367 2.3214 10.275 0.21736 7.3902 1.0756 13.314 2.8977 20 1.4239 5.225 3.9379 14.45 5.5867 20.5s3.0059 11.309 3.0157 11.687c0.01 0.37765 1.3792 0.82765 3.043 1 3.3091 0.34277 4.156 2.1063 1.2776 2.6604-2.948 0.56752-3.197 1.3908-2.1457 7.0942 1.2394 6.7238 4.7712 13.841 10.481 21.121 2.3993 3.0592 4.3624 5.8717 4.3624 6.25 0 1.5626-2.2276 0.47692-5.983-2.9159zm14.006-15.396c-0.0118-1.375 0.67717-5.8486 1.531-9.9413 3.6122-17.314 5.0228-53.128 2.5627-65.059-3.2397-15.711-6.5334-23.177-13.428-30.435l-4.8111-5.065 0.62163 7.25c0.7111 8.2935-0.56985 9.6138-3.1269 3.2231-0.88618-2.2148-2.542-4.6788-3.6796-5.4756-1.8353-1.2855-2.1559-2.9301-2.8446-14.592-0.91739-15.535-3.4628-26.288-8.8542-37.406-4.7196-9.7323-8.5305-14.629-9.8434-12.647-1.2858 1.941-3.9521 0.27385-9.5892-5.996-8.7596-9.7428-8.3943-12.306 0.4726-3.3154 4.1486 4.2064 5.9763 5.4146 7.584 5.014 2.53-0.63044 10.38 7.1568 14.762 14.643 3.7759 6.4516 8.1587 19.743 10.273 31.154 1.4189 7.6574 2.3399 10.175 4.6962 12.837 1.6122 1.8211 4.4553 5.6712 6.3182 8.5556 1.8629 2.8845 5.3998 7.7156 7.8598 10.736 2.46 3.0203 4.4728 6.1462 4.4728 6.9465 0 0.80031 0.40277 1.704 0.89503 2.0083 2.2414 1.3853 4.3804 19.33 4.3585 36.565-0.0277 21.814-3.8292 45.223-8.282 51l-1.927 2.5-0.0214-2.5zm-84.57-83.815c-8.5311-8.4126-10.668-9.9964-14.953-11.084-6.9168-1.7548-9.5-2.8766-9.5-4.1251 0-1.4758 6.0799-0.2724 13.545 2.6809 7.1478 2.8278 14.983 9.3731 19.331 16.149 6.0353 9.4052 3.8233 8.454-8.4224-3.6215zm-105.83 6.0651c0.36156-1.5125 1.0451-3.5079 1.519-4.4343s0.86167-3.0373 0.86167-4.691c0-3.2897 1.4642-4.9634 2.3417-2.6767 1.2922 3.3673-2.0793 14.552-4.3864 14.552-0.57637 0-0.71741-1.1544-0.33598-2.75zm-33.869-18.828c-2.2412-2.2582 0.25536-23.883 5.6853-49.245 1.738-8.1177 5.4337-19.907 8.7478-27.905 2.1588-5.2097 2.16-5.2575 0.37315-14.5-2.4148-12.49-3.1576-32.286-1.5656-41.72 1.117-6.6197 1.6964-7.8697 5.2146-11.25 2.1769-2.0916 4.3272-3.8028 4.7786-3.8028s1.2894-1.3447 1.8623-2.9883c1.4001-4.0163 5.722-10.139 12.795-18.128 3.3188-3.7483 7.7969-10.468 10.33-15.5 2.4594-4.8859 6.9085-13.158 9.887-18.383 2.9785-5.225 6.0687-10.752 6.8672-12.281s3.2304-5.3547 5.4041-8.5 5.0216-7.2937 6.3285-9.2187c4.6855-6.9013 10.187-12 12.948-12 1.4506 0 5.4774-1.2877 8.9484-2.8615 8.6135-3.9056 10.645-7.2522 10.645-17.535 0-6.4919 0.4454-8.5332 2.9199-13.382 3.8793-7.6014 6.1222-10.481 16.904-21.7 5.0144-5.2176 10.011-11.239 11.104-13.381 2.6326-5.1604 6.1433-6.4347 11.275-4.0924 5.29 2.4145 9.2157 13.452 10.313 28.995 1.2201 17.289 2.5471 19.207 19.204 27.763 8.1303 4.1763 11.06 6.3217 15.27 11.18 2.8648 3.3069 5.7785 6.0125 6.4749 6.0125 3.2415 0 6.3155 4.0906 7.9431 10.57 1.3763 5.4789 1.5448 9.3163 0.97247 22.145l-0.69227 15.518-3.3437 1.3971c-3.7957 1.586-3.9193 2.0568-1.8437 7.0245 2.4274 5.8096 1.9699 8.6389-1.75 10.821-1.7875 1.0486-7.6645 5.2902-13.06 9.426l-9.81 7.5196-9.3351 0.0396c-7.4487 0.0316-9.7258 0.39322-11.269 1.7896-2.5837 2.3383-3.5562 2.2075-2.7386-0.36831 0.92346-2.9096-1.3126-2.0636-3.9767 1.5045-1.9348 2.5912-2.0658 4.1634-2.1423 25.694l-0.0815 22.934 2.7202 4.7431c1.4961 2.6087 4.613 6.8858 6.9265 9.5045 3.7758 4.2741 3.94 4.6601 1.6045 3.7722-4.81-1.8288-8.073-3.8272-10.513-6.4385-3.4828-3.728-6.0717-3.4496-6.091 0.65499-0.0177 3.7609-1.3145 6.2822-2.7688 5.3834-0.66646-0.41189-0.68075-1.8944-0.0422-4.3781 0.531-2.0654 1.2091-4.7548 1.507-5.9765 0.42208-1.7314-1.2593-4.3144-7.6255-11.715-4.4918-5.2215-10.407-10.945-13.145-12.719-3.0998-2.0086-4.7804-3.7407-4.4542-4.5908 0.33068-0.86174-0.57869-1.7495-2.4661-2.4074-3.4163-1.1909-3.9755-2.8466-0.9614-2.8466 3.9748 0 14.547 6.3677 21.14 12.733 3.6842 3.5568 7.1589 6.1825 7.7215 5.8348 0.56358-0.34832 0.93013-3.535 0.81634-7.0969-0.16793-5.2565-0.51496-6.4653-1.8568-6.4678-1.1666-2e-3 -2.012-1.5419-2.8844-5.2531-1.8809-8.0012-7.4265-18.93-12.975-25.57-2.7448-3.2849-4.9906-6.2442-4.9906-6.5762 0-1.6253 2.6134-0.23289 5.6944 3.0339 2.3749 2.5182 3.7506 3.3175 4.4706 2.5975 0.71994-0.71994 1.6678-0.53146 3.0802 0.61252 6.786 5.4962 8.8374 7.6333 9.3721 9.7639 0.86742 3.4561 2.1363 2.9373 3.3301-1.3614 2.3805-8.5717 0.89279-17.021-7.2437-41.139-4.45-13.191-5.8503-18.515-4.9537-18.833 0.87265-0.31019 1.25-3.1219 1.25-9.3139 0-9.1035 1.129-13.415 3.7786-14.432 2.4088-0.92435 2.4431-0.12634 0.27137 6.3203-3.2265 9.5776-2.8684 14.184 2.4216 31.148 4.9979 16.028 6.5088 22.511 7.1657 30.75 0.36181 4.5375 0.9717 8.25 1.3553 8.25 1.1383 0 3.719-3.3298 4.4566-5.75 0.71435-2.3441 2.9635-3.0094 4.078-1.2062 0.35481 0.5741 0.0922 1.71-0.58348 2.5242-0.67573 0.8142-0.9855 1.7234-0.68839 2.0206 0.29711 0.29711 4.3458 0.59232 8.9972 0.65601 7.4884 0.10256 8.9815-0.19157 13.037-2.5682 7.1262-4.1762 10.096-9.4224 11.207-19.798 0.68002-6.35 0.77213-6.5112 5.6656-9.9168 2.7358-1.9041 6.4061-4.6628 8.1562-6.1306l3.1819-2.6686-2.25-2.3958c-2.7612-2.9402-2.7675-3.3428-0.1437-9.2743 1.5722-3.5543 1.9426-5.8052 1.4606-8.8771-1.325-8.4455-4.7902-15.594-8.5287-17.595-1.585-0.84824-2.0446-0.29693-3.5242 4.2265-2.008 6.1392-5.9234 11.379-11.274 15.086-6.0273 4.1769-20.147 7.2447-21.709 4.7168-0.82883-1.3411 2.7667-3.0502 6.4168-3.0502 1.6936 0 3.8607-0.41089 4.8157-0.91309 0.95504-0.50221 4.3469-2.1215 7.5374-3.5985 4.0578-1.8785 6.5809-3.8639 8.3963-6.6072 1.4274-2.157 2.3716-4.1456 2.0982-4.419-0.5236-0.5236-8.5795 1.3414-20.295 4.6986-18.093 5.1844-24.835 11.511-24.676 23.154 0.0888 6.5236-1.7545 5.665-4.048-1.8854-1.6661-5.4851-1.6875-6.4458-0.2853-12.817 2.35-10.677 6.9158-16.373 16.26-20.285 4.8482-2.0294 16.813-1.9576 20.806 0.12478l2.9432 1.5348-6 0.018c-11.666 0.0351-24.012 5.2198-27.551 11.57-2.0522 3.683-3.4405 9.4246-2.2787 9.424 0.45621-2.7e-4 2.7724-2.2567 5.1472-5.0142 5.1603-5.9922 9.3329-8.205 18.682-9.9076 11.963-2.1787 18.807-4.1598 21.846-6.3241 2.8029-1.9959 2.8461-2.1414 1.0392-3.4997-9.656-7.2588-29.22-12.541-34.376-9.2808-1.3048 0.82495-1.2717 1.313 0.26588 3.9159 0.988 1.6726 1.3487 3.2255 0.8245 3.5494-1.6234 1.0033-5.8862-1.2305-8.1239-4.2571-1.2325-1.667-3.835-3.4217-6.0671-4.0904-4.0968-1.2274-5.4234-4.0908-1.8952-4.0908 1.1075 0 2.8923-0.54875 3.9662-1.2195 1.6678-1.0416 2.359-0.83014 4.7384 1.4494 2.5996 2.4906 3.0862 2.6002 7.2838 1.6407 2.4739-0.56548 6.6356-0.75223 9.2481-0.41499 2.8522 0.36818 4.75 0.22165 4.75-0.36676 0-0.53895-3.057-2.5864-6.7934-4.5498-8.7748-4.611-10.201-7.0083-10.226-17.193-0.024-9.5217-1.3933-19.52-3.5627-26.015-1.7588-5.2655-5.8658-10.331-8.3767-10.331-3.1431 0-8.7166 5.966-12.989 13.903-2.7035 5.0229-6.408 10.035-9.762 13.207-7.0014 6.6217-10.29 11.891-10.29 16.487 0 4.0116 0.21547 4.0421 7.1965 1.0209 4.7446-2.0534 6.1674-0.26418 1.7031 2.1417-4.525 2.4385-10.9 8.2034-10.9 9.857 0 1.8489 0.98685 1.7538 7.1949-0.69319 7.2286-2.8492 14.678-4.0887 18.305-3.0455l3 0.8629-3 0.7896c-4.2422 1.1165-9.9475 4.2019-12.035 6.5081-1.8564 2.0513-5.4654 2.6864-5.4654 0.9618 0-2.2945-4.1369-0.69107-10.118 3.9216-3.51 2.7069-7.6456 5.2373-9.1903 5.6231-1.5446 0.38581-4.0196 2.0305-5.5 3.6548-1.4804 1.6243-3.723 4.0833-4.9836 5.4644-1.7841 1.9546-2.5959 2.259-3.663 1.3734-1.9104-1.5855-5.4752 2.3903-11.174 12.463-2.4895 4.4-5.1664 8.3599-5.9486 8.7997-0.78221 0.43983-1.4222 1.5294-1.4222 2.4213s-0.58544 2.332-1.301 3.2003c-0.71554 0.86831-1.8656 3.8163-2.5556 6.551-1.5199 6.0235-1.9407 6.5254-3.5854 4.2762-1.8407-2.5173-2.2359-2.2651-4.5112 2.8787-2.5088 5.6715-2.5086 5.6542-0.0468 4.8729 3.2842-1.0424 2.331 0.83046-4.1237 8.1016-3.368 3.7941-7.8357 9.1484-9.9282 11.898-8.7342 11.479-12.44 16.212-15.604 19.93-2.4245 2.8493-3.3471 4.9117-3.355 7.5-6e-3 1.9635-0.6656 5.728-1.4659 8.3656-0.80029 2.6376-1.1961 6.0904-0.87957 7.6731 0.44545 2.2272 0.0987 3.1752-1.5341 4.195-2.3775 1.4848-2.6287 5.2159-1.4599 21.683 0.61674 8.6886 0.76626 9.1536 2.9433 9.1536 1.2615 0 2.9941-1.0001 3.8503-2.2225 2.3631-3.3738 2.0637 0.30836-0.42105 5.1789-2.1875 4.2878-2.7502 8.3694-1.6261 11.794 0.83052 2.5299-1.0811 3.2346-2.0345 0.75-2.4765-6.4537-8.9905 7.846-11.844 26-0.86444 5.5-2.0096 12.438-2.5448 15.417s-0.97307 6.901-0.97307 8.715-0.7199 5.4187-1.5998 8.0103-1.8924 7.5974-2.25 11.124-0.98773 6.0719-1.4002 5.6563zm121.79-87.996c-4.3141-4.9097-10.964-13.112-14.778-18.227-5.3695-7.2021-7.2281-9.0564-8.2376-8.2186-1.9027 1.5791-7.2314-6.05-9.2414-13.231-0.88522-3.1625-2.0484-5.75-2.5849-5.75s-3.1184 1.3186-5.7377 2.9302c-4.2436 2.6111-4.8119 2.7401-5.2188 1.1842-0.35739-1.3667-1.2505-1.6533-4.111-1.3194-4.3782 0.51113-9.5238 5.8705-14.097 14.682-3.7716 7.2677-4.5349 5.5708-0.97115-2.1589 1.4754-3.2001 3.5116-7.7308 4.525-10.068 1.1795-2.7207 2.485-4.2515 3.628-4.2541 0.98205-2e-3 4.2605-1.5617 7.2855-3.4654 11.507-7.2415 14.33-8.1933 22.75-7.6702 3.5795 0.22237 2.9991 4.04-0.72757 4.7853-5.63 1.126-5.649 2.6244-0.13417 10.563 2.7857 4.0101 8.7014 11.791 13.146 17.291 13.807 17.086 23.081 29.655 22.706 30.777-0.19729 0.59186-3.8884-2.9409-8.2025-7.8506zm-96.538-36.345c0-2.9805 1.078-5.0818 2.607-5.0818 1.7574 0 1.7436 0.42133-0.13266 4.0497-1.7718 3.4262-2.4743 3.7193-2.4743 1.0321zm52.632-28.6c-2.723-7.0959-1.1028-21.797 3.7735-34.24 1.341-3.4217 2.0567-6.457 1.5906-6.7451-1.3666-0.84463-9.4901 2.287-16.015 6.1738-3.3237 1.9799-6.3096 3.3333-6.6354 3.0075-1.2863-1.2863 0.83503-3.8579 5.3236-6.4535 2.5919-1.4988 6.1715-4.1876 7.9547-5.9751 1.9278-1.9324 4.254-3.25 5.7379-3.25 3.1657 0 5.3721-2.2125 7.7585-7.7798 3.2093-7.487 11.901-19.072 19.699-26.258 9.8758-9.1 22.318-15.268 36.931-18.307 3.3315-0.69291 2.8398 1.9884-0.70034 3.8191-1.6227 0.83912-3.9852 1.5335-5.25 1.543-4.6921 0.03543-15.682 2.8972-17.897 4.6604-10.48 8.342-19.283 19.394-27.902 35.028-2.7743 5.0323-2.1867 6.1526 5.1871 9.8892 2.647 1.3414 4.8128 3.0717 4.8128 3.8453s1.125 2.7434 2.5 4.3775c4.9862 5.9258 2.0394 5.7405-5.0517-0.31763-5.9233-5.0604-9.038-5.6301-12.226-2.2364-4.2188 4.4907-5.5071 9.5623-6.2337 24.539-0.65201 13.44-1.8396 18.633-3.3568 14.679zm41.443-24.057c-5.5373-5.3711-9.8862-9.9471-9.6643-10.169 1.437-1.437 15.208 10.18 19.089 16.103 3.6907 5.6328 0.29768 3.4964-9.4247-5.9342zm35.12-2.925c0.0204-1.65 0.2445-2.2039 0.49804-1.231s0.23687 2.323-0.0371 3c-0.27393 0.67703-0.48137-0.11903-0.46099-1.769zm5.884-8.0833c0.048-1.165 0.28494-1.4019 0.60416-0.60417 0.28887 0.72187 0.25335 1.5844-0.0789 1.9167-0.3323 0.33229-0.56864-0.25834-0.52522-1.3125zm-5.8443-8.914c-1.7959-0.78046-3.516-2.0722-3.8224-2.8706-0.80479-2.0973 2.2078-7.3768 4.6521-8.1525 3.4338-1.0898 3.373 0.23365-0.15873 3.4594-3.9658 3.6222-3.0282 5.8748 1.4732 3.5395 2.6162-1.3573 2.7745-1.3363 2.0817 0.27628-0.41235 0.95989-0.7811 2.5328-0.81946 3.4953-0.0384 0.9625-0.0858 1.7324-0.10545 1.7109-0.0196-0.0215-1.5051-0.67771-3.301-1.4582zm35.86-2.2527c-0.71869-2.0625-3.0428-6.5625-5.1647-10-2.3773-3.8513-3.3557-6.25-2.5492-6.25 0.71984 0 2.1377 0.91587 3.1507 2.0353 1.013 1.1194 2.49 1.7866 3.282 1.4826 2.3651-0.90759 7.2246 7.1444 7.1542 11.854-0.0296 1.9818-0.12303 2.0077-1.3602 0.37788-1.9546-2.5749-2.6359-2.1399-1.958 1.25 0.85298 4.2649-0.99666 3.7219-2.5549-0.75zm-29.526-6.4686c2.3647-3.3286 3.4566-3.5017 3.3524-0.53142-0.0434 1.2375-0.31509 1.66-0.60371 0.93887-0.40431-1.0102-1.0017-0.8954-2.6024 0.5l-2.0776 1.8111zm-25.501-13.731c-0.0516-2.6298 0.20986-3.1725 1.0997-2.2826 0.86315 0.86315 0.88079 1.7622 0.0677 3.45-1.0328 2.1437-1.1038 2.0726-1.1674-1.1674z"/>
</svg>
