<?xml version="1.0" encoding="UTF-8"?>
<!-- Created with Inkscape (http://www.inkscape.org/) -->
<svg width="486" height="490" version="1.1" viewBox="0 0 486 490" xmlns="http://www.w3.org/2000/svg" xmlns:cc="http://creativecommons.org/ns#" xmlns:dc="http://purl.org/dc/elements/1.1/" xmlns:rdf="http://www.w3.org/1999/02/22-rdf-syntax-ns#">
 <metadata>
  <rdf:RDF>
   <cc:Work rdf:about="">
    <dc:format>image/svg+xml</dc:format>
    <dc:type rdf:resource="http://purl.org/dc/dcmitype/StillImage"/>
    <dc:title/>
   </cc:Work>
  </rdf:RDF>
 </metadata>
 <path d="m227.8 398.62c-5.3537-0.6772-12.256-3.6648-11.111-4.8095 0.23687-0.23687 4.7332 0.0491 9.9918 0.63546 38.599 4.304 76.65-4.6321 110.76-26.012 4.3194-2.707 8.0767-4.9218 8.3496-4.9218 0.27293 0-0.3484 1.3889-1.3807 3.0864-5.5604 9.1434-40.546 24.764-63.594 28.393-5.5 0.86607-12.475 2.0207-15.5 2.5659-7.5072 1.353-30.155 1.9945-37.521 1.0628zm33.926-12.358-1.905-2.25 2.5 1.9893c1.375 1.0941 2.6875 2.1066 2.9167 2.25 0.22916 0.14336-0.0386 0.26066-0.59502 0.26066s-1.8689-1.0125-2.9167-2.25zm3.4316-1.6251c-0.91489-0.34368-3.6149-2.8749-6-5.6249-2.3851-2.75-4.6488-5.1416-5.0304-5.3146-0.38161-0.17303-0.42241-1.073-0.0907-2 0.33173-0.92696 0.25872-1.3752-0.16224-0.996-0.42097 0.37917-1.821-0.29583-3.1112-1.5-4.3835-4.0912-5.4661-4.7926-6.4547-4.1816-0.54306 0.33563-0.98738 0.18182-0.98738-0.34179 0-0.52362 0.70529-1.2227 1.5673-1.5535 1.0752-0.41257 4.5995 2.3965 11.223 8.9454 8.3836 8.2888 9.989 9.4633 12.183 8.9133 1.3897-0.34841 3.2926-1.3845 4.2286-2.3024 0.9361-0.91788 2.4019-2.2522 3.2574-2.9652 1.0642-0.88696 1.3515-2.1502 0.90975-4-0.91254-3.8211-0.80759-3.7232-6.0865-5.6785-9.1771-3.3993-30.283-15.299-30.283-17.074 0-0.2639 1.6875 0.64773 3.75 2.0258 5.2698 3.5212 13.607 7.9618 14.5 7.7235 0.4125-0.11002 0.75 0.32496 0.75 0.96663 0 0.64166 0.27857 0.88809 0.61905 0.54762 0.34047-0.34048 1.2985 0.0604 2.1289 0.89084s2.1269 1.2731 2.881 0.98377c0.75408-0.28937 1.3711-0.0637 1.3711 0.5015s0.45 0.74952 1 0.4096 1-0.14148 1 0.44098 0.62356 1.059 1.3857 1.059 2.6424 0.65197 4.1783 1.4488c1.5359 0.79685 3.2319 1.1773 3.7688 0.84549 0.5412-0.33448 0.65825-0.0889 0.26268 0.55118-0.39971 0.64675-0.13781 1.1612 0.59549 1.1698 0.95119 0.0111 0.89899 0.2803-0.19098 0.98469-1.2641 0.8169-1.2079 0.97178 0.35699 0.98469 1.2369 0.0102 1.6648 0.51617 1.2814 1.5153-0.31658 0.825-0.0272 1.5143 0.64301 1.5318 0.71298 0.0186 0.49975 0.57771-0.51389 1.3475-1.6035 1.2176-1.5476 1.3999 0.75 2.4468 2.4738 1.1272 3.556 5.174 1.3836 5.174-0.60438 0-2.6713 0.74618-4.5932 1.6582-1.9806 0.93984-3.7789 1.2648-4.1511 0.75-0.73007-1.0095-4.1105-1.1566-5.658-0.2461-0.54934 0.32321-1.7474 0.30647-2.6622-0.0372zm-13.758-10.708c0.048-1.165 0.28494-1.4019 0.60416-0.60417 0.28887 0.72187 0.25335 1.5844-0.0789 1.9167-0.3323 0.33229-0.56864-0.25834-0.52522-1.3125zm-110.84-9.3585c-11.662-8.7872-22.238-18.991-31.085-29.989-7.4265-9.2327-18.815-26.74-17.954-27.601 0.59693-0.59692 9.4901 9.8072 16.269 19.032 7.5475 10.272 27.987 30.556 37.284 37 3.9674 2.75 7.0716 5.45 6.8981 6-0.76449 2.4246-3.9394 1.1888-11.412-4.4418zm104.97 4.341c-0.70918-0.76953-0.84824-1.3991-0.30901-1.3991 1.0384 0 2.5417 1.9022 1.9486 2.4657-0.19258 0.18294-0.93038-0.297-1.6396-1.0665zm-4.2106-7.5658c0-0.64166-0.29182-0.87485-0.64848-0.51818-0.35666 0.35666-1.511-0.34605-2.5652-1.5616-3.0799-3.5511-0.0134-3.4422 3.5551 0.12625 2.4232 2.4232 2.7336 3.1202 1.3894 3.1202-0.95192 0-1.7308-0.525-1.7308-1.1667zm-20.5-13.463c-26.007-22.878-38.842-33.092-58.521-46.568-1.3634-0.93365-1.9668-1.7212-1.341-1.75 1.2272-0.0566 7.7962 4.278 18.74 12.365 3.7825 2.7953 7.2566 4.9744 7.7201 4.8423 0.46356-0.13202 1.2766 0.57036 1.8066 1.5608 0.5301 0.99049 4.481 4.679 8.7799 8.1968s12.737 10.69 18.752 15.939c8.6878 7.5811 11.563 9.5433 13.986 9.5433 2.1833 0 3.1522 0.53092 3.4097 1.8684 0.22353 1.1607-0.0554 1.6118-0.73631 1.191-1.4747-0.91142-1.3982 0.73849 0.10387 2.2406 0.66 0.66 0.7725 1.1836 0.25 1.1636-0.5225-0.02-6.35-4.7868-12.95-10.593zm15.127 1.9017c0.27202-1.5001 0.75866-2.9626 1.0814-3.25 0.32276-0.28739 0.33753 0.48997 0.0328 1.7275-0.30472 1.2375-0.1196 2.25 0.41137 2.25s0.68728 0.45 0.34736 1c-1.2263 1.9842-2.3569 0.94137-1.873-1.7275zm-6.1692-0.3407c-0.3631-0.5875-1.2896-0.82662-2.059-0.53139-0.80714 0.30973-1.3988-0.0844-1.3988-0.93182 0-0.80774-0.45-1.4686-1-1.4686s-1-0.45-1-1c0-1.9596 4.1808-1.0247 4.725 1.0566 0.30748 1.1758 1.1021 1.84 1.8554 1.5509 0.83699-0.32119 1.1148 0.023 0.76159 0.94344-0.66364 1.7294-1.0078 1.799-1.8842 0.3809zm-81.458-3.4922c-2.475-1.2912-6.1203-2.8176-8.1006-3.392-8.1626-2.3674-30.752-28.417-37.114-42.8-3.5554-8.0375-0.6253-6.3398 3.6047 2.0887 2.323 4.6286 5.4355 9.8558 6.9166 11.616s2.6931 3.6035 2.6931 4.0961c0 1.5897 22.247 22.951 23.901 22.95 2.609-2e-3 13.072 5.3957 13.086 6.7515 7e-3 0.6875-0.0994 1.2021-0.23686 1.1436-0.1375-0.0585-2.275-1.1628-4.75-2.454zm83.459-0.50615c-0.36253-0.58659-0.44468-1.281-0.18255-1.5431 0.26212-0.26213 0.74306 0.21781 1.0688 1.0665 0.67618 1.7621 0.0999 2.0721-0.8862 0.4766zm136.4-1.4447c0.52651-1.1062 1.9482-2.9062 3.1594-4 3.2022-2.892 10.959-12.86 16.722-21.489 10.923-16.356 20.825-40.26 24.855-60 2.0673-10.128 2.9665-11.564 3.8746-6.1892 1.5976 9.4558-7.5427 36.777-19.266 57.587-5.7332 10.177-8.409 13.648-18.502 24-6.49 6.656-11.369 11.197-10.843 10.091zm-147.33-2.4134c-0.36228-1.1414-1.0784-2.0754-1.5913-2.0754-0.51293 0-0.93261-0.3876-0.93261-0.86133s1.1145-0.64828 2.4766-0.38789c1.727 0.33014 2.3906 1.037 2.1924 2.3356-0.43429 2.8457-1.4127 3.2968-2.1451 0.98902zm12.349 0.26092c-1.2445-1.5086-1.1627-1.5519 0.87756-0.46482 2.327 1.2399 2.8999 2.1285 1.3724 2.1285-0.48265 0-1.4952-0.74867-2.25-1.6637zm-12.872-7.9309c-5.775-3.6145-11.175-7.2728-12-8.1295-1.9101-1.9835-1.5466-1.7784 11.452 6.4609 9.2974 5.8932 12.624 8.2803 11.498 8.2518-0.2475-6e-3 -5.175-2.9687-10.95-6.5832zm26.274-16.39-3.2257-1.739 11.226-0.52345c36.841-1.7179 68.147-22.695 83.772-56.135 2.0866-4.4654 4.5938-11.137 5.5716-14.827 1.402-5.2896 2.0532-6.4796 3.0799-5.6276 1.8734 1.5548 1.6187 4.5545-1.0539 12.411-12.177 35.794-43.923 62.185-81.008 67.343-10.205 1.4194-14.443 1.2112-18.362-0.90188zm-33.422-5.3605c-14.828-6.167-25.61-13.808-29.172-20.674l-2.6356-5.08 5.7277 4.8988c10.802 9.2384 20.29 14.677 33.728 19.331 5.9258 2.0525 7.2222 2.7872 5 2.8334-1.65 0.0343-3.9 0.28226-5 0.55094s-4.5414-0.5685-7.6476-1.8604zm164.15-6.1202c0-0.84435 0.37396-1.5352 0.83102-1.5352s1.4682-1.2375 2.247-2.75 2.8798-4.8287 4.669-7.3694 3.253-5.1345 3.253-5.764c0-1.4888 4.2751-8.0881 5.25-8.1042 1.3578-0.0224 0.73965 2.444-1.25 4.9876-1.0755 1.375-1.9655 3.012-1.9778 3.6378-0.0122 0.62578-1.4919 3.3258-3.2882 6-1.7963 2.6742-3.916 6.1346-4.7104 7.6896-1.7591 3.4432-5.0236 5.5278-5.0236 3.2078zm-209.25-4.0697c-2.6125-1.9167-4.75-3.7056-4.75-3.9752 0-1.3823 2.2735-0.0788 6.1219 3.5097 5.2567 4.9018 4.8588 5.0368-1.3719 0.46549zm1.4533-2.8946c-4.392-3.1055-5.4614-4.4333-1.7033-2.1149 5.1962 3.2055 6.9768 4.5456 5.9725 4.495-0.53488-0.027-2.456-1.098-4.2692-2.38zm70.338 1.3171c-4.1161-0.5997-9.6101-2.7274-17.769-6.8812-14.449-7.3568-15.773-8.1705-15.773-9.6966 0-0.68217 3.0528 0.52122 7.0079 2.7624 17.937 10.164 30.699 14.17 38.497 12.084 2.5689-0.68704 2.0715-1.0344-5.8885-4.1118-4.782-1.8487-10.71-4.9315-13.173-6.8505-3.5543-2.7692-6.0742-3.7632-12.211-4.8169-6.7378-1.1569-8.1509-1.7794-10.983-4.8381-2.1348-2.3058-3.25-4.5199-3.25-6.4524 0-3.1583-2.6526-5.8723-7.8391-8.0206-1.8567-0.76906-3.9158-3.0376-5.6511-6.226l-2.7301-5.0161 5.1102-4.7226c2.8106-2.5974 5.1102-5.3785 5.1102-6.1801 0-2.4333-4.9554-8.9217-6.8138-8.9217-0.95794 0-2.5372 0.92905-3.5094 2.0646-2.6858 3.1368-5.0356 2.0622-6.0547-2.7689-0.77677-3.6822-0.54256-4.7479 1.9749-8.9866 2.6976-4.542 2.8853-5.6142 3.3796-19.309 0.51259-14.2 0.58757-14.593 3.624-19 1.7053-2.475 5.0803-7.65 7.5-11.5 5.5458-8.8242 16.586-20.159 20.487-21.033 5.7681-1.2928 6.4774-1.6617 11.598-6.0329 4.0323-3.4419 5.991-4.434 8.7543-4.4342 1.9579-1e-4 6.9348-0.63188 11.06-1.404s10.701-1.7115 14.614-2.0877c6.4857-0.62346 7.7952-0.41112 14.826 2.404 7.8514 3.1438 11.952 3.7591 14.462 2.17 2.4748-1.5669-6.5758-5.2565-24.517-9.9951-2.2638-0.5979-12.276-1.0871-22.25-1.0871-11.423 0-18.134-0.3701-18.134-1 0-1.6515 34.732-1.2652 42.212 0.46946 10.282 2.3845 18.879 5.3899 23.738 8.2985 2.5023 1.4978 5.865 3.2987 7.4726 4.0021s3.5457 2.1679 4.3067 3.2544c0.76104 1.0866 1.8744 1.9755 2.474 1.9755 2.1369 0 10.083 7.408 13.313 12.412 2.9956 4.6402 11.883 14.089 9.9592 10.588-5.3505-9.7362-14.947-20.857-24.28-28.136-3.683-2.8726-7.1269-5.5951-7.6531-6.0502-0.52619-0.45502 1.8634 0.27789 5.3102 1.6287 7.0765 2.7733 11.377 6.143 18.733 14.677 5.1702 5.9985 5.7374 6.9311 9.0436 14.87 1.0283 2.4693 3.3779 6.6874 5.2213 9.3736 4.3675 6.3643 8.0554 17.342 8.8116 26.229 0.49952 5.8701 0.33546 7.1947-0.95232 7.6888-1.2057 0.46269-1.6955-0.34547-2.1765-3.5918-1.1885-8.0199-3.8331-18.218-5.8586-22.591-1.1214-2.421-5.3007-7.8898-9.2874-12.153s-8.135-9.4822-9.2185-11.598c-1.685-3.2907-6.9124-8.3472-8.6294-8.3472-2.5996 0 3.2206 9.1214 12.443 19.5 3.421 3.85 7.4117 9.25 8.8684 12 2.5155 4.749 2.6342 5.6275 2.364 17.5-0.15645 6.875 0.21229 17.45 0.81943 23.5 1.2904 12.859 0.27915 17.196-5.5017 23.595-1.9048 2.1083-4.568 6.0136-5.9184 8.6784-1.3504 2.6648-4.331 7.2181-6.6235 10.118-2.78 3.517-3.4812 4.9056-2.1052 4.1692 1.1347-0.60728 3.312-2.7288 4.8385-4.7145 5.6338-7.3286 8.5176-10.346 9.887-10.346 2.8147 0-22.552 28.401-28.904 32.361-1.5358 0.95743-8.2858 3.5503-15 5.762-9.9216 3.2682-14.455 4.1892-24.208 4.9186-13.935 1.0422-16.877 1.0241-24.958-0.15331zm50.367-7.4523c2.4248-0.84436 5.3184-2.022 6.4302-2.6171 1.9638-1.051 1.9681-1.1209 0.15014-2.4502-3.5808-2.6183-8.4049-1.1588-12.315 3.7259-2.104 2.6283-2.1517 2.9043-0.5 2.8912 1.0043-8e-3 3.81-0.7054 6.2348-1.5498zm16.091-7.9604c0-0.83861 1.0464-1.9226 2.3252-2.4088 2.0618-0.78389 5.6748-4.9856 5.6748-6.5994 0-0.79553-5.773 3.1868-9.25 6.3809-3.2627 2.9972-3.4713 4.152-0.75 4.152 1.1255 0 2-0.66667 2-1.5248zm-183.6 13.107c-7.1969-2.2525-18.334-11.228-23.582-19.004-1.1425-1.6928 0.43637-0.3779 3.5085 2.9221 3.0722 3.3 5.6064 5.4375 5.6316 4.75 0.0253-0.6875 1.0584-1.2145 2.2959-1.171 1.2375 0.0434 1.6875 0.30592 1 0.58333-2.0156 0.8133-1.4429 2.0725 1.25 2.7484 1.375 0.34511 2.5 1.0689 2.5 1.6084 0 1.4044-1.7254 1.2123-2.4167-0.26905-0.35523-0.76122-0.45517-0.66346-0.25559 0.25 0.48121 2.2024 7.3687 5.777 13.672 7.0959 4.5415 0.95024 6.7199 0.86565 12.5-0.48538 3.85-0.89989 8.1894-1.6304 9.643-1.6234 1.4537 7e-3 2.902-0.66218 3.2186-1.4872 0.89262-2.3261 3.9065-1.9203 3.1619 0.42578-0.39862 1.2559 0.0127 2.316 1.1826 3.0478 1.5685 0.98106 1.5049 1.0427-0.50641 0.49089-3.4017-0.93327-10.216-0.69734-14.193 0.49136-4.6549 1.3914-13.54 1.2129-18.61-0.37398zm31.594-19.332c-8e-3 -7.168-0.45168-9.6992-2.454-14-1.3443-2.8875-2.2475-5.25-2.0071-5.25s1.6466 2.3625 3.1248 5.25c2.1915 4.2808 2.7452 6.8654 2.9994 14 0.1879 5.2744-0.0786 8.75-0.6708 8.75-0.56776 0-0.98664-3.6937-0.99229-8.75zm-24.585 4.5-1.905-2.25 2.25 1.905c1.2375 1.0477 2.25 2.0602 2.25 2.25 0 0.80025-0.80479 0.20945-2.595-1.905zm15.595 0.7848c0-0.80587-1.4071-3.1684-3.127-5.25l-3.1269-3.7848 3.6269 3.7353c3.1148 3.2078 4.7589 6.7647 3.127 6.7647-0.275 0-0.5-0.65934-0.5-1.4652zm-20.861-6.5681c-1.2984-1.0817-1.9307-1.9667-1.405-1.9667s1.7703 0.9 2.7658 2c2.2869 2.527 1.6951 2.5125-1.3608-0.0333zm45.711-1.5606c-3.4247-2.5406-5.7031-5.4857-8.6475-11.178-4.7814-9.2434-9.0345-22.326-9.8761-30.378-0.52077-4.9824-0.37064-5.8503 1.0119-5.8503 0.89287 0 1.8255 1.0125 2.0725 2.25 3.6009 18.039 8.6305 31.031 16.5 42.619 2.29 3.3721 4.0343 6.0987 3.8763 6.059-0.15799-0.0397-2.3797-1.6244-4.9371-3.5216zm-90.738-1.7864c-4.9858-5.3072-8.3908-24.142-8.5182-47.12-0.08677-15.646 0.07842-17.318 2.0748-21l2.1691-4-0.55423 15c-0.6288 17.018 1.1855 34.739 5.1449 50.25 1.2986 5.0875 2.2618 9.25 2.1404 9.25s-1.227-1.0711-2.4568-2.3803zm40.888-1.1197c-0.68469-0.825-1.0199-1.5-0.74489-1.5s1.0602 0.675 1.7449 1.5 1.0199 1.5 0.74489 1.5-1.0602-0.675-1.7449-1.5zm15 0c-0.68469-0.825-1.0199-1.5-0.74489-1.5s1.0602 0.675 1.7449 1.5 1.0199 1.5 0.74489 1.5-1.0602-0.675-1.7449-1.5zm-4-4c-0.68469-0.825-1.0199-1.5-0.74489-1.5s1.0602 0.675 1.7449 1.5 1.0199 1.5 0.74489 1.5-1.0602-0.675-1.7449-1.5zm-42.757-8.2196c-2.8036-6.6038-3.6301-12.577-2.2983-16.613 1.1511-3.4878 5.5978-8.4587 6.6371-7.4194 0.32427 0.32427-0.26828 1.0487-1.3168 1.6098s-2.7326 2.8524-3.7424 5.0918c-1.6404 3.6378-1.7003 4.6829-0.56251 9.8108 0.70042 3.1566 1.9291 7.0186 2.7305 8.5822 0.80134 1.5636 1.2601 3.0398 1.0195 3.2804-0.24063 0.24063-1.3508-1.7137-2.467-4.3429zm14.063-4.8534-2.8058-2.573 3.25 2.261c1.7875 1.2436 3.25 2.4014 3.25 2.573 0 0.78934-1.1061 0.11236-3.6942-2.261zm40.194-1.6454c-4.5068-4.4162-13.148-9.8872-18.715-11.849-2.0434-0.72008-3.9363-1.8851-4.2064-2.589-0.59751-1.5571 9.149 2.592 14.922 6.3521 5.612 3.6554 13.5 10.315 13.5 11.397 0 1.5616-1.3666 0.73877-5.5-3.3115zm-49.5-5.2816c-0.68469-0.825-1.0199-1.5-0.74489-1.5s1.0602 0.675 1.7449 1.5 1.0199 1.5 0.74489 1.5-1.0602-0.675-1.7449-1.5zm18.813-12.183c0.72187-0.28887 1.5844-0.25335 1.9167 0.0789 0.33229 0.33229-0.25834 0.56864-1.3125 0.52522-1.165-0.048-1.4019-0.28494-0.60417-0.60416zm-5.0625-0.97917c0.6875-0.27741 1.8125-0.27741 2.5 0s0.125 0.50439-1.25 0.50439-1.9375-0.22698-1.25-0.50439zm-7.5-1.027c0.9625-0.25152 2.5375-0.25152 3.5 0 0.9625 0.25153 0.175 0.45733-1.75 0.45733-1.925 0-2.7125-0.2058-1.75-0.45733zm49.25-9.9001c-2.75-0.67891-7.475-1.7633-10.5-2.4097-16.024-3.4242-23-8.5514-23-16.904 0-3.2256 1.8451-8.0967 3.0669-8.0967 0.41022 0 0.54842-0.7875 0.30711-1.75-0.31004-1.2366 0.79154-2.4461 3.7549-4.1227 3.9679-2.2449 4.9467-2.3526 18.179-2l13.985 0.37268 1.7088-5c3.3386-9.769 7.1898-15.971 13.972-22.5 3.7135-3.575 7.8984-8.75 9.2999-11.5 4.2385-8.3172 14.368-16.495 22.995-18.564 2.8773-0.69005 8.3688-2.7579 12.203-4.5953 3.8345-1.8374 7.5605-3.3407 8.2801-3.3407s4.1073-1.2209 7.5282-2.713c5.7332-2.5008 7.2762-2.7159 19.72-2.75 11.02-0.0302 14.088 0.28448 16.7 1.713 1.7602 0.9625 3.9268 1.75 4.8146 1.75 1.8645 0 11.727 4.091 11.181 4.6376-0.20082 0.20082-3.927-0.6033-8.2804-1.7869-11.701-3.1814-34.411-3.2201-46.792-0.0796-28.707 7.2817-52.056 26.636-64.673 53.61-2.0888 4.4654-4.1139 9.3887-4.5002 10.941l-0.70235 2.822-15.732-0.70485c-11.766-0.52715-15.919-0.4037-16.471 0.48965-0.40604 0.65699-1.882 1.6294-3.2798 2.1608-4.4631 1.6969-1.7886 1.9676 3.073 0.31112 3.5296-1.2027 6.9429-1.461 13.92-1.0533 11.477 0.67059 16.743 1.5736 16.743 2.8714 0 0.60647-1.4757 0.73972-3.75 0.3386-9.5434-1.6832-21.115-1.7385-26.657-0.12743-6.7758 1.9698-9.1291 4.8784-8.2633 10.213 0.70283 4.3311 2.6274 6.6286 7.5114 8.9668 4.9965 2.3922 16.159 5.3366 16.159 4.2624 0-0.4799-0.86547-0.87255-1.9233-0.87255-2.3665 0-8.0767-4.6583-8.0767-6.5889 0-2.0346 0.80172-1.7532 3.3089 1.1616 2.7415 3.1871 11.619 6.3512 17.941 6.3946 2.6125 0.018 4.75 0.48265 4.75 1.0326s-1.211 1-2.6911 1c-2.5017 0-2.5614 0.0949-0.84851 1.3474 2.7478 2.0092 0.67291 2.4539-4.9604 1.0632zm267.52-6.0139c-8e-3 -2.2568-0.26675-6.9818-0.57406-10.5-0.52806-6.0454-0.47509-6.2594 0.96457-3.8967 1.7287 2.8371 2.1401 14.608 0.59418 17-0.7129 1.1031-0.97343 0.41437-0.98469-2.6033zm-253.02-25.115c0-1.0101 0.61747-2.7241 1.3722-3.809 0.75469-1.0849 2.4237-4.4475 3.709-7.4725 3.0022-7.0659 8.6549-15 10.687-15 1.3194 0 1.2518 0.37166-0.40919 2.25-2.6695 3.0187-5.4066 7.4015-7.6503 12.25-5.5883 12.076-7.7086 15.317-7.7086 11.782zm9-6.1986c0-2.7454 3.7347-11.083 4.9645-11.083 1.4199 0 1.3302 0.48665-0.96446 5.2361-1.1 2.2767-2 4.955-2 5.9517s-0.45 1.8122-1 1.8122-1-0.86269-1-1.9171zm17-27.488c0-3.7397 14.988-18.498 22.299-21.956 8.191-3.875 9.1998-2.127 1.1188 1.9387-6.7296 3.3858-19.661 15.463-20.969 19.584-0.68522 2.1589-2.449 2.4714-2.449 0.43391zm209.13-11.268c-6.1358-12.377-12.756-22.648-21.318-33.077-3.2739-3.9875-5.4926-7.25-4.9304-7.25 4.7319 0 12.209 8.7264 23.664 27.616 6.8787 11.344 8.8339 16.232 8.2915 20.729-0.28636 2.3741-1.1696 1.1331-5.7064-8.0181zm-17.132 4.7321c0-1.0675-0.43777-2.2115-0.97283-2.5422-0.53505-0.33068-1.4784-2.4789-2.0964-4.7738s-1.9802-5.2616-3.0272-6.5926c-1.047-1.331-1.9036-2.9443-1.9036-3.5851 0-0.64078-1.9524-3.8426-4.3387-7.1151-4.236-5.8092-7.8178-9.336-16.707-16.45-2.4052-1.925-6.3314-5.1875-8.7247-7.25-2.3934-2.0625-4.8642-3.75-5.4907-3.75-0.83823 0-0.84442-0.29476-0.0234-1.1157 1.3093-1.3093 1.578-1.139 12.809 8.1157 12.878 10.612 19.672 17.97 24.191 26.2 2.3186 4.2224 4.5232 8.9421 4.8992 10.488s1.2915 3.699 2.0344 4.7838c1.5827 2.3112 1.7868 5.5275 0.35075 5.5275-0.55 0-1-0.87344-1-1.941zm-272.63-34.597c2.9104-5.9797 14.082-20.028 18.46-23.212 1.701-1.2375 4.0964-2.25 5.3231-2.25 1.8036 0 0.32189 1.9614-7.7429 10.25-5.4853 5.6375-11.89 12.5-14.233 15.25l-4.2593 5zm212.63-47.576c-16.408-8.3734-38.037-14.701-58-16.97-9.8384-1.1179-33.475-0.80838-43.5 0.56965-3.8129 0.52409-3.7427 0.45213 1.5-1.5385 8.895-3.3773 15.558-4.1813 29-3.4996 23.678 1.2008 46.55 5.8918 53.348 10.941 1.7334 1.2876 5.3056 3.055 7.9382 3.9277 4.2442 1.4068 19.713 10.263 19.713 11.287 0 0.21807-0.1125 0.33664-0.25 0.2635-0.1375-0.0731-4.525-2.3146-9.75-4.981zm-134.96-8.769c1.9455-1.0706 5.3205-2.2134 7.5-2.5395 3.9027-0.58389 3.887-0.56472-1.0374 1.2685-8.1404 3.0304-10.505 3.4954-6.4626 1.271zm12.775-3.8002c0.72187-0.28887 1.5844-0.25334 1.9167 0.079 0.33229 0.33229-0.25834 0.56864-1.3125 0.52522-1.165-0.048-1.4019-0.28494-0.60417-0.60417z"/>
</svg>
