<?xml version="1.0" encoding="utf-8"?>
<!-- Generator: Adobe Illustrator 16.0.0, SVG Export Plug-In . SVG Version: 6.00 Build 0)  -->
<!DOCTYPE svg PUBLIC "-//W3C//DTD SVG 1.1//EN" "http://www.w3.org/Graphics/SVG/1.1/DTD/svg11.dtd">
<svg version="1.1" id="Слой_1" xmlns="http://www.w3.org/2000/svg" xmlns:xlink="http://www.w3.org/1999/xlink" x="0px" y="0px"
	 width="auto"  viewBox="0 0 45.15 50.57" enable-background="new 0 0 45.15 50.57" xml:space="preserve">
<g>
	<path d="M36.04,32.991c0.45,0.847,0.849,1.729,1.363,2.537c1.953,3.062,3.279,6.333,3.48,10.001c0.01,0.175,0.073,0.353,0.06,0.524
		c-0.135,1.705-0.101,3.659-2.005,4.345c-1.871,0.677-3.2-0.769-3.981-2.166c-1.583-2.83-3.281-5.711-4.183-8.789
		c-1.538-5.258-2.5-10.682-3.801-16.471c-0.84,0.517-1.929,0.917-2.644,1.67c-4.113,4.346-8.066,8.843-12.226,13.143
		c-1.936,1.999-4.195,3.688-6.362,5.445c-0.308,0.25-0.936,0.105-1.416,0.145c0.003-0.49-0.142-1.04,0.029-1.464
		c1.277-3.158,3.813-5.275,6.278-7.453c4.034-3.568,8.088-7.12,12.044-10.773c2.679-2.472,2.51-2.985-0.745-4.471
		c-4.771-2.18-9.602-4.257-14.226-6.718c-2.324-1.237-4.302-3.162-6.322-4.908C0.773,7.06,0.426,6.128,0.165,5.314
		c-0.687-2.125,0.862-3.689,3.086-3.543c3.986,0.259,7.008,2.357,9.912,4.766c1.005,0.834,1.967,1.721,2.95,2.584
		c0.149-0.091,0.301-0.184,0.451-0.276c-0.283-0.696-0.589-1.383-0.843-2.089c-0.546-1.52-1.184-3.021-1.536-4.587
		c-0.136-0.606,0.211-1.709,0.677-1.964c0.571-0.312,1.773-0.269,2.222,0.144c1.443,1.328,3.021,2.712,3.901,4.409
		c1.884,3.624,3.333,7.471,5.04,11.19c0.226,0.493,0.939,1.142,1.359,1.098c1.149-0.127,2.524-0.821,3.089,0.574
		c0.384,0.951-0.029,2.222-0.086,3.351c-0.199,0.063-0.399,0.125-0.599,0.188c1.713,1.171,3.46,2.301,5.136,3.524
		c2.55,1.859,5.164,3.657,7.528,5.734c1.132,0.992,1.92,2.493,2.538,3.904c0.304,0.693,0.148,1.974-0.331,2.497
		c-0.369,0.401-1.724,0.308-2.378-0.049c-1.58-0.861-3.016-1.993-4.49-3.041c-0.459-0.327-0.858-0.734-1.285-1.106
		C36.35,32.747,36.196,32.869,36.04,32.991z M38.869,48.047c1.111-4.247-5.651-19.485-8.949-20.166c0,0.527-0.098,1.07,0.015,1.565
		c0.592,2.62,1.069,5.283,1.903,7.826c1.034,3.145,2.329,6.208,3.614,9.261C36.037,47.925,37.173,48.574,38.869,48.047z
		 M20.8,16.549c-0.219-0.517-0.254-0.775-0.399-0.914c-2.824-2.697-5.614-5.429-8.51-8.046C9.553,5.478,6.712,4.297,3.62,3.784
		C3.039,3.688,2.397,3.957,1.784,4.059c0.167,0.579,0.177,1.286,0.528,1.715c0.951,1.162,1.863,2.524,3.116,3.243
		c4.32,2.48,8.77,4.735,13.194,7.028C19.188,16.338,19.898,16.35,20.8,16.549z M33.856,26.479c2.746,3.248,5.051,6.999,9.248,8.661
		C41.403,30.771,37.794,28.452,33.856,26.479z M22.264,11.561c-1.304-3.875-2.814-7.206-6.083-9.739
		C15.976,4.542,19.917,10.948,22.264,11.561z"/>
	
</g>
</svg>