<?xml version="1.0" encoding="utf-8"?>
<!-- Generator: Adobe Illustrator 16.0.0, SVG Export Plug-In . SVG Version: 6.00 Build 0)  -->
<!DOCTYPE svg PUBLIC "-//W3C//DTD SVG 1.1//EN" "http://www.w3.org/Graphics/SVG/1.1/DTD/svg11.dtd">
<svg version="1.1"
   id="svg2" xmlns:cc="http://creativecommons.org/ns#" xmlns:dc="http://purl.org/dc/elements/1.1/" xmlns:rdf="http://www.w3.org/1999/02/22-rdf-syntax-ns#" xmlns:svg="http://www.w3.org/2000/svg"
   xmlns="http://www.w3.org/2000/svg" xmlns:xlink="http://www.w3.org/1999/xlink" x="0px" y="0px" width="auto"
   viewBox="61.975 47.095 114.744 119.218" enable-background="new 61.975 47.095 114.744 119.218"
   xml:space="preserve">
<path id="path12" d="M123.683,165.628c-0.213-0.523-0.666-3.881-1.005-7.461c-1.868-19.686-7.229-39.492-15.23-56.274
  c-2.212-4.64-8.009-14.968-8.4-14.968c-0.105,0-0.67,1.276-1.255,2.837c-1.621,4.325-4.841,8.104-8.606,10.099
  c-1.784,0.945-7.072,1.116-9.214,0.298c-3.866-1.477-6.249-5.662-5.705-10.02c0.143-1.139,0.163-2.071,0.045-2.071
  s-1.21,0.51-2.428,1.133c-3.447,1.765-5.254,1.718-7.371-0.194c-1.273-1.151-1.607-1.787-2.121-4.047
  c-0.551-2.422-0.553-3.032-0.029-6.293c0.87-5.403,1.842-7.998,4.289-11.441c1.036-1.458,1.187-1.878,0.735-2.051
  c-0.313-0.12-0.938-1.196-1.392-2.391c-0.695-1.834-0.792-2.711-0.626-5.629c0.212-3.725,0.786-5.207,2.527-6.53
  c0.814-0.619,1.592-0.762,4.078-0.753c2.714,0.01,3.408,0.171,5.952,1.379c1.584,0.753,3.782,2.087,4.885,2.965
  c1.103,0.878,2.166,1.597,2.362,1.597s0.535-0.509,0.752-1.131c1.049-3.011,5.818-6.399,10.321-7.334
  c4.111-0.854,8.061,0.514,9.118,3.156c0.95,2.375,0.758,5.347-0.558,8.634c-0.633,1.582-1.152,2.958-1.152,3.056
  c0,0.099,1.281,0.063,2.847-0.079c2.489-0.226,3.072-0.149,4.632,0.606c1.084,0.525,2.133,1.417,2.673,2.271
  c1.896,3.004,1.585,8.105-0.699,11.458c-1.623,2.381-6.641,6.169-10.034,7.574c-3.348,1.386-3.542,1.553-2.803,2.404
  c0.777,0.893,4.371,7.078,6.629,11.409c7.38,14.152,13.065,32.329,15.919,50.904C124.559,160.05,125.01,168.888,123.683,165.628
  L123.683,165.628z M87.791,98.377c3.037-1.136,5.917-3.928,7.63-7.399c0.737-1.494,1.442-3.341,1.565-4.104
  c0.2-1.239,0.123-1.413-0.718-1.624c-1.883-0.473-4.068-3.396-3.274-4.38c0.918-1.14,4.606-0.011,5.358,1.641
  c0.409,0.896,0.612,0.981,1.825,0.763c3.872-0.697,10.381-5.349,12.163-8.693c0.507-0.952,0.694-2.183,0.706-4.647
  c0.016-3.283-0.01-3.378-1.239-4.608c-1.204-1.204-1.379-1.256-4.257-1.256c-2.703,0-3.171,0.115-4.697,1.152
  c-0.933,0.634-1.923,1.368-2.203,1.632c-0.279,0.264-0.841,0.48-1.248,0.48c-1.113,0-0.915-0.695,1.041-3.648
  c2.84-4.29,3.729-6.525,3.76-9.463c0.021-2.032-0.129-2.726-0.741-3.413c-2.543-2.855-8.423-2.498-12.657,0.769
  c-3.257,2.512-4.312,5.539-2.979,8.549c1.167,2.64-0.204,3.744-1.485,1.195c-2.288-4.55-6.574-8.041-11.706-9.533
  c-2.777-0.808-4.846-0.748-6.018,0.174c-1.021,0.802-2.21,3.839-2.212,5.649c-0.002,1.426,1.912,7.416,2.37,7.416
  c0.197,0,0.896-0.278,1.555-0.619c2.569-1.329,7.056,0.465,9.51,3.802c2.146,2.918,1.048,4.194-1.184,1.376
  c-2.065-2.608-3.997-3.791-6.188-3.791c-1.75,0-2.019,0.135-3.687,1.848c-3.184,3.271-5.063,8.681-5.063,14.58
  c0,7.408,4.927,8.562,11.283,2.641c1.032-0.96,2.118-1.839,2.415-1.954c1.01-0.387,0.998,0.977-0.029,3.072
  c-1.587,3.242-2.009,5.941-1.243,7.949c0.779,2.039,3.012,4.39,4.61,4.853C82.836,99.391,85.498,99.235,87.791,98.377L87.791,98.377
  z M86.594,75.866c-0.12-0.376-0.735-0.879-1.369-1.119c-2.075-0.783-2.016-2.334,0.198-5.234c0.754-0.988,1.609-1.796,1.9-1.796
  c0.677,0,2.77,2.083,3.083,3.067c0.404,1.274-2.09,5.765-3.202,5.765C86.987,76.549,86.713,76.242,86.594,75.866L86.594,75.866z
   M132.233,162.853c1.535-18.623,7.854-38.886,16.237-52.074c0.72-1.132,1.256-2.104,1.19-2.16s-1.296-0.666-2.737-1.355
  c-3.07-1.469-6.59-4.536-7.383-6.432c-0.721-1.728-0.713-4.619,0.02-6.371c0.777-1.862,2.469-2.708,5.279-2.641
  c1.214,0.029,2.207-0.004,2.207-0.073s-0.349-0.914-0.775-1.877c-1.56-3.527-0.973-6.952,1.387-8.076
  c3.875-1.848,9.755,0.514,12.28,4.933c0.389,0.68,0.496,0.652,1.921-0.487c1.727-1.383,5.073-2.933,7.152-3.314
  c1.75-0.321,3.747,0.443,4.611,1.763c1.354,2.065,1.164,7.457-0.313,8.935c-0.456,0.457-0.334,0.871,0.839,2.841
  c1.712,2.872,2.543,5.956,2.57,9.54c0.018,2.37-0.125,2.987-0.994,4.301c-1.36,2.055-2.965,2.388-5.529,1.147
  c-1.01-0.489-1.916-0.896-2.016-0.904c-0.098-0.008-0.128,0.81-0.066,1.818c0.146,2.372-0.994,4.756-2.89,6.038
  c-1.183,0.8-1.872,0.96-4.134,0.96c-2.267,0-3.01-0.173-4.502-1.051c-2.176-1.278-3.841-3.315-5.25-6.42l-1.062-2.338l-1.831,3.079
  c-5.779,9.715-10.527,22.443-13.041,34.955c-0.83,4.129-1.244,7.008-2.417,16.801c-0.107,0.896-0.38,1.631-0.605,1.631
  C132.103,166.021,132.055,165.007,132.233,162.853L132.233,162.853z M164.644,117.376c2.44-1.789,2.895-4.918,1.215-8.385
  c-0.42-0.869-0.764-1.698-0.764-1.842c0-0.682,1.461-0.142,2.449,0.906c2.533,2.684,5.742,3.407,7.164,1.615
  c0.762-0.96,0.822-1.388,0.666-4.704c-0.199-4.211-0.968-6.337-3.178-8.783c-1.227-1.358-1.652-1.585-2.978-1.585
  c-1.343,0-1.798,0.251-3.466,1.92c-2.001,2-2.578,2.305-2.578,1.357c0-0.887,2.272-3.246,3.953-4.104
  c1.463-0.746,2.352-0.773,4.361-0.134c0.736,0.234,0.893,0.034,1.439-1.848c0.761-2.616,0.775-4.126,0.055-5.85
  c-0.697-1.669-1.721-2.063-4.193-1.613c-3.523,0.64-6.84,2.909-8.701,5.952c-0.678,1.109-1.374,2.016-1.547,2.016
  c-0.686,0-0.744-0.806-0.141-1.971c1.867-3.611-3.705-8.659-8.637-7.826c-4.039,0.683-4.205,4.817-0.416,10.43
  c1.712,2.537,1.496,3.608-0.426,2.11c-2.818-2.196-5.716-2.599-7.52-1.046c-0.971,0.836-1.076,1.167-1.071,3.362
  c0.007,3,0.819,4.538,3.472,6.578c2.32,1.784,3.823,2.608,5.414,2.969c1.049,0.237,1.322,0.125,2.027-0.829
  c0.621-0.84,1.129-1.104,2.126-1.104c0.721,0,1.396,0.139,1.501,0.31c0.379,0.614-0.752,2.199-1.971,2.763
  c-1.104,0.51-1.219,0.707-1.014,1.728c0.635,3.14,4.193,7.435,6.834,8.246C160.498,118.557,163.466,118.238,164.644,117.376
  L164.644,117.376z M157.677,101.139c-1.445-1.717-1.494-3.09-0.162-4.525c1.014-1.092,1.67-1.094,2.251-0.008
  c0.252,0.471,0.699,1.098,0.994,1.393c0.731,0.73,0.471,2.38-0.456,2.896c-0.418,0.233-0.948,0.658-1.179,0.945
  C158.787,102.263,158.511,102.129,157.677,101.139L157.677,101.139z"/>
</svg>