<?xml version="1.0" encoding="utf-8"?>
<!-- Generator: Adobe Illustrator 16.0.0, SVG Export Plug-In . SVG Version: 6.00 Build 0)  -->
<!DOCTYPE svg PUBLIC "-//W3C//DTD SVG 1.1//EN" "http://www.w3.org/Graphics/SVG/1.1/DTD/svg11.dtd">
<svg version="1.1"
	 id="Слой_1" xmlns:cc="http://creativecommons.org/ns#" xmlns:dc="http://purl.org/dc/elements/1.1/" xmlns:rdf="http://www.w3.org/1999/02/22-rdf-syntax-ns#"
	 xmlns="http://www.w3.org/2000/svg" xmlns:xlink="http://www.w3.org/1999/xlink" x="0px" y="0px" width="auto" 
	 viewBox="0 0 637.762 750" enable-background="new 0 0 637.762 750" xml:space="preserve">
<path d="M499.939,748.504c-2.033-1.277-4.514-3.903-5.514-5.835c-1.875-3.625-5.205-22.88-5.217-30.155l-0.008-4.12l-12.412-4.741
	c-6.828-2.607-21.768-7.695-33.199-11.308c-32.377-10.226-41.746-15.731-46.865-27.538c-2.342-5.399-2.648-8.652-3.547-37.665
	c-0.83-26.831-3.42-58.621-4.982-61.147c-0.236-0.384-4.436-0.816-9.328-0.964c-11.517-0.342-18.777-2.518-35.737-10.705
	c-14.631-7.062-23.313-10.003-33.68-11.41l-6.316-0.856l-4.673,9.294c-2.571,5.113-6.89,12.695-9.6,16.851
	c-2.708,4.155-11.023,17.687-18.477,30.071c-24.414,40.565-47.984,72.65-59.703,81.269c-4.717,3.469-5.33,3.603-16.478,3.603
	c-10.503,0-12.196-0.313-18.227-3.368c-7.593-3.848-18.557-14.702-21.172-20.959c-3.698-8.851-1.944-16.442,4.821-20.875
	c2.602-1.705,3.862-1.767,10.665-0.522c12.367,2.262,22.618,7.896,33.688,18.513l9.693,9.297l2.789-2.59
	c4.539-4.213,21.128-26.815,32.134-43.78c16.208-24.984,45.46-73.926,45.46-76.062c0-1.632-7.628-1.314-16.037,0.667
	c-8.75,2.063-23.255,7.093-34.982,12.13c-35.779,15.368-54.378,19.297-96.206,20.32c-22.336,0.547-26.801,0.345-36.975-1.675
	c-19.113-3.793-26.523-8.686-23.243-15.349c0.758-1.541,10.864-9.154,22.829-17.2c24.331-16.357,24.557-16.528,57.252-43.43
	c13.208-10.867,32.85-26.397,43.646-34.51c30.61-23.001,38.116-29.548,48.03-41.894c6.154-7.664,20.676-34.151,20.676-37.714
	c0-1.77-7.416-2.959-18.438-2.959c-4.247,0-15.217,1.514-24.376,3.363c-38.983,7.868-43.489,8.473-58.787,7.875
	c-12.232-0.478-16.129-1.127-25.417-4.239c-15.7-5.26-29.844-12.317-44.677-22.293l-12.923-8.689l-12.481,1.693
	c-13.978,1.897-44.076,1.436-56.938-0.873c-15.55-2.791-26.827-10.785-24.764-17.554c1.917-6.292,5.616-7.68,26.27-9.859
	c9.642-1.018,10.367-1.29,14.013-5.27c2.114-2.309,4.814-4.185,5.998-4.168c1.185,0.017,6.033,1.316,10.774,2.887
	c10.504,3.482,12.538,3.528,18.494,0.423c4.305-2.244,4.882-2.293,7.412-0.636c1.707,1.119,4.644,6.215,7.78,13.502l5.038,11.706
	l14.434,9.596c21.525,14.311,36.536,21.142,55.9,25.442c12.951,2.876,28.964,1.238,68.085-6.96
	c14.678-3.076,39.143-4.015,45.147-1.731c3.421,1.301,4.193,0.262,4.48-6.031c0.165-3.618,0.008-3.761-3.869-3.512
	c-10.061,0.645-33.356-1.973-43.302-4.865c-19.29-5.61-32.23-12.425-48.671-25.628c-18.733-15.043-30.223-29.264-40.165-49.712
	c-3.769-7.75-5.089-9.45-7.758-9.984c-4.83-0.966-16.269-13.073-20.45-21.646c-1.974-4.048-4.211-11.062-4.972-15.587
	c-1.208-7.193-1.118-9.204,0.717-15.986c2.009-7.421,2.322-7.854,7.213-9.95c4.681-2.006,5.402-2.043,8.523-0.429
	c2.692,1.392,3.508,1.451,3.871,0.28c6.731-21.727,11.196-28.938,28.859-46.603c7.668-7.668,16.234-15.458,19.037-17.311
	l5.097-3.368l-5.674-1.515c-3.121-0.834-8.033-2.453-10.917-3.6c-2.988-1.187-6.838-1.85-8.949-1.54
	c-3.136,0.46-3.706,1.03-3.706,3.704c0,5.649-10.539,17.64-16.91,19.24c-1.581,0.397-7.765,0.474-13.742,0.17
	c-9.22-0.467-11.999-1.108-18.326-4.223c-8.677-4.271-12.337-9.125-13.058-17.311c-0.352-3.998,0.203-6.629,2.205-10.469
	c5.092-9.769,11.965-12.261,28.898-10.477c5.899,0.621,12.541,1.659,14.759,2.306c4.898,1.428,5.781,1.459,5.781,0.207
	c0-0.905-7.263-4.529-40.517-20.216c-7.359-3.472-17.159-8.18-21.778-10.462c-4.618-2.282-9.54-4.149-10.936-4.149
	c-3.634,0-6.775-2.654-6.238-5.272c0.387-1.894,1.315-2.188,6.101-1.933c4.257,0.227,9.705,2.284,22.166,8.372
	c9.088,4.44,16.786,8.072,17.11,8.072c0.323,0,5.742,2.549,12.043,5.664c15.46,7.645,16.275,7.867,16.275,4.457
	c0-8.374-17.179-28.455-29.807-34.843c-4.954-2.506-6.065-3.593-5.773-5.645c0.946-6.654,12.465-1.502,25.811,11.543
	c4.802,4.694,10.266,10.954,12.141,13.91l3.407,5.374l-0.667-16.107c-0.366-8.859-1.151-19.945-1.744-24.637
	c-0.771-6.09-0.705-8.98,0.228-10.104c1.664-2.004,3.845-2.009,5.503-0.01c1.537,1.852,3.51,27.084,4.574,58.468
	c0.695,20.508,0.949,22.539,2.865,22.906c1.373,0.264,2.327-0.453,2.748-2.062c0.844-3.227,7.883-17.422,9.813-19.787
	c1.892-2.32,8.277-5.663,10.815-5.663c3.602,0,10.745,4.953,14.318,9.931c4.139,5.763,6.914,12.953,7.532,19.514
	c0.239,2.541,0.47,4.71,0.513,4.821c0.043,0.112,4.625-1.768,10.183-4.175c27.382-11.864,52.435-16.246,92.666-16.21
	c22.234,0.02,39.097,2.298,55.47,7.495c1.573,0.499,1.768-0.387,1.352-6.136c-0.628-8.689,1.507-22.312,4.379-27.941
	c6.683-13.099,20.189-12.857,33.804,0.604c6.52,6.449,11.49,14.634,17.508,28.841c2.422,5.715,4.738,10.766,5.148,11.223
	s2.68-1.773,5.045-4.956c2.367-3.184,3.654-5.704,2.865-5.602c-2.869,0.371-4.092-0.124-4.789-1.942
	c-1.121-2.924,19.604-47.216,25.066-53.572c0.82-0.953,3.877-3.994,6.795-6.757c4.074-3.86,5.869-4.845,7.738-4.253
	c3.875,1.23,2.871,4.318-3.404,10.477c-3.213,3.152-7.332,8.328-9.156,11.504c-3.914,6.809-19.646,40.715-19.646,42.338
	c0,0.616,1.43,0.116,3.176-1.111c7.674-5.392,17.369-6.122,21.449-1.614c6.795,7.508,9.227,27.916,4.576,38.425
	c-6.223,14.065-21.951,16.609-32.396,5.243c-2.404-2.619-5.322-6.06-6.482-7.648c-1.305-1.786-2.313-2.359-2.643-1.501
	c-1.098,2.845-5.223,7.275-6.775,7.275c-2.102,0-4.18-3.954-3.293-6.267c0.486-1.267,0.02-1.816-1.543-1.816
	c-2.969,0-4.031,1.194-2.596,2.923c1.678,2.021,0.115,5.16-2.566,5.16c-1.262,0-4.396-1.8-6.967-4.001
	c-2.57-2.2-7.906-5.077-11.859-6.392c-3.951-1.315-9.205-4.11-11.676-6.213c-5.161-4.393-7.113-5.508-15.244-8.714
	c-3.242-1.278-6.159-1.896-6.483-1.374c-0.63,1.021,31.6,23.189,44.949,30.919c28.242,16.349,35.387,19.491,27.277,11.995
	c-2.781-2.57-5.898-4.69-6.93-4.71c-2.662-0.052-5.912-2.776-5.912-4.958c0-6.456,12.176-2.538,20.588,6.626
	c2.75,2.995,6.836,9.309,9.078,14.032c3.934,8.282,6.328,10.436,7.684,6.906c0.354-0.924,2.836-2.798,5.516-4.165
	c4.227-2.157,5.449-2.313,9.236-1.178c8.93,2.676,13.141,13.811,13.135,34.736c-0.004,13.393-0.225,14.851-3.066,20.207
	c-3.789,7.141-8.309,11.424-13.959,13.23c-4.266,1.363-4.33,1.473-4.338,7.356c-0.008,3.285-0.713,10.657-1.572,16.382
	c-4.615,30.729-28.885,56.357-66.676,70.407c-5.773,2.146-10.67,4.075-10.881,4.284c-0.209,0.21,0.688,3.68,1.992,7.711l2.373,7.329
	l31.9-0.563c30.1-0.532,32.498-0.735,42.463-3.602c14.186-4.081,25.178-8.624,42.814-17.688
	c31.408-16.146,48.578-27.041,49.477-31.399c1.781-8.628,6.959-22.708,9.434-25.646c2.186-2.599,3.781-3.345,7.16-3.345
	c5.219,0,9.113,3.204,12.813,10.536c1.4,2.779,2.736,5.26,2.963,5.514c0.229,0.253,3.455-1.16,7.17-3.14
	c12.5-6.662,27.891-8.995,36.158-5.481c5.117,2.175,11.035,7.499,11.969,10.766c0.557,1.94-0.096,3.45-2.549,5.902
	c-2.639,2.639-5.936,3.925-16.535,6.454c-7.283,1.736-21.555,5.984-31.715,9.44c-24.393,8.292-26.064,8.627-36.127,7.23
	l-8.412-1.167l-12.951,7.512c-18.592,10.785-49.256,25.404-62.025,29.57c-16.225,5.293-34.457,7.318-58.6,6.505
	c-16.342-0.55-19.92-0.389-19.92,0.897c0,1.856,12.928,19.903,25.281,35.295c37.695,46.961,91.313,79.665,150.496,91.791
	c4.533,0.93,6.199,4.603,3.77,8.308c-2.494,3.809-8.035,6.169-33.922,14.454c-11.799,3.776-24.58,8.042-28.398,9.481
	c-10.635,4.004-14.715,5.438-18.492,6.508c-1.908,0.538-14.119,4.64-27.137,9.113c-27.479,9.442-39.211,12.869-53.914,15.751
	c-12.008,2.352-11.006,0.556-8.336,14.945c0.709,3.811,1.664,22.776,2.123,42.146c0.82,34.571,0.889,35.34,3.824,41.783
	c4.58,10.054,10.205,12.992,48.219,25.188c12.385,3.973,28.754,9.786,36.375,12.917c7.621,3.133,17.418,6.686,21.771,7.897
	c9.17,2.551,10.689,3.594,12.879,8.836c3.037,7.269,3.393,16.773,0.844,22.538c-4.313,9.745-16.111,14.199-24.182,9.129
	L499.939,748.504z M514.541,740.368c1.236-1.233,2.582-4.038,2.994-6.231c1.02-5.436-1.436-16.927-3.617-16.927
	c-0.924,0-4.637-1.038-8.25-2.31c-3.613-1.27-7.021-2.31-7.574-2.31c-1.232,0,0.063,16.368,1.734,21.94
	c0.668,2.223,2.008,4.951,2.979,6.062c2.393,2.741,8.895,2.616,11.736-0.225H514.541z M206.082,673.533l2.67-2.055l-9.607-9.223
	c-10.212-9.804-18.104-14.51-28.077-16.741c-8.363-1.872-9.804-1.122-9.804,5.098c0,7.934,7.472,16.486,20.208,23.129
	C186.57,676.4,202.531,676.266,206.082,673.533L206.082,673.533z M176.853,566.6c22.295-2.577,27.75-4.163,64.62-18.778
	c30.264-11.998,36.003-13.425,53.738-13.359c19.179,0.068,30.46,2.796,49.505,11.969c20.346,9.796,23.825,10.764,38.831,10.794
	c14.846,0.027,22.639-1.326,46.189-8.024c12.887-3.667,20.422-5.131,29.445-5.724c13.48-0.885,22.662-4.062,25.865-8.95
	c2.496-3.811,12.143-7.86,43.994-18.473c24.813-8.268,27.162-9.182,26.467-10.306c-0.342-0.553-1.52-1.007-2.619-1.007
	c-3.021,0-23.555-6.605-36.283-11.673c-31.365-12.486-59.805-30.61-83.363-53.123c-23.098-22.073-52.1-60.072-57.893-75.851
	c-1.095-2.982-2.641-7.066-3.435-9.073l-1.442-3.65l-8.148,2.376l-8.147,2.377l-2.468,7.419
	c-5.518,16.582-19.226,21.792-34.933,13.276c-3.569-1.935-6.556-4.702-8.31-7.698l-2.738-4.677l-6.991,0.391l-6.991,0.392v3.898
	c0,5.532-2.619,12.727-11.04,30.332c-13.618,28.466-22.73,38.11-69.212,73.247c-11.431,8.642-28.06,21.73-36.951,29.083
	c-8.892,7.355-17.465,13.656-19.053,14.002c-8.914,1.945-13.771,5.7-19.994,15.459c-1.654,2.593-8.984,8.306-20.972,16.344
	c-10.136,6.796-18.599,12.867-18.807,13.491c-0.515,1.544,5.599,3.728,15.317,5.471c11.021,1.978,48.891,2.005,65.819,0.049
	L176.853,566.6z M336.284,371.407c3.022-1.264,4.651-3.046,6.41-7.024c1.297-2.932,2.133-5.557,1.856-5.833
	c-0.275-0.275-4.086,0.243-8.467,1.153c-4.382,0.91-10.954,2.018-14.606,2.463c-3.652,0.444-6.64,1.042-6.64,1.329
	c0,2.228,3.29,5.543,7.311,7.37C327.981,373.512,330.972,373.626,336.284,371.407L336.284,371.407z M313.106,355.296
	c29.153-4.095,52.646-9.677,56.677-13.464c1.715-1.61,3.356-2.12,5.276-1.638c4.93,1.237,27.159-8.164,39.661-16.773
	c18.867-12.99,31.711-31.832,34.068-49.976c1.369-10.547,1.439-20.119,0.154-20.914c-0.547-0.338-0.75-5.435-0.451-11.326
	c0.602-11.779-1.045-23.313-3.756-26.306c-1.191-1.317-1.51-3.092-1.008-5.606c0.752-3.756-2.15-15.377-4.629-18.546
	c-1.979-2.526-14.957-10.608-28.865-17.971c-15.141-8.016-25.549-14.524-49.431-30.906c-9.952-6.828-18.333-12.414-18.623-12.414
	c-0.291,0-0.863,1.782-1.271,3.961c-2.118,11.292-13.633,27.234-21.009,29.085c-6.197,1.556-11.378-2.917-14.609-12.609
	c-0.22-0.659-3.378,1.229-7.019,4.194c-3.641,2.965-7.249,5.453-8.018,5.528c-5.346,0.522-8.269-2.16-10.679-9.799
	c-1.028-3.26-2.09-6.623-2.361-7.474c-0.327-1.028-2.522,0.289-6.55,3.93c-3.332,3.012-8.84,7.266-12.241,9.454
	c-5.887,3.787-20.183,9.526-23.73,9.526c-2.938,0-8.574-5.716-10-10.142c-2.057-6.382-2.035-6.375-6.988-2.137
	c-10.269,8.791-27.298,15.742-38.563,15.742h-7.157l-8.741,8.742c-13.146,13.147-21.951,32.031-19.939,42.763
	c0.483,2.572,0.253,4.72-0.618,5.769c-2.698,3.252,0.89,26.383,6.595,42.513c8.903,25.167,24.25,45.877,46.777,63.117
	c12.111,9.269,18.586,12.91,31.667,17.809c19.751,7.398,28.167,8.72,51.889,8.152c11.431-0.274,26.501-1.301,33.487-2.282
	L313.106,355.296z M261.144,309.946c-19.084-2.811-46.583-14.591-64.447-27.61c-4.167-3.037-5.466-4.683-5.196-6.584
	c0.608-4.272,4.68-3.647,12.681,1.946c7.677,5.366,23.929,14.213,30.981,16.865c2.223,0.835,5.86,2.207,8.083,3.048
	c18.601,7.037,67.86,6.425,100.562-1.25c18.685-4.386,33.971-12.81,57.551-31.717c7.693-6.169,9.916-6.752,12.084-3.171
	c1.084,1.789,0.486,2.823-3.916,6.771c-9.396,8.425-28.814,21.921-37.872,26.323c-14.563,7.077-20.285,8.748-45.846,13.386
	C315.784,309.77,269.618,311.196,261.144,309.946L261.144,309.946z M306.178,250.047c-7.102-3.42-10.902-3.527-14.857-0.417
	c-3.425,2.694-6.244,2.586-8.065-0.306c-2.723-4.324,7.916-10.88,15.88-9.789c6.13,0.84,17.89,6.041,18.753,8.294
	c0.84,2.19-1.568,5.21-4.059,5.089c-1.034-0.05-4.478-1.342-7.654-2.872H306.178z M211.145,230.839
	c-2.496-2.495-1.466-5.294,3.521-9.569c13.02-11.159,31.041-15.099,45.037-9.846c8.934,3.354,18.444,10.886,17.965,14.231
	c-0.562,3.925-3.942,3.638-10.064-0.857c-7.379-5.417-13.808-7.586-22.483-7.584c-8.382,0.001-18.57,4.281-25.854,10.862
	C214.275,232.585,213.241,232.937,211.145,230.839L211.145,230.839z M324.306,226.22c-0.761-0.761-1.384-2.009-1.384-2.771
	c0-1.956,12.166-12.844,17.246-15.437c15.742-8.031,38.163-4.709,55.243,8.185c6.279,4.741,7.186,7.183,3.52,9.491
	c-1.535,0.968-3.398,0.19-9.064-3.784c-10.578-7.421-17.13-9.593-29.416-9.75c-9.488-0.121-10.931,0.165-16.576,3.288
	c-3.4,1.882-8.416,5.388-11.147,7.792c-5.392,4.747-6.326,5.078-8.42,2.984H324.306z M78.513,351.553
	c4.499-0.424,8.13-1.349,8.437-2.146c0.295-0.771-1.13-5.133-3.17-9.693c-2.935-6.563-4.092-8.114-5.549-7.436
	c-1.013,0.472-5.135,1.063-9.16,1.313c-5.573,0.346-8.959-0.159-14.202-2.119l-6.884-2.575l-3.411,3.49
	c-4.017,4.108-9.695,5.743-24.967,7.188c-6.051,0.573-11.284,1.322-11.627,1.667c-2.545,2.545,10.603,8.242,22.589,9.787
	C40.084,352.256,67.857,352.56,78.513,351.553L78.513,351.553z M583.17,314.881c12.146-4.076,27.16-8.56,33.365-9.962
	c6.207-1.403,11.559-2.997,11.895-3.541c0.338-0.544-1.104-2.034-3.197-3.312c-7.26-4.427-19.783-2.757-33.758,4.501
	c-10.725,5.572-13.205,4.924-18.074-4.722c-5.748-11.386-8.668-10.446-13.143,4.229c-1.607,5.271-2.924,10.346-2.924,11.28
	c0,0.934-1.023,2.997-2.271,4.585c-5.178,6.583,1.566,5.849,28.109-3.06H583.17z M137.75,257.364
	c-0.966-3.347-2.405-12.683-3.199-20.746l-1.442-14.662l-3.798-2.045c-5.689-3.064-6.725-1.283-6.725,11.567
	c0,9.783,0.318,11.311,3.78,18.129c3.978,7.834,11.969,17.358,12.707,15.144C139.311,264.035,138.716,260.71,137.75,257.364
	L137.75,257.364z M462.643,242.62c6.959-3.724,10.457-15.553,9.221-31.18c-1.037-13.106-3.66-20.505-7.623-21.499
	c-4.709-1.182-7.996,2.063-9.951,9.827c-1.514,6.002-1.539,7.881-0.189,13.647c0.859,3.677,1.912,12.012,2.338,18.521
	C457.25,244.34,457.766,245.229,462.643,242.62L462.643,242.62z M198.708,155.495c9.587-4.282,24.907-17.056,24.907-20.768
	c0-1.227-17.907,7.625-24.694,12.208c-10.342,6.981-18.03,12.896-18.03,13.872C180.891,161.919,191.227,158.837,198.708,155.495
	L198.708,155.495z M253.181,149.636c3.301-2.112,9.561-7.168,13.911-11.237c4.349-4.069,8.758-7.707,9.796-8.083
	c3.705-1.346,6.414,2.228,8.544,11.274c1.132,4.807,2.484,9.003,3.004,9.324c0.52,0.321,4.321-2.557,8.447-6.396
	c10.512-9.779,12.682-9.429,16.131,2.601c1.056,3.682,2.708,6.997,3.672,7.367c2.038,0.782,7.554-4.117,11.113-9.867
	c1.324-2.14,3.559-7.974,4.969-12.967l2.561-9.077l-3.944-0.74c-8.07-1.514-61.63,0.258-72.55,2.4
	c-9.812,1.924-23.592,5.751-31.082,8.632c-3.313,1.274-3.33,1.323-0.988,2.963c1.69,1.184,2.774,3.932,3.74,9.481
	c0.749,4.298,2.146,8.683,3.105,9.745c1.6,1.769,2.237,1.783,7.656,0.174C244.518,154.266,249.878,151.748,253.181,149.636
	L253.181,149.636z M140.938,153.25c5.357-2.238,9.931-8.563,9.931-13.731c0-2.284,0.564-4.502,1.255-4.929
	c0.691-0.427,0.82-1.204,0.289-1.726c-2.047-2.013-19.904-5.993-29.504-6.577l-10.062-0.611l-4.084,4.084
	c-3.271,3.271-4.083,4.975-4.083,8.561c0,5.893,2.554,9.299,9.084,12.115C123.844,154.785,134.6,155.898,140.938,153.25
	L140.938,153.25z M454.871,152.114c3.34-3.095,5.443-9.416,5.453-16.387c0.008-5.892-2.912-15.928-5.182-17.812
	c-2.826-2.346-9.055-0.388-13.816,4.343c-5.07,5.038-11.02,13.346-11.02,15.387c0,2.714,7.377,12.901,10.896,15.047
	c4.887,2.98,10.066,2.761,13.67-0.579H454.871z M420.166,138.057c0.984-0.983-7.426-21.437-13.768-33.488
	c-4.074-7.738-12.559-16.308-18.33-18.513c-5.066-1.935-5.32-1.924-8.34,0.326c-4.552,3.392-7.254,11.753-7.279,22.509
	c-0.027,12.932,2.477,17.065,14.279,23.567c4.928,2.715,10.645,5.145,12.701,5.401C405.5,138.612,419.477,138.746,420.166,138.057
	L420.166,138.057z M195.667,134.998c5.007-5.007-5.92-27.482-13.364-27.482c-1.322,0-3.419,1.29-4.659,2.867
	c-3.246,4.126-8.714,17.499-7.959,19.465C171.282,134.01,192.456,138.208,195.667,134.998L195.667,134.998z M417.025,87.89
	c-0.391-0.632,0.098-6.998,1.084-14.146c3.436-24.885,5.244-40.743,5.256-46.052c0.01-5.722,1.922-8.458,5.068-7.251
	c1.039,0.398,2.211,2.007,2.604,3.575c1.053,4.197-5.783,58.819-7.885,63.002C422.055,89.205,418.18,89.755,417.025,87.89
	L417.025,87.89z M404.023,76.05c-0.637-0.794-1.51-5.601-1.939-10.682c-1.025-12.113-3.199-19.595-9.547-32.857
	c-4.189-8.754-6.908-12.613-13.725-19.471c-7.183-7.231-8.317-8.89-7.332-10.733c1.877-3.505,4.705-2.557,11.603,3.891
	c14.426,13.481,24.629,36.189,27.004,60.089c0.543,5.46,0.355,8.358-0.613,9.526C407.764,77.875,405.564,77.97,404.023,76.05
	L404.023,76.05z"/>
</svg>