<?xml version="1.0" encoding="utf-8"?>
<!-- Generator: Adobe Illustrator 16.0.0, SVG Export Plug-In . SVG Version: 6.00 Build 0)  -->
<!DOCTYPE svg PUBLIC "-//W3C//DTD SVG 1.1//EN" "http://www.w3.org/Graphics/SVG/1.1/DTD/svg11.dtd">
<svg version="1.1"
   id="svg10" xmlns:cc="http://creativecommons.org/ns#" xmlns:dc="http://purl.org/dc/elements/1.1/" xmlns:rdf="http://www.w3.org/1999/02/22-rdf-syntax-ns#" xmlns:svg="http://www.w3.org/2000/svg"
   xmlns="http://www.w3.org/2000/svg" xmlns:xlink="http://www.w3.org/1999/xlink" x="0px" y="0px" width="auto" 
   viewBox="0 0 432.626 499" enable-background="new 0 0 432.626 499" xml:space="preserve">
<path id="path20" d="M161.248,498.325c-10.671-2.674-22.427-12.798-26.681-22.979c-4.406-10.545-6.778-49.374-3.543-57.993
  c0.859-2.29,3.241-5.737,5.293-7.658c2.515-2.358,3.486-4.524,2.979-6.652c-3.782-15.902-2.171-24.597,4.555-24.597
  c2.261,0,6.436-0.678,9.277-1.507c4.608-1.346,5.482-1.129,8.121,2.016c1.626,1.938,4.066,5.57,5.423,8.067
  c1.355,2.501,5.207,5.945,8.559,7.655c6.896,3.517,10.298,8.386,15.526,22.208c12.573,33.247,12.973,58.955,1.112,71.449
  C184.177,496.437,170.939,500.757,161.248,498.325z M289.589,477.737c-1.781-0.537-6.764-3.971-11.072-7.629
  c-19.42-16.494-22.952-23.9-24.76-51.956l-1.111-17.21l-6.89-10.771c-7.489-11.706-7.697-12.944-5.632-33.536
  c1.326-13.223,3.783-16.482,10.368-13.755c2.478,1.026,5.422,3.925,6.682,6.58c2.865,6.035,5.461,8.241,16.559,14.065
  c13.224,6.941,19.098,12.407,26.066,24.264c3.432,5.839,6.672,10.946,7.201,11.354c4.049,3.104,13.474,27.963,15.291,40.319
  C325.355,460.319,306.196,482.741,289.589,477.737L289.589,477.737z M34.067,418.273c-6.651-1.935-13.6-9.93-15.337-17.651
  c-4.933-21.905-7.43-42.344-5.96-48.789c1.892-8.3,9.103-20.262,15.152-25.133c5.758-4.636,15.922-4.88,23.323-0.558
  c5.667,3.31,6.371,5.132,8.783,22.734c0.947,6.912,2.653,16.323,3.792,20.912c2.906,11.715,2.579,17.111-1.578,26.043
  c-5.779,12.41-12.065,20.573-17.233,22.375C39.733,420.047,40.144,420.044,34.067,418.273L34.067,418.273z M357.141,385.609
  c-2.848-0.771-9.83-4.527-15.52-8.348c-13.477-9.053-16.664-14.741-18.321-32.717c-0.877-9.487-2.019-14.331-3.862-16.368
  c-1.587-1.753-2.619-5.222-2.619-8.8c0-4.576-0.785-6.422-3.494-8.194c-1.921-1.261-3.495-3.633-3.495-5.272
  c0-1.641-1.433-5.783-3.184-9.206s-3.58-9.883-4.065-14.353l-0.882-8.128l-5.51,0.478c-8.41,0.728-10.894-0.672-18.314-10.314
  c-7.063-9.177-10.363-17.326-11.06-27.302c-0.219-3.158-0.592-6.146-0.825-6.639c-0.234-0.494-3.413,1.966-7.066,5.467
  c-7.88,7.549-12.963,8.837-27.847,7.058c-16.378-1.959-17.357-1.605-29.332,10.613c-7.795,7.953-13.828,12.515-21.879,16.546
  c-10.156,5.085-12.145,5.559-22.998,5.495c-13.966-0.081-29.703-4.738-34.446-10.193c-2.791-3.211-3.63-3.394-9.468-2.08
  c-8.509,1.914-27.372-0.648-35.601-4.838c-7.139-3.636-18.24-12.213-22.334-17.258c-2.375-2.927-3.625-3.262-9.107-2.44
  c-5.811,0.871-6.79,0.528-11.435-4c-7.399-7.211-18.926-34.278-20.676-48.552c-0.749-6.106-1.704-13.857-2.122-17.226
  c-0.419-3.369,0.388-11.291,1.793-17.605c1.99-8.945,2.302-14.285,1.414-24.183c-1.568-17.47-1.393-19.849,1.587-21.562
  c1.427-0.82,4.569-3.196,6.982-5.279c3.929-3.392,4.503-5.016,5.492-15.523c0.608-6.455,1.554-12.807,2.102-14.116
  c0.62-1.48-0.366-3.999-2.609-6.665c-4.021-4.778-8.379-14.315-8.379-18.333c0-4.507,8.762-20.531,12.603-23.046
  c4.939-3.237,4.612-5.417-1.515-10.09c-3.852-2.938-5.174-5.061-5.174-8.307v-4.36h77.677h77.677l4.462,3.3
  c5.655,4.181,13.783,4.107,21.483-0.193c5.451-3.045,7.252-3.176,38.166-2.782l32.445,0.415l2.71,9.61
  c1.49,5.285,4.431,14.839,6.536,21.231c3.196,9.711,3.658,13.114,2.81,20.698c-1.306,11.641-5.396,20.859-12.556,28.295
  c-3.251,3.375-6.159,8.135-6.773,11.088c-0.596,2.846-2.657,7.055-4.584,9.354c-2.087,2.488-3.505,6.093-3.505,8.911
  c0,2.608-2.654,9.923-5.913,16.296c-3.255,6.36-5.914,13.012-5.914,14.782c0,1.77,2.873,7.858,6.386,13.528
  c10.731,17.326,15.876,31.589,16.857,46.741l0.856,13.212l6.263-0.939c8.322-1.248,12.191,1.417,20.752,14.295
  c7.76,11.673,12.457,23.801,12.457,32.164c0,4.828,0.571,5.934,3.44,6.653c4.484,1.126,20.823,17.342,22.842,22.671
  c0.863,2.275,1.97,5.974,2.459,8.214c0.671,3.08,3.867,6,13.056,11.935c12.927,8.348,17.721,13.946,23.839,27.822
  c10.139,22.998,10.401,34.318,1.025,44.174c-4.94,5.194-6.341,5.855-12.1,5.72c-3.582-0.084-8.84-0.782-11.688-1.554H357.141z
   M61.455,330.025c-11.034-5.511-5.644-14.74,11.601-19.862c7.941-2.357,11.519-2.813,13.306-1.692
  c6.628,4.161,5.828,18.266-1.245,21.923C79.345,333.379,67.806,333.198,61.455,330.025L61.455,330.025z M133.156,327.645
  c-2.81-4.29-4.747-22.295-2.543-23.656c2.63-1.626,5.685,0.459,10.503,7.168c5.873,8.178,7.214,14.207,3.9,17.521
  C141.451,332.241,135.849,331.755,133.156,327.645L133.156,327.645z M219.391,318.899c-10.995-8.326-15.205-22.456-8.498-28.526
  c2.544-2.303,2.914-3.854,2.141-9.006c-0.789-5.256-0.476-6.47,2.003-7.797c4.171-2.233,10.231,0.429,12.088,5.311
  c1.862,4.898,0.826,7.94-3.052,8.956c-4.27,1.115-3.62,3,1.417,4.105c9.479,2.082,16.332,11.008,16.332,21.272
  c0,7.454-3.021,10.528-10.34,10.528C227.337,323.743,224.05,322.427,219.391,318.899L219.391,318.899z M390.709,133.802
  c-5.271-2.014-11.605-5.968-17.785-11.103c-1.48-1.231-5.139-5.564-8.13-9.628c-2.99-4.064-9.928-12.608-15.415-18.986
  c-5.489-6.378-9.979-12.623-9.979-13.878c0-1.254-1.691-3.848-3.757-5.763c-7.034-6.519-0.355-11.765,14.485-11.377
  c16.759,0.436,38.921,7.124,58.758,17.729c13.84,7.401,18.454,11.047,21.576,17.046
  C440.608,117.343,413.001,142.318,390.709,133.802L390.709,133.802z M0.839,110.111c-2.282-2.75,0.375-6.653,4.529-6.653
  c3.445,0,4.781,2.2,3.598,5.927C7.864,112.86,3.447,113.254,0.839,110.111z M309.845,55.429c-2.591-3.124-0.743-6.672,3.477-6.672
  c4.575,0,5.946,3.464,2.576,6.514C312.689,58.174,312.137,58.189,309.845,55.429z M328.06,38.038
  c-1.584-2.515-0.563-19.142,1.316-21.437c0.832-1.017,2.739-1.848,4.238-1.848c6.592,0,8.146,15.514,2.155,21.504
  C331.711,40.316,329.776,40.763,328.06,38.038z"/>
</svg>