<?xml version="1.0" encoding="UTF-8"?>
<!-- Created with Inkscape (http://www.inkscape.org/) -->
<svg width="602" height="645" version="1.1" viewBox="0 0 602 645" xmlns="http://www.w3.org/2000/svg" xmlns:cc="http://creativecommons.org/ns#" xmlns:dc="http://purl.org/dc/elements/1.1/" xmlns:rdf="http://www.w3.org/1999/02/22-rdf-syntax-ns#">
 <metadata>
  <rdf:RDF>
   <cc:Work rdf:about="">
    <dc:format>image/svg+xml</dc:format>
    <dc:type rdf:resource="http://purl.org/dc/dcmitype/StillImage"/>
    <dc:title/>
   </cc:Work>
  </rdf:RDF>
 </metadata>
 <path d="m331.21 634.79c-2.0989-0.74857-4.5739-2.0239-5.5-2.8342-1.267-1.1085-5.6439-1.6115-17.684-2.0321-24.373-0.85145-40.478-4.2238-88.946-18.626-21.884-6.5027-28.29-9.1443-33.767-13.924-1.8078-1.5776-9.5869-6.1641-17.287-10.192-18.978-9.9281-29.643-17.033-38.137-25.407-8.2434-8.1266-15.792-13.982-20.632-16.004-1.9462-0.81317-4.5867-3.227-6.2048-5.6721-7.7792-11.755-16.861-18.486-23.444-17.374-3.5966 0.60764-3.9485 0.38676-10.692-6.7119-10.934-11.511-25.883-35.067-24.591-38.75 0.28481-0.81193 1.0089-3.9084 1.6091-6.8812 1.0505-5.203 0.95508-5.6896-2.5538-13.024-2.0048-4.1904-6.2205-15.413-9.3682-24.94-3.3275-10.071-6.5554-18.096-7.7113-19.173-1.0935-1.0187-1.7138-2.2961-1.3786-2.8386 1.235-1.9983-1.5844-10.773-3.771-11.736-1.1628-0.51216-2.273-1.8312-2.4671-2.9312-0.28541-1.6175-0.10484-1.7609 0.94416-0.75 2.0252 1.9518 3.1979 1.4724 2.4465-1-0.3761-1.2375-1.7378-8.55-3.026-16.25-1.5232-9.1044-2.4141-12.601-2.5478-10l-0.20561 4-0.9477-4c-1.2757-5.3842-1.9317-67.946-0.8179-78 0.5483-4.9496 0.52577-8.3622-0.0591-8.95-1.2486-1.2548-1.209-10.151 0.0647-14.557 0.55552-1.9214 1.431-7.1684 1.9456-11.66 1.0435-9.1091 7.0123-27.802 20.143-63.083 7.6484-20.551 8.4649-22.25 10.69-22.25h2.4089l-2.1453-3.636-2.1453-3.636 2.1322-2.2696c1.724-1.8351 1.9243-2.6581 1.0465-4.2982-1.6724-3.125-1.2914-8.8365 0.87252-13.078 3.2356-6.3422 19.983-19.658 24.317-19.335 4.0806 0.30421 9.6299-3.6036 17.392-12.247 4.445-4.95 11.851-12.375 16.457-16.5 4.6064-4.125 9.2754-8.3379 10.376-9.362 4.1156-3.8309 25.289-19.4 33-24.266 11.497-7.2548 26.719-15.626 37.981-20.889 20.256-9.4649 52.528-21.087 53.625-19.312 0.39837 0.64457 2.181 0.4706 5.0063-0.48858 2.4132-0.81927 9.5626-1.9822 15.888-2.5844 10.332-0.98363 12.295-1.5011 19.331-5.0968 4.3072-2.2011 9.0322-4.0017 10.5-4.0012 3.9085 0.0012 12.292 3.433 14.229 5.8246 2.1696 2.6793 3.1642 2.8705 24.091 4.6312 24.848 2.0906 37.849 5.0273 37.849 8.5496 0 0.52806-2.2636 2.1072-5.0303 3.5091-15.079 7.6412-40.4 24.213-56.079 36.704-26.954 21.472-51.828 50.864-64.769 76.531-3.1243 6.1971-4.8388 8.0984-3.8325 4.25 0.28766-1.1 0.1228-2-0.36635-2-1.591 0-9.9867 18.852-14.401 32.338-7.764 23.716-12.476 49.88-14.486 80.425l-1.0697 16.262 4.8577 10.298c2.6717 5.6641 6.5042 13.108 8.5166 16.541 2.0124 3.4337 3.6589 6.5046 3.6589 6.8243 0 1.4048-4.0641-4.8389-7.9336-12.188-6.8593-13.028-7.7124-12.919-5.0846 0.64908 1.023 5.2823 2.7956 12.746 3.9391 16.585 2.4902 8.3616 2.4842 8.2656 0.5117 8.2656-1.0225 0-1.3882 0.60841-1.0519 1.75 0.28353 0.9625 1.0227 4.6401 1.6427 8.1725 2.9247 16.665 12.833 39.638 25.631 59.423 8.8515 13.685 30.559 42.58 32.019 42.621 0.64538 0.0181 3.1204 1.5046 5.5 3.3033 2.8124 2.1258 5.4406 3.2632 7.5096 3.25 3.1684-0.0203 9.1032 5.3398 34.302 30.98 2.7027 2.75 8.7979 7.4386 13.545 10.419 10.01 6.2848 30.87 15.546 40.932 18.173 6.7956 1.774 9.4659 1.7255 6.5092-0.11822-0.96261-0.60025-0.0885-0.71569 2.529-0.33401 5.4036 0.78794 14.5 4.9291 14.5 6.6012 0 1.4787 9.0749 3.8696 24.374 6.4214 19.403 3.2364 61.054 2.3513 63.467-1.3487 0.36281-0.55653 5.8347-1.2938 12.16-1.6384 17.841-0.97207 38.742-6.842 52.701-14.801 2.8607-1.631 6.2357-2.8751 7.5-2.7645 4.4691 0.39081 5.5676-0.12053 6.0862-2.8331 0.37294-1.9509-0.0194-3.1013-1.3834-4.0567-1.0472-0.73348-1.904-2.0528-1.904-2.9319 0-1.4437 0.17687-1.4382 1.8287 0.0567 1.0058 0.91025 2.3558 1.655 3 1.655s1.1713 1.1064 1.1713 2.4586v2.4586l7.25-3.8573c3.9875-2.1215 8.2625-4.1582 9.5-4.526 3.6256-1.0775 2.8003 2.2523-1.5944 6.4328-2.1144 2.0114-4.1459 4.8585-4.5144 6.3268-0.93678 3.7324-5.5767 8.728-13.7 14.75-3.8177 2.8302-6.9413 5.726-6.9413 6.4352 0 0.70914-1.8269 2.804-4.0598 4.6553-2.2329 1.8513-8.8704 7.8757-14.75 13.388-25.241 23.662-41.961 36.673-63.19 49.173-11.234 6.6147-49.579 25.463-55.5 27.281-3.85 1.1821-9.2185 3.1337-11.93 4.337-2.7115 1.2032-5.5341 2.0532-6.2724 1.8887-0.73831-0.16444-2.0011 0.3597-2.8061 1.1648-1.504 1.504-15.897 5.0242-25.258 6.1775-5.4617 0.67291-7.2338 2.2291-7.2338 6.3524 0 1.5371-1.0222 2.3024-4.2279 3.1657-15.224 4.0994-27.136 4.9694-34.088 2.4898zm-42.684-13.551c0-0.55-0.675-1-1.5-1s-1.5 0.45-1.5 1 0.675 1 1.5 1 1.5-0.45 1.5-1zm16.25-3.9864c4.4384-0.0105 5.75-0.35581 5.75-1.5136 0-1.249-1.9662-1.4977-11.75-1.4864-11.954 0.0139-16.25 0.55723-16.25 2.0553 0 0.86306 10.958 1.8232 14.5 1.2705 1.1-0.17164 4.5875-0.31823 7.75-0.32574zm41.814-2.5102c13.746-1.7987 21.821-3.5075 22.61-4.7846 1.9759-3.1971-11.128-3.595-23.674-0.71885-4.675 1.0718-9.9625 1.9602-11.75 1.9743-3.6189 0.0286-4.4539 2.2251-1.5 3.9456 2.2162 1.2908 0.99518 1.3264 14.314-0.4164zm-32.564-3.488c10.868-0.99681 17.761-1.9739 18.417-2.6108 0.22916-0.22259-4.1846-0.40471-9.8084-0.40471-11.612 0-29.108 1.8996-29.108 3.1603 0 1.0746 7.8058 1.0194 20.5-0.14481zm87.562-2.8622c4.6407-1.5657 10.125-3.1611 12.188-3.5453 2.0625-0.38421 3.75-1.1282 3.75-1.6532 0-0.52508 0.9-0.95469 2-0.95469s2-0.1882 2-0.41821c0-0.23002 0.26118-1.0988 0.58039-1.9307 0.51157-1.3331 8e-3 -1.3541-4.25-0.17708-6.9923 1.9331-28.768 8.7077-29.181 9.0782-0.8089 0.72715 1.1042 2.4478 2.7216 2.4478 0.96437 0 5.5503-1.281 10.191-2.8468zm-139.06 0.30455c0-0.29821-0.46535-1.0857-1.0341-1.75-0.56875-0.66428-1.5812-1.9803-2.25-2.9245-1.2722-1.7962-9.7393-3.6857-9.6841-2.1611 0.0175 0.4828 0.66028 1.7073 1.4284 2.721 1.8754 2.4752 11.54 5.921 11.54 4.1146zm23.412-0.26727c0.50141-0.2796 4.5514-0.59181 9-0.6938 4.4486-0.10198 9.3467-0.53449 10.885-0.96112 2.6578-0.73725 2.7127-0.86815 1.1076-2.6418-1.473-1.6277-3.3635-1.8811-14.796-1.9838-16.9-0.15183-30.997 0.1468-31.518 0.66767-0.88376 0.88282 3.4124 4.4993 6.3292 5.3279 3.2708 0.92917 17.456 1.142 18.993 0.28495zm67.267-2.3914c4.4815-1.6205 4.2132-3.038-0.429-2.2665-5.2635 0.87476-6.25 1.2593-6.25 2.436 0 1.3702 2.6037 1.3041 6.679-0.16951zm43.688-1.178c2.6771-0.82282 5.7321-2.4242 6.789-3.5586s2.804-2.0625 3.8826-2.0625c1.0786 0 1.961-0.675 1.961-1.5 0-0.91545-0.93256-1.5-2.393-1.5-1.3162 0-2.6302-0.61818-2.9202-1.3737-0.28994-0.75555-2.0256-1.6548-3.8571-1.9984s-8.4998-2.6102-14.818-5.037l-11.488-4.4123-1.7548 2.6607c-0.96516 1.4634-1.7578 2.9494-1.7614 3.3021-0.0208 2.0235 16.877 6.8004 24.792 7.0084 3.1357 0.0824 4.4637 0.3373 2.9512 0.56642-2.8618 0.43354-3.8746 2.2838-1.25 2.2838 0.825 0 1.5 0.38958 1.5 0.86573s-1.9106 0.51634-4.2459 0.0893c-3.0114-0.55068-5.2647-0.34374-7.75 0.71177-1.9273 0.8185-5.9074 1.6441-8.8448 1.8347-6.168 0.40015-6.9384 0.85498-5.133 3.0304 1.0798 1.3011 2.9153 1.4923 10.392 1.0827 4.9946-0.27358 11.271-1.1706 13.949-1.9934zm-173.37 0.4859c0-1.1091-3.0764-2.3639-3.8642-1.5762-0.31785 0.31786 0.0841 0.99656 0.89313 1.5082 1.8699 1.1825 2.971 1.2077 2.971 0.0679zm24.443-1.357c-0.38039-1.2375-0.75277-2.3296-0.82751-2.4268-0.0747-0.0972-1.7063-0.32224-3.6258-0.5-4.6412-0.42984-5.0824 1.2672-0.87835 3.3788 4.7852 2.4035 6.1732 2.2858 5.3316-0.45197zm71.151 1.0983c1.1464-1.855-2.627-3.8483-7.2849-3.8483-5.1143 0-5.5802 1.544-1.0589 3.5091 3.9892 1.7339 7.3962 1.8724 8.3438 0.33917zm14.406-1.8131c0-1.7545-3.7948-3.0352-8.9933-3.0352-5.2692 0-5.9663 1.2669-1.6544 3.0067 2.9526 1.1913 10.648 1.2119 10.648 0.0285zm14.559-1.1311c1.1233-1.8175-2.3066-4.304-5.9369-4.304-2.2547 0-3.2491-0.40919-2.9417-1.2104 0.4544-1.1842-2.3017-2.8641-20.871-12.722l-8.6903-4.6134-1.4506 2.9077c-1.2681 2.542-1.2677 2.9779 4e-3 3.4658 0.79984 0.30693 1.221 0.93539 0.93602 1.3966-0.28503 0.46119 3.0745 2.7528 7.4656 5.0925 5.9232 3.156 9.7186 4.4585 14.705 5.0465 4.9758 0.58671 6.1368 0.9843 4.471 1.5312-3.2668 1.0725-2.7688 2.169 1.5 3.3028 5.1638 1.3715 9.9981 1.4192 10.809 0.10673zm-77.559-3.2998c0-2.4671-9.7155-7.8705-15.078-8.3858-2.7104-0.26044-4.922-0.0546-4.922 0.45811 0 1.4397 6.2044 7.0961 9 8.205 3.9288 1.5584 11 1.3801 11-0.27732zm26-0.0917c0-3.3589-13.997-9.5461-21.428-9.4719l-4.0719 0.0406 3.5 3.0668c1.925 1.6868 5.75 4.1391 8.5 5.4496 5.7862 2.7574 13.5 3.2802 13.5 0.91483zm-43-0.0783c0-3.3191-7.2021-10.434-10.562-10.434-3.2786 0-3.0726 1.8111 0.77572 6.8182 2.6197 3.4086 3.8216 4.1818 6.5 4.1818 1.8073 0 3.286-0.25458 3.286-0.56574zm51.5-1.1118c0-1.8309-14.218-11.322-16.96-11.322-1.3496 0-0.35343 1.9021 1.2102 2.3107 1.2739 0.33291 1.1168 0.48889-0.57765 0.57333-1.8482 0.0921-0.81813 1.149 5 5.1306 6.8762 4.7057 11.328 6.0056 11.328 3.3078zm13.5-0.34443c0-1.3183-1.6275-3.0542-4.6766-4.9878-5.3952-3.4215-9.801-4.4942-13.233-3.2217-2.2833 0.84671-2.0854 1.09 3.7914 4.66 9.2573 5.6235 14.118 6.8455 14.118 3.5495zm-76 0.0354c0-2.3363-5.6096-8.9394-7.625-8.9754-1.1688-0.0209-3.6376-0.34047-5.4864-0.71022l-3.3614-0.67227 1.6381 2.4223c0.90097 1.3322 2.3318 2.364 3.1796 2.2928 0.84783-0.0712 2.2632 1.3913 3.1452 3.25 1.3653 2.8772 2.1168 3.3794 5.0567 3.3794 1.8992 0 3.4531-0.44399 3.4531-0.98665zm34 0.16096c0-1.9232-4.944-5.4094-6.6991-4.7238-1.5988 0.6246-1.4643 0.97483 1.1991 3.1216 3.0062 2.423 5.5 3.1495 5.5 1.6023zm-49.659-4.1743c-0.97468-1.65-2.188-3-2.6963-3-0.50829 0-1.4238-0.64232-2.0344-1.4274-0.61063-0.78506-2.2352-1.5726-3.6102-1.75-2.2996-0.29676-2.5-6e-3 -2.5 3.6325 0 4.3944 1.3852 5.2509 8.8065 5.4452l3.8065 0.0997-1.7721-3zm202.36 1.1089c5.3295-1.948 15.884-7.6299 16.737-9.0102 0.2647-0.42829-1.9959-1.2277-5.0236-1.7765-4.7218-0.85585-5.4239-0.78673-4.9356 0.4859 1.2302 3.2058-23.337-0.95191-46.247-7.8268-7.297-2.1897-13.485-3.9813-13.75-3.9813-0.26548 0-0.48268 0.9253-0.48268 2.0562 0 2.5246 4.8334 4.8087 18.688 8.8312 10.607 3.0797 17.746 5.9002 15.265 6.031-0.85076 0.0449-6.9258-1.7276-13.5-3.9387-11.313-3.8048-17.453-4.491-17.453-1.9504 0 1.06 20.017 7.6396 28.988 9.5286 4.6616 0.98154 6.7729 1.0601 7.5 0.27908 0.6892-0.74027 0.61328-1.2332-0.238-1.5453-1.3299-0.48762-1.7665-3.3228-0.5-3.2465 1.4601 0.088 9.7308 4.8651 8.5 4.9096-1.6428 0.0594-1.629 3.0452 0.0141 3.0452 0.69526 0 3.5923-0.85099 6.4379-1.8911zm23.048-3.1525c4.5375-2.1254 8.25-4.3725 8.25-4.9937 0-1.3607 0.50554-1.5319-11.922 4.0372-9.8031 4.3931-12.852 6.6521-7.3282 5.4294 1.5125-0.33478 6.4625-2.3476 11-4.473zm-102.03 2.1785c0.68291-0.38155-4.5506-2.9792-11.872-5.8925-12.076-4.8057-14.85-5.431-14.85-3.3482 0 0.42689 3.8531 2.7388 8.5625 5.1376s8.8109 4.7634 9.1145 5.2546c0.55756 0.90215 6.7885 0.10884 9.0443-1.1515zm5.8106-4.2356c0.3667-1.1554 0.28452-2.4247-0.18261-2.8207-0.70772-0.59995-16.629-7.9441-35.088-16.186-5.3304-2.3799-5.2609-2.3879-5.2609 0.60734 0 1.375 0.5051 2.5 1.1224 2.5 0.75139 0 0.69 0.52107-0.18569 1.5762-1.0841 1.3063-1.0623 1.7318 0.12755 2.4847 0.78964 0.49966 2.3286 0.91537 3.4198 0.92379 1.0913 8e-3 4.4663 1.2201 7.5 2.6927s6.5284 3.0476 7.7658 3.5 3.2625 1.2567 4.5 1.7873c2.8098 1.2047 14.011 4.9566 14.933 5.0018 0.37544 0.0184 0.98264-0.91181 1.3493-2.0672zm-157.1-1.9951c1.5979-1.491-0.14969-2.1264-2.455-0.89265-1.5476 0.82823-2.5056 0.86105-3.2552 0.1115-0.74954-0.74954-0.36521-1.32 1.3058-1.9381l2.368-0.87597-2.6078-0.49852c-2.2459-0.42933-2.665-0.10916-3.0196 2.3066-0.2865 1.9521 0.0661 2.9302 1.1594 3.2165 1.8978 0.49693 5.2233-0.23387 6.5044-1.4294zm54.166-1.6385c-0.33506-0.33506-2.5194-0.74238-4.8542-0.90515-2.3347-0.16276-5.4825-0.58796-6.995-0.94487-2.1232-0.50102-2.75-0.28481-2.75 0.94859 0 1.6945 4.0847 3.2009 6.3364 2.3368 0.73748-0.283 2.876-0.19171 4.7522 0.20287 3.1452 0.66145 4.9622-0.18647 3.5105-1.6382zm24.96 1.2024c-2.051-1.5513-5.5211-1.8526-9.3934-0.81581-3.7695 1.0093-0.44703 2.3193 5.8345 2.3005 5.0522-0.0151 5.342-0.13601 3.5589-1.4847zm-45.885-4.1273c-0.27999-0.27999-2.3462-0.75549-4.5917-1.0567-3.639-0.48809-4.0826-0.32254-4.0826 1.5237 0 1.6717 0.72353 2.1312 3.75 2.3817 3.4132 0.2825 6.3541-1.4188 4.9242-2.8487zm131.08 2.4091c2.614-3.2674 2.3197-5.3494-0.99665-7.0493l-3.2585-1.6702 3.6355 0.5746c4.6435 0.73391 5.8578-1.0631 1.6982-2.5132-2.5467-0.88778-3.4885-0.80924-4.8276 0.40258-1.7541 1.5874-3.4629 2.0536-2.6386 0.71984 0.26708-0.43215-0.26886-0.83848-1.191-0.90297-0.92212-0.0645-2.5818-0.41034-3.6881-0.76856-1.8438-0.597-1.9819-0.27884-1.6562 3.8166 0.33838 4.2545 0.57776 4.5637 5.0115 6.4733 5.6187 2.42 6.6166 2.5357 7.9113 0.9173zm-92.337-1.357c2.5587-0.98188 1.8406-1.9989-2.2842-3.2347-5.8015-1.7382-10.218-1.5397-9.4635 0.42539 1.0504 2.7372 7.7566 4.3409 11.748 2.8093zm186.21-2.4746c1.8524-1.1449 3.368-2.4361 3.368-2.8694s-6.1875-1.7513-13.75-2.9288c-14.089-2.1937-26.644-5.0596-25.812-5.8918 0.25685-0.25686 3.5258 0.25791 7.2644 1.1439 13.663 3.238 37.567 6.7583 38.635 5.6898 1.5324-1.5324 0.55721-2.0129-5.9385-2.9261-5.6603-0.79574-5.5144-0.82956 3.6006-0.83439 7.9768-4e-3 10.294-0.38956 14.45-2.4033 6.7224-3.2573 7.0059-4.8668 0.88367-5.0166-10.372-0.25389-10.215-1.4304 0.18724-1.4068 10.48 0.0238 11.351-0.13749 17.75-3.2876 3.7012-1.822 6.7294-3.9595 6.7294-4.75 0-0.79054-0.1125-1.4325-0.25-1.4265-0.1375 6e-3 -2.459 0.68096-5.1589 1.5-5.6551 1.7155-11.195 1.9397-12.091 0.48918-0.33992-0.55-4.079-1.0078-8.309-1.0174-8.0691-0.0182-19.945-2.0883-22.934-3.9977-1.4946-0.95476-1.3836-1.0309 0.74276-0.50961 7.6473 1.8749 19.153 3.7048 19.721 3.1365 0.36182-0.36182-0.35772-1.3692-1.599-2.2386-1.3979-0.97914-2.0281-2.1768-1.6558-3.147 0.33057-0.86146 0.0233-1.9761-0.68283-2.477-0.78808-0.55904 0.45387-0.61413 3.2161-0.14266 7.167 1.2233 14.267 1.0516 14.743-0.35652 0.28752-0.84907-0.80623-1.2725-3.4101-1.3203-7.683-0.14086-8.1254-1.7863-0.5-1.8594 8.0708-0.0774 9.5255-1.8192 2.8398-3.4003-2.0202-0.47777-3.6731-1.4441-3.6731-2.1474s-0.96208-1.9175-2.138-2.6982c-1.9239-1.2774-3.4368-0.97874-15.109 2.9828-12.932 4.3888-22.252 6.0373-27.164 4.8046-4.8596-1.2197-2.5996-2.1665 5.1608-2.1622 5.8407 3e-3 10.645-0.83069 19.5-3.385 6.4625-1.8641 11.736-3.8788 11.718-4.4769-0.0174-0.59818-1.1678-2.3797-2.5564-3.959-2.3621-2.6863-2.8596-2.8278-7.7184-2.1964-2.8565 0.37122-12.394 2.3978-21.194 4.5035-16.212 3.8792-26.27 5.6357-23.5 4.1039 0.825-0.45623 5.325-1.581 10-2.4995 7.5582-1.4849 24.081-5.5667 29.5-7.2878 6.5115-2.068-15.448-1.8488-31.401 0.31334-4.2286 0.57312-5.2319 0.45836-4.6219-0.52866 0.45175-0.73096 0.20007-1.6268-0.59898-2.1321-0.81496-0.51535 4.7515-0.8291 13.622-0.76777 15.53 0.10737 24.5-0.71663 24.5-2.2507 0-0.79571-26.144-1.5573-41.5-1.209-29.958 0.67957-55.024 0.13148-56.389-1.233-0.24449-0.24449 4.3555-0.44453 10.222-0.44453 8.4455 0 10.667-0.28978 10.667-1.3916 0-1.3682-2.9853-2.5566-8.0882-3.2198-1.4235-0.18501-5.4735-1.0165-9-1.8477s-9.4135-1.518-13.082-1.5261c-14.993-0.0332-50.933-7.8235-66.864-14.493-7.4377-3.114-19.118-10.342-20.608-12.752-0.42151-0.68203 1.4631 0.38428 4.188 2.3696 8.7652 6.3861 20.062 11.114 21.396 8.9553 0.50044-0.80974 2.1271-0.50942 5.6275 1.039 7.8574 3.4757 23.118 7.5395 36.527 9.7272 18.783 3.0643 22.904 3.473 22.904 2.2716 0-1.3971-4.9835-2.6732-24.24-6.2068-23.406-4.295-36.041-8.0453-41.953-12.452-2.5282-1.8846-2.6645-1.9247 8.4433 2.4869 7.7945 3.0957 24.169 7.3228 33 8.5187 5.371 0.72738 6.4393-0.69471 1.75-2.3294-1.65-0.57519-3-1.5192-3-2.0978s-1.565-1.052-3.4778-1.052c-1.9128 0-5.9843-1.2293-9.0478-2.7317-4.7677-2.3383-5.707-2.5183-6.5222-1.25-0.79826 1.2421-1.0429 1.1583-1.5128-0.51826-0.66052-2.3569-36.62-21.459-37.188-19.755-0.19407 0.5822-2.4676-1.0348-5.0523-3.5932-2.5847-2.5585-8.5244-6.9833-13.199-9.833-9.4681-5.7713-16.435-11.389-18.176-14.657-1.0568-1.9838-1.0084-2.0435 0.58825-0.72608 1.1417 0.94209 1.9716 1.0795 2.4137 0.3997 0.75758-1.1648 4.5922-3.3354 5.8924-3.3354 1.2754 0 4.0829 5.3151 3.5655 6.75-0.24793 0.6875 0.25759 1.25 1.1234 1.25 0.86578 0 2.5908 1.573 3.8333 3.4957 1.2426 1.9226 3.0467 3.7529 4.0092 4.0674 0.9625 0.31444 1.75 0.99139 1.75 1.5043 0 0.51293 0.46882 0.93261 1.0418 0.93261 0.573 0 2.0078 0.9 3.1886 2 2.4359 2.2694 5.7696 2.6611 5.7696 0.67796 0-0.72712-1.7849-2.8195-3.9664-4.6498-3.7907-3.1803-4.6105-5.5705-1.5015-4.3775 1.6196 0.62152 1.7621 0.27932 0.86098-2.0689-0.67634-1.7625-3.393-2.1811-3.393-0.52277 0 1.9668-2.0205-0.17234-3.4942-3.6994-0.80514-1.927-1.9265-3.2177-2.4919-2.8682-0.56541 0.34945-1.3304-0.15265-1.7-1.1158-0.66801-1.7408-6.2057-7.0752-9.088-8.7543-1.2262-0.71435-1.4135-0.38258-1.0012 1.7739 0.27889 1.4589 0.15733 2.8687-0.27013 3.1329-1.4557 0.8997-8.7262-8.4969-9.4149-12.168-0.43268-2.3064-1.8215-4.5471-3.8579-6.2244-7.3007-6.0132-14.105-12.917-16.888-17.135l-2.9694-4.5 3.64 4c9.8104 10.781 11.684 12.685 12.086 12.284 0.41157-0.41157-4.8306-14.247-8.2535-21.784-2.7177-5.9836-6.9565-11.488-9.9384-12.905-1.5719-0.74707-4.5734-2.2436-6.67-3.3256-3.3931-1.7511-3.9975-1.8038-5.5-0.47923-5.0616 4.4622-12.188-5.7911-12.188-17.536 0-8.641 3.4287-13.755 9.2225-13.755 4.3834 0 4.3721-2.391-0.0461-9.7578-4.8658-8.113-7.4828-14.478-6.9623-16.933 0.23828-1.1237 1.0547 0.16783 2.1543 3.4079 1.7699 5.2152 5.6525 12.791 8.8025 17.176 3.1756 4.4205 3.6291 1.7094 1.2366-7.3934-1.301-4.95-2.375-10.171-2.3865-11.602-0.0116-1.4312-1.1298-4.1312-2.4849-6-4.6606-6.4274-8.5504-13.405-9.6009-17.222-1.7424-6.3315-0.41395-6.6056 1.5624-0.32239 1.0099 3.2108 2.3767 6.3782 3.0373 7.0389 0.66062 0.66063 1.5158 2.1926 1.9005 3.4045 0.38462 1.2118 1.3556 2.2034 2.1578 2.2034 1.196 0 1.4008-1.6647 1.1377-9.25-0.2584-7.4496-0.84687-10.418-3.0234-15.25-1.4864-3.3-2.0449-5.1487-1.2411-4.1082s1.6411 2.3905 1.8606 3c1.1568 3.2117 1.7909-1.6891 1.9441-15.025 0.14298-12.448-0.12683-15.558-1.6588-19.116-1.0062-2.3375-2.423-4.25-3.1484-4.25s-2.2515-1.1857-3.3914-2.6349c-2.2942-2.9166-2.7087-8.535-1.066-14.448 0.85567-3.0803 1.4111-3.5833 3.9566-3.5833 1.7168 0 5.1894-1.4794 8.2634-3.5204l5.3022-3.5204 1.8294-8.8019c2.8768-13.842 10.322-38.903 15.296-51.491 9.191-23.258 20.049-41.143 33.391-55 4.5013-4.675 9.3598-10.075 10.797-12s4.3555-5.525 6.4858-8 4.5077-5.7242 5.2831-7.2204c1.281-2.4717 5.0717-5.4304 5.8984-4.6038 0.18586 0.18586-2.1493 3.4007-5.1892 7.1441s-5.2808 7.0525-4.9798 7.3536c0.30107 0.30107 3.1602-1.4855 6.3536-3.9702 3.1934-2.4847 9.6798-6.7891 14.414-9.5653 6.0875-3.5697 9.7345-6.5249 12.455-10.093 3.9076-5.1239 4.3269-5.3907 8.0248-5.1055 1.3793 0.10638 3.3607-1.3918 5.8364-4.4131 4.967-6.0616 14.575-10.953 14.575-7.4196 0 0.66572 0.69759 0.81598 1.75 0.37696 0.9625-0.40152 3.695-1.1171 6.0721-1.5903 2.3772-0.47313 5.6922-1.8358 7.3667-3.0281 1.6745-1.1923 5.2998-3.4012 8.0563-4.9086 4.5095-2.466 4.7897-2.8112 2.7964-3.4438-1.2184-0.38672-3.7585-0.41363-5.6445-0.05981-2.5333 0.47526-3.3596 0.30414-3.1631-0.65502 0.41142-2.0073-6.4917-2.156-12.948-0.27898-3.1098 0.90403-9.1612 3.407-13.448 5.5622-7.4067 3.724-12.416 5.5081-6.5879 2.3465 2.8002-1.5192 3.4553-2.8741 1.8649-3.857-1.4699-0.90847-7.3326 1.5218-12.249 5.0775-2.5487 1.8434-5.6283 3.3515-6.8436 3.3515-1.3422 0-2.4078 0.75794-2.7146 1.9308-0.45783 1.7507-3.0984 3.612-3.936 2.7744-0.9458-0.9458 7.186-7.1591 15.553-11.884 5.1835-2.9269 9.5948-5.843 9.8028-6.4802 0.25106-0.7688-1.6584-1.2734-5.6763-1.5-4.296-0.24229-6.0541 0.01415-6.0528 0.88284 1e-3 0.67338-1.2684 1.8812-2.821 2.6841s-3.4068 2.1634-4.1205 3.0234c-0.75826 0.91365-2.2868 1.3843-3.6772 1.1322-1.3087-0.23731-2.3795-0.0333-2.3795 0.45336 0 0.48666-3.0375 2.5522-6.75 4.59s-8.4234 5.5474-10.469 7.7989c-3.07 3.3798-3.8912 3.8336-4.7084 2.6021-0.78824-1.188-1.2425-1.2389-2.2314-0.25-0.6829 0.6829-1.7141 1.2316-2.2916 1.2194s0.0677-0.88103 1.4338-1.9307c1.5366-1.1806 2.7241-1.5197 3.1138-0.88916 0.34994 0.56621 2.914-1.2648 5.7685-4.1192 2.8262-2.8262 7.05-5.9943 9.3862-7.0403 2.3362-1.046 4.2597-2.486 4.2744-3.2001 0.0153-0.74071 0.98161-1.196 2.25-1.0601 1.2228 0.13102 2.2294-0.09398 2.2369-0.5 8e-3 -0.40602 0.285-1.7507 0.61664-2.9882 0.74339-2.774-1.1394-2.983-4.6578-0.51712-1.3599 0.95308-3.1909 1.6115-4.069 1.4631-0.87808-0.14835-3.8031 1.5636-6.5 3.8044-2.8029 2.3288-5.6255 3.8913-6.5889 3.6474-0.92698-0.2347-1.9254 0.19855-2.2186 0.96277-0.29326 0.76422-1.1156 1.3895-1.8275 1.3895s-1.7385 0.93583-2.2814 2.0796c-0.54292 1.1438-3.9121 3.6557-7.4871 5.582-3.575 1.9263-5.375 2.5898-4 1.4744 1.9269-1.5631 2.2286-2.3003 1.3162-3.2158-0.91326-0.91634-2.4613-0.09651-6.7727 3.5868-3.0738 2.6261-5.323 4.1488-4.9982 3.3838 0.32483-0.76496 4.61-4.7614 9.5227-8.8809 4.9126-4.1196 8.932-7.8321 8.932-8.25 0-1.4946-1.9134-0.70917-6.1734 2.5341-6.0579 4.6121-7.333 5.3437-6.2923 3.6105 0.46382-0.77248 1.6584-1.9925 2.6545-2.7112 0.99617-0.71869 1.8112-1.7312 1.8112-2.25 0-1.8546-2.3193-0.88753-6.1317 2.5567-4.0908 3.6958-6.1885 4.498-5.23 2 0.8869-2.3112-1.1644-1.7784-3.7834 0.98272-1.2952 1.3655-3.2833 2.4905-4.4179 2.5-1.1346 0.0095-3.3563 1.3673-4.9371 3.0173-2.7062 2.8247-6.5 4.0613-6.5 2.1187 0-0.48474 1.4302-2.2796 3.1781-3.9885 1.748-1.709 2.9003-3.385 2.5608-3.7246-1.5148-1.5148-11 3.676-19.314 10.57-4.9912 4.1385-12.273 10.145-16.182 13.348-3.9089 3.2029-9.1767 8.0361-11.706 10.74-4.3848 4.6877-10.181 8.6253-11.199 7.6075-0.26183-0.26183 1.13-1.7575 3.0929-3.3237 1.9629-1.5662 3.5833-3.5227 3.6008-4.3477s0.69253-2.3735 1.5-3.4411c1.8455-2.44 1.8892-5.1833 0.0935-5.8724-2.8924-1.1099-13.625 12.764-13.625 17.613 0 2.4849 0.27804 2.7471 2.25 2.1221 1.5727-0.49844 0.46096 1.137-3.6928 5.4326-3.2686 3.3802-6.0122 6.1457-6.0971 6.1457-0.0848 0 0.88989-2.1375 2.1661-4.75s2.624-6.775 2.995-9.25l0.6747-4.5-2.2597 2c-1.2428 1.1-4.2389 5.9375-6.658 10.75s-4.6076 8.75-4.8633 8.75-0.17985-1.4255 0.16861-3.1678c0.53509-2.6754 0.37577-3.0689-1.025-2.5314-2.631 1.0096-1.943-0.63281 1.7745-4.2359 1.8882-1.8301 3.9993-4.7309 4.6913-6.4462 0.69202-1.7153 1.7969-3.4505 2.4553-3.8559s1.5023-1.953 1.8752-3.439c0.37295-1.486 1.5482-3.9237 2.6116-5.4171 3.4655-4.8669 2.0658-5.0767-5.9718-0.89508-10.08 5.244-14.598 9.2279-17.566 15.488-1.3038 2.75-2.4061 4.2125-2.4495 3.25-0.0434-0.9625-0.69961-1.75-1.4583-1.75-2.4102 0-9.3457 7.6274-10.582 11.638-2.159 7.0039-2.2012 7.0444-3.5018 3.3624l-1.2363-3.5-2.1465 3.5c-1.4512 2.3662-2.1477 2.914-2.1503 1.691-0.01-4.6549-5.0891 3.6075-5.2284 8.5045-0.0856 3.0103-0.0929 3.0141-1.337 0.6894-1.1956-2.2339-1.3206-2.095-2.8241 3.1389-1.8557 6.4596-3.2092 18.428-4.1535 36.726-0.54768 10.612-0.42273 13.25 0.62774 13.25 1.0201 0 1.0449 0.26667 0.11154 1.2-0.66 0.66-1.2 2.7116-1.2 4.559 0 2.1703-0.38587 3.1205-1.0904 2.6851-0.66977-0.41394-0.87533-2.4298-0.53289-5.2259 0.30661-2.5036 0.81469-11.564 1.129-20.135 0.31437-8.5707 0.78449-17.271 1.0447-19.333 0.27433-2.1743 0.048-3.75-0.53868-3.75-0.5565 0-1.0118 0.84752-1.0118 1.8834 0 1.0811-0.90798 2.1208-2.1316 2.4408-2.0759 0.54286-2.116 0.89237-1.5356 13.367 0.32783 7.0451 0.21838 14.834-0.24323 17.309-0.62009 3.3248-0.87196 0.30836-0.96444-11.55-0.1242-15.926-0.63477-18.45-3.7318-18.45-0.81674 0-1.4099 3.1507-1.8354 9.75-0.34581 5.3625-1.027 14.025-1.5137 19.25-0.77309 8.2991-0.8166 7.6793-0.34422-4.9032 0.47739-12.716 0.35982-14.334-1.0036-13.811-1.2971 0.49775-1.2399-0.0781 0.35767-3.5968 1.0461-2.3042 1.9119-4.752 1.924-5.4394 0.02455-1.3972-4.5619-1.7323-5.3892-0.39374-1.3934 2.2545-1.484 9.4459-0.15146 12.023 1.284 2.4831 1.2409 3.0628-0.4161 5.5887-2.6181 3.991-4.1704 13.429-4.9956 30.372-0.67747 13.91-0.73232 14.2-1.0718 5.6602-0.46415-11.674-0.42886-12.999 0.51292-19.25 0.96077-6.3774-0.75435-7.1992-3.1348-1.5021-1.0923 2.6142-1.4161 5.6154-1.0704 9.9215 0.31057 3.869 0.0774 6.5917-0.62463 7.2937-0.82691 0.82691-0.74005 1.3551 0.33177 2.0175 1.2538 0.77491 1.2177 1.3492-0.26513 4.2084l-1.7171 3.311 0.58622-3.25c0.49459-2.742 0.28603-3.25-1.3343-3.25-1.2735 0-2.8317 1.674-4.6251 4.9692-1.4875 2.7331-3.134 5.2346-3.6589 5.559s-0.95436 1.6401-0.95436 2.9238-0.58125 2.557-1.2917 2.8296c-2.1254 0.81559-10.515 15.895-11.643 20.926-1.0464 4.6692-0.63399 7.7924 1.0289 7.7924 0.48424 0 2.49-3.1961 4.4572-7.1025 1.9672-3.9064 3.8334-6.8458 4.1472-6.5321 0.64231 0.64231-0.54482 3.8379-5.3709 14.458-2.7233 5.9926-3.3279 8.5549-3.3279 14.103 0 8.8734 1.0877 19.074 2.0339 19.074 0.41193 0 1.4917-1.8562 2.3994-4.1248 0.90773-2.2686 1.8694-3.9058 2.1371-3.6382 0.57108 0.57108-4.886 14.479-6.1946 15.787-1.8769 1.8769-3.4241-0.92445-4.6031-8.3345-0.67292-4.2294-1.5832-7.6898-2.0228-7.6898-1.6383 0-2.8541 5.6064-2.2183 10.229 0.60301 4.3845 0.48656 4.771-1.4377 4.771-1.1516 0-2.0938 0.1882-2.0938 0.41821 0 0.23002-0.30147 1.2038-0.66994 2.164-0.47353 1.234-0.30721 1.5216 0.56731 0.98117 0.79656-0.4923 1.4329-0.0164 1.7866 1.336 0.30213 1.1553 1.2243 2.1006 2.0493 2.1006 1.0568 0 1.3325-0.66471 0.9331-2.25-0.53727-2.1324-0.49361-2.152 0.83533-0.37457 0.87623 1.1719 2.0332 1.6333 3.0844 1.2299 1.453-0.55756 1.5972-0.13186 1.059 3.1246-0.3427 2.0735-0.62805 4.7684-0.6341 5.9887-8e-3 1.5914-0.44941 2.0504-1.5618 1.6235-1.2655-0.48563-1.424-0.066-0.86167 2.2814 0.37902 1.5821 1.0769 3.6344 1.5508 4.5607 0.47392 0.92634 0.82109 2.5013 0.77148 3.5-0.0496 0.99866-0.51247 0.35324-1.0286-1.4343-1.0584-3.6655-2.3389-4.1318-3.808-1.3867-0.73493 1.3732-0.41544 3.3452 1.2148 7.498 1.2166 3.0991 2.4662 5.6356 2.7769 5.6367 0.31072 1e-3 1.4357-2.0918 2.5-4.6509l1.9351-4.6529 0.1097 6.1252c0.0603 3.3688-0.26398 5.8942-0.72069 5.612-0.4567-0.28226-1.1158 0.62387-1.4646 2.0136-0.6222 2.4791 2.3268 11.543 3.7582 11.551 1.2174 7e-3 2.0155-4.07 1.3348-6.8184l-0.66318-2.6778 2.1321 2.2717c1.1726 1.2494 2.0382 3.0494 1.9235 4-0.26829 2.2234 5.7952 15.228 7.1001 15.228 0.54452 0 1.0037-1.2375 1.0205-2.75 0.02853-2.5805 0.10333-2.6267 1.2132-0.75 0.65056 1.1 2.9998 6.5 5.2204 12 4.6658 11.556 6.1099 14.259 7.0923 13.277 0.3885-0.3885-0.92775-5.5718-2.925-11.518-3.4231-10.192-4.761-17.862-2.7399-15.709 0.49028 0.5225 2.0376 4.4064 3.4386 8.6309 2.9718 8.9614 5.3255 13.819 6.6957 13.819 1.3146 0 1.2275-2.1602-0.43947-10.901-2.1718-11.388-0.05115-19.874 2.6111-10.448 1.6182 5.7293 4.2798 7.4091 3.2779 2.0689-0.44362-2.3647-0.24173-3.7458 0.62597-4.282 0.74092-0.45791 1.4462-0.29543 1.6731 0.38548 0.21579 0.64738 1.0299 1.177 1.809 1.177 0.84444 0 1.4167 1.0098 1.4167 2.5 0 1.375 0.45 2.5 1 2.5s1-1.1092 1-2.4648c0-2.9324 3.0997-5.0355 4.8468-3.2884 1.8422 1.8422 1.4467-9.6441-0.48306-14.029l-1.6362-3.7179-0.83702 3c-0.46037 1.65-1.3639 5.7-2.0078 9-0.64392 3.3-1.3822 5.3962-1.6406 4.6582-0.25843-0.73797 0.31278-5.4997 1.2694-10.582 1.3601-7.2254 1.4862-9.7126 0.57873-11.408-1.5266-2.8525-5.9503-5.7248-7.0338-4.5671-0.46254 0.49426-1.6209 5.3047-2.5742 10.69s-1.9526 9.5717-2.2209 9.3035c-0.26822-0.26823 0.30053-4.9749 1.2639-10.459 0.96336-5.4844 1.5032-10.619 1.1997-11.41-0.56718-1.478-8.195-3.922-9.1768-2.9402-0.30147 0.30147-0.54812 2.5841-0.54812 5.0726 0 4.1104-0.12736 4.3503-1.3918 2.6211-1.1819-1.6164-1.6341-1.7023-2.9984-0.57002-1.4503 1.2036-1.5824 0.7183-1.3582-4.9885l0.2484-6.3219-4.3743-0.76828c-2.4058-0.42256-7.1308-0.38401-10.5 0.0857-6.8895 0.96041-8.0284 0.60649-5.1242-1.5925 1.5542-1.1768 3.6657-1.3837 9.4984-0.9306 4.125 0.32042 8.4121 0.83938 9.527 1.1532 1.715 0.48282 2.2111-0.11774 3.223-3.9011 0.99043-3.7031 1.5334-4.3835 3.159-3.9584 1.6099 0.421 2.086-0.14249 2.647-3.1332 0.74505-3.9714-0.11311-5.8676-1.595-3.5243-0.70932 1.1216-0.93395 0.83476-0.94563-1.2075-0.0084-1.4733-0.69031-3.3536-1.5153-4.1786-2.0859-2.086-1.8848-2.6429 0.95469-2.6429 2.0531 0 2.5621-0.6135 3.1114-3.75 0.36122-2.0625 1.2535-5.775 1.9828-8.25 0.72932-2.475 1.6069-6.6385 1.9502-9.2522 0.55927-4.2585 0.81868-4.6481 2.4968-3.75 2.68 1.4343 2.8465 1.3496 4.4197-2.2478 0.78171-1.7875 1.4512-2.575 1.4878-1.75 0.07008 1.5803-1.4706 6.0183-4.2416 12.218-0.91396 2.0448-1.6617 4.7757-1.6617 6.0685s-0.70905 4.7382-1.5757 7.6564c-0.86662 2.9182-1.2041 5.6387-0.75 6.0456 1.2991 1.1638 10.324 3.131 11.377 2.4799 0.52179-0.32248 1.0009-1.5723 1.0647-2.7773 0.10765-2.0333 0.15197-2.047 0.61568-0.19098 0.27483 1.1 0.99268 2.3103 1.5952 2.6896 0.70231 0.44205 0.16377 1.5531-1.5004 3.0954-1.8304 1.6963-3.0458 4.442-4.1215 9.3104-3.0091 13.619-3.008 12.776-0.01816 14.155 4.0437 1.8639 6.2078 1.5451 6.7879-1 0.28208-1.2375 1.8238-8.2456 3.426-15.574s3.2359-13.628 3.6304-14c0.39449-0.37199 0.46024 0.22365 0.14613 1.3236s-1.2578 5.375-2.0972 9.5-2.3883 11.413-3.4421 16.195l-1.9161 8.695 2.139 0.30501c1.2747 0.18176 2.9472 1.8192 4.139 4.0523 2.1676 4.0613 3.4336 4.7627 3.615 2.0027 0.22133-3.3681 1.7952 6.3543 2.9348 18.129 0.70967 7.3327 0.79133 12.117 0.21338 12.5-2.1198 1.4051-6.1532 9.9408-6.802 14.395-0.3849 2.6421-1.9747 6.6611-3.5601 9-1.5756 2.3244-2.8798 5.1261-2.8982 6.2261-0.0257 1.5362-0.2368 1.679-0.91021 0.6157-0.68063-1.0747-1.8996-0.36137-5.4504 3.1894-2.5156 2.5156-4.9129 5.8385-5.3274 7.3843l-0.75367 2.8106-0.53058-3.0738c-0.49432-2.8637-0.73557-3.0195-3.5306-2.2792-1.65 0.437-4.6576 2.1658-6.6835 3.8418l-3.6835 3.0472 5.1586 6.982c2.8372 3.8401 5.7052 6.982 6.3732 6.982s1.3911-1.6875 1.6068-3.75c0.25547-2.4423 0.45088-1.5165 0.56036 2.655 0.1654 6.3022 0.13665 6.3765-1.792 4.6311-1.0781-0.97563-3.6278-4.1954-5.6662-7.155-3.5957-5.2208-5.3737-6.6151-5.3737-4.2142 0 0.64183 1.5429 3.9739 3.4287 7.4047 1.8858 3.4307 3.1233 6.5778 2.75 6.9934-0.37327 0.41561-0.11617 0.43196 0.57133 0.0363 1.1419-0.65714 1.7254 0.52537 1.3436 2.723-0.07876 0.45338 0.29537 0.55328 0.83141 0.22199 0.53603-0.33128 1.4842 0.34977 2.1069 1.5135 0.83132 1.5533 1.7456 1.9619 3.4392 1.5368l2.3069-0.579-1.7799 5.7412-1.7799 5.7412 3.8909 4.2277c2.14 2.3252 3.8821 4.5752 3.8713 5-0.01077 0.42479-1.6231-1.1402-3.5829-3.4777-1.9598-2.3375-4.2096-4.25-4.9995-4.25-1.0325 0-1.2598-0.70259-0.80866-2.5 0.43741-1.7428 0.21601-2.5075-0.73095-2.5249-0.74712-0.0137-3.554-2.9387-6.2376-6.5-2.6835-3.5613-5.3337-6.4751-5.8893-6.4751-0.62846 0-0.7795 1.9473-0.39974 5.1537 0.79928 6.7487 5.5808 14.636 12.918 21.309 3.1625 2.8761 5.75 5.7681 5.75 6.4268s2.4168 3.7127 5.3706 6.7867l5.3706 5.589 3.9771-5.3836c2.1874-2.961 4.7283-6.007 5.6464-6.769 1.48-1.2283 1.5932-3.0706 0.99851-16.249-0.47741-10.58-0.35257-14.863 0.43314-14.863 0.61885 0 1.2634-2.3067 1.467-5.25 0.19974-2.8875 0.15559 1.7812-0.0981 10.375l-0.46129 15.625h2.5951c2.2605 0 2.6342-0.46739 2.898-3.625 0.32834-3.9293 3.1102-5.2276 3.4818-1.625 0.16031 1.5544 0.0913 1.6101-0.30963 0.25-0.9836-3.3364-2.3693-1.7281-2.3693 2.75 0 3.3333 0.38889 4.5 1.5 4.5 0.825 0 1.5-0.34175 1.5-0.75945s0.96031-1.3592 2.134-2.0922c1.6969-1.0598 2.2925-1.0763 2.9076-0.081 0.61358 0.99279 1.4651 0.96014 4.116-0.15783 2.1245-0.89595 6.986-1.4096 13.342-1.4096 9.2054 0 10.545 0.25795 16.854 3.2463 12.718 6.0234 21.453 17.867 25.04 33.951 2.7356 12.265 1.8381 18.402-3.4808 23.803-1.0834 1.1-3.204 4.5208-4.7125 7.6018l-2.7427 5.6018 2.0954 5.3982c4.0351 10.395 8.5674 18.958 9.8859 18.677 0.72072-0.15342 4.992 3.8836 9.4918 8.9711 8.3525 9.4434 12.682 12.271 9.568 6.25-0.85325-1.65-1.3412-3-1.0843-3s1.9559 2.7951 3.7757 6.2113c3.1907 5.9898 13.084 17.789 14.916 17.789 1.5956 0 0.94202-4.8701-1.104-8.2258-2.6641-4.3696-2.684-6.216-0.0492-4.5705 3.0479 1.9035 3.6489 0.0826 0.96609-2.9274-3.024-3.3928-0.86373-1.8839 7.5794 5.2941 3.3 2.8055 8.025 6.4763 10.5 8.1573s6.75 5.1141 9.5 7.6292c5.8095 5.3132 10.08 7.4632 11.668 5.8746 1.511-1.511 0.73023-2.3605-6.8788-7.4834-3.7343-2.5142-8.1397-6.0365-9.7897-7.8274l-3-3.2561 4 3.0095c2.2 1.6552 7.375 5.5013 11.5 8.5468s8.3572 6.4917 9.405 7.6581c1.8954 2.1101 1.8907 2.1209-0.91667 2.1209-1.5519 0-2.5094 0.31226-2.1278 0.6939 1.6321 1.6321 15.639-0.70641 15.639-2.6109 0-0.41906-1.0125-1.2385-2.25-1.8209-1.2375-0.58243-6.9172-4.3672-12.621-8.4105s-12.3-8.34-14.658-9.5482c-4.1082-2.1052-6.1348-3.9725-5.2604-4.8468 0.40211-0.40211 5.3467 2.859 26.011 17.155 10.078 6.9719 15.842 10.389 17.525 10.389 0.46509 0 0.59994-2.1375 0.29966-4.75-0.54159-4.7119-0.60193-4.7794-7.5159-8.4125-6.5626-3.4484-10.53-6.8452-10.53-9.0152 0-0.52589 1.9125 0.5947 4.25 2.4902 4.2152 3.4182 11.785 7.6875 13.631 7.6875 0.52821 0 1.2766-1.4625 1.663-3.25 2.0036-9.267 9.2434-17.796 16.852-19.853 2.1428-0.57925 6.2131-2.8026 9.045-4.9407 10.273-7.7562 16.822-8.8122 24.677-3.979 6.389 3.9312 11.613 6.0626 13.286 5.4207 1.5991-0.61364 10.095 7.4474 11.063 10.497 0.36746 1.1578 1.0266 2.105 1.4649 2.105 1.3105 0 3.9693 8.0954 4.6798 14.248 0.66062 5.7216 0.68299 5.7536 4.7762 6.8421 2.2619 0.60151 8.774 2.4344 14.471 4.073 11.023 3.1702 18.18 4.0273 18.811 2.2526 0.21714-0.61048-3.448-2.2748-8.3924-3.811-9.3132-2.8934-15.496-5.3894-13.684-5.524 0.6014-0.0447 3.7514 0.84071 7 1.9675 19.937 6.9153 39.892 11.72 49.289 11.867 3.819 0.0598 6.3601-0.52022 8.75-1.9973zm-16.132-11.346c-4.4-1.2531-9.125-2.8073-10.5-3.4538l-2.5-1.1754 2.5 0.58105c11.031 2.5637 23.937 6.379 21.5 6.3554-1.65-0.0159-6.6-1.0542-11-2.3074zm12-9.5727-2-0.85943 2 0.0294c1.1 0.0162 3.125 0.38968 4.5 0.83003l2.5 0.80064-2.5 0.0294c-1.375 0.0162-3.4-0.35734-4.5-0.83003zm-182.5-5.5c-0.69443-0.83674-0.80272-1.5-0.24489-1.5 0.55 0 1.5602 0.675 2.2449 1.5 0.69443 0.83674 0.80272 1.5 0.24489 1.5-0.55 0-1.5602-0.675-2.2449-1.5zm-30.429-4.0714c-1.059-0.77435-1.7004-1.6329-1.4254-1.9079s1.3664 0.13356 2.4254 0.90791c1.059 0.77435 1.7004 1.6329 1.4254 1.9079s-1.3664-0.13356-2.4254-0.90791zm22.458 0.61049c-2.4394-1.5427-0.73873-1.8472 2.471-0.44231 2.2744 0.99548 2.5163 1.3202 1 1.3428-1.1 0.0164-2.662-0.38885-3.471-0.90052zm-45.855-8.3535c-2.4945-2.6553-2.9437-4.569-0.61971-2.6402 1.519 1.2606 3.8712 4.9547 3.1549 4.9547-0.19848 0-1.3393-1.0415-2.5352-2.3144zm184.58-8.4509c-4.104-1.7011-3.1245-2.347 1.778-1.1726 2.1846 0.52333 6.7844 0.87344 10.222 0.77801 6.4994-0.18043 8.8443 0.51918 5.402 1.6117-3.0526 0.96884-13.97 0.20524-17.402-1.2171zm-199.47-9.971c-4.8839-10.459-7.1841-16.377-5.8969-15.173 0.96284 0.90046 11.661 25.199 11.268 25.593-0.18939 0.18939-2.6062-4.4993-5.3708-10.419zm14.351 9.9469c-1.0318-1.6694-2.59-6.2106-2.1311-6.2106 0.7504 0 3.683 6.1513 3.1748 6.6595-0.26048 0.26048-0.73015 0.0585-1.0437-0.44885zm38.37-4.2106c-0.825-0.53316-2.8725-0.97627-4.55-0.98469-3.7711-0.0189-5.45-1.5967-5.45-5.1217 0-2.171 0.37764-2.6076 1.9088-2.2072 1.2691 0.33189 2.093-0.11839 2.4584-1.3436 0.30228-1.0135 0.41513-0.3386 0.25079 1.4998-0.37647 4.2114 1.5094 5.0821 5.8936 2.7211 4.0286-2.1696 5.943-5.6074 5.943-10.673 0-3.6524 0.94353-5.1968 1.7312-2.8338 0.53205 1.5961 3.5483 0.0679 4.1107-2.0828 0.63285-2.42-2.2087-8.0064-4.7812-9.3995-1.0916-0.59119-2.5706-1.8495-3.2866-2.7962-2.0316-2.6863-8.5068-4.0501-13.213-2.783-6.1005 1.6427-9.4407 5.0034-9.3168 9.3741 0.0565 1.9942-0.30265 3.3753-0.79818 3.069s-0.90096-1.6553-0.90096-2.9978c0-3.5352-1.8709-2.9942-3.551 1.0269-2.2749 5.4446-1.8796 11.192 0.96537 14.037 2.2288 2.2288 2.2737 2.459 0.58505 2.9949-1.0061 0.31933-2.972 0.2938-4.3687-0.0567-5.4118-1.3583-8.1842-17.659-4.3604-25.637 8.6171-17.98 38.473-13.755 46.225 6.5426 2.2537 5.9012 1.6723 17.418-0.95348 18.888-0.91515 0.51214-3.9015 2.9184-6.6363 5.3473-5.3548 4.7558-5.6412 4.8795-7.9056 3.4161zm119 0.0419c-4.125-0.36097-8.85-1.4-10.5-2.309-3.5442-1.9526-3.2201-2.101 1.5066-0.69001 5.8022 1.732 36.595 1.0078 48.686-1.145 3.406-0.60644 6.781-0.887 7.5-0.62348 1.6877 0.61856-1.5245 1.2977-12.693 2.6836-4.95 0.61427-11.752 1.55-15.115 2.0795-6.5151 1.0255-7.7131 1.0258-19.385 4e-3zm-163.47-8.9922c-1.7402-3.3651-1.9212-4.4121-0.62415-3.6105 0.95282 0.58888 3.2941 6.5609 2.5721 6.5609-0.23226 0-1.1089-1.3276-1.948-2.9503zm206.47-0.0497c-1.238-0.80009-1.1507-0.95977 0.5-0.9144 1.1 0.0302 2.9 0.44171 4 0.9144 1.8317 0.78709 1.7896 0.86406-0.5 0.9144-1.375 0.0302-3.175-0.38124-4-0.9144zm-70.5-6.5317-6-1.3137 5.9517 0.56313c3.2734 0.30972 7.0984 0.91126 8.5 1.3368l2.5483 0.77362-2.5-0.023c-1.375-0.0127-5.2-0.61421-8.5-1.3368zm-9.75-2.1306c0.6875-0.27741 1.8125-0.27741 2.5 0s0.125 0.50439-1.25 0.50439-1.9375-0.22698-1.25-0.50439zm-80.112-11.838c0.31659-0.825 0.96334-1.5 1.4372-1.5 0.4739 0 0.60261 0.675 0.28603 1.5-0.31659 0.825-0.96334 1.5-1.4372 1.5-0.4739 0-0.60261-0.675-0.28603-1.5zm35.862-19.583c-2.0507-1.4145-2.3671-1.9107-1-1.5681 1.1 0.27571 3.4664 0.79651 5.2587 1.1573 1.7923 0.36081 3.0032 1.0694 2.691 1.5746-0.93318 1.5099-3.7597 1.0365-6.9497-1.1639zm-184.5-49.417c0-3.2083 0.24022-5.5931 0.53383-5.2995 0.7638 0.76379 0.84406 9.755 0.0938 10.505-0.34521 0.34518-0.62763-1.9974-0.62763-5.2057zm15.195-15c0.0204-1.65 0.2445-2.2039 0.49804-1.231s0.23687 2.323-0.037 3c-0.27393 0.67703-0.48137-0.11903-0.46099-1.769zm-14.628-10c0.50152-11.527 2.3102-26.325 6.3559-52 1.04-6.6 1.9299-10.425 1.9776-8.5s-0.82456 9.575-1.9384 17c-4.0774 27.181-3.9979 26.253-2.3515 27.457 1.118 0.81749 1.4122 2.5223 1.1346 6.5734l-0.3749 5.4696-0.18498-5.75c-0.17899-5.5638-1.329-7.4231-2.578-4.1682-0.33385 0.86998-0.65185 5.9325-0.70667 11.25-0.0548 5.3175-0.49479 10.793-0.9777 12.168-0.54572 1.5538-0.68042-2.0416-0.35592-9.5zm15.619-2.5c-0.0246-2.475 0.34203-5.4 0.81472-6.5 0.78428-1.8251 0.86054-1.7814 0.87209 0.5 7e-3 1.375-0.35967 4.3-0.81472 6.5l-0.82737 4-0.0447-4.5zm-6.068-11.006c-0.13048-5.0145 2.6275-30.072 3.3943-30.839 0.7161-0.71609 0.53621 1.6578-1.4659 19.345-0.99613 8.8-1.8639 13.972-1.9284 11.494zm-17.93-4.4939c-0.0066-1.65 0.33837-5.25 0.7667-8l0.77878-5 0.0339 5.5c0.0187 3.025-0.32635 6.625-0.7667 8-0.77943 2.4338-0.80096 2.4205-0.81272-0.5zm-39.05-75c-0.01646-2.1459 3.591-13.672 3.756-12 0.05428 0.55-0.76516 3.925-1.821 7.5-1.0558 3.575-1.9266 5.6-1.935 4.5zm17.933-1.75c0.03866-0.6875 0.45703-2.15 0.92972-3.25 0.68584-1.596 0.87363-1.6634 0.92972-0.33333 0.03866 0.91666 0.59996 1.8432 1.2473 2.059 1.5405 0.5135 0.12576 2.7743-1.7361 2.7743-0.79254 0-1.4094-0.5625-1.3707-1.25zm37.006-18.3c0.0418-0.5225 0.72261-2.525 1.5128-4.45l1.4368-3.5-0.53158 3.4688c-0.46626 3.0425-2.6229 7.0393-2.418 4.4812zm70.861-26.928c-2.9331-6.4689-3.6159-12.116-1.9373-16.022 0.6265-1.4579 0.8842-0.50932 0.95081 3.5 0.0503 3.025 1.1634 8.5375 2.4737 12.25 1.3103 3.7125 2.1726 6.75 1.9162 6.75s-1.7879-2.9151-3.4034-6.478zm-85.862 0.12265c-0.14504-1.648 5.2315-18.134 5.5839-17.122 0.19579 0.56248-0.96355 4.8375-2.5763 9.5-1.6128 4.6625-2.9662 8.0924-3.0076 7.6219zm-39.075-16.287c0-0.53655 0.69982-1.849 1.5552-2.9167 1.4664-1.8303 1.4872-1.7984 0.36455 0.55887-1.4578 3.061-1.9197 3.6283-1.9197 2.3578zm85.441-4.0598c-1.166-1.166-3.6292-1.7736-7.8214-1.9296-3.3657-0.12517-6.682-0.25928-7.3695-0.29803-0.6875-0.0387-1.25-0.70917-1.25-1.4898 0-1.1559 0.69149-1.2285 3.7243-0.39107 10.546 2.9118 25.084-6.1169 29.128-18.089 1.413-4.1835 1.5098-12.101 0.14806-12.101-0.55 0-1-0.95938-1-2.132 0-4.6003-6.3863-11.916-14.406-16.502-5.4376-3.1098-12.287-3.1816-16.117-0.16899l-2.7926 2.1967 0.67683-2.6967c0.55401-2.2074 0.33819-2.6967-1.1894-2.6967-1.0264 0-2.2725 0.85039-2.7691 1.8898-0.70596 1.4777-1.3985 1.7009-3.176 1.0236-2.0013-0.76252-2.1209-1.1115-1-2.9173 0.70028-1.1281 3.2294-3.0001 5.6204-4.1599 8.277-4.015 23.855-1.1689 34.296 6.2659 5.0827 3.6192 7.1865 9.8398 7.2367 21.398 0.0474 10.907-0.73948 15.5-2.6557 15.5-0.68061 0-1.819 1.8634-2.5298 4.1409-1.9238 6.1642-6.6606 12.477-10.318 13.752-4.1342 1.4412-4.4257 1.4142-6.4352-0.59531zm5.5591-2.8714c0-0.93124-0.68037-1.4414-1.6671-1.25-2.5088 0.48655-2.8532 2.8233-0.4162 2.8233 1.2283 0 2.0833-0.64569 2.0833-1.5733zm11-44.019c0-1.1762-4.2035-5.9012-6.7163-7.5496-1.4133-0.92709-3.214-1.4383-4.0016-1.1361-1.8752 0.71958 6.3586 9.278 8.9261 9.278 0.98548 0 1.7918-0.26652 1.7918-0.59227zm-13.067-10.767c-0.23833-0.21584-1.4458-0.70366-2.6833-1.084-1.638-0.50349-2.25-0.28521-2.25 0.80245 0 1.6971 3.0232 2.7095 4.4333 1.4847 0.51334-0.44586 0.73834-0.98724 0.5-1.2031zm-60.793 46.359c0-0.825 0.38674-2.4 0.85943-3.5 0.54172-1.2606 0.85943-1.4455 0.85943-0.5 0 0.825-0.38674 2.4-0.85943 3.5-0.54172 1.2606-0.85943 1.4455-0.85943 0.5zm-22.956-5.1104c-0.10174-1.9857-0.40819-5.8107-0.681-8.5-0.45984-4.533-0.41976-4.6467 0.54947-1.559 0.57501 1.8318 0.88146 5.6568 0.681 8.5-0.2605 3.6946-0.41726 4.1394-0.54947 1.559zm15.546-0.96973c0.35361-1.3522 0.8069-1.8055 1.0566-1.0566 0.24048 0.72144-0.03821 1.7872-0.61931 2.3683-0.74207 0.74207-0.87221 0.35164-0.43724-1.3117zm16.376-0.91984c-0.0301-0.825 0.79705-3.3 1.8381-5.5 1.041-2.2 1.9174-3.325 1.9476-2.5s-0.79705 3.3-1.8381 5.5c-1.0411 2.2-1.9174 3.325-1.9475 2.5zm-5.5584-4.3896c0.30765-1.5893 1.2124-4.2893 2.0106-6l1.4512-3.1104-0.55937 2.8896c-0.30765 1.5893-1.2124 4.2893-2.0106 6l-1.4512 3.1104zm22.076-2.6104c0.34906-1.925 1.0285-4.4 1.5099-5.5 0.60081-1.373 0.67623-0.90271 0.24054 1.5-0.34906 1.925-1.0285 4.4-1.5099 5.5-0.60081 1.373-0.67623 0.90271-0.24054-1.5zm-52.61-8.25c0.0083-0.1375 0.63603-2.0342 1.395-4.215 1.3376-3.8435 3.59-6.0013 3.59-3.4393 0 2.6518-2.4593 7.9043-3.7009 7.9043-0.71451 0-1.2923-0.1125-1.2841-0.25zm15.271-6.25c0.0075-2.75 0.20171-3.7563 0.43157-2.2362 0.22986 1.5201 0.22371 3.7701-0.01365 5s-0.42542-0.0137-0.41792-2.7638zm27.756 3.75c0.023-0.4125 0.90419-2.325 1.9581-4.25 2.2632-4.1338 2.6987-2.2518 0.47432 2.0497-1.4633 2.8298-2.521 3.7866-2.4324 2.2003zm-16.711-4.75c2.9674-10.678 3.9241-13.578 4.3415-13.161 0.72736 0.72736-2.5864 12.984-3.826 14.152-0.74821 0.70463-0.9037 0.40573-0.51555-0.99107zm11.257-0.5c0.36365-1.375 1.2965-3.625 2.0731-5l1.4119-2.5-0.66117 2.5c-0.36365 1.375-1.2965 3.625-2.0731 5l-1.4119 2.5zm14.443-13.5c0-0.55 0.43621-1.675 0.96937-2.5s0.96937-1.05 0.96937-0.5-0.43621 1.675-0.96937 2.5-0.96937 1.05-0.96937 0.5zm-14.317-14.5c0.62926-3.8399 1.0053-4.6144 1.8366-3.783 0.30268 0.30269-0.11578 2.0652-0.92992 3.9167l-1.4803 3.3663zm23.286-4.6422c0-0.53655 0.69982-1.849 1.5552-2.9167 1.4664-1.8303 1.4872-1.7984 0.36454 0.55887-1.4578 3.061-1.9197 3.6283-1.9197 2.3578zm-23.805-2.8578c0.02038-1.65 0.2445-2.2039 0.49804-1.231 0.25354 0.97297 0.23687 2.323-0.037 3-0.27392 0.67703-0.48137-0.11903-0.46099-1.769zm20.327-5c5.3604-9.7865 7.4701-13.167 7.4745-11.976 5e-3 1.2868-8.6815 16.598-10.191 17.965-0.61454 0.55615 0.60802-2.1388 2.7168-5.9888zm-8.7101-9.2918c3.0032-6.4702 4.9659-9.399 7.1883-10.727 1.1718-0.7001 1.1243-0.35855-0.21709 1.5612-0.94439 1.3516-3.3289 5.2699-5.2989 8.7074s-3.7571 6.25-3.9712 6.25 0.82036-2.6063 2.2989-5.7918zm3.3833 3.2918c0.0204-1.65 0.2445-2.2039 0.49804-1.231s0.23687 2.323-0.037 3c-0.27393 0.67703-0.48137-0.11903-0.46099-1.769zm54.111-13.125c-1.5432-1.4436-1.9932-2.0427-0.99996-1.3312 0.9932 0.71145 3.9182 1.8622 6.5 2.5573l4.6942 1.2638-3.6942 0.0675c-2.6692 0.0488-4.4727-0.66076-6.5-2.5573zm8.9442-2.6148c-2.3375-0.48297-4.25-1.3016-4.25-1.8193s-0.64238-0.94115-1.4275-0.94115-2.588-1.4625-4.0063-3.25c-2.0522-2.5864-2.7637-2.9608-3.4843-1.8336-0.66051 1.0331-1.3354-0.0309-2.4937-3.9315-0.87348-2.9413-1.5882-6.6644-1.5882-8.2734 0-2.2568-0.36154-2.7868-1.5818-2.3185-0.86998 0.33385-1.77 0.60699-2 0.60699-0.23001 0-0.41821 0.62686-0.41821 1.393 0 0.76616-0.64605 1.6409-1.4357 1.9439-0.78962 0.30301-3.0396 2.9326-5 5.8436-1.9604 2.911-3.5643 4.7857-3.5643 4.1661 0-1.5606 7.7172-11.737 13.88-18.302 2.8162-3.0003 5.1204-5.7436 5.1204-6.0961 0-1.2523 33.62-34.542 40.518-40.121 3.8579-3.1198 8.3571-5.9902 9.9981-6.3788 1.641-0.38858 4.1086-1.674 5.4836-2.8565 5.896-5.0706 7-5.8505 7-4.945 0 0.97869-10.799 12.353-11.728 12.353-0.28206 0-4.9052 3.8035-10.274 8.4522-5.3685 4.6487-9.9752 8.2378-10.237 7.9758-0.26197-0.26198-1.1029 0.32205-1.8688 1.2978-1.2917 1.6457-1.2477 1.6687 0.6075 0.3177 1.1-0.80106 0.44922 0.21144-1.4462 2.25-3.5738 3.8437-5.3241 5.014-2.9263 1.9565 1.242-1.5836 1.2071-1.6204-0.36655-0.38669-0.95644 0.74981-1.5132 1.7286-1.2373 2.175 0.27593 0.44646-1.178 2.3965-3.231 4.3333-2.053 1.9369-3.453 3.8014-3.111 4.1433 0.34192 0.34192 3.9284 1.0623 7.97 1.6009 9.4028 1.253 13.583 2.5608 17.48 5.4686 6.3799 4.7608 5.2342 12.391-3.1502 20.979-2.9949 3.0676-5.9146 5.2874-6.4882 4.9329-0.57357-0.35449-0.91921-0.21488-0.76809 0.31024 0.33923 1.1787-9.802 8.1852-13.225 9.1372-1.375 0.38238-4.4125 0.30007-6.75-0.1829zm8.5398-6.6631c10.497-5.3834 14.722-17.77 8.5597-25.094-2.5173-2.9916-2.9017-3.1153-7.6527-2.4619-2.7513 0.37839-6.4547 1.2948-8.2299 2.0366-6.5143 2.7219-10.961 10.879-10.296 18.89 0.61172 7.3739 9.5842 10.75 17.619 6.6295zm18.166-17.883c1.0388-2.953 1.1822-4.915 0.5-6.8452-1.6033-4.5368-3.3984-4.0784-3.177 0.81137 0.10752 2.3757-0.18377 5.8352-0.64732 7.6879-1.2457 4.9785 1.4657 3.6295 3.3244-1.654zm-82.956 20.723c0-0.54969 3.5439-10.548 7.8752-22.219s8.1209-21.894 8.421-22.719c0.34645-0.95211 0.57465-0.64725 0.62476 0.83463 0.0434 1.284-1.7454 6.684-3.9751 12-3.7056 8.8347-7.3788 22.066-6.3981 23.047 0.22207 0.22208 1.1005-0.17448 1.9521-0.88123 2.8462-2.3622 2.4525-0.458-0.62898 3.0415-2.4678 2.8026-2.9212 3.0318-2.3908 1.2085 0.36-1.2375 0.24645-2.25-0.25233-2.25-1.3061 0-3.2705 4.7253-2.6436 6.3591 0.29185 0.76054-0.17023 1.6518-1.0268 1.9805s-1.5575 0.14792-1.5575-0.40177zm-7.921-13.521c0.048-1.165 0.28494-1.4019 0.60416-0.60417 0.28887 0.72187 0.25335 1.5844-0.0789 1.9167-0.3323 0.33229-0.56864-0.25834-0.52522-1.3125zm8.2897-6.5032c0.8365-3.134 0.78761-4.1989-0.2214-4.8225-1.0244-0.63312-0.94538-1.15 0.37821-2.4735 1.3154-1.3154 1.4197-1.9786 0.4878-3.1015-0.65197-0.78558-0.8951-1.898-0.54029-2.4721 0.99103-1.6035 3.5271-1.2377 3.5271 0.50879 0 2.7471-3.1289 15.409-3.9301 15.904-0.42617 0.26338-0.29173-1.3311 0.29874-3.5433zm12.631-1.2087c0-2.2317 18.622-42.66 20.527-44.566 1.3433-1.3433-2.8254 8.4575-7.8095 18.361-5.6791 11.284-9.7179 21.869-9.7179 25.468 0 1.1392-0.6589 2.0316-1.5 2.0316-0.825 0-1.5-0.58283-1.5-1.2952zm-15.921-10.288c0.048-1.165 0.28494-1.4019 0.60416-0.60417 0.28887 0.72187 0.25335 1.5844-0.0789 1.9167-0.3323 0.33229-0.56864-0.25834-0.52522-1.3125zm29.921 0.93305c0-0.60766 0.675-1.665 1.5-2.3497s1.5-1.9548 1.5-2.8224c0-1.2368 0.26212-1.3154 1.2136-0.36392 0.95151 0.95151 0.62754 1.7997-1.5 3.9273-1.4925 1.4925-2.7136 2.2165-2.7136 1.6088zm99-52.112c0-1.1462 2.7186-4.2381 3.7264-4.2381 0.32095 0-0.26889 1.0125-1.3108 2.25-1.0419 1.2375-2.0116 2.4375-2.155 2.6667-0.14336 0.22917-0.26066-0.07619-0.26066-0.67857zm-25.054-3.5772c3.6705-3.8992 4.0538-4.162 4.0538-2.7796 0 0.48472-1.6875 2.1321-3.75 3.6609l-3.75 2.7796zm13.459-4.5154c2.1163-2.3835 2.595-2.6013 2.595-1.1807 0 0.53065-1.0125 1.4961-2.25 2.1455-2.2379 1.1744-2.2398 1.1692-0.34501-0.96482zm77.676-5.4635c4.4913-4.3759 18.577-12.005 26.189-14.184 7.5645-2.1655 9.369-1.4534 3.1463 1.2416-9.1844 3.9777-21.898 10.141-27.416 13.291l-5.5 3.1397zm-114.08 537.82c0-1.1111-1.1667-1.5-4.5-1.5-5.3222 0-5.7154 0.59187-1.25 1.8812 4.7256 1.3645 5.75 1.2966 5.75-0.38122zm40.82-1.75c-0.25668-1.8073-1.0573-2.3111-4.0696-2.5604-2.4226-0.2005-3.75 0.11444-3.75 0.88976 0 1.7519 3.1429 3.8521 5.8196 3.8888 1.8405 0.0252 2.2536-0.43293 2-2.2182zm-9.5493-0.67553c0.60869-2.3276-1.2297-3.2007-11.651-5.5335l-2.8811-0.6449 2.0822 3.302c1.9874 3.1517 3.3065 3.7201 10.813 4.66 0.62335 0.0781 1.36-0.72458 1.6369-1.7836zm114.34-1.8245c1.914-2.5214 1.8341-7.6336-0.10769-6.8885-0.89492 0.34341-3.678-1.1987-6.9011-3.824-5.2282-4.2584-5.5967-4.3897-11.494-4.096-3.3511 0.16694-6.7706 0.86597-7.5989 1.5534-2.0855 1.7308-1.9264 5.0025 0.24399 5.0155 0.9625 6e-3 6.475 2.2128 12.25 4.9044s10.9 4.9369 11.39 4.9895c0.48936 0.0526 1.4876-0.69193 2.2182-1.6544zm-164.25-0.75863c-0.58469-1.5237-2.1865-2.0697-8.1083-2.764-4.5643-0.5351-4.0432 0.82517 1 2.6103 5.6827 2.0115 7.8391 2.0581 7.1083 0.15365zm80.642-1.37c0-1.5382-6.3354-3.5822-11.165-3.6021-3.2464-0.0134-5.5905-0.70336-7.7095-2.2692-3.307-2.4438-7.687-3.0966-6.7097-1 0.32048 0.6875 0.8487 1.9925 1.1738 2.9 0.55662 1.5537 5.234 2.7823 12.666 3.3271 1.516 0.11113 3.0534 0.49922 3.4167 0.86244 0.98879 0.98879 8.3271 0.79642 8.3271-0.21829zm107.99-6.3713c-0.0123-6.6034-3.3375-14.002-9.1059-20.26-6.0021-6.5115-7.5791-7.195-10.174-4.4097-1.4225 1.5268-2.2338 1.8488-2.5172 0.99872-0.22996-0.68989 0.0825-1.755 0.69439-2.3668 0.61187-0.61188 1.1125-1.4285 1.1125-1.8147 0-2.1259-13.292-3.8741-17.418-2.2908-2.0066 0.77001-2.0621 2.393-0.0818 2.393 2.5934 0 1.6289 1.9362-1.25 2.5094-1.5125 0.30114-4.0531 0.97038-5.6457 1.4872-1.5961 0.51795-3.5673 0.56386-4.392 0.10229-2.184-1.2222-4.6525-0.2866-5.7516 2.18-0.52835 1.1857-2.0701 2.4121-3.4262 2.7254-2.586 0.59744-5.4263 4.5925-6.5734 9.2457-0.5687 2.307-0.35679 2.75 1.3155 2.75 1.0964 0 2.7244-1.1156 3.6178-2.4792 2.0943-3.1963 7.4735-6.0529 8.8347-4.6917 0.58955 0.58955 3.9876 0.77334 8.2866 0.44821 6.1915-0.46827 7.9738-0.21878 11.853 1.6592 2.6227 1.2696 5.868 3.9879 7.6251 6.3869 2.434 3.3231 4.6373 4.8281 10.782 7.3654 4.2479 1.7539 8.7359 3.2164 9.9734 3.25 2.0566 0.0558 2.2492-0.39027 2.2402-5.1889zm-184.35 2.7373c0.75284-1.9619-1.3665-4.4873-3.7657-4.4873-2.1124 0-2.3652 1.2202-0.84238 4.0657 1.2344 2.3064 3.7949 2.5406 4.6081 0.42153zm-7.244-0.3243c1.5918-2.5756-7.7017-8.163-13.577-8.163-4.323 0 0.26994 6.3106 5.7974 7.9656 3.8247 1.1452 7.1422 1.2293 7.78 0.19739zm70.621-3.6871c0.69572-0.83829 1.0883-1.6546 0.87244-1.814-0.21587-0.15941-2.4606-1.9459-4.9884-3.97-4.4235-3.5422-10.904-5.9303-10.904-4.0183 0 1.4296 7.9506 9.3639 10.356 10.334 2.9985 1.21 3.2416 1.1822 4.6644-0.53209zm-28.77-1.1992c-2.409-0.29896-3.25-0.90443-3.25-2.34 0-1.0652 0.675-1.9366 1.5-1.9366s1.5-0.27623 1.5-0.61385c0-1.7882-4.5676-8.352-6.5505-9.4132-2.7221-1.4568-7.29-0.55229-8.1188 1.6077-0.66181 1.7246 2.9964 6.071 5.8802 6.9862 1.4429 0.45796 1.6322 0.91731 0.79416 1.9271-1.69 2.0363 2.6103 4.539 7.4675 4.346 3.6912-0.14667 3.7561-0.19371 0.77749-0.56336zm-62.473-5.0266c-1.3689-1.6741-6.7773-1.6286-6.7773 0.057 0 1.8281 5.171 3.5615 6.6497 2.229 0.79183-0.71351 0.83153-1.4251 0.12756-2.286zm44.207 1c-0.0369-1.8097-1.8714-3.4185-3.5331-3.0984-1.7226 0.3318-1.7254 0.43172-0.0587 2.0984 1.8091 1.8091 3.6186 2.3129 3.5918 1zm-6.9847-2.25c-2.1324-3.9844-10.742-7.0767-13.992-5.0251-2.3583 1.489 0.16533 3.2836 7.282 5.1784 8.1113 2.1596 7.9495 2.1633 6.7097-0.15329zm-20-4.5c0-0.825-0.7301-1.5-1.6224-1.5-1.3288 0-1.3971 0.27149-0.37756 1.5 0.68469 0.825 1.4148 1.5 1.6224 1.5 0.20766 0 0.37756-0.675 0.37756-1.5zm23.739-1.7816c-0.55146-1.6544-4.7395-1.9154-4.7395-0.29544 0 0.77572 0.5625 1.6066 1.25 1.8464 1.7747 0.61904 3.8982-0.3248 3.4895-1.551zm-32.102-2.2414c-0.90068-0.6586-1.6376-1.6578-1.6376-2.2206 0-1.862-4.3431-2.2559-6.2131-0.56352-2.6571 2.4046-2.2848 2.8825 3.4631 4.4447 5.3347 1.4499 7.5136 0.62522 4.3876-1.6606zm328.02 2.2002c1.3014-1.3014-1.0681-2.6692-4.4652-2.5775-5.0818 0.13724-8.4564 1.1967-8.9994 2.8254-0.36769 1.1031 0.84638 1.2654 6.2319 0.83307 3.6787-0.29529 6.9334-0.78174 7.2327-1.081zm-356.24-0.54354c0.62978-1.019-3.1659-4.7184-3.9928-3.8916-0.65589 0.65589 1.721 4.7579 2.757 4.7579 0.38524 0 0.94138-0.38986 1.2359-0.86635zm51.136-0.22078c0.90766-1.4686-1.1533-3.3774-3.8535-3.569-1.2102-0.0859-4.0003-0.47981-6.2003-0.87539-3.6701-0.65992-3.8732-0.585-2.4622 0.90818 0.84576 0.89508 3.5458 2.257 6 3.0265 5.7245 1.7949 5.722 1.7947 6.5161 0.50971zm17.864-2.5199c2.0499-0.78663 2.0175-3.2541-0.0732-5.5643-2.0084-2.2193-3.6889-2.3243-5.3409-0.33375-0.99985 1.2048-0.92208 1.9813 0.40061 4 1.7217 2.6277 2.4215 2.8926 5.0134 1.898zm-53.418-1.7059c0-2.9647-10.924-10.096-12.718-8.3022-1.4504 1.4504 1.4045 6.1977 4.729 7.8635 4.1294 2.0692 7.9893 2.2811 7.9893 0.43864zm352.16-1.4399c5.1516-3.0431 2.9946-5.5997-3.851-4.5642-3.9811 0.60218-10.308 3.8707-10.308 5.3253 0 2.4409 9.6128 1.9242 14.159-0.76104zm-333.16 0.2528c0-0.97741-0.95809-1.4889-2.75-1.4682-2.6341 0.0305-2.6682 0.0937-0.80887 1.5 2.4734 1.8708 3.5589 1.8611 3.5589-0.0318zm343.23-2.4707c3.1461-2.8618 3.1798-2.9718 0.92015-3-2.4884-0.0311-8.1544 3.4701-8.1544 5.0388 0 1.9623 4.1086 0.80444 7.2342-2.0388zm-322.86-0.77931c-1.0464-4.3639-3.3094-8.25-4.8044-8.25-0.89055 0-1.3743-1.1719-1.3743-3.3291 0-1.9796-1.8647-6.9934-4.6-12.369-2.53-4.9717-4.6-9.7832-4.6-10.692 0-0.90912-1.125-2.1655-2.5-2.792-2.5178-1.1472-2.58-1.3736-3.007-10.952-0.0646-1.4485-0.93943-3.4556-1.9441-4.4603-2.1552-2.1552-4.5716-7.5984-4.4944-10.124 0.03-0.98017 0.95913 0.46788 2.0647 3.2179 2.182 5.4273 4.4127 8.3014 5.5557 7.1583 0.66881-0.66881-0.54814-6.5859-2.2772-11.072-0.47577-1.2345-0.36597-1.6843 0.30928-1.267 0.57582 0.35587 1.5471 2.5672 2.1584 4.914 1.167 4.4805 3.092 8.2132 3.1193 6.0484 8e-3 -0.67023 0.64181-0.9782 1.4075-0.68436 2.5725 0.98716 5.109-8.0531 5.0973-18.167-0.01-8.5817-0.22533-9.4952-4-16.967-3.8339-7.5886-6.4895-10.448-6.4895-6.9876 0 2.6078-1.6817 0.86569-2.3396-2.4236-1.0783-5.3915-7.6604-9.7324-7.6604-5.0521 0 1.1-0.45 2-1 2-1.2386 0-1.2394-0.24016-0.0112-3.4706 1.0802-2.8412 0.972-2.9295-4.8238-3.9349-2.7787-0.48204-3.8262-0.0873-6.2806 2.3671l-2.9456 2.9456 0.28058-2.7037c0.25815-2.4875 0.01-2.6907-3.105-2.5415-1.8621 0.0892-4.6746 1.1152-6.25 2.2799-3.1581 2.3349-3.7945 1.7431-1.2039-1.1195 0.91329-1.0092 1.3485-2.1469 0.96712-2.5283-0.91095-0.91095-11.456 1.3182-13.24 2.7989-1.8932 1.5712-1.7549 3.2617 0.2052 2.5095 5.8032-2.2269 6.0759-2.0775 6.7551 3.7012 1.253 10.661 9.2242 33.074 11.458 32.217 0.74675-0.28655 1.9847-0.52101 2.751-0.52101 1.013 0 1.2497-0.88688 0.8674-3.25l-0.52582-3.25 2.1357 3.8689c1.2109 2.1936 3.3488 4.3268 4.9372 4.9264 1.827 0.68962 3.5806 2.6484 5.0412 5.6311 3.9402 8.0464 4.0311 9.2812 1.0086 13.714l-2.7335 4.0089 2.8813 9.3904c3.4079 11.107 7.3005 19.961 8.7758 19.961 0.58042 0 1.0553-0.45 1.0553-1s0.45-1 1-1c1.5724 0 1.1689 2.156-0.65278 3.488-0.90902 0.6647-1.3512 1.6965-0.98256 2.293 0.78619 1.2721 11.51 3.678 12.405 2.7831 0.33582-0.33582-3.0847-8.1376-7.6011-17.337-4.5164-9.1997-8.2019-17.399-8.1899-18.221 0.012-0.82203 5.4501 9.4155 12.085 22.75 9.5955 19.286 12.463 24.245 14.019 24.245 1.6271 0 1.8452-0.4625 1.2967-2.75zm-48.658-82.582c-0.39625-1.0075-0.70678-2.5825-0.69005-3.5 0.0271-1.4883 0.14221-1.4761 1.0673 0.11321 0.57028 0.97978 0.8808 2.5548 0.69005 3.5-0.31674 1.5695-0.40931 1.5597-1.0673-0.11321zm-6.7908 81.582c-0.15318-3.814-1.7475-5.4822-7.466-7.8115-7.3561-2.9964-9.4552-3.1218-8.7759-0.52432 0.76293 2.9175 4.5083 5.9682 9.9235 8.083 6.1066 2.3849 6.4046 2.3968 6.3184 0.25279zm21.07-0.18261c0-1.1668-3.922-2.4787-4.7964-1.6043-0.74946 0.74946 1.7113 2.4991 3.5464 2.5216 0.6875 8e-3 1.25-0.40437 1.25-0.9173zm12-1.0912c0-0.49819-0.94831-1.4133-2.1074-2.0336-3.1219-1.6708-4.6809 0.39193-1.8139 2.4 2.2192 1.5544 3.9213 1.3954 3.9213-0.3664zm10-0.97617c0-1.619-0.66667-2-3.5-2-4.1963 0-4.5313 1.2064-0.75 2.7006 3.9591 1.5644 4.25 1.5165 4.25-0.70058zm-17-0.34501c0-1.9653-2.7539-4.037-9.25-6.9584-5.6195-2.5272-7.7347-4.4488-3.75-3.4068 1.4498 0.37914 2 0.0307 2-1.2667 0-1.9806-3.0784-3.2106-5.0246-2.0078-3.4846 2.1536 3.2927 10.842 10.433 13.375 5.2485 1.862 5.5913 1.8782 5.5913 0.26437zm353.81-1.2226c0.72236-0.23005 1.0333-0.87146 0.69099-1.4254-0.57003-0.92232 0.79028-1.4533 2.82-1.1007 0.45338 0.0788 0.56308-0.27952 0.24377-0.79617s-0.0153-1.1412 0.67567-1.3879c0.69093-0.24667 0.96249-0.76635 0.60347-1.1548-0.8481-0.9177-15.847 5.3169-15.847 6.5871 0 0.87821 7.3242 0.38906 10.813-0.72218zm-9.8757-2.3167c2.7275-1.0364 10.045-5.48 16.261-9.8748s13.327-9.0021 15.802-10.239c5.3322-2.6639 4.6116-2.0462 5.4056-4.6339 1.0501-3.4223-1.6908-3.5497-9.2558-0.43019-3.8026 1.5681-8.3577 3.1682-10.122 3.5558-2.4724 0.54302-3.0982 1.1272-2.7272 2.5456 0.35126 1.3432-0.30007 2.1133-2.4094 2.8486-1.7794 0.6203-2.8908 0.64327-2.8908 0.0597 0-0.52139 0.45-0.94798 1-0.94798s1-0.45 1-1-0.9-1-2-1c-1.4507 0-2 0.66667-2 2.4274 0 2.8584-3.5515 5.9458-8.8125 7.6609-6.7966 2.2158-19.283 9.2334-17.942 10.084 2.3723 1.5062 13.621 0.87009 18.692-1.057zm-390.62-0.73202c-0.5283-1.3768-0.30132-1.4456 1.5314-0.46482 2.5007 1.3383 2.493 1.3589 1.0426-2.8018-0.74885-2.1482-2.2103-3.6415-4.5-4.5982-3.282-1.3713-4.6849-3.4404-2.141-3.1578 2.8488 0.31654 1.6783-1.8778-2.1483-4.0271-4.4982-2.5266-5.7786-1.1616-2.064 2.2001 1.6944 1.5334 1.7943 1.9803 0.593 2.6526-2.0457 1.1448-0.84848 4.7569 2.008 6.0584 1.2987 0.59172 2.3612 1.5886 2.3612 2.2153 0 1.2935 2.0106 3.5395 3.1686 3.5395 0.42273 0 0.4895-0.72735 0.14836-1.6163zm50.683-1.4555c0-1.1004-3.8109-3.1579-5.071-2.7378-0.5281 0.17603-0.26583 1.3114 0.5828 2.523 1.4443 2.062 4.4882 2.2078 4.4882 0.21487zm-21-1.8802c0-1.7285-7.6594-6.7219-8.7057-5.6756-1.3162 1.3162 0.86891 5.3029 3.4235 6.2461 2.8204 1.0414 5.2822 0.77548 5.2822-0.57049zm-19-2.0728c0-0.84392-3.9866-2.9752-5.5651-2.9752-1.4219 0-0.07 2.2111 1.8151 2.9688 3.0276 1.217 3.75 1.2182 3.75 6e-3zm7-1.4282c0-3.9262-2.6333-6.6537-10.25-10.616l-7.9619-4.1422 0.71999 4.3556c0.39599 2.3956 0.78107 4.3676 0.85574 4.3823 0.0747 0.0147 3.5108 1.696 7.6358 3.7364 8.4442 4.1768 9 4.3179 9 2.284zm28.567-6.797c-1.2886-3.4375-3.5894-9.85-5.113-14.25-3.3476-9.6684-3.9361-10.447-6.191-8.1921-1.6296 1.6296-1.626 2.0037 0.0674 6.9571 4.3041 12.59 7.9416 20.647 9.5089 21.063 3.9561 1.0486 4.0718 0.67524 1.7276-5.578zm-19.567 2.3226c0-1.2017-4.591-4.808-7.1578-5.6227-4.822-1.5304-2.5434 2.8975 2.6574 5.1642 3.6323 1.583 4.5004 1.6715 4.5004 0.45849zm353.26-0.61975c0.95573-0.36674 1.7377-1.1333 1.7377-1.7034 0-0.67719-2.3404-0.8116-6.75-0.38765-9.0671 0.87172-11.816 1.6435-10.085 2.8317 1.3852 0.95076 12.053 0.42743 15.097-0.74061zm-340.26-0.12437c0-0.36935-1.0574-3.4068-2.3497-6.75-1.2924-3.3432-3.1352-8.2309-4.0954-10.862l-1.7456-4.7831-5.1241 0.58587c-2.8182 0.32222-5.3124 0.77421-5.5426 1.0044-0.95847 0.95848 2.357 9.8655 5.0625 13.6 3.3678 4.6491 13.795 10.094 13.795 7.2041zm-13.002-10.875c-1.4485-0.80164-1.8681-1.3912-0.99849-1.4029 1.7862-0.024 4.6423 1.6403 3.9695 2.313-0.2599 0.2599-1.5969-0.14969-2.971-0.91019zm-39.179 5.2964c-0.20536-1.446-1.1236-2.3642-2.5696-2.5696-2.74-0.38915-3.0903 2.2307-0.5 3.7394 2.6855 1.5642 3.4182 1.2849 3.0696-1.1699zm7.7904-2.9503c-0.71539-3.577-2.0428-4.7618-5.3599-4.7844-2.9907-0.0204-2.8406 1.7588 0.43709 5.18 3.7295 3.8928 5.7481 3.7306 4.9228-0.39557zm18.39 2.2003c0-1.8228-3.8121-4.8511-9.9237-7.8834-3.3188-1.6466-6.2839-2.5898-6.5891-2.0959-1.0994 1.7788 1.9356 4.7619 7.9176 7.782 6.4808 3.272 8.5952 3.8125 8.5952 2.1973zm277.88-1.4492c-0.39755-0.39755-18.079-4.5508-19.374-4.5508-0.28083 0-0.51059 0.4125-0.51059 0.91667 0 1.6149 8.3094 3.9229 14.417 4.0044 3.2542 0.0434 5.7145-0.12319 5.4675-0.37025zm-269.56-2.3008c-0.88343-2.513-5.463-7.25-7.0091-7.25-2.1846 0-1.4819 2.6076 1.5883 5.8942 3.2105 3.4368 6.436 4.2436 5.4208 1.3558zm-57.338-1.7306c0.99988-1.2048 0.63785-2.5278-1.9431-7.1011-1.7446-3.0912-2.8719-5.9124-2.505-6.2694 0.67225-0.65411 1.1208-0.13056 6.5129 7.6011 1.8047 2.5878 3.7437 4.25 4.9577 4.25 2.5037 0 2.5026-1.0823-0.0063-6-1.1-2.1562-2-4.7832-2-5.8377 0-2.5207-2.4435-4.4735-4.702-3.7577-1.3721 0.43485-2.3902-0.53551-4.298-4.0965-3.041-5.6762-6.934-8.7812-9.8495-7.8558l-2.0898 0.66329 2.383 6.1922c1.3106 3.4057 3.528 8.5131 4.9274 11.35 1.3994 2.8366 2.8507 6.4366 3.225 8 0.3743 1.5634 0.86988 3.18 1.1013 3.5925 0.6944 1.2378 2.9757 0.84893 4.2867-0.73065zm-7.0398-0.76935c-0.15064-3.3702-8.4238-18.744-10.089-18.748-0.8419-2e-3 2.6033 11.041 4.7538 15.238 2.2169 4.3265 5.4675 6.465 5.3354 3.51zm28.056-2.0589c0-1.7721-2.6852-5.3393-3.4462-4.5782-0.8699 0.86991 1.1938 5.8871 2.4215 5.8871 0.56361 0 1.0248-0.58899 1.0248-1.3089zm9-2.268c0-2.044-5.3791-7.4231-7.4231-7.4231-2.4856 0-1.8468 2.884 1.3462 6.0769 3.1929 3.1929 6.0769 3.8318 6.0769 1.3462zm23.774-2.6016c-0.54804-1.6441-3.5343-3.3943-4.3684-2.5602-0.95136 0.95136 1.5092 3.7388 3.3003 3.7388 0.80349 0 1.2841-0.53035 1.068-1.1786zm-34.012-4.2193c0.1309-1.5816-0.6339-2.9432-2.2467-4-3.6461-2.389-4.6422-2.0655-3.4329 1.1151 2.0973 5.5162 5.3261 7.1563 5.6796 2.8849zm38.773-3.5343c-1.9622-3.7944-6.1403-4.4559-5.1654-0.81779 0.33164 1.2375 0.60913 2.7826 0.61664 3.4336 0.0145 1.259 5.2988 2.288 5.8244 1.1342 0.1709-0.37521-0.40315-2.0627-1.2757-3.75zm-31.535 2.6478c0-0.70642-1.35-2.0819-3-3.0565-3.7007-2.1861-3.9623-0.56117-0.36514 2.2684 3.0879 2.4289 3.3651 2.4939 3.3651 0.78819zm37.436-4.3152c-1.4941-6.4276-2.1523-7.4301-3.5264-5.3714-2.0218 3.029 0.57115 10.971 3.5818 10.971 0.98844 0 0.97697-1.1585-0.0554-5.5996zm5.8569 1.8288c1.4711-1.6255 1.4613-2.3308-0.11937-8.5941-1.3171-5.2188-2.3041-7.1455-4.1976-8.1937-3.1154-1.7247-3.9724-1.7658-3.9883-0.19138-0.022 2.1727 5.2963 18.75 6.0153 18.75 0.37806 0 1.4086-0.79688 2.29-1.7708zm-42.805-3.2085c0.66744-1.08-1.1361-5.0394-2.2724-4.9889-0.39315 0.0175-1.6148 0.72032-2.7148 1.5618-1.9763 1.5119-1.977 1.5471-0.0589 2.9682 2.2574 1.6725 4.1876 1.848 5.0461 0.45884zm11.802-0.57804c1.0762-0.41299 1.3406-1.773 1.0204-5.25-1.3069-14.194-4.9629-19.462-5.5116-7.9426-0.27244 5.7192-0.48045 6.2312-2.4495 6.0292-1.1835-0.12144-2.6974 0.43656-3.3642 1.24-0.99195 1.1952-0.78256 1.6218 1.1518 2.3462 1.8152 0.67984 2.5031 0.50955 2.9626-0.73338 0.46374-1.2544 0.97601-0.8887 2.2757 1.6246 1.8218 3.523 1.7902 3.5013 3.9148 2.686zm7.5244-5.6156c-0.40865-4.1378-2.8134-5.0584-2.8134-1.077 0 1.6042 0.3 3.2167 0.66667 3.5833 1.5291 1.5291 2.4402 0.4654 2.1467-2.5063zm-46.829 1.423c-0.02794-1.3687-1.8663-3.7017-2.4539-3.1142-0.78775 0.78775 0.46709 3.8642 1.5762 3.8642 0.49116 0 0.88612-0.3375 0.8777-0.75zm75.015-1.095c0-1.7406-3.6177-5.9479-4.3556-5.0655-0.18882 0.2258 0.0518 1.873 0.53472 3.6605 0.93338 3.4549 3.8208 4.5166 3.8208 1.405zm32.531-8.6464c0.33803-2.7547 0.1841-6.1336-0.34207-7.5086-0.86933-2.2718-1.0198-2.0436-1.649 2.5-0.7767 5.6088-0.92949 8.0801-0.68008 11 0.29274 3.4272 1.9798-0.35685 2.6712-5.9914zm-124.97 1.2699c-0.38096-2.8718-1.6171-8.591-2.7469-12.709-1.5263-5.5633-1.934-9.3617-1.5864-14.779 0.25734-4.0099 0.34728-7.2907 0.19986-7.2907s-0.92469-0.25198-1.7273-0.55997c-1.9328-0.74168-3.1194 5.338-1.7466 8.9487 0.78815 2.073 0.63633 3.0626-0.71133 4.6365-0.94234 1.1006-2.4251 4.1844-3.295 6.8529-1.5676 4.8086-1.5588 4.8782 0.98349 7.8009 1.4109 1.622 4.0184 5.0577 5.7946 7.635 4.3286 6.281 5.7194 6.1269 4.8356-0.53551zm69.522 2.9715c0.63656-1.2375 2.2594-3.433 3.6063-4.879 2.2741-2.4412 2.3678-2.9411 1.3126-7-2.0902-8.0395-9.2061-30.362-9.9258-31.136-1.2601-1.3567-7.2015 2.2848-6.7022 4.1077 0.24973 0.91176 0.74679 3.9078 1.1046 6.6578 0.57409 4.4125 3.7159 18.942 5.1356 23.75 0.28421 0.9625 0.0927 1.75-0.42564 1.75-0.51832 0-1.2124-1.35-1.5424-3-0.97008-4.8504-2.1803-3.4386-1.797 2.0963 0.32603 4.7075 0.52927 5.0638 2.6563 4.6572 1.8798-0.35934 2.4078 0.0825 2.872 2.4031 0.68417 3.4209 2.132 3.6527 3.7057 0.59342zm-56.622-1c-0.36856-1.2375-1.6724-3.2883-2.8974-4.5573-1.9061-1.9745-2.4003-2.0988-3.4269-0.86188-0.9637 1.1612-0.68469 2.0573 1.4189 4.5573 3.1473 3.7404 5.9071 4.2253 4.9054 0.86189zm28.535-0.17857c0-4.0304-4.6203-7.2106-5.713-3.9325-0.32568 0.97705 4.0462 6.361 5.1652 6.361 0.30126 0 0.54775-1.0929 0.54775-2.4286zm8.9847-0.82143c-0.0219-3.2138-1.3764-4.9206-3.3146-4.1769-2.0658 0.7927-2.082 1.3938-0.11335 4.2044 1.996 2.8497 3.4475 2.838 3.428-0.0275zm-17.346-5.25c-0.35062-0.91371-0.0016-1.5 0.89301-1.5 0.80774 0 1.4686-0.44362 1.4686-0.98581 0-1.1908-6.5809-5.5475-9.8358-6.5116-2.0401-0.60427-2.2108-0.45833-1.3486 1.1528 0.54297 1.0146 1.0029 2.2205 1.0222 2.68 0.03061 0.73143 7.0774 6.5634 8.0193 6.6368 0.19634 0.0153 0.09797-0.64718-0.21862-1.4722zm209.18-0.14282c-0.17782-0.90355-1.2165-2.141-2.3081-2.75s-2.5796-1.8947-3.3067-2.8572c-1.3751-1.8204-5.2085-2.434-5.2085-0.83382 0 0.5039 1.35 1.5138 3 2.2441s3.0562 1.6681 3.125 2.0838c0.0688 0.41574 0.2375 1.2059 0.375 1.7559l0.375 1.5c0.0688 0.275 1.058 0.5 2.1983 0.5 1.3876 0 1.9664-0.54334 1.75-1.6428zm-194.78-4.4391c0.90513-1.6912 0.77099-2.3421-0.71481-3.4682-2.5865-1.9603-4.329-1.7718-4.329 0.46836 0 5.0227 3.0048 6.8098 5.0439 2.9998zm184.96 1.1171c0-0.53065-0.9-1.4465-2-2.0352-1.5731-0.84191-2-0.76049-2 0.38148 0 1.3202 1.2974 2.334 3.25 2.5396 0.4125 0.0434 0.75-0.35522 0.75-0.88587zm-196.46-13.56c-1.4157-3.707-4.5525-5.8211-4.5378-3.0582 0.0231 4.3207 2.248 13.208 3.7143 14.837 1.7366 1.9292 1.7875 1.8603 2.0926-2.8299 0.17751-2.7296-0.37097-6.5973-1.269-8.9489zm18.456 9.4771c0-1.3711-5.1404-5.8797-6.75-5.9204-2.0343-0.0514-1.427 3.0002 1 5.0248 2.4568 2.0496 5.75 2.5625 5.75 0.89559zm177.5-1.7136c0-1.8354-14.412-12.209-16.076-11.571-2.7692 1.0626-2.0632 1.8624 9.0756 10.282 4.0182 3.0374 7 3.5864 7 1.2888zm-221.05-5.042c-1.4046-3.393-4.8866-7.1204-6.7019-7.1743-1.1319-0.0336-0.89948 2.7673 0.29068 3.5029 0.57237 0.35375 0.7702 1.4954 0.4396 2.537-0.44544 1.4035 0.23776 2.4039 2.6387 3.864 4.2492 2.5841 5.2077 1.7992 3.3329-2.7296zm20.548 1.7463c0-7.2426-7.2233-19.839-10.628-18.532-0.77928 0.29904-1.3724-0.10806-1.3724-0.94197 0-0.80774-0.45-1.4686-1-1.4686s-1 1.8-1 4c0 2.842 0.42309 4 1.4615 4 0.85624 0 1.9028 1.6389 2.5271 3.9576 1.0685 3.9681 6.7572 11.042 8.8795 11.042 0.62256 0 1.1319-0.92573 1.1319-2.0572zm-14-3.9749c0-2.0649-2.9256-7.9679-3.949-7.9679-1.4987 0-1.3142 7.7271 0.19897 8.3377 2.1422 0.8644 3.75 0.70584 3.75-0.36984zm34.153-3.9673c-0.19059-2.7503-0.64059-4.9974-1-4.9934-0.35942 4e-3 -1.8738 1.9165-3.3654 4.25-2.4401 3.8175-2.5403 4.3109-1 4.9225 0.94155 0.37385 2.6119 0.71163 3.7119 0.75063 1.7868 0.0634 1.9631-0.46203 1.6535-4.9297zm-41.173-3.1088c-0.86129-4.71-3.8676-9.2299-6.4802-9.7429-3.1564-0.61972-1.1376 7.2987 2.7664 10.85 1.7785 1.6181 3.5107 2.9551 3.8493 2.9712 0.33865 0.0161 0.27767-1.8194-0.1355-4.0788zm26.02 1.1529c0.275-0.0596-0.21965-0.65651-1.0992-1.3265-1.5559-1.1852-1.9008-1.8296-1.9008-3.5515 0-0.45834-0.61326-0.83334-1.3628-0.83334-0.85885 0-1.1958 0.7704-0.91109 2.0833 0.99966 4.6105 0.93712 4.5675 5.2739 3.628zm-47.439-7.9273c-0.85841-1.66-1.5607-4.249-1.5607-5.7533 0-2.9594-3.4606-7.3641-5.7856-7.3641-1.1116 0-1.2821 0.82553-0.75295 3.6462 0.76341 4.0693 2.6562 7.4864 6.4545 11.653 2.9946 3.2846 3.8706 2.1229 1.6448-2.1813zm25.373-9.2783c-1.2515-3.0214-2.4908-3.637-3.1989-1.5892-0.86827 2.5112 0.47541 11.317 2.0981 13.75 1.6597 2.4884 1.6689 2.4725 1.9721-3.4108 0.16759-3.251-0.22451-7.1885-0.87132-8.75zm14.067 9.0042c0-1.5874-2.9978-6.8434-3.9032-6.8434-0.46853 0-1.3901 0.64847-2.0478 1.441-0.95236 1.1475-0.74745 2.0477 1.006 4.4193 2.0189 2.7307 4.9451 3.3124 4.9451 0.98296zm-31-6.7843c0-5.023-1.5136-7.4363-3.0965-4.9371-1.2746 2.0124-1.0944 7.2872 0.29649 8.6781 2.1505 2.1505 2.8 1.2827 2.8-3.741zm12-0.9369c0-2.6828-0.63785-6.4045-1.4174-8.2703-1.5691-3.7554-5.2213-7.5464-6.2648-6.5029-1.0782 1.0782 1.3565 14.505 3.1177 17.193 2.711 4.1376 4.5646 3.155 4.5646-2.4196zm10.142-4.1221c-0.92554-4.4715-3.8054-4.9085-3.2954-0.5 0.3979 3.4393 2.1028 5.9579 3.244 4.7924 0.42671-0.43581 0.44983-2.3674 0.05139-4.2924zm-31.592-8.6547c-0.32375-1.2899-1.1426-2.346-1.8196-2.3469-1.8461-2e-3 -1.6143 9.2003 0.26905 10.681 1.2656 0.99484 1.5499 0.61915 1.8196-2.4047 0.17577-1.971 0.0547-4.6391-0.26905-5.929zm202.3 4.4047c-1.2561-1.7875-5.188-7.075-8.7377-11.75-3.5496-4.675-7.5106-10.808-8.8023-13.629-2.2504-4.9151-8.9052-13.111-9.8657-12.151-0.91084 0.91084 0.8673 6.9633 2.1955 7.473 0.81649 0.31331 1.3578 2.047 1.3578 4.3485 0 3.161 1.0141 5.1014 5.8233 11.143 6.2024 7.7918 16.809 17.72 18.995 17.78 0.88333 0.0241 0.56479-1.0361-0.9657-3.2141zm-192.3-4.2957c0.66303-5.3068 0.21641-7.553-1.2168-6.1198-0.3673 0.3673-0.87303 3.1423-1.1238 6.1667-0.60885 7.342 1.4225 7.3013 2.3406-0.0469zm10.36-5.7707c-1.2055-4.2032-2.4777-5.2866-4.3669-3.7187-2.163 1.7952-1.9392 3.0116 1.1471 6.2329 3.1356 3.2729 4.5604 2.1603 3.2198-2.5142zm-26.909-0.23319c0-3.3224-2.1298-7.3304-5.5531-10.45-2.6822-2.4444-2.7311-2.451-2.2012-0.29795 0.2981 1.2111 0.0273 2.4144-0.60185 2.6739-0.77968 0.32161-0.6663 0.83865 0.35616 1.6241 1.1325 0.86996 1.1938 1.2765 0.25 1.6595-1.4647 0.59433-1.6851 2.3405-0.29545 2.3405 0.525 0 2.0795 1.125 3.4545 2.5 3.1846 3.1846 4.5909 3.1694 4.5909-0.0497zm9.375-1.5753c1.0301-5.1507 0.71379-9.3764-0.85599-11.434-1.1594-1.5196-1.6683-1.6576-2.3434-0.63555-1.032 1.5624-1.4651 10.707-0.63154 13.333 0.92491 2.9141 3.1416 2.1828 3.8309-1.264zm-8.5665-15.302c-0.4109-7.8286-1.6828-11.573-3.931-11.573-0.48266 0-0.87756 1.1394-0.87756 2.5321 0 1.3927-0.63815 4.0594-1.4181 5.9261-1.3334 3.1914-1.2604 3.6372 1.2234 7.4679 4.2805 6.6015 5.5215 5.5217 5.0032-4.353zm-9.5592 3.903c0.26535-1.3881 0.13342-2.7396-0.29318-3.0032-1.6259-1.0049-3.9561 0.84117-3.9561 3.1341 0 3.3929 3.5969 3.2822 4.2493-0.13086zm25.112 1.0239c0.34711-0.90455 0.0051-1.5-0.86163-1.5-0.8667 0-1.2087 0.59545-0.86163 1.5 0.31658 0.825 0.70431 1.5 0.86163 1.5s0.54504-0.675 0.86163-1.5zm8.5579-1.4302c1.9233-1.668 2.0619-2.2453 1.0203-4.25-2.2585-4.3471-3.0034-4.8991-4.5392-3.3633-1.7155 1.7155-1.8356 6.7086-0.20069 8.3436 1.4775 1.4775 1.0853 1.5544 3.7195-0.73021zm-11.884-3.6523c0.59873-3.2629-2.532-9.7478-4.409-9.1326-1.8089 0.59281-1.8833 6.3175-0.12631 9.7152 1.9177 3.7085 3.7921 3.4677 4.5353-0.5826zm14.965-5.9832c0-3.6516-1.7451-6.4343-4.0352-6.4343-2.4897 0-2.4828 1.6382 0.02422 5.75 2.3816 3.9061 4.011 4.1841 4.011 0.68426zm-33.986-1.6843c8e-3 -1.2375 0.25979-3.1661 0.56063-4.2859 0.43067-1.6029-0.23654-2.4095-3.1375-3.7929-2.0264-0.96635-3.8442-1.5973-4.0394-1.4021-0.19521 0.19521 0.37321 2.9145 1.2632 6.0429 1.2231 4.2995 2.0723 5.6879 3.4787 5.6879 1.2588 0 1.8651-0.72773 1.8743-2.25zm183.99-12.8c0-1.5809-2.9424-6.9503-3.8087-6.9503-1.2179 0-0.66367 4.7259 0.75471 6.435 1.4887 1.7938 3.054 2.0579 3.054 0.51539zm-172.7-5.9914c0.43241-1.6536 0.16978-1.9256-1.3834-1.4326-1.0544 0.33466-1.9171 0.16565-1.9171-0.37558s0.52968-1.1606 1.177-1.3764c1.2612-0.42042 0.2799-2.7743-1.1566-2.7743-1.5886 0-2.3508 6.176-0.87733 7.1096 2.2122 1.4017 3.5896 1.0205 4.1574-1.1507zm-8.3005-0.41187c0-2.4139-2.2392-6.547-3.547-6.547-1.6068 0-2.5398 6.2763-1.0755 7.2347 1.9045 1.2465 4.6225 0.84213 4.6225-0.68764zm2.7764-9.5225c-0.47192-4.9113-4.7019-13.025-6.7906-13.025-1.3136 0-1.2595 7.1474 0.0808 10.685 1.1831 3.1225 4.7566 7.3151 6.2349 7.3151 0.54026 0 0.74588-2.1546 0.47484-4.9754zm166.04 2.2254c-0.24434-2.1235-0.77204-2.6714-2.3164-2.4049-2.8969 0.49982-3.0289 0.91303-1.0056 3.1488 2.5103 2.7738 3.6962 2.5082 3.322-0.74387zm-6.8164 0.82143c0-1.2026-2.8688-4.0714-4.0714-4.0714-2.3864 0 0.39304 4.8881 2.8214 4.962 0.6875 0.0209 1.25-0.37982 1.25-0.89053zm-171.02-7.8214c0.0129-3.5884-0.29601-4.25-1.9847-4.25-1.5485 0-2 0.66667-2 2.953 0 1.6241 0.52805 4.1119 1.1734 5.5284 1.5395 3.3788 2.7906 1.4956 2.8112-4.2313zm53.783 4.75c0.68696-1.1 1.8677-2 2.6239-2 1.8792 0 2.5784-3.1796 2.5945-11.8 0.01337-7.1474-1.8263-13.2-4.012-13.2-1.2475 0-1.2585-0.14431 0.61927 8.1116 1.8529 8.1466 1.3203 11.888-1.6921 11.888-1.7541 0-1.9656 0.43185-1.4224 2.9048 0.36598 1.6663 0.18668 3.1837-0.42054 3.559-1.2179 0.75268-1.4282 2.5362-0.29909 2.5362 0.4177 0 1.3215-0.9 2.0085-2zm-34.406-4.5c0.76741-1.9998-0.26328-4.5-1.8551-4.5-0.70373 0-1.4776 1.35-1.7198 3-0.3436 2.3411-0.0626 3 1.2795 3 0.9459 0 1.9788-0.675 2.2954-1.5zm157.64 0.80955c0-2.1093-5.5603-17.311-6.4578-17.655-2.3744-0.91114-8.0079 1.9562-9.7604 4.9679-1.8804 3.2315-1.5314 6.6024 0.59894 5.7849 0.66838-0.25648 2.2846 0.67194 3.5916 2.0632 2.7901 2.97 3.9965 3.1988 4.1093 0.77947 0.0494-1.0605 0.64158-0.46948 1.5029 1.5 1.0581 2.4196 2.0594 3.25 3.9184 3.25 1.3734 0 2.4971-0.3107 2.4971-0.69045zm-132-2.7278c0-2.5132-1.177-4.5818-2.607-4.5818-1.6548 0-1.7789 1.4104-0.35783 4.0657 1.2087 2.2584 2.9648 2.5641 2.9648 0.51605zm-29.412-5.6222c0.49644-3.6475 0.2118-4.9604-1.563-7.2096-2.3895-3.0283-6.7142-3.723-7.6701-1.232-1.185 3.088 5.8809 15.646 7.7511 13.776 0.48125-0.48125 1.1481-2.8818 1.482-5.3346zm51.224-1.2211c0.20348-1.0566-0.28235-1.7385-1.2385-1.7385-0.86533 0-1.5733 0.1882-1.5733 0.41821 0 0.23002-0.29066 1.1757-0.64591 2.1014-0.48611 1.2668-0.17971 1.5934 1.2385 1.3203 1.0364-0.1996 2.0351-1.1452 2.2192-2.1014zm-32.522-0.73852c-0.28766-1.1-0.92053-2-1.4064-2-0.48585 0-0.88337 0.9-0.88337 2s0.63287 2 1.4064 2c0.91405 0 1.2233-0.70014 0.88337-2zm150.72-0.25c0.0109-2.7612-3.4837-10.75-4.7025-10.75-0.71635 0-1.3025 0.6382-1.3025 1.4182 0 0.78002-0.30147 2.2038-0.66994 3.164-0.44069 1.1484-0.28941 1.5106 0.44207 1.0586 0.66043-0.40817 1.7909 0.7435 2.7839 2.836 1.6596 3.4975 3.4394 4.6705 3.4489 2.2732zm-182-1.75c0-1.4839-0.66666-2-2.5833-2-1.6444 0-2.4168 0.4543-2.125 1.25 0.25208 0.6875 0.96458 1.1375 1.5833 1s1.125 0.2 1.125 0.75 0.45 1 1 1 1-0.9 1-2zm63-8c0-0.96531-0.62318-2.2723-1.3848-2.9044-1.1031-0.91553-1.5098-0.65148-1.9991 1.2981-0.88126 3.5112 0.21804 5.9889 2.0007 4.5094 0.76077-0.63138 1.3832-1.9378 1.3832-2.9031zm-68.561-1.5249c0.5009-2.6701 0.11946-4.4889-1.5728-7.5-3.3083-5.8863-5.2282-5.3068-4.5931 1.3865 0.87874 9.2614 4.8388 13.188 6.1659 6.1135zm6.8249-2.7251c1.23-0.6875 2.3785-1.3171 2.5522-1.3991 0.17365-0.082-0.1812-1.9945-0.78855-4.25-1.2812-4.7582-3.5205-5.3844-4.3538-1.2176-0.31717 1.5858-0.87221 4.0608-1.2334 5.5-0.73768 2.9391 0.32849 3.3202 3.8236 1.3667zm14.736-1.2395c0-0.26921-1.1728-3.4192-2.6063-7-2.5601-6.3951-4.2856-8.2187-4.5044-4.7605-0.40119 6.3427 2.0757 12.25 5.1364 12.25 1.0859 0 1.9743-0.22027 1.9743-0.48948zm9.6004-3.9664c-0.33902-1.3507-1.0886-3.698-1.6658-5.2161-0.84085-2.2116-1.2337-2.4688-1.9767-1.2941-1.3509 2.1359-1.1654 4.2248 0.59881 6.7436 2.0932 2.9885 3.8191 2.8561 3.0437-0.23339zm-28.036-4.0366c0.36035-1.9209 0.30977-4.2834-0.11241-5.25s-0.67075-2.3468-0.55238-3.067c0.32941-2.0043-2.2587-7.237-3.3946-6.8632-1.6713 0.54992-1.7442 11.165-0.10363 15.091 1.8912 4.5264 3.3249 4.5571 4.1631 0.089zm19.825-2.8244c-0.12604-4.106-2.7154-8.6831-4.9123-8.6831-2.0413 0-1.8507 2.1249 0.7184 8.0087 2.4931 5.7097 4.3576 6.0096 4.1939 0.67446zm-11.389 2.4661c0-1.8626-2.2471-7.1492-3.0388-7.1492-1.6317 0-1.7687 1.5526-0.42009 4.7599 1.2368 2.9414 3.4589 4.4764 3.4589 2.3893zm2.567-6.5604c0.76384-3.0434-3.0276-12.04-4.6511-11.037-1.9634 1.2134 0.97114 13.448 3.2255 13.448 0.45123 0 1.0928-1.085 1.4256-2.4111zm-18.197-4.8389c1.4126-5.271 0.64215-13.22-1.6235-16.75l-2.2463-3.5-0.31538 7.5c-0.44367 10.551 2.4291 19.303 4.1851 12.75zm179.63-0.18462c0-3.4456-2.6819-15.773-4.1166-18.922-0.66245-1.4539-1.7644-2.6435-2.4488-2.6435-1.5696 0-0.86093 7.1322 1.1577 11.651 0.7742 1.7331 1.4076 4.6806 1.4076 6.55 0 3.212 1.4275 5.7989 3.2 5.7989 0.44 0 0.8-1.0956 0.8-2.4346zm-158.18-3.8934c0.54283-2.7989-2.7987-12.848-4.1199-12.39-1.6368 0.56718-1.4375 8.9763 0.28923 12.203 1.4813 2.7678 3.3129 2.8575 3.8307 0.18758zm-9.3035-8.0662c-0.38949-4.7798-2.9348-10.606-4.6334-10.606-1.3619 0-0.47434 6.6548 1.5261 11.442 2.0424 4.8882 3.541 4.4847 3.1074-0.83665zm-9.5663-10.898c-1.1306-10.924-5.9526-17.432-5.9526-8.035 0 5.6169 1.2469 10.528 3.5749 14.081 2.3326 3.5601 3.1555 1.4677 2.3777-6.0463zm12.762 0.42355c-0.28451-1.9975-0.83787-4.5318-1.2297-5.6318-0.49903-1.401 0.0597-1.1014 1.8655 1l2.5779 3 0.036-3.7821c0.0429-4.5152-2.503-11.121-3.9431-10.231-0.56153 0.34704-1.0353 2.2919-1.0528 4.322-0.0283 3.2832-0.17857 3.4976-1.3602 1.941-4.1686-5.4915-4.823 1.7925-0.93859 10.448 2.178 4.8534 2.8436 5.6368 3.6158 4.2569 0.52056-0.93018 0.71369-3.3256 0.42918-5.3231zm54.601-16.248c0.61626-2.46 0.39997-2.6511-3.6253-3.2028-2.3544-0.3227-5.0097-0.86648-5.9007-1.2084-1.327-0.50922-1.9205 0.72898-3.2815 6.8463-2.4556 11.037-2.0089 12.853 3.4919 14.192l4.5 1.0954 2.0801-7.5532c1.144-4.1542 2.375-8.7304 2.7354-10.169zm105.21-12.497c-0.31204-1.712-1.4925-3.95-2.6233-4.9733l-2.0559-1.8606 0.3255 15.022c0.28254 13.04 0.58942 15.412 2.3255 17.973l2 2.9512 0.29779-13c0.16378-7.15 0.0425-14.401-0.26956-16.113zm-169.53 21.164c0-1.2816-0.88503-3.3926-1.9667-4.691-1.7989-2.1594-1.9696-2.1962-2-0.43178-0.0492 2.8519 2.2023 8.5434 3.1484 7.9587 0.4501-0.27817 0.81836-1.5544 0.81836-2.836zm2.2608-12.441c0.67191-2.5694-0.70932-4.5363-2.6599-3.7878-2.3482 0.90109-2.1106 5.6771 0.28244 5.6771 1.0358 0 2.1057-0.85019 2.3774-1.8893zm-5.9301-12.361c1.9736-0.90387 2.6025-1.8038 2.2711-3.25-0.25206-1.1-0.76667-4.1375-1.1436-6.75-0.81563-5.6533-2.4556-6.3188-2.4644-1-3e-3 2.0625-0.67839 5.0389-1.5 6.6143-1.6372 3.1392-1.9443 5.6357-0.6932 5.6357 0.44035 0 2.0289-0.5625 3.53-1.25zm177.86-2.5c0.6733-2.7742-0.30022-11.25-1.2922-11.25-0.49462 0-0.89931 2.925-0.89931 6.5 0 6.0663 1.2267 8.7252 2.1915 4.75zm-170.66-0.5c0.67917-1.8304-0.94069-7.0547-2.3311-7.5182-1.2774-0.42581-1.67 4.368-0.58849 7.1864 0.7267 1.8938 2.2748 2.0697 2.9196 0.33179zm4.4734-2.2125c0-3.206-3.8707-13.538-5.0718-13.538-1.3802 0-1.1528 1.7319 1.2111 9.2218 2.1744 6.8898 3.8608 8.7748 3.8608 4.3157zm12 1.2125v-5.75c0-3.7778-0.36666-5-1.5-5-1.1458 0-1.5 1.2593-1.5 5.3333 0 2.9333 0.30938 5.6427 0.6875 6.0208 0.82872 0.82871 2.3125 0.44106 2.3125-0.60417zm149.79-9.58c0.19928-4.8631-0.0721-7.17-0.84362-7.17-0.62559 0-1.3728 0.9-1.6604 2s-0.92053 2-1.4064 2-0.88337 1.35-0.88337 3 0.45 3 1 3 1 1.1625 1 2.5833c0 1.6204 0.46592 2.4293 1.25 2.17 0.80637-0.26663 1.3543-2.958 1.5438-7.5833zm-157.18 1.08c0.38698-2.0625 1.0234-6.225 1.4142-9.25 0.49628-3.8411 0.75015-4.4828 0.84173-2.1276 0.10678 2.7465 0.38715 3.16 1.5106 2.2276 1.7905-1.486 2.7301-6.3021 1.9705-10.1-0.78712-3.9356-1.6782-3.7844-4.4198 0.75l-2.2674 3.75-0.97608-3.25c-1.285-4.2787-2.1156-4.0997-3.5748 0.77057-1.2591 4.2026-0.87505 5.9794 1.2924 5.9794 1.0349 0 1.0536 0.91669 0.0959 4.6888-1.0079 3.9696-0.94588 5.119 0.40459 7.4937 2.1233 3.7335 2.8678 3.5463 3.7081-0.93249zm155.3-20.127c0.64397-5.1574 0.94204-9.6058 0.66239-9.8855-0.92836-0.92836-5.637 2.8231-7.6149 6.0668-3.4541 5.6649-2.3572 11.918 2.5437 14.501 2.6768 1.4106 2.9952 0.63913 4.4088-10.682zm8.4713-3.373c0.87827-6.1875 2.3086-16.425 3.1784-22.75 1.2964-9.4268 2.136-12.401 4.6572-16.5 3.4348-5.5839 14.292-37.831 12.894-38.297-0.49142-0.1638 0.91037-2.9991 3.1151-6.3007s4.1849-5.8266 4.4004-5.6111c0.2155 0.2155-1.1869 3.8086-3.1164 7.9848s-3.5082 8.0724-3.5082 8.6585c0 2.422 1.7437 0.77032 3.8897-3.6845 1.2585-2.6125 5.3301-10.15 9.0479-16.75 7.3344-13.02 9.6855-18.21 8.697-19.199-0.34903-0.34903-0.75357-0.4471-0.89897-0.21794-4.2874 6.7572-10.101 14.885-10.419 14.567-0.23184-0.23185 1.8153-4.1855 4.5491-8.7858 3.2482-5.4657 4.6338-8.7108 3.9984-9.3643-1.1599-1.193-2.3646 0.26752-11.547 14-9.6328 14.405-21.02 39.83-18.529 41.369 0.74942 0.46317-0.0401 3.715-2.466 10.156-6.7847 18.015-11.313 40.305-11.32 55.725-2e-3 3.4375 0.39834 6.25 0.88864 6.25s1.61-5.0625 2.4883-11.25zm-173.99 7.6682c0.96941-2.5262 0.70084-14.418-0.32562-14.418-1.2555 0-2.2635 3.4163-1.9973 6.7689 0.11929 1.5021-0.0349 3.4061-0.34272 4.2311-0.91089 2.4416-0.48503 5 0.83227 5 0.67449 0 1.4995-0.7118 1.8333-1.5818zm6.9833-17.931c1.582-4.1181 3.1983-7.4875 3.5917-7.4875 1.2028 0 3.032-7.4605 3.032-12.366 0-3.2942-0.40273-4.634-1.393-4.634-1.6123 0-2.607 2.1297-2.607 5.5818 0 1.5049-0.57838 2.4182-1.5314 2.4182-1.9491 0-3.1416 2.966-1.5805 3.9309 1.259 0.77813 0.47957 4.0691-0.96375 4.0691-0.4739 0-0.60261-0.675-0.28602-1.5 0.31658-0.825 0.12632-1.5-0.42281-1.5-1.0763 0-4.2156 7.0895-4.2156 9.5202 0 0.81387 0.48576 1.4798 1.0795 1.4798 0.67718 0 0.8359 1.1089 0.4259 2.9756-0.63806 2.9051-0.0835 5.037 1.3037 5.0119 0.38004-7e-3 1.9853-3.3818 3.5673-7.5zm7.4836 4.4843c0.5806-1.6655 0.84962-3.6905 0.59783-4.5-1.5545-4.9976-1.6564-5.0639-3.0325-1.9718-1.8153 4.079-1.8285 9.5-0.0231 9.5 0.77119 0 1.8772-1.3627 2.4578-3.0282zm5.5314-8.9921c1.6979-4.2436 2.2224-14.98 0.73172-14.98-1.3421 0-5.1231 9.4865-5.1231 12.854 0 3.4591 0.87373 6.1464 1.9984 6.1464 0.43144 0 1.5083-1.8091 2.393-4.0202zm6.9752-11.793c0.7438-1.4776 1.632-4.8241 1.9738-7.4366 0.55624-4.252 0.41741-4.75-1.3243-4.75-2.6875 0-3.6488 2.4357-3.8784 9.8272-0.20709 6.6669 0.7197 7.3441 3.2289 2.3594zm6.4404-10.249c0.70844-1.1344 1.0161-2.9194 0.68373-3.9667-0.45472-1.4327-0.0089-2.0536 1.8008-2.5078 1.4306-0.35905 3.0744-2.0071 4.0568-4.0672 1.5575-3.2662 2.1611-6.3957 1.2335-6.3957-0.23002 0-1.031-0.23515-1.78-0.52255-0.74896-0.28741-3.0358 1.0108-5.0818 2.8849-3.5751 3.2746-3.72 3.6652-3.72 10.023 0 6.9251 0.65843 7.993 2.807 4.5526zm-4.66-20.992c0.90586-1.895 1.866-6.4764 2.1337-10.181l0.48664-6.7352-2.7517 1.9594c-3.1897 2.2713-6.4659 6.8942-5.5412 7.8189 0.34885 0.34886 1.0529-0.0277 1.5646-0.83676 0.568-0.89814 0.93628-1.0072 0.94563-0.28006 0.0084 0.65504-0.43469 1.4691-0.98469 1.809-1.1224 0.69369-1.3791 8.7876-0.3125 9.8542 1.2541 1.2542 2.7928 0.0781 4.4595-3.4086zm9.353-8.0605c1.5166-2.5669 1.9902-5.127 1.9594-10.592-0.04395-7.8014-0.34854-8.6562-2.7551-7.7328-1.6361 0.62784-3.9662 9.1536-5.3069 19.418l-0.71546 5.4776 2.409-1.5926c1.325-0.87591 3.309-3.1158 4.409-4.9776zm5.8809-19.04c0.95156-4.7578 4.6191-8.208 4.6191-4.3453 0 0.825 0.45 1.5 1 1.5s1-1.35 1-3c0-2.9435-0.09657-3-5.1308-3h-5.1308l0.61984 3.75c0.34091 2.0625 0.62479 4.7625 0.63084 6 0.01637 3.3458 1.6667 2.7216 2.3919-0.90469zm187.25-37.095c10.936-11.332 25.115-28.75 23.404-28.75-2.8611 0-23.645 22.001-29.522 31.25-3.0167 4.7481 0.51611 3.3044 6.1177-2.5zm-102.66-41.711c0.80907-0.51167 1.211-1.1904 0.89313-1.5082-0.78775-0.78775-3.8642 0.46709-3.8642 1.5762 0 1.1398 1.1012 1.1146 2.971-0.06793zm30.718-0.78906c0.0645-0.9625 0.43841-2.7625 0.83092-4 0.87373-2.7546-1.1682-3.0811-3.1276-0.5-1.9843 2.614-1.7553 6.25 0.39366 6.25 0.98935 0 1.838-0.78044 1.903-1.75zm10.224-8.6228c2.9411-4.2747 3.0558-5.6272 0.47752-5.6272-1.4901 0-6.5117 7.994-5.7728 9.1897 1.0041 1.6247 2.3487 0.72017 5.2952-3.5625zm47.479-24.627c1.6224 0 3.1423-1.7997 2.2628-2.6792-0.30038-0.30039-2.7698-0.01272-5.4875 0.63925-4.0989 0.98331-4.8568 1.5088-4.4453 3.0822 0.45789 1.751 0.71445 1.7838 3.3377 0.42728 1.5629-0.80822 3.5125-1.4695 4.3323-1.4695zm42.609-14.5c0-0.83333-0.88889-1.5-2-1.5-2.2133 0-2.7096 1.547-0.75 2.3377 2.1761 0.87807 2.75 0.70323 2.75-0.83772zm187 498.5c1.9557-1.2639 4.7189-1.2639 5.5 0 0.37124 0.60067-0.90301 0.99389-3.191 0.98469-2.8275-0.0114-3.4225-0.2651-2.309-0.98469z"/>
</svg>
