<?xml version="1.0" encoding="UTF-8"?>
<!-- Created with Inkscape (http://www.inkscape.org/) -->
<svg width="135" height="115" version="1.1" viewBox="0 0 135 115" xmlns="http://www.w3.org/2000/svg" xmlns:cc="http://creativecommons.org/ns#" xmlns:dc="http://purl.org/dc/elements/1.1/" xmlns:rdf="http://www.w3.org/1999/02/22-rdf-syntax-ns#">
 <metadata>
  <rdf:RDF>
   <cc:Work rdf:about="">
    <dc:format>image/svg+xml</dc:format>
    <dc:type rdf:resource="http://purl.org/dc/dcmitype/StillImage"/>
    <dc:title/>
   </cc:Work>
  </rdf:RDF>
 </metadata>
 <path d="m95.188 88.346c-1.6154-1.702-7.6621-5.3096-13.437-8.017-5.775-2.7074-12.638-6.0399-15.251-7.4055-2.6128-1.3657-5.3244-2.483-6.0259-2.483s-4.5824 2.0581-8.6244 4.5735c-4.042 2.5154-9.1733 4.8849-11.403 5.2655-3.5187 0.60068-4.345 1.2705-6.2604 5.0749-2.1608 4.2917-2.2322 4.3354-3.4299 2.0973-1.8181-3.3972-0.63751-8.0744 3.9613-15.694 4.7341-7.8432 5.7625-10.988 4.128-12.622-0.63702-0.63702-5.7229-3.4166-11.302-6.1768s-10.33-5.5875-10.557-6.2828c-0.78176-2.3941 6.9575-4.5304 19.621-5.416 6.7965-0.47529 13.096-1.2698 14-1.7655 0.90353-0.49573 4.0867-5.5482 7.0738-11.228 2.987-5.6796 6.587-11.903 8-13.829 2.21-3.0133 2.8801-3.366 4.7946-2.5234 1.9152 0.84289 2.1414 1.5058 1.6222 4.7529-0.64562 4.0375 0.75657 5.1405 2.5721 2.0234 0.56061-0.9625 1.033-1.2735 1.0497-0.69113 0.0167 0.58238-0.58364 1.8986-1.3341 2.925-1.1791 1.6125-1.0601 2.5558 0.87582 6.9411 1.2322 2.7912 2.5236 5.9054 2.8698 6.9204 0.56226 1.6485 1.6155 1.8107 9.8742 1.5205 5.0846-0.17867 12.586-0.22159 16.669-0.09539l7.4243 0.22947-2.1835 2.3242c-2.3204 2.47-1.9919 3.6758 1.0015 3.6758 3.5432 0 1.7862 1.8319-2.4167 2.5198-4.1773 0.68365-9.0594 2.7915-17.528 7.5675-5.151 2.905-5.1506 2.9094 1.7089 17.913 2.6404 5.7754 5.1197 12.075 5.5095 14 0.38987 1.9246 0.93058 4.2868 1.2016 5.2493 0.7441 2.6428-0.9279 2.1082-4.205-1.3445zm-53.14-20.437c1.3878-1.9068 1.4812-2.4686 0.41052-2.4686-0.76239 0-1.8988 1.125-2.5252 2.5-1.4556 3.1948-0.22001 3.1764 2.1147-0.03142zm37.4-5.2262c-1.6185-1.6185-2.697-2.1531-2.697-1.337 0 1.5639 4.0516 5.3763 4.8573 4.5706 0.29516-0.29516-0.67699-1.7503-2.1603-3.2336zm10.274-15.203c0.80907-0.51167 1.211-1.1904 0.89313-1.5082-0.78775-0.78775-3.8642 0.46709-3.8642 1.5762 0 1.1398 1.1012 1.1146 2.971-0.06793z"/>
</svg>
