<?xml version="1.0" encoding="utf-8"?>
<!-- Generator: Adobe Illustrator 16.0.0, SVG Export Plug-In . SVG Version: 6.00 Build 0)  -->
<!DOCTYPE svg PUBLIC "-//W3C//DTD SVG 1.1//EN" "http://www.w3.org/Graphics/SVG/1.1/DTD/svg11.dtd">
<svg version="1.1"
	 id="Слой_1" xmlns:cc="http://creativecommons.org/ns#" xmlns:dc="http://purl.org/dc/elements/1.1/" xmlns:rdf="http://www.w3.org/1999/02/22-rdf-syntax-ns#"
	 xmlns="http://www.w3.org/2000/svg" xmlns:xlink="http://www.w3.org/1999/xlink" x="0px" y="0px" width="auto"
	  viewBox="44.04 76.705 562.496 559.197" enable-background="new 44.04 76.705 562.496 559.197"
	 xml:space="preserve">
<path d="M498.15,635.47c-1.366-0.844,0.367-8.981,25.893-121.569c2.12-9.351,6.667-29.488,10.104-44.75
	c5.5-24.423,6.478-27.75,8.152-27.75c2.191,0,2.384-1.469-2.823,21.5c-1.87,8.25-8.817,39.074-15.438,68.5
	c-6.62,29.425-13.566,60.25-15.437,68.5c-1.869,8.25-4.396,19.5-5.614,25c-2.435,10.98-2.816,11.815-4.839,10.564L498.15,635.47z
	 M282.27,551.155c-1.448-1.782,112.28-163.88,114.4-163.061c0.82,0.315,1.227,1.236,0.91,2.063
	c-0.841,2.19-112.93,162.13-113.67,162.189c-0.345,0.03-1.084-0.507-1.643-1.194L282.27,551.155z M589.54,405.335
	c-43.558-2.706-84.61-13.603-124-32.913c-29.272-14.351-54.365-31.34-78.061-52.849c-63.317-57.479-103.299-142.71-106.16-226.27
	l-0.566-16.598l3.142,0.461l3.142,0.461l0.01,7.137c0.024,16.589,3.237,42.99,7.623,62.637c5.871,26.296,13.14,46.698,25.836,72.5
	c15.836,32.184,35.282,59.278,61.018,85.014c57.052,57.052,130.55,89.8,211.51,94.246l13.5,0.74v3c0,3.595,0.513,3.521-17,2.434
	L589.54,405.335z M119.71,381.979c-0.409-1.066,0.702-2.288,3.621-3.984c27.066-15.722,167.41-95.788,168.13-95.918
	c0.529-0.096,1.124,0.558,1.321,1.452c0.271,1.229-20.376,13.5-84.444,50.187c-46.642,26.708-85.531,48.84-86.42,49.182
	C120.942,383.271,120.066,382.906,119.71,381.979L119.71,381.979z M44.042,180.579c0-1.204,0.867-2.168,2.25-2.502
	c2.845-0.687,62.172-12.243,113.75-22.158c51.041-9.812,75.098-14.524,77.132-15.107c1.425-0.409,3.541,2.252,2.566,3.228
	c-0.492,0.492-12.599,2.868-124.2,24.37c-37.4,7.206-68.788,13.333-69.75,13.615c-1.246,0.366-1.75-0.051-1.75-1.445H44.042z"/>
</svg>