<?xml version="1.0" encoding="UTF-8"?>
<!-- Created with Inkscape (http://www.inkscape.org/) -->
<svg width="181.76" height="176" version="1.1" viewBox="0 0 181.75999 176" xmlns="http://www.w3.org/2000/svg" xmlns:cc="http://creativecommons.org/ns#" xmlns:dc="http://purl.org/dc/elements/1.1/" xmlns:rdf="http://www.w3.org/1999/02/22-rdf-syntax-ns#">
 <metadata>
  <rdf:RDF>
   <cc:Work rdf:about="">
    <dc:format>image/svg+xml</dc:format>
    <dc:type rdf:resource="http://purl.org/dc/dcmitype/StillImage"/>
    <dc:title/>
   </cc:Work>
  </rdf:RDF>
 </metadata>
 <path d="m153.96 151.55c-5.1228-4.9738-5.1843-5.0502-6.9161-8.5843-1.0694-2.1825-1.6676-3.7736-1.5417-4.1016 0.42255-1.1012 7.057-3.6759 8.5234-3.3078 0.43936 0.11028 3.0104 2.4671 5.7909 5.3084 4.7705 4.8748 5.0748 5.2638 6.6117 8.4501 0.88608 1.837 1.611 3.4982 1.611 3.6914 0 0.68214-6.7521 3.5622-8.3513 3.5622-0.30757 0-2.8852-2.2583-5.728-5.0184zm4.4591 0.89331c-0.83569-2.6362-0.9499-3.3172-0.62247-3.7117 0.22055-0.26574 0.53737-0.48317 0.70406-0.48317 0.44223 0 5.1119-1.9734 4.9805-2.1047-0.0612-0.0612-1.4726 0.31378-3.1366 0.83319-1.664 0.51942-3.2214 0.946-3.461 0.94797-0.23957 2e-3 -1.1453-0.59067-2.0128-1.317-2.1778-1.8234-2.304-1.3561-0.15178 0.56218 1.6002 1.4262 1.8639 1.8664 3.097 5.1696 0.74135 1.9858 1.4106 3.548 1.4872 3.4714 0.0766-0.0766-0.3213-1.5921-0.88419-3.3678zm-4.927-3.8385c-0.24133-0.68399-0.65638-1.656-0.92235-2.16-0.55633-1.0543-5.2296-5.764-5.4754-5.5181-0.42925 0.42925 2.157 4.8368 3.9845 6.7903 2.3464 2.5083 3.0803 2.7783 2.4133 0.88778zm2.69-5.5971c1.4865-0.58081 2.7508-1.2001 2.8095-1.3761 0.16522-0.49566-4.9458-5.2232-5.6469-5.2232-0.86093 0-5.8494 1.8612-6.3743 2.3782-0.35739 0.35207-0.19988 0.62923 0.94468 1.6622 0.75548 0.68181 1.9565 1.776 2.6689 2.4316 0.78133 0.719 1.6128 1.1903 2.0953 1.1876 0.44-2e-3 2.0163-0.47955 3.5028-1.0604zm-50.079-2.6541c0.40763-10.313 0.96443-15.837 2.7365-27.145 0.74629-4.7626 0.92791-5.8979 1.2798-8 0.56273-3.3618 0.72162-4.6563 0.76276-6.2146 0.0345-1.3086-0.0335-1.4338-0.90811-1.6698-0.52-0.14035-1.96-0.32433-3.2-0.40884-1.24-0.0845-3.7666-0.30902-5.6146-0.4989-1.848-0.18988-4.728-0.48223-6.4-0.64967s-4.48-0.45525-6.24-0.63957-4.64-0.46612-6.4-0.62622c-1.76-0.16009-5-0.46606-7.2-0.67993-6.6399-0.64549-6.1995-0.72351-6.4792 1.1476-0.86663 5.7977-2.1097 16.187-2.3164 19.36-0.06306 0.968-0.27873 3.488-0.47927 5.6-0.20054 2.112-0.44461 6.2628-0.54238 9.2239-0.17378 5.2636-0.19458 5.3916-0.9308 5.727-1.3475 0.61396-1.6412-0.0213-1.5482-3.3483 0.12879-4.6075 0.99824-15.762 1.7275-22.163 0.34628-3.0393 0.54589-4.6375 1.3189-10.56 0.18376-1.408 0.36016-3.28 0.39198-4.16l0.05786-1.6-2.56-0.208c-1.408-0.11439-4.504-0.3744-6.88-0.57779s-6.048-0.50369-8.16-0.66734c-2.112-0.16364-5.64-0.44747-7.84-0.63073-2.2-0.18327-6.52-0.40586-9.6-0.49467-6.9683-0.20091-7.04-0.21513-7.04-1.3967v-0.92302l3.0345-0.11089c3.5952-0.13138 12.462 0.2152 16.965 0.66315 4.4094 0.43858 11.479 1.0336 13.6 1.1446 0.968 0.0507 3.3595 0.19913 5.3144 0.32992 2.6533 0.17752 3.6151 0.13963 3.7938-0.14945 0.13164-0.21299 0.36223-1.4924 0.51242-2.8432 0.1502-1.3507 0.42846-3.3919 0.61835-4.5359 0.1899-1.144 0.4885-3.016 0.66356-4.16 0.58863-3.8466 0.87212-5.5891 1.2495-7.68 0.20648-1.144 0.43416-2.656 0.50596-3.36 0.12353-1.2113 0.29475-2.2948 1.1378-7.2 0.19662-1.144 0.37699-2.656 0.40082-3.36l0.04332-1.28-3.2-0.20683c-1.76-0.11376-5.072-0.37564-7.36-0.58195-2.288-0.20631-4.952-0.41994-5.92-0.47474s-3.56-0.26514-5.76-0.46743c-5.5507-0.51038-11.441-0.94091-17.28-1.263-2.728-0.15048-5.2009-0.37753-5.4953-0.50457-0.8182-0.35307-0.93274-1.036-0.30397-1.8125 0.53841-0.66491 0.67812-0.68366 2.624-0.35231 2.0053 0.34148 6.3402 0.69887 11.175 0.92134 4.1188 0.18951 15.072 1.0158 22.72 1.714 1.848 0.1687 4.7458 0.39194 6.4395 0.49608l3.0795 0.18934 0.21099-1.0687c0.209-1.0587 0.62792-3.2489 1.1531-6.0287 0.14963-0.792 0.49359-2.664 0.76436-4.16 0.86302-4.7682 2.1158-10.703 3.3436-15.84 0.16827-0.704 0.47444-2.144 0.68039-3.2 0.20595-1.056 0.50815-2.17 0.67156-2.4757 0.16341-0.30561 0.29711-0.77557 0.29711-1.0443s0.12632-0.73873 0.28072-1.0443c0.1544-0.30561 0.45434-1.1317 0.66654-1.8357 0.52758-1.7503 1.2425-3.2912 1.6415-3.5378 0.18238-0.11272 0.61053 0.04748 0.95144 0.356 0.6384 0.57774 0.82588 1.5766 0.35099 1.8701-0.14787 0.09139-0.65852 1.4319-1.1348 2.9789-0.47626 1.547-1.0033 3.255-1.1712 3.7954-0.16787 0.5405-0.30522 1.288-0.30522 1.6611 0 0.37312-0.12879 0.75799-0.2862 0.85528-0.15741 0.09728-0.36168 0.71778-0.45394 1.3789-0.09226 0.6611-0.32433 1.85-0.51572 2.642-0.19138 0.792-0.49111 2.124-0.66606 2.96s-0.47679 2.276-0.67077 3.2-0.4056 2.112-0.47026 2.64c-0.06466 0.528-0.27526 1.68-0.468 2.56-0.19274 0.88-0.4213 2.176-0.50791 2.88-0.08661 0.704-0.28436 1.568-0.43946 1.92s-0.36677 1.216-0.4704 1.92c-0.10362 0.704-0.33634 2.072-0.51714 3.04s-0.35695 2.264-0.39144 2.88l-0.0627 1.12 2.4 0.19888c1.32 0.10938 4.56 0.38001 7.2 0.6014 2.64 0.22139 5.448 0.43708 6.24 0.47931 0.792 0.04223 3.24 0.25408 5.44 0.47076s5.44 0.51178 7.2 0.65575c1.76 0.14397 5.144 0.43745 7.52 0.65217 6.7705 0.61185 7.8283 0.58798 7.8992-0.17827 0.0326-0.352 0.22138-1.432 0.41953-2.4s0.43242-2.264 0.5206-2.88c0.0882-0.616 0.28721-1.408 0.4423-1.76 0.1551-0.352 0.35286-1.216 0.43947-1.92 0.0866-0.704 0.31739-2 0.51285-2.88 0.74189-3.3401 1.5563-7.6111 1.7696-9.28 0.0675-0.528 0.27427-1.68 0.45955-2.56 0.71883-3.4141 1.4987-7.6879 1.9119-10.477 0.17575-1.1865 0.47433-2.4465 0.66352-2.8 0.42413-0.79251 1.4951-0.84201 1.7368-0.08028 0.17413 0.54863-0.12476 3.094-0.74183 6.3176-0.16846 0.88-0.54534 3.04-0.83752 4.8-0.29217 1.76-0.6688 3.92-0.83696 4.8s-0.38067 2.104-0.47225 2.72c-0.0916 0.616-0.29341 1.408-0.44851 1.76-0.15509 0.352-0.35285 1.216-0.43946 1.92-0.0866 0.704-0.31739 2-0.51285 2.88-0.67884 3.0562-1.8957 9.6427-2.1387 11.576l-0.1679 1.3358 1.3903 0.1697c1.6445 0.20073 6.8666 0.59107 8.9103 0.66603 0.792 0.02906 2.376 0.1565 3.52 0.28322 1.144 0.12672 3.232 0.28782 4.64 0.35799 2.5258 0.12589 9.2445 0.64305 13.92 1.0715 2.3985 0.21977 2.4001 0.22052 2.4971 1.2175 0.096 0.98588 0.0772 0.99956-1.5925 1.16-0.9293 0.08929-2.7478 0.03098-4.041-0.12957-1.2933-0.16056-3.3126-0.34947-4.4875-0.4198-2.0272-0.12135-6.4429-0.4794-14.296-1.1592-8.2625-0.71521-10.556-0.80816-10.971-0.44463-0.2259 0.19793-0.48938 0.9259-0.58551 1.6177-0.0961 0.69181-0.29913 1.5458-0.45111 1.8978s-0.34816 1.216-0.43597 1.92c-0.0878 0.704-0.32678 2.144-0.53105 3.2-0.20428 1.056-0.36038 2.3418-0.3469 2.8573 0.0135 0.51552-0.10027 1.0915-0.25277 1.28-0.15251 0.18848-0.35627 0.99068-0.45281 1.7827-0.0966 0.792-0.33365 2.232-0.52689 3.2s-0.48304 2.48-0.644 3.36c-0.16097 0.88-0.45479 2.464-0.65294 3.52-0.19816 1.056-0.47862 2.568-0.62326 3.36s-0.42484 2.304-0.62267 3.36c-0.60347 3.2213-0.61976 3.1309 0.61661 3.4234 0.616 0.14576 2.632 0.41612 4.48 0.60078 1.848 0.18467 4.44 0.45773 5.76 0.6068 4.4084 0.49785 9.7446 1.0365 11.2 1.1306 1.5387 0.0994 7.0392 0.66457 10.72 1.1014 6.6608 0.79047 6.5452 0.75257 6.5551 2.1504 7e-3 0.92586-0.24182 0.97265-3.4663 0.65298-1.5228-0.15097-3.4888-0.32609-4.3688-0.38916-0.88-0.0631-2.896-0.26771-4.48-0.45474-3.0977-0.36578-7.2344-0.82061-11.84-1.3018-1.584-0.1655-4.176-0.4482-5.76-0.62823-3.3742-0.38348-9.0512-0.9384-9.805-0.95843-0.3462-9e-3 -0.58687 0.34024-0.70668 1.026-0.0999 0.572-0.33728 1.832-0.52746 2.8s-0.48522 2.624-0.65566 3.68c-0.17043 1.056-0.45752 2.784-0.63797 3.84-0.43386 2.5389-0.96218 6.1267-1.1074 7.52-0.0642 0.616-0.28144 2.344-0.48278 3.84-0.60428 4.4899-0.94669 7.6567-1.2111 11.201-0.1379 1.8486-0.34538 3.5142-0.46106 3.7014-0.11569 0.18719-0.23449 2.0587-0.26401 4.1589-0.0295 2.1002-0.14702 4.3946-0.26111 5.0986-0.18019 1.1118-0.32795 1.2938-1.1246 1.3852l-0.91714 0.1052zm5.7665-45.834c0.10631-0.33498 0.34647-1.451 0.53367-2.48 0.18721-1.029 0.4643-2.519 0.61575-3.311s0.41716-2.232 0.59045-3.2c0.33094-1.8485 0.63938-3.5116 1.4837-8 0.28143-1.496 0.63388-3.44 0.78322-4.32 0.39999-2.357 0.92657-5.2441 1.2548-6.88 1.42-7.0766 1.4452-6.4794-0.28566-6.7816-0.78861-0.13766-3.3806-0.40348-5.76-0.59071-13.235-1.0415-16.801-1.3271-19.846-1.5893-16.152-1.391-16.519-1.4133-16.761-1.0211-0.23585 0.38161-0.72329 2.7968-1.1752 5.8227-0.17084 1.144-0.44766 2.872-0.61516 3.84-0.1675 0.968-0.45927 2.84-0.64839 4.16s-0.47016 3.12-0.62454 4c-1.0801 6.1567-1.8931 11.723-2.1553 14.756l-0.16908 1.9557 2.3545 0.20503c1.295 0.11277 3.7225 0.34137 5.3945 0.508s4.552 0.45025 6.4 0.63028c1.848 0.18002 4.944 0.48447 6.88 0.67654s4.168 0.3918 4.96 0.44384c0.792 0.052 2.232 0.19076 3.2 0.30826s2.48 0.27884 3.36 0.35853c0.88 0.0797 3.2445 0.29234 5.2544 0.47256 2.0099 0.18021 3.7259 0.39919 3.8133 0.4866 0.36008 0.36009 0.9817 0.1194 1.1624-0.45009zm-33.349-6.2769c-0.66117-0.46809-0.68316-0.57865-0.27281-1.3716 0.66937-1.2934 4.7277-6.2496 7.755-9.4708 1.4723-1.5666 2.6769-3.0237 2.6769-3.238 0-0.39407-1.5979-1.769-7.3601-6.3334-1.1542-0.91425-2.4913-1.6952-3.6799-2.1494-1.0964-0.41897-1.28-0.62548-1.28-1.44 0-0.72827 0.16054-0.97378 0.6857-1.0487 0.75228-0.10725 3.0746 0.88095 5.0743 2.1592 1.4374 0.91883 6.3937 5.016 7.3296 6.0591 0.33528 0.37368 0.77494 0.67941 0.97702 0.67941 0.32013 0 2.805-2.4794 9.7011-9.68 1.8852-1.9684 2.4208-2.193 2.9356-1.2311 0.40166 0.7505-0.36513 1.7254-6.1434 7.8104-2.244 2.3632-4.08 4.5187-4.08 4.7902 0 0.27145 0.468 0.87557 1.04 1.3425 0.572 0.46691 1.8147 1.5237 2.7615 2.3484 0.94683 0.82473 2.0796 1.7875 2.5174 2.1395s1.247 1.0436 1.7985 1.5368c0.55145 0.49323 1.7946 1.4593 2.7626 2.1469 2.8946 2.056 3.2734 2.4197 3.1537 3.0289-0.25841 1.3156-1.0445 1.2655-3.0256-0.19296-1.7361-1.278-8.1271-6.4922-11.614-9.4756l-1.4062-1.203-2.8442 3.0395c-1.5643 1.6717-3.7395 4.1756-4.8338 5.5641-1.0943 1.3885-2.4216 3.0137-2.9496 3.6116-0.91617 1.0374-0.99284 1.0638-1.6791 0.57789zm39.279 47.72c0-0.59717 0.18-1.1701 0.4-1.2732 0.22-0.1031 0.976-0.54953 1.68-0.99206s1.496-0.90182 1.76-1.0206c0.264-0.11882 1.082-0.6238 1.8177-1.1222 0.73571-0.49836 1.4258-0.90612 1.5335-0.90612 0.10772 0 0.36978-0.14183 0.58235-0.31518 1.6842-1.3734 2.4259-1.9248 2.5891-1.9248 0.24794 0 3.4794-2.4938 5.3147-4.1015l1.4373-1.2591-1.4095-1.5597c-4.1642-4.6079-8.0471-8.72-9.4581-10.016-4.3175-3.9665-4.426-4.1282-3.5634-5.3079 0.42868-0.58626 0.48448-0.57573 1.6466 0.31063 1.6328 1.2454 11.409 11.22 12.559 12.814 1.6915 2.3441 1.7428 2.3504 3.7485 0.45338 2.0348-1.9244 4.0843-4.7853 4.8527-6.7738 0.28895-0.74776 0.6477-1.4964 0.79723-1.6636 0.14954-0.1672 0.27188-0.76983 0.27188-1.3392 0-2.2193 1.2404-3.7192 2.1016-2.5414 0.97501 1.3334-0.30318 6.0185-2.5142 9.2157-2.1219 3.0683-3.2282 4.425-4.2334 5.1918-0.61268 0.4673-1.114 1.085-1.114 1.3725 0 0.2876 1.2228 1.7725 2.7174 3.2998l2.7174 2.7769-0.51768 1.0377-0.51769 1.0377-3.0854-3.0738c-1.697-1.6906-3.2426-3.0738-3.4346-3.0738s-0.98162 0.54-1.7546 1.2c-2.5422 2.1708-12.373 9.04-12.938 9.04-0.0877 0-0.72983 0.36-1.4268 0.8-1.8311 1.1559-2.56 1.0745-2.56-0.28576zm-80-4.0545c-2.8976-0.462-5.112-1.6052-6.9305-3.578-1.5485-1.6799-2.6318-4.476-2.0199-5.2134 0.72455-0.87303 1.2946-0.47413 2.1971 1.5375 1.2158 2.7099 2.5749 3.8438 5.4521 4.5489 5.3344 1.3072 10.549-1.1303 14.183-6.6299 2.7608-4.1781 3.2789-5.7863 3.2748-10.165-0.0038-3.9904-0.62476-6.405-2.3455-9.12-1.0575-1.6685-3.271-4-3.7976-4-0.22735 0-0.41337-0.12594-0.41337-0.27987s-1.0091-0.60434-2.2424-1.0009c-4.2312-1.3605-7.8858-0.0814-12.212 4.2742-1.3779 1.3872-2.5053 2.7178-2.5053 2.957s0.36 0.67069 0.8 0.95899c1.042 0.68272 1.0139 0.94144-0.31606 2.9164-2.3532 3.4944-3.2632 8.1207-2.2557 11.468 0.25754 0.85576 0.4124 1.6118 0.34412 1.6801-0.29866 0.29867-1.5137-0.37036-1.9884-1.0949-0.58043-0.88585-0.90919-7.0195-0.39333-7.3384 0.15914-0.0984 0.28935-0.46529 0.28935-0.8154 0-0.35012 0.288-1.2327 0.64-1.9612 0.82756-1.7129 0.80649-2.117-0.12892-2.4726-1.2165-0.4625-1.252-0.86982-0.20831-2.3868 0.53747-0.78119 0.97722-1.5744 0.97722-1.7627s0.11295-0.34234 0.251-0.34234 0.49424-0.41177 0.79153-0.91503c0.68977-1.1677 3.5813-4.143 5.0375-5.1834 1.0601-0.7574 2.9021-1.6986 4.8951-2.5012 1.1081-0.44625 5.5551-0.47712 5.8249-0.0404 0.10877 0.176 0.48419 0.32 0.83426 0.32 1.8322 0 6.7258 4.4549 8.1423 7.4124 0.4498 0.93915 0.95409 1.9576 1.1206 2.2632 0.16654 0.30561 0.30281 0.90911 0.30281 1.3411s0.144 0.87446 0.32 0.98323c0.4022 0.24857 0.42988 8.2773 0.0312 9.0443-0.15884 0.30562-0.47558 1.2037-0.70385 1.9957-0.22828 0.792-0.71358 1.944-1.0785 2.56-0.36487 0.616-0.87614 1.5455-1.1361 2.0656-0.7476 1.4954-4.1221 4.9351-6.0539 6.1709-3.3558 2.1467-5.8876 2.7961-8.9788 2.3033zm15.52-86.7c-0.10877-0.176-0.40684-0.32-0.66237-0.32-1.1492 0-3.6769-1.5607-5.6571-3.4929-1.1877-1.1589-2.1597-2.2695-2.16-2.4679-2.88e-4 -0.19845-0.20615-0.53147-0.45747-0.74005-1.0902-0.90478-2.5086-4.4017-2.9705-7.3237-0.20752-1.3127-0.93052-1.652-1.5711-0.73749-1.0485 1.497-2.4142 0.15605-1.6977-1.667 2.5113-6.3897 4.4754-9.5825 8.0668-13.113 1.7036-1.6747 3.1411-2.7684 4.3473-3.3074 0.99116-0.44293 2.0522-0.93699 2.3578-1.0979 0.72194-0.38015 6.1667-0.38015 6.8887 0 0.30561 0.16092 1.3707 0.65692 2.3668 1.1022 2.5278 1.13 5.8991 4.5616 7.4174 7.5503 0.6443 1.2683 1.1715 2.5536 1.1715 2.8564s0.17387 0.72438 0.38637 0.93689c0.55594 0.55594 0.5398 7.8779-0.02058 9.3416-1.2506 3.2665-2.224 4.7718-4.6691 7.2211-2.6396 2.644-6.3677 4.9389-8.0233 4.9389-0.4156 0-0.84463 0.144-0.9534 0.32s-1.0448 0.32-2.08 0.32c-1.0352 0-1.9712-0.144-2.08-0.32zm5.471-2.7421c2.1598-0.72652 5.6088-3.0721 7.1704-4.8765 1.6732-1.9332 3.0149-4.7765 3.5399-7.5014 0.34391-1.7851 0.34188-2.5349-0.01174-4.32-0.23534-1.188-0.52611-2.376-0.64615-2.64-2.1831-4.8012-4.7329-7.7217-8.1291-9.3109-1.9387-0.90721-2.3556-0.98444-4.7595-0.88169-2.1133 0.09033-3.0147 0.29788-4.5547 1.0488-2.115 1.0312-5.9088 4.6468-7.1053 6.7714-1.7771 3.1557-2.0268 3.694-1.8479 3.9834 0.10503 0.16996 0.38767 0.30902 0.62808 0.30902 0.34374 0 0.43236 0.73478 0.4149 3.44-0.02061 3.1948 0.04891 3.5958 0.97531 5.6251 0.9757 2.1373 4.6215 7.0949 5.2175 7.0949 0.16542 0 0.4035 0.16471 0.52908 0.36602 0.12558 0.20131 1.1643 0.66327 2.3083 1.0266 2.2917 0.72779 3.8035 0.69532 6.271-0.1347z" fill="#131313" stroke-width=".32"/>
</svg>
