<svg fill="#ed7d31" xmlns="http://www.w3.org/2000/svg" viewBox="0 0 400 400"><path d="M162.8 203.8c19.5-14.3 30.9-37.7 35-61.6 4.1-23.8 1.5-48.3-2.3-72.3-1.6-9.8-3.3-19.6-2.2-29.4 1.7-14.7 11.3-28.1 27-29.3 8.7-.6 17.3 2.1 25.4 5.4s16 7.3 24.5 9.3c22.1 5.2 36.3-4.9 54.9-14.3 7.4-3.7 15.9-6.1 23.7-3.5 9.2 3 15 12.1 19.2 20.8 12.5 26.1 18 55.7 15.6 84.6-2.5 29.1-13.6 58.5-35.8 77.4-1.1.9-2.4 1.9-3.9 2.1-2.3.3-4.3-1.5-6.1-2.9-17.9-16-39.9-28-63.6-31.4-23.7-3.4-49.2 2.5-67.5 18.1-15.2 13.1-24.4 31.7-38.1 46.3-17.6 18.8-42.7 30.4-68.5 31.6-25.8 1.2-51.8-8-71.1-25.1-5.7-5.1-11-11.1-12.7-18.5-3.9-16.2 15.2-26.1 27.2-32C59.7 171 78 167.4 96.1 169c25.7 2.4 50.3 15.1 66.7 34.8z"/><path d="M374.3 168.2c-4 52.8-31.9 103.5-74.4 135.1s-99 43.8-150.8 32.4c-51.7-11.3-97.9-46-123.4-92.6 5.1 9.4 27.2 16.3 36.6 19.1 36.1 10.9 76.4 1.9 104.4-23.2 20.4-18.3 34.1-44.6 57.6-59.3 19.6-12.2 44.9-14.2 66.5-6.1 13.6 5.1 42.3 15.8 43.5 32.9.7 9.7-6.4 18-13.4 24.7-22 21.3-46.5 40-72.9 55.4 27.7-11.2 54.6-25.3 77.1-44.8 22.9-19.5 41.3-44.8 49.2-73.6zM147 385.1c0-.2 0-.5.1-.6.3-.5.9-.6 1.4-.7 20.9-3.9 42.2-5.5 63.3-4.9 3.4.1 7.5-.1 9.1-3.1.8-1.5.7-3.1.6-4.8l-.6-13.8c-.1-3 1.7-4.2 4.5-4.8 4-.8 8-1.4 12.1-2-.6.1.4 17.9.4 19.5.2 4.4-.4 8.1 5.2 8.5 7.4 0 14.7.6 22.1 1.1 7.2.5 14.5.7 21.6 1.6 4.5.5 9.1 1.1 13.6 1.9 4.2.7 9.6 1.2 13.3 3.1-4.4 1.9-10.1 2.4-14.8 3.1-5.5.9-11 1.7-16.7 2.1-22.5 2.1-45.2 1.6-67.7.8-13.1-.5-26.1-1-39.2-1.9-8.9-.6-18-1.3-26.7-3.5-.4-.2-1.5-.9-1.6-1.6z"/></svg>