<svg fill="#ed7d31" xmlns="http://www.w3.org/2000/svg" viewBox="0 0 400 400"><path d="M159.3 40.4c13.1-5.2 27.1-8 41.1-8 3.5 0 7 .1 10.4.5 36.6 3.3 71 25.8 88.7 58 17.8 32.2 18.5 73.2 1.8 106-12.7 24.9-34.1 44.3-48.7 68.2-2.6 4.3-6.5 9.4-11.4 8.2-3-.7-5-3.9-5.3-7-.3-3.2.8-6.2 2.1-9.1 10.6-23.9 32.6-40.8 45.6-63.4 16.5-28.7 16.7-66.1.5-95-16.2-28.8-48.4-48.1-81.5-48.9S136.5 66.8 119 95s-19.1 65.5-3.9 94.9c11.8 22.9 32.3 40.1 45.4 62.1 2.3 3.8 4.3 7.9 4.1 12.3-.2 4.4-3.5 8.9-7.9 9-5.4 0-8.5-5.9-10.9-10.8-10.1-20.7-28.5-36.1-41-55.4-12.9-20-19.4-44.2-18-68 1.7-29.7 15.5-57.4 37.5-77.1 10.4-9.3 22.2-16.5 35-21.6z"/><path d="M197.1 69.9v100.4c0 .8 0 1.7-.5 2.5-.5.9-1.5 1.4-2.4 1.9-5.7 3.5-6.9 12.4-2.4 17.3 4.4 4.9 13.3 4.6 17.6-.5 4.2-5.2 2.8-13.8-2.8-17.4-1-.6-2.1-1.2-2.6-2.2-.4-.8-.4-1.6-.4-2.5V69.7c4.9.8 9.3 4.2 11.5 8.7 2.1 4.5 2 10-.5 14.4-.4.7-.8 1.4-1 2.2-.2 1 .2 2.1.6 3 8.2 22.2 16.5 44.3 24.7 66.5.6 1.5 1.2 3 1.3 4.7.2 2.1-.3 4.1-.8 6.2-5.6 22.3-9.5 45-11.8 67.9-.1.8-.2 1.6-.8 2.1-.5.3-1.1.3-1.6.3h-48.3c-.6 0-1.4 0-2-.4-1-.6-1.2-1.9-1.4-3.1-2.4-22.5-6.4-44.8-12.1-66.6-1.7-6.6.5-11.7 2.8-18 7.4-19.8 14.8-39.5 22.2-59.3.4-1.1.8-2.2.6-3.3-.1-1-.6-1.9-1.1-2.8-4.3-8.7.6-21.6 11.2-22.3zm3.2 233.4h18.3c7.1 0 14.6-.7 21.7.3 4.8.6 9.9 3 10 8.5.1 2.5-1.1 5-3.1 6.6-2.9 2.4-7 2.5-10.8 2.5-13.5 0-27.1.1-40.6.1-7.5 0-15.1.2-22.7.1-5.8-.1-16 1.2-20.6-3.2-1.7-1.7-2.5-4.3-2.1-6.8 1.2-7.5 9.7-8 15.8-8 11.4-.1 22.8-.1 34.1-.1zm-.1 42.1h-38.7c-1.6 0-3.3 0-4.8-.5-3.3-1-5.9-4-6.2-7.3-.4-3.1 1.1-6.3 3.7-8.2 3-2.1 7.6-1.7 11.1-1.7 24 0 48.1-.1 72.1-.1 3.3 0 6.8.1 9.6 1.9 2.6 1.8 3.9 5.2 3.4 8.2-.5 3.1-2.8 5.8-5.7 6.8-2 .7-4.2.7-6.2.7-12.9.2-25.6.2-38.3.2zm.2-48.9c-12.3 0-24.7.1-37 .1-3.3 0-7-.1-9.6-2.1-2.2-1.6-3.4-4.3-3.2-7 .6-8 9.9-8.7 15.9-8.6 16.7.2 33.4-.3 50.1-.3 8 0 16.9-.8 24.8.4 5.2.8 10 5 8.8 10.7-1.5 7-8.8 6.8-14.5 6.8-11.8-.1-23.6 0-35.3 0zm-27 55.9c.3-.5 1-.6 1.6-.6 17.1-.3 34.2 0 51.3.3.3 0 .7 0 1 .2 2.3 1.2-3.9 5.9-4.8 6.7-4.6 3.7-9.9 6.9-15.8 8-12.4 2.4-26.1-2.9-33.2-13.5-.1-.2-.3-.4-.3-.6 0-.3.1-.4.2-.5z"/></svg>