<svg xmlns="http://www.w3.org/2000/svg" width="827" height="797" viewBox="0 0 827 797" fill="#fad9c2"><circle cx="153.016" cy="139.874" r="14.081"/><circle cx="189.628" cy="110.773" r="14.081"/><circle cx="227.178" cy="83.549" r="14.081"/><circle cx="271.299" cy="61.958" r="14.081"/><circle cx="319.175" cy="47.876" r="14.081"/><circle cx="365.174" cy="37.55" r="14.081"/><circle cx="412.112" cy="33.795" r="14.081"/><circle cx="461.866" cy="37.55" r="14.081"/><circle cx="507.865" cy="48.815" r="14.081"/><circle cx="552.925" cy="65.713" r="14.081"/><circle cx="596.107" cy="89.181" r="14.081"/><circle cx="634.596" cy="114.528" r="14.081"/><circle cx="670.269" cy="148.323" r="14.081"/><circle cx="701.37" cy="181.424" r="14.081"/><circle cx="728.471" cy="220.607" r="14.081"/><circle cx="749.124" cy="264.728" r="14.081"/><circle cx="760.389" cy="311.666" r="14.081"/><circle cx="773.531" cy="357.664" r="14.081"/><circle cx="776.347" cy="405.541" r="14.081"/><circle cx="769.776" cy="456.233" r="14.081"/><circle cx="757.572" cy="500.355" r="14.081"/><circle cx="743.491" cy="545.415" r="14.081"/><circle cx="717.206" cy="588.597" r="14.081"/><circle cx="690.921" cy="625.208" r="14.081"/><circle cx="659.942" cy="659.004" r="14.081"/><circle cx="623.331" cy="690.921" r="14.081"/><circle cx="581.087" cy="714.39" r="14.081"/><circle cx="536.027" cy="735.981" r="14.081"/><circle cx="492.845" cy="750.062" r="14.081"/><circle cx="448.723" cy="758.511" r="14.081"/><circle cx="398.969" cy="757.572" r="14.081"/><circle cx="359.542" cy="754.756" r="14.081"/><circle cx="309.788" cy="745.369" r="14.081"/><circle cx="266.605" cy="727.532" r="14.081"/><circle cx="220.607" cy="707.819" r="14.081"/><circle cx="181.179" cy="678.717" r="14.081"/><circle cx="146.445" cy="649.616" r="14.081"/><circle cx="115.466" cy="614.882" r="14.081"/><circle cx="90.12" cy="575.455" r="14.081"/><circle cx="65.713" cy="531.333" r="14.081"/><circle cx="50.693" cy="490.028" r="14.081"/><circle cx="44.121" cy="444.029" r="14.081"/><circle cx="41.305" cy="395.214" r="14.081"/><circle cx="44.121" cy="347.338" r="14.081"/><circle cx="51.631" cy="302.278" r="14.081"/><circle cx="71.345" cy="255.34" r="14.081"/><circle cx="93.875" cy="210.28" r="14.081"/><circle cx="121.099" cy="174.608" r="14.081"/></svg>