<svg xmlns="http://www.w3.org/2000/svg" viewBox="0 0 400 400"><path d="M122.7 172.2c0-.1-.1-.2-.2-.3-.7-.9-3-.6-4-.7-1.8-.1-3.6-.1-5.5 0-3.7.1-7.5.3-11.2.4-6.8.1-13.7.2-20.5.2-7.5 0-15.8-.5-21.9-5.6-.7-.6-1.3-1.2-1.9-1.8-4.5-4.9-7.4-10.3-7.6-17.1-.2-6.1.3-12.8 4.1-17.8 4.1-5.5 10.9-9.1 17.6-10.2 1.2-.2 2.5-.3 3.8-.3 22.5-.1 45-.1 67.5-.1 1.5-4.2 3.1-8.4 4.6-12.5 2-5.5 4-10.9 6-16.4 2.7-7.2 5.1-14.6 7.8-21.8 1.3-3.6 2.7-7.1 4.2-10.6 1.4-3.2 2.6-7 4.9-9.6 4-4.5 8.8-7.9 14.8-9 5.4-1 11.3-.6 16.4 1.6 3.5 1.5 6.6 4.4 9.1 7.2 5.1 5.8 7 13.4 5.9 21-.7 4.5-2.7 8.9-4.2 13.3-1.2 3.7-2.5 7.4-3.8 11.1-1.3 3.5-2.8 6.9-4 10.4-1.8 5-3.6 10.1-5.4 15.4h2.8c26.2 0 52.5-.1 78.7.1 8.9.1 15.6 4.6 20.1 12.2 2.5 4.2 3.9 8.8 3.8 13.7-.1 8-2.4 14.7-9 20.1-5.8 4.7-12.1 6.8-19.4 6.8-20.5 0-41.1.2-61.6 0-5.5 0-11 0-16.5-.1-5.2-.1-10.5-.5-15.7 0-3.2.3-3.4 2.7-4.3 5.2-7.1 19.1-13.4 38.5-21 57.4-2.8 7-5.6 14-8 21.2-2.2 6.5-4.9 13.3-9.6 18.5-10.5 11.5-29.9 9.8-38.9-2.6-2.9-4-4.9-8.4-5.3-13.5-.5-6.4 1.6-12.5 3.7-18.5 4.1-11.4 8.3-22.7 12.5-34 2.2-5.9 4.6-11.7 6.8-17.6 1.1-3 2.1-5.9 3-9 .5-1.8 1.3-3.4 1.5-5.3 0-.7.1-1.1-.1-1.4z"/><path d="M141.3 281.6c.3-.7.3-1.4.6-1.5 4-2.7 6.3-6.9 8.2-10.9 2.7-5.5 9.1-24.1 10.4-27.5 1.4-3.8 2.7-7.7 4.1-11.6.2-.5 1-1 1.6-1.2s105.9 0 157.9-.1c6.2 0 11.6 1.7 16.2 5.8s8.1 9.1 9.6 15.2c2.4 9.7-1.8 20.1-9.8 26-5.7 4.2-11.8 5.9-18.9 5.9-58.9-.1-117.7-.1-176.6-.1h-3.3zm156.1-109.9c17.6-17.6 17.3-34.9.8-52.8h2.5c21.8 0 43.5-.1 65.3 0 10.9.1 17.3 8.1 22.3 16.8 3.2 5.5 2.2 14-.2 19.7-2.6 5.9-7.4 10.5-12.9 13.7-2.7 1.6-6.3 1.8-9.4 2.1-10.1 1.1-20.3.7-30.4.5-11.3-.2-22.7-.1-34-.1-.5.1-3.6-.3-4 .1zM96.5 229c-.5-.1-3.1 8.5-3.3 9.2-3.5 10.9-5.4 21.9.6 32.4 2.2 3.8 5.5 6.9 7.8 10.6-.4.4-.9.4-1.5.4H33.5c-16.7-.1-27.1-19.1-22.8-34 .7-2.3 1.7-4.5 3-6.6 4.2-6.3 11.5-10.7 18.9-12 4.6-.9 63.2-.1 63.9 0zm165.3-115.9c.9-2.3 1.5-3.6 2.1-5.1 4.8-13.5 10-26.8 14.8-40.3 2-5.5 3.7-11 6-16.4 2.3-5.5 8.6-9.5 14-11.5 7.1-2.7 15-1.8 21.8 1.5 4.5 2.2 7.9 6.3 10.4 10.9 4.7 8.3 2.8 17.8-.1 26.4-3.6 10.4-7.7 20.6-10.9 31.1-.3.9-.7 1.8-1.5 2.4-1.2.9-2.6.6-4 .6-15.4 0-30.7.5-46.1.5-.7-.1-6.4-.5-6.5-.1zm-7.6 174.7s.1 0 0 0c.1.3 0 .5 0 .8-2.4 7.6-14.1 39.2-17.2 47.1-2.6 6.6-5.2 13.4-10 19-4.4 5.1-12.5 7-19.2 6.9-8.9-.2-16.9-5.2-21.4-12.8-4.4-7.5-3.9-15.1-1.5-23.2 3.8-12.5 8.5-25 13.6-37 .2-.5 1.1-1.1 1.7-1.1 7.4-.1 53.9.1 54 .3zm-117.1 0c-4.7 13.8-9.5 27.7-14.2 41.5-2.3 6.6-4.6 13.3-8.4 19.2s-9.4 10.9-16.1 12.6c-13.5 3.5-29.5-6.4-31.5-20.3-.7-4.6-.2-9.2.8-13.8 1.7-8.1 4.7-15.9 7.8-23.6 1.5-3.7 6-14.4 7.4-15.2 1.2-.8 37.5-.7 54.2-.4zm140.8-65c0 .1 0 .1 0 0-.3.5-5.9.1-6.6.1h-49.1c.4 0 2.3-6.4 2.5-7 .9-2.4 1.7-4.9 2.6-7.3 3.6-10 7.3-19.9 10.8-29.9.2-.5.4-1 .7-1.3.5-.4 1.2-.4 1.8-.4 17.9 0 35.8.1 53.7.1-.5 0-3.3 10-3.6 11.1-1.3 3.8-2.6 7.5-3.9 11.3-2.8 7.8-5.7 15.6-8.9 23.3z"/></svg>