<svg xmlns="http://www.w3.org/2000/svg" viewBox="0 0 500 500" height="500" width="500"><path d="M156.775 62.385c-2.928-.034-5.879.76-9.076 2.38-8.761 4.44-13.11 11.734-13.074 21.922.035 9.885 4.92 17.884 13.219 21.65 11.764 5.34 25.38-1.272 29.217-14.189 1.954-6.58 1.94-9.59-.07-15.511-2.22-6.537-5.51-10.526-11.268-13.66-3.112-1.694-6.02-2.558-8.948-2.592zm17.504 48.656l-.166.004-.187.002c-.064 0-.128 0-.192.002-.063.001-.126 0-.19.002-.066.001-.135.005-.202.008a15.38 15.38 0 0 0-.215.01l-.229.014-.236.017a10.321 10.321 0 0 0-.502.05c-.09.01-.18.022-.27.034a10.978 10.978 0 0 0-.54.084l-.274.047-.262.049-.265.049-.264.05-.105.022c-4.333 2.207-9.267 8.28-9.96 12.715-.376 2.41-.486 4.58-.243 4.822.592.592 6.825-1.994 10.648-4.9 1.702-1.294 4.16-2.192 5.791-2.192 2.595 0 6.196 3.1 7.588 5.477.012.007.026 0 .035.02l.002.001.004.012.008.01.008.016.01.013.01.02c.004.007.008.01.012.018l.012.023c.004.007.008.01.011.018l.014.023.014.021c0 .001 0 .011.002.012.003 0 .006-.002.01.002.003.003.007.01.01.012l.008.012.008.011.008.016.01.015.01.018.01.018.01.023.01.022.008.021c0 .001 0 .01.002.012l.006.011.006.014.004.004.01.012.006.012.008.011.015.024.016.023.014.023.013.026c.004.008.007.017.012.025.004.01.01.017.014.026l.004.011h.002v.002l.006.014.011.02.008.021c.001.001 0 .004.002.006.001.002.003.005.002.006a.07.07 0 0 0 .018.025c.008.008.013.01.014.026a.038.038 0 0 1-.002.012v.002s.003-.001.004.002c.002.003.002.009.004.011l.004.012c0 .003.002.008.004.01.004.007.002-.002.006.012 0 .004-.001.007.002.011 0 .001.003 0 .004.002l.006.014c.007.018 0 .01.008.02l.006.01.008.011.004.018c0 .002.003.004.004.006l.006.012.002.013v.002a.051.051 0 0 0 .004.01c0 .002 0 .006.002.008l.004.012.002.004v.006a.102.102 0 0 1 .008.012c.002.005.002.01.002.015l.004.012.011.033.012.03a1.46 1.46 0 0 1 .023.066l.01.033.012.033c.003.011.008.02.012.03.006.009.015.004.02.017l.003.01.004.012c.001.004.006.009.008.014l.004.015c.002.006.006.008.008.014s0 .014.002.02c.002.005.006.01.008.017l.008.021.008.02.006.018.004.008c.018.028-.01-.022.016.027 0 .004.003.008.004.012l-.004.002c.002.012.012.024.012.037v.021l.004.012.008.025c.002.01.006.017.008.026l.004.025v.002h.004c0 .005.003.013.004.018 0 .003 0 .009.002.011 0 .008 0 .014.002.022.173 1.241.325 3.185.382 4.164l.004.012.004.011v.012c.002.01.004.02.004.03v.013l.002.002-.002.002v.014a.081.081 0 0 1 .002.041v.069c-.002.008-.002.015-.006.021l-.008.012v.066c-.003.007-.003.013-.004.018l.004.049-.008.008v.105c0 .01-.005.018-.008.027 0 .002-.003.004-.004.006-.004.01 0 .006-.002.012-.002.005-.006.008-.008.014v.011l-.002.004v.002l-.004.012-.002.016c.001.007.002.011-.004.017-.007.004-.005.005-.008.008.007.004.001.016 0 .022v.011c-.003.005-.004.01-.008.014-.006.01-.005.013-.004.012v.012c0 .004-.003.008-.004.011 0 .003.001.01-.002.012-.002.006-.009.011-.011.018a.102.102 0 0 0-.008.011.174.174 0 0 0-.004.018l-.004.012a.06.06 0 0 1-.006.017c-.002.004-.001.008-.004.012-.001.002-.008.009-.008.012a.212.212 0 0 1-.008.019l-.004.014c0 .006-.007.01-.006.015v.01a.155.155 0 0 1-.008.012.032.032 0 0 1-.008.012l-.004.011a.043.043 0 0 1-.008.012l-.006.01c-.001.002-.002.01-.004.012-.001.002-.002.01-.004.012l-.004.008-.004.004-.014.023h-.004l-.004.006c0 .003-.001.009-.004.012l-.006.006v.002c-.003.007-.003.004-.004.011-.003.01-.001.004-.008.012l-.004.002v.006c-.005.009-.006 0-.008.01l-.012.02-.01.01c0 .002 0 .009-.002.011l-.01.022c0 .002 0 .01-.002.011-.004.007-.005.007-.011.012l-.002.012a.07.07 0 0 0-.008.012l.002.002c-.001.002 0 .01-.002.011a.042.042 0 0 1-.006.008v.012c-.002.007-.003.007-.008.012v.002c-.002.002-.004.01-.006.011l-.006.006-.004.008-.006.016c-.006.007-.01.017-.016.023l-.008.004c-.003.002-.004.01-.006.012 0 .002.001.01-.002.012-.002.002-.004.007-.006.008l-.002.004c-.004.011.007-.008-.004.01l-.002.011a.056.056 0 0 1-.006.012c-.001.002 0 .008-.002.01l-.004.008c-.006.011-.001.001-.004.012a.033.033 0 0 1-.014.014l-.004.006s0 .01-.002.011l-.002.004c0 .001 0 .005-.002.006-.005.01-.006.005-.013.014a.211.211 0 0 0-.012.016l-.01.011c-.001.002-.002.01-.004.012a.04.04 0 0 1-.01.008c.003.002-.016.02-.018.021-.015.02.007-.003-.011.016l-.016.016-.004.004c-.002.003-.003.008-.006.011-.011.013-.02.028-.03.041-.002.006-.011.01-.013.016v.004c0 .005-.002.006-.004.012-.005.007-.009.014-.016.021-.004.005-.01.01-.011.016-.001.004-.001.009-.004.011a.06.06 0 0 1-.016.012l.002.002a.04.04 0 0 1-.008.018c-.01.015-.004.003-.017.02-.003.002-.003.007-.006.01-.003.01-.012.014-.018.02a.42.42 0 0 1-.006.012l-.004.004v.012c0 .003 0 .009-.002.012a.06.06 0 0 1-.014.023c-.004.007-.01.01-.015.018-.002.003-.004.01-.006.011-.006.01-.014.017-.02.026l-.004.01-.004.011c-.004.011-.002.003-.008.012v.012c0 .002-.003.002-.004.004 0 .005.003.002-.002.011a.104.104 0 0 1-.031.04l-.014.013c-.002.003 0 .008-.002.012a.164.164 0 0 1-.008.014c-.004.007-.012.014-.017.021l-.004.012c-.054.1-.089.169-.164.305-1.377 2.473-7.688 6.426-12.264 9.636-4.436 2.26-9.215 4.5-9.719 4.567-.009-.014-.022-.02-.031-.034-.031.034-.016.044.031.038.117.195.192.478.22.898.07 1.196 1.725 8.421 2.663 15.5.938 7.079 1.331 13.237.875 13.684-.456.446-3.528.23-6.828-.483-3.3-.712-9.6-1.827-14-2.478-4.4-.652-10.316-1.677-13.145-2.276-8.558-1.811-7.781-2.263-31.615 18.416-7.439 6.454-15.599 13.75-18.133 16.213-4.433 4.308-4.457 8.256-3.845 10.72.013 11.502 8.09 17.32 16.738 11.97 2.628-1.626 22.592-18.602 31-26.36 3.28-3.026 7.236-3.52 14.806-1.853 2.307.508 7.569 1.462 11.694 2.119 4.125.657 7.804 1.372 8.176 1.59.372.217.25 1.85-.27 3.63-2.027 6.934-3.928 23.373-3.88 33.557.077 16.575 2.776 34.23 7.47 48.862 2.582 8.048 4.528 11.246 8.004 13.158 3.932 2.162 9.18 1.38 12.951-1.93 5.68-4.987 6.127-8.734 2.45-20.506-4.336-13.878-5.197-20.467-5.212-39.904-.011-15.189.271-18.096 2.649-27.29 1.463-5.659 2.662-10.436 2.662-10.616 0-.18 1.786-1.51 3.97-2.955 7.412-4.905 10-13.338 10.016-32.64.02-23.687-5.813-45.995-13.953-53.349-3.833-3.463-9.375-6.003-13.3-6.326zm-61.304 1.363v.168c-.647-.057-1.334.026-2.205.166-6.457 1.033-9.033 7.138-5.717 13.55 3.286 6.355 18.323 17.982 28.05 21.69 5.174 1.973 20.583 2.676 27 1.233 1.046-.202 1.705-.378 2.04.107l.002-.006c.131-.136.895-.59 2.513-1.469 3.386-1.335 14.567-8.184 16.565-10.125 1.017-.99 2.328-2.698 3.133-3.68 0-.001 0-.01.002-.011a.102.102 0 0 1 .011-.016c.002-.002.002-.007.004-.008v.006c.001-.008 0-.01.006-.015h.002c.004-.005.004-.013.01-.018l.006-.006c.008-.012-.004.004.008-.012v-.002l.002-.004.01-.011c.001-.002.002-.01.004-.01.002-.003.004-.01.008-.01.001-.001.002-.005.004-.006.002-.006.003-.013.008-.018.001-.002.002-.01.004-.012l.002.012v-.016a.068.068 0 0 1 .014-.029l.004-.012v-.015c0-.017.003-.014.012-.028.005-.003.008-.01.013-.011v.011l.014-.011c.016-.022-.001.002.012-.014.008-.009.014-.02.021-.03a.42.42 0 0 1 .014-.027l.002-.006.002-.01.004-.019a.09.09 0 0 1 .01-.016v-.002l.004-.011.006-.012.006-.012a.478.478 0 0 1 .004-.011c.001-.003 0-.01.002-.012.005-.01.005-.01.012-.018.005-.008.008-.018.016-.023 0-.001.002-.007.004-.008v-.012a.03.03 0 0 1 .008-.021h.002c-.002-.013.002-.02.01-.03l.006-.011c.002-.01-.001-.014.006-.022.002 0 .004-.01.006-.012l.002.012c0-.012-.002-.002.002-.015a.683.683 0 0 0 .002-.045c.027-.007.045-.06.054-.145l.002-.012v-.01c.047-.47-.091-1.768-.17-2.789v-.011c0-.007-.003-.014-.004-.022l-.006-.03c0-.008-.003-.018-.004-.026 0-.01-.003-.019-.004-.028 0-.009 0-.016-.002-.025 0-.01-.003-.019-.004-.028 0-.008 0-.017-.002-.025 0-.009-.003-.016-.004-.025 0-.01 0-.019-.002-.028v-.025c0-.008 0-.016-.002-.023 0-.008 0-.014-.002-.022 0-.007-.003-.014-.004-.021 0-.007 0-.013-.002-.02 0-.006 0-.011-.002-.018 0-.006 0-.01-.002-.017 0-.004 0-.008-.002-.012 0-.002 0-.01-.002-.012v-.006c0-.004 0-.008-.002-.011l-.006-.022-.01-.045-.01-.048-.01-.047-.011-.05-.01-.05-.01-.05-.01-.053-.01-.055a3.79 3.79 0 0 1-.012-.057l-.01-.056-.012-.057-.01-.059-.012-.056-.01-.059a4.046 4.046 0 0 1-.011-.058l-.012-.055-.01-.057-.012-.056-.01-.055-.011-.055a3.828 3.828 0 0 1-.012-.054l-.01-.051a2.878 2.878 0 0 1-.012-.05l-.011-.048a2.676 2.676 0 0 1-.012-.047l-.012-.045a2.472 2.472 0 0 1-.023-.088l-.012-.039-.012-.039-.011-.037-.012-.033a1.46 1.46 0 0 1-.012-.033l-.011-.03-.01-.027-.012-.025-.01-.026-.01-.023-.008-.02-.01-.019-.008-.02-.008-.017-.008-.018-.008-.013-.006-.014-.006-.01-.004-.012c-.002-.004-.005-.007-.006-.012v-.006l-.012-.019-.014-.02-.01-.017-.01-.016-.008-.013c0-.002-.003-.002-.004-.004l-.004-.008c-.942-1.257-2.417-2.963-2.826-3.23-1.31-.858-1.791-1.637-3.752-2.192-2.97-.558-3.591-.067-7.08 2.416-6.393 4.549-14.746 7.267-22.33 7.267-9.26 0-16.962-3.836-26.338-13.119-5.124-5.074-6.705-6.522-8.646-6.693zm221.822 2.91c-3.31 0-7.193 4.296-7.193 7.956 0 1.675.187 3.044.417 3.044 1.954 0 3.583-1.62 3.583-3.566 0-1.294 1.23-3.495 2.738-4.893 2.71-2.513 2.716-2.54.455-2.54zm7.775 3c-1.457 0-7.482 4.62-7.482 5.354 0 .377-.061-.039-1.986 1.943s-3.5 4.025-3.5 4.54c0 .533 2.703.717 6.312.427 9.746-.782 15.43 3.118 18.725 12.85 1.99 5.88 1.39 9.091-2.739 14.652-6.316 8.507-27.843 13.925-34.435 7.96-1.864-.513-2.017-1.06-3.92-2.726-.437-.382-1.94-1.998-3.022-4.44-1.46-3.304-1.797-5.548-1.31-8.75 1.04-6.851 5.374-14.685 10.62-19.204 5.134-4.42 5.767-5.606 2.999-5.606-5.665 0-15.136 12.406-17.252 22.598-1.35 6.506.046 12.688 3.752 16.608 2.485 2.628 2.51 2.78.838 5.332-.946 1.444-1.475 3.264-1.176 4.044.92 2.398 2.99 1.576 5.567-2.207 1.353-1.986 1.115-3.183 1.32-2.568.241.725 5.368 1.193 11.765 1.193 15.269 0 25.194-4.667 30.014-14.115 5.831-11.43-2.633-27.392-15.553-29.33-2.478-.372-5.187-.83-5.187-1.389 0-.558 1.996-2.634 3.603-4.242 1.608-1.607 2.53-2.924 2.047-2.924zm-3.547 17.979c-1.541-.005-3.838.86-5.123 2.271-2.312 2.539-3.316 6.092-3.316 7.686 0 .586-.082 1.964 1.018 3.064 2.322 2.323 2.651 2.366 6.855.9 3.204-1.116 4.685-3.959 3.945-7.57-.285-1.391-2.64-1.788-4.443-.673-2.468.993-2.725-.909-.918-2.233 1.068-.782 2.305-1.424 2.75-1.424.445 0 .81-.45.81-1 0-.702-.653-1.018-1.578-1.021zm-15.55 1.727a4.853 4.853 0 0 0-.81.01c-1.878.134-4.2 1.008-5.614 2.335-2.886 2.712-3.309 8.275-.89 11.727 2.088 2.983 5.967 2.877 7.995-.219 3.188-4.865-.122-9.846-3.98-5.988-2.075 2.075-2.597 1.61-1.488-1.32.577-1.527 1.674-2.25 3.414-2.25 2.403 0 4.456-2.378 3.166-3.668-.385-.385-1.023-.585-1.793-.627zm15.052 6.205l.016.27c.231.186.213.436.031.556l.03.517c.12 2.145-1.617 2.841-3.088 2.332-.889-.549-.958-1.202.027-2.46-.038-.167.06-.38.365-.516.052-.024.025-.01.08-.035l.03-.012c.075-.085.137-.16.22-.25l.676-.12.049-.02a4.438 4.438 0 0 1 .297-.126 1.653 1.653 0 0 1 .478-.093 1.256 1.256 0 0 1 .303.022c.018.002.036.007.055.01zm-66.845.43c-3.882.079-8.39 2.165-11.756 6.353-1.835.99-5.18 5.436-4.569 11.306.67 6.423 1.75 8.274 4.416 11.157 1.68 2.089 5.043 4.11 6.918 5.047 1.876.936 4.439 1.723 5.694 1.75 3.554.074 9.197-2.662 11.566-5.61 3.846-4.784 4.58-6.755 4.615-12.392.06-9.345-5.979-16.276-15.265-17.522a10.265 10.265 0 0 0-1.62-.09zm50.306 3.126c.563.01.698.449.408.65.004.017.008.032.01.051l.004.065.002.07a.894.894 0 0 1-.031.271 1.772 1.772 0 0 1-.04.126 2.32 2.32 0 0 1-.048.115c-.018.043-.04.085-.06.127l-.028.049c0 .017.002.035 0 .052a1.288 1.288 0 0 1-.154.47 2.076 2.076 0 0 1-.37.482 2.585 2.585 0 0 1-.11.095l-.016.028a7.997 7.997 0 0 1-.096.156 3.845 3.845 0 0 1-.217.297c-.04.048-.08.094-.124.138-.038.038-.075.077-.114.114a1.822 1.822 0 0 1-.404.291 2.402 2.402 0 0 1-.117.054 1.02 1.02 0 0 1-.14.051c-.043.012-.085.024-.128.031a1 1 0 0 1-.144.014.735.735 0 0 1-.643-.342.98.98 0 0 1-.09-.176 1.319 1.319 0 0 1-.056-.175 1.055 1.055 0 0 1-.03-.213c-.002-.066 0-.132.006-.197a1.432 1.432 0 0 1 .108-.436 2.003 2.003 0 0 1 .215-.39 3.236 3.236 0 0 1 .253-.339c.044-.052.088-.104.134-.154a7.371 7.371 0 0 1 .263-.277l.131-.131.125-.12.127-.12c.043-.039.085-.078.129-.116a3.49 3.49 0 0 1 .26-.197l.12-.086c.042-.028.084-.056.128-.082.041-.024.084-.047.127-.068.037-.02.073-.04.111-.057a1.38 1.38 0 0 1 .33-.105c.03-.005.06-.011.09-.014.027-.002.053-.002.08-.002zm13.907 8.533c-3.528 0-5.84.689-8.586 2.555-2.067 1.405-3.494 2.98-3.172 3.5.896 1.45 2.403 1.14 5.209-1.066 1.407-1.107 4.3-2.29 6.43-2.631 5.647-.903 5.721-2.358.119-2.358zm-271.407 1c-1.587 0-2.95 5.018-3.58 13.186-.331 4.298-.816 7.814-1.08 7.814-.263 0-3.728-1.792-7.7-3.984-3.97-2.192-7.513-3.693-7.872-3.334-1.285 1.285-.553 4.93 2.373 11.791 1.635 3.834 2.975 7.21 2.976 7.5.001.291-2.73.374-6.066.186-7.024-.396-10.935.36-10.935 2.113 0 .678 3.637 4.381 8.083 8.23l8.084 6.998-4.084 3.528c-5.699 4.922-5.505 7.46.667 8.746 6.865 1.43 9.857 1.406 11.103-.096 1.735-2.09-.66-3.678-5.555-3.678-2.365 0-4.298-.207-4.298-.462 0-.256 1.833-2.176 4.074-4.266l4.074-3.799-4.324-4.187c-2.379-2.303-5.45-5.093-6.824-6.202l-2.5-2.017 6.78-.033c4.83-.024 6.935-.43 7.313-1.416.292-.762-.852-4.433-2.54-8.159-1.69-3.725-2.9-6.945-2.692-7.154.209-.209 2.938 1.025 6.066 2.742 7.522 4.128 8.567 3.61 8.586-4.265.023-9.58 1.137-10.036 5.227-2.15 1.937 3.735 4.003 6.95 4.59 7.146.586.195 2.551-1.917 4.367-4.694 1.816-2.776 3.555-5.054 3.865-5.064.31-.01.673 2.118.807 4.73.281 5.508 1.513 7.346 3.492 5.207 1.084-1.171 1.15-3.17.332-10.207-1.27-10.937-2.76-11.423-8.166-2.664-2.066 3.348-4.102 5.71-4.526 5.25-.423-.46-2.663-4.548-4.976-9.086-2.313-4.537-4.626-8.25-5.14-8.25zm154.971 4.225c-.448.011-.91.075-1.383.193-3.845.966-5.031 4.524-3.607 10.83 2.03 8.996 9.095 14.752 18.101 14.752 2.218 0 4.034.172 4.034.38 0 .387-2.182 5.79-4.49 11.12-1.628 3.76-3.81 10.82-6.333 20.5-3.986 15.295-7.381 37.072-6.16 65.293l.668 15.418 1.143 5.608 2.043 3.556c5.026 3.513 8.32 1.558 11.205-.796 2.476-2.476 2.932-3.738 2.982-8.25.16-14.477.978-39.126 1.512-45.579.556-6.728.765-7.25 2.902-7.25 1.875 0 2.43.698 2.979 3.75 2.765 15.38 17.113 52.421 22.466 58 4.963 5.172 15.083.594 15.083-6.822 0-1.774-2.3-8.22-5.112-14.326-8.937-19.41-15.087-40.256-15.22-51.602-.067-5.637.554-9.362 2.498-15 2.582-7.49 5.9-16.171 6.447-16.869.16-.203 2.205 1.271 4.545 3.274s6.472 4.3 9.183 5.105c4.527 1.344 5.273 1.312 9.118-.388 2.303-1.02 5.62-3.376 7.373-5.237 3.732-3.964 8.628-16.09 9.593-23.763.594-4.719.403-5.673-1.549-7.75-4.567-4.863-8.725-1.857-11.24 8.128-2.257 8.964-5.262 15.247-7.654 16.006-2.894.919-7.312-1.899-12.502-7.974-2.594-3.037-9.502-9.117-15.35-13.51-8.775-6.593-11.275-7.99-14.322-8.004-2.03-.009-7.049 1.987-7.361 2.492-1.998.79-6.521 1.357-10.235.772-2.912-.46-3.422-1.032-4.494-5.037-1.225-4.583-3.725-7.098-6.863-7.02z"/></svg>