<svg fill="#ed7d31" id="Sertificat" xmlns="http://www.w3.org/2000/svg" viewBox="0 0 400 400"><style>.st0{fill:none;stroke:#ed7d31;stroke-width:10;stroke-miterlimit:10}</style><circle class="st0" cx="200" cy="200" r="132"/><path d="M200.6 111.2c8.3 30.8 16.6 61.6 25.1 92.8 22-8.4 43.5-16.6 64.9-24.8.5.7.4.6.9 1.3L200 288.8c-31.1-36.8-61.7-73.7-92.5-110.1 0-.1 0-.1.1-.1 21.9 8.4 43.9 16.7 66.6 25.4 8.4-31.2 16.7-62 25.1-92.8h1.3zm84.8 74.6c-1.7.5-55.3 39.1-81.6 58.4-1.8 1.3-3.2 4.3-3.3 6.5-.3 10-.2 20-.1 30 0 1.2 0 3 .2 5.5 28.4-33.5 56.5-66.8 84.8-100.4zm-84.7 56.7c1.4-1.6 2.2-2.3 2.7-3.2 6.4-10.3 12.8-20.6 18.9-31.1 1.2-2 1.6-5.1 1.1-7.3-6.8-26-13.8-51.9-20.8-77.8-.3-1-1-2-1.9-3.8v123.2zm-86.1-59.8c-.2.3 54.4 40 80.5 59-2-5.5-4.8-10.2-7.7-14.8-4.3-6.9-7.3-15.3-13.3-20.3-5.9-5-14.7-6.5-22.2-9.6-.2-.1-.3-.2-.4-.2-11.4-4.4-25.5-9.8-36.9-14.1z"/></svg>