<svg width="500" height="500" viewBox="0 0 500 500" xmlns="http://www.w3.org/2000/svg"><path d="M245.45 421.07c0-.55.477-1 1.059-1s.78.45.441 1-.817 1-1.059 1-.441-.45-.441-1zm-31.393-27c-2.204-.816-11.561-9.404-11.585-10.633-.025-1.25 3.517-2.494 4.449-1.562.778.778 2.456 1.098 12.529 2.39 9.022 1.156 13 3.33 13 7.102 0 1.516.297 1.701 1.342.834.738-.612 1.638-.817 2-.455 1.531 1.53.365 2.038-4.342 1.889-2.75-.087-5 .174-5 .58 0 .798-10.17.679-12.393-.145zm-15.583-1.115c-1.896-.756-2.155-1.186-1.104-1.835.754-.467 1.095-1.569.757-2.449-.949-2.473-2.677-1.892-2.677.9 0 2.597-.92 3.163-2.55 1.572-.523-.51-3.425-1.191-6.45-1.514-10.861-1.157-12.2-1.63-13.364-4.713-.677-1.792-1.606-2.688-2.454-2.362-1.725.662-8.195-2.356-8.88-4.142-.683-1.778-4.434-1.71-6.86.126-2.925 2.212-5.147 1.844-5.853-.968-.345-1.375-1.264-2.5-2.043-2.5-.779 0-2.682-.522-4.23-1.16-1.55-.639-3.38-1.069-4.067-.956s-1.773-.94-2.41-2.34c-.638-1.4-1.933-2.544-2.877-2.544s-2.263-.658-2.93-1.461-2.086-1.739-3.154-2.078c-4.05-1.285-6.643-4.757-6.132-8.211.288-1.944.05-3.25-.59-3.25-1.868 0-6.137-8.358-5.504-10.777.344-1.317.126-2.223-.535-2.223-.615 0-1.117.48-1.117 1.068 0 .612-.853.797-2 .432s-2-.18-2 .433c0 .587.477 1.067 1.059 1.067s.782.449.443.997c-1.038 1.68-5.953-1.563-10.376-6.846-2.27-2.71-4.161-5.54-4.205-6.29-.043-.748-1.37-3.386-2.95-5.86-1.58-2.476-4.458-7.2-6.396-10.5-3.323-5.657-3.408-6.02-1.492-6.328 2.536-.408 1.892-2.735-.693-2.503-1.227.11-2.822-1.292-4.548-4-3.4-5.332-7.831-15.347-7.11-16.068.304-.304.102-1.126-.449-1.827-.55-.701-1.258-2.624-1.572-4.274s-.906-3.866-1.315-4.924c-.613-1.587-.407-1.81 1.18-1.27 1.55.525 1.487.341-.326-.95-1.238-.88-2.25-2.39-2.25-3.356s-.63-2.279-1.402-2.919c-.771-.64-1.68-2.27-2.019-3.622s-1.284-2.46-2.098-2.46-1.481-.674-1.481-1.5.52-1.5 1.155-1.5c.675 0 .44-.789-.565-1.9-1.126-1.244-1.352-2.128-.655-2.559.586-.362 1.065-2.557 1.065-4.878 0-3.073-.544-4.613-2-5.662-2.396-1.727-2.657-3.466-.389-2.596 1.18.453 1.448.191 1-.975-.336-.876-.611-1.797-.611-2.046s-.9.028-2 .617c-1.563.836-2 .76-2-.348 0-.78.9-1.654 2-1.942 1.366-.357 2-1.364 2-3.175 0-1.46-.403-2.404-.896-2.1s-2.144-.093-3.67-.885c-2.013-1.044-3.299-1.158-4.69-.413-1.053.564-2.166.774-2.472.468-.989-.988 1.827-3.504 3.293-2.942.78.3 1.694-.175 2.031-1.054.338-.878 1.029-1.34 1.537-1.027 1.282.793 4.793-3.645 4.834-6.11.018-1.115-.867-2.798-1.967-3.74-2.45-2.097-2.483-2.813-.25-5.32 2.17-2.437 4.716-7.648 6.311-12.912.667-2.2 2.353-6.25 3.748-9s2.657-6.873 2.804-9.162c.18-2.802 1.921-7.094 5.328-13.137 2.782-4.936 5.07-9.363 5.081-9.838.013-.475.903-1.988 1.978-3.363s1.966-3.287 1.978-4.25c.012-.962.46-1.75.996-1.75s1.722-1.462 2.636-3.25 2.275-3.61 3.026-4.05 1.364-1.223 1.364-1.741 1.557-3.083 3.459-5.7c3.367-4.633 4.682-6.33 10.043-12.955 1.422-1.758 3.499-3.487 4.614-3.84 1.206-.383 1.81-1.213 1.49-2.046-.335-.875.667-2.025 2.67-3.06 1.763-.912 5.01-3.69 7.215-6.174 10.3-11.602 14.136-14.65 16.556-13.154.766.473 2.416-.051 4.116-1.308 3.013-2.228 3.847-4.323 1.337-3.36-.825.317-1.5.14-1.5-.393 0-1.72 3.87-4.9 6.725-5.526 1.526-.335 3.45-.868 4.275-1.185s1.851-.499 2.28-.406c.43.093 2.142-.535 3.806-1.396 1.664-.86 4.292-1.725 5.84-1.92 1.549-.197 3.661-.818 4.695-1.382 4.537-2.474 8.146-3.805 9.701-3.576.923.135 1.678-.106 1.678-.537 0-.84 6.785-1.93 16.5-2.654 3.3-.246 8.364-.869 11.255-1.384 2.89-.515 5.933-.676 6.763-.357s2.065.138 2.745-.4c.68-.539 4.143-1.23 7.695-1.536 4.554-.393 6.84-1.078 7.75-2.325.74-1.012 1.292-1.238 1.292-.53 0 .85 1.236 1.094 3.954.782 2.658-.305 4.34.011 5.132.967.894 1.077 1.51 1.146 2.547.287 1.061-.88 1.367-.772 1.367.487 0 1.222.972 1.623 3.935 1.623 2.164 0 5.202.486 6.75 1.08 1.549.595 5.017 1.268 7.709 1.497 2.691.228 5.391.808 6 1.289.608.48 2.75 1.169 4.758 1.53 2.008.362 5.68 1.736 8.16 3.054 2.479 1.319 4.704 2.2 4.944 1.96.734-.733 11.744 4.495 11.744 5.577 0 .557 1.283 1.013 2.85 1.013 1.58 0 4.696 1.337 6.992 3 2.277 1.65 4.482 3.012 4.9 3.027.417.016 2.07 1.366 3.675 3 1.604 1.635 3.404 2.98 4 2.989.596.009 2.658 1.404 4.583 3.102s4.686 3.7 6.136 4.45c2.684 1.39 10.864 10.058 10.864 11.513 0 .44-.45 1.079-1 1.418-1.512.935-1.199 2.5.5 2.5.825 0 1.5-.501 1.5-1.115 0-2.78 16.238 12.138 17.483 16.062.358 1.13 1.04 2.054 1.517 2.054s1.153.908 1.506 2.018c.352 1.11 1.974 3.473 3.604 5.25 1.63 1.778 3.244 4.357 3.588 5.732s1.398 3.05 2.344 3.723c.945.673 2.444 3.034 3.33 5.247.885 2.213 3.188 6.27 5.118 9.017 3.599 5.12 4.274 7.013 2.501 7.013-.647 0-.676.627-.08 1.75 1.57 2.96 4.83 13.457 5.979 19.25 1.776 8.96 3.444 20.301 3.42 23.25-.013 1.512.273 2.75.636 2.75.838 0-.306 10.693-1.245 11.632-.386.386-.701-.049-.701-.966 0-1.944-1.627-2.241-2.282-.416-.95 2.652 1.169 4.618 4.528 4.202 1.79-.222 2.804-.077 2.254.322s-1.675 1.598-2.5 2.663c-1.364 1.761-1.341 1.878.25 1.281.962-.36 1.75-.257 1.75.23s-.563 1.086-1.25 1.331c-.688.246-.915.806-.506 1.244s1.57.05 2.578-.863c2.28-2.063 3.294-2.128 2.54-.16-.317.825-1.133 1.5-1.814 1.5-2.589 0-4.324 3.85-6.384 14.164-2.32 11.614-4.779 16.884-8.717 18.678-3.424 1.56-3.45 1.548-3.432-1.592.02-3.465.895-4.796 3.735-5.683 2.788-.87 2.954-2.567.25-2.567-2.203 0-2.244-.287-1.064-7.48.668-4.075.52-5.212-.81-6.253-1.469-1.149-1.47-1.218-.02-.718 1.906.658 2.894-4.698 2.894-15.689 0-5.431-.313-6.86-1.5-6.86-.825 0-1.5-.45-1.5-1s.723-1 1.607-1c1.054 0 1.398-.544 1-1.582-.334-.87-.607-4.02-.607-7 0-4.15-.351-5.418-1.5-5.418-.825 0-1.5-.436-1.5-.969 0-.532.753-.68 1.673-.326 1.335.512 1.52.252.917-1.281-.416-1.058-1.147-3.95-1.624-6.424-1.634-8.481-2.118-10.503-2.994-12.5-.483-1.1-1.319-3.575-1.857-5.5-1.478-5.278-8.716-22.591-10.524-25.175-.875-1.249-1.59-2.986-1.59-3.86 0-.876-1.35-2.885-3-4.465s-3-3.41-3-4.065c0-.655-.676-1.75-1.5-2.435s-1.5-1.626-1.5-2.092.674-.587 1.5-.27c1.723.661 1.92-.463.465-2.639-.878-1.312-1.17-1.283-2.334.235-1.468 1.916-2.632 1.355-2.632-1.268 0-.936-2.475-4.236-5.5-7.334-3.025-3.099-5.5-6.309-5.5-7.133s-.59-1.5-1.313-1.5-2.562-1.304-4.09-2.898c-2.31-2.412-2.593-3.24-1.686-4.934 1.646-3.076 1.328-3.554-1.243-1.87-2.907 1.905-5.136.754-4.207-2.173.375-1.183.238-2.124-.31-2.124-.541 0-1.166.546-1.389 1.213-.249.748-3.044-.764-7.283-3.938-3.784-2.834-8.027-5.742-9.43-6.464-1.401-.721-3.097-1.986-3.767-2.811-.67-.825-1.232-1.136-1.25-.692s-2.844-.608-6.282-2.34c-8-4.03-11.678-5.669-14.572-6.49-1.425-.404-2.118-1.191-1.793-2.037.29-.757.095-1.645-.435-1.973-.53-.327-1.229.096-1.553.941-.52 1.356-.991 1.37-3.993.115-1.872-.782-3.403-1.224-3.403-.981 0 .4-5.47-1.459-10.5-3.568-3.808-1.597-7.652-2.086-26.657-3.389-4.212-.288-8.037-.592-8.5-.674-.464-.082-1.068-.083-1.343 0-1.384.409-15.148 1.177-19.665 1.097-2.841-.05-5.455.377-5.81.95-.353.572-1.944 1.041-3.535 1.041-1.59 0-5.502.722-8.691 1.604-3.19.882-7.711 2.083-10.049 2.668s-4.25 1.44-4.25 1.897c0 .457-1.35.831-3 .831s-3 .502-3 1.115c0 .685-.951.492-2.465-.5-3.182-2.085-3.803-2.036-3.08.244 1.143 3.6-5.446 6.364-8.527 3.576-1.554-1.407-1.928-1.463-1.928-.29 0 .8.502 1.957 1.115 2.57.82.82.304 1.534-1.95 2.7-1.686.872-3.766 1.585-4.622 1.585s-2.534 1.125-3.73 2.5c-2.525 2.904-4.026 3.231-3.607.786.17-.986-.449-1.866-1.456-2.073-1.22-.25-1.75.269-1.75 1.714 0 1.14.529 2.073 1.174 2.073.646 0 .118 1.125-1.174 2.5s-2.811 2.5-3.377 2.5c-.565 0-2.54 1.463-4.39 3.25-3.04 2.94-3.456 3.083-4.347 1.5-1.666-2.96-3.025-2.01-2.341 1.636.739 3.94-.57 5.24-3.459 3.436-2.57-1.605-3.869-.305-2.263 2.266 1.12 1.792.593 2.653-5.16 8.434-6.016 6.046-8.737 9.326-11.202 13.503-.572.969-1.554 2.382-2.184 3.141-1.09 1.313-2.545 3.906-10.568 18.834-1.922 3.575-4.53 9.425-5.796 13s-2.596 6.725-2.956 7c-.36.275-.657 1.175-.659 2-.002.825-.935 5.325-2.075 10-1.14 4.675-2.332 10.525-2.65 13-.597 4.65-1.864 25.347-1.713 28 .895 15.804 2.283 26.481 4.214 32.415 1.06 3.253 1.926 6.94 1.926 8.193 0 1.252.903 3.81 2.008 5.681 1.105 1.873 2.677 5.657 3.495 8.411.818 2.754 2.614 6.667 3.992 8.698 1.377 2.03 2.505 4.245 2.505 4.924 0 .678.674 2.196 1.5 3.374.824 1.178 1.226 2.853.892 3.722-.333.87-.108 1.582.5 1.582.61 0 1.108.497 1.108 1.106s1.154 2.014 2.566 3.124c1.411 1.11 3.719 3.875 5.128 6.144 5.06 8.15 29.274 31.656 35.806 34.761 3.09 1.469 5.716 3.126 9.515 6.005 3.055 2.314 6.61 4.154 15.231 7.881 1.24.536 2.928 1.393 3.753 1.906 3.12 1.937 10.696 5.073 12.257 5.073.894 0 1.882.415 2.196.923.314.508 1.859 1.206 3.434 1.552 1.574.346 3.897 1.73 5.162 3.077 2.56 2.725 5.505 3.333 4.59.948-.317-.825-.14-1.5.393-1.5s.969 1.344.969 2.987c0 2.42.615 3.247 3.25 4.362 1.787.756 4.107 2.337 5.155 3.513l1.905 2.138-4.405-.063c-2.423-.035-5.52-.508-6.881-1.052zm-16.024-9.885c0-.55-.45-1-1-1s-1 .45-1 1 .45 1 1 1 1-.45 1-1zm-3-1c0-.55-.45-1-1-1s-1 .45-1 1 .45 1 1 1 1-.45 1-1zm-5.231-2.806c.465-1.396-4.464-3.5-5.989-2.558-.633.391-.103 1.38 1.334 2.483 2.549 1.958 4.02 1.982 4.655.075zm-9.35-2.801c2.208-.848 1.976-2.393-.36-2.393-2.087 0-3.408 1.318-2.365 2.36.782.782.772.782 2.724.033zm-27.086-12.82c.605-1.575-1.378-6.553-2.615-6.566-.43-.004-1.072.78-1.427 1.743s-1.1 2.053-1.654 2.424c-1.409.94 1.139 3.826 3.378 3.826.974 0 2.017-.642 2.318-1.427zM94.45 308.07c0-.55-.198-1-.44-1s-.72.45-1.06 1-.141 1 .441 1 1.06-.45 1.06-1zm-19.015-42.75c-.008-.412-.434-1.412-.945-2.221-1.153-1.822-2.504-.682-1.694 1.428.598 1.559 2.667 2.18 2.64.793zm-1.985-14.25c0-.55-.45-1-1-1s-1 .45-1 1 .45 1 1 1 1-.45 1-1zm323 0c0-.55-.423-1-.94-1s-1.22.45-1.56 1 .084 1 .941 1c.858 0 1.56-.45 1.56-1zm-1-6.893c0-1.87-2.276-3.497-3.367-2.407-.768.769 1.205 4.3 2.403 4.3.53 0 .965-.852.965-1.893zm-2-13.607c0-.825-.423-1.5-.94-1.5-1.261 0-2.165 1.562-1.366 2.36 1.127 1.127 2.307.686 2.307-.86zm-324.58-8.351c-.043-1.182.52-2.149 1.25-2.149.752 0 1.33-1.087 1.33-2.5 0-1.833-.533-2.5-2-2.5-1.1 0-2 .45-2 1s-.675 1-1.5 1c-1.908 0-1.944 2.387-.06 3.95.793.658 1.171 1.9.841 2.76-.405 1.056-.143 1.405.81 1.075.775-.268 1.373-1.454 1.33-2.636zm325.58-.149c0-.55-.675-1-1.5-1s-1.5.45-1.5 1 .675 1 1.5 1 1.5-.45 1.5-1zm-1.37-5.25c-.33-1.237-.608-2.587-.616-3-.008-.412-.463-.75-1.013-.75-1.113 0-1.38 4.287-.334 5.333 1.438 1.438 2.536.553 1.964-1.583zM77.45 188.07c0-1.1-.45-2-1-2s-1-.45-1-1 .624-1 1.386-1c1.425 0 4.615-4.123 4.615-5.965 0-.57-.45-1.035-1-1.035-1.534 0-5-3.813-5-5.5 0-2.076-1.76-1.888-2.345.25-.263.963-.533 4.571-.598 8.02-.089 4.67.255 6.413 1.349 6.832.807.31 1.223 1.201.924 1.98-.33.861.087 1.418 1.063 1.418.94 0 1.607-.83 1.607-2zm-2-9c0-1.17.667-2 1.608-2 1.054 0 1.398.544 1 1.582-.334.87-.607 1.77-.607 2 0 .23-.45.418-1 .418s-1-.9-1-2zm315.82 3.333c-.486-2.509-2.823-2.853-2.823-.416 0 1.228.646 2.083 1.574 2.083.931 0 1.441-.68 1.25-1.667zm-5.823-5.916c0-.871-.534-1.405-1.187-1.188-1.854.618-2.162 2.771-.396 2.771.871 0 1.583-.712 1.583-1.583zm-3.638-11.917c.767-1.998-.263-4.5-1.852-4.5-1.742 0-2.738 4.235-1.222 5.199 1.775 1.127 2.43.978 3.074-.7zm-6.362-14.5c0-1.1-.209-2-.464-2s-.947.9-1.536 2c-.854 1.596-.76 2 .465 2 .869 0 1.535-.869 1.535-2zm-268-22c0-.55-.45-1-1-1s-1 .45-1 1 .45 1 1 1 1-.45 1-1zm248-4.975c0-1.423-5.866-4.226-7.165-3.423-.71.439-.252 1.34 1.28 2.519 2.572 1.977 5.886 2.487 5.886.904zm-244-3.025c0-.55-.45-1-1-1s-1 .45-1 1 .45 1 1 1 1-.45 1-1zm205.9-28.437c-.266-.267-1.486-.222-2.711.098-1.799.47-2 .857-1.042 2.01 1.023 1.234 1.393 1.22 2.711-.098.84-.84 1.309-1.744 1.043-2.01zm-163.92-5.989c-1.345-1.345-2.345.018-1.544 2.104.574 1.497.814 1.543 1.582.302.545-.883.53-1.838-.038-2.406zm151.92-.196c-1.522-1.835-2.834-.847-2.183 1.643.418 1.596.82 1.778 1.919.867 1.046-.868 1.111-1.49.264-2.51zm-125.54-8.404c.475-.44.571-1.273.215-1.85-.892-1.443-5.577.744-5.577 2.603 0 1.444 3.53.948 5.362-.753zm103.64 1.216c0-1.314-2.788-4.735-3.378-4.145-.999.998.595 4.954 1.995 4.954.76 0 1.383-.364 1.383-.809zm-96-3.19c0-.55-.476-1-1.059-1s-.78.45-.44 1 .816 1 1.059 1 .44-.45.44-1zm76-2.56c0-.792-.45-1.44-1-1.44s-1 .926-1 2.058.45 1.781 1 1.441c.55-.34 1-1.266 1-2.059zm12.505 1.552c1.012-1.637-1.843-3.709-4.954-3.597-3.261.118-4.877 2.604-1.693 2.604 1.114 0 2.303.45 2.643 1 .799 1.293 3.204 1.289 4.004-.008zm-57.505-3.6c0-1.815-2.626-1.807-3.324.01-.296.77-.3 1.64-.009 1.93.919.919 3.333-.487 3.333-1.94zm-9-.393c0-.55-.45-1-1-1s-1 .45-1 1 .45 1 1 1 1-.45 1-1zm22-.5c0-.825-.45-1.5-1-1.5s-1 .675-1 1.5.45 1.5 1 1.5 1-.675 1-1.5zm6-.5c0-.55-.45-1-1-1s-1 .45-1 1 .45 1 1 1 1-.45 1-1zM247.903 68c-.742-1.201-3.457-1.213-3.457-.014 0 1.084 2.17 2 3.266 1.38.422-.24.508-.854.191-1.366zm-8.233 324.27c-1.671-1.286-1.98-2.047-1.163-2.865.804-.803.809-1.301.02-1.79-.603-.371-1.352-.006-1.666.812-.495 1.29-.824 1.27-2.492-.16-2.366-2.025-2.583-3.981-.23-2.073 1.055.857 1.417.916.962.158-.526-.877.463-1.214 3.558-1.214 2.358 0 6.862-.39 10.008-.865 3.857-.582 6.098-.512 6.875.215.83.776 1.283.728 1.612-.172.252-.687 1.557-1.25 2.9-1.25s5.003-.9 8.132-2c3.13-1.1 6.682-2 7.893-2s4.377-1.087 7.035-2.416 6.488-2.723 8.513-3.098c2.024-.375 3.934-1.342 4.243-2.147.309-.806.993-1.199 1.52-.873 1.098.678 17.056-7.416 17.056-8.651 0-.448.67-.815 1.491-.815s2.054-.9 2.74-2 1.893-2 2.68-2c.787 0 2.176-.674 3.087-1.498 1.485-1.344 1.89-1.25 3.935.928 1.254 1.334 2.907 2.185 3.673 1.891 2.489-.955 1.47 1.584-1.356 3.382-1.513.962-3.11 2.323-3.55 3.023-.44.701-1.298 1.274-1.906 1.274-.608 0-2.498 1.04-4.2 2.312-1.702 1.27-4.524 2.887-6.272 3.591-1.748.704-3.955 2.139-4.905 3.189-.95 1.05-2.535 1.908-3.523 1.908-.987 0-2.155.6-2.595 1.334s-3.612 1.92-7.05 2.637-6.25 1.691-6.25 2.166c0 .475-1.147.863-2.55.863s-3.764.615-5.25 1.367c-2.509 1.27-8.383 2.774-12.431 3.183-.953.097-2.42.746-3.26 1.443-.953.792-3.027 1.067-5.518.733-2.194-.294-3.99-.217-3.99.172s-2.363 1.201-5.25 1.805c-4.814 1.006-5.447.919-7.624-1.053l-2.375-2.15.692 2.25c.826 2.689-.139 2.825-3.22.454zm14.761-3.454c-.026-2.11-1.7-4.044-2.873-3.319-1.495.924-1.411 3.282.138 3.907 2.11.852 2.751.714 2.735-.588zm42.015-10.719c0-.532.675-.71 1.5-.393.825.317 1.5.078 1.5-.531s.649-1.107 1.441-1.107c1.792 0 2.918-1.66 1.656-2.44-.514-.318-1.555.041-2.313.799-.757.757-2.369 1.692-3.58 2.076-2.208.701-3.083 2.565-1.204 2.565.55 0 1-.436 1-.969zm-96 1.028c0-.518.445-1.216.989-1.552.567-.35.734.051.393.941-.665 1.732-1.382 2.05-1.382.611zm19.686-2.706c-.163-.164-3.872-.739-8.242-1.278-4.369-.539-11.094-1.892-14.944-3.007s-9.025-2.558-11.5-3.207c-5.38-1.41-18.54-7.435-21.885-10.019-1.311-1.013-3.169-1.842-4.127-1.842-.959 0-2.279-.645-2.934-1.434-.654-.79-2.908-2.33-5.007-3.424-2.1-1.095-7.738-5.737-12.528-10.315s-9.23-8.506-9.865-8.726c-1.935-.67-2.702-2.48-2.112-4.98.467-1.978.236-2.295-1.363-1.877-1.906.498-3.13-.642-10.995-10.243-3.456-4.22-10.64-16.525-11.675-20-.41-1.375-1.372-3.217-2.139-4.093-2.18-2.49-6.267-13.573-8.447-22.907-1.092-4.675-2.702-10.397-3.577-12.716-.875-2.319-1.39-5.27-1.144-6.557.246-1.287-.07-5.936-.701-10.33-1.236-8.592-.947-27.001.5-31.897.488-1.65 1.203-5.693 1.588-8.984.386-3.292 2.248-10.266 4.139-15.5 1.89-5.234 3.672-10.416 3.96-11.516s1.825-4.627 3.417-7.836c1.593-3.21 2.896-6.367 2.896-7.015s2.362-4.095 5.25-7.659c2.887-3.564 5.925-7.678 6.75-9.142 1.79-3.177 15.358-17.848 16.506-17.848.441 0 2.357-1.817 4.258-4.037 3.088-3.607 10.677-9.118 19.987-14.512 1.787-1.035 3.25-2.236 3.25-2.667 0-.432.527-.784 1.172-.784s5.775-2.288 11.4-5.083c5.625-2.796 11.735-5.468 13.578-5.94 1.842-.47 7.625-2.013 12.85-3.428 6.499-1.76 12.975-2.71 20.5-3.009 6.05-.24 11.225-.514 11.5-.607.275-.094.75-.146 1.057-.116.306.03 4.58.3 9.5.602 9.238.566 11.118.922 30.392 5.756 9.377 2.352 22.052 7.145 22.052 8.339 0 .153-3.938.263-8.75.244-6.463-.026-11.492-.788-19.238-2.915-5.769-1.584-12.216-3.097-14.33-3.362-5.848-.735-9.11-1.678-9.878-2.857-1.162-1.781-2.015.047-.947 2.028.548 1.016 1.26 2.685 1.58 3.71.46 1.46 1.282 1.756 3.824 1.371 2.7-.408 3.689.03 5.948 2.638 1.99 2.298 2.72 2.683 2.75 1.45.022-.923-.667-2.386-1.531-3.25-1.429-1.429-1.383-1.572.5-1.572 1.964 0 2.514 1.363 2.334 5.784-.034.853.669 1.067 2.093.638 1.69-.51 1.894-.382.96.6-.917.965-.835 1.782.359 3.605.85 1.296 1.914 2.128 2.366 1.848 1.753-1.083 1.89 1.462.145 2.707-1.016.725-3.342 3.03-5.167 5.122l-3.32 3.804 3.807 3.898c3.09 3.165 4.153 3.712 5.65 2.91 1.42-.759 1.844-.633 1.844.55 0 .844-.55 1.534-1.223 1.534s1.802 3.05 5.5 6.775c7.196 7.252 8.384 9.68 4.223 8.636-1.652-.415-2.5-.21-2.5.603 0 .947-.326.96-1.41.06-.91-.755-1.63-.816-2.029-.172-.797 1.29 2.595 3.098 5.815 3.098 1.378 0 2.815.5 3.192 1.11.398.644 2.076.885 3.993.574 2.723-.442 3.586-.108 4.896 1.89.874 1.335 2.442 2.426 3.485 2.426 3.21 0 4.964 1.082 4.35 2.681-.375.979.935 2.822 3.7 5.202 4.788 4.124 4.866 5.858.457 10.13-1.412 1.368-4.41 4.4-6.662 6.738s-4.545 4.25-5.097 4.25-8.346-7.425-17.324-16.5c-10.4-10.514-17.055-16.5-18.344-16.5-1.136 0-2.022-.661-2.022-1.509 0-1.246-.34-1.296-1.954-.288-1.075.672-2.3.876-2.721.454-.422-.421-.154-1.145.595-1.608 1.058-.654.653-1.534-1.814-3.945-3.184-3.113-6.106-4.069-6.106-1.997 0 .62-.73.827-1.663.468-1.041-.4-2.629.273-4.25 1.801l-2.587 2.439-6.92-6.31-6.919-6.31 2.92-2.513c3.12-2.685 2.635-4.923-.626-2.886-1.075.671-1.955.822-1.955.334 0-1.23 2.56-3.238 3.25-2.548.736.737 6.75-2.374 6.75-3.492 0-.471.9-1.093 2-1.38s2-1.289 2-2.224c0-1.1.53-1.498 1.5-1.125.825.317 1.502.252 1.505-.143.006-.997 10.873-12.363 14.329-14.987 3.151-2.393 2.792-4.232-.826-4.232-1.495 0-2.608.74-3.008 2-.35 1.1-.979 2-1.399 2-1.134 0-3.534-4.876-3.57-7.254-.017-1.139-.633-2.273-1.367-2.52-.955-.321-1.24.369-1 2.412.372 3.166.87 3.01-10.664 3.357-3.3.1-7.35.57-9 1.046-4.498 1.297-14.756 1.608-15.144.46-.573-1.692 3.81-3.012 11.144-3.359 3.85-.182 7.154-.75 7.342-1.264.189-.513 1.881-.645 3.761-.292 3.236.607 6.397-.678 6.397-2.601 0-1.781-3.622-1.808-14.732-.107-6.473.99-13.064 1.83-14.65 1.864s-3.237.64-3.673 1.346c-.6.97-1.13 1.005-2.166.145-2.247-1.865-7.134-.815-8.472 1.82-1.257 2.477-8.565 6.826-11.599 6.902-1.478.037-6.762 3.098-8.71 5.045-.274.275-1.286.632-2.247.794-.962.161-2.829 1.286-4.15 2.5-3.837 3.526-12.332 9.706-13.34 9.706-.509 0-1.5 1.076-2.203 2.39s-2.242 2.938-3.42 3.608c-2.552 1.453-8.106 7.868-7.413 8.562.997.997 3.345-.696 5.653-4.075 1.308-1.917 2.995-3.485 3.75-3.485.754 0 1.37-.374 1.37-.83s1.2-1.47 2.667-2.25c1.467-.781 3.903-2.545 5.414-3.92 7.642-6.952 10.38-9 12.036-9 .998 0 3.292-1.286 5.099-2.857 1.807-1.572 4.94-3.16 6.962-3.532 2.022-.37 3.837-1.154 4.033-1.742.196-.587 1.691-1.175 3.323-1.306s4.43-.998 6.217-1.927c2.314-1.201 3.25-1.334 3.25-.461 0 .953.266.959 1.2.025 1.45-1.45 5.8-1.6 5.8-.2 0 .55-.681 1-1.514 1s-2.295.406-3.25.903c-.955.496-3.536 1.437-5.736 2.091s-5.575 2.009-7.5 3.011a306.641 306.641 0 0 1-7.848 3.896c-4.48 2.136-16.264 9.037-17.152 10.044-.275.311-2.075 1.74-4 3.174-8.204 6.113-19 18.462-19 21.734 0 2.702 2.011 2.82 2.707.158.666-2.546 2.293-1.59 2.293 1.348 0 1.233.532 2.773 1.182 3.424.91.91.392.937-2.25.119a2465.32 2465.32 0 0 0-5.182-1.6c-.963-.294-1.75-.033-1.75.582s.675 1.116 1.5 1.116 1.5.702 1.5 1.56c0 .91.473 1.266 1.138.855.815-.504.944.33.455 2.94-.735 3.917.511 4.89 2.426 1.895.99-1.549 1.065-1.496.653.463-.622 2.959 1.574 4.761 4.132 3.392 2.728-1.46 3.615-.087 1.088 1.684-1.626 1.138-1.799 1.65-.773 2.285.728.45.965 1.176.527 1.614-.438.437-1.235.012-1.77-.946-.537-.958-1.628-1.742-2.426-1.742s-1.45-.45-1.45-1-.45-1-1-1-1 .702-1 1.56-.472 1.267-1.048.91c-.576-.356-.914-1.487-.75-2.513s-.152-1.774-.702-1.661c-.55.112-.991 1.105-.98 2.207.014 1.38-.685 2.047-2.25 2.144-1.79.112-2.27-.385-2.27-2.346 0-1.647.676-2.665 2-3.011 2.592-.678 2.552-2.79-.086-4.638-1.768-1.238-1.908-1.794-.92-3.642.643-1.2.899-2.45.57-2.779-1.581-1.581-6.862 8.219-5.989 11.115.53 1.755.407 1.923-.663.904-2.045-1.948-2.515-1.58-4.451 3.5-.996 2.613-3.025 7-4.51 9.75-2.881 5.338-7.493 19.292-6.653 20.132.278.278-.607 3.961-1.966 8.186-2.091 6.5-2.559 10.336-3.038 24.932-.322 9.788-.184 17.25.32 17.248.487 0 2.565-1.786 4.617-3.967 2.567-2.728 3.535-4.522 3.103-5.748-.501-1.421-.366-1.54.667-.585 1.026.95 2.457.153 6.897-3.84 7.648-6.877 14.724-10.838 19.385-10.849 7.874-.02 17.378 7.123 21.92 16.474 1.963 4.04 1.986 4.432.43 7.552-.903 1.81-1.51 3.42-1.351 3.58s2.342-.446 4.849-1.348c4.539-1.632 4.578-1.627 9.463 1.232 7.571 4.431 15.337 12.32 18.135 18.422 2.161 4.713 2.341 5.888 1.376 9-.61 1.969-3.348 6.055-6.084 9.08s-4.986 6.465-4.998 7.644c-.013 1.18-1.36 3.576-2.995 5.326-2.262 2.421-3.487 3.019-5.125 2.499-1.184-.376-2.446-.298-2.804.174-.36.471-2.787 2.872-5.397 5.335l-4.744 4.48-3.354-3.771c-1.845-2.074-3.748-3.699-4.229-3.61-1.905.348-2.808-.15-1.628-.9.996-.632.996-1.332 0-3.477-.686-1.477-1.668-2.688-2.182-2.693-.515-.004-1.944-.955-3.176-2.112-2.428-2.281-4.909-1.693-3.904.925.342.89.301 1.299-.09.908-.39-.391-1.4-.153-2.245.53-1.239 1.003-1.381.988-.741-.076.533-.886.105-1.497-1.308-1.866-1.155-.302-2.1-1.172-2.1-1.933 0-1.661 2.595-1.846 3.579-.255.478.774.98.623 1.596-.478.933-1.667-1.533-6.65-3.29-6.65-.487 0-.886-.627-.886-1.393 0-.767-.675-1.652-1.5-1.969-.825-.317-1.5-.065-1.5.56 0 2.24-1.068.011-1.454-3.034-.512-4.048-1.422-5.426-3.147-4.764-.807.31-1.399-.084-1.399-.932 0-.807-.622-1.468-1.383-1.468-1.733 0-8.177-7.04-9.097-9.938-.81-2.55 1.016-5.178 3.054-4.396.784.301 1.426.05 1.426-.56 0-.608-.675-1.106-1.5-1.106s-1.518-.788-1.54-1.75c-.028-1.244-.473-.95-1.539 1.014-1.866 3.44-3.452 2.769-9.434-3.995l-4.218-4.77.711 6.5c.741 6.765 2.267 12.668 5.687 22 4.35 11.874 5.014 13.496 5.717 13.99.4.28 1.649 2.31 2.774 4.51 4.893 9.57 5.832 11.238 8.711 15.478 4.697 6.916 5.52 7.882 15.131 17.766 4.95 5.09 11.138 10.652 13.75 12.36 2.613 1.708 4.75 3.508 4.75 4 0 .493.875.897 1.943.897 1.07 0 2.532.835 3.25 1.856.72 1.021 2.432 2.2 3.807 2.618s3.175 1.327 4 2.017 3.188 1.797 5.25 2.46c2.063.662 3.75 1.667 3.75 2.233s.62.792 1.376.502 2.444.002 3.75.65c3.843 1.906 9.986 3.885 10.492 3.38.257-.258-1.82-2.112-4.618-4.121-2.796-2.01-5.325-4.28-5.618-5.044-.483-1.26 4.258-6.831 8.891-10.45 1.552-1.211 1.695-1.18 1.143.257-.508 1.324.03 1.642 2.777 1.642 1.874 0 3.928.52 4.565 1.157.877.877 1.537.843 2.723-.141 1.326-1.1 1.469-1.048.935.342-.423 1.103-.102 1.642.977 1.642.937 0 1.607-.829 1.607-1.986 0-3.836-13.08-10.12-14.909-7.162-.391.634-4.733 1.428-9.759 1.785-8.08.574-9.525.407-13.447-1.552-3.51-1.753-5.051-3.44-7.668-8.39-1.8-3.407-3.26-7.165-3.245-8.351.021-1.617-.438-2.035-1.834-1.67-1.284.336-2.032-.16-2.407-1.593-.58-2.218 1.593-2.984 2.822-.996.409.662 2.186-.492 4.559-2.961 4.12-4.288 4.66-5.621 2.638-6.501-.688-.3-.084-.306 1.342-.015 1.824.373 3.452-.19 5.5-1.903 4.697-3.928 11.27-6.883 13.639-6.132 1.164.37 4.302 2.716 6.973 5.214l4.856 4.543-3.997 3.84c-2.728 2.62-3.794 4.367-3.36 5.499.438 1.142.258 1.425-.577.909-.668-.413-1.848-.224-2.622.419-1.098.91-1.964.764-3.925-.664-1.384-1.008-2.53-2.17-2.548-2.583-.017-.413-1.156-.75-2.531-.75-3.186 0-3.203 1.991-.042 4.96 2.054 1.93 3.208 2.225 7.03 1.794 4.131-.466 4.513-.334 3.974 1.365-.901 2.84 1.44 2.269 2.538-.62.908-2.388 1.318-2.5 9.242-2.5h8.292l5.268 4.609c7.592 6.641 11.84 15.892 8.727 19.005-.84.841-1.53 2.3-1.53 3.242 0 1.849-9.108 11.205-12.683 13.03-1.202.613-3.114 1.115-4.25 1.115-3.972 0-2.187 2.723 2.184 3.332 9.486 1.322 12.306 1.92 13.456 2.858.663.54 1.763.638 2.444.217.68-.42 5.076-.797 9.767-.836l8.53-.071 4.349-6.5c2.392-3.575 6.116-8.792 8.276-11.592 2.16-2.801 3.928-5.432 3.928-5.846 0-1.299 4.089-6.562 5.098-6.562.529 0-3.552 6.708-9.068 14.907-9.46 14.059-11.702 18.256-8.78 16.43 1.356-.847 1.276-.827 7.5-1.876 5.096-.86 5.604.523 1 2.718-2.135 1.018-4.012 1.268-5.47.729-2.498-.925-6.485.744-8.904 3.727-1.43 1.764-1.484 1.728-.98-.67l.534-2.535-7.823.071c-6.035.055-8.22.469-9.564 1.813-1.392 1.391-1.498 2.035-.529 3.203 1.525 1.838 3.076.985 2.36-1.3-.43-1.377-.215-1.321 1.092.283.896 1.1 2.508 1.859 3.581 1.687 1.074-.172 1.953.165 1.953.75s.93 1.063 2.067 1.063c1.682 0 1.939-.42 1.376-2.25l-.692-2.25 2.375 2.1c3.339 2.956 5.831 3.675 6.519 1.883.313-.816 1.196-1.483 1.962-1.483s1.393-.702 1.393-1.56c0-.973.459-1.275 1.222-.803.672.416 2.958.63 5.08.477 2.417-.175 4.498.3 5.568 1.268 1.522 1.378 2.308 1.388 7.17.095 6.695-1.782 7.234-1.8 6.712-.227-.433 1.305-2.188 1.674-20.252 4.253-9.213 1.315-28.79 1.873-29.814.85zm-2.57-7.353c.918 0 1.91-.625 2.203-1.39.555-1.446-2.95-2.739-8.82-3.252-4.267-.373-11.196-1.917-16.908-3.768-2.7-.874-5.513-1.59-6.25-1.59-2.41 0-1.41 1.729 1.76 3.042 1.704.706 4.9 2.789 7.102 4.628 2.201 1.839 4.968 3.556 6.15 3.817 4.79 1.056 9.255.965 11.12-.226 1.084-.694 2.724-1.26 3.642-1.26zm-15.117-1c0-.55.675-1 1.5-1s1.5.45 1.5 1-.675 1-1.5 1-1.5-.45-1.5-1zm-20.966-7.958c2.946 1.863 4.11 1.107 2.375-1.542-.948-1.447-2.59-2.5-3.9-2.5-1.245 0-2.783-.627-3.419-1.392-.635-.766-2.603-1.967-4.372-2.67-5.076-2.013-16.727-8.98-22.41-13.4a606.022 606.022 0 0 0-9.75-7.404c-2.506-1.852-4.557-3.955-4.557-4.673 0-.719-1.71-3.029-3.801-5.134-9.294-9.354-21.713-28.93-26.536-41.827-2.906-7.773-4.663-14.415-4.678-17.688-.018-3.902-2.353-11.102-3.752-11.568-1.546-.515-2.182 3.605-1.055 6.837.565 1.62.759 3.642.431 4.496-.327.853.277 3.21 1.342 5.237 2.572 4.895 6.52 15.238 6.664 17.458.063.975.905 2.645 1.87 3.713.967 1.068 1.515 2.573 1.219 3.346s.661 2.728 2.128 4.345c1.468 1.618 3.712 5.053 4.988 7.633 1.276 2.58 2.739 4.692 3.25 4.692.512 0 .938.787.947 1.75.009.962 1.81 3.516 4 5.676 2.19 2.159 3.983 4.303 3.983 4.764 0 2.007 24.86 24.81 27.047 24.81.396 0 .947.87 1.225 1.934.333 1.272 1.741 2.166 4.117 2.611 1.986.373 3.61 1.072 3.61 1.553s1.576 1.533 3.5 2.338c1.926.804 3.5 1.9 3.5 2.434 0 .534 1.32 1.26 2.931 1.615 1.612.354 3.472 1.295 4.133 2.092.792.954 1.594 1.122 2.353.493.712-.591 1.71-.602 2.617-.028zm-47.034-28.983c0-1.35-1.822-2.287-3.016-1.549-.559.345-.757 1.047-.44 1.559.75 1.215 3.456 1.207 3.456-.01zm72-6.06c0-.55-.45-1-1-1s-1 .45-1 1 .45 1 1 1 1-.45 1-1zm-18.5-21c-.34-.55-1.041-1-1.559-1s-.94.45-.94 1 .701 1 1.558 1 1.281-.45.941-1zm-4.138-2.5c-.317-.824-.977-1.5-1.469-1.5-.49 0-.893.676-.893 1.5s.661 1.5 1.469 1.5c.895 0 1.244-.585.893-1.5zm-6.695-11.166c-.38-.38-2.024.676-3.656 2.344-3.871 3.96-2.648 5.183 1.312 1.312 1.668-1.632 2.723-3.277 2.344-3.656zm-12.248-10.94c2.895-1.111 1.64-4.105-4.308-10.28-6.229-6.464-7.41-6.967-10.61-4.52-1.933 1.476-1.748 1.763 5.444 8.468 4.095 3.816 7.546 6.939 7.668 6.939s.936-.273 1.806-.607zm-3.918-3.393c-.34-.55-.142-1 .44-1s1.06.45 1.06 1-.199 1-.441 1-.72-.45-1.06-1zm-8.25-7.662c-1.741-.703-1.566-2.338.25-2.338.825 0 1.5.675 1.5 1.5s-.113 1.464-.25 1.42a42.475 42.475 0 0 1-1.5-.582zm-12.734-16.388c.473-1.492-.495-3.535-3.554-7.5-4.338-5.622-4.712-5.868-7.38-4.844-2.196.843-1.995 1.962 1.114 6.21 6.263 8.558 8.59 10.011 9.82 6.134zm-43.395-6.2c.066-1.238.066-3.376 0-4.75s-.118-5.127-.114-8.336c.005-4.242-.337-5.722-1.25-5.42-1.35.447-2.318 14.384-1.284 18.502.73 2.912 2.492 2.915 2.648.003zm45.879-13.75c0-3.14-1.65-4.078-2.639-1.5-.715 1.863.227 4.5 1.607 4.5.568 0 1.032-1.35 1.032-3zm-6-4.56c0-.857-.45-1.28-1-.94s-1 1.04-1 1.558.45.941 1 .941 1-.701 1-1.559zm-39.978-8.19c.012-3.713.912-10.778 2-15.7 2.46-11.126 2.55-13.27.49-11.56-.82.68-1.275 1.583-1.013 2.008.508.822-1.025 6.376-2.537 9.195-.5.932-1.137 6.444-1.417 12.25-.428 8.888-.274 10.556.973 10.556 1.161 0 1.487-1.463 1.504-6.75zm7.43-35.925c1.478-3.12 2.836-6.849 3.018-8.285.182-1.436 1.581-4.845 3.11-7.576 1.53-2.73 3.265-5.864 3.857-6.964.592-1.1 3.21-5.277 5.82-9.282 4.659-7.152 5.541-9.218 3.936-9.218-1.154 0-7.193 8.783-7.193 10.462 0 .771-.9 1.689-2 2.038s-2 1.266-2 2.037-.973 3.103-2.163 5.182c-3.883 6.785-5.144 9.573-5.405 11.95-.141 1.285-1.154 4.248-2.252 6.584-2.694 5.735-3.508 8.747-2.364 8.747.522 0 2.159-2.553 3.637-5.674zm190.26-15.956c.204-.621-.998-1.33-2.672-1.576-2.477-.364-3.044-.095-3.044 1.446 0 1.465.606 1.822 2.673 1.577 1.47-.174 2.84-.825 3.044-1.447zm-20.372-3.576c.787-3.01-.204-3.706-1.926-1.35-1.789 2.446-1.8 3.557-.035 3.557.761 0 1.643-.993 1.96-2.207zm-5.499-4.242c.221-1.14-.139-1.62-1-1.334-.74.247-1.5 1.25-1.69 2.23-.221 1.14.139 1.621 1 1.335.74-.247 1.5-1.25 1.69-2.23zm18.91.199c-.226-.688-1.48-1.406-2.785-1.596-2.072-.303-2.206-.144-1.05 1.25 1.567 1.887 4.428 2.145 3.835.346zm-154.76-4.691c0-1.18-1.95-2.442-2.666-1.726-.717.716.546 2.667 1.726 2.667a.944.944 0 0 0 .94-.941zm3-7.06c0-.55-.45-1-1-1s-1 .45-1 1 .45 1 1 1 1-.45 1-1zm126.8-.2c1.446-1.445 1.56-2.8.236-2.8-.531 0-1.447.9-2.036 2-1.178 2.203-.087 2.688 1.8.8zm-135.3-6.807c.343-.553-.1-1.284-.984-1.623-1.914-.735-2.981.075-2.061 1.564.83 1.344 2.235 1.371 3.045.06zm122.73-2.205c.698-2.091-.413-5.787-1.738-5.787-1.335 0-4.499 4.195-4.499 5.964 0 1.46 5.747 1.296 6.238-.177zm-19.236-1.847c0-.517-.45-.94-1-.94s-1 .701-1 1.558.45 1.281 1 .941 1-1.041 1-1.559zm-100.17.06c-.184-.55-.784-1-1.334-1s-1.15.45-1.333 1c-.183.55.417 1 1.333 1s1.517-.45 1.334-1zm112.17-3c0-1.1.9-2.9 2-4 2.296-2.297 2.487-3 .814-3-3.21 0-7.132 6.348-5.148 8.333 1.268 1.268 2.333.659 2.333-1.334zm10.823-24.668c-.487-2.508-2.824-2.853-2.824-.416 0 1.229.646 2.084 1.574 2.084.93 0 1.44-.68 1.25-1.668zm-90.823-4.332c0-.55-.45-1-1-1s-1 .45-1 1 .45 1 1 1 1-.45 1-1zm115-11c0-.55-.675-1-1.5-1s-1.5.45-1.5 1 .675 1 1.5 1 1.5-.45 1.5-1zm-45-3.5c0-.834-.89-1.5-2-1.5-1.993 0-2.602 1.065-1.334 2.333 1.218 1.218 3.334.689 3.334-.834zm33-1.446c0-1.11-3.877-2.064-4.472-1.1-.664 1.074.04 1.587 2.422 1.767 1.127.085 2.05-.215 2.05-.667zm-30-1.694c0-2.442-3.165-4.47-4.825-3.09-1.078.893-.888 1.445.997 2.894 2.908 2.238 3.827 2.285 3.827.196zm21 .14c0-.825-.675-1.5-1.5-1.5s-1.5.675-1.5 1.5.675 1.5 1.5 1.5 1.5-.675 1.5-1.5zm-33.5-2.5c.34-.55-.084-1-.941-1-.858 0-1.56.45-1.56 1s.424 1 .942 1 1.219-.45 1.559-1zm48.844 283.49c-.636-1.371-.749-2.493-.25-2.493.498 0 .905.45.905 1s.675 1 1.5 1 1.5-.723 1.5-1.607c0-1.003.553-1.395 1.472-1.042.809.31 2.125-.09 2.925-.89.8-.8 2.14-1.192 2.977-.87.84.321 2.529-.354 3.763-1.504 1.233-1.147 2.83-2.087 3.552-2.087s1.311-.45 1.311-1 1.298-1 2.884-1c2.086 0 3.035-.579 3.43-2.094.454-1.731 1.056-1.983 3.472-1.453 2.409.53 3.215.196 4.587-1.899.916-1.398 1.994-2.463 2.396-2.367 1.508.359 8.231-3.609 8.231-4.858 0-.715 1.913-2.544 4.25-4.064 2.338-1.52 4.4-3.102 4.584-3.515.183-.412 1.244-.75 2.358-.75 1.66 0 1.912-.45 1.398-2.5-.421-1.676-.21-2.51.641-2.531 1.69-.042 6.77-4.566 6.77-6.028 0-.635.586-.93 1.303-.654.757.29 1.84-.712 2.583-2.393.786-1.774 2.04-2.894 3.245-2.894 1.912 0 6.868-4.435 6.868-6.146 0-.47-1.687-.89-3.75-.933-2.062-.043-3.187-.305-2.5-.583 1.802-.727 1.54-3.338-.333-3.338-.91 0-1.336-.53-1-1.25a41.42 41.42 0 0 0 1.181-2.93c.722-2.025 3.722-3.36 4.217-1.877.193.582.941 1.057 1.662 1.057 1.546 0 2.798 2.747 1.909 4.186-.342.553-.006 2.16.746 3.573 1.047 1.965 1.083 2.664.156 2.976-.668.224-3.278 3.3-5.801 6.836s-5.015 6.43-5.537 6.43-.95.567-.95 1.26c0 1.383-4.632 6.74-5.828 6.74-.411 0-3.144 2.25-6.073 5s-5.725 5-6.212 5c-.488 0-.887.641-.887 1.426s-2.362 2.633-5.25 4.109a268.322 268.322 0 0 0-10.25 5.579c-2.75 1.593-5.675 3.151-6.5 3.463-.825.312-2.175.97-3 1.464-4.811 2.878-20.414 8.982-22.88 8.95-.34-.003-1.14-1.129-1.775-2.5zm-12.831-5.472c-.843-1.363 1.27-5.02 2.9-5.02 1.945 0 3.907 2.724 3.23 4.487-.644 1.677-5.18 2.072-6.13.533zm9.665-2.706c.199-1.033 2.065-2.166 4.823-2.929 10.793-2.985 26.795-10.68 33.88-16.293 2.149-1.701 4.22-3.093 4.603-3.093.946 0 11.583-8.992 13.69-11.573.93-1.14 4.422-4.794 7.759-8.12 3.337-3.327 6.066-6.557 6.066-7.178 0-.62.45-1.129 1-1.129 4.175 0-7.532 15.28-14.102 18.403-1.044.497-1.898 1.225-1.898 1.619 0 1.307-9.24 9.979-10.632 9.979-.753 0-1.368.441-1.368.98s-1.125 1.264-2.5 1.609-2.5.977-2.5 1.405c0 .428-1.463 1.522-3.25 2.432s-5.05 2.742-7.25 4.07c-2.2 1.33-4.74 2.436-5.643 2.46-.904.024-1.893.694-2.198 1.488-.305.795-2.223 1.758-4.264 2.141-2.04.383-4.876 1.305-6.302 2.05-1.426.743-3.58 1.355-4.784 1.358-1.205.003-2.47.457-2.81 1.007-1.007 1.63-2.673 1.138-2.321-.685zm-38.918-2.267c-1.86-2.358-1.988-2.938-.75-3.413.865-.332 1.49-.008 1.49.774 0 .74.675 1.907 1.5 2.592 1.58 1.311 2.02 3.038.75 2.944-.412-.03-1.758-1.334-2.99-2.896zm-5.968.202c-.356-.962-1.129-2.08-1.719-2.484-.612-.42-.153-.741 1.07-.75 1.949-.014 3.357 1.692 3.357 4.066 0 1.611-2.038.985-2.708-.832zm111.1-2.656c.54-2.15.305-2.594-1.368-2.594-1.11 0-2.02-.43-2.02-.954 0-1.012 11.714-13.067 18.64-19.184 2.266-2.002 4.286-4.074 4.49-4.606.204-.532 2.846-4.603 5.87-9.048 3.348-4.918 5.863-7.724 6.427-7.168 1.076 1.06 3.574-.666 3.574-2.47 0-.652-1.8-1.98-4-2.95s-4-2.148-4-2.616c0-.468 1.4-.152 3.111.702 2.62 1.307 3.25 1.334 3.985.173 1.2-1.897 1.122-3.879-.155-3.879-.583 0-.752-.498-.375-1.107.486-.787.905-.749 1.45.132.831 1.346 1.654.257 6.343-8.401 1.452-2.682 2.64-5.564 2.64-6.405 0-1.278.329-1.232 2 .281 1.8 1.628 2 1.643 2 .155 0-.91-.421-1.655-.936-1.655-1.04 0-.27-6.638 1.042-9 .64-1.15.841-1.183.864-.139.023 1.006.925 1.194 3.453.72 1.984-.373 3.69-.21 4.059.388.35.567.008 1.031-.762 1.031-1.979 0-4.084 4.763-2.292 5.186.98.232 1.084.96.398 2.79-.75 2-1.102 2.194-1.835 1.008-.71-1.147-1.17-1.204-2.116-.258-.945.945-.845 1.348.458 1.848 1.824.7 2.263 3.94.668 4.926-.55.34-1 1.436-1 2.437 0 1-.675 2.378-1.5 3.063s-1.5 1.897-1.5 2.694-.675 2.124-1.5 2.949-1.5 2.53-1.5 3.79c0 3.234-7.017 13.567-9.214 13.567-1.239 0-1.786-.766-1.786-2.5 0-3.35-1.184-3.151-3.38.566-1.7 2.879-1.705 3.046-.07 2.75.958-.174 1.939.247 2.18.934s-.051 1.25-.647 1.25-1.1.788-1.119 1.75c-.054 2.684-1.929 5.503-8.426 12.672-5.501 6.07-8.538 8.054-8.538 5.578 0-.55-.506-1-1.123-1-.768 0-.724.48.14 1.522 1.062 1.278.561 2.248-3.127 6.055-2.415 2.493-5.687 5.226-7.272 6.072-2.868 1.531-2.88 1.526-2.231-1.055zm6.154-5.66c.362-.587.453-1.272.202-1.524-.698-.697-3.744.684-3.744 1.697 0 1.252 2.744 1.118 3.542-.173zm21.973-24.707c-.69-.828-3.514 1.226-3.514 2.555 0 1.297.323 1.235 1.87-.357 1.03-1.058 1.769-2.048 1.644-2.198zm15.09-17.956c-1.017-1.017-1.856.514-1.022 1.863.63 1.02.866 1.02 1.205.004.231-.695.149-1.535-.183-1.867zm8.181-16.398c.214-1.11-.68-1.802-2.898-2.246-4.064-.812-4.692-.173-2.36 2.404 2.097 2.317 4.798 2.236 5.259-.158zm-148.81 60.544c-.014-.504-1.814-2.02-4-3.368-3.675-2.267-5.313-5.049-2.973-5.049.55 0 1 .42 1 .933 0 .513.912 1.222 2.027 1.576 2.26.717 5.598 5.2 4.609 6.189-.35.35-.648.223-.663-.281zm-5.287-22.034c-1.237-2.373-22.245-24.033-27.735-28.595-3.453-2.87-4.141-4.51-2.796-6.664 1.673-2.678.097-4.188-1.744-1.67-1.371 1.875-1.596 1.781-5.918-2.46-2.47-2.426-4.493-4.892-4.493-5.48 0-.59 1.612-2.73 3.58-4.758 2.026-2.085 3.275-4.182 2.876-4.828-.479-.775-.066-.939 1.284-.51 1.546.49 2.744-.368 5.375-3.851 1.862-2.466 3.836-4.67 4.388-4.898.551-.229 3.15 1.668 5.776 4.215l4.773 4.63-2.985 3.493c-3.387 3.964-3.71 4.993-1.567 4.993.826 0 1.5.875 1.5 1.944 0 2.468 3.535 4.99 6.065 4.33 1.065-.28 1.936-1.264 1.936-2.19s.542-2.226 1.206-2.89c.94-.941 2.148-.281 5.5 3.008 4.1 4.025 5.444 6.798 3.293 6.798-.55 0-1 .527-1 1.172s-.747 1.997-1.66 3.006c-.913 1.009-1.476 1.97-1.25 2.135a844.95 844.95 0 0 1 4.486 3.44c4.053 3.122 4.09 3.129 7 1.355 1.608-.981 3.535-2.522 4.28-3.426 1.222-1.479 1.788-1.173 5.71 3.088 2.396 2.602 4.373 5.27 4.395 5.929.042 1.287-.36 1.721-12.664 13.684l-8.108 7.883zm-6.852-24.383c-.184-.55-.784-1-1.334-1s-1.15.45-1.333 1c-.183.55.417 1 1.333 1s1.517-.45 1.334-1zm-7.834-14c0-.55-.45-1-1-1s-1 .45-1 1 .45 1 1 1 1-.45 1-1zm-13-17c0-.55-.45-1-1-1s-1 .45-1 1 .45 1 1 1 1-.45 1-1zm-53.715 48.052c.348-1.347.266-2.922-.182-3.5-.447-.579-1.08-2.138-1.407-3.466-.5-2.033-.386-2.19.724-1 .725.778 1.794 2.849 2.376 4.602.862 2.6.762 3.431-.542 4.5-1.407 1.153-1.524 1.016-.969-1.136zm-9.784-.052c-.34-.55-.142-1 .44-1s1.06.45 1.06 1-.199 1-.441 1-.72-.45-1.06-1zm108.73-2.187c.498-1.495 2.77-2.318 2.77-1.003 0 .537-.712 1.25-1.583 1.584-.974.373-1.43.15-1.187-.58zm-116.76-3.857c-.325-.526.004-.956.73-.956.728 0 1.767-.983 2.31-2.185s1.662-2.362 2.487-2.576c.979-.256 1.112-.104.384.435-.613.454-1.418 1.797-1.788 2.984-.75 2.403-3.21 3.775-4.123 2.298zm4.527-.397c0-.857.45-1.559 1-1.559s1 .423 1 .94-.45 1.22-1 1.56-1-.084-1-.941zm5-1.118c0-.857.457-1.276 1.016-.93s.757 1.046.441 1.558c-.857 1.387-1.457 1.128-1.457-.628zm114-1.882c0-.857.45-1.559 1-1.559s1 .423 1 .94-.45 1.22-1 1.56-1-.084-1-.941zm-187-1.56c0-.55.476-1 1.059-1s.78.45.44 1-.816 1-1.058 1-.441-.45-.441-1zm236.5 0c.34-.55.816-1 1.059-1s.44.45.44 1-.476 1-1.058 1-.781-.45-.441-1zm-156.85-.685c-.286-.286-.127-1.552.353-2.814s.563-2.663.186-3.114c-.378-.451.214-.175 1.313.614s2.15 1.524 2.334 1.634c.183.11-.567 1.1-1.667 2.2s-2.234 1.765-2.52 1.48zm-7.648-1.314c0-.55.45-1 1-1s1 .45 1 1-.45 1-1 1-1-.45-1-1zm169-1c0-.55.424-1 .941-1s1.22.45 1.56 1-.084 1-.941 1c-.858 0-1.56-.45-1.56-1zm45.076-.727a89.7 89.7 0 0 0 1.642-2.19c.156-.229.283.285.283 1.143 0 .858-.739 1.843-1.642 2.19-1.429.548-1.465.4-.283-1.143zm-211-1.856c.048-1.165.285-1.402.605-.605.289.722.253 1.585-.08 1.917-.332.332-.568-.258-.524-1.312zm106.88-8.91c-4.104-4.671-7.794-8.496-8.2-8.5-.406-.004-3.778-3.27-7.491-7.257s-9.794-10.272-13.511-13.965c-3.718-3.693-6.76-7.313-6.76-8.044s1.8-3.034 4-5.119 4-4.394 4-5.133c0-3.542 3.783-1.558 10.437 5.477 3.885 4.108 9.764 9.902 13.064 12.876 3.3 2.975 8.025 7.603 10.5 10.287s4.929 4.877 5.452 4.875c.524-.002 2.419-1.424 4.21-3.161l3.258-3.158 4.04 4.04c2.222 2.222 4.04 4.656 4.038 5.408-.002 1.388-17.542 19.868-18.858 19.868-.394 0-4.074-3.822-8.178-8.493zm-.961-21.007c0-1.375-.464-2.5-1.032-2.5-1.342 0-2.33 2.606-1.498 3.952 1.165 1.885 2.53 1.101 2.53-1.452zm-24-18.059c0-.793.552-1.329 1.226-1.191s1.38-.762 1.57-2c.232-1.524-.164-2.25-1.227-2.25-2.669 0-2.96.381-3.33 4.346-.236 2.53.004 3.622.701 3.19.583-.36 1.06-1.302 1.06-2.095zm127.18 43.873c-5.23-1.85-6.081-3.598-3.473-7.136 2.096-2.843 5.268-9.136 5.721-11.35.15-.73.607-2.227 1.017-3.327.41-1.1 1.21-3.246 1.78-4.768.569-1.522 1.082-4.56 1.139-6.75.057-2.19.584-3.982 1.171-3.982 1.83 0 4.727-22.4 4.569-35.328-.148-12.086-.492-14.168-2.17-13.13-.513.316-.932-.09-.932-.9 0-.812.4-1.626.889-1.81 1.462-.548.053-10.833-1.485-10.833-.737 0-3.17 2.475-5.404 5.5s-4.508 5.5-5.053 5.5-1.498-1.116-2.12-2.48c-.622-1.365-1.962-2.745-2.98-3.068-1.016-.323-3.026-2.132-4.466-4.02-2.853-3.74-6.38-4.617-6.38-1.587 0 2.391-3.082 5.155-5.748 5.155-2.602 0-5.253.979-5.253 1.94 0 .398 2.475.52 5.5.269 3.675-.305 5.5-.083 5.5.667 0 .619.675 1.124 1.5 1.124.84 0 1.5-.891 1.5-2.023 0-1.954.093-1.965 2.75-.314 3.473 2.158 6.2 5.384 6.228 7.371.012.844-2.34 3.855-5.228 6.69l-5.25 5.156-7.766-7.475c-6.88-6.622-7.642-7.708-6.67-9.525 1.428-2.667.62-3.42-1.45-1.351-1.497 1.498-2.082 1.25-7.561-3.203-6.34-5.152-7.013-6.607-4.392-9.503 2.381-2.631.764-3.561-1.915-1.1-2.955 2.714-4.508 1.993-13.246-6.154l-7-6.527 4.022-3.77c2.211-2.075 7.13-6.472 10.932-9.772s7.616-6.675 8.478-7.5c5.982-5.72 25.748 8.171 23.631 16.608-.561 2.237-.329 2.393 3.574 2.393 2.913 0 5.166.756 7.453 2.5 3.986 3.04 4.036 3.043 4.755.293.317-1.213.895-1.888 1.284-1.498s.099 1.847-.646 3.239c-1.295 2.418-1.093 2.795 4.503 8.45 6.003 6.067 8.578 6.994 6.13 2.209-.758-1.482-1.692-4.58-2.075-6.886s-1.336-4.723-2.118-5.372c-.782-.65-1.436-2.138-1.453-3.308-.018-1.17-1.124-4.358-2.46-7.085s-2.227-5.158-1.982-5.403c1.039-1.039 7.473 8.811 7.473 11.441 0 1.284 2.129 6.748 4.2 10.781.526 1.024 1.358 3.949 1.85 6.5s1.71 8.464 2.708 13.14c1.704 7.983 2.08 20.421.777 25.688-.298 1.204-.06 2.487.53 2.851.589.365.83 1.292.535 2.062-.318.828.096 1.399 1.015 1.399 2.32 0 1.066 2.45-1.443 2.82-1.81.266-2.19 1.015-2.282 4.5-.203 7.759-.652 10.687-1.86 12.143-.66.797-.9 1.939-.53 2.537s.248 1.63-.27 2.294c-.518.663-1.55 4.018-2.292 7.456-.743 3.437-1.708 6.25-2.144 6.25-.437 0-.794.846-.794 1.88 0 2.03-4.129 11.285-6.582 14.756-1.43 2.023-1.34 2.196 1.723 3.263 3.099 1.08 6.255.082 4.049-1.282-.637-.393-.562-2.267.21-5.295 1.254-4.915 3.6-7.08 3.6-3.322 0 1.302.499 1.99 1.25 1.726.687-.243 1.17-1.286 1.072-2.319-.098-1.033.286-2.164.853-2.515.7-.433.67-1.314-.095-2.743-1.227-2.292-.76-6.87.867-8.496 1.548-1.548 2.353-.083 1.17 2.13-1.004 1.874-.606 3.217.952 3.217 1.136 0 2.917-5.874 2.282-7.528-.685-1.786-1.562-1.861-3.15-.272-.934.933-1.2.814-1.2-.535 0-2.713 2.974-6.612 4.575-5.998.783.301 1.424.049 1.424-.56 0-.609-.45-1.107-1-1.107s-1-.9-1-2c0-2.725 1.434-2.513 3.411.505 1.732 2.644 1.313 5.223-2.93 17.995-2.966 8.93-9.762 21.598-11.48 21.4-.276-.031-2.446-.745-4.823-1.586zm-10.422-81.564c-.227-.688-1.48-1.406-2.786-1.596-2.072-.302-2.206-.143-1.049 1.25 1.566 1.887 4.427 2.145 3.835.346zm-8.755-21.421c0-1.439-3.402-4.329-5.096-4.329-2.508 0-3.404 1.898-1.218 2.58.998.31 2.489.956 3.314 1.434 1.858 1.076 3 1.196 3 .315zm10-2.329c0-.55.9-1 2-1s2-.45 2-1-.45-1-1-1-1-.675-1-1.5-.402-1.5-.893-1.5-1.152.675-1.469 1.5c-.317.825-1.265 1.5-2.107 1.5-1.858 0-1.93.633-.281 2.504 1.473 1.674 2.75 1.904 2.75.496zm-23.641-12.322c-.473-.843-2.736-2.893-5.03-4.554-3.729-2.701-4.308-2.854-5.476-1.446-1.124 1.354-.611 2.179 3.67 5.902 4.18 3.634 5.194 4.111 6.336 2.98.866-.86 1.047-1.904.5-2.882zm-177.83 114.71c-1.69-1.69-2.014-3.386-.646-3.386.486 0 1.191 1.013 1.567 2.25.415 1.363.888 1.757 1.2 1 .591-1.43 2.35-1.698 2.35-.357 0 1.694-2.946 2.019-4.471.493zm-22.851-10.449c-.923-1.078-1.679-2.405-1.679-2.949s-.505-.988-1.122-.988c-.74 0-.664-.553.22-1.618 1.196-1.441 1.432-1.277 2.151 1.5.445 1.715 1.47 3.118 2.28 3.118 1.58 0 2.002 1.554.65 2.39-.452.279-1.577-.375-2.5-1.453zm147.82-24.642c-22.316-23.122-21.748-22.547-24.775-25.039-1.5-1.234-2.725-2.95-2.725-3.815s2.419-4.03 5.375-7.034l5.376-5.462 8.894 8.777c19.483 19.23 26.983 26.277 27.959 26.277.562 0 2.286-1.32 3.83-2.932 2.374-2.478 3.101-2.75 4.688-1.76 1.033.646 1.878 1.563 1.878 2.039 0 .476 1.125 1.75 2.5 2.832s2.5 2.552 2.5 3.268c0 1.194-17.224 18.813-18.81 19.24-.38.102-7.89-7.274-16.69-16.391zm7.323-12.628c.191-.986-.319-1.667-1.25-1.667-.928 0-1.573.855-1.573 2.083 0 2.437 2.336 2.093 2.823-.416zm-23.388-19.772c-.873-1.412-2.435-1.044-2.435.574 0 .892.586 1.243 1.494.895.822-.315 1.245-.976.941-1.469zm2.565-2.395c0-.825-.675-1.5-1.5-1.5s-1.5.675-1.5 1.5.675 1.5 1.5 1.5 1.5-.675 1.5-1.5zm-129.5 49.5c-.34-.55-.142-1 .44-1s1.06.45 1.06 1-.199 1-.441 1-.72-.45-1.06-1zm-93.5-3.44c0-.858.45-1.56 1-1.56s1 .424 1 .941-.45 1.22-1 1.56-1-.084-1-.942zm314-.648c0-1.186 8.893-5.352 9.7-4.545.343.343-.799 1.12-2.538 1.726-1.74.607-3.162 1.456-3.162 1.888s-.9 1.021-2 1.309-2 .117-2-.378zm-320-4.47c0-.858.457-1.277 1.016-.932.559.346.757 1.047.441 1.56-.857 1.386-1.457 1.128-1.457-.629zm174.57-5.013c-.865-.865-1.572-2.174-1.572-2.91 0-1.542-5.052-6.82-24.25-25.334-7.562-7.294-13.75-13.638-13.75-14.1s-.666-1.394-1.481-2.07c-1.309-1.086-1.309-1.476 0-3.345.815-1.163 1.481-2.465 1.481-2.893 0-1.406-2.773-.81-3.361.723-1.011 2.634-3.06 1.643-8.987-4.347l-5.785-5.846 5.142-5.627c2.928-3.203 4.841-6.115 4.442-6.76-.475-.768-.05-.928 1.317-.494 1.526.484 3.02-.405 6.122-3.643 2.256-2.356 4.347-5.03 4.645-5.94 1.084-3.318 3.359-2.618 9.365 2.885 3.355 3.073 6.1 5.965 6.1 6.427s-1.61 2.622-3.58 4.802c-4.224 4.676-4.042 6.053 1.514 11.478 2.95 2.88 4.378 3.637 5.746 3.045 1.001-.433 2.72-.705 3.82-.603l2 .184-2-1.596c-1.987-1.585-1.984-1.607.361-3.53 1.299-1.065 2.696-1.935 3.105-1.935 1.125 0 11.034 10.724 11.034 11.94 0 .582-.675 1.06-1.5 1.06s-1.5.614-1.5 1.365-.933 2.551-2.074 4.002l-2.074 2.637 3.284 2.748c1.807 1.51 4.171 3.76 5.255 4.997s2.358 2.25 2.833 2.25c.474 0 3.102-2.095 5.84-4.655l4.976-4.656 2.58 2.406c1.42 1.323 4.385 4.552 6.59 7.175l4.01 4.77-2.36 1.871c-1.298 1.029-5.51 5.101-9.36 9.05-10.2 10.46-12.91 13.03-13.75 13.035-.412.003-.75.68-.75 1.504 0 1.942-1.446 1.912-3.428-.071zm-20.571-50.93c0-1.374-.45-2.5-1-2.5s-1 1.126-1 2.5.45 2.5 1 2.5 1-1.124 1-2.5zm-16.218-22.345c.286-.861-.194-1.221-1.335-1-.98.19-1.983.95-2.23 1.69-.286.861.194 1.222 1.334 1 .98-.19 1.984-.95 2.23-1.69zm-112.78 69.346c0-.825.436-1.5.968-1.5.533 0 .71.675.393 1.5-.316.825-.752 1.5-.968 1.5s-.393-.675-.393-1.5zm323.28-4c.131-5.606 1.05-7.16 2.026-3.428.675 2.582-.293 8.928-1.363 8.928-.435 0-.734-2.475-.663-5.5zm-22.253 1.539c-.81-.512-1.21-1.19-.893-1.509.318-.318 1.148.107 1.844.946 1.442 1.738 1.166 1.902-.951.563zm-44.387-4.726c-.812-1.547-8.246-9.493-16.52-17.658-14.89-14.69-15.028-14.869-13.468-17.25 1.754-2.677 1.288-3.01-1.648-1.177-1.731 1.081-2.506.698-6.486-3.208-2.486-2.44-4.516-4.68-4.512-4.978.005-.298 1.58-2.2 3.5-4.225 1.92-2.026 3.499-4.501 3.507-5.5.013-1.546.165-1.593 1.016-.317.826 1.238 1.692.713 4.955-3 2.175-2.475 3.967-4.837 3.984-5.25.016-.412.611-.75 1.321-.75 1.31 0 9.709 8.006 9.709 9.253 0 .373-1.315 2.174-2.921 4.004l-2.92 3.326 3.67 4.165c3.225 3.659 3.883 4.005 5.42 2.848.963-.724 1.75-1.774 1.75-2.334s.697-1.595 1.548-2.301c1.312-1.09 2.224-.62 6 3.086 2.45 2.403 4.453 4.703 4.453 5.11 0 .407-1.125 1.954-2.5 3.438s-2.49 3.194-2.479 3.801c.024 1.239 7.217 6.604 8.854 6.604.58 0 2.663-1.411 4.627-3.136l3.572-3.137 3.713 4.29c2.042 2.36 4.073 4.897 4.512 5.637.44.74 1.453 1.346 2.25 1.346s1.45.48 1.45 1.067c0 .599-.845.8-1.924.457-1.473-.468-4.2 1.572-11.607 8.682-5.325 5.112-10.057 9.435-10.516 9.608s-1.499-.953-2.31-2.5zm-13.81-37.314c-.183-.55-.783-1-1.333-1s-1.15.45-1.333 1c-.183.55.417 1 1.333 1s1.517-.45 1.334-1zm-14.332-17c.34-.55.141-1-.441-1s-1.06.45-1.06 1 .2 1 .442 1 .719-.45 1.059-1zm-227.75 52.171c-.263-1.005.044-2.543.683-3.417.966-1.32 1.162-1.012 1.162 1.829 0 3.669-1.062 4.583-1.845 1.588zm-4.755-.23c0-.582.45-.78 1-.44s1 .816 1 1.058-.45.441-1 .441-1-.476-1-1.059zm329-4.126c0-1.202-.85-3.115-1.89-4.25-2.345-2.56-1.76-8.146 1.007-9.627 2.223-1.19 2.49-2.938.45-2.938-1.591 0-2.237-1.81-2.47-6.931-.15-3.286-.078-3.36 1.704-1.748 1.024.926 2.146 1.399 2.495 1.05 1.105-1.105-1.29-4.37-3.206-4.37-2.082 0-3.46-4.676-2.504-8.49.317-1.26.09-2.593-.505-2.96-.595-.368-1.081-1.692-1.081-2.943s-.298-2.572-.661-2.935-.76-1.901-.88-3.417c-.12-1.515-.576-3.88-1.012-5.255-.72-2.266-.635-2.37.904-1.108.933.766 1.948 1.142 2.254.836.881-.881-1.455-4.578-3.628-5.74-1.088-.583-1.977-1.947-1.977-3.033s-.9-2.746-2-3.688c-2.07-1.772-2.698-4.268-1.073-4.268.51 0 1.748 1.037 2.75 2.304s2.576 2.59 3.497 2.94c2.432.924 5.167 7.261 4.42 10.24-.346 1.375-.012 3.973.74 5.774 1.231 2.947 2.248 7.92 3.285 16.071.727 5.714 2.421 6.165 4.383 1.167.935-2.384 1.629-3.103 2.17-2.25 1.162 1.83 1.004 2.755-.471 2.755-2.12 0-3.701 6.117-3.701 14.32 0 5.47.36 7.684 1.25 7.695.847.01.767.357-.25 1.076-1.129.798-1.19 1.186-.25 1.568 1.859.755 1.611 4.417-.25 3.702-1.489-.57-1.958.906-1.553 4.889.098.962-.3 1.75-.884 1.75s-1.063-.984-1.063-2.186zm6.44.717c-1.647-1.246-1.692-1.473-.297-1.5.903-.017 1.902.643 2.218 1.468.715 1.864.506 1.867-1.92.032zm-334.44-1.473c0-.517.446-1.215.99-1.551.566-.35.734.05.392.94-.664 1.733-1.381 2.05-1.381.612zm10-2.642c0-.87.535-1.405 1.188-1.187 1.855.618 2.162 2.77.396 2.77-.87 0-1.583-.712-1.583-1.583zm268.02.06c.697-.839 1.472-1.319 1.723-1.067.694.693-.715 2.59-1.924 2.59-.663 0-.587-.573.202-1.524zm-95.02-2.359c0-.55.45-1.278 1-1.618s1-.168 1 .382-.45 1.279-1 1.618-1 .168-1-.382zm153-.559c0-.857.45-1.559 1-1.559s1 .424 1 .941-.45 1.22-1 1.56-1-.084-1-.942zm-329.33-2.225c-.366-.367-.666-1.132-.666-1.7 0-.627.466-.568 1.184.15.65.65.95 1.416.666 1.7-.284.284-.816.216-1.183-.15zm328.69-4.885c-.134-2.337-.037-2.4 1.162-.76.72.984 1.097 2.132.839 2.55-.94 1.522-1.856.702-2-1.79zm-149.35.551c0-.55.477-1 1.06-1s.78.45.44 1-.816 1-1.058 1-.441-.45-.441-1zm174.48-.932c.401-1.26-.002-2.262-1.175-2.918-.998-.559-1.398-1.364-.907-1.825.483-.453 1.08-.262 1.325.425.487 1.366 2.86 1.702 3.532.5.23-.412.268-.15.083.582-.184.733-.336 1.922-.336 2.643s-.704 1.582-1.565 1.912c-1.188.456-1.418.137-.956-1.319zm-358.48-.509c0-.857.45-1.559 1-1.559s1 .424 1 .941-.45 1.22-1 1.56-1-.084-1-.942zm336-1.059c0-.825.45-1.5 1-1.5s1 .675 1 1.5-.45 1.5-1 1.5-1-.675-1-1.5zm-340.83-.5c.184-.55.784-1 1.334-1s1.15.45 1.333 1c.184.55-.416 1-1.333 1s-1.517-.45-1.333-1zm336.83-5.5c0-.825.178-1.5.394-1.5.216 0 .652.675.969 1.5.316.825.14 1.5-.394 1.5-.532 0-.968-.675-.968-1.5zm-153-1.23c-2.265-.865-17-12.403-17-13.313 0-.436 1.463-1.755 3.25-2.93 1.788-1.176 5.276-4.551 7.75-7.5 4.95-5.9 6-6.517 6-3.527 0 1.265.668 2 1.814 2 .997 0 3.106 1.35 4.687 3 3.25 3.392 6.948 3.9 8.417 1.155 1.14-2.129-1.1-6.155-3.424-6.155-.767 0-1.754-.572-2.193-1.27-1.468-2.333-5.6-3.432-9.3-2.473-4.885 1.266-16.451 2.61-23 2.672-7.834.074-15.041-3.455-18.59-9.103-1.494-2.379-3.601-5.617-4.682-7.195-1.081-1.579-2.264-3.988-2.63-5.354-.498-1.864-3.028-3.74-10.13-7.513-5.208-2.766-10.818-5.464-12.468-5.996-5.467-1.763-12.018-5.053-10.867-5.457 1.699-.598 18.08 6.21 25.805 10.726 3.731 2.18 7.128 3.964 7.548 3.964s1.036-1.238 1.367-2.75c.332-1.513 1.47-3.853 2.53-5.2 1.497-1.903 2.234-2.199 3.29-1.321 1.04.863 1.95.675 3.845-.792 1.92-1.486 2.182-2.118 1.156-2.786-.988-.643.032-2.073 4-5.612 6.758-6.025 14.853-9.86 18.161-8.602 4.198 1.596 14.665 10.994 14.665 13.167 0 1.627-.447 1.905-2.25 1.398-1.708-.48-1.896-.39-.778.378 1.697 1.167 1.674 1.198-2.971 4.001-1.925 1.161-3.072 2.113-2.547 2.115.524.002-.734 1.731-2.795 3.842l-3.748 3.838-3.837-3.838c-2.496-2.496-4.754-3.838-6.456-3.838-3.731 0-3.389 2.86.833 6.952 3.346 3.243 3.63 3.325 9.5 2.711 5.548-.58 7.696.202 5.05 1.837-.55.34-1 1.052-1 1.582s1.125.227 2.5-.674c1.375-.9 2.5-2.23 2.5-2.955 0-2.525 7.732-3.361 18.04-1.952 6.056.828 8.838 2.816 17.004 12.147 5.643 6.449 6.987 10.555 4.395 13.42-1.876 2.073-.643 2.737 1.36.733 1.899-1.898 1.525 1.292-.487 4.165-1.197 1.709-1.343 2.525-.5 2.806.653.217 1.188.794 1.188 1.281 0 .487-.57.667-1.264.4-.695-.266-2.109.985-3.142 2.782-2.7 4.696-11.844 12.736-16.29 14.322-3.856 1.375-11.563 1.76-14.304.714zm12.969-42.209c1.145-2.14.132-3.359-1.8-2.165-.68.42-.947 1.516-.594 2.434.818 2.134 1.126 2.1 2.394-.269zm-24.703-26.658c.973-.973-.363-3.402-1.872-3.402-.766 0-1.393.6-1.393 1.333 0 2.215 1.91 3.425 3.265 2.07zm-4.265-3.211c0-.445-.642-1.682-1.428-2.75-1.308-1.777-1.485-1.797-2.089-.24-.363.937-.368 2.175-.012 2.75.76 1.23 3.53 1.418 3.53.24zm197.75 72.046c-2.906-.637-1.964-2.237 1.318-2.237 2.723 0 2.987-.252 2.356-2.242-.61-1.92-.494-2.062.8-.988 1.23 1.021 1.761.953 2.856-.366 1.149-1.384 1.059-1.83-.617-3.06-1.08-.792-2.75-1.235-3.712-.986-1.988.516-2.411-.923-.5-1.699.962-.39.929-.731-.146-1.482-1.713-1.196-.739-4.177 1.364-4.177.842 0 1.532.831 1.532 1.847s.9 2.885 2 4.153c2.24 2.582 2.415 3.778 1.071 7.312-.967 2.544-5.3 4.587-8.321 3.925zm-26.092-3.788c.607-1.582 2.343-1.994 2.343-.556 0 .491-.653 1.143-1.45 1.449-.968.372-1.264.076-.893-.893zm21.842-.45c.34-.55.817-1 1.06-1s.44.45.44 1-.476 1-1.059 1-.78-.45-.44-1zm-3.04-3.066c-1.077-1.741.149-2.11 1.52-.457.79.95.865 1.524.202 1.524-.585 0-1.36-.48-1.723-1.067zm-17.807-3.15c-.75-2.873-.361-3.146 1.114-.784.656 1.05.802 2.15.326 2.443s-1.124-.452-1.44-1.66zm-334.9.528c-1.803-.472-2.466-2.311-.831-2.311 1.73 0 4.081 1.214 4.081 2.107 0 .933-.369.956-3.25.204zm308.9-3.544c-.32-1.228-.148-2.668.384-3.2.623-.623.967-.391.967.651 0 .89.273 2.33.607 3.2.334.87.161 1.582-.383 1.582s-1.253-1.005-1.575-2.233zm45.861-3.783c.346-.56 1.047-.758 1.56-.441 1.386.857 1.128 1.457-.629 1.457-.857 0-1.276-.457-.93-1.016zm-165.91-3.828c-.346-.56-.142-1.32.454-1.687 1.538-.95 2.53.351 1.246 1.635-.718.718-1.277.735-1.7.052zm162.2-1.356c.934-.933 1.467-.933 2.4 0s.667 1.2-1.2 1.2-2.133-.267-1.2-1.2zm-333.35-22.887c-.37-.598-.17-1.588.441-2.2.818-.817 1.113-.528 1.113 1.087 0 2.415-.52 2.787-1.554 1.113zm295.71-5.386c-1.738-1.91-3.16-3.868-3.16-4.35 0-.483-1.35-1.912-3-3.177-1.83-1.403-3-3.215-3-4.65 0-1.292-.44-2.35-.977-2.35s-1.887-1.884-3-4.188c-2.426-5.02-2.48-5.436-.5-3.792 1.832 1.52 2.962.688 2.104-1.549-.369-.96-1.532-1.505-2.874-1.344-3.081.371-6.753-1.807-6.753-4.007 0-.995-.889-2.614-1.975-3.597s-2.241-2.627-2.567-3.655c-.326-1.027-1.146-1.868-1.823-1.868-1.66 0-8.635-7.236-8.635-8.959 0-.756-.285-1.09-.632-.742-.347.347-2.935-1.306-5.75-3.673-6.269-5.27-14.105-10.626-15.549-10.626-.588 0-1.07-.428-1.07-.953 0-.524-1.569-1.697-3.486-2.607-4.72-2.24-9.904-7.58-8.312-8.564.661-.41 1.562-.522 2-.25s.798.005.798-.59c0-.963 4.685 1.408 6 3.037.275.34 1.625.905 3 1.255 1.375.349 4.075 2.126 6 3.949s4.963 3.91 6.75 4.64c3.237 1.321 4.753 3.597 1.586 2.382-1.136-.436-1.43-.259-.924.558.406.658 1.334 1.072 2.062.92 1.682-.352 10.527 6.197 10.527 7.794 0 .66 1.12 1.934 2.49 2.831 1.37.898 4.524 3.666 7.01 6.152 3.581 3.58 4.397 5.008 3.929 6.874-.326 1.295-.105 2.655.49 3.022.617.382 1.106-.107 1.14-1.14.055-1.716.12-1.713 1.25.058.655 1.027 2.878 3.943 4.94 6.481 2.063 2.538 3.75 5.008 3.75 5.488 0 .48 1.307 2.809 2.903 5.175 1.597 2.365 3.237 5.354 3.646 6.641.409 1.288 2.022 4.705 3.585 7.594 3.286 6.073 2.543 6.743-1.973 1.78zm-16.16-28.527c0-.55-.45-1-1-1s-1 .45-1 1 .45 1 1 1 1-.45 1-1zm-47-43c0-.55-.2-1-.442-1s-.719.45-1.059 1-.141 1 .441 1 1.06-.45 1.06-1zm36 72.94c0-.582.45-.78 1-.44s1 .816 1 1.059-.45.44-1 .44-1-.476-1-1.058zm-118-5.94c0-.55.45-1 1-1s1 .45 1 1-.45 1-1 1-1-.45-1-1zm128.69-6.967c-1.455-1.632-3.876-5.247-5.381-8.035-1.706-3.158-3.599-5.284-5.022-5.642-1.501-.376-2.285-1.317-2.285-2.742 0-2.04-8.258-11.08-15.355-16.81-1.57-1.267-3.627-3.011-4.57-3.875s-4.722-3.547-8.396-5.962c-3.673-2.416-6.679-4.766-6.679-5.223s-.787-.7-1.75-.538c-1.02.17-1.75-.333-1.75-1.207 0-1.98 4.971-1.671 7.083.44.858.858 1.996 1.56 2.53 1.56 1.605 0 6.887 4.288 6.887 5.59 0 .668 1.238 1.664 2.75 2.212 3.405 1.236 14.224 11.601 19.34 18.53 2.099 2.843 4.317 5.744 4.929 6.446s2.946 4.078 5.186 7.5 4.989 7.235 6.109 8.472c1.604 1.774 1.716 2.25.526 2.25-.83 0-2.698-1.335-4.152-2.966zm-42.122-17.8c-.302-.302-.048-1.153.565-1.891.612-.738.768-1.342.345-1.342s.446-1.125 1.93-2.5c2.94-2.726 5.68-3.513 3.63-1.044-.665.8-.918 1.926-.563 2.5.355.574.168 1.044-.414 1.044s-1.06.622-1.06 1.383c0 1.412-3.437 2.846-4.433 1.85zm-66.567-1.292c0-.583.45-.781 1-.441s1 .816 1 1.059-.45.44-1 .44-1-.476-1-1.058zm51.583-1.807c-.43-.697-.513-1.537-.183-1.867.895-.895 1.871.42 1.388 1.87-.339 1.017-.575 1.016-1.205-.003zm-78.583-1.512c0-.208.686-.946 1.523-1.641 1.274-1.057 1.42-.995.893.377-.538 1.402-2.416 2.385-2.416 1.264zm73.75-2.702c-.962-.561-1.75-1.676-1.75-2.478 0-1.204.347-1.243 1.981-.222 2.02 1.262 3.538 3.804 2.238 3.75-.395-.017-1.506-.49-2.469-1.05zm-6.25-3.92c-.34-.55.11-1 1-1s1.34.45 1 1-.79 1-1 1-.66-.45-1-1zm-70.5-7c0-.55.9-1 2-1s2 .45 2 1-.9 1-2 1-2-.45-2-1zm2-5.56c0-.857.45-1.28 1-.94s1 1.041 1 1.559-.45.94-1 .94-1-.7-1-1.558zm4-5.44c0-.55.477-1 1.06-1s.78.45.44 1-.816 1-1.059 1-.44-.45-.44-1zm74.36-6.465c-2.276-1.31-5.426-2.528-7-2.708-2.08-.238-2.947-.941-3.18-2.577-.175-1.238-.143-2.25.072-2.25 1.571 0 9.748 3.352 9.748 3.996 0 .444 1.35 1.279 3 1.854 1.65.575 3 1.744 3 2.598 0 2.038-.706 1.924-5.64-.913zm-56.34-.06c.696-.838 1.471-1.318 1.723-1.066.693.694-.716 2.59-1.924 2.59-.663 0-.587-.573.201-1.523zm41.48-5.017c-5.488-1.326-12.635-3.846-14.138-4.984-1.679-1.272-1.344-1.414 3.404-1.442 5.842-.036 13.243 1.902 13.22 3.461-.025 1.597-1.393 3.23-2.486 2.965zm-154.47-2.42c-.809-.51-1.21-1.19-.892-1.508.318-.318 1.148.107 1.843.946 1.443 1.738 1.166 1.902-.95.563zm7.971-13.597c0-.858.45-1.281 1-.941s1 1.041 1 1.559-.45.94-1 .94-1-.7-1-1.558zm8-6c0-.858.45-1.281 1-.941s1 1.041 1 1.559-.45.94-1 .94-1-.7-1-1.558zm4 .677c0-.55.45-1.278 1-1.618s1-.168 1 .382-.45 1.278-1 1.618-1 .168-1-.382zm63-20.118c0-.55.477-1 1.06-1s.78.45.44 1-.816 1-1.059 1-.44-.45-.44-1z" fill="#763d17"/></svg>