<svg id="Слой_1" xmlns="http://www.w3.org/2000/svg" viewBox="0 0 907 1133"><style>.st0{fill:#763d17}</style><path class="st0" d="M230 1130.5v-2.5h20v5h-20v-2.5zm35 0v-2.5h20v5h-20v-2.5zm35 0v-2.5h20v5h-20v-2.5zm35 0v-2.5h20v5h-20v-2.5zm35 0v-2.5h20v5h-20v-2.5zm35 0v-2.5h20v5h-20v-2.5zm35 0v-2.5h20v5h-20v-2.5zm35 0v-2.5h20v5h-20v-2.5zm35 0v-2.5h20v5h-20v-2.5zm35 0v-2.5h20v5h-20v-2.5zm35 0v-2.5h20v5h-20v-2.5zm35 0v-2.5h20v5h-20v-2.5zm35 0v-2.5h20v5h-20v-2.5zm33.4 1.6c-.3-.3-.5-1.3-.5-2.3 0-2.1 1.5-2.5 12.3-3.4l7.8-.6v2.6c0 2-.5 2.6-2.3 2.6-1.2 0-5.5.4-9.5.8s-7.5.6-7.8.3zm-480.4-1.5c-7.2-1.1-7.5-1.2-7.2-3.6.2-1.4.4-2.5.5-2.5.1 0 4.3.6 9.4 1.4 8.7 1.3 9.3 1.6 9.3 3.8 0 2.6-.3 2.7-12 .9zm514.5-4.6c-.4-1.2-.5-2.3-.3-2.5 1-.9 18-4.6 18.8-4 .6.3 1 1.4 1 2.4 0 1.4-1.6 2.1-7.3 3.5-4 .9-8.2 2-9.4 2.3-1.6.3-2.3-.1-2.8-1.7zm-540-.5c-.6-.2-4.3-1.3-8.3-2.4-5.7-1.7-7.3-2.5-7.3-4 0-1.1.4-2.1.8-2.4.4-.3 4.7.7 9.5 2.1 7.7 2.3 8.7 2.9 8.7 4.9.1 2.1-.9 2.6-3.4 1.8zm573.1-9.2c-.8-2.1-.6-2.3 8.8-6.3 7.6-3.3 7.9-3.3 9.3-1.5 1.8 2.4 1.4 2.7-7.9 6.4-9.1 3.6-9.4 3.6-10.2 1.4zm-613.4-5.3c-7.6-3.6-8.2-4.1-7.2-6 .6-1.1 1.3-2 1.5-2 .2 0 4.2 1.8 8.9 3.9 7.4 3.4 8.5 4.2 8 6-.8 2.8-1.6 2.7-11.2-1.9zm645-9c-1.1-1.7-.9-2.2 1-3.4 1.2-.8 4.9-3.1 8.1-5.1 5.4-3.4 6-3.6 7.5-2.1s1.4 1.8-.8 3.6c-2 1.7-13.7 8.9-14.4 8.9 0 .1-.7-.8-1.4-1.9zm-674.5-7.3c-7.8-5.1-8.8-6.6-6.5-8.5 1-.8 3.2.2 8.8 3.9 4.1 2.7 7.6 5.3 7.7 5.7.1.4-.3 1.5-1 2.4-1.1 1.5-2 1.1-9-3.5zm703.6-11.6c-1.1-1.7-.4-2.6 6.4-8.2 7.1-5.8 7.7-6.1 8.9-4.4.7 1 1.1 2.2.9 2.5-.6.9-14.1 12-14.6 12-.2 0-1-.9-1.6-1.9zm-731.4-9.8c-7-6.2-7.7-7.4-5.5-9.2 1.2-1 2.5-.3 7.3 4 9.4 8.4 8.8 7.6 7.4 9.4-.7.9-1.6 1.6-2 1.6-.5-.1-3.7-2.7-7.2-5.8zm757.6-12.7c-2.2-1.6-1.8-2.3 6.1-10.9 4.5-4.9 5.3-5.4 6.8-4.2 2.2 1.6 1.8 2.3-5.5 10.3-5 5.5-5.8 6-7.4 4.8zM55 1047.8c-5.5-6.6-5.9-7.3-4.4-8.5 1-.7 2-1.3 2.3-1.3s3.2 3.2 6.4 7.1c4.7 5.7 5.6 7.3 4.6 8.5-.7.8-1.6 1.4-2 1.4s-3.6-3.3-6.9-7.2zm804.1-14.2c-.9-1.1 0-3.1 4.2-9.5 5-7.5 5.5-8 7.3-6.7 1.9 1.4 1.9 1.5 0 4.7-2.9 5.1-8.7 12.8-9.6 12.8-.4.1-1.3-.5-1.9-1.3zm-822.3-10.9c-1.9-2.9-4.2-6.7-5.1-8.4-1.6-3.1-1.6-3.2.4-4.3 1.2-.6 2.2-1 2.3-.8 1.9 2.7 9.6 15.8 9.6 16.2 0 .3-.8 1-1.9 1.6-1.6.8-2.4.2-5.3-4.3zm840.4-18.5c-1-.6-.3-2.9 2.7-9.5 2.2-4.8 4.2-8.7 4.4-8.7 1.4 0 3.6 1.4 3.6 2.3 0 2.1-7.3 16.7-8.4 16.7-.5 0-1.6-.4-2.3-.8zM20.4 992.3C16.6 983.7 15 979 16 979c.5 0 1.5-.2 2.3-.5 1-.4 2.5 2 5.1 7.9 2 4.7 3.7 8.7 3.7 9 0 .3-.9 1-2 1.6-1.9 1-2.4.5-4.7-4.7zm870-20.1c-.7-.5-.1-3.7 1.8-9.9 2.5-8 3.1-9.1 4.8-8.6 2.5.7 2.4 3-.4 11.8-2.1 6.7-3.7 8.5-6.2 6.7zm-881.3-11c-4.2-16-4.1-15.1-1.9-15.8 1.1-.3 2.2-.4 2.6 0 .3.3 1.6 4.5 2.8 9.3 1.7 6.5 2 8.9 1.1 9.5-2.4 1.5-3.6.7-4.6-3zm890.6-21.9c-1.3-.3-1.7-1.1-1.3-2.6.3-1.2.8-4.4 1.1-7.2 1.1-9 1.4-9.5 4.1-9.5 2.3 0 2.5.3 2 3.5-.3 1.9-.8 5.2-1.1 7.3-.9 6.6-1.6 9.3-2.3 9.1-.4-.1-1.5-.3-2.5-.6zM2.5 930.1c-.3-.5-.9-5-1.2-10L.7 911h2.6c2.3 0 2.7.4 2.7 3.3 0 1.8.3 6.3.6 10 .6 6.4.5 6.8-1.4 6.8-1.1-.1-2.3-.5-2.7-1zM902 895v-10h5v20h-5v-10zM0 886v-10h5v20H0v-10zm902-26v-10h5v20h-5v-10zM0 851v-10h5v20H0v-10zm902-26v-10h5v20h-5v-10zM0 816v-10h5v20H0v-10zm902-26v-10h5v20h-5v-10zM0 781v-10h5v20H0v-10zm902-26v-10h5v20h-5v-10zM0 746v-10h5v20H0v-10zm902-26v-10h5v20h-5v-10zM0 711v-10h5v20H0v-10zm902-26v-10h5v20h-5v-10zM0 676v-10h5v20H0v-10zm902-26v-10h5v20h-5v-10zM0 641v-10h5v20H0v-10zm902-26v-10h5v20h-5v-10zM0 606v-10h5v20H0v-10zm902-26v-10h5v20h-5v-10zM0 571v-10h5v20H0v-10zm902-26v-10h5v20h-5v-10zM0 536v-10h5v20H0v-10zm902-26v-10h5v20h-5v-10zM0 501v-10h5v20H0v-10zm902-26v-10h5v20h-5v-10zM0 466v-10h5v20H0v-10zm902-26v-10h5v20h-5v-10zM0 431v-10h5v20H0v-10zm902-26v-10h5v20h-5v-10zM0 396v-10h5v20H0v-10zm902-26v-10h5v20h-5v-10zM0 361v-10h5v20H0v-10zm902-26v-10h5v20h-5v-10zM0 326v-10h5v20H0v-10zm902-26v-10h5v20h-5v-10zM0 291v-10h5v20H0v-10zm902-26v-10h5v20h-5v-10zM0 256v-10h5v20H0v-10zm902-25c0-5 0-9.3-.1-9.8-.1-1.4 3.3-1.5 4.2-.1.5.7.9 5.3.9 10.1 0 8.7 0 8.8-2.5 8.8s-2.5-.1-2.5-9zM.5 221.7c.4-5.1.9-9.5 1.1-9.9s1.3-.4 2.4-.1c2.2.6 2.4 1.8 1.3 12.5-.6 6.3-.8 6.8-3.1 6.8H-.3l.8-9.3zM900 205.8c0-.2-.7-4.1-1.5-8.8-1.9-10.9-1.9-11 .8-11 2.2 0 2.5.7 4 9.2.9 5.1 1.5 9.3 1.4 9.4-.5.4-4.7 1.5-4.7 1.2zM4.1 194.2c.1-4.4 3.3-16.6 4.4-16.9.5-.2 1.6.1 2.3.5 1.1.7 1 2.5-.5 10-1.6 8.3-2 9.2-4.1 9.2-1.8 0-2.2-.5-2.1-2.8zm888.6-23c-1-1.7-5.9-17.4-5.5-17.7.2-.2 1.3-.5 2.3-.7 1.7-.3 2.5 1 5.1 8.7 2.2 6.3 2.8 9.2 2 9.7-1.4 1-3.4 1-3.9 0zm-878.9-7.9c-2.2-.6-2.3-.2 1.6-10.3 2.7-7.1 3.6-8.4 5.2-8.2 1.1.2 2.1.5 2.3.7.5.5-6 18.5-6.7 18.4-.4-.1-1.5-.3-2.4-.6zm862.9-31.7c-4.3-8-4.6-10.6-1.1-10.6 1.2 0 9.4 14.7 9.4 16.9 0 .5-.9 1.1-2 1.4-1.6.4-2.7-.9-6.3-7.7zM27 131c-1.3-.8-.9-2.1 2.5-8.6 4.8-9 5.6-9.9 8-8.1 1.7 1.2 1.5 1.8-2.9 9.5-2.6 4.5-5 8.2-5.4 8.2-.4 0-1.4-.5-2.2-1zm832-28.4c-2.8-4.1-5.2-7.8-5.2-8.2 0-.4.7-1.2 1.6-1.8 1.8-1.1 2.4-.6 9.2 9.2 3 4.3 3.4 5.5 2.4 6.8-.7.8-1.6 1.5-2.1 1.5s-3.1-3.4-5.9-7.5zm-814-1.1c-1.4-1.7.4-4.9 7.4-13 3.2-3.7 3.5-3.9 5.1-2.3 1.6 1.6 1.3 2.1-4 9-3.1 4-6.1 7.5-6.5 7.6-.4.1-1.3-.4-2-1.3zm791.7-25.9c-5.8-6.5-6.5-7.6-5.1-8.7 2.1-1.7 3.4-.8 10.1 6.7 5.1 5.8 5.2 6.1 3.5 7.7-1.8 1.6-2.2 1.3-8.5-5.7zM67 74.5c-1.5-1.8.1-3.8 8.3-10.7 4.5-3.8 4.9-3.9 6.5-2.3 1.6 1.6 1.3 2.1-5.3 8.1-3.8 3.5-7.3 6.4-7.6 6.4-.4 0-1.2-.7-1.9-1.5zm746.6-19.6c-2.7-2.2-6-4.8-7.4-5.8-2.2-1.6-2.3-2.1-1.3-4l1.2-2.2 3.7 2.7C820.9 53.8 822 55 820.7 57c-.7 1.1-1.4 1.9-1.7 1.9-.3 0-2.7-1.8-5.4-4zM93.1 51.8c-1.5-2.3-1.7-2 6.8-8.2 7-5.1 8.5-5.5 9.5-2.9.7 1.8.7 1.8-10 9.4-4.9 3.7-5.1 3.7-6.3 1.7zm689.3-17.6c-7.5-4.3-8-4.9-7.1-7l1-2.2 7.6 4.1c10.2 5.5 10.3 5.6 8.8 8-.7 1.1-1.4 1.9-1.7 1.9-.3-.1-4.2-2.2-8.6-4.8zm-660.5-1.3c-.6-1.1-.8-2.3-.6-2.7s4.1-2.5 8.6-4.7c6.9-3.3 8.3-3.7 9.1-2.5.5.8.8 1.8.7 2.3-.1.4-4 2.8-8.5 5.2-7.9 4.2-8.2 4.3-9.3 2.4zm629.3-13.1c-8-3-9.1-3.9-7.4-6.6.6-1 2.6-.6 9.1 1.8 10.4 3.8 10.2 3.7 9 6.1-1.2 2.3-.6 2.4-10.7-1.3zm-597.5-.4c-.4-.4-.7-1.5-.7-2.4 0-2.5 17.8-8.6 18.7-6.4 1.1 2.8-.5 4-7.8 6.3-4.1 1.3-7.8 2.5-8.4 2.8-.6.2-1.4 0-1.8-.3zm564.2-9.3c-4.2-.9-7.7-2-7.8-2.4-.8-4.3.3-4.5 11.3-2.1 6.8 1.5 7.5 1.9 7.5 4 .1 2.8-.4 2.8-11 .5zm-531.2-.8c-.4-.3-.7-1.4-.7-2.3 0-1.3 1.6-2 7.8-3 11.4-1.9 11.7-1.8 12.1.7.1 1.3.1 2.3-.1 2.3s-4.1.7-8.8 1.5c-9.8 1.7-9.5 1.7-10.3.8zm34-6c-.6-2.9.8-3.3 10.9-3.3 8.2 0 8.4 0 8.4 2.4s-.2 2.4-9.4 2.8c-9.1.3-9.5.2-9.9-1.9zm459.5 2c-4.9-.3-5.3-.5-5.3-3V-.3l7.7.6c4.2.4 8.7.6 10 .6 1.8 0 2.3.5 2.3 2.5.1 2.8-.3 2.9-14.7 1.9zM255 2.5V0h20v5h-20V2.5zm35 0V0h20v5h-20V2.5zm35 0V0h20v5h-20V2.5zm35 0V0h20v5h-20V2.5zm35 0V0h20v5h-20V2.5zm35 0V0h20v5h-20V2.5zm35 0V0h20v5h-20V2.5zm35 0V0h20v5h-20V2.5zm35 0V0h20v5h-20V2.5zm35 0V0h20v5h-20V2.5zm35 0V0h20v5h-20V2.5zm35 0V0h20v5h-20V2.5z"/></svg>