<svg width="808" height="852" viewBox="0 0 808 852" xmlns="http://www.w3.org/2000/svg"><path d="M481.17 759.72c-6.325-1.326-11.9-2.422-12.39-2.435-1.613-.042.205-10.988 2.42-14.572 2.245-3.632 8.36-7.45 11.93-7.45 2.677 0 2.575-1.429-.377-5.317-5.54-7.296-13.27-25.952-15.301-36.933-.675-3.648-1.555-3.473-5.014 1-6.58 8.508-13.838 25.494-16.351 38.266-1.026 5.215-2.234 7.702-6.175 12.717-6.202 7.892-8.885 8.833-21.779 7.634l-9.315-.867-2.296-4.5c-1.263-2.475-2.309-5.767-2.324-7.316-.058-5.737 4.35-10.625 9.616-10.662 7.49-.053 11.258-8.05 11.455-24.32.054-4.511.437-9.326.849-10.702 1.289-4.3 2.399 6.094 1.772 16.597-.423 7.087-1.19 10.7-3.25 15.288-3.391 7.557-5.547 9.68-8.322 8.195-3.802-2.035-6.157-1.305-7.7 2.388-.797 1.907-1.45 3.92-1.45 4.474 0 1.403 5.982 4.515 9 4.684 1.376.077 3.873.707 5.55 1.4 3.847 1.59 10.843.63 15.342-2.106 3.24-1.97 3.28-2.075 1.524-4.014-1.744-1.927-1.734-2.01.315-2.545 2.09-.547 2.827-2.587 4.824-13.36.357-1.925 1.953-5.565 3.547-8.088s2.9-4.84 2.9-5.147c0-.308 2.474-5.807 5.5-12.221 3.024-6.414 5.5-12.137 5.5-12.718 0-.582-2.682-6.541-5.96-13.242-5.765-11.79-10.022-25.394-11.544-36.892-.366-2.765-1.244-5.042-2.067-5.357-1.756-.674-1.893-4.014-.188-4.582.859-.287 1.172-2.545 1.018-7.334-.123-3.805.162-8.72.634-10.92.655-3.057.878-1.055.946 8.5.094 13.333 1.893 26.137 5.27 37.5 2.758 9.287 10.11 23.393 14.966 28.715 3.722 4.08 3.966 4.19 5.098 2.285 2.913-4.902 12.505-13.675 17.572-16.072 7.124-3.37 7.808-2.5 1.05 1.338-6.526 3.708-12.554 9.594-14.58 14.234-2.132 4.89-1.843 14.396.637 20.86 4.484 11.69 16.958 25.395 27.923 30.681 10.739 5.177 13.725 6.366 17.725 7.06 3.645.634 3.778.76 1.5 1.41-2.162.618-2.262.816-.738 1.464.97.412 3.12.55 4.777.307 1.878-.276 2.88-.037 2.656.634-.706 2.118-7.642 2.396-11.44.46-2.428-1.238-3.983-1.516-4.782-.853-1.188.986-5.7-1.022-16.85-7.502-5.518-3.206-11.795-3.835-15.97-1.601-3.096 1.656-3.326 2.85-.903 4.689 1.541 1.17 1.557 1.332.135 1.36-3.12.061-7.017 4.079-6.69 6.898.285 2.459.804 2.713 7.805 3.824 13.57 2.154 40.421 2.705 50.5 1.035 12.881-2.133 25.5-5.705 25.5-7.218 0-1.416-3.066-2.473-7.237-2.494-3.285-.016-26.735-11.376-24.426-11.832.885-.175 5.11 1.248 9.387 3.163 15.616 6.988 19.597 8.084 28.277 7.782 5.393-.187 8-.916 8-2.237 0-.536-2.025-3.14-4.5-5.786-6.308-6.744-5.628-7.649.902-1.2 2.972 2.935 5.865 5.05 6.431 4.7.566-.35.85-2.43.632-4.624-.219-2.194.009-5 .506-6.234.679-1.69.918-.617.966 4.33.073 7.615 1.591 9.71 9.091 12.55 4.756 1.8 23.668 2.519 31.472 1.196 2.2-.373 3.213-.453 2.25-.177s-1.75.983-1.75 1.571c0 .717 2.556.88 7.75.496 6.495-.482 12.703-1.957 26.525-6.304.977-.307 1.652-.187 1.5.267-.536 1.608.765 1.758 3.918.452 2.242-.928 3.285-2.089 3.5-3.896.199-1.664 1.415-3.19 3.442-4.318 4.48-2.491 10.982-9.661 13.527-14.913 1.2-2.475 3.545-6.513 5.212-8.974 3.85-5.682 4.482-12.7 2.17-24.106-2.343-11.565-10.474-28.202-13.293-27.198-.756.269-1.25-.423-1.25-1.749 0-1.207-2.093-5.182-4.651-8.833-9.11-13.005-11.95-19.62-12.971-30.217-.41-4.261-.224-7.343.529-8.75 1.826-3.413 3.018-2.54 1.828 1.338-1.484 4.835.497 15.162 4.506 23.49 3.538 7.35 8.339 15.616 10.635 18.31 1.436 1.686 1.624 1.446 2.747-3.5.662-2.92 1.959-8.01 2.88-11.31 4.321-15.476 8.147-31.701 10.138-43 2.32-13.167 7.31-48.225 7.879-55.354.291-3.656.758-7.787 1.036-9.18.357-1.782-1.138-5.793-5.031-13.5-9.588-18.982-14.162-26.958-15.617-27.23-.775-.145-2.234 1.195-3.242 2.977-1.64 2.897-1.94 3.051-2.833 1.455-.735-1.314-.449-2.956 1.084-6.216 1.145-2.437 2.08-4.998 2.079-5.691 0-.694-2.961-7.786-6.577-15.761s-7.477-16.584-8.58-19.131c-1.514-3.492-2.91-5.03-5.674-6.254-2.016-.892-4.79-2.265-6.166-3.05-6.802-3.883-35.327-17.565-36.619-17.565-2.3 0-7.69 2.988-9.666 5.358-.982 1.178-2.899 4.167-4.259 6.642s-3 5.24-3.642 6.144c-.996 1.4 1.354 4.212 15.885 19 15.937 16.219 27.235 27.893 50.674 52.356 5.27 5.5 9.591 10.412 9.604 10.917.03 1.17 4.146 5.16-35.926-34.818l-34.984-34.902-6.234 2.798c-3.429 1.539-7.026 2.844-7.994 2.901s-2.941 1.68-4.386 3.604c-2.382 3.175-10.484 14.954-12.953 18.833-.55.864-2.63 3.698-4.622 6.297-2.642 3.448-3.92 4.427-4.726 3.622-.805-.806-.222-2.206 2.158-5.178 4.525-5.651 24.69-36.112 24.69-37.296 0-.532.9-1.782 2-2.778s2-2.165 2-2.6c0-.723-11.05-12.633-23.5-25.327-6.92-7.056-8.976-9.573-7.823-9.573.542 0 6.8 5.854 13.905 13.009 7.105 7.155 13.683 13.253 14.618 13.552 2.11.673 7.703-2.057 10.075-4.919 2.857-3.448 7.16-12.997 6.028-13.374-.564-.188-2.776-1.29-4.915-2.449s-6.813-3.62-10.389-5.47c-15.106-7.815-26.142-14.064-27.764-15.721-1.659-1.695-1.603-1.707 1.265-.277 30.659 15.293 42.28 20.67 43.592 20.167 1.618-.62 9.03-13.113 10.394-17.518.425-1.375 2.076-5.096 3.668-8.27 3.437-6.852 4.123-5.002-8.983-24.23-15.069-22.109-21.7-30.976-23.41-31.306-.872-.168-6.013 3.015-11.425 7.073s-17.608 13.14-27.104 20.18l-17.265 12.8.398 3.626c.608 5.542-1.388 7.127-8.97 7.127h-6.291l-11.803 8.83c-40.675 30.433-76.185 56.568-104.8 77.135-7.15 5.138-13.42 9.716-13.932 10.172-.873.776 4.807 9.923 6.642 10.698.434.183.79.748.79 1.254 0 .507 2.111 3.957 4.691 7.667 7.492 10.77 2.553 5.474-6.216-6.667-4.386-6.073-8.2-11.05-8.475-11.06s-2.75 1.674-5.5 3.744c-6.162 4.637-137.78 100.27-151.02 109.73-5.212 3.724-5.558 4.22-5.007 7.186.571 3.074.246 3.441-9.191 10.41-5.381 3.973-14.283 10.556-19.783 14.628s-11.125 8.23-12.5 9.236c-46.473 34.034-59.97 46.028-64.078 56.945-5.06 13.446 1.463 28.476 15.578 35.896 7.205 3.788 17.672 3.79 25.753.003 7.548-3.538 15.613-11.29 22.482-21.613 6.909-10.383 10.459-12.09 17.849-8.584 4.007 1.901 7.417 6.972 7.417 11.029 0 1.595-1.125 4.555-2.5 6.579-1.375 2.023-2.5 4.042-2.5 4.485 0 1.51-7.047 10.784-12.281 16.164-11.378 11.693-25.66 18.54-40.49 19.41-3.448.201-6.759.856-7.356 1.453-1.68 1.68-14.145-2.176-22.62-6.998-3.989-2.27-7.253-4.378-7.253-4.685s-2.66-3.396-5.91-6.866c-17.772-18.968-20.638-42.487-8.054-66.095 6.452-12.106 9.377-14.566 63.106-53.084a9674.926 9674.926 0 0 0 30.17-21.75c15.969-11.562 20.558-13.888 22.188-11.25.926 1.5 2.948 1.21 5.242-.75 1.127-.962 5.502-4.225 9.723-7.25 4.22-3.025 9.555-6.898 11.854-8.606 13.037-9.687 38.733-28.427 51.68-37.691 5.225-3.738 10.79-7.789 12.368-9 1.577-1.212 8.327-6.146 15-10.964 6.672-4.819 17.082-12.35 23.132-16.736s16.175-11.717 22.5-16.29 11.5-8.837 11.5-9.474-.675-2.126-1.5-3.309c-1.317-1.888-16.008-21.664-22.792-30.68-1.345-1.788-2.022-3.25-1.504-3.25s6.758 7.831 13.869 17.403 13.56 17.684 14.333 18.028 2.348-.219 3.5-1.25c1.98-1.774 36.43-26.979 41.25-30.18 1.241-.826 21.626-15.368 45.298-32.316 34.244-24.517 43.172-31.364 43.685-33.5.354-1.477 1.49-4.372 2.523-6.435 1.461-2.918 2.466-3.75 4.529-3.75 1.458 0 3.41.686 4.336 1.525 1.537 1.391 2.95.62 16.034-8.75a8776.68 8776.68 0 0 1 27.893-19.876c7.45-5.28 13.685-10.314 13.856-11.186.171-.872-2.947-5.777-6.93-10.9-11.177-14.376-22.98-28.958-26.488-32.726l-3.178-3.412-15.355 1.71c-8.445.94-15.726 2.08-16.179 2.533s.097 8.194 1.223 17.203c2.464 19.721 2.799 22.645 3.482 30.38.46 5.223.409 5.481-.4 2-.834-3.592-7.986-47.448-7.986-48.972 0-.586-4.434-.14-10.04 1.01-1.353.278-5.77 1.033-9.817 1.68s-7.562 1.709-7.813 2.363c-.251.655 3.21 8.512 7.691 17.461 13.96 27.88 13.31 29.196-.968 1.958-5.046-9.625-9.593-17.924-10.104-18.441-.582-.588-2.717-.498-5.69.24-2.617.65-11.06 2.71-18.76 4.58-31.023 7.532-71.57 21.382-103.75 35.439-7.562 3.303-13.736 5.708-13.72 5.344.044-1 27.55-13.308 43.97-19.676 12.306-4.772 38.527-13.832 55-19.003 2.476-.777 12.572-3.462 22.437-5.967 9.865-2.505 18.129-4.748 18.364-4.983.235-.235-1.824-4.614-4.576-9.73-13.066-24.292-47.895-95.334-46.236-94.31.487.301 1.52 1.775 2.295 3.277 2.061 3.986 15.31 29.386 24.5 46.969 4.38 8.382 12.183 23.831 17.34 34.332l9.376 19.093 4.5-.606c2.475-.334 9-1.405 14.5-2.38l10-1.774-.16-4.952c-.144-4.468-3.928-36.89-4.91-42.067-.22-1.164-9.248-10.928-20.062-21.7l-19.66-19.585-2.944 1.522c-1.62.837-3.579 1.279-4.354.981-2.294-.88-1.609-3.515 1.09-4.193 1.375-.345 2.5-1.297 2.5-2.115 0-1.257-29.962-32.008-36.705-37.672-1.213-1.02-4.813-2.428-8-3.13s-9.17-2.042-13.295-2.975a2052.868 2052.868 0 0 0-14-3.11c-9.447-2.053-41.104-6.387-51-6.982-4.675-.28-9.625-.77-11-1.086-1.375-.317-15.775-.736-32-.933-16.225-.196-29.725-.446-30-.555-1.815-.718 16.03-1.333 35.5-1.223 36.993.207 69.886 3.835 103.62 11.43 10.22 2.3 11.123 2.352 10.7.615-.605-2.484-32.336-28.884-48.674-40.5-11.586-8.235-16.244-11.34-20.649-13.765-1.65-.908-3.675-2.233-4.5-2.945-.825-.711-8.025-4.675-16-8.809-13.146-6.813-25.845-11.773-41-16.012-11.64-3.256-31.146-4.835-32.508-2.632-.373.604-1.246.666-2.161.153-.845-.472-3.3-.537-5.455-.142-4.118.753-5.953-.347-3.939-2.36 1.843-1.843 30.298-1.31 50.281.943 5.214.588 5.629.811 4.707 2.534-.74 1.382-.664 2 .282 2.297.711.224 3.768 1.175 6.793 2.113 19.867 6.16 59.918 28.916 77 43.75.825.716 4.641 3.754 8.48 6.751s7.684 6.124 8.542 6.95 5.141 4.645 9.519 8.49c10.6 9.31 47.79 46.172 53.459 52.988 2.475 2.975 5.287 5.69 6.25 6.033.962.343 1.75 1.052 1.75 1.577s13.188 14.107 29.307 30.183 31.507 31.704 34.196 34.729c2.689 3.025 7.163 7.976 9.943 11.003s7.529 8.378 10.554 11.892 6.335 7.338 7.356 8.497c1.022 1.16 8.71 10.658 17.085 21.108 28.214 35.203 52.456 71.669 73.79 111 8.717 16.073 25.166 50.57 29.2 61.243 1.506 3.984 3.15 7.498 3.654 7.809s.917 1.326.92 2.256c.01 1.86-.041 1.764 9.19 18.191 11.285 20.083 18.418 34.034 26.076 51 18.46 40.901 27.75 72.056 31.832 106.75 1.183 10.053 2.031 11.716 4.641 9.106.859-.858 1.041-.671.73.75-.227 1.042-1.55 9.32-2.942 18.394-1.39 9.075-3.02 19.2-3.619 22.5-1.303 7.177-6.064 21.5-7.146 21.5-1.003 0-1.065.287 1.238-5.773 3.19-8.39 5.996-28.186 5.987-42.226-.016-25.774-4.525-49.527-16.131-85-7.89-24.11-25.96-67.234-27.52-65.674-.348.348-.748 1.88-.888 3.403-3.189 34.72-9.65 68.367-20.6 107.27-3.348 11.895-3.387 13.276-.475 16.589 1.458 1.658 2.573 2.32 2.591 1.539.061-2.631 2.76.77 4.89 6.161 3.193 8.08 5.213 17.21 5.311 24.01.113 7.794-.806 17.307-1.83 18.95-.43.688-.833 2.68-.897 4.427-.158 4.343-3.13 8.828-4.885 7.372-1.018-.845-2.229.38-5.434 5.49-2.268 3.618-4.143 6.89-4.167 7.27-.064 1.02-10.825 7.828-15.457 9.78-19.358 8.155-51.792 8.722-72.5 1.267-3.025-1.089-6.504-2.227-7.731-2.53-3.179-.785-7.269.45-7.269 2.194 0 1.017-1.063 1.481-3.394 1.481-1.868 0-6.255.873-9.75 1.939-19.837 6.05-22.615 6.498-40.597 6.53-10.63.02-17.341.415-17.5 1.031-.146.565 3.003 1.248 7.242 1.57l7.5.57-8.5.115c-5.542.075-12.502-.725-20-2.297zm168-319.58c0-3.832-30.598-56.379-32.829-56.379-.737 0-2.349 2.915-3.618 6.544-1.258 3.599-3.055 8.027-3.993 9.84-.937 1.813-1.46 3.93-1.163 4.706s.114 1.41-.408 1.41c-1.083 0-4.989 7.242-4.989 9.252 0 .732 1.463 2.03 3.25 2.885 5.36 2.56 25.692 13.373 34.25 18.212 8.689 4.913 9.5 5.214 9.5 3.53zm-126.5-165.96c6.05-.62 11.154-1.272 11.342-1.448.543-.51-1.098-3.02-4.342-6.645-1.65-1.844-6.6-7.396-11-12.339-17.424-19.573-21.5-23.202-21.5-19.143 0 .739 1.35 10.186 3 20.992s3 19.928 3 20.27 1.913.355 4.25.03c2.338-.324 9.2-1.097 15.25-1.717zm-41.769 469.43c.677-.274 2.027-.29 3-.037.973.253.419.478-1.231.498-1.65.02-2.446-.187-1.769-.461zm247.27.378c0-1.66 2.38-6.722 3.161-6.722 1.794 0 .456 6.461-1.411 6.815-.963.182-1.75.14-1.75-.093zm-217-4.722c0-.55.45-1 1-1s1 .45 1 1-.45 1-1 1-1-.45-1-1zm160.44-.9c.296-.478 2.497-1.163 4.892-1.522a649.2 649.2 0 0 0 6.762-1.048c2.799-.458 12.033-1.246 23.408-1.997 4.965-.328 7.24-.197 5.999.345-1.101.48-5.826 1.17-10.5 1.531-8.587.664-23.147 2.26-28.298 3.103-1.54.252-2.558.066-2.263-.412zm-79.938-7.981c-4.354-2.72-8.993-7.963-11.607-13.12-1.255-2.474-2.869-4.86-3.587-5.3-.719-.439-1.306-1.934-1.306-3.321 0-1.388-2.45-7.435-5.442-13.44-2.993-6.003-6.417-13.587-7.607-16.853-1.191-3.266-3.21-6.92-4.486-8.119s-2.086-2.79-1.8-3.538c.287-.747-.42-2.68-1.572-4.298-1.151-1.617-2.093-3.252-2.093-3.633 0-1.938-12.255-17.643-22.578-28.934-13.071-14.296-12.562-15.6.712-1.83 10.021 10.395 18.285 21.272 23.485 30.908 2.036 3.772 4.463 7.758 5.394 8.858s2.468 4.438 3.415 7.418c.947 2.98 4.91 11.53 8.805 19 6.515 12.494 7.29 13.56 9.674 13.318 2.479-.252 2.508-.198.676 1.232-3.278 2.559-.468 8.756 7.61 16.782 6.977 6.932 7.551 8.144 2.306 4.868zm13.185-.133c-6.707-2.02-13.646-10.317-12.068-14.43.814-2.122 2.383-1.967 2.383.236 0 2.268 7.593 9.751 11.315 11.15 1.548.582 5.95 1.058 9.782 1.058 11.65 0 22.498-4.69 30.734-13.286 3.57-3.727 8.169-14.85 8.169-19.76 0-1.859.516-2.955 1.393-2.955.766 0 1.666-.711 2-1.581 2.076-5.41-1.32-16.332-9.716-31.25-2.994-5.318-6.435-11.693-7.648-14.168-1.213-2.475-3.49-5.625-5.06-7-5.446-4.767-7.56-24.588-4.07-38.154 5.645-21.94 19.519-34.057 32.6-28.476 2.84 1.211 2.653 1.276-3.5 1.215-5.333-.054-7.066.358-9.655 2.293-3.361 2.512-6.923 8.471-9.933 16.622-1.015 2.75-2.839 6.474-4.052 8.276-4.108 6.102-4.4 24.737-.504 32.202 1.01 1.937 2.792 5.321 3.959 7.521s2.347 5.125 2.624 6.5 3.426 7.398 6.997 13.384c3.571 5.987 7.244 13.186 8.161 16 .918 2.814 2.051 5.603 2.519 6.198.467.595.477 5.095.02 10-1.483 15.927-8.838 26.104-24.474 33.864-8.857 4.395-9.795 4.64-19.236 5.005-5.459.21-11.192.002-12.74-.465zm2.82-13.606l-5.994-5.53-.64 3.126c-1.02 4.988-1.86 4.756-2.016-.559-.975-32.994-7.646-56.255-19.295-67.272-2.992-2.83-5.917-5.145-6.5-5.145-1.511 0-1.31 2.616.466 6.05 2.139 4.136.826 3.675-4.063-1.427-2.838-2.963-4.41-5.63-4.864-8.25-1.013-5.866-4.612-15.214-8.282-21.516-4.276-7.34-12.1-15.474-13.518-14.056-1.322 1.321-3.23.622-8.547-3.136-5.487-3.878-4.683-4.695 1.217-1.237 2.508 1.47 4.99 2.406 5.516 2.08 3.712-2.293 16.412 11.222 22.537 23.983 2.463 5.132 4.478 9.769 4.478 10.305s1.158 1.732 2.574 2.66c4.197 2.75 16.757 14.592 19.068 17.98 4.934 7.231 10.363 28.488 11.272 44.145l.585 10.082 6.25 6.248c5.464 5.463 6.958 7.216 6 7.044-.137-.025-2.947-2.534-6.244-5.576zm-155.59-29.629c.385-4.929.455-5.047 1.138-1.93.736 3.357.25 7.179-.915 7.18-.348 0-.448-2.362-.223-5.25zm-29.155-9.25c-2.101-8.47-2.45-36.602-.603-48.69 1.13-7.399 1.077-7.909-1.424-13.5-3.632-8.12-6.547-19.228-7.338-27.96-.658-7.256-.605-7.5 2.469-11.324 1.727-2.15 3.14-4.781 3.14-5.848s2.216-6.39 4.924-11.83c2.708-5.438 5.228-11.228 5.602-12.867.373-1.64 2.24-8.38 4.148-14.98 6.987-24.168 11.748-34.393 17.16-36.86 4.44-2.023 7.257-4.322 9.514-7.766 1.498-2.287 1.556-3.4.5-9.554-1.038-6.06-.968-7.656.543-12.276 1.762-5.387 10.553-21.434 11.322-20.666.966.966-1.911 8.479-5.026 13.121-4.474 6.67-5.866 10.896-4.646 14.105l.962 2.53 3.056-2.177c3.825-2.723 5.208-1.742 1.575 1.116-3.125 2.458-6.02 7.569-4.738 8.361.489.302 3.498-1.022 6.688-2.943 3.19-1.92 6.351-3.492 7.026-3.492.675 0 2.02-.304 2.988-.676.968-.371-.603 1.603-3.492 4.388-3.586 3.456-5.843 4.908-7.114 4.576-2.175-.57-14.77 11.449-17.469 16.669-1.05 2.032-2.179 3.005-3.082 2.659-.895-.344-2.01.586-3.001 2.502-2.496 4.827-6.59 17.91-7.318 23.382-.516 3.89-1.031 4.939-2.317 4.724-1.964-.329-2.338.203-3.299 4.676-.632 2.942-.501 3.313.966 2.75.933-.358 1.546-.31 1.362.109-.183.418-4.193 8.63-8.91 18.25-8.503 17.343-8.574 17.55-8.347 24.492.127 3.85.519 7.715.872 8.59.354.876 0 2.123-.79 2.779-1.54 1.278-1.221 3.677 1.613 12.131.83 2.475 1.792 5.738 2.138 7.25.71 3.103 1.762 3.436 3.948 1.25 2.254-2.254 2.654-1.83 1.47 1.565-.587 1.685-.81 4.65-.496 6.588.462 2.846.286 3.414-.912 2.955-3.484-1.338-4.896 12.412-3.274 31.893 1.063 12.773.827 24.903-.39 20zm103.42-7.029c-6.964-4.866-11.96-6.665-16.173-5.823-1.68.337-3.066.06-3.54-.706-1.236-2 12.578-.475 17.197 1.9 4.84 2.487 12.361 9.079 10.34 9.06-.826-.006-4.346-2-7.824-4.43zm16.823.528c0-.55.675-1 1.5-1s1.5.45 1.5 1-.675 1-1.5 1-1.5-.45-1.5-1zm204.08-32.583c.048-1.165.285-1.402.605-.604.288.722.253 1.585-.08 1.917s-.568-.258-.525-1.313zm.653-13.337c-.435-1.663-.305-2.053.437-1.311.58.58.86 1.646.62 2.368-.25.749-.704.296-1.057-1.057zm.259-6.83c-.021-7.862-.932-31.067-1.502-38.25-1.783-22.466-2.272-27.013-4.628-43-5.74-38.947-17.387-82.5-31.34-117.2-2.308-5.74-3.171-6.858-6.02-7.798-1.828-.604-3.575-1.75-3.881-2.55s-1.472-1.45-2.589-1.45c-1.84 0-2.031.632-2.035 6.75-.01 15.152-4.705 34.81-11.71 49.023-5.144 10.437-7.087 11.94-2.431 1.881 3.406-7.36 8.623-23.882 9.679-30.655.386-2.475.915-5.4 1.177-6.5.95-3.993 1.108-31.164.22-37.5-4-28.51-12.125-51.164-24.651-68.716-4.853-6.8-17.312-22.287-21.003-26.105-.703-.727-1.262-1.627-1.242-2 .07-1.334 15.575 15.54 21.44 23.332 11.294 15.007 19.998 33.281 24.047 50.489.97 4.125 3.515 11.007 5.654 15.294 5.076 10.172 15.357 34.909 21.14 50.866 14.688 40.517 24.616 86.157 29.116 133.84.875 9.27 1.865 54 1.196 54-.346 0-.634-1.687-.64-3.75zm-253.49-19.369c-4.4-3.36-9.87-7.91-12.157-10.11-2.356-2.27-4.65-3.7-5.294-3.301-1.791 1.107-5.834-2.127-8.023-6.416-2.668-5.231-3.719-5.692-6.666-2.923-1.382 1.298-3.89 2.41-5.635 2.498-3.49.176-6.782 3.53-8.594 8.754-.965 2.785-1.02 2.586-.509-1.875.52-4.541 1.116-5.49 6.588-10.5 6.86-6.28 11.257-9.007 14.524-9.007 3.032 0 2.885 2.396-.234 3.818-4.037 1.839-4.05 1.823 9.837 13.563 3.39 2.865 8.595 7.126 11.569 9.467 7.999 6.298 14.499 12.153 13.485 12.146-.49-.003-4.491-2.754-8.891-6.114zm17.544-4.88c-.141-1.376-.182-3.664-.092-5.086.135-2.133-1.113-3.516-7.144-7.916-4.02-2.933-9.22-6.178-11.558-7.212-2.338-1.034-4.25-2.31-4.25-2.834s-.9-.953-2-.953-2-.45-2-1c0-2.489 11.743 1.041 18.498 5.561 2.89 1.935 5.37 2.972 5.88 2.46 1.11-1.108-1.424-10.021-2.848-10.021-.568 0-2.14-2.138-3.491-4.75-1.352-2.613-5.549-7.788-9.326-11.5-6.545-6.432-7.75-8.566-2.934-5.192 1.224.857 2.675 1.28 3.226.939 1.137-.703 10.995 4.373 10.995 5.662 0 .462.48.84 1.068.84.682 0 .876-1.722.537-4.769-.93-8.353-2.501-11.805-14.059-30.886-3.061-5.053-4.022-7.468-3.271-8.219 1.346-1.346 13.218 19.552 16.29 28.677 1.167 3.467 2.53 6.322 3.028 6.345.499.023 1.339-1.357 1.867-3.066.983-3.18 3.287-3.746 2.733-.672-.26 1.446.267 1.606 3.5 1.062 7.164-1.204 10.209-2.596 13.242-6.05 3.733-4.253 4.486-7.05 3.768-14.006-.52-5.036-.35-5.615 2.48-8.445 2.86-2.86 3.056-3.554 3.324-11.754.323-9.858-1.81-16.735-6.282-20.252-3.807-2.996-4.91-2.463-5.486 2.65-.653 5.798-4.99 12.15-10.285 15.063-4.91 2.702-9.455 3.91-9.455 2.511 0-.566 1.237-1.327 2.75-1.69 6.302-1.518 17.418-12.663 15.02-15.06-1.008-1.008-18.941 8.281-22.612 11.712-4.787 4.474-6.487 8.442-5.79 13.52.326 2.382.386 4.33.133 4.33s-1.37-1.781-2.481-3.96c-1.345-2.635-2.02-5.913-2.02-9.8 0-10.462 7.1-17.795 18.211-18.805 5.677-.516 5.072.035-3.267 2.976-6.296 2.22-11.666 7.94-12.525 13.34-.86 5.404.826 5.648 3.453.5 2.667-5.226 4.317-6.482 15.127-11.522 5.225-2.436 10.353-5.392 11.396-6.569 1.89-2.132 1.883-2.145-2-3.807-4.897-2.097-19.273-3.024-22.242-1.434-2.176 1.164-3 4.082-1.153 4.082.55 0 1 .45 1 1 0 1.704-4.056 1.101-6.727-1-1.399-1.1-3.607-2-4.908-2-4.56 0-2.315-1.62 2.385-1.72 2.612-.056 6.423-.817 8.468-1.691 2.044-.874 4.894-1.59 6.333-1.59 4.17 0 2.345-2.267-2.901-3.606-6.086-1.552-7.408-2.733-8.69-7.76-2.05-8.042-4.305-15.17-5.738-18.134-3.502-7.241-9.844-10.785-12.098-6.758-.536.958-1.223 1.493-1.527 1.19-1.271-1.272 2.641-4.932 5.272-4.932 5.184 0 9.254 6.041 13.535 20.085 3.311 10.866 5.083 12.556 16.288 15.55 5.321 1.42 10.716 3.664 13.777 5.73 2.767 1.867 6.3 3.69 7.853 4.052 3.543.826 7.397 8.676 8.758 17.84.51 3.434 1.354 8.043 1.876 10.243.874 3.69.738 4.166-1.75 6.151-2.515 2.007-2.587 2.275-1.08 4 4.54 5.194 4.424 5.866-2.33 13.549-9.937 11.302-9.93 11.296-16.296 12.695-3.3.725-6.788 2.015-7.75 2.866-1.438 1.272-1.756 1.298-1.784.143-.022-.932-.651-.664-1.871.797-2.257 2.704-1.978 8.104.868 16.763 1.09 3.32 2.23 8.682 2.531 11.918.594 6.367 3.755 11.522 9.632 15.707 4.471 3.184 2.729 3.448-3.607.548-5.98-2.738-6.1-2.688-6.827 2.862-.352 2.687-.42 2.74-.649.5zm-89.03-4.75c-.007-1.238.435-2.25.985-2.25 1.253 0 1.253 1.06 0 3-.784 1.212-.972 1.069-.984-.75zm31.914-29.75c-1.008-2.117-1.427-6.757-1.423-15.75.003-7.013-.222-12.749-.5-12.747-1.201.01-6.805 4-10.327 7.356-4.048 3.857-4.679 4.218-4.679 2.678 0-1.484 10.967-13.448 13.05-14.236 1.1-.416 2.287-2.436 2.938-5 2.3-9.046 5.459-16.124 10.231-22.92 2.722-3.875 5.182-6.814 5.466-6.53s-.597 2.01-1.959 3.833c-3.362 4.504-4.446 6.732-7.824 16.087-3.93 10.883-3.838 12.368.85 13.773 3.634 1.089 10.92 6.618 9.97 7.567-.257.257-2.628-.68-5.267-2.084-2.64-1.404-5.58-2.304-6.534-2.002-.954.303-2.49 2.44-3.413 4.748-1.745 4.359-1.54 10.39.655 19.349.555 2.267.826 5.192.602 6.5-.4 2.328-.438 2.314-1.836-.622zm27.205-21.418c-7.736-4.758-9.916-6.692-5.783-5.132 2.891 1.092 13.65 7.907 13.65 8.647 0 .997-1.943.129-7.867-3.515zm18.32-21.34c-.684-1.783 1.17-6.742 2.521-6.742 1.5 0 1.25 1.567-.475 3-2.354 1.953-1.783 3.287 1.098 2.564 1.883-.472 2.48-.296 2.171.642-.598 1.815-4.666 2.226-5.314.536zm28.499-5.831c-.615-1.149-2.708-3.849-4.652-6s-3.058-3.911-2.477-3.911 1.347.468 1.701 1.04c.354.573 1.444.787 2.422.476 1.237-.392 2.582.488 4.416 2.893 3.056 4.007 3.254 4.765 1.021 3.908-1.284-.493-1.475-.18-.932 1.531.872 2.747-.043 2.786-1.5.063zm-40.954-9.418c-1.232-5.93-1.084-8.633.5-9.16.606-.201 1.017 2.63 1.042 7.167.023 4.125-.058 7.5-.18 7.5-.12 0-.734-2.478-1.362-5.507zm-11-15.549c2.063-1.409 10.812-5.944 11.468-5.944.293 0 .533.475.533 1.055s-2.488 2.155-5.529 3.5c-5.69 2.517-9.235 3.278-6.471 1.39zm-140.11-59.195c-1.174-2.237-1.169-2.24.965-.345 2.384 2.117-37.11-47.045-38.53-47.045-.531 0 38.215 48.627 37.565 47.39zm211.61-20.75c-.34-.55-.167-1 .383-1s1.278.45 1.618 1 .168 1-.382 1-1.278-.45-1.618-1zm-2.5-3.059c0-.582.45-.78 1-.44s1 .816 1 1.058-.45.441-1 .441-1-.476-1-1.059zm109.88-3.823c-3.476-3.477-3.882-4.406-3.882-8.893 0-3.382.457-5.186 1.406-5.55 2.208-.847 4.501 2.44 3.893 5.581-.58 2.995 1.065 5.744 3.437 5.744 1.153 0 1.34-.736.821-3.25-1.838-8.912-1.794-10.513.347-12.654 2.962-2.961 5.784-2.608 9.593 1.201 4.901 4.901 6.508 12.632 3.099 14.902-1.99 1.326-4.723-2.342-4.045-5.43.68-3.096-.842-5.769-3.287-5.769-1.14 0-1.348.764-.881 3.25 1.914 10.2 1.908 10.459-.267 12.634-3.088 3.089-5.856 2.61-10.234-1.766zm-108.13-8.807c-.962-.251-1.75-.89-1.75-1.42 0-.553.955-.464 2.25.21 3.75 1.95 3.613 2.285-.5 1.21zm92.29-17.238c-1.56-2.915-.557-4.25 6.062-8.067 7.957-4.59 8.32-5.109 6.178-8.842-1.464-2.551-1.54-3.297-.44-4.37 1.09-1.063 1.831-.693 4.171 2.083l2.846 3.376 3.556-2.198c4.577-2.83 7.986-2.428 8.384.985.241 2.068-.468 2.97-3.818 4.853-3.086 1.734-3.937 2.723-3.405 3.96.39.906.922 2.885 1.182 4.398.648 3.774-1.971 3.66-4.724-.207l-2.105-2.956-7.34 4.456c-4.037 2.451-7.83 4.457-8.428 4.457-.598 0-1.552-.868-2.12-1.928zm-372.57-12.119c-.339-.547.96-1.654 2.888-2.46 1.927-.804 3.786-1.92 4.13-2.478.769-1.243 4.51-1.357 4.51-.138 0 2.146-10.486 6.763-11.529 5.076zm362.2-4.62c-1.974-1.974-.271-5.052 4.62-8.35 5.73-3.864 6.86-6.801 4.66-12.112-1.617-3.903-6.5-7.872-9.686-7.872-1.423 0-4.764 1.398-7.426 3.106-4.948 3.175-7.38 3.246-8.53.25-.72-1.88 5.123-7.437 9.928-9.443 10.402-4.344 25.381 12.419 21.972 24.588-1.477 5.272-12.882 12.49-15.539 9.833zm-25.181-39.481c-9.56-6.876-13.36-19.283-7.897-25.775 2.136-2.539 3.325-3.077 6.8-3.077 12.854 0 25.064 20.85 16.662 28.453-2.955 2.675-5.039 1.222-11.45-7.985-7.293-10.47-8.601-11.694-8.601-8.04 0 3.681 2.138 7.474 6.398 11.347 3.534 3.212 4.832 7.225 2.337 7.225-.695 0-2.607-.966-4.25-2.148zm11.523-13.83c-1.406-3.393-5.706-7.555-8.76-8.478-1.237-.374-2.25-.4-2.25-.059s2.584 4.084 5.742 8.318c4.934 6.614 5.79 7.367 6.082 5.351.187-1.29-.18-3.6-.814-5.132zm-344.89 11.33c-.147-2.72-9.362-30.66-15.947-48.353-7.417-19.926-18.842-48.04-28.02-68.942-4.454-10.143-18.717-38.51-18.458-38.768.661-.662 24.052 45.744 31.937 64.47 11.206 26.615 22.622 57.948 26.929 73.907.865 3.208 6.748 31.747 7.558 34.739.81 2.992-3.23-17.324-3.462-16.466-.27 1.002-.462.792-.537-.587zm364.63-29.558c-3.423-3.366-3.488-4.796-.219-4.796 1.392 0 2.79-.675 3.107-1.5.317-.825 1.12-1.5 1.787-1.5.666 0 2.98-1.578 5.143-3.506 2.162-1.929 4.72-3.76 5.682-4.068.962-.308 1.75-.983 1.75-1.5 0-1.844 19.655-13.604 20.809-12.45.912.912-9.822 10.49-12.513 11.164-1.263.317-2.296 1.132-2.296 1.81 0 .68-1.667 2.093-3.706 3.142-2.038 1.05-4.923 3.033-6.411 4.408-4.169 3.852-5.366 4.701-7.648 5.425-1.33.423-2.226 1.669-2.423 3.373l-.312 2.702zm-58.55-1.996c-2.282-2.282-1.18-4.77 3.89-8.776 3.873-3.062 5.977-4.024 8.804-4.024 6.947 0 17.57 8.936 14.396 12.11-.741.741-2.456-.012-5.75-2.527-2.581-1.97-5.478-3.582-6.436-3.582s-4.156 1.8-7.104 4c-5.956 4.443-6.104 4.496-7.8 2.8zm-9-11c-.66-.66-1.2-1.973-1.2-2.918s-1.513-2.653-3.361-3.796c-5.409-3.342-10.64-12.045-10.64-17.7 0-13.073 17.2-12.857 25.933.325 1.687 2.548 3.12 5.567 3.183 6.71.063 1.144.182 2.754.264 3.58.34 3.43-1.846 7.203-6.36 10.983-5.193 4.348-5.998 4.638-7.82 2.816zm7.716-12.948c1.336-2.39 1.293-3.06-.437-6.897-3.062-6.79-11.07-10.22-14.908-6.383-2.019 2.019-1.99 4.745.099 9.145 3.357 7.075 12.257 9.489 15.247 4.135zm50.072 8.887c-2.895-5.185-10.802-16.334-16.835-23.739-5.333-6.546-22.274-23.5-26.99-27.015-1.835-1.367-3.86-2.941-4.5-3.498-.64-.557-2.468-1.907-4.062-3-28.921-19.823-56.245-28.03-89.935-27.011-6.509.197-11.628.152-11.376-.1 1.67-1.67 24.918-2.441 36.21-1.2 8.56.94 19.163 3.301 33.25 7.402 1.237.36 2.248.265 2.247-.211-.003-.901-12.688-12.112-22.087-19.52-2.976-2.345-6.31-5.097-7.41-6.115-6.708-6.208-34.558-25.88-57-40.26-12.2-7.818-32.15-18.89-50-27.75-29.248-14.517-69.358-29.572-93.841-35.223-6.81-1.572-8.996-2.975-3.16-2.028 4.43.719 13.13 3.1 27.5 7.526 5.226 1.61 11.75 3.565 14.5 4.346 19.529 5.545 77.286 32.893 99.5 47.113 1.926 1.233 5.976 3.811 9 5.73 14.826 9.406 26.515 17.353 36.709 24.955 6.164 4.598 12.182 9.034 13.373 9.86s2.671 1.973 3.292 2.553c.62.58 4.727 3.9 9.127 7.38s8.225 6.606 8.5 6.947 3.409 3.094 6.964 6.12c3.554 3.024 7.604 6.565 9 7.867 4.817 4.499 10.56 8.745 17.036 12.6 14.729 8.765 33.03 25.312 45.829 41.436 6.262 7.89 18.798 27.802 18.003 28.598-.262.262-1.542-1.431-2.843-3.762zm-87.489-32.128c-4.396-1.92-8.832-5.956-11.027-10.03-1.06-1.97-2.194-3.58-2.52-3.58-.326 0-2.433 1.574-4.682 3.5-4.71 4.03-6.737 4.365-8.337 1.375-1.027-1.917-.275-2.973 7.714-10.837 4.965-4.886 10.076-9.016 11.64-9.404 8.82-2.19 21.522 8.238 22.992 18.877 1.224 8.856-6.829 14.01-15.78 10.099zm7.672-6.266c4.332-3.92.447-12.935-6.898-16.004-3.68-1.538-6.49-.674-8.2 2.52-2.026 3.786 2.048 11.413 7.323 13.71 4.12 1.793 5.59 1.75 7.775-.226zm-79.671-45.345c2.749-1.181 4.328-1.181 2.5 0-.825.533-2.175.945-3 .914-.99-.036-.82-.347.5-.914zm-278.9-47.844c-.346-.56-.142-1.32.453-1.687 1.538-.95 2.53.351 1.246 1.635-.718.718-1.277.735-1.7.052zm3.626-1.325c.239-.716 2.127-1.432 4.197-1.59 2.693-.207 3.644.073 3.344.985-.23.7-2.119 1.416-4.197 1.59-2.757.232-3.66-.035-3.344-.985zm50.51-5.955c.678-.684 1.485-.99 1.793-.683s-.247.867-1.233 1.243c-1.426.542-1.54.427-.56-.56zm10.079-.56c.722-.288 1.584-.253 1.917.08.332.332-.259.568-1.313.525-1.165-.048-1.402-.285-.604-.604zm-40.771-11.625c-.023-.445 1.294-2.472 2.927-4.504 5.468-6.803 15.83-26.33 20.606-38.834 2.602-6.81 4.883-12.229 5.07-12.044.185.186-.814 4.355-2.222 9.264-2.935 10.237-8.703 22.752-14.895 32.316-4.416 6.821-11.413 15.228-11.486 13.8zm91.458-59.691c-.782-1.266.542-1.266 2.5 0 1.293.835 1.266.971-.191.984-.93.008-1.97-.434-2.31-.984zm-4.688-.683c.722-.29 1.585-.254 1.917.079.332.332-.258.568-1.312.525-1.165-.048-1.402-.285-.605-.604z"/></svg>