<?xml version="1.0" encoding="UTF-8"?>
<!-- Created with Inkscape (http://www.inkscape.org/) -->
<svg width="500" height="500" version="1.1" viewBox="0 0 500 500" xmlns="http://www.w3.org/2000/svg" xmlns:cc="http://creativecommons.org/ns#" xmlns:dc="http://purl.org/dc/elements/1.1/" xmlns:rdf="http://www.w3.org/1999/02/22-rdf-syntax-ns#">
 <metadata>
  <rdf:RDF>
   <cc:Work rdf:about="">
    <dc:format>image/svg+xml</dc:format>
    <dc:type rdf:resource="http://purl.org/dc/dcmitype/StillImage"/>
    <dc:title/>
   </cc:Work>
  </rdf:RDF>
 </metadata>
 <path d="m245.45 421.07c0-0.55 0.47656-1 1.059-1s0.7809 0.45 0.44098 1-0.81648 1-1.059 1-0.44098-0.45-0.44098-1zm-31.393-27c-2.2043-0.81638-11.561-9.4044-11.585-10.633-0.0245-1.2507 3.5168-2.4943 4.4488-1.5623 0.77789 0.77789 2.456 1.098 12.529 2.3896 9.0222 1.1569 13 3.3302 13 7.1028 0 1.5164 0.29744 1.7013 1.342 0.83436 0.7381-0.61257 1.6381-0.81767 2-0.45578 1.5312 1.5312 0.36502 2.0386-4.342 1.8893-2.75-0.0873-5 0.17405-5 0.58069 0 0.79758-10.169 0.67833-12.393-0.14532zm-15.583-1.1147c-1.8963-0.75667-2.1548-1.1864-1.1043-1.8357 0.7544-0.46624 1.0952-1.5681 0.75731-2.4486-0.94892-2.4728-2.6771-1.8924-2.6771 0.89908 0 2.5975-0.91921 3.1644-2.55 1.5728-0.5225-0.50995-3.425-1.191-6.45-1.5134-10.861-1.1576-12.2-1.63-13.364-4.7131-0.6767-1.7928-1.6064-2.6879-2.4539-2.3627-1.725 0.66194-8.1955-2.3553-8.8808-4.1412-0.68253-1.7786-4.4331-1.7099-6.86 0.12572-2.9242 2.2118-5.1459 1.8442-5.8518-0.9682-0.34511-1.375-1.2646-2.5-2.0433-2.5-0.77872 0-2.6826-0.52217-4.231-1.1604-1.5483-0.6382-3.3782-1.0683-4.0664-0.95586s-1.773-0.94035-2.4105-2.3396c-0.63756-1.3993-1.9319-2.5441-2.8762-2.5441s-2.2628-0.65757-2.9298-1.4613-2.0866-1.7386-3.1547-2.0776c-4.0504-1.2855-6.6428-4.7572-6.1316-8.2111 0.28771-1.9437 0.0505-3.25-0.59026-3.25-1.868 0-6.1362-8.3582-5.5036-10.777 0.34435-1.3168 0.12616-2.2226-0.53542-2.2226-0.61415 0-1.1166 0.48032-1.1166 1.0674 0 0.61231-0.85269 0.79675-2 0.43261s-2-0.1797-2 0.43261c0 0.58707 0.47656 1.0674 1.059 1.0674s0.78192 0.44835 0.44325 0.99633c-1.0382 1.6798-5.9529-1.5626-10.376-6.8455-2.2695-2.7106-4.1617-5.541-4.2049-6.2896-0.0432-0.74867-1.371-3.3862-2.9507-5.8612-1.5796-2.475-4.4578-7.2-6.396-10.5-3.3222-5.6566-3.4076-6.0187-1.4917-6.3271 2.5361-0.40821 1.8916-2.7353-0.69328-2.5032-1.227 0.11019-2.822-1.2926-4.5479-4-3.3995-5.3326-7.831-15.347-7.1101-16.068 0.30428-0.30428 0.10244-1.1266-0.44855-1.8274-0.55098-0.7008-1.2586-2.6242-1.5725-4.2742s-0.90532-3.8656-1.3143-4.9236c-0.61358-1.5872-0.40722-1.8094 1.18-1.2708 1.5502 0.52607 1.4868 0.34198-0.32639-0.94837-1.2375-0.88063-2.25-2.3912-2.25-3.3567s-0.63085-2.2791-1.4019-2.919c-0.77104-0.63991-1.6796-2.27-2.0191-3.6224s-1.2836-2.459-2.0981-2.459-1.4809-0.675-1.4809-1.5 0.51974-1.5 1.155-1.5c0.6751 0 0.44028-0.78974-0.56514-1.9007-1.126-1.2442-1.3522-2.1281-0.65499-2.559 0.58583-0.36206 1.0651-2.5574 1.0651-4.8785 0-3.073-0.54366-4.6121-2-5.6617-2.3961-1.727-2.6565-3.4659-0.38866-2.5956 1.1794 0.45257 1.4475 0.19124 1-0.9748-0.33624-0.87622-0.61134-1.7972-0.61134-2.0465s-0.9 0.0283-2 0.61697c-1.5631 0.83655-2 0.76049-2-0.34818 0-0.78021 0.9-1.6539 2-1.9416 1.3659-0.35719 2-1.364 2-3.1756 0-1.459-0.40316-2.4035-0.89592-2.0989s-2.1441-0.0939-3.6697-0.88535c-2.0136-1.0446-3.2989-1.158-4.6897-0.41367-1.0538 0.56396-2.1665 0.7748-2.4728 0.46853-0.98846-0.98846 1.8274-3.5043 3.2928-2.942 0.78015 0.29937 1.6944-0.1748 2.0317-1.0537 0.33727-0.87891 1.0286-1.3413 1.5364-1.0275 1.2827 0.79274 4.7936-3.6447 4.834-6.1098 0.0183-1.1153-0.86673-2.7984-1.9667-3.7402-2.4492-2.0971-2.4828-2.8125-0.25-5.3208 2.1691-2.4366 4.7159-7.6469 6.311-12.911 0.66662-2.2 2.3532-6.25 3.748-9 1.3948-2.75 2.6567-6.873 2.8042-9.1622 0.18063-2.8024 1.9212-7.0943 5.3276-13.137 2.7826-4.9361 5.0693-9.3632 5.0815-9.8378 0.0122-0.47465 0.90222-1.988 1.9778-3.363s1.9655-3.2875 1.9778-4.25c0.0122-0.9625 0.46068-1.75 0.99656-1.75s1.7218-1.4625 2.6355-3.25 2.2752-3.6099 3.0257-4.0497 1.3645-1.2234 1.3645-1.7414 1.5564-3.083 3.4586-5.7003c3.3674-4.6332 4.6826-6.3297 10.043-12.955 1.4224-1.7581 3.499-3.4863 4.6146-3.8403 1.2054-0.38259 1.8102-1.2125 1.4905-2.0456-0.33585-0.87521 0.66654-2.0246 2.6685-3.0599 1.7635-0.91196 5.0106-3.6904 7.2156-6.1743 10.3-11.602 14.136-14.65 16.556-13.154 0.76597 0.4734 2.4161-0.0508 4.1158-1.3074 3.0134-2.2279 3.8473-4.3231 1.3372-3.3599-0.825 0.31658-1.5 0.13972-1.5-0.39301 0-1.7194 3.8706-4.9005 6.7246-5.5267 1.5265-0.33493 3.4504-0.86782 4.2754-1.1842s1.8511-0.49926 2.2802-0.40641c0.4291 0.0928 2.1418-0.53526 3.8059-1.3958 1.6641-0.86056 4.2924-1.725 5.8406-1.9209 1.5482-0.19594 3.6605-0.81743 4.6941-1.3811 4.5373-2.4745 8.1462-3.805 9.7015-3.5767 0.92272 0.13542 1.6777-0.10598 1.6777-0.53646 0-0.8391 6.7847-1.9306 16.5-2.6544 3.3-0.24586 8.3645-0.86838 11.255-1.3834 2.89-0.515 5.9332-0.67592 6.7627-0.3576s2.065 0.13824 2.7455-0.40017c0.6805-0.5384 4.1433-1.2296 7.6951-1.5359 4.5541-0.39278 6.8388-1.0779 7.75-2.3241 0.74011-1.0122 1.2921-1.2388 1.2921-0.53061 0 0.85007 1.2355 1.0946 3.9532 0.78233 2.6587-0.30544 4.3395 0.0112 5.1327 0.96696 0.89373 1.0769 1.5106 1.1462 2.5468 0.28635 1.0609-0.88045 1.3673-0.77115 1.3673 0.48767 0 1.2217 0.97189 1.6224 3.9349 1.6224 2.1642 0 5.2017 0.48631 6.75 1.0807 1.5483 0.59439 5.0171 1.2678 7.7084 1.4965 2.6913 0.22866 5.3913 0.80867 6 1.2889 0.60871 0.48023 2.7499 1.1689 4.7583 1.5304 2.0083 0.36148 5.6802 1.7358 8.1596 3.0542 2.4794 1.3183 4.7045 2.2004 4.9447 1.9602 0.73384-0.73384 11.744 4.4943 11.744 5.5766 0 0.55693 1.2825 1.0126 2.85 1.0126 1.5796 0 4.6959 1.3372 6.9913 3 2.2778 1.65 4.4828 3.0125 4.9 3.0278 0.41726 0.0153 2.0712 1.3653 3.6753 3 1.6042 1.6347 3.4042 2.9794 4 2.9882 0.59583 9e-3 2.6583 1.4047 4.5833 3.1021s4.686 3.7001 6.1355 4.4505c2.6845 1.3897 10.864 10.058 10.864 11.513 0 0.44011-0.45 1.0783-1 1.4182-1.5114 0.93407-1.1982 2.5 0.5 2.5 0.825 0 1.5-0.50175 1.5-1.115 0-2.7798 16.238 12.138 17.483 16.062 0.35846 1.1294 1.0411 2.0535 1.517 2.0535s1.1535 0.90832 1.5059 2.0185c0.35235 1.1102 1.9742 3.4727 3.6041 5.25 1.6299 1.7773 3.2447 4.3565 3.5884 5.7315s1.3984 3.0504 2.3439 3.7231c0.94546 0.67271 2.4436 3.0339 3.3291 5.2471 0.88554 2.2132 3.1892 6.2707 5.1193 9.0166 3.5983 5.1194 4.2736 7.0132 2.5008 7.0132-0.64737 0-0.67613 0.62663-0.0803 1.75 1.5699 2.96 4.8302 13.457 5.9788 19.25 1.7765 8.9597 3.4447 20.301 3.4201 23.25-0.0126 1.5125 0.27365 2.75 0.63619 2.75 0.83843 0-0.30619 10.693-1.2451 11.632-0.38561 0.3856-0.7011-0.0489-0.7011-0.96557 0-1.9447-1.6271-2.2419-2.2815-0.41667-0.95083 2.6518 1.1683 4.6184 4.528 4.2022 1.7894-0.22167 2.8036-0.0766 2.2536 0.32237s-1.675 1.5972-2.5 2.6626c-1.3636 1.7611-1.3409 1.8776 0.25 1.2814 0.9625-0.36072 1.75-0.25747 1.75 0.22943 0 0.48691-0.5625 1.0862-1.25 1.3317-0.6875 0.24554-0.91526 0.80528-0.50613 1.2439s1.5696 0.0502 2.5787-0.86309c2.2804-2.0637 3.2939-2.1278 2.539-0.16054-0.31659 0.825-1.1327 1.5-1.8136 1.5-2.5887 0-4.3242 3.8504-6.3839 14.164-2.3196 11.614-4.7788 16.884-8.7167 18.678-3.4241 1.5601-3.4496 1.5483-3.4321-1.592 0.0193-3.4646 0.89447-4.7962 3.7347-5.6826 2.7885-0.87023 2.9538-2.5674 0.24997-2.5674-2.2029 0-2.2437-0.28713-1.064-7.4801 0.66826-4.0746 0.52105-5.2115-0.80961-6.2525-1.469-1.1491-1.4708-1.2186-0.0195-0.71776 1.9054 0.65753 2.8931-4.6987 2.8931-15.689 0-5.4315-0.31243-6.8604-1.5-6.8604-0.825 0-1.5-0.45-1.5-1s0.72314-1 1.607-1c1.0545 0 1.3983-0.5438 1-1.5818-0.33385-0.86998-0.60699-4.02-0.60699-7 0-4.1495-0.35123-5.4182-1.5-5.4182-0.825 0-1.5-0.43588-1.5-0.96862 0-0.53273 0.75312-0.67961 1.6736-0.32639 1.3342 0.51197 1.5201 0.25209 0.91684-1.2814-0.41622-1.058-1.1469-3.9486-1.6238-6.4236-1.6342-8.4812-2.1185-10.503-2.9948-12.5-0.48264-1.1-1.3183-3.575-1.8571-5.5-1.4772-5.2782-8.7152-22.591-10.524-25.175-0.87464-1.2487-1.5902-2.9861-1.5902-3.8608 0-0.87472-1.35-2.8838-3-4.4646s-3-3.4099-3-4.0646c0-0.65475-0.675-1.7507-1.5-2.4354s-1.5-1.6257-1.5-2.0911 0.675-0.58715 1.5-0.27057c1.7233 0.66128 1.9216-0.4625 0.46568-2.6384-0.87827-1.3126-1.1699-1.2833-2.3336 0.23446-1.4688 1.9156-2.6321 1.355-2.6321-1.2684 0-0.93535-2.475-4.2357-5.5-7.334-3.025-3.0984-5.5-6.3081-5.5-7.1327s-0.59081-1.4993-1.3129-1.4993-2.5624-1.3042-4.0896-2.8983c-2.3112-2.4124-2.5941-3.2396-1.6871-4.9343 1.6461-3.0758 1.3284-3.554-1.2423-1.8696-2.9071 1.9048-5.1366 0.75342-4.2077-2.173 0.37573-1.1838 0.23859-2.1248-0.30966-2.1248-0.54123 0-1.1661 0.5461-1.3886 1.2136-0.24927 0.74779-3.0448-0.76374-7.2839-3.9384-3.7836-2.8336-8.0266-5.7421-9.4288-6.4635-1.4022-0.72141-3.0976-1.9866-3.7676-2.8116-0.67-0.825-1.2325-1.1361-1.25-0.69136s-2.8443-0.60839-6.2818-2.3403c-8.0002-4.0308-11.678-5.6686-14.572-6.49-1.4249-0.40434-2.118-1.1914-1.7937-2.0366 0.29076-0.75769 0.0951-1.6456-0.43474-1.973-0.52986-0.32747-1.2287 0.096-1.553 0.94102-0.52002 1.3552-0.99107 1.3687-3.9929 0.11441-1.8718-0.78211-3.4034-1.2236-3.4034-0.98114 0 0.40054-5.4704-1.4582-10.5-3.5678-3.8075-1.597-7.6518-2.0856-26.657-3.3884-4.2115-0.28869-8.0365-0.5921-8.5-0.67424-0.46354-0.0821-1.0678-0.0828-1.3428-1e-3 -1.3843 0.40957-15.148 1.1778-19.665 1.0977-2.841-0.0504-5.455 0.37701-5.809 0.9498-0.354 0.57276-1.9451 1.0414-3.5358 1.0414-1.5907 0-5.5016 0.72172-8.691 1.6038-3.1893 0.88211-7.7113 2.0829-10.049 2.6685s-4.25 1.4388-4.25 1.8962c0 0.45733-1.35 0.83152-3 0.83152s-3 0.50175-3 1.115c0 0.68478-0.95106 0.49185-2.4648-0.5-3.1822-2.0851-3.8035-2.0359-3.08 0.24381 1.1429 3.6008-5.4461 6.3644-8.5268 3.5763-1.5546-1.4069-1.9283-1.4632-1.9283-0.29014 0 0.80025 0.50171 1.9567 1.1149 2.5699 0.81987 0.81987 0.30376 1.5344-1.9503 2.7-1.6859 0.87181-3.7656 1.5851-4.6215 1.5851s-2.5344 1.125-3.73 2.5c-2.5251 2.9041-4.0261 3.2313-3.6069 0.78625 0.16909-0.98619-0.44911-1.8664-1.4562-2.0733-1.2196-0.25059-1.75 0.26884-1.75 1.7138 0 1.1403 0.52844 2.0733 1.1743 2.0733 0.64588 0 0.11744 1.125-1.1743 2.5s-2.8113 2.5-3.3767 2.5c-0.56544 0-2.5411 1.4625-4.3903 3.25-3.0403 2.9389-3.4565 3.0825-4.3473 1.5-1.666-2.9596-3.0252-2.0102-2.3412 1.6355 0.73917 3.9401-0.56948 5.2404-3.4583 3.4362-2.5703-1.6052-3.8692-0.30514-2.2636 2.2657 1.1196 1.7928 0.59324 2.6533-5.16 8.4348-6.0158 6.0455-8.7365 9.3253-11.202 13.503-0.57147 0.96859-1.5542 2.3818-2.1839 3.1406-1.09 1.3133-2.5447 3.9059-10.568 18.834-1.9214 3.575-4.5294 9.425-5.7956 13s-2.5966 6.725-2.9566 7c-0.35999 0.275-0.65616 1.175-0.65817 2-2e-3 0.825-0.93589 5.325-2.0753 10-1.1394 4.675-2.3318 10.525-2.6497 13-0.59726 4.6497-1.8642 25.347-1.7139 28 0.89513 15.804 2.2835 26.481 4.2148 32.415 1.0589 3.2533 1.9252 6.9401 1.9252 8.1928 0 1.2527 0.90379 3.8095 2.0084 5.6817 1.1046 1.8722 2.6775 5.657 3.4952 8.4105 0.81773 2.7536 2.6139 6.6675 3.9916 8.6976 1.3776 2.0301 2.5048 4.2459 2.5048 4.9241 0 0.6782 0.67491 2.1966 1.4998 3.3743 0.82489 1.1777 1.2268 2.8528 0.89302 3.7225-0.33374 0.86969-0.10864 1.5812 0.5002 1.5812 0.60885 0 1.107 0.49774 1.107 1.1061s1.1547 2.0144 2.5661 3.1246c1.4114 1.1102 3.7189 3.8749 5.1279 6.1439 5.0612 8.1504 29.274 31.656 35.806 34.761 3.0896 1.4684 5.7162 3.1259 9.5157 6.0047 3.0544 2.3143 6.6098 4.154 15.231 7.8811 1.2393 0.53575 2.9282 1.3933 3.7532 1.9057 3.1187 1.937 10.696 5.0732 12.257 5.0732 0.89389 0 1.882 0.41538 2.1957 0.92306 0.31377 0.50769 1.8588 1.206 3.4334 1.5519 1.5746 0.34584 3.8979 1.7305 5.1628 3.0769 2.5602 2.7252 5.505 3.3336 4.5896 0.94813-0.31658-0.825-0.13972-1.5 0.39301-1.5 0.53274 0 0.96862 1.344 0.96862 2.9866 0 2.4207 0.61582 3.2472 3.25 4.362 1.7875 0.75648 4.1072 2.3375 5.155 3.5134l1.905 2.138-4.405-0.0634c-2.4228-0.0349-5.5192-0.50797-6.8809-1.0514zm-16.024-9.8853c0-0.55-0.45-1-1-1s-1 0.45-1 1 0.45 1 1 1 1-0.45 1-1zm-3-1c0-0.55-0.45-1-1-1s-1 0.45-1 1 0.45 1 1 1 1-0.45 1-1zm-5.2312-2.8064c0.46503-1.3951-4.4638-3.5002-5.9887-2.5577-0.63347 0.3915-0.10269 1.3797 1.3339 2.4835 2.5485 1.958 4.0191 1.9815 4.6548 0.0742zm-9.3506-2.8006c2.2091-0.8477 1.9771-2.393-0.35919-2.393-2.0872 0-3.4078 1.3179-2.3652 2.3605 0.78176 0.78175 0.77211 0.78164 2.7244 0.0325zm-27.085-12.82c0.60456-1.5755-1.378-6.5531-2.6149-6.5655-0.42977-4e-3 -1.0719 0.7797-1.4271 1.7422s-1.0996 2.0532-1.6543 2.4238c-1.4085 0.94088 1.139 3.8262 3.3782 3.8262 0.97381 0 2.0169-0.64203 2.318-1.4267zm-43.334-55.573c0-0.55-0.19844-1-0.44098-1s-0.7191 0.45-1.059 1-0.14148 1 0.44098 1 1.059-0.45 1.059-1zm-19.015-42.75c-0.0084-0.4125-0.43395-1.412-0.94563-2.221-1.1521-1.8218-2.5038-0.68243-1.694 1.4279 0.59808 1.5586 2.6679 2.1805 2.6396 0.79313zm-1.9847-14.25c0-0.55-0.45-1-1-1s-1 0.45-1 1 0.45 1 1 1 1-0.45 1-1zm323 0c0-0.55-0.42344-1-0.94098-1s-1.2191 0.45-1.559 1 0.0835 1 0.94098 1c0.85746 0 1.559-0.45 1.559-1zm-1-6.893c0-1.8699-2.2766-3.4971-3.367-2.4066-0.76849 0.76849 1.2044 4.2996 2.4022 4.2996 0.53065 0 0.96482-0.85186 0.96482-1.893zm-2-13.607c0-0.825-0.42344-1.5-0.94098-1.5-1.261 0-2.1641 1.5616-1.3652 2.3605 1.1262 1.1262 2.3062 0.68589 2.3062-0.86052zm-324.58-8.3512c-0.04367-1.1818 0.51883-2.1488 1.25-2.1488 0.75136 0 1.3294-1.087 1.3294-2.5 0-1.8333-0.53333-2.5-2-2.5-1.1 0-2 0.45-2 1s-0.675 1-1.5 1c-1.9079 0-1.9439 2.3867-0.05944 3.9507 0.79231 0.65756 1.1706 1.8991 0.84065 2.7589-0.4053 1.0562-0.14272 1.4052 0.80944 1.0757 0.77514-0.26821 1.3736-1.4546 1.3299-2.6364zm325.58-0.14879c0-0.55-0.675-1-1.5-1s-1.5 0.45-1.5 1 0.675 1 1.5 1 1.5-0.45 1.5-1zm-1.3697-5.25c-0.33164-1.2375-0.60913-2.5875-0.61664-3-8e-3 -0.4125-0.46365-0.75-1.0136-0.75-1.1123 0-1.3802 4.2865-0.33333 5.3333 1.438 1.438 2.536 0.55257 1.9636-1.5833zm-315.63-28.75c0-1.1-0.45-2-1-2s-1-0.45-1-1 0.62325-1 1.385-1c1.4253 0 4.615-4.1226 4.615-5.9648 0-0.56935-0.45-1.0352-1-1.0352-1.5337 0-5-3.8129-5-5.5 0-2.0758-1.7589-1.8882-2.3446 0.25-0.26365 0.9625-0.5329 4.5713-0.59833 8.0195-0.08861 4.6702 0.25547 6.4132 1.3488 6.8328 0.80729 0.30979 1.2231 1.201 0.92395 1.9805-0.33026 0.86066 0.08726 1.4172 1.0631 1.4172 0.94032 0 1.607-0.82971 1.607-2zm-2-9c0-1.1703 0.66667-2 1.607-2 1.0545 0 1.3983 0.5438 1 1.5818-0.33384 0.86998-0.60699 1.77-0.60699 2 0 0.23001-0.45 0.41821-1 0.41821s-1-0.9-1-2zm315.82 3.3329c-0.48655-2.5088-2.8233-2.8532-2.8233-0.4162 0 1.2283 0.64569 2.0833 1.5733 2.0833 0.93124 0 1.4414-0.68037 1.25-1.6671zm-5.8233-5.9162c0-0.87084-0.53438-1.4052-1.1875-1.1875-1.8542 0.61807-2.1618 2.7708-0.39583 2.7708 0.87083 0 1.5833-0.7125 1.5833-1.5833zm-3.6384-11.917c0.76678-1.9982-0.26283-4.5-1.852-4.5-1.7423 0-2.7379 4.2356-1.222 5.1989 1.7748 1.1278 2.4302 0.97881 3.074-0.69891zm-6.3616-14.5c0-1.1-0.20917-2-0.46482-2s-0.94648 0.9-1.5352 2c-0.85431 1.5963-0.76049 2 0.46482 2 0.86851 0 1.5352-0.86852 1.5352-2zm-268-22c0-0.55-0.45-1-1-1s-1 0.45-1 1 0.45 1 1 1 1-0.45 1-1zm248-4.9743c0-1.4231-5.8667-4.2261-7.1654-3.4235-0.71044 0.43908-0.25239 1.3408 1.2794 2.5186 2.5721 1.9778 5.886 2.4872 5.886 0.90483zm-244-3.0257c0-0.55-0.45-1-1-1s-1 0.45-1 1 0.45 1 1 1 1-0.45 1-1zm205.9-28.437c-0.26628-0.26628-1.4865-0.22203-2.7116 0.0983-1.7989 0.47041-1.9994 0.85722-1.0422 2.0105 1.0236 1.2334 1.3932 1.22 2.7116-0.0983 0.83951-0.83951 1.3085-1.7442 1.0422-2.0105zm-163.92-5.9884c-1.3451-1.3451-2.3454 0.0173-1.5448 2.1038 0.57449 1.4971 0.81466 1.5429 1.5819 0.30148 0.54563-0.88283 0.5309-1.8373-0.0371-2.4053zm151.92-0.1967c-1.5225-1.8345-2.8343-0.84679-2.183 1.6437 0.4174 1.5961 0.82001 1.778 1.9184 0.86633 1.046-0.86812 1.1115-1.4895 0.26455-2.5101zm-125.54-8.4036c0.47457-0.44026 0.571-1.2727 0.21429-1.8499-0.89173-1.4428-5.5772 0.74402-5.5772 2.6031 0 1.4433 3.5295 0.94763 5.3629-0.75317zm103.64 1.2164c0-1.3141-2.7885-4.7359-3.3786-4.1459-0.99841 0.99841 0.59475 4.9548 1.9952 4.9548 0.76085 0 1.3834-0.364 1.3834-0.80887zm-96-3.1911c0-0.55-0.47656-1-1.059-1s-0.7809 0.45-0.44098 1 0.81648 1 1.059 1 0.44098-0.45 0.44098-1zm76-2.559c0-0.79254-0.45-1.441-1-1.441s-1 0.92655-1 2.059 0.45 1.7809 1 1.441c0.55-0.33992 1-1.2665 1-2.059zm12.505 1.5513c1.0114-1.6365-1.843-3.7083-4.9549-3.5962-3.2609 0.11744-4.8768 2.6039-1.6922 2.6039 1.1134 0 2.3024 0.45 2.6424 1 0.79909 1.2929 3.2038 1.2883 4.0047-8e-3zm-57.505-3.5993c0-1.8149-2.6269-1.8076-3.3241 9e-3 -0.29595 0.77123-0.3001 1.6402-9e-3 1.9311 0.91829 0.91853 3.3331-0.48712 3.3331-1.9403zm-9-0.39301c0-0.55-0.45-1-1-1s-1 0.45-1 1 0.45 1 1 1 1-0.45 1-1zm22-0.5c0-0.825-0.45-1.5-1-1.5s-1 0.675-1 1.5 0.45 1.5 1 1.5 1-0.675 1-1.5zm6-0.5c0-0.55-0.45-1-1-1s-1 0.45-1 1 0.45 1 1 1 1-0.45 1-1zm10.457-1.0691c-0.74259-1.2016-3.4573-1.2127-3.4573-0.0142 0 1.0837 2.1704 2.0002 3.2663 1.3793 0.42147-0.23878 0.50742-0.85306 0.19098-1.365zm-8.2333 324.27c-1.6716-1.2865-1.9804-2.0473-1.1629-2.8649 0.80328-0.80328 0.80857-1.3014 0.019-1.7894-0.60181-0.37194-1.351-7e-3 -1.6648 0.81081-0.49522 1.2905-0.82469 1.2695-2.4929-0.15886-2.3657-2.0256-2.583-3.9823-0.23034-2.0739 1.0561 0.85665 1.418 0.9161 0.96308 0.1582-0.52634-0.87683 0.46237-1.2143 3.558-1.2145 2.3578-1.3e-4 6.8615-0.38915 10.008-0.86448 3.8564-0.58253 6.0973-0.51262 6.875 0.21449 0.83001 0.77605 1.2823 0.72799 1.612-0.17128 0.25209-0.6875 1.5571-1.25 2.9-1.25 1.3429 0 5.0023-0.9 8.132-2 3.1297-1.1 6.6815-2 7.8929-2s4.377-1.0874 7.0347-2.4165 6.4885-2.7233 8.5129-3.0983c2.0244-0.37499 3.9337-1.3411 4.2429-2.1469 0.30921-0.8058 0.99318-1.1987 1.5199-0.87318 1.0979 0.67853 17.056-7.4153 17.056-8.6506 0-0.44797 0.67119-0.81449 1.4915-0.81449s2.0536-0.9 2.7405-2 1.8928-2 2.6797-2c0.78689 0 2.1758-0.67433 3.0865-1.4985 1.4856-1.3444 1.8902-1.249 3.9352 0.92777 1.2536 1.3344 2.9065 2.1856 3.6729 1.8915 2.4891-0.95515 1.4707 1.584-1.3564 3.3822-1.5125 0.96198-3.1099 2.3224-3.5497 3.023-0.43983 0.70071-1.2974 1.274-1.9056 1.274-0.60825 0-2.4984 1.0401-4.2003 2.3113-1.7019 1.2712-4.5244 2.8874-6.2721 3.5914-1.7477 0.70403-3.955 2.1389-4.905 3.1887-0.95001 1.0497-2.5352 1.9086-3.5226 1.9086-0.98742 0-2.1552 0.60029-2.595 1.334s-3.6122 1.9202-7.0497 2.6366-6.25 1.6912-6.25 2.166c0 0.47485-1.1474 0.86336-2.5497 0.86336s-3.7648 0.61486-5.25 1.3664c-2.5094 1.2698-8.3838 2.7741-12.432 3.1836-0.95259 0.0964-2.4194 0.74572-3.2596 1.443-0.95359 0.7914-3.027 1.0667-5.518 0.73255-2.1947-0.29437-3.9904-0.21691-3.9904 0.17214s-2.3625 1.2012-5.25 1.8047c-4.814 1.0062-5.4472 0.91881-7.6242-1.0525l-2.3742-2.1499 0.6916 2.25c0.82636 2.6884-0.13891 2.8245-3.2192 0.45381zm14.761-3.4538c-0.0259-2.1107-1.6995-4.0443-2.8729-3.3191-1.4949 0.92388-1.4115 3.2815 0.1382 3.9068 2.1104 0.85155 2.7506 0.71396 2.7347-0.58772zm42.015-10.719c0-0.53273 0.675-0.70959 1.5-0.39301 0.825 0.31659 1.5 0.0775 1.5-0.53138 0-0.60885 0.64844-1.107 1.441-1.107 1.7918 0 2.9183-1.6599 1.656-2.4401-0.51463-0.31806-1.5555 0.0415-2.313 0.79897-0.75749 0.75749-2.3688 1.692-3.5806 2.0766-2.2078 0.70071-3.0823 2.5645-1.2034 2.5645 0.55 0 1-0.43588 1-0.96862zm-96 1.0276c0-0.51754 0.44485-1.2159 0.98855-1.5519 0.56686-0.35034 0.7345 0.0511 0.39301 0.94098-0.66479 1.7324-1.3816 2.0494-1.3816 0.61096zm19.686-2.7061c-0.16355-0.16354-3.8724-0.7384-8.2418-1.2775-4.3694-0.53907-11.094-1.8922-14.944-3.007s-9.025-2.558-11.5-3.207c-5.3797-1.4108-18.54-7.4358-21.885-10.019-1.3117-1.0131-3.1691-1.8421-4.1276-1.8421-0.95849 0-2.2784-0.64554-2.9333-1.4345-0.65481-0.78899-2.9083-2.3299-5.0078-3.4242-2.0995-1.0943-7.7372-5.7363-12.528-10.315s-9.2301-8.5058-9.8646-8.7257c-1.9349-0.67077-2.702-2.4797-2.1119-4.9802 0.46666-1.9775 0.23609-2.295-1.363-1.8768-1.9065 0.49857-3.1305-0.64167-10.995-10.243-3.4566-4.2197-10.64-16.525-11.675-20-0.40964-1.375-1.3723-3.2167-2.1392-4.0928-2.1804-2.4906-6.2671-13.573-8.4473-22.907-1.0919-4.675-2.7014-10.397-3.5765-12.716-0.87518-2.319-1.3899-5.2697-1.1438-6.5571 0.2461-1.2874-0.0696-5.9358-0.70155-10.33-1.2358-8.5923-0.94679-27.001 0.50074-31.897 0.4878-1.65 1.2022-5.6929 1.5876-8.9842 0.38539-3.2913 2.2477-10.266 4.1384-15.5 1.8907-5.2337 3.6727-10.416 3.96-11.516s1.8253-4.6263 3.4179-7.8362c1.5925-3.2099 2.8955-6.3664 2.8955-7.0145s2.3625-4.0946 5.25-7.659c2.8875-3.5644 5.925-7.6784 6.75-9.1422 1.7907-3.1771 15.358-17.848 16.506-17.848 0.44135 0 2.3573-1.8164 4.2576-4.0366 3.088-3.6076 10.677-9.1179 19.987-14.512 1.7875-1.0356 3.25-2.236 3.25-2.6674 0-0.43141 0.52756-0.78439 1.1724-0.78439s5.7748-2.2872 11.4-5.0828c5.6253-2.7955 11.735-5.4682 13.578-5.9392 1.8425-0.47102 7.6249-2.0138 12.85-3.4284 6.4989-1.7595 12.975-2.71 20.5-3.009 6.05-0.24035 11.225-0.51362 11.5-0.60726 0.275-0.0936 0.75048-0.14597 1.0566-0.11629 0.30614 0.0297 4.5811 0.30064 9.5 0.60214 9.2381 0.56625 11.118 0.9223 30.392 5.7563 9.3773 2.3519 22.052 7.1447 22.052 8.3387 0 0.15378-3.9375 0.26376-8.75 0.24441-6.4622-0.026-11.492-0.78816-19.238-2.9151-5.7684-1.584-12.216-3.0971-14.329-3.3625-5.849-0.7349-9.1107-1.6779-9.8788-2.8561-1.1613-1.7814-2.0149 0.0469-0.94666 2.0276 0.54796 1.0161 1.2593 2.6852 1.5808 3.7092 0.45884 1.4615 1.2809 1.7565 3.823 1.3719 2.7-0.40843 3.6889 0.0302 5.9478 2.6382 1.99 2.2975 2.7202 2.6823 2.75 1.4495 0.0224-0.92322-0.6665-2.3857-1.5308-3.25-1.4286-1.4286-1.3831-1.5714 0.5-1.5714 1.9636 0 2.5137 1.363 2.3344 5.7839-0.0346 0.85269 0.6682 1.0668 2.0925 0.6376 1.6905-0.50947 1.8937-0.38227 0.95978 0.60084-0.91617 0.96443-0.8347 1.7814 0.35939 3.6038 0.84927 1.2962 1.9138 2.1282 2.3657 1.8489 1.7529-1.0833 1.8895 1.462 0.14531 2.7065-1.0163 0.72513-3.3416 3.03-5.1674 5.122l-3.3195 3.8036 3.8065 3.8982c3.0903 3.1648 4.1534 3.7125 5.6506 2.9112 1.42-0.75994 1.8441-0.63383 1.8441 0.54823 0 0.84435-0.55043 1.5352-1.2232 1.5352s1.8022 3.0488 5.5 6.7751c7.1958 7.2514 8.3834 9.6797 4.2232 8.6355-1.6524-0.41473-2.5-0.21017-2.5 0.6034 0 0.94619-0.32632 0.96003-1.411 0.0599-0.91003-0.75526-1.63-0.81654-2.028-0.17262-0.7977 1.2907 2.5948 3.0987 5.8142 3.0987 1.3787 0 2.8155 0.4996 3.1929 1.1102 0.39771 0.6435 2.076 0.88467 3.9923 0.5737 2.7229-0.44187 3.5866-0.10849 4.8959 1.8898 0.87438 1.3345 2.4426 2.4263 3.4849 2.4263 3.2102 0 4.9648 1.0812 4.3509 2.6809-0.37552 0.97858 0.93475 2.8213 3.6989 5.2019 4.7885 4.1241 4.8668 5.8575 0.45774 10.13-1.4119 1.3681-4.4097 4.4-6.6618 6.7375s-4.5456 4.25-5.0968 4.25-8.3469-7.425-17.324-16.5c-10.4-10.514-17.055-16.5-18.344-16.5-1.136 0-2.0224-0.6611-2.0224-1.5085 0-1.2464-0.33951-1.2964-1.9545-0.28786-1.075 0.67134-2.2995 0.87569-2.721 0.4541-0.42159-0.42158-0.15368-1.1453 0.59534-1.6082 1.058-0.65388 0.65338-1.5342-1.8134-3.9456-3.1842-3.1127-6.1063-4.0683-6.1063-1.997 0 0.62132-0.72952 0.82704-1.6628 0.4689-1.0416-0.39969-2.6294 0.273-4.25 1.8005l-2.5872 2.4386-6.9194-6.3098-6.9194-6.3098 2.9194-2.5127c3.1204-2.6857 2.6351-4.9232-0.62609-2.8865-1.075 0.67134-1.9545 0.8219-1.9545 0.33459 0-1.2308 2.5593-3.2383 3.2491-2.5485 0.73676 0.73676 6.7509-2.3737 6.7509-3.4915 0-0.47173 0.9-1.093 2-1.3807s2-1.2883 2-2.2236c0-1.1008 0.52905-1.4976 1.5-1.125 0.825 0.31658 1.502 0.25222 1.5044-0.14301 6e-3 -0.99722 10.873-12.363 14.329-14.987 3.1516-2.3926 2.7928-4.2316-0.82546-4.2316-1.4953 0-2.6085 0.74002-3.0084 2-0.34913 1.1-0.97841 2-1.3984 2-1.1343 0-3.5339-4.8763-3.5701-7.2549-0.0173-1.1383-0.63279-2.2721-1.3677-2.5195-0.95412-0.32117-1.2401 0.36869-1 2.4123 0.37197 3.1661 0.87075 3.0091-10.664 3.3567-3.3 0.0994-7.35 0.57022-9 1.0461-4.4974 1.2972-14.756 1.6083-15.144 0.45922-0.57238-1.691 3.8108-3.0118 11.144-3.3582 3.85-0.18188 7.1542-0.75076 7.3426-1.2642 0.18846-0.51342 1.8809-0.64491 3.761-0.29221 3.2358 0.60704 6.3964-0.67812 6.3964-2.6009 0-1.7812-3.6211-1.8075-14.732-0.10702-6.4724 0.99054-13.064 1.8294-14.649 1.8641s-3.2376 0.6406-3.6738 1.3464c-0.59924 0.96959-1.1288 1.0048-2.1658 0.14417-2.247-1.8649-7.1336-0.8148-8.4718 1.8205-1.2576 2.4767-8.5655 6.8255-11.599 6.9021-1.4786 0.0373-6.7624 3.0981-8.7095 5.0452-0.275 0.275-1.2866 0.63201-2.2479 0.79335-0.96134 0.16135-2.8286 1.2864-4.1495 2.5-3.8375 3.526-12.332 9.7066-13.341 9.7066-0.508 0-1.4992 1.0755-2.2027 2.3899s-2.242 2.9381-3.419 3.6081c-2.5524 1.453-8.107 7.8682-7.4133 8.5619 0.99706 0.99706 3.3448-0.69574 5.6523-4.0756 1.3084-1.9164 2.9959-3.4843 3.75-3.4843 0.75411 0 1.3711-0.37396 1.3711-0.83102s1.1999-1.4696 2.6664-2.25c1.4665-0.78044 3.9029-2.544 5.4141-3.919 7.6416-6.9527 10.38-9 12.036-9 0.99768 0 3.2921-1.2858 5.0988-2.8574 1.8066-1.5716 4.9396-3.1608 6.962-3.5317 2.0225-0.37083 3.8374-1.1546 4.0331-1.7418 0.19571-0.58715 1.691-1.175 3.3228-1.3064 1.6318-0.13139 4.4294-0.99831 6.2169-1.9265 2.3144-1.2018 3.25-1.3347 3.25-0.4619 0 0.95331 0.26667 0.95901 1.2 0.0257 1.4509-1.4509 5.8-1.6009 5.8-0.2 0 0.55-0.68111 1-1.5136 1s-2.295 0.40614-3.25 0.90254c-0.95504 0.49639-3.5364 1.4375-5.7364 2.0914s-5.575 2.0088-7.5 3.0108c-1.925 1.002-5.4566 2.7551-7.848 3.8956-4.4788 2.1362-16.264 9.0376-17.152 10.044-0.275 0.31172-2.075 1.7403-4 3.1746-8.2041 6.1127-19 18.462-19 21.734 0 2.7021 2.0113 2.8196 2.7073 0.15826 0.66586-2.5463 2.2927-1.5899 2.2927 1.3478 0 1.2325 0.53215 2.7731 1.1826 3.4235 0.91006 0.91006 0.39162 0.93749-2.25 0.11905-1.8879-0.58493-4.22-1.3046-5.1826-1.5992-0.9625-0.29463-1.75-0.0332-1.75 0.58095s0.675 1.1166 1.5 1.1166 1.5 0.70156 1.5 1.559c0 0.91106 0.47314 1.2666 1.1384 0.85544 0.81528-0.50387 0.94434 0.33091 0.45469 2.941-0.73473 3.9164 0.51165 4.8898 2.426 1.8946 0.99018-1.5492 1.0651-1.4961 0.65293 0.46323-0.62226 2.9581 1.5742 4.7606 4.1326 3.3914 2.7279-1.46 3.6147-0.0866 1.0872 1.6838-1.6252 1.1383-1.7986 1.6512-0.7726 2.2853 0.72759 0.44967 0.96467 1.1758 0.52685 1.6136-0.43783 0.43782-1.2346 0.0123-1.7707-0.94563-0.53608-0.95794-1.6273-1.7417-2.425-1.7417s-1.4503-0.45-1.4503-1-0.45-1-1-1-1 0.70156-1 1.559-0.47153 1.2676-1.0478 0.91141c-0.57632-0.35619-0.91382-1.4873-0.75-2.5136s-0.15215-1.7739-0.70215-1.6614c-0.55 0.1125-0.9909 1.1058-0.97977 2.2074 0.0139 1.3809-0.68474 2.0468-2.25 2.1442-1.7898 0.11143-2.2702-0.38511-2.2702-2.3465 0-1.6468 0.67609-2.6646 2-3.0108 2.5919-0.6778 2.5526-2.7892-0.0863-4.6376-1.7676-1.2381-1.908-1.7944-0.91898-3.6424 0.64201-1.1996 0.89832-2.45 0.56959-2.7788-1.5815-1.5815-6.8619 8.2187-5.9888 11.115 0.52911 1.7553 0.40639 1.9226-0.66312 0.90391-2.0456-1.9484-2.5152-1.5792-4.4514 3.5-0.99588 2.6125-3.0253 7-4.5098 9.75-2.8814 5.3377-7.4926 19.292-6.6526 20.132 0.27747 0.27747-0.60753 3.9613-1.9667 8.1863-2.0909 6.4998-2.5584 10.336-3.038 24.932-0.32163 9.7876-0.18336 17.249 0.31963 17.248 0.48757-9.1e-4 2.5655-1.7861 4.6177-3.9672 2.5671-2.7284 3.5352-4.5217 3.1028-5.7484-0.50094-1.4212-0.3657-1.5398 0.66683-0.58479 1.0265 0.94951 2.4573 0.15302 6.8972-3.8396 7.6483-6.8778 14.724-10.838 19.385-10.849 7.8742-0.0195 17.378 7.1223 21.921 16.474 1.9624 4.0393 1.9848 4.4321 0.42872 7.5513-0.90278 1.8097-1.5106 3.4211-1.3508 3.5809s2.3418-0.447 4.8488-1.3485c4.5392-1.6323 4.5786-1.6272 9.4637 1.2321 7.5709 4.4312 15.337 12.32 18.135 18.422 2.1609 4.7126 2.3406 5.8878 1.376 9-0.61021 1.9688-3.3483 6.0546-6.0847 9.0796s-4.9854 6.4649-4.9978 7.6442c-0.0124 1.1793-1.3601 3.5761-2.9949 5.3262-2.2619 2.4213-3.4869 3.0186-5.1248 2.4987-1.1839-0.37575-2.4459-0.29752-2.8046 0.17384-0.35863 0.47135-2.7869 2.8725-5.3962 5.3358l-4.7441 4.4788-3.3543-3.7704c-1.8449-2.0737-3.7479-3.6984-4.229-3.6104-1.9053 0.34848-2.8076-0.15005-1.6277-0.89931 0.99591-0.63241 0.99591-1.3323 0-3.4769-0.68582-1.4768-1.6679-2.6886-2.1825-2.6929-0.51455-4e-3 -1.9437-0.95495-3.176-2.1126-2.428-2.2809-4.9086-1.6929-3.9038 0.92544 0.34156 0.8901 0.30115 1.2985-0.0898 0.90753-0.39096-0.39097-1.4011-0.15225-2.2448 0.53048-1.2391 1.0027-1.3816 0.98812-0.74139-0.076 0.53298-0.88584 0.10455-1.4972-1.308-1.8666-1.1553-0.30212-2.1006-1.1718-2.1006-1.9327 0-1.661 2.5961-1.846 3.5794-0.25495 0.47807 0.77354 0.98013 0.62319 1.5964-0.47808 0.93289-1.667-1.533-6.6503-3.2908-6.6503-0.48674 0-0.88499-0.62686-0.88499-1.393 0-0.76616-0.675-1.652-1.5-1.9686-0.825-0.31658-1.5-0.0647-1.5 0.55968 0 2.2408-1.0685 0.0113-1.4539-3.0335-0.51238-4.0486-1.4223-5.426-3.1473-4.7641-0.80714 0.30973-1.3988-0.0844-1.3988-0.93182 0-0.80774-0.62264-1.4686-1.3836-1.4686-1.7324 0-8.177-7.0405-9.0965-9.9374-0.80948-2.5504 1.0155-5.1781 3.0533-4.3961 0.78479 0.30115 1.4269 0.0494 1.4269-0.55944 0-0.60885-0.675-1.107-1.5-1.107s-1.518-0.7875-1.54-1.75c-0.0285-1.2439-0.47365-0.95059-1.5393 1.0141-1.8664 3.4408-3.4526 2.7692-9.4344-3.9947l-4.218-4.7695 0.71169 6.5c0.74061 6.7641 2.2662 12.667 5.6864 22 4.3507 11.873 5.0137 13.495 5.7169 13.989 0.40064 0.28116 1.6489 2.3112 2.7739 4.5112 4.8938 9.5701 5.8322 11.237 8.7115 15.477 4.6967 6.9164 5.5193 7.8822 15.131 17.766 4.95 5.0899 11.138 10.652 13.75 12.36 2.6125 1.7079 4.75 3.5084 4.75 4.001 0 0.49266 0.87448 0.89575 1.9433 0.89575 1.0688 0 2.5313 0.83544 3.25 1.8565 0.71868 1.0211 2.4317 2.1993 3.8067 2.6183s3.175 1.3266 4 2.017 3.1875 1.7971 5.25 2.4593c2.0625 0.66219 3.75 1.6672 3.75 2.2334s0.61901 0.7919 1.3756 0.50158 2.4441 2e-3 3.75 0.64991c3.8437 1.9066 9.9862 3.8855 10.492 3.38 0.25714-0.25715-1.8206-2.1114-4.6173-4.1206-2.7967-2.0092-5.3251-4.2792-5.6188-5.0444-0.48314-1.259 4.258-6.8307 8.8917-10.449 1.552-1.212 1.6944-1.18 1.143 0.25694-0.50806 1.324 0.029 1.6414 2.7771 1.6414 1.8738 0 3.9279 0.52093 4.5646 1.1576 0.87682 0.87682 1.5373 0.84251 2.7229-0.14145 1.3256-1.1001 1.4688-1.0477 0.93539 0.34239-0.42298 1.1023-0.10202 1.6414 0.97711 1.6414 0.9365 0 1.607-0.82855 1.607-1.9858 0-3.8363-13.08-10.12-14.909-7.1622-0.39194 0.63418-4.7339 1.4284-9.7592 1.7851-8.0812 0.57362-9.5249 0.40702-13.447-1.5518-3.5111-1.7535-5.0516-3.4392-7.6678-8.3898-1.8006-3.4075-3.2612-7.1658-3.2456-8.3518 0.0212-1.6167-0.43785-2.0345-1.8341-1.6694-1.2834 0.33562-2.0314-0.15974-2.4064-1.5936-0.57988-2.2175 1.5924-2.9839 2.8213-0.9954 0.4093 0.66226 2.1861-0.49191 4.559-2.9614 4.1196-4.2873 4.661-5.6212 2.6383-6.5008-0.6875-0.29901-0.0838-0.30561 1.3417-0.0147 1.8244 0.37238 3.4527-0.19104 5.5-1.903 4.6972-3.9279 11.271-6.8836 13.639-6.1321 1.1644 0.36955 4.3022 2.7159 6.973 5.2142l4.856 4.5422-3.9966 3.8403c-2.7277 2.621-3.7945 4.367-3.36 5.4992 0.43823 1.142 0.25838 1.4252-0.57715 0.90882-0.66756-0.41258-1.8475-0.22416-2.6221 0.41871-1.0977 0.91099-1.9635 0.76453-3.9248-0.66391-1.384-1.008-2.5305-2.1703-2.5478-2.5828-0.0173-0.41247-1.1564-0.74997-2.5314-0.74997-3.1859 0-3.2028 1.9911-0.0421 4.9605 2.0543 1.93 3.2086 2.2245 7.0295 1.7938 4.132-0.46574 4.5141-0.33449 3.9747 1.3652-0.90135 2.8399 1.44 2.2684 2.5379-0.61952 0.90839-2.3892 1.3178-2.5 9.2424-2.5h8.2919l5.2676 4.6079c7.5923 6.6416 11.841 15.892 8.7276 19.005-0.84126 0.84126-1.5296 2.3003-1.5296 3.2423 0 1.8486-9.1084 11.205-12.684 13.03-1.2013 0.61302-3.1138 1.1146-4.25 1.1146-3.972 0-2.1871 2.723 2.1843 3.3322 9.4856 1.3221 12.306 1.921 13.456 2.8577 0.6634 0.5402 1.7631 0.63802 2.4437 0.21736 0.68064-0.42065 5.0758-0.79689 9.7671-0.83609l8.5296-0.0713 4.3492-6.5c2.392-3.575 6.1166-8.7916 8.2767-11.592 2.1602-2.8008 3.9276-5.4313 3.9276-5.8456 0-1.2988 4.0889-6.562 5.098-6.562 0.52897 0-3.5517 6.7081-9.0681 14.907-9.4591 14.059-11.702 18.256-8.7799 16.43 1.3565-0.84741 1.2762-0.82733 7.5-1.8764 5.0956-0.85889 5.6039 0.52319 1 2.7186-2.1348 1.018-4.0116 1.268-5.4695 0.7287-2.4987-0.92434-6.4855 0.74447-8.9045 3.7272-1.4307 1.7641-1.4835 1.728-0.9791-0.66994l0.53312-2.5346-7.8225 0.0707c-6.0358 0.0546-8.2204 0.46858-9.5643 1.8125-1.3918 1.3918-1.4981 2.0353-0.52915 3.2029 1.5255 1.8382 3.0759 0.98513 2.3607-1.2989-0.43144-1.3778-0.21536-1.322 1.0912 0.28203 0.89606 1.1 2.5078 1.8592 3.5816 1.6871 1.0738-0.17207 1.9524 0.16543 1.9524 0.75s0.93032 1.0629 2.0674 1.0629c1.6822 0 1.9385-0.4192 1.3758-2.25l-0.6916-2.25 2.3742 2.101c3.3391 2.9549 5.8313 3.6744 6.519 1.8822 0.31303-0.81569 1.196-1.4831 1.9622-1.4831 0.76615 0 1.393-0.70156 1.393-1.559 0-0.97361 0.45891-1.2754 1.2221-0.8037 0.67217 0.41543 2.9583 0.62997 5.0804 0.47675 2.4162-0.17445 4.4972 0.2997 5.5678 1.2686 1.5222 1.3775 2.3083 1.3878 7.1696 0.0941 6.695-1.7817 7.2339-1.7999 6.712-0.22677-0.43307 1.3053-2.1877 1.6738-20.252 4.2532-9.2124 1.3154-28.79 1.8735-29.814 0.84979zm-2.5708-7.3529c0.91878 0 1.9105-0.62538 2.2038-1.3897 0.55498-1.4463-2.9503-2.7388-8.8193-3.252-4.2677-0.3732-11.197-1.9173-16.909-3.7678-2.6999-0.87473-5.5124-1.5904-6.25-1.5904-2.4098 0-1.4097 1.7289 1.7593 3.0416 1.7052 0.70631 4.9014 2.7889 7.1026 4.628 2.2013 1.8391 4.9686 3.5568 6.1497 3.8172 4.7902 1.0559 9.256 0.96509 11.12-0.22613 1.0849-0.69335 2.7242-1.2606 3.643-1.2606zm-15.116-1c0-0.55 0.675-1 1.5-1s1.5 0.45 1.5 1-0.675 1-1.5 1-1.5-0.45-1.5-1zm-20.966-7.9581c2.9454 1.8628 4.1099 1.1067 2.3745-1.5419-0.94835-1.4474-2.5907-2.5-3.9006-2.5-1.2444 0-2.7826-0.62659-3.4181-1.3924-0.63558-0.76583-2.6032-1.9668-4.3724-2.6687-5.0754-2.0137-16.727-8.9805-22.41-13.4-2.8564-2.2212-7.2439-5.5536-9.75-7.4053-2.5061-1.8517-4.5565-3.9546-4.5565-4.673 0-0.71842-1.7108-3.0284-3.8018-5.1332-9.2932-9.3548-21.712-28.931-26.535-41.827-2.9068-7.7733-4.6636-14.415-4.6784-17.688-0.0177-3.902-2.3532-11.102-3.7526-11.568-1.5456-0.5152-2.181 3.6048-1.0544 6.8366 0.56452 1.6194 0.75851 3.6424 0.43109 4.4957-0.32741 0.85323 0.27633 3.2101 1.3416 5.2375 2.5721 4.8949 6.5203 15.238 6.6638 17.458 0.063 0.97434 0.90505 2.6451 1.8713 3.7128 0.96623 1.0677 1.5142 2.5733 1.2178 3.3457s0.66149 2.728 2.1287 4.3455c1.4672 1.6175 3.7118 5.0523 4.9878 7.6327 1.2761 2.5805 2.7386 4.6918 3.25 4.6918 0.51142 0 0.93742 0.7875 0.94668 1.75 9e-3 0.9625 1.8092 3.5166 4 5.6758 2.1907 2.1592 3.9832 4.3032 3.9832 4.7645 0 2.0071 24.859 24.81 27.047 24.81 0.39559 0 0.94683 0.87025 1.225 1.9339 0.33271 1.2723 1.741 2.1656 4.1166 2.6113 1.986 0.37258 3.6109 1.0713 3.6109 1.5527s1.575 1.5334 3.5 2.3377c1.925 0.80432 3.5 1.8996 3.5 2.434 0 0.53436 1.3189 1.2612 2.9309 1.6153 1.612 0.35406 3.4717 1.2954 4.1327 2.0918 0.7923 0.95466 1.5939 1.1226 2.3526 0.49292 0.71224-0.59111 1.7098-0.60164 2.6173-0.0276zm-47.034-28.983c0-1.3504-1.8229-2.2865-3.0163-1.5489-0.55897 0.34546-0.75742 1.047-0.44098 1.559 0.75067 1.2146 3.4573 1.2067 3.4573-0.0101zm72-6.059c0-0.55-0.45-1-1-1s-1 0.45-1 1 0.45 1 1 1 1-0.45 1-1zm-18.5-21c-0.33992-0.55-1.0415-1-1.559-1s-0.94098 0.45-0.94098 1 0.70156 1 1.559 1 1.2809-0.45 0.94098-1zm-4.1384-2.5c-0.31659-0.825-0.97746-1.5-1.4686-1.5-0.49115 0-0.89301 0.675-0.89301 1.5s0.66088 1.5 1.4686 1.5c0.89459 0 1.2436-0.58629 0.89301-1.5zm-6.695-11.167c-0.37927-0.37926-2.0244 0.67566-3.6557 2.3443-3.8714 3.9598-2.6483 5.1829 1.3114 1.3114 1.6686-1.6314 2.7235-3.2765 2.3443-3.6557zm-12.248-10.94c2.8949-1.1109 1.64-4.1048-4.3085-10.279-6.2281-6.4646-7.4092-6.9679-10.61-4.5216-1.9323 1.4769-1.7479 1.7637 5.4447 8.4682 4.0946 3.8167 7.5453 6.9395 7.6682 6.9395s0.93532-0.27314 1.8053-0.60699zm-3.9182-3.393c-0.33992-0.55-0.14148-1 0.44098-1s1.059 0.45 1.059 1-0.19844 1-0.44098 1-0.7191-0.45-1.059-1zm-8.25-7.6623c-1.7412-0.70258-1.5663-2.3377 0.25-2.3377 0.825 0 1.5 0.675 1.5 1.5s-0.1125 1.4645-0.25 1.421c-0.1375-0.0434-0.8125-0.30592-1.5-0.58333zm-12.734-16.388c0.47332-1.4913-0.4951-3.5348-3.5542-7.5-4.3373-5.6219-4.7112-5.8673-7.3798-4.8432-2.1958 0.84261-1.995 1.9618 1.114 6.2097 6.2633 8.5576 8.5895 10.011 9.82 6.1335zm-43.395-6.2002c0.0665-1.2375 0.0665-3.375 1e-4 -4.75s-0.1177-5.126-0.11399-8.3356c5e-3 -4.2416-0.33655-5.722-1.2501-5.4197-1.3504 0.44683-2.3179 14.384-1.2843 18.502 0.73092 2.9122 2.492 2.9145 2.6483 3e-3zm45.879-13.75c0-3.1402-1.6492-4.0778-2.6384-1.5-0.71526 1.8639 0.2261 4.5 1.607 4.5 0.56726 0 1.0314-1.35 1.0314-3zm-6-4.559c0-0.85746-0.45-1.2809-1-0.94098s-1 1.0415-1 1.559 0.45 0.94098 1 0.94098 1-0.70156 1-1.559zm-39.978-8.191c0.0119-3.7125 0.91191-10.777 2-15.699 2.4596-11.126 2.5504-13.27 0.48937-11.56-0.81894 0.67967-1.2743 1.5831-1.012 2.0076 0.50785 0.82171-1.0247 6.3763-2.537 9.1953-0.49976 0.93155-1.1375 6.444-1.4171 12.25-0.42811 8.8878-0.27427 10.556 0.97333 10.556 1.1606 0 1.4865-1.4632 1.5034-6.75zm7.4309-35.924c1.4776-3.1208 2.8353-6.8493 3.0171-8.2854 0.18175-1.4362 1.5817-4.8452 3.1109-7.5758 1.5292-2.7305 3.2646-5.8646 3.8564-6.9646 0.59179-1.1 3.2106-5.2765 5.8195-9.2812 4.6594-7.1521 5.5418-9.2188 3.936-9.2188-1.1537 0-7.1925 8.7837-7.1925 10.462 0 0.77186-0.9 1.689-2 2.0382s-2 1.2658-2 2.037-0.97351 3.1034-2.1634 5.1826c-3.8828 6.7851-5.1438 9.5729-5.4046 11.949-0.14115 1.2858-1.1544 4.249-2.2518 6.5848-2.6943 5.7351-3.5085 8.7469-2.3647 8.7469 0.52268 0 2.1593-2.5534 3.637-5.6742zm190.26-15.956c0.20377-0.62158-0.99902-1.3311-2.6729-1.5768-2.4768-0.36352-3.0434-0.0942-3.0434 1.4466 0 1.4644 0.60549 1.8216 2.6729 1.5768 1.4701-0.17403 2.8396-0.82498 3.0434-1.4466zm-20.373-3.5762c0.78737-3.0109-0.20337-3.7061-1.9255-1.351-1.7891 2.4468-1.8 3.5573-0.0349 3.5573 0.76085 0 1.643-0.99285 1.9603-2.2063zm-5.4982-4.2417c0.221-1.14-0.13937-1.6208-1-1.3343-0.74002 0.24642-1.501 1.2501-1.691 2.2303-0.221 1.14 0.13937 1.6208 1 1.3343 0.74002-0.24642 1.501-1.2501 1.691-2.2303zm18.91 0.19803c-0.22642-0.6875-1.4799-1.4057-2.7855-1.596-2.0725-0.30212-2.2057-0.14347-1.0492 1.25 1.5661 1.887 4.4272 2.1452 3.8347 0.34604zm-154.76-4.691c0-1.1799-1.9504-2.442-2.6667-1.7257-0.71631 0.71632 0.54583 2.6667 1.7257 2.6667 0.51754 0 0.94098-0.42344 0.94098-0.94098zm3-7.059c0-0.55-0.45-1-1-1s-1 0.45-1 1 0.45 1 1 1 1-0.45 1-1zm126.8-0.2c1.4458-1.4458 1.5596-2.8 0.23518-2.8-0.53065 0-1.4465 0.9-2.0352 2-1.1788 2.2026-0.0876 2.6876 1.8 0.8zm-135.3-6.8071c0.34231-0.55389-0.10054-1.2845-0.98412-1.6235-1.9146-0.73472-2.9817 0.0749-2.0614 1.5641 0.83038 1.3436 2.2349 1.371 3.0455 0.0595zm122.73-2.2052c0.69709-2.0913-0.41356-5.7877-1.739-5.7877-1.3343 0-4.4984 4.1955-4.4984 5.9648 0 1.4589 5.7465 1.2958 6.2374-0.17708zm-19.237-1.8468c0-0.51754-0.45-0.94098-1-0.94098s-1 0.70156-1 1.559 0.45 1.2809 1 0.94098 1-1.0415 1-1.559zm-100.17 0.059c-0.18333-0.55-0.78333-1-1.3333-1s-1.15 0.45-1.3333 1c-0.18334 0.55 0.41666 1 1.3333 1s1.5167-0.45 1.3333-1zm112.17-3c0-1.1 0.9-2.9 2-4 2.2967-2.2967 2.4876-3 0.81445-3-3.2106 0-7.1324 6.3487-5.1478 8.3333 1.2678 1.2678 2.3333 0.65891 2.3333-1.3333zm10.823-24.667c-0.48655-2.5088-2.8233-2.8532-2.8233-0.4162 0 1.2283 0.64569 2.0833 1.5733 2.0833 0.93124 0 1.4414-0.68037 1.25-1.6671zm-90.823-4.3329c0-0.55-0.45-1-1-1s-1 0.45-1 1 0.45 1 1 1 1-0.45 1-1zm115-11c0-0.55-0.675-1-1.5-1s-1.5 0.45-1.5 1 0.675 1 1.5 1 1.5-0.45 1.5-1zm-45-3.5c0-0.83333-0.88889-1.5-2-1.5-1.9922 0-2.6011 1.0655-1.3333 2.3333 1.2179 1.2179 3.3333 0.68908 3.3333-0.83333zm33-1.4455c0-1.1101-3.8763-2.0637-4.4718-1.1001-0.66384 1.0741 0.0398 1.5874 2.4219 1.7669 1.1274 0.0849 2.0499-0.21514 2.0499-0.66681zm-30-1.6942c0-2.4422-3.1641-4.4689-4.825-3.0905-1.0771 0.89395-0.88717 1.4455 0.99717 2.8951 2.9088 2.2377 3.8278 2.2847 3.8278 0.19546zm21 0.13976c0-0.825-0.675-1.5-1.5-1.5s-1.5 0.675-1.5 1.5 0.675 1.5 1.5 1.5 1.5-0.675 1.5-1.5zm-33.5-2.5c0.33992-0.55-0.0835-1-0.94098-1-0.85746 0-1.559 0.45-1.559 1s0.42344 1 0.94098 1 1.2191-0.45 1.559-1zm48.844 283.49c-0.63576-1.3707-0.74826-2.4922-0.25-2.4922 0.49825 0 0.90591 0.45 0.90591 1s0.675 1 1.5 1 1.5-0.72314 1.5-1.607c0-1.0035 0.5524-1.395 1.4711-1.0425 0.80908 0.31048 2.1256-0.0901 2.9257-0.89014 0.80005-0.80005 2.1398-1.1917 2.9772-0.87037 0.83882 0.32189 2.5286-0.35301 3.7629-1.5029 1.2322-1.1479 2.8304-2.0871 3.5517-2.0871s1.3114-0.45 1.3114-1 1.2975-1 2.8834-1c2.0858 0 3.0349-0.57941 3.4311-2.0946 0.45263-1.7308 1.0553-1.9831 3.4706-1.4526 2.4093 0.52918 3.2154 0.19553 4.5878-1.8991 0.91573-1.3976 1.994-2.4628 2.396-2.3672 1.508 0.35864 8.2311-3.6089 8.2311-4.8575 0-0.71533 1.9125-2.5445 4.25-4.0648 2.3375-1.5203 4.4-3.1017 4.5833-3.5142 0.18334-0.4125 1.2446-0.75 2.3584-0.75 1.6607 0 1.9122-0.44978 1.3976-2.5-0.42084-1.6767-0.20955-2.5104 0.64159-2.5316 1.6889-0.0421 6.769-4.5656 6.769-6.0274 0-0.63523 0.58644-0.92992 1.3032-0.65487 0.75729 0.2906 1.8396-0.71183 2.5838-2.393 0.78525-1.774 2.0403-2.8931 3.2445-2.8931 1.9117 0 6.8684-4.4354 6.8684-6.146 0-0.46969-1.6875-0.88951-3.75-0.93293-2.0625-0.0434-3.1875-0.30592-2.5-0.58333 1.8015-0.72691 1.5407-3.3377-0.33333-3.3377-0.91077 0-1.3358-0.53097-1.0006-1.25 0.32048-0.6875 0.85233-2.0064 1.1819-2.9308 0.72173-2.0246 3.7219-3.3598 4.2164-1.8764 0.19382 0.58148 0.94176 1.0572 1.6621 1.0572 1.546 0 2.7985 2.7463 1.909 4.1856-0.34166 0.55281-6e-3 2.1608 0.74675 3.5734 1.0464 1.9646 1.0829 2.664 0.1551 2.9756-0.66707 0.22402-3.2773 3.3004-5.8005 6.8364s-5.0149 6.429-5.5372 6.429-0.94947 0.5671-0.94947 1.2602c0 1.3835-4.632 6.7398-5.8285 6.7398-0.41114 0-3.1441 2.25-6.0732 5s-5.7245 5-6.212 5c-0.48749 0-0.88634 0.6419-0.88634 1.4264s-2.3625 2.6335-5.25 4.1088c-2.8875 1.4753-7.5 3.9858-10.25 5.5789-2.75 1.5931-5.675 3.1516-6.5 3.4634-0.825 0.31175-2.175 0.97056-3 1.464-4.8114 2.8779-20.414 8.9817-22.88 8.9507-0.34085-4e-3 -1.1399-1.1293-1.7756-2.5zm-12.831-5.4715c-0.84242-1.3631 1.2702-5.0207 2.9-5.0207 1.9458 0 3.9071 2.7242 3.2305 4.4873-0.64371 1.6775-5.1795 2.0721-6.1305 0.5334zm9.6651-2.7056c0.19897-1.0331 2.0649-2.1663 4.8233-2.9293 10.793-2.9852 26.795-10.68 33.881-16.293 2.1479-1.7012 4.2187-3.093 4.6019-3.093 0.94582 0 11.583-8.9925 13.69-11.573 0.93091-1.1402 4.4225-4.7946 7.7591-8.1209 3.3366-3.3262 6.0665-6.5558 6.0665-7.1768 0-0.62101 0.45-1.1291 1-1.1291 4.175 0-7.5327 15.279-14.102 18.403-1.044 0.49655-1.8983 1.2248-1.8983 1.6184 0 1.3068-9.2393 9.9788-10.632 9.9788-0.75263 0-1.3684 0.44143-1.3684 0.98095s-1.125 1.2633-2.5 1.6084c-1.375 0.3451-2.5 0.9774-2.5 1.4051 0 0.4277-1.4625 1.522-3.25 2.4319s-5.05 2.7416-7.25 4.0706c-2.2 1.329-4.7394 2.4359-5.643 2.4597-0.90366 0.0238-1.8925 0.69354-2.1974 1.4882-0.30494 0.79465-2.2237 1.758-4.264 2.1407-2.0402 0.38275-4.8764 1.3048-6.3026 2.049-1.4262 0.7442-3.579 1.3559-4.784 1.3593-1.205 3e-3 -2.4691 0.45616-2.809 1.0062-1.0073 1.6299-2.6733 1.1385-2.3222-0.68495zm-38.918-2.267c-1.86-2.3589-1.9874-2.9385-0.75-3.4133 0.86575-0.33222 1.4905-8e-3 1.4905 0.77422 0 0.74039 0.675 1.9064 1.5 2.5911 1.5806 1.3118 2.0204 3.0384 0.75 2.9447-0.4125-0.0304-1.7582-1.3339-2.9905-2.8967zm-5.968 0.20199c-0.35512-0.9625-1.1285-2.0806-1.7186-2.4847-0.61224-0.41922-0.15277-0.74126 1.0701-0.75 1.9485-0.0139 3.357 1.6923 3.357 4.0665 0 1.6108-2.0382 0.98484-2.7084-0.83179zm111.1-2.6561c0.53971-2.1504 0.30579-2.5939-1.368-2.5939-1.1105 0-2.019-0.42971-2.019-0.95492 0-1.0117 11.713-13.067 18.639-19.184 2.266-2.0012 4.2867-4.0737 4.4905-4.6055 0.20376-0.53183 2.8455-4.6035 5.8705-9.0481 3.3474-4.9182 5.8625-7.7238 6.4262-7.1683 1.0761 1.0606 3.5738-0.66535 3.5738-2.4696 0-0.65181-1.8-1.9793-4-2.9499s-4-2.1478-4-2.6158c0-0.46806 1.4001-0.15254 3.1114 0.70115 2.6208 1.3074 3.2491 1.3348 3.9847 0.17335 1.2012-1.8965 1.1219-3.8788-0.15508-3.8788-0.58246 0-0.75121-0.49804-0.375-1.1068 0.48645-0.78708 0.90514-0.74899 1.4496 0.13189 0.83199 1.3462 1.6549 0.25643 6.3437-8.4011 1.4524-2.6818 2.6408-5.564 2.6408-6.405 0-1.2784 0.32783-1.2324 2 0.28094 1.7986 1.6277 2 1.6433 2 0.15499 0-0.91025-0.42171-1.655-0.93713-1.655-1.0392 0-0.27026-6.6383 1.0425-9 0.63955-1.1505 0.84089-1.1829 0.86421-0.13871 0.0225 1.0057 0.92424 1.1936 3.4524 0.71932 1.9847-0.37234 3.6896-0.20907 4.059 0.38871 0.35035 0.56687 8e-3 1.0307-0.76151 1.0307-1.979 0-4.084 4.7628-2.2923 5.1864 0.98009 0.23173 1.0841 0.96005 0.39822 2.7895-0.74988 2.0003-1.1024 2.194-1.8352 1.0084-0.70914-1.1474-1.1707-1.2039-2.1159-0.25871-0.94514 0.94514-0.84515 1.3484 0.45836 1.8486 1.824 0.69992 2.2628 3.9397 0.66722 4.9258-0.55 0.33992-1 1.4364-1 2.4366 0 1.0002-0.675 2.3787-1.5 3.0634s-1.5 1.8969-1.5 2.6939-0.675 2.124-1.5 2.949-1.5 2.5302-1.5 3.7893c0 3.2349-7.017 13.568-9.2138 13.568-1.2386 0-1.7862-0.7664-1.7862-2.5 0-3.3495-1.184-3.1513-3.3798 0.56574-1.7007 2.879-1.7049 3.0465-0.0694 2.75 0.95789-0.17366 1.9383 0.24676 2.1787 0.93426s-0.0504 1.25-0.64626 1.25c-0.59583 0-1.0993 0.7875-1.1188 1.75-0.0543 2.6838-1.9288 5.5027-8.4264 12.672-5.5011 6.0698-8.5381 8.0539-8.5381 5.5781 0-0.55-0.5051-1-1.1224-1-0.76834 0-0.72398 0.48012 0.14059 1.5219 1.0609 1.2783 0.56031 2.2474-3.1276 6.055-2.4148 2.4932-5.6875 5.2256-7.2726 6.0721-2.8674 1.5311-2.8787 1.5258-2.231-1.055zm6.154-5.6605c0.36253-0.58659 0.4535-1.2722 0.20214-1.5235-0.69747-0.69748-3.7433 0.68337-3.7433 1.6971 0 1.2518 2.7433 1.1174 3.5411-0.17352zm21.973-24.707c-0.68965-0.8279-3.5141 1.2261-3.5141 2.5555 0 1.2968 0.32362 1.235 1.871-0.35698 1.029-1.0587 1.7684-2.0481 1.6431-2.1985zm15.09-17.956c-1.0165-1.0165-1.8552 0.51389-1.0212 1.8634 0.63003 1.0194 0.86558 1.0202 1.2043 4e-3 0.2316-0.69479 0.14921-1.5351-0.18308-1.8674zm8.1818-16.398c0.2136-1.1092-0.68058-1.8019-2.8982-2.2455-4.0644-0.81288-4.692-0.17373-2.3597 2.4034 2.0968 2.3169 4.797 2.2358 5.258-0.15789zm-148.81 60.544c-0.0148-0.50417-1.8148-2.0196-4-3.3677-3.6758-2.2676-5.3136-5.049-2.9731-5.049 0.55 0 1 0.41968 1 0.93261 0 0.51294 0.91199 1.2221 2.0266 1.5758 2.2598 0.71724 5.598 5.2002 4.6088 6.1894-0.3495 0.34951-0.64756 0.22296-0.66236-0.2812zm-5.2871-22.034c-1.237-2.373-22.245-24.033-27.735-28.595-3.4531-2.8697-4.1413-4.5097-2.7962-6.6636 1.6724-2.678 0.0967-4.1882-1.7438-1.6712-1.3714 1.8756-1.5959 1.7822-5.9182-2.4598-2.471-2.4251-4.4927-4.8912-4.4927-5.4802 0-0.58902 1.6112-2.7297 3.5804-4.7572 2.0252-2.0851 3.2739-4.1822 2.8748-4.828-0.47863-0.77444-0.0655-0.93859 1.2841-0.51024 1.5461 0.49071 2.7445-0.36788 5.3752-3.851 1.862-2.4654 3.8366-4.6695 4.3879-4.898 0.55132-0.22851 3.1504 1.6683 5.7758 4.215l4.7734 4.6305-2.9851 3.4931c-3.3871 3.9635-3.7101 4.9931-1.5664 4.9931 0.825 0 1.5 0.87448 1.5 1.9433 0 2.4682 3.5342 4.9913 6.0647 4.3295 1.0644-0.27835 1.9353-1.2636 1.9353-2.1895s0.54271-2.2261 1.206-2.8894c0.94135-0.94135 2.1483-0.2812 5.5 3.0082 4.1005 4.0244 5.4444 6.7978 3.294 6.7978-0.55 0-1 0.52707-1 1.1713s-0.74724 1.997-1.6605 3.0061c-0.91329 1.0092-1.4758 1.9703-1.25 2.1358 0.2258 0.16554 2.2443 1.7132 4.4856 3.4394 4.0534 3.1217 4.0907 3.1289 7 1.355 1.6087-0.98089 3.535-2.5223 4.2807-3.4254 1.2214-1.4792 1.7875-1.173 5.7103 3.088 2.395 2.6014 4.3724 5.2692 4.3942 5.9284 0.0426 1.2868-0.35972 1.7216-12.664 13.684l-8.1078 7.8828zm-6.8526-24.383c-0.18333-0.55-0.78333-1-1.3333-1s-1.15 0.45-1.3333 1c-0.18334 0.55 0.41666 1 1.3333 1s1.5167-0.45 1.3333-1zm-7.8333-14c0-0.55-0.45-1-1-1s-1 0.45-1 1 0.45 1 1 1 1-0.45 1-1zm-13-17c0-0.55-0.45-1-1-1s-1 0.45-1 1 0.45 1 1 1 1-0.45 1-1zm-53.715 48.052c0.34736-1.3464 0.2654-2.9214-0.18215-3.5-0.44754-0.57862-1.0808-2.1381-1.4073-3.4654-0.49999-2.033-0.38585-2.1906 0.72422-1 0.72477 0.77736 1.7938 2.8482 2.3757 4.6019 0.86252 2.5996 0.7624 3.4307-0.54207 4.5-1.4063 1.1528-1.5235 1.0152-0.9684-1.1365zm-9.7847-0.052c-0.33992-0.55-0.14148-1 0.44098-1s1.059 0.45 1.059 1-0.19844 1-0.44098 1-0.7191-0.45-1.059-1zm108.73-2.1868c0.49828-1.4948 2.7711-2.3179 2.7711-1.0035 0 0.53699-0.7126 1.2498-1.5836 1.584-0.97391 0.37373-1.4311 0.15024-1.1875-0.58051zm-116.76-3.8568c-0.32508-0.52598 4e-3 -0.95633 0.73084-0.95633 0.72704 0 1.7661-0.98339 2.309-2.1853s1.6621-2.3612 2.4871-2.5761c0.97915-0.25512 1.1128-0.10396 0.38478 0.43531-0.61337 0.45437-1.418 1.7971-1.7881 2.9838-0.7495 2.4034-3.211 3.7755-4.1237 2.2987zm4.527-0.39731c0-0.85746 0.45-1.559 1-1.559s1 0.42344 1 0.94098-0.45 1.2191-1 1.559-1-0.0835-1-0.94098zm5-1.118c0-0.85746 0.45734-1.2764 1.0163-0.9309s0.75742 1.047 0.44098 1.559c-0.85723 1.387-1.4573 1.1284-1.4573-0.62812zm114-1.882c0-0.85746 0.45-1.559 1-1.559s1 0.42344 1 0.94098-0.45 1.2191-1 1.559-1-0.0835-1-0.94098zm-187-1.5591c0-0.55 0.47656-1 1.059-1s0.7809 0.45 0.44098 1-0.81648 1-1.059 1-0.44098-0.45-0.44098-1zm236.5 0c0.33992-0.55 0.81648-1 1.059-1s0.44098 0.45 0.44098 1-0.47656 1-1.059 1-0.7809-0.45-0.44098-1zm-156.85-0.68616c-0.28572-0.28572-0.12695-1.5519 0.35282-2.8138s0.56354-2.6633 0.18616-3.1142c-0.37739-0.45092 0.21384-0.17453 1.3138 0.61421s2.15 1.5239 2.3333 1.6337c0.18334 0.1098-0.56666 1.0996-1.6667 2.1996s-2.2338 1.7662-2.5195 1.4805zm-7.6472-1.3138c0-0.55 0.45-1 1-1s1 0.45 1 1-0.45 1-1 1-1-0.45-1-1zm169-1c0-0.55 0.42344-1 0.94098-1s1.2191 0.45 1.559 1-0.0835 1-0.94098 1c-0.85746 0-1.559-0.45-1.559-1zm45.076-0.72711c0.74716-0.97509 1.4858-1.9604 1.6414-2.1896 0.15563-0.22916 0.28297 0.28519 0.28297 1.143 0 0.85783-0.73865 1.8431-1.6414 2.1896-1.429 0.54838-1.4657 0.40047-0.28297-1.143zm-211-1.8562c0.048-1.165 0.28494-1.4019 0.60416-0.60417 0.28887 0.72187 0.25335 1.5844-0.0789 1.9167-0.3323 0.33229-0.56864-0.25834-0.52522-1.3125zm106.88-8.9096c-4.104-4.6711-7.7943-8.4961-8.2006-8.5-0.40635-4e-3 -3.7774-3.2696-7.4912-7.2571s-9.7938-10.272-13.511-13.965c-3.7173-3.6934-6.7588-7.3132-6.7588-8.0439s1.8-3.0342 4-5.119c2.2-2.0847 4-4.3944 4-5.1327 0-3.5428 3.7822-1.5579 10.436 5.4769 3.8852 4.1077 9.764 9.9021 13.064 12.876 3.3 2.9743 8.025 7.6032 10.5 10.287s4.9286 4.8771 5.4524 4.875c0.52382-2e-3 2.4184-1.4247 4.2101-3.1613l3.2577-3.1575 4.0399 4.0399c2.2219 2.2219 4.0392 4.6553 4.0383 5.4075-2e-3 1.388-17.542 19.868-18.858 19.868-0.39415 0-4.0745-3.8218-8.1785-8.4929zm-0.96182-21.007c0-1.375-0.46412-2.5-1.0314-2.5-1.3421 0-2.3301 2.6061-1.4982 3.9521 1.1647 1.8846 2.5296 1.101 2.5296-1.4521zm-24-18.059c0-0.79254 0.55182-1.3285 1.2263-1.191s1.3807-0.7625 1.5696-2c0.23244-1.5235-0.16353-2.25-1.2263-2.25-2.6688 0-2.9611 0.38137-3.3306 4.3459-0.23577 2.5297 4e-3 3.6218 0.7013 3.191 0.58286-0.36022 1.0597-1.3034 1.0597-2.0959zm127.18 43.873c-5.23-1.8495-6.0808-3.5976-3.4729-7.1357 2.0958-2.8432 5.2683-9.1367 5.7216-11.35 0.14953-0.73022 0.60703-2.2277 1.0166-3.3277 0.40963-1.1 1.2105-3.2455 1.7797-4.7677 0.56921-1.5222 1.0819-4.5597 1.1393-6.75 0.0574-2.1903 0.58452-3.9823 1.1713-3.9823 1.8297 0 4.7264-22.399 4.5686-35.328-0.14743-12.086-0.49163-14.168-2.1708-13.13-0.51199 0.31643-0.9309-0.0887-0.9309-0.90036 0-0.81163 0.39982-1.6257 0.88848-1.809 1.4626-0.54871 0.0536-10.833-1.4842-10.833-0.73767 0-3.1696 2.475-5.4043 5.5s-4.5085 5.5-5.053 5.5-1.4985-1.1164-2.1202-2.4808c-0.62167-1.3644-1.9623-2.7448-2.9792-3.0676-1.0169-0.32275-3.027-2.1314-4.4669-4.0192-2.8528-3.7402-6.3806-4.6178-6.3806-1.5874 0 2.3909-3.0816 5.155-5.747 5.155-2.6024 0-5.253 0.97853-5.253 1.9393 0 0.39891 2.475 0.52004 5.5 0.26918 3.6746-0.30472 5.5-0.0831 5.5 0.66773 0 0.61811 0.675 1.1238 1.5 1.1238 0.83903 0 1.5-0.89145 1.5-2.023 0-1.9545 0.0932-1.9652 2.75-0.31442 3.4732 2.158 6.199 5.3844 6.2278 7.3716 0.0122 0.84379-2.3403 3.8542-5.2278 6.6897l-5.25 5.1556-7.7665-7.4746c-6.8805-6.6219-7.6413-7.7086-6.669-9.5254 1.427-2.6663 0.61854-3.4196-1.45-1.3511-1.4981 1.4981-2.0826 1.2506-7.5622-3.2024-6.3404-5.1524-7.0127-6.6072-4.3918-9.5033 2.3813-2.6313 0.76393-3.561-1.9145-1.1005-2.9552 2.7148-4.5079 1.9935-13.246-6.1537l-7-6.5266 4.0213-3.7709c2.2117-2.074 7.1309-6.4709 10.932-9.7709s7.616-6.675 8.4787-7.5c5.9821-5.7209 25.748 8.1708 23.631 16.608-0.56143 2.2369-0.32927 2.3923 3.5742 2.3923 2.9123 0 5.1658 0.75599 7.4523 2.5 3.9858 3.0401 4.0358 3.0432 4.7548 0.29367 0.31733-1.2135 0.89549-1.8878 1.2848-1.4985s0.0983 1.8468-0.64677 3.2389c-1.2941 2.418-1.0928 2.7956 4.5038 8.4512 6.0026 6.0659 8.5778 6.9936 6.1291 2.2079-0.75795-1.4813-1.6915-4.5798-2.0745-6.8857s-1.3362-4.7234-2.1182-5.3724c-0.78201-0.649-1.4359-2.1374-1.4531-3.3076-0.0172-1.1702-1.1238-4.3584-2.4591-7.0851s-2.2276-5.1578-1.9827-5.4027c1.0389-1.039 7.4731 8.8111 7.4731 11.441 0 1.2834 2.1288 6.7476 4.1999 10.781 0.52565 1.0236 1.358 3.9486 1.8496 6.5s1.7104 8.464 2.7085 13.139c1.7045 7.984 2.0805 20.422 0.77658 25.689-0.29805 1.2038-0.0596 2.4868 0.52993 2.8512 0.58952 0.36434 0.83029 1.2919 0.53506 2.0613-0.31779 0.82815 0.0964 1.3988 1.0152 1.3988 2.3203 0 1.0662 2.4503-1.443 2.8196-1.8099 0.26633-2.1899 1.0159-2.2813 4.5-0.20348 7.7594-0.65206 10.688-1.8598 12.144-0.66152 0.79708-0.90028 1.9386-0.53058 2.5368s0.24814 1.6304-0.27013 2.2938c-0.51827 0.66341-1.5498 4.0187-2.2924 7.4562-0.74254 3.4375-1.7072 6.25-2.1438 6.25-0.43654 0-0.79372 0.84562-0.79372 1.8792 0 2.0306-4.1286 11.286-6.5824 14.757-1.4305 2.0232-1.3395 2.1956 1.7229 3.2631 3.0993 1.0804 6.255 0.0813 4.0491-1.282-0.63627-0.39323-0.5616-2.2668 0.21105-5.2956 1.2538-4.915 3.5993-7.0795 3.5993-3.3216 0 1.3018 0.49893 1.9907 1.25 1.7257 0.6875-0.24252 1.1698-1.286 1.0719-2.3187-0.098-1.0328 0.28599-2.1646 0.85324-2.5152 0.69982-0.43251 0.66916-1.3142-0.0954-2.7428-1.2265-2.2917-0.7593-6.8694 0.86701-8.4957 1.5487-1.5487 2.3536-0.083 1.1695 2.1296-1.0031 1.8743-0.60546 3.2171 0.95264 3.2171 1.1361 0 2.9167-5.8741 2.282-7.5282-0.68517-1.7855-1.5615-1.8611-3.1508-0.27182-0.93333 0.93333-1.2 0.8144-1.2-0.53518 0-2.7126 2.9747-6.6118 4.5755-5.9975 0.7835 0.30066 1.4245 0.0485 1.4245-0.56034 0-0.60885-0.45-1.107-1-1.107s-1-0.9-1-2c0-2.7252 1.4339-2.5129 3.4114 0.50516 1.732 2.6434 1.3121 5.2225-2.9302 17.995-2.9659 8.9294-9.7626 21.598-11.481 21.4-0.275-0.0317-2.4452-0.74547-4.8227-1.5862zm-10.422-81.564c-0.22642-0.6875-1.4799-1.4057-2.7855-1.596-2.0725-0.30212-2.2057-0.14347-1.0492 1.25 1.5661 1.887 4.4272 2.1452 3.8347 0.34604zm-8.755-21.421c0-1.4388-3.4021-4.3287-5.096-4.3287-2.5079 0-3.4037 1.8979-1.2174 2.5792 0.99736 0.3108 2.4884 0.95616 3.3134 1.4341 1.8584 1.0767 3 1.1967 3 0.3154zm10-2.3287c0-0.55 0.9-1 2-1s2-0.45 2-1-0.45-1-1-1-1-0.675-1-1.5-0.40186-1.5-0.89301-1.5c-0.49116 0-1.152 0.675-1.4686 1.5-0.31658 0.825-1.2647 1.5-2.107 1.5-1.8583 0-1.9294 0.63236-0.28138 2.5042 1.4733 1.6734 2.75 1.9036 2.75 0.49583zm-23.641-12.322c-0.47231-0.84342-2.7354-2.8928-5.029-4.5541-3.7294-2.7012-4.3084-2.8541-5.4769-1.4462-1.124 1.3544-0.61118 2.179 3.6703 5.9017 4.1802 3.6347 5.1944 4.1116 6.3356 2.9797 0.86665-0.85954 1.0477-1.903 0.5-2.8811zm-177.83 114.71c-1.6906-1.6906-2.0138-3.3861-0.64557-3.3861 0.48585 0 1.1911 1.0125 1.5673 2.25 0.41435 1.3631 0.88734 1.7573 1.2 1 0.59075-1.431 2.3494-1.6982 2.3494-0.35699 0 1.6934-2.9459 2.0183-4.4711 0.49307zm-22.851-10.449c-0.92311-1.0781-1.6784-2.4051-1.6784-2.9488s-0.5051-0.98857-1.1224-0.98857c-0.73906 0-0.66372-0.55274 0.22057-1.6182 1.1958-1.4409 1.4316-1.2765 2.151 1.5 0.44441 1.715 1.4702 3.1182 2.2794 3.1182 1.5793 0 2.0019 1.5541 0.64979 2.3898-0.45189 0.27928-1.5769-0.37431-2.5-1.4524zm147.82-24.642c-22.316-23.122-21.748-22.547-24.775-25.039-1.4988-1.2339-2.7251-2.9508-2.7251-3.8153s2.419-4.0299 5.3757-7.0341l5.3757-5.4622 8.8936 8.7775c19.483 19.229 26.983 26.277 27.959 26.277 0.56205 0 2.2861-1.3195 3.8311-2.9322 2.3738-2.4777 3.1003-2.7504 4.6871-1.7594 1.0328 0.64501 1.8779 1.5622 1.8779 2.0383 0 0.47604 1.125 1.7504 2.5 2.832s2.5 2.5521 2.5 3.2679c0 1.194-17.224 18.813-18.809 19.24-0.38029 0.10248-7.8914-7.2734-16.691-16.391zm7.3233-12.628c0.19138-0.98676-0.31876-1.6671-1.25-1.6671-0.92763 0-1.5733 0.855-1.5733 2.0833 0 2.437 2.3368 2.0926 2.8233-0.4162zm-23.388-19.772c-0.87262-1.4119-2.4352-1.044-2.4352 0.5734 0 0.89208 0.5866 1.2435 1.4943 0.89521 0.82184-0.31537 1.2453-0.97625 0.94098-1.4686zm2.5648-2.3952c0-0.825-0.675-1.5-1.5-1.5s-1.5 0.675-1.5 1.5 0.675 1.5 1.5 1.5 1.5-0.675 1.5-1.5zm-129.5 49.5c-0.33992-0.55-0.14148-1 0.44098-1s1.059 0.45 1.059 1-0.19844 1-0.44098 1-0.7191-0.45-1.059-1zm-93.5-3.441c0-0.85746 0.45-1.559 1-1.559s1 0.42344 1 0.94098-0.45 1.2191-1 1.559-1-0.0835-1-0.94098zm314-0.64752c0-1.1853 8.8934-5.3514 9.7006-4.5442 0.34303 0.34303-0.79928 1.1197-2.5385 1.726-1.7392 0.60628-3.1622 1.4558-3.1622 1.8879s-0.9 1.0209-2 1.3086-2 0.11744-2-0.37825zm-320-4.4705c0-0.85746 0.45734-1.2764 1.0163-0.9309 0.55897 0.34546 0.75741 1.047 0.44098 1.559-0.85724 1.387-1.4573 1.1284-1.4573-0.62812zm174.57-5.0124c-0.86429-0.86428-1.5714-2.1733-1.5714-2.909 0-1.5424-5.0527-6.8211-24.25-25.335-7.5625-7.2932-13.75-13.638-13.75-14.1s-0.66673-1.3932-1.4816-2.0695c-1.3088-1.0862-1.3088-1.4763 0-3.345 0.81489-1.1634 1.4816-2.4652 1.4816-2.8928 0-1.4066-2.7733-0.81058-3.3616 0.72251-1.0108 2.634-3.0592 1.6433-8.9864-4.3464l-5.7854-5.8464 5.1424-5.6266c2.9281-3.2038 4.8406-6.115 4.4415-6.7607-0.47466-0.76801-0.0494-0.92733 1.3173-0.49355 1.5256 0.48421 3.0198-0.40499 6.1214-3.6429 2.2567-2.3559 4.347-5.0294 4.6451-5.941 1.0847-3.3177 3.359-2.6171 9.3656 2.8852 3.3551 3.0734 6.1002 5.9656 6.1002 6.4273s-1.611 2.6226-3.5801 4.8021c-4.2242 4.6757-4.0426 6.0526 1.5139 11.478 2.9492 2.8798 4.3778 3.6369 5.7457 3.045 1.0013-0.43326 2.7206-0.7048 3.8206-0.60342l2 0.18433-2-1.5955c-1.9873-1.5853-1.985-1.6078 0.36078-3.5306 1.2984-1.0643 2.6957-1.9352 3.105-1.9352 1.1243 0 11.034 10.724 11.034 11.94 0 0.58292-0.675 1.0599-1.5 1.0599s-1.5 0.61431-1.5 1.3651-0.9334 2.5518-2.0742 4.0021l-2.0742 2.637 3.2845 2.7479c1.8065 1.5113 4.171 3.7604 5.2546 4.9979s2.3582 2.25 2.8326 2.25c0.47437 0 3.1022-2.095 5.8396-4.6555l4.9771-4.6555 2.5804 2.4055c1.4192 1.323 4.3846 4.552 6.5897 7.1753l4.0093 4.7698-2.3597 1.8709c-1.2978 1.029-5.5097 5.1014-9.3597 9.0497-10.2 10.461-12.91 13.03-13.75 13.035-0.4125 3e-3 -0.75 0.67963-0.75 1.5046 0 1.9414-1.4459 1.9113-3.4286-0.0714zm-20.571-50.929c0-1.375-0.45-2.5-1-2.5s-1 1.125-1 2.5 0.45 2.5 1 2.5 1-1.125 1-2.5zm-16.218-22.346c0.28658-0.86063-0.19425-1.221-1.3343-1-0.98026 0.19002-1.9839 0.95098-2.2303 1.691-0.28658 0.86063 0.19425 1.221 1.3343 1 0.98026-0.19002 1.9839-0.95098 2.2303-1.691zm-112.78 69.346c0-0.825 0.43588-1.5 0.96862-1.5 0.53274 0 0.70959 0.675 0.39301 1.5-0.31658 0.825-0.75246 1.5-0.96862 1.5s-0.39301-0.675-0.39301-1.5zm323.28-4c0.13124-5.6055 1.0503-7.16 2.0264-3.4274 0.67524 2.5821-0.29337 8.9274-1.3628 8.9274-0.4358 0-0.73442-2.475-0.66359-5.5zm-22.253 1.5391c-0.80907-0.51167-1.2107-1.1907-0.8925-1.5088 0.3182-0.3182 1.1478 0.10733 1.8435 0.94562 1.4426 1.7382 1.166 1.902-0.95098 0.56323zm-44.387-4.7253c-0.81138-1.5476-8.2453-9.4938-16.52-17.658-14.889-14.691-15.028-14.869-13.468-17.25 1.7542-2.6773 1.288-3.0106-1.6474-1.1775-1.7314 1.0813-2.5063 0.69797-6.4864-3.2082-2.4861-2.4399-4.5162-4.68-4.5115-4.978 5e-3 -0.29798 1.5798-2.1992 3.5-4.225 1.9202-2.0258 3.4982-4.5008 3.5066-5.5 0.013-1.5455 0.16471-1.5928 1.0159-0.31675 0.82557 1.2376 1.6923 0.71282 4.9548-3 2.1748-2.475 3.9677-4.8375 3.9841-5.25 0.0164-0.4125 0.61115-0.75 1.3216-0.75 1.3086 0 9.7082 8.0058 9.7082 9.2531 0 0.37254-1.3143 2.1743-2.9207 4.0038l-2.9207 3.3265 3.6707 4.1646c3.2248 3.6587 3.8833 4.0047 5.4207 2.8481 0.9625-0.72409 1.75-1.7743 1.75-2.3338s0.69631-1.5952 1.5474-2.3015c1.3121-1.089 2.2242-0.61985 6 3.0858 2.449 2.4035 4.4526 4.7031 4.4526 5.1102 0 0.40714-1.125 1.9542-2.5 3.4378s-2.4904 3.1943-2.4786 3.8015c0.024 1.2389 7.2167 6.604 8.8536 6.604 0.58048 0 2.6629-1.4114 4.6276-3.1364l3.5721-3.1364 3.7127 4.2905c2.042 2.3598 4.0725 4.8962 4.5124 5.6364 0.43983 0.74022 1.4523 1.3458 2.25 1.3458s1.4503 0.48032 1.4503 1.0674c0 0.59844-0.84571 0.79897-1.925 0.45642-1.4728-0.46746-4.199 1.5719-11.607 8.6826-5.325 5.1115-10.057 9.4348-10.516 9.6074s-1.4983-0.95242-2.3097-2.5zm-13.809-37.314c-0.18333-0.55-0.78333-1-1.3333-1s-1.15 0.45-1.3333 1c-0.18334 0.55 0.41666 1 1.3333 1s1.5167-0.45 1.3333-1zm-14.333-17c0.33992-0.55 0.14148-1-0.44098-1s-1.059 0.45-1.059 1 0.19844 1 0.44098 1 0.7191-0.45 1.059-1zm-227.75 52.171c-0.26306-1.0059 0.04446-2.5438 0.68337-3.4176 0.9655-1.3204 1.1617-1.0116 1.1617 1.829 0 3.6688-1.0619 4.5832-1.845 1.5886zm-4.755-0.23006c0-0.58246 0.45-0.7809 1-0.44098s1 0.81648 1 1.059-0.45 0.44098-1 0.44098-1-0.47656-1-1.059zm329-4.1265c0-1.202-0.8506-3.1146-1.8902-4.25-2.3446-2.5607-1.7599-8.1462 1.0078-9.6274 2.2222-1.1893 2.4899-2.9371 0.44982-2.9371-1.5916 0-2.2367-1.8103-2.4703-6.9319-0.1499-3.2859-0.0774-3.3602 1.7043-1.7478 1.0235 0.92624 2.146 1.3989 2.4946 1.0504 1.1051-1.1051-1.2904-4.3707-3.2062-4.3707-2.0813 0-3.4603-4.6758-2.5033-8.4886 0.31656-1.2613 0.0891-2.5939-0.50546-2.9613-0.59457-0.36746-1.081-1.6916-1.081-2.9424s-0.29746-2.5718-0.66102-2.9353-0.75936-1.9011-0.87955-3.4167c-0.12019-1.5156-0.57577-3.8806-1.0124-5.2556-0.71934-2.2653-0.6345-2.3693 0.90371-1.1075 0.93367 0.76588 1.9482 1.1419 2.2544 0.83565 0.88113-0.88113-1.455-4.5774-3.6281-5.7404-1.0874-0.58195-1.9771-1.9467-1.9771-3.0327s-0.9-2.7452-2-3.6871c-2.0704-1.7728-2.6975-4.268-1.0726-4.268 0.51008 0 1.7476 1.0364 2.75 2.3032s2.5761 2.5896 3.497 2.9396c2.4321 0.92445 5.1667 7.262 4.419 10.241-0.34499 1.3746-0.0115 3.973 0.74114 5.7742 1.231 2.9462 2.2474 7.9188 3.2848 16.071 0.72714 5.7138 2.4213 6.165 4.3824 1.167 0.93573-2.3848 1.6294-3.1036 2.1713-2.25 1.1614 1.8292 1.0028 2.7543-0.47213 2.7543-2.1202 0-3.7009 6.1168-3.7009 14.321 0 5.4684 0.35985 7.6834 1.25 7.6943 0.84746 0.0104 0.76695 0.35694-0.25 1.0761-1.1288 0.79831-1.1907 1.1863-0.25 1.568 1.859 0.75433 1.6117 4.4166-0.25 3.7022-1.4885-0.57119-1.9574 0.90555-1.5523 4.8884 0.0979 0.9625-0.30027 1.75-0.88484 1.75s-1.0629-0.9835-1.0629-2.1856zm6.4411 0.71735c-1.6476-1.2462-1.6927-1.473-0.29812-1.5 0.90366-0.0175 1.902 0.6432 2.2186 1.4682 0.71506 1.8634 0.5057 1.8669-1.9205 0.0318zm-334.44-1.4728c0-0.51754 0.44485-1.2159 0.98855-1.5519 0.56686-0.35034 0.73451 0.0511 0.39301 0.94098-0.66479 1.7324-1.3816 2.0494-1.3816 0.61096zm10-2.6424c0-0.87084 0.53438-1.4052 1.1875-1.1875 1.8542 0.61807 2.1618 2.7708 0.39583 2.7708-0.87083 0-1.5833-0.7125-1.5833-1.5833zm268.02 0.0592c0.69572-0.83829 1.4709-1.3182 1.7226-1.0665 0.69349 0.6935-0.71555 2.5907-1.9241 2.5907-0.6631 0-0.58723-0.57378 0.20152-1.5242zm-95.02-2.3578c0-0.55 0.45-1.2781 1-1.618s1-0.16803 1 0.38197-0.45 1.2781-1 1.618-1 0.16803-1-0.38197zm153-0.55901c0-0.85746 0.45-1.559 1-1.559s1 0.42344 1 0.94098-0.45 1.2191-1 1.559-1-0.0835-1-0.94098zm-329.33-2.2257c-0.36667-0.36666-0.66667-1.1317-0.66667-1.7 0-0.6266 0.46577-0.56756 1.1833 0.15 0.65083 0.65084 0.95083 1.4158 0.66667 1.7-0.28417 0.28417-0.81667 0.21667-1.1833-0.15zm328.69-4.8848c-0.13508-2.3372-0.0381-2.4007 1.1613-0.76032 0.71978 0.98436 1.097 2.1322 0.83836 2.5508-0.94028 1.5214-1.8556 0.70179-1.9997-1.7905zm-149.35 0.55149c0-0.55 0.47656-1 1.059-1s0.7809 0.45 0.44098 1-0.81648 1-1.059 1-0.44098-0.45-0.44098-1zm174.48-0.93207c0.40021-1.261-3e-3 -2.2623-1.1763-2.9187-0.99782-0.55841-1.3979-1.3632-0.90692-1.8242 0.48321-0.45375 1.0795-0.2625 1.325 0.425 0.48757 1.3652 2.8608 1.7011 3.5325 0.5 0.23069-0.4125 0.26819-0.1507 0.0833 0.58179-0.18485 0.73248-0.3361 1.9218-0.3361 2.643s-0.70443 1.5815-1.5654 1.9119c-1.1875 0.45568-1.4183 0.1373-0.95617-1.3188zm-358.48-0.50891c0-0.85746 0.45-1.559 1-1.559s1 0.42344 1 0.94098-0.45 1.2191-1 1.559-1-0.0835-1-0.94098zm336-1.059c0-0.825 0.45-1.5 1-1.5s1 0.675 1 1.5-0.45 1.5-1 1.5-1-0.675-1-1.5zm-340.83-0.5c0.18333-0.55 0.78333-1 1.3333-1s1.15 0.45 1.3333 1c0.18333 0.55-0.41667 1-1.3333 1s-1.5167-0.45-1.3333-1zm336.83-5.5c0-0.825 0.17686-1.5 0.39301-1.5 0.21616 0 0.65203 0.675 0.96862 1.5 0.31658 0.825 0.13972 1.5-0.39301 1.5-0.53274 0-0.96862-0.675-0.96862-1.5zm-153-1.2304c-2.266-0.86489-17-12.403-17-13.313 0-0.43642 1.4625-1.7552 3.25-2.9306 1.7875-1.1754 5.275-4.5505 7.75-7.5002 4.95-5.8994 6-6.5164 6-3.5258 0 1.2645 0.66667 2 1.8129 2 0.9971 0 3.1063 1.35 4.6871 3 3.2494 3.3916 6.9485 3.899 8.4173 1.1546 1.1392-2.1286-1.1008-6.1546-3.4243-6.1546-0.76649 0-1.7535-0.57198-2.1933-1.2711-1.4674-2.3323-5.6002-3.4309-9.2997-2.472-4.8847 1.266-16.451 2.6095-23 2.6715-7.8341 0.0741-15.041-3.4549-18.589-9.1026-1.4946-2.3792-3.6019-5.6172-4.6829-7.1957-1.081-1.5784-2.2644-3.9875-2.6298-5.3536-0.49837-1.8635-3.0285-3.7397-10.131-7.5127-5.207-2.7659-10.817-5.4642-12.467-5.9963-5.4676-1.7632-12.018-5.0526-10.867-5.4574 1.6985-0.59764 18.079 6.2107 25.805 10.726 3.7312 2.1804 7.1278 3.9643 7.5481 3.9643s1.0353-1.2375 1.3668-2.75c0.33146-1.5125 1.4703-3.8528 2.5307-5.2007 1.4966-1.9023 2.2328-2.1978 3.29-1.3204 1.0398 0.86294 1.9491 0.67562 3.8443-0.79194 1.9195-1.4863 2.1817-2.118 1.1564-2.7856-0.98808-0.64333 0.0313-2.0735 4-5.6122 6.7572-6.0249 14.853-9.8596 18.161-8.602 4.1971 1.5957 14.665 10.994 14.665 13.167 0 1.627-0.44749 1.9051-2.25 1.398-1.7085-0.48058-1.896-0.38956-0.77896 0.37824 1.6975 1.1668 1.6743 1.1981-2.971 4.0008-1.925 1.1614-3.0712 2.1133-2.547 2.1154 0.52412 2e-3 -0.73343 1.7308-2.7946 3.8415l-3.7475 3.8378-3.8378-3.8378c-2.4956-2.4956-4.7533-3.8378-6.4554-3.8378-3.7313 0-3.3888 2.8602 0.83233 6.9515 3.3468 3.2438 3.6309 3.3249 9.5 2.7115 5.5486-0.57995 7.6965 0.20136 5.05 1.837-0.55 0.33992-1 1.0518-1 1.5821s1.125 0.22691 2.5-0.67403c1.375-0.90093 2.5-2.231 2.5-2.9557 0-2.5242 7.7322-3.3606 18.041-1.9513 6.0555 0.82786 8.8378 2.8154 17.003 12.147 5.6431 6.4487 6.9879 10.555 4.3953 13.42-1.8756 2.0725-0.64279 2.7364 1.3608 0.73284 1.8984-1.8984 1.5246 1.2915-0.48793 4.1648-1.1971 1.7091-1.3425 2.525-0.5 2.8058 0.65336 0.21779 1.1879 0.79435 1.1879 1.2813 0 0.4869-0.56871 0.66705-1.2638 0.40032-0.69509-0.26673-2.1088 0.98489-3.1415 2.7814-2.7 4.6968-11.844 12.736-16.29 14.322-3.8568 1.3756-11.563 1.7605-14.304 0.71434zm12.968-42.209c1.1453-2.14 0.13249-3.3586-1.7991-2.1648-0.67986 0.42018-0.94773 1.5155-0.59526 2.434 0.81893 2.1341 1.1267 2.0995 2.3944-0.26926zm-24.703-26.658c0.97315-0.97314-0.36299-3.4022-1.8714-3.4022-0.76615 0-1.393 0.6-1.393 1.3333 0 2.2148 1.9088 3.4246 3.2644 2.0689zm-4.2644-3.2111c0-0.44488-0.64286-1.6824-1.4286-2.75-1.3077-1.7769-1.4844-1.7971-2.0886-0.23902-0.36302 0.93617-0.3686 2.1737-0.0124 2.75 0.76011 1.2299 3.5296 1.4174 3.5296 0.23902zm197.75 72.046c-2.9065-0.63725-1.9644-2.237 1.3174-2.237 2.7227 0 2.9874-0.25193 2.3558-2.2422-0.60913-1.9192-0.4939-2.0615 0.79994-0.98767 1.2304 1.0212 1.7617 0.95307 2.8565-0.36605 1.1488-1.3842 1.0587-1.8306-0.61732-3.0602-1.0792-0.79182-2.7498-1.2352-3.7122-0.98541-1.9872 0.51583-2.4108-0.9237-0.5-1.699 0.96255-0.39056 0.92904-0.73145-0.14572-1.4824-1.7124-1.1965-0.73884-4.1771 1.3643-4.1771 0.84226 0 1.5314 0.83115 1.5314 1.847s0.9 2.8847 2 4.153c2.2397 2.5824 2.415 3.7784 1.0714 7.3122-0.96698 2.5434-5.3004 4.5872-8.3214 3.9249zm-26.092-3.788c0.60696-1.5817 2.3421-1.9937 2.3421-0.55606 0 0.49116-0.65208 1.1432-1.4491 1.4491-0.96852 0.37166-1.2647 0.0755-0.89301-0.89301zm21.842-0.44907c0.33992-0.55 0.81648-1 1.059-1s0.44098 0.45 0.44098 1-0.47656 1-1.059 1-0.7809-0.45-0.44098-1zm-3.0411-3.0665c-1.0763-1.7414 0.14952-2.1102 1.5211-0.45764 0.78875 0.95039 0.86462 1.5242 0.20152 1.5242-0.58488 0-1.36-0.47994-1.7226-1.0665zm-17.806-3.151c-0.75102-2.8719-0.36141-3.1458 1.114-0.7833 0.65541 1.0495 0.80204 2.149 0.32583 2.4433s-1.1241-0.45267-1.4399-1.66zm-334.9 0.52825c-1.8038-0.47138-2.4659-2.3107-0.83179-2.3107 1.7303 0 4.0818 1.2138 4.0818 2.107 0 0.93336-0.36927 0.9565-3.25 0.20368zm308.9-3.5434c-0.32113-1.228-0.14861-2.668 0.38337-3.2 0.623-0.623 0.96725-0.39131 0.96725 0.65096 0 0.89002 0.27314 2.33 0.60699 3.2 0.33384 0.86999 0.16133 1.5818-0.38337 1.5818s-1.2531-1.0047-1.5742-2.2328zm45.861-3.7836c0.34546-0.55897 1.047-0.75742 1.559-0.44098 1.387 0.85723 1.1284 1.4573-0.62812 1.4573-0.85746 0-1.2764-0.45734-0.9309-1.0163zm-165.91-3.8275c-0.34605-0.55992-0.1419-1.3192 0.45366-1.6873 1.5375-0.95021 2.5295 0.35135 1.246 1.6348-0.71818 0.71818-1.2775 0.73543-1.6996 0.0524zm162.2-1.3562c0.93333-0.93333 1.4667-0.93333 2.4 0s0.66667 1.2-1.2 1.2-2.1333-0.26667-1.2-1.2zm-333.35-22.887c-0.36954-0.59793-0.17109-1.5879 0.44098-2.2 0.81716-0.81716 1.1129-0.52829 1.1129 1.0871 0 2.4145-0.51946 2.7866-1.5539 1.1129zm295.71-5.3862c-1.7384-1.9103-3.1607-3.868-3.1607-4.3504 0-0.4824-1.35-1.9117-3-3.1762-1.8303-1.4027-3-3.2156-3-4.6496 0-1.2927-0.4395-2.3504-0.97666-2.3504s-1.8872-1.8845-3-4.1878c-2.4256-5.0203-2.4803-5.4363-0.49917-3.7921 1.8316 1.5201 2.9615 0.68796 2.1031-1.549-0.36883-0.96115-1.5324-1.5053-2.8735-1.3438-3.0817 0.37105-6.7537-1.8078-6.7537-4.0074 0-0.9954-0.88851-2.6139-1.9745-3.5967s-2.2413-2.6275-2.5674-3.655c-0.3261-1.0275-1.1463-1.8681-1.8226-1.8681-1.6607 0-8.6356-7.236-8.6356-8.9588 0-0.75598-0.28421-1.0903-0.63158-0.74292-0.34737 0.34736-2.9349-1.3051-5.75-3.6721-6.2686-5.2708-14.105-10.626-15.549-10.626-0.5884 0-1.0698-0.42889-1.0698-0.95308 0-0.5242-1.5689-1.6976-3.4865-2.6075-4.7202-2.2399-9.9035-7.5803-8.312-8.564 0.66162-0.4089 1.5619-0.5216 2.0007-0.25043s0.79775 6e-3 0.79775-0.58904c0-0.96317 4.6844 1.4079 6 3.037 0.275 0.34052 1.625 0.90489 3 1.2542 1.375 0.34926 4.075 2.1263 6 3.949s4.9625 3.9108 6.75 4.6403c3.2372 1.3211 4.7527 3.5975 1.586 2.3823-1.1359-0.43588-1.4293-0.25879-0.9246 0.5579 0.4067 0.65805 1.3346 1.072 2.062 0.91994 1.6824-0.35178 10.527 6.1968 10.527 7.7943 0 0.65953 1.1207 1.9335 2.4905 2.831 1.3698 0.89753 4.5243 3.6656 7.01 6.1513 3.581 3.581 4.3967 5.0083 3.9284 6.874-0.32503 1.295-0.10451 2.6553 0.49005 3.0228 0.61742 0.38159 1.1062-0.1077 1.1398-1.1409 0.0558-1.7154 0.12045-1.7124 1.25 0.0581 0.65515 1.0269 2.8787 3.9437 4.9412 6.4817 2.0625 2.538 3.75 5.0075 3.75 5.4878 0 0.48032 1.3063 2.8088 2.9028 5.1745 1.5966 2.3656 3.2371 5.3545 3.6457 6.6418 0.4086 1.2874 2.0218 4.7046 3.585 7.5938 3.2856 6.0731 2.5433 6.7428-1.9728 1.7798zm-16.161-28.527c0-0.55-0.45-1-1-1s-1 0.45-1 1 0.45 1 1 1 1-0.45 1-1zm-47-43c0-0.55-0.19844-1-0.44098-1s-0.7191 0.45-1.059 1-0.14148 1 0.44098 1 1.059-0.45 1.059-1zm36 72.941c0-0.58246 0.45-0.7809 1-0.44098s1 0.81648 1 1.059-0.45 0.44098-1 0.44098-1-0.47656-1-1.059zm-118-5.941c0-0.55 0.45-1 1-1s1 0.45 1 1-0.45 1-1 1-1-0.45-1-1zm128.69-6.9667c-1.4539-1.6317-3.8752-5.2475-5.3807-8.035-1.7056-3.158-3.5984-5.2844-5.0219-5.6417-1.501-0.37673-2.2846-1.3173-2.2846-2.7423 0-2.0406-8.2577-11.081-15.355-16.81-1.5702-1.2675-3.6271-3.0114-4.5707-3.8753s-4.7214-3.5468-8.395-5.9621c-3.6736-2.4153-6.6793-4.7657-6.6793-5.2231s-0.7875-0.69952-1.75-0.53791c-1.0195 0.17118-1.75-0.33232-1.75-1.2062 0-1.9803 4.9713-1.6716 7.0827 0.4398 0.85811 0.85811 1.9963 1.5602 2.5293 1.5602 1.6055 0 6.8881 4.2872 6.8881 5.5902 0 0.66777 1.2375 1.6631 2.75 2.2118 3.4052 1.2354 14.224 11.601 19.34 18.53 2.0986 2.8424 4.3164 5.7431 4.9285 6.446s2.9458 4.0779 5.186 7.5 4.9891 7.2346 6.1088 8.472c1.6044 1.7733 1.716 2.25 0.52671 2.25-0.82996 0-2.6985-1.335-4.1524-2.9667zm-42.121-17.8c-0.30208-0.30208-0.048-1.1531 0.56454-1.8912 0.61257-0.73811 0.76796-1.342 0.3453-1.342s0.44543-1.125 1.9291-2.5c2.941-2.7256 5.6802-3.5131 3.6308-1.0438-0.66469 0.8009-0.91823 1.9259-0.56342 2.5 0.35481 0.57409 0.16855 1.0438-0.41391 1.0438s-1.059 0.62252-1.059 1.3834c0 1.4114-3.4375 2.8458-4.4334 1.8499zm-66.567-1.2923c0-0.58246 0.45-0.7809 1-0.44098s1 0.81648 1 1.059-0.45 0.44098-1 0.44098-1-0.47656-1-1.059zm51.583-1.8068c-0.43077-0.697-0.51316-1.5373-0.18309-1.8674 0.89497-0.89496 1.8708 0.4213 1.3874 1.8714-0.33872 1.0162-0.57427 1.0154-1.2043-4e-3zm-78.583-1.5118c0-0.20765 0.6853-0.9463 1.5229-1.6414 1.2734-1.0568 1.4197-0.99492 0.89301 0.37756-0.53789 1.4017-2.4159 2.3842-2.4159 1.2639zm73.75-2.7025c-0.9625-0.5606-1.75-1.6757-1.75-2.4781 0-1.2037 0.34632-1.2425 1.9807-0.22183 2.0207 1.262 3.5383 3.8046 2.2379 3.7496-0.39524-0.0167-1.5061-0.48908-2.4686-1.0497zm-6.25-3.9199c-0.33992-0.55 0.11008-1 1-1s1.3399 0.45 1 1-0.78992 1-1 1-0.66008-0.45-1-1zm-70.5-7c0-0.55 0.9-1 2-1s2 0.45 2 1-0.9 1-2 1-2-0.45-2-1zm2-5.559c0-0.85746 0.45-1.2809 1-0.94098s1 1.0415 1 1.559-0.45 0.94098-1 0.94098-1-0.70156-1-1.559zm4-5.441c0-0.55 0.47656-1 1.059-1s0.7809 0.45 0.44098 1-0.81648 1-1.059 1-0.44098-0.45-0.44098-1zm74.36-6.4651c-2.2768-1.3094-5.4268-2.5279-7-2.7078-2.0799-0.23783-2.9476-0.941-3.1799-2.5771-0.17575-1.2375-0.14342-2.25 0.0719-2.25 1.5706 0 9.7477 3.3523 9.7477 3.9962 0 0.44449 1.35 1.2788 3 1.854 1.65 0.57519 3 1.7442 3 2.5978 0 2.0386-0.7057 1.9244-5.6396-0.91312zm-56.34-0.059c0.69572-0.83829 1.4709-1.3182 1.7226-1.0665 0.69349 0.6935-0.71555 2.5907-1.9241 2.5907-0.6631 0-0.58723-0.57378 0.20152-1.5242zm41.48-5.0174c-5.4882-1.3265-12.635-3.8462-14.138-4.9844-1.6791-1.2718-1.3448-1.4135 3.4037-1.4422 5.8423-0.0353 13.243 1.9027 13.219 3.4617-0.0243 1.5967-1.3922 3.229-2.4847 2.9649zm-154.47-2.4194c-0.80907-0.51167-1.2107-1.1907-0.8925-1.5088 0.3182-0.3182 1.1478 0.10733 1.8435 0.94562 1.4426 1.7382 1.166 1.902-0.95098 0.56323zm7.971-13.598c0-0.85746 0.45-1.2809 1-0.94098s1 1.0415 1 1.559-0.45 0.94098-1 0.94098-1-0.70156-1-1.559zm8-6c0-0.85746 0.45-1.2809 1-0.94098s1 1.0415 1 1.559-0.45 0.94098-1 0.94098-1-0.70156-1-1.559zm4 0.67705c0-0.55 0.45-1.2781 1-1.618s1-0.16803 1 0.38197-0.45 1.2781-1 1.618-1 0.16803-1-0.38197zm63-20.118c0-0.55 0.47656-1 1.059-1s0.7809 0.45 0.44098 1-0.81648 1-1.059 1-0.44098-0.45-0.44098-1z" fill="#763d17"/>
</svg>
