<?xml version="1.0" encoding="utf-8"?>
<!-- Generator: Adobe Illustrator 21.1.0, SVG Export Plug-In . SVG Version: 6.00 Build 0)  -->
<svg version="1.1"
	 id="Слой_1" xmlns:cc="http://creativecommons.org/ns#" xmlns:dc="http://purl.org/dc/elements/1.1/" xmlns:rdf="http://www.w3.org/1999/02/22-rdf-syntax-ns#"
	 xmlns="http://www.w3.org/2000/svg" xmlns:xlink="http://www.w3.org/1999/xlink" x="0px" y="0px" viewBox="0 0 907 1133"
	 style="enable-background:new 0 0 907 1133;" xml:space="preserve">
<style type="text/css">
	.st0{fill:#763D17;}
</style>
<path class="st0" d="M230,1130.5v-2.5h20v5h-20V1130.5z M265,1130.5v-2.5h20v5h-20V1130.5z M300,1130.5v-2.5h20v5h-20V1130.5z
	 M335,1130.5v-2.5h20v5h-20V1130.5z M370,1130.5v-2.5h20v5h-20V1130.5z M405,1130.5v-2.5h20v5h-20V1130.5z M440,1130.5v-2.5h20v5
	h-20V1130.5z M475,1130.5v-2.5h20v5h-20L475,1130.5z M510,1130.5v-2.5h20v5h-20V1130.5z M545,1130.5v-2.5h20v5h-20V1130.5z
	 M580,1130.5v-2.5h20v5h-20V1130.5z M615,1130.5v-2.5h20v5h-20V1130.5z M650,1130.5v-2.5h20v5h-20V1130.5z M683.4,1132.1
	c-0.3-0.3-0.5-1.3-0.5-2.3c0-2.1,1.5-2.5,12.3-3.4l7.8-0.6v2.6c0,2-0.5,2.6-2.3,2.6c-1.2,0-5.5,0.4-9.5,0.8
	S683.7,1132.4,683.4,1132.1z M203,1130.6c-7.2-1.1-7.5-1.2-7.2-3.6c0.2-1.4,0.4-2.5,0.5-2.5c0.1,0,4.3,0.6,9.4,1.4
	c8.7,1.3,9.3,1.6,9.3,3.8C215,1132.3,214.7,1132.4,203,1130.6z M717.5,1126c-0.4-1.2-0.5-2.3-0.3-2.5c1-0.9,18-4.6,18.8-4
	c0.6,0.3,1,1.4,1,2.4c0,1.4-1.6,2.1-7.3,3.5c-4,0.9-8.2,2-9.4,2.3C718.7,1128,718,1127.6,717.5,1126L717.5,1126z M177.5,1125.5
	c-0.6-0.2-4.3-1.3-8.3-2.4c-5.7-1.7-7.3-2.5-7.3-4c0-1.1,0.4-2.1,0.8-2.4c0.4-0.3,4.7,0.7,9.5,2.1c7.7,2.3,8.7,2.9,8.7,4.9
	C181,1125.8,180,1126.3,177.5,1125.5L177.5,1125.5z M750.6,1116.3c-0.8-2.1-0.6-2.3,8.8-6.3c7.6-3.3,7.9-3.3,9.3-1.5
	c1.8,2.4,1.4,2.7-7.9,6.4C751.7,1118.5,751.4,1118.5,750.6,1116.3L750.6,1116.3z M137.2,1111c-7.6-3.6-8.2-4.1-7.2-6
	c0.6-1.1,1.3-2,1.5-2c0.2,0,4.2,1.8,8.9,3.9c7.4,3.4,8.5,4.2,8,6C147.6,1115.7,146.8,1115.6,137.2,1111L137.2,1111z M782.2,1102
	c-1.1-1.7-0.9-2.2,1-3.4c1.2-0.8,4.9-3.1,8.1-5.1c5.4-3.4,6-3.6,7.5-2.1c1.5,1.5,1.4,1.8-0.8,3.6c-2,1.7-13.7,8.9-14.4,8.9
	C783.6,1104,782.9,1103.1,782.2,1102L782.2,1102z M107.7,1094.7c-7.8-5.1-8.8-6.6-6.5-8.5c1-0.8,3.2,0.2,8.8,3.9
	c4.1,2.7,7.6,5.3,7.7,5.7c0.1,0.4-0.3,1.5-1,2.4C115.6,1099.7,114.7,1099.3,107.7,1094.7L107.7,1094.7z M811.3,1083.1
	c-1.1-1.7-0.4-2.6,6.4-8.2c7.1-5.8,7.7-6.1,8.9-4.4c0.7,1,1.1,2.2,0.9,2.5c-0.6,0.9-14.1,12-14.6,12
	C812.7,1085,811.9,1084.1,811.3,1083.1L811.3,1083.1z M79.9,1073.3c-7-6.2-7.7-7.4-5.5-9.2c1.2-1,2.5-0.3,7.3,4
	c9.4,8.4,8.8,7.6,7.4,9.4c-0.7,0.9-1.6,1.6-2,1.6C86.6,1079,83.4,1076.4,79.9,1073.3L79.9,1073.3z M837.5,1060.6
	c-2.2-1.6-1.8-2.3,6.1-10.9c4.5-4.9,5.3-5.4,6.8-4.2c2.2,1.6,1.8,2.3-5.5,10.3C839.9,1061.3,839.1,1061.8,837.5,1060.6L837.5,1060.6
	z M55,1047.8c-5.5-6.6-5.9-7.3-4.4-8.5c1-0.7,2-1.3,2.3-1.3s3.2,3.2,6.4,7.1c4.7,5.7,5.6,7.3,4.6,8.5c-0.7,0.8-1.6,1.4-2,1.4
	S58.3,1051.7,55,1047.8z M859.1,1033.6c-0.9-1.1,0-3.1,4.2-9.5c5-7.5,5.5-8,7.3-6.7c1.9,1.4,1.9,1.5,0,4.7
	c-2.9,5.1-8.7,12.8-9.6,12.8C860.6,1035,859.7,1034.4,859.1,1033.6L859.1,1033.6z M36.8,1022.7c-1.9-2.9-4.2-6.7-5.1-8.4
	c-1.6-3.1-1.6-3.2,0.4-4.3c1.2-0.6,2.2-1,2.3-0.8c1.9,2.7,9.6,15.8,9.6,16.2c0,0.3-0.8,1-1.9,1.6
	C40.5,1027.8,39.7,1027.2,36.8,1022.7L36.8,1022.7z M877.2,1004.2c-1-0.6-0.3-2.9,2.7-9.5c2.2-4.8,4.2-8.7,4.4-8.7
	c1.4,0,3.6,1.4,3.6,2.3c0,2.1-7.3,16.7-8.4,16.7C879,1005,877.9,1004.6,877.2,1004.2L877.2,1004.2z M20.4,992.3
	C16.6,983.7,15,979,16,979c0.5,0,1.5-0.2,2.3-0.5c1-0.4,2.5,2,5.1,7.9c2,4.7,3.7,8.7,3.7,9c0,0.3-0.9,1-2,1.6
	C23.2,998,22.7,997.5,20.4,992.3L20.4,992.3z M890.4,972.2c-0.7-0.5-0.1-3.7,1.8-9.9c2.5-8,3.1-9.1,4.8-8.6c2.5,0.7,2.4,3-0.4,11.8
	C894.5,972.2,892.9,974,890.4,972.2L890.4,972.2z M9.1,961.2c-4.2-16-4.1-15.1-1.9-15.8c1.1-0.3,2.2-0.4,2.6,0
	c0.3,0.3,1.6,4.5,2.8,9.3c1.7,6.5,2,8.9,1.1,9.5C11.3,965.7,10.1,964.9,9.1,961.2L9.1,961.2z M899.7,939.3c-1.3-0.3-1.7-1.1-1.3-2.6
	c0.3-1.2,0.8-4.4,1.1-7.2c1.1-9,1.4-9.5,4.1-9.5c2.3,0,2.5,0.3,2,3.5c-0.3,1.9-0.8,5.2-1.1,7.3c-0.9,6.6-1.6,9.3-2.3,9.1
	C901.8,939.8,900.7,939.6,899.7,939.3L899.7,939.3z M2.5,930.1c-0.3-0.5-0.9-5-1.2-10L0.7,911h2.6c2.3,0,2.7,0.4,2.7,3.3
	c0,1.8,0.3,6.3,0.6,10c0.6,6.4,0.5,6.8-1.4,6.8C4.1,931,2.9,930.6,2.5,930.1L2.5,930.1z M902,895v-10h5v20h-5V895z M0,886v-10h5v20
	H0V886z M902,860v-10h5v20h-5V860z M0,851v-10h5v20H0V851z M902,825v-10h5v20h-5V825z M0,816v-10h5v20H0V816z M902,790v-10h5v20h-5
	V790z M0,781v-10h5v20H0V781z M902,755v-10h5v20h-5V755z M0,746v-10h5v20H0V746z M902,720v-10h5v20h-5V720z M0,711v-10h5v20H0V711z
	 M902,685v-10h5v20h-5V685z M0,676v-10h5v20H0V676z M902,650v-10h5v20h-5V650z M0,641v-10h5v20H0V641z M902,615v-10h5v20h-5V615z
	 M0,606v-10h5v20H0V606z M902,580v-10h5v20h-5V580z M0,571v-10h5v20H0V571z M902,545v-10h5v20h-5V545z M0,536v-10h5v20H0V536z
	 M902,510v-10h5v20h-5V510z M0,501v-10h5v20H0V501z M902,475v-10h5v20h-5V475z M0,466v-10h5v20H0V466z M902,440v-10h5v20h-5V440z
	 M0,431v-10h5v20H0V431z M902,405v-10h5v20h-5V405z M0,396v-10h5v20H0V396z M902,370v-10h5v20h-5V370z M0,361v-10h5v20H0V361z
	 M902,335v-10h5v20h-5V335z M0,326v-10h5v20H0V326z M902,300v-10h5v20h-5V300z M0,291v-10h5v20H0V291z M902,265v-10h5v20h-5V265z
	 M0,256v-10h5v20H0V256z M902,231c0-5,0-9.3-0.1-9.8c-0.1-1.4,3.3-1.5,4.2-0.1c0.5,0.7,0.9,5.3,0.9,10.1c0,8.7,0,8.8-2.5,8.8
	C902,240,902,239.9,902,231L902,231z M0.5,221.7c0.4-5.1,0.9-9.5,1.1-9.9s1.3-0.4,2.4-0.1c2.2,0.6,2.4,1.8,1.3,12.5
	c-0.6,6.3-0.8,6.8-3.1,6.8h-2.5L0.5,221.7z M900,205.8c0-0.2-0.7-4.1-1.5-8.8c-1.9-10.9-1.9-11,0.8-11c2.2,0,2.5,0.7,4,9.2
	c0.9,5.1,1.5,9.3,1.4,9.4C904.2,205,900,206.1,900,205.8L900,205.8z M4.1,194.2c0.1-4.4,3.3-16.6,4.4-16.9c0.5-0.2,1.6,0.1,2.3,0.5
	c1.1,0.7,1,2.5-0.5,10c-1.6,8.3-2,9.2-4.1,9.2C4.4,197,4,196.5,4.1,194.2L4.1,194.2z M892.7,171.2c-1-1.7-5.9-17.4-5.5-17.7
	c0.2-0.2,1.3-0.5,2.3-0.7c1.7-0.3,2.5,1,5.1,8.7c2.2,6.3,2.8,9.2,2,9.7C895.2,172.2,893.2,172.2,892.7,171.2L892.7,171.2z
	 M13.8,163.3c-2.2-0.6-2.3-0.2,1.6-10.3c2.7-7.1,3.6-8.4,5.2-8.2c1.1,0.2,2.1,0.5,2.3,0.7c0.5,0.5-6,18.5-6.7,18.4
	C15.8,163.8,14.7,163.6,13.8,163.3L13.8,163.3z M876.7,131.6c-4.3-8-4.6-10.6-1.1-10.6c1.2,0,9.4,14.7,9.4,16.9c0,0.5-0.9,1.1-2,1.4
	C881.4,139.7,880.3,138.4,876.7,131.6L876.7,131.6z M27,131c-1.3-0.8-0.9-2.1,2.5-8.6c4.8-9,5.6-9.9,8-8.1c1.7,1.2,1.5,1.8-2.9,9.5
	c-2.6,4.5-5,8.2-5.4,8.2C28.8,132,27.8,131.5,27,131L27,131z M859,102.6c-2.8-4.1-5.2-7.8-5.2-8.2c0-0.4,0.7-1.2,1.6-1.8
	c1.8-1.1,2.4-0.6,9.2,9.2c3,4.3,3.4,5.5,2.4,6.8c-0.7,0.8-1.6,1.5-2.1,1.5S861.8,106.7,859,102.6L859,102.6z M45,101.5
	c-1.4-1.7,0.4-4.9,7.4-13c3.2-3.7,3.5-3.9,5.1-2.3c1.6,1.6,1.3,2.1-4,9c-3.1,4-6.1,7.5-6.5,7.6C46.6,102.9,45.7,102.4,45,101.5
	L45,101.5z M836.7,75.6c-5.8-6.5-6.5-7.6-5.1-8.7c2.1-1.7,3.4-0.8,10.1,6.7c5.1,5.8,5.2,6.1,3.5,7.7C843.4,82.9,843,82.6,836.7,75.6
	L836.7,75.6z M67,74.5c-1.5-1.8,0.1-3.8,8.3-10.7c4.5-3.8,4.9-3.9,6.5-2.3c1.6,1.6,1.3,2.1-5.3,8.1c-3.8,3.5-7.3,6.4-7.6,6.4
	C68.5,76,67.7,75.3,67,74.5L67,74.5z M813.6,54.9c-2.7-2.2-6-4.8-7.4-5.8c-2.2-1.6-2.3-2.1-1.3-4l1.2-2.2l3.7,2.7
	C820.9,53.8,822,55,820.7,57c-0.7,1.1-1.4,1.9-1.7,1.9C818.7,58.9,816.3,57.1,813.6,54.9L813.6,54.9z M93.1,51.8
	c-1.5-2.3-1.7-2,6.8-8.2c7-5.1,8.5-5.5,9.5-2.9c0.7,1.8,0.7,1.8-10,9.4C94.5,53.8,94.3,53.8,93.1,51.8z M782.4,34.2
	c-7.5-4.3-8-4.9-7.1-7l1-2.2l7.6,4.1c10.2,5.5,10.3,5.6,8.8,8c-0.7,1.1-1.4,1.9-1.7,1.9C790.7,38.9,786.8,36.8,782.4,34.2
	L782.4,34.2z M121.9,32.9c-0.6-1.1-0.8-2.3-0.6-2.7s4.1-2.5,8.6-4.7c6.9-3.3,8.3-3.7,9.1-2.5c0.5,0.8,0.8,1.8,0.7,2.3
	c-0.1,0.4-4,2.8-8.5,5.2C123.3,34.7,123,34.8,121.9,32.9L121.9,32.9z M751.2,19.8c-8-3-9.1-3.9-7.4-6.6c0.6-1,2.6-0.6,9.1,1.8
	c10.4,3.8,10.2,3.7,9,6.1C760.7,23.4,761.3,23.5,751.2,19.8L751.2,19.8z M153.7,19.4c-0.4-0.4-0.7-1.5-0.7-2.4
	c0-2.5,17.8-8.6,18.7-6.4c1.1,2.8-0.5,4-7.8,6.3c-4.1,1.3-7.8,2.5-8.4,2.8C154.9,19.9,154.1,19.7,153.7,19.4L153.7,19.4z
	 M717.9,10.1c-4.2-0.9-7.7-2-7.8-2.4c-0.8-4.3,0.3-4.5,11.3-2.1c6.8,1.5,7.5,1.9,7.5,4C729,12.4,728.5,12.4,717.9,10.1L717.9,10.1z
	 M186.7,9.3C186.3,9,186,7.9,186,7c0-1.3,1.6-2,7.8-3c11.4-1.9,11.7-1.8,12.1,0.7C206,6,206,7,205.8,7c-0.2,0-4.1,0.7-8.8,1.5
	C187.2,10.2,187.5,10.2,186.7,9.3L186.7,9.3z M220.7,3.3c-0.6-2.9,0.8-3.3,10.9-3.3c8.2,0,8.4,0,8.4,2.4c0,2.4-0.2,2.4-9.4,2.8
	C221.5,5.5,221.1,5.4,220.7,3.3L220.7,3.3z M680.2,5.3c-4.9-0.3-5.3-0.5-5.3-3v-2.6l7.7,0.6c4.2,0.4,8.7,0.6,10,0.6
	c1.8,0,2.3,0.5,2.3,2.5C695,6.2,694.6,6.3,680.2,5.3L680.2,5.3z M255,2.5V0h20v5h-20V2.5z M290,2.5V0h20v5h-20V2.5z M325,2.5V0h20v5
	h-20V2.5z M360,2.5V0h20v5h-20V2.5z M395,2.5V0h20v5h-20V2.5z M430,2.5V0h20v5h-20V2.5z M465,2.5V0h20v5h-20V2.5z M500,2.5V0h20v5
	h-20V2.5z M535,2.5V0h20v5h-20V2.5z M570,2.5V0h20v5h-20V2.5z M605,2.5V0h20v5h-20V2.5z M640,2.5V0h20v5h-20V2.5z"/>
</svg>
