<?xml version="1.0" encoding="UTF-8"?>
<!-- Created with Inkscape (http://www.inkscape.org/) -->
<svg width="808" height="852" version="1.1" viewBox="0 0 808 852" xmlns="http://www.w3.org/2000/svg" xmlns:cc="http://creativecommons.org/ns#" xmlns:dc="http://purl.org/dc/elements/1.1/" xmlns:rdf="http://www.w3.org/1999/02/22-rdf-syntax-ns#">
 <metadata>
  <rdf:RDF>
   <cc:Work rdf:about="">
    <dc:format>image/svg+xml</dc:format>
    <dc:type rdf:resource="http://purl.org/dc/dcmitype/StillImage"/>
    <dc:title/>
   </cc:Work>
  </rdf:RDF>
 </metadata>
 <path d="m481.17 759.72c-6.325-1.3262-11.9-2.4218-12.39-2.4346-1.6129-0.0422 0.20511-10.988 2.4203-14.572 2.2449-3.6323 8.3589-7.4508 11.93-7.4508 2.6766 0 2.5751-1.4286-0.37768-5.3167-5.5405-7.2955-13.269-25.952-15.301-36.933-0.67486-3.6483-1.5546-3.4728-5.0138 1-6.58 8.508-13.838 25.494-16.351 38.266-1.0259 5.2147-2.2338 7.7025-6.1744 12.717-6.2022 7.8922-8.8854 8.8327-21.779 7.6336l-9.3157-0.86637-2.296-4.5c-1.2628-2.475-2.3087-5.7671-2.3242-7.3157-0.0574-5.737 4.351-10.625 9.6161-10.662 7.4912-0.053 11.258-8.0496 11.455-24.321 0.0548-4.5104 0.43688-9.3258 0.84901-10.701 1.2891-4.3008 2.3992 6.0938 1.7726 16.597-0.42277 7.0862-1.1908 10.699-3.2503 15.288-3.3912 7.5566-5.5472 9.6795-8.3221 8.1944-3.802-2.0348-6.1571-1.3044-7.7 2.3882-0.79693 1.9073-1.449 3.9208-1.449 4.4743 0 1.4024 5.981 4.5148 9 4.6834 1.375 0.0768 3.8723 0.70708 5.5496 1.4006 3.8461 1.5903 10.843 0.62974 15.342-2.1062 3.239-1.9697 3.2788-2.0748 1.5236-4.0143-1.7441-1.9272-1.734-2.0095 0.31489-2.5453 2.0903-0.54662 2.8268-2.5866 4.8238-13.36 0.35681-1.925 1.9533-5.5644 3.5477-8.0876s2.899-4.8394 2.899-5.1473c0-0.30786 2.475-5.8071 5.5-12.221 3.025-6.4134 5.5-12.137 5.5-12.718 0-0.58165-2.6815-6.5406-5.9588-13.242-5.7661-11.79-10.023-25.394-11.545-36.892-0.36594-2.7651-1.244-5.0414-2.0663-5.357-1.7562-0.67391-1.8936-4.0136-0.18854-4.5819 0.85921-0.2864 1.1727-2.5444 1.0181-7.3333-0.12283-3.8057 0.16241-8.7195 0.63388-10.92 0.65531-3.0579 0.8781-1.0559 0.94592 8.5 0.0946 13.333 1.8938 26.137 5.2695 37.5 2.7588 9.2864 10.111 23.393 14.967 28.715 3.7217 4.0796 3.9657 4.189 5.0974 2.2848 2.9132-4.9022 12.505-13.675 17.572-16.072 7.1245-3.3704 7.8081-2.5002 1.0511 1.3382-6.5269 3.7076-12.555 9.5933-14.58 14.234-2.1331 4.8903-1.8432 14.396 0.63623 20.86 4.484 11.69 16.958 25.395 27.923 30.681 10.739 5.1761 13.725 6.3654 17.725 7.0604 3.6449 0.63327 3.778 0.75839 1.5 1.4093-2.162 0.61775-2.2617 0.81567-0.73773 1.4637 0.96925 0.41214 3.1189 0.55024 4.7769 0.30689 1.8784-0.27568 2.8793-0.0364 2.6556 0.63469-0.70585 2.1176-7.6416 2.3959-11.44 0.45913-2.428-1.2378-3.9828-1.5151-4.7812-0.8525-1.1884 0.98628-5.6999-1.0222-16.851-7.502-5.5175-3.2061-11.794-3.8354-15.97-1.6013-3.0954 1.6562-3.3251 2.8497-0.90213 4.689 1.5409 1.1697 1.557 1.3322 0.13486 1.3602-3.1204 0.0614-7.0168 4.0788-6.6901 6.8978 0.28494 2.4588 0.80388 2.7131 7.8052 3.8244 13.57 2.1539 40.421 2.7044 50.5 1.0352 12.881-2.1331 25.5-5.7054 25.5-7.2186 0-1.4161-3.0668-2.4726-7.2376-2.4934-3.2845-0.0164-26.735-11.376-24.426-11.832 0.88573-0.17499 5.11 1.248 9.3872 3.1623 15.616 6.9888 19.597 8.0843 28.277 7.7826 5.3931-0.18748 8-0.91641 8-2.2369 0-0.5365-2.025-3.1403-4.5-5.7863-6.3082-6.744-5.6277-7.6488 0.90233-1.1999 2.9713 2.9344 5.8651 5.0492 6.4308 4.6996 0.56565-0.34959 0.84989-2.4304 0.63165-4.6241-0.21823-2.1937 9e-3 -4.9989 0.50584-6.2338 0.67912-1.6893 0.91833-0.61691 0.96602 4.3304 0.0734 7.6145 1.5917 9.7102 9.0919 12.549 4.7559 1.8004 23.668 2.5196 31.472 1.1967 2.2-0.37296 3.2125-0.45247 2.25-0.17668s-1.75 0.98273-1.75 1.571c0 0.71681 2.556 0.88019 7.75 0.49538 6.4948-0.48119 12.703-1.9566 26.525-6.304 0.97632-0.30707 1.6513-0.1869 1.5 0.26705-0.53611 1.6083 0.76479 1.7586 3.9179 0.45252 2.2419-0.92862 3.2844-2.0892 3.5-3.8963 0.1985-1.6642 1.4149-3.19 3.442-4.3177 4.479-2.4917 10.982-9.6614 13.527-14.913 1.1992-2.475 3.5445-6.5135 5.2118-8.9744 3.8499-5.6823 4.4817-12.7 2.1705-24.106-2.3434-11.565-10.475-28.202-13.294-27.198-0.75547 0.26906-1.25-0.42282-1.25-1.7487 0-1.2067-2.0929-5.1817-4.6509-8.8333-9.1103-13.005-11.95-19.62-12.971-30.217-0.41049-4.2612-0.22417-7.3425 0.52912-8.75 1.8263-3.4125 3.018-2.5403 1.8278 1.3377-1.484 4.8353 0.49684 15.162 4.5059 23.49 3.5382 7.3499 8.3391 15.616 10.635 18.31 1.4365 1.686 1.6243 1.4467 2.747-3.5 0.6628-2.9203 1.959-8.0096 2.8804-11.31 4.3213-15.476 8.1467-31.701 10.138-43 2.3205-13.167 7.3106-48.225 7.8787-55.354 0.2913-3.6553 0.7579-7.7864 1.0368-9.1802 0.3565-1.7813-1.1384-5.792-5.0318-13.5-9.5876-18.981-14.162-26.957-15.617-27.229-0.7747-0.14494-2.2337 1.1945-3.2421 2.9765-1.6397 2.8975-1.9391 3.0513-2.8325 1.4548-0.73513-1.3136-0.4489-2.9556 1.0835-6.2156 1.1454-2.4367 2.0812-4.9978 2.0794-5.6913 0-0.6935-2.9614-7.7859-6.5771-15.761s-7.4771-16.584-8.5808-19.131c-1.513-3.4916-2.909-5.0306-5.6728-6.2538-2.0163-0.89237-4.791-2.2647-6.166-3.0496-6.8021-3.8829-35.327-17.565-36.619-17.565-2.3008 0-7.69 2.9872-9.6663 5.358-0.98207 1.1781-2.8986 4.167-4.2589 6.642s-2.9994 5.2397-3.6423 6.1437c-0.99597 1.4005 1.3546 4.2119 15.885 19 15.937 16.219 27.235 27.893 50.674 52.356 5.2695 5.5 9.5914 10.412 9.6042 10.917 0.0298 1.1708 4.1462 5.1603-35.926-34.818l-34.984-34.902-6.2342 2.7978c-3.4288 1.5388-7.026 2.8445-7.9938 2.9016s-2.9414 1.6788-4.3858 3.6038c-2.3819 3.1745-10.484 14.954-12.953 18.833-0.55 0.86399-2.6299 3.6975-4.6221 6.2967-2.6423 3.4476-3.9207 4.4272-4.7261 3.6218-0.80544-0.80544-0.22169-2.206 2.1581-5.1779 4.5252-5.6512 24.69-36.112 24.69-37.296 0-0.53208 0.9-1.7819 2-2.7774s2-2.1658 2-2.6006c0-0.72262-11.051-12.633-23.5-25.327-6.9192-7.0554-8.9765-9.5728-7.8234-9.5728 0.54259 0 6.7998 5.8543 13.905 13.009 7.1052 7.1552 13.683 13.253 14.618 13.552 2.1111 0.67313 7.7038-2.0575 10.075-4.919 2.857-3.4479 7.1612-12.997 6.0286-13.374-0.56445-0.18815-2.7762-1.2901-4.9149-2.4487s-6.8136-3.62-10.389-5.4697c-15.106-7.8161-26.142-14.065-27.764-15.722-1.6591-1.6943-1.6033-1.7065 1.2642-0.27615 30.659 15.293 42.281 20.67 43.592 20.167 1.6184-0.62106 9.0304-13.113 10.394-17.518 0.42574-1.375 2.0764-5.0965 3.6681-8.27 3.4371-6.8526 4.1231-5.0021-8.9823-24.23-15.069-22.109-21.7-30.976-23.41-31.306-0.87239-0.16847-6.0134 3.0142-11.425 7.0726s-17.608 13.139-27.104 20.179l-17.265 12.8 0.39784 3.6272c0.6078 5.5414-1.3878 7.1272-8.9693 7.1272h-6.2924l-11.803 8.8304c-40.675 30.432-76.185 56.567-104.8 77.134-7.15 5.1385-13.42 9.7157-13.932 10.172-0.87274 0.77581 4.807 9.9233 6.6421 10.698 0.43458 0.18334 0.79014 0.74788 0.79014 1.2545 0 0.50666 2.1113 3.9567 4.6917 7.6667 7.4911 10.77 2.5527 5.4738-6.2166-6.6673-4.3863-6.0729-8.2001-11.05-8.4751-11.06s-2.75 1.6747-5.5 3.7442c-6.1616 4.6369-137.78 100.27-151.02 109.73-5.2121 3.7241-5.5574 4.2198-5.0065 7.1861 0.57086 3.0736 0.24615 3.4413-9.1916 10.41-5.3808 3.9729-14.283 10.556-19.783 14.628s-11.125 8.229-12.5 9.236c-46.473 34.034-59.97 46.028-64.078 56.945-5.0595 13.446 1.4629 28.476 15.578 35.896 7.2054 3.7882 17.672 3.7893 25.753 3e-3 7.5488-3.5376 15.613-11.291 22.482-21.613 6.9089-10.383 10.459-12.091 17.849-8.5842 4.0073 1.9016 7.4169 6.9719 7.4169 11.029 0 1.5949-1.125 4.5554-2.5 6.5789-1.375 2.0235-2.5 4.0419-2.5 4.4853 0 1.5097-7.0465 10.784-12.281 16.164-11.378 11.693-25.66 18.54-40.489 19.409-3.4486 0.20215-6.7592 0.85645-7.3567 1.454-1.68 1.68-14.145-2.1763-22.619-6.9976-3.9898-2.2705-7.2542-4.3788-7.2542-4.6855s-2.6596-3.3963-5.9102-6.8658c-17.771-18.968-20.637-42.487-8.0539-66.095 6.4527-12.106 9.3771-14.566 63.106-53.084 7.2885-5.225 20.865-15.012 30.171-21.75 15.968-11.562 20.557-13.888 22.187-11.25 0.9265 1.4991 2.9483 1.2099 5.2427-0.75 1.1268-0.9625 5.502-4.225 9.7226-7.25 4.2206-3.025 9.555-6.8978 11.854-8.6062 13.037-9.6865 38.733-28.427 51.68-37.691 5.225-3.7384 10.791-7.7885 12.368-9.0002 1.5776-1.2117 8.3276-6.1456 15-10.964 6.6724-4.8186 17.082-12.35 23.132-16.736s16.175-11.717 22.5-16.29 11.5-8.8365 11.5-9.4737-0.675-2.1263-1.5-3.3091c-1.3171-1.8884-16.008-21.664-22.792-30.68-1.3449-1.7875-2.0219-3.25-1.5043-3.25s6.7585 7.8313 13.869 17.403 13.56 17.684 14.333 18.028 2.348-0.21847 3.5-1.2499c1.9814-1.7739 36.431-26.979 41.25-30.181 1.2417-0.825 21.626-15.367 45.298-32.315 34.244-24.517 43.172-31.364 43.685-33.5 0.35453-1.4767 1.4899-4.3724 2.523-6.4349 1.4616-2.9179 2.4667-3.75 4.5294-3.75 1.458 0 3.4093 0.68633 4.3362 1.5252 1.5367 1.3907 2.9502 0.61938 16.034-8.75 7.8919-5.6513 20.444-14.595 27.893-19.876 7.4495-5.2803 13.685-10.314 13.856-11.186 0.17106-0.87209-2.9475-5.7769-6.9302-10.9-11.177-14.376-22.979-28.958-26.488-32.726l-3.1776-3.4126-15.355 1.7099c-8.4452 0.94047-15.726 2.0806-16.179 2.5336s0.0971 8.1942 1.2226 17.203c2.4639 19.721 2.799 22.645 3.4816 30.379 0.46105 5.2233 0.40932 5.4822-0.39958 2-0.83423-3.5912-7.9862-47.447-7.9862-48.971 0-0.5862-4.4336-0.14023-10.04 1.0099-1.353 0.27756-5.7704 1.033-9.8165 1.6789s-7.562 1.7096-7.8131 2.3641c-0.25112 0.65441 3.2097 8.5117 7.6908 17.461 13.96 27.88 13.31 29.196-0.96838 1.9578-5.0454-9.625-9.5923-17.924-10.104-18.441-0.58163-0.58809-2.7166-0.49812-5.6897 0.23975-2.6173 0.64957-11.059 2.7106-18.759 4.5801-31.024 7.5324-71.571 21.382-103.75 35.439-7.5625 3.3034-13.737 5.7084-13.721 5.3444 0.044-0.99973 27.55-13.308 43.971-19.676 12.305-4.7719 38.526-13.832 55-19.003 2.475-0.77698 12.571-3.4624 22.436-5.9675 9.8651-2.5051 18.129-4.7474 18.364-4.9828 0.23538-0.23539-1.8235-4.614-4.5754-9.7302-13.066-24.292-47.895-95.334-46.236-94.309 0.48605 0.30039 1.5188 1.7747 2.295 3.2763 2.0605 3.9862 15.309 29.386 24.499 46.969 4.3808 8.3816 12.184 23.831 17.341 34.332l9.3755 19.093 4.5-0.60617c2.475-0.3334 9-1.4045 14.5-2.3802l10-1.774-0.15981-4.952c-0.14417-4.4673-3.9282-36.89-4.9097-42.067-0.22055-1.1634-9.2485-10.928-20.062-21.7l-19.661-19.585-2.9439 1.5223c-1.6191 0.83728-3.5782 1.2789-4.3536 0.98136-2.294-0.88031-1.6088-3.5157 1.0903-4.1931 1.375-0.3451 2.5-1.2971 2.5-2.1155 0-1.2571-29.962-32.008-36.705-37.672-1.213-1.0188-4.813-2.4274-8-3.1302s-9.1696-2.0415-13.295-2.9748c-4.125-0.93335-10.425-2.3328-14-3.1098-9.4471-2.0534-41.104-6.3872-51-6.9819-4.675-0.28093-9.625-0.76967-11-1.0861-1.375-0.31643-15.775-0.73616-32-0.93275-16.225-0.1966-29.725-0.44638-30-0.55508-1.8157-0.71768 16.029-1.3326 35.5-1.2234 36.993 0.20758 69.886 3.8357 103.62 11.43 10.219 2.3003 11.123 2.3522 10.7 0.61511-0.60565-2.4839-32.336-28.884-48.674-40.499-11.586-8.2359-16.244-11.341-20.649-13.766-1.65-0.90805-3.675-2.2331-4.5-2.9445-0.825-0.71141-8.025-4.6755-16-8.809-13.146-6.8136-25.845-11.773-41-16.012-11.641-3.2558-31.146-4.8351-32.508-2.6319-0.37288 0.60333-1.2462 0.66514-2.1613 0.15299-0.84461-0.47267-3.2993-0.53689-5.4549-0.14272-4.1177 0.75298-5.9526-0.34625-3.939-2.3598 1.8432-1.8431 30.298-1.3091 50.281 0.94361 5.2144 0.58783 5.6289 0.81102 4.7069 2.5339-0.73932 1.3814-0.66351 1.9988 0.28201 2.2969 0.71121 0.22415 3.7681 1.175 6.7931 2.113 19.867 6.1604 59.918 28.916 77 43.749 0.825 0.71637 4.6414 3.7546 8.4808 6.7517s7.6828 6.1242 8.5408 6.9492 5.1417 4.6459 9.5192 8.4908c10.6 9.3101 47.79 46.172 53.459 52.988 2.475 2.9754 5.2875 5.6902 6.25 6.0329 0.9625 0.34272 1.75 1.0522 1.75 1.5767s13.188 14.107 29.307 30.183c16.119 16.076 31.507 31.704 34.196 34.729 2.6889 3.025 7.1631 7.9762 9.9428 11.003s7.529 8.378 10.554 11.892 6.3355 7.3381 7.3568 8.4973c1.0212 1.1592 8.7093 10.658 17.085 21.108 28.214 35.203 52.456 71.669 73.789 111 8.718 16.073 25.167 50.57 29.201 61.243 1.5059 3.9839 3.1498 7.498 3.6531 7.809s0.9179 1.3265 0.9212 2.2565c0.01 1.8599-0.042 1.7633 9.1896 18.191 11.285 20.083 18.418 34.034 26.076 51 18.46 40.901 27.749 72.056 31.832 106.75 1.183 10.053 2.0306 11.716 4.6407 9.106 0.8588-0.85873 1.041-0.67169 0.7307 0.75-0.2274 1.0417-1.5514 9.319-2.9424 18.394-1.3909 9.075-3.0195 19.2-3.619 22.5-1.3038 7.1766-6.0646 21.5-7.1462 21.5-1.0036 0-1.065 0.28641 1.2383-5.7738 3.1888-8.3896 5.9952-28.186 5.9862-42.226-0.016-25.774-4.5243-49.527-16.131-85-7.8889-24.11-25.96-67.234-27.52-65.674-0.348 0.34809-0.7474 1.8796-0.8873 3.4034-3.189 34.72-9.6508 68.367-20.6 107.27-3.348 11.895-3.3876 13.276-0.475 16.589 1.4574 1.6579 2.5726 2.3203 2.5906 1.5386 0.061-2.631 2.7596 0.76973 4.8903 6.1617 3.1931 8.0803 5.2124 17.209 5.3109 24.009 0.1129 7.7947-0.8059 17.308-1.8302 18.95-0.4296 0.68859-0.8331 2.6812-0.8967 4.4279-0.1581 4.3428-3.1307 8.8279-4.8857 7.3714-1.0172-0.84424-2.2286 0.38002-5.4331 5.4908-2.2681 3.6175-4.1434 6.8888-4.1672 7.2696-0.064 1.0196-10.825 7.8279-15.457 9.7793-19.358 8.1553-51.792 8.7225-72.5 1.2679-3.025-1.0889-6.5042-2.2276-7.7315-2.5305-3.1783-0.78419-7.2685 0.45074-7.2685 2.1946 0 1.0171-1.0633 1.481-3.3947 1.481-1.8671 0-6.2546 0.87236-9.75 1.9386-19.837 6.0509-22.615 6.4978-40.597 6.5303-10.63 0.0192-17.341 0.41466-17.5 1.0312-0.14572 0.5651 3.0039 1.2478 7.2421 1.5698l7.5 0.56984-8.5 0.11481c-5.542 0.0748-12.502-0.72434-20-2.2966zm168-319.58c0-3.832-30.598-56.379-32.829-56.379-0.73724 0-2.3486 2.9147-3.6176 6.5437-1.2586 3.599-3.0554 8.0272-3.993 9.8403-0.9376 1.8131-1.4613 3.9309-1.1638 4.7063s0.11424 1.4097-0.40732 1.4097c-1.0836 0-4.9889 7.2423-4.9889 9.2518 0 0.73232 1.4625 2.0304 3.25 2.8847 5.3598 2.5614 25.692 13.373 34.25 18.212 8.6885 4.913 9.5 5.2146 9.5 3.5301zm-126.5-165.96c6.05-0.62009 11.154-1.2716 11.342-1.4479 0.54288-0.50921-1.098-3.0207-4.3417-6.645-1.65-1.8437-6.6-7.3961-11-12.339-17.424-19.573-21.5-23.202-21.5-19.143 0 0.73893 1.35 10.186 3 20.992s3 19.928 3 20.27 1.9125 0.35537 4.25 0.0305c2.3375-0.32486 9.2-1.098 15.25-1.7181zm-41.769 469.43c0.67703-0.27392 2.027-0.29059 3-0.0371 0.97297 0.25354 0.41903 0.47766-1.231 0.49804-1.65 0.0204-2.4461-0.18706-1.769-0.46099zm247.27 0.37849c0-1.661 2.3801-6.7226 3.1612-6.7226 1.7936 0 0.4556 6.4615-1.4112 6.8151-0.9625 0.18234-1.75 0.14067-1.75-0.0926zm-217-4.7226c0-0.55 0.45-1 1-1s1 0.45 1 1-0.45 1-1 1-1-0.45-1-1zm160.44-0.89967c0.2956-0.47826 2.497-1.1634 4.892-1.5226 2.395-0.35915 5.4381-0.83037 6.7623-1.0472 2.7984-0.45811 12.033-1.2463 23.408-1.9979 4.9644-0.32802 7.2404-0.197 5.9982 0.3453-1.101 0.48065-5.826 1.1697-10.5 1.5312-8.5867 0.66416-23.147 2.2607-28.298 3.1029-1.5399 0.25177-2.5579 0.0665-2.2623-0.41179zm-79.938-7.9817c-4.3542-2.7198-8.9929-7.9627-11.607-13.119-1.2547-2.475-2.869-4.8599-3.5873-5.2997-0.71831-0.43983-1.306-1.9348-1.306-3.3222 0-1.3874-2.4489-7.4347-5.442-13.439-2.9931-6.0038-6.4163-13.588-7.6071-16.854-1.1908-3.266-3.2094-6.9192-4.4858-8.1182s-2.0861-2.7912-1.7995-3.5382c0.28663-0.74693-0.42088-2.681-1.5722-4.2979-1.1514-1.6169-2.0934-3.2519-2.0934-3.6332 0-1.9383-12.255-17.643-22.578-28.934-13.071-14.296-12.562-15.601 0.7125-1.8302 10.021 10.395 18.285 21.272 23.485 30.908 2.0353 3.7717 4.4625 7.7577 5.3939 8.8577s2.4682 4.4383 3.4152 7.4185c0.947 2.9802 4.9089 11.53 8.8042 19 6.5151 12.494 7.29 13.56 9.6746 13.318 2.4784-0.25233 2.5081-0.19821 0.67615 1.2317-3.2782 2.5588-0.46809 8.7562 7.6096 16.782 6.9769 6.9322 7.5512 8.1446 2.3065 4.8686zm13.185-0.13255c-6.7073-2.0203-13.646-10.317-12.068-14.43 0.81435-2.1222 2.3831-1.9669 2.3831 0.23589 0 2.2686 7.5933 9.7512 11.315 11.15 1.5483 0.58195 5.95 1.0581 9.7816 1.0581 11.65 0 22.498-4.6891 30.734-13.286 3.5707-3.7268 8.169-14.85 8.169-19.76 0-1.8587 0.51665-2.9545 1.393-2.9545 0.76616 0 1.6662-0.7118 2-1.5818 2.0762-5.4105-1.3194-16.332-9.716-31.249-2.9935-5.3182-6.4349-11.694-7.6476-14.169-1.2127-2.475-3.49-5.625-5.0607-7-5.4452-4.7668-7.5589-24.588-4.0688-38.154 5.6444-21.939 19.518-34.057 32.6-28.476 2.8393 1.2114 2.6519 1.2764-3.5 1.2149-5.3333-0.0534-7.0664 0.35822-9.6553 2.293-3.3616 2.5122-6.923 8.4718-9.933 16.622-1.0156 2.75-2.8392 6.4744-4.0524 8.2764-4.1082 6.1023-4.4001 24.737-0.50437 32.202 1.0108 1.9368 2.7923 5.3215 3.959 7.5215s2.3477 5.125 2.6246 6.5 3.4254 7.3978 6.9966 13.384c3.5713 5.9862 7.2439 13.186 8.1614 16 0.91748 2.8138 2.0509 5.6027 2.5186 6.1976 0.46776 0.59494 0.47688 5.0949 0.0203 10-1.4826 15.927-8.8377 26.104-24.474 33.864-8.8567 4.3954-9.7952 4.6396-19.236 5.0045-5.4588 0.21099-11.192 2e-3 -12.74-0.46429zm2.8203-13.606-5.9947-5.5302-0.63935 3.126c-1.0203 4.9886-1.8594 4.7561-2.0164-0.55879-0.97457-32.994-7.6462-56.255-19.295-67.272-2.9921-2.8298-5.9171-5.145-6.5-5.145-1.5113 0-1.3099 2.6159 0.46582 6.0497 2.1392 4.1368 0.82653 3.6757-4.0628-1.4271-2.8383-2.9622-4.4106-5.6294-4.8634-8.25-1.0134-5.8654-4.6124-15.214-8.2829-21.516-4.2752-7.3395-12.099-15.474-13.518-14.056-1.3218 1.3218-3.2293 0.62193-8.5468-3.1359-5.4871-3.8777-4.6831-4.6945 1.2172-1.2367 2.5076 1.4695 4.9897 2.4058 5.5158 2.0806 3.7118-2.294 16.412 11.221 22.537 23.982 2.4632 5.1322 4.4785 9.7693 4.4785 10.305s1.158 1.7324 2.5733 2.6597c4.197 2.75 16.757 14.593 19.068 17.981 4.9347 7.231 10.363 28.488 11.272 44.145l0.58581 10.082 6.25 6.2482c5.4638 5.4622 6.9577 7.2158 6 7.0431-0.1375-0.0248-2.9476-2.5337-6.2447-5.5753zm-155.59-29.629c0.38515-4.9286 0.45495-5.047 1.138-1.9305 0.73584 3.3572 0.24879 7.1794-0.91499 7.1805-0.34835 3.4e-4 -0.44873-2.3622-0.22305-5.25zm-29.155-9.2506c-2.1014-8.4696-2.4498-36.601-0.60295-48.689 1.1304-7.3989 1.0766-7.9089-1.4241-13.5-3.6318-8.1202-6.5472-19.228-7.3386-27.961-0.65749-7.2557-0.60449-7.4988 2.469-11.323 1.7275-2.1496 3.1409-4.7816 3.1409-5.8488s2.2154-6.39 4.9232-11.829c2.7078-5.4385 5.2286-11.229 5.6018-12.868 0.37326-1.639 2.2399-8.3801 4.1481-14.98 6.9874-24.168 11.748-34.393 17.16-36.859 4.4407-2.0233 7.2571-4.3226 9.514-7.767 1.4982-2.2865 1.5565-3.3992 0.50119-9.5535-1.0391-6.0596-0.96856-7.6562 0.54234-12.276 1.7621-5.3872 10.553-21.434 11.322-20.666 0.96607 0.96607-1.9115 8.4786-5.0258 13.121-4.4747 6.6703-5.8668 10.896-4.6467 14.105l0.96192 2.53 3.0567-2.1766c3.8244-2.7232 5.208-1.7424 1.5742 1.1159-3.1244 2.4576-6.02 7.5683-4.7372 8.3611 0.4885 0.30191 3.4979-1.0226 6.6875-2.9432 3.1896-1.9207 6.3515-3.4922 7.0264-3.4922 0.67488 0 2.0194-0.30404 2.9877-0.67564 0.96838-0.37161-0.60294 1.6026-3.4918 4.3871-3.5864 3.4568-5.8429 4.9084-7.1138 4.576-2.1751-0.56879-14.77 11.449-17.469 16.669-1.0509 2.0322-2.1792 3.0056-3.0822 2.659-0.89527-0.34355-2.0104 0.5863-3.0014 2.5028-2.496 4.8267-6.5902 17.909-7.3174 23.382-0.51676 3.8889-1.0317 4.9386-2.3175 4.7235-1.9634-0.32842-2.3383 0.20301-3.2988 4.6766-0.63166 2.942-0.50149 3.3124 0.96596 2.7493 0.93279-0.35794 1.5459-0.30889 1.3624 0.10901-0.18346 0.41789-4.1929 8.6307-8.9099 18.251-8.5035 17.342-8.5744 17.55-8.347 24.491 0.12609 3.85 0.5184 7.7154 0.87181 8.5898 0.3542 0.87633-7.8e-4 2.1237-0.79098 2.7795-1.5398 1.2779-1.2206 3.6771 1.6142 12.131 0.82993 2.475 1.7919 5.7375 2.1377 7.25 0.70935 3.1025 1.762 3.4358 3.9478 1.25 2.2542-2.2542 2.6536-1.8292 1.4705 1.5646-0.58759 1.6855-0.81102 4.6503-0.49652 6.5884 0.46177 2.8455 0.2863 3.4142-0.91165 2.9545-3.4848-1.3372-4.8964 12.412-3.2746 31.893 1.0634 12.773 0.82734 24.903-0.38923 20zm103.42-7.0279c-6.964-4.8664-11.961-6.6654-16.173-5.823-1.6812 0.33624-3.0664 0.0598-3.54-0.70654-1.2362-2.0003 12.578-0.47448 17.197 1.8993 4.8397 2.4876 12.361 9.0794 10.339 9.0617-0.825-7e-3 -4.3453-2.0014-7.8229-4.4315zm16.823 0.52787c0-0.55 0.675-1 1.5-1s1.5 0.45 1.5 1-0.675 1-1.5 1-1.5-0.45-1.5-1zm204.08-32.583c0.048-1.165 0.285-1.4019 0.6042-0.60417 0.2889 0.72187 0.2533 1.5844-0.079 1.9167s-0.5686-0.25834-0.5252-1.3125zm0.6523-13.337c-0.435-1.6634-0.3048-2.0538 0.4372-1.3117 0.5811 0.5811 0.8598 1.6468 0.6193 2.3683-0.2496 0.74895-0.7029 0.29565-1.0565-1.0566zm0.259-6.8302c-0.021-7.862-0.9315-31.067-1.5014-38.25-1.7827-22.466-2.272-27.013-4.6283-43-5.7402-38.947-17.387-82.501-31.34-117.2-2.3082-5.7402-3.1713-6.8584-6.0193-7.7984-1.8287-0.60351-3.5755-1.7505-3.8819-2.5489s-1.4712-1.4516-2.5884-1.4516c-1.8408 0-2.0318 0.63322-2.0354 6.75-0.01 15.153-4.7046 34.811-11.71 49.024-5.1439 10.437-7.087 11.94-2.431 1.8808 3.4063-7.3594 8.6231-23.882 9.6791-30.655 0.3859-2.475 0.9155-5.4 1.177-6.5 0.9492-3.9927 1.1082-31.164 0.2195-37.5-3.9989-28.51-12.125-51.164-24.651-68.716-4.8525-6.8-17.312-22.287-21.003-26.105-0.70245-0.72678-1.2611-1.6268-1.2415-2 0.0702-1.3337 15.575 15.54 21.44 23.332 11.294 15.007 19.998 33.281 24.047 50.489 0.9706 4.125 3.5148 11.007 5.6538 15.294 5.076 10.172 15.357 34.909 21.141 50.866 14.687 40.517 24.615 86.157 29.115 133.84 0.8747 9.2695 1.8654 54 1.1959 54-0.3461 0-0.6336-1.6875-0.639-3.75zm-253.49-19.369c-4.4-3.3595-9.8705-7.9096-12.157-10.111-2.3559-2.2688-4.6494-3.6986-5.294-3.3002-1.7907 1.1067-5.8341-2.1273-8.0222-6.4163-2.6684-5.2306-3.7191-5.6912-6.6662-2.9226-1.3818 1.2981-3.891 2.4106-5.6352 2.4983-3.4891 0.17548-6.782 3.5298-8.5936 8.7539-0.96583 2.7852-1.02 2.5854-0.50894-1.8753 0.52031-4.5411 1.116-5.4906 6.5876-10.5 6.8599-6.2805 11.257-9.0074 14.524-9.0074 3.0318 0 2.8846 2.3969-0.2344 3.818-4.037 1.8394-4.0488 1.8231 9.8369 13.563 3.3897 2.8659 8.5958 7.1261 11.569 9.4672 7.9993 6.2984 14.499 12.153 13.485 12.146-0.48993-3e-3 -4.4908-2.7541-8.8908-6.1136zm17.544-4.881c-0.14069-1.375-0.182-3.6632-0.0918-5.0848 0.13535-2.1332-1.1126-3.5162-7.1437-7.9167-4.0192-2.9325-9.2204-6.1779-11.558-7.212-2.3377-1.0341-4.2503-2.309-4.2503-2.8333 0-0.52427-0.9-0.95321-2-0.95321s-2-0.45-2-1c0-2.4889 11.743 1.0413 18.498 5.561 2.8911 1.9344 5.3699 2.9715 5.8808 2.4606 1.109-1.109-1.4243-10.022-2.8484-10.022-0.56837 0-2.1395-2.1375-3.4915-4.75-1.3519-2.6125-5.5487-7.7875-9.3261-11.5-6.5441-6.4316-7.7497-8.5657-2.9331-5.1921 1.2233 0.85687 2.6748 1.2795 3.2254 0.93918 1.1374-0.70293 10.995 4.3732 10.995 5.6618 0 0.46259 0.48063 0.84107 1.0681 0.84107 0.68236 0 0.87628-1.7224 0.53699-4.7694-0.93014-8.3532-2.5012-11.805-14.059-30.886-3.061-5.0537-4.022-7.4682-3.2712-8.219 1.3461-1.3461 13.218 19.552 16.29 28.677 1.1673 3.4664 2.5301 6.3215 3.0285 6.3446 0.49839 0.0231 1.3384-1.3565 1.8667-3.0657 0.98278-3.1798 3.2867-3.7461 2.7328-0.67171-0.26047 1.4457 0.26697 1.6057 3.5 1.062 7.1638-1.2047 10.209-2.5961 13.242-6.0511 3.7334-4.2521 4.4858-7.0489 3.7678-14.005-0.5198-5.0364-0.3498-5.6151 2.4809-8.4458 2.8596-2.8596 3.0558-3.5535 3.324-11.754 0.32237-9.8572-1.8111-16.735-6.2822-20.252-3.8077-2.9952-4.9098-2.4629-5.486 2.6496-0.65366 5.7993-4.9896 12.15-10.285 15.064-4.9098 2.7017-9.4556 3.909-9.4556 2.5112 0-0.56592 1.2375-1.3269 2.75-1.6911 6.3026-1.5176 17.418-12.662 15.02-15.06-1.0075-1.0075-18.941 8.2817-22.612 11.713-4.7865 4.4734-6.4862 8.4417-5.7903 13.519 0.32654 2.3823 0.38645 4.3315 0.13315 4.3315s-1.3697-1.7821-2.4809-3.9602c-1.3444-2.6352-2.0203-5.914-2.0203-9.7998 0-10.463 7.1008-17.796 18.212-18.806 5.6766-0.51603 5.0712 0.0355-3.2671 2.9761-6.2961 2.2204-11.666 7.9394-12.525 13.34-0.85946 5.4039 0.82558 5.6479 3.4529 0.5 2.6673-5.2261 4.3164-6.4822 15.127-11.522 5.225-2.4359 10.353-5.3917 11.396-6.5685 1.8896-2.1324 1.8828-2.1453-2-3.8077-4.8971-2.0966-19.273-3.0235-22.242-1.434-2.1758 1.1645-3.0003 4.0822-1.1535 4.0822 0.55 0 1 0.45 1 1 0 1.7044-4.0555 1.1015-6.7271-1-1.3984-1.1-3.6069-2-4.9077-2-4.5602 0-2.3152-1.6191 2.3849-1.72 2.6125-0.0561 6.423-0.81702 8.4679-1.691 2.0448-0.87396 4.8948-1.589 6.3333-1.589 4.17 0 2.3455-2.2681-2.9012-3.6066-6.0858-1.5525-7.4079-2.7332-8.6892-7.7599-2.0499-8.0422-4.3057-15.171-5.7384-18.134-3.5017-7.2418-9.8441-10.785-12.098-6.7583-0.53608 0.95792-1.2231 1.4933-1.5267 1.1897-1.2715-1.2715 2.6409-4.9313 5.2716-4.9313 5.1836 0 9.2543 6.041 13.535 20.085 3.3114 10.866 5.0825 12.556 16.288 15.549 5.3214 1.421 10.716 3.6646 13.777 5.7301 2.7669 1.8671 6.3009 3.6907 7.8532 4.0525 3.5423 0.82557 7.3964 8.6763 8.7581 17.84 0.51024 3.4338 1.3541 8.0433 1.8752 10.243 0.87422 3.6905 0.73893 4.1664-1.7487 6.1509-2.5158 2.007-2.5881 2.2746-1.0801 4 4.5394 5.1937 4.4237 5.8664-2.3311 13.549-9.9363 11.302-9.9292 11.296-16.296 12.695-3.3 0.72516-6.7875 2.0151-7.75 2.8664-1.4381 1.272-1.7559 1.2975-1.7833 0.14298-0.0221-0.93223-0.65176-0.66407-1.8714 0.79695-2.2573 2.7041-1.9778 8.1034 0.86777 16.763 1.0906 3.3192 2.2298 8.6822 2.5314 11.918 0.59347 6.3671 3.7545 11.522 9.6321 15.707 4.471 3.1836 2.7286 3.448-3.6073 0.54731-5.9799-2.7377-6.0991-2.6877-6.8265 2.8625-0.35216 2.6871-0.41984 2.7393-0.64896 0.5zm-89.029-4.75c-8e-3 -1.2375 0.43469-2.25 0.98469-2.25 1.2529 0 1.2529 1.0612 0 3-0.78387 1.213-0.9723 1.0694-0.98469-0.75zm31.913-29.75c-1.0076-2.1161-1.4268-6.7564-1.4226-15.75 3e-3 -7.0125-0.22176-12.748-0.5-12.746-1.201 9e-3 -6.805 4.0006-10.327 7.356-4.0484 3.8567-4.6788 4.2176-4.6788 2.6781 0-1.484 10.967-13.448 13.049-14.236 1.1001-0.41618 2.2878-2.4365 2.9393-5 2.299-9.0465 5.4583-16.124 10.231-22.92 2.7218-3.8757 5.1813-6.8141 5.4656-6.5298s-0.59705 2.009-1.9586 3.8326c-3.3625 4.5037-4.4463 6.7319-7.8244 16.087-3.93 10.883-3.8384 12.368 0.85016 13.773 3.6341 1.0888 10.919 6.6178 9.9704 7.5668-0.25755 0.25756-2.6282-0.68015-5.2681-2.0838-2.6399-1.4036-5.5801-2.3044-6.5337-2.0018-0.95364 0.30267-2.4896 2.439-3.4132 4.7475-1.7442 4.3592-1.54 10.39 0.65527 19.349 0.55543 2.2669 0.82634 5.1919 0.60202 6.5-0.39918 2.3279-0.43822 2.3146-1.8364-0.62158zm27.205-21.417c-7.7356-4.7582-9.9152-6.6926-5.7821-5.132 2.8905 1.0915 13.649 7.9068 13.649 8.6464 0 0.99724-1.9427 0.12932-7.8667-3.5145zm18.321-21.34c-0.6843-1.7832 1.1696-6.7426 2.5205-6.7426 1.4991 0 1.2508 1.5675-0.47525 3-2.354 1.9537-1.783 3.2878 1.0979 2.5648 1.8833-0.47268 2.4806-0.29621 2.1717 0.64159-0.598 1.8151-4.6666 2.2256-5.3148 0.53621zm28.498-5.8311c-0.61474-1.1487-2.7079-3.8487-4.6516-6-1.9436-2.1513-3.058-3.9115-2.4765-3.9115s1.3468 0.4683 1.7005 1.0407c0.35375 0.57237 1.4437 0.7866 2.4221 0.47607 1.2372-0.39268 2.5818 0.48811 4.4158 2.8926 3.0564 4.0071 3.2544 4.7648 1.0215 3.908-1.2844-0.49286-1.4755-0.17907-0.93261 1.5314 0.87185 2.747-0.0423 2.7852-1.4993 0.0628zm-40.954-9.4176c-1.2312-5.9306-1.0833-8.6339 0.50126-9.1606 0.60499-0.20108 1.0162 2.63 1.0411 7.1671 0.0226 4.1247-0.058 7.4995-0.1791 7.4995-0.12109 0-0.73454-2.4777-1.3632-5.5061zm-10.999-15.549c2.0626-1.4092 10.811-5.9445 11.467-5.9445 0.29328 0 0.53324 0.47476 0.53324 1.055 0 0.58026-2.4878 2.1553-5.5285 3.5-5.691 2.5168-9.2354 3.2778-6.4715 1.3895zm-140.11-59.195c-1.1744-2.2379-1.1692-2.2398 0.96482-0.34501 2.3835 2.1163-37.111-47.045-38.531-47.045-0.53065 0 38.216 48.627 37.566 47.39zm211.61-20.75c-0.33992-0.55-0.16803-1 0.38197-1s1.2781 0.45 1.618 1 0.16803 1-0.38197 1-1.2781-0.45-1.618-1zm-2.5-3.059c0-0.58246 0.45-0.7809 1-0.44098s1 0.81648 1 1.059-0.45 0.44098-1 0.44098-1-0.47656-1-1.059zm109.88-3.8233c-3.4767-3.4767-3.8824-4.4059-3.8824-8.893 0-3.3826 0.45685-5.186 1.406-5.5502 2.2078-0.84721 4.501 2.4409 3.8925 5.5813-0.58018 2.9945 1.0653 5.7442 3.4374 5.7442 1.153 0 1.3391-0.73682 0.82093-3.25-1.8377-8.9123-1.7937-10.513 0.34724-12.654 2.9616-2.9616 5.7835-2.6083 9.5928 1.201 4.9009 4.9009 6.5084 12.632 3.0989 14.902-1.9904 1.3257-4.7233-2.3425-4.0452-5.4296 0.6802-3.0973-0.842-5.7698-3.2866-5.7698-1.1406 0-1.3477 0.76378-0.88123 3.25 1.914 10.2 1.9085 10.459-0.26673 12.634-3.0886 3.0886-5.8566 2.6109-10.234-1.7662zm-108.13-8.807c-0.9625-0.25152-1.75-0.89016-1.75-1.4192 0-0.55395 0.95418-0.46541 2.25 0.20878 3.7503 1.9512 3.6124 2.2851-0.5 1.2104zm92.289-17.238c-1.5599-2.9147-0.55622-4.2502 6.0628-8.0674 7.9569-4.5888 8.32-5.1085 6.1776-8.8413-1.4645-2.5517-1.5397-3.2978-0.44031-4.3704 1.0898-1.0633 1.8318-0.69289 4.1714 2.0826l2.8458 3.376 3.5559-2.1977c4.5776-2.8291 7.9861-2.4284 8.3841 0.98554 0.2412 2.068-0.4682 2.9695-3.8178 4.8521-3.0862 1.7345-3.9368 2.7239-3.4047 3.9601 0.39008 0.90634 0.92167 2.8854 1.1813 4.3979 0.64784 3.774-1.971 3.6597-4.7237-0.2061l-2.1049-2.9561-7.3398 4.4561c-4.0369 2.4508-7.8295 4.4561-8.428 4.4561-0.59849 0-1.5524-0.8674-2.1198-1.9276zm-372.57-12.119c-0.3384-0.54754 0.96134-1.6543 2.8883-2.4594 1.927-0.80515 3.7859-1.9207 4.131-2.479 0.76787-1.2424 4.5094-1.3566 4.5094-0.13759 0 2.1463-10.486 6.7632-11.529 5.0761zm362.2-4.6203c-1.9737-1.9737-0.27081-5.0515 4.6195-8.3495 5.7301-3.8644 6.8604-6.8015 4.6609-12.112-1.617-3.9038-6.4999-7.8723-9.6863-7.8723-1.4222 0-4.7638 1.3977-7.426 3.106-4.948 3.1752-7.3788 3.2461-8.5289 0.2491-0.72074-1.8782 5.1227-7.4363 9.9273-9.4426 10.402-4.3434 25.381 12.419 21.972 24.588-1.4772 5.2729-12.882 12.49-15.539 9.8333zm-25.181-39.481c-9.5587-6.8759-13.36-19.283-7.897-25.775 2.1362-2.5387 3.3253-3.0767 6.7998-3.0767 12.855 0 25.065 20.849 16.663 28.453-2.9556 2.6748-5.0394 1.2218-11.451-7.985-7.2922-10.471-8.6008-11.694-8.6008-8.0406 0 3.6819 2.1385 7.4744 6.3984 11.347 3.5336 3.2124 4.8319 7.2258 2.3375 7.2258-0.69525 0-2.6078-0.96654-4.25-2.1479zm11.523-13.83c-1.4055-3.3933-5.7056-7.555-8.7593-8.4776-1.2375-0.37386-2.25-0.40046-2.25-0.0591 0 0.34134 2.5839 4.0842 5.7419 8.3174 4.9343 6.6142 5.7897 7.367 6.082 5.3518 0.18705-1.2897-0.17951-3.5994-0.81457-5.1325zm-344.89 11.33c-0.14693-2.7196-9.3619-30.66-15.947-48.353-7.4165-19.926-18.842-48.039-28.02-68.942-4.4534-10.143-18.717-38.509-18.458-38.768 0.66161-0.66162 24.052 45.744 31.937 64.471 11.206 26.614 22.622 57.947 26.929 73.906 0.86566 3.2079 6.7489 31.747 7.5583 34.739 0.8094 2.9919-3.2304-17.324-3.4618-16.466-0.27032 1.0023-0.46222 0.79249-0.53675-0.58693zm364.63-29.558c-3.4225-3.3659-3.4876-4.7954-0.21862-4.7954 1.3923 0 2.7904-0.675 3.107-1.5 0.31659-0.825 1.1207-1.5 1.787-1.5 0.66624 0 2.9806-1.578 5.143-3.5066 2.1624-1.9286 4.7192-3.7589 5.6816-4.0674 0.9625-0.30845 1.75-0.98344 1.75-1.5 0-1.844 19.655-13.604 20.809-12.451 0.9124 0.91242-9.8211 10.49-12.513 11.165-1.2624 0.31683-2.2952 1.1314-2.2952 1.8102 0 0.67876-1.6677 2.0925-3.706 3.1416-2.0383 1.0491-4.9235 3.0325-6.4116 4.4075-4.1686 3.8519-5.3659 4.7013-7.6475 5.4254-1.331 0.42244-2.2266 1.6689-2.4232 3.3724l-0.31181 2.7022zm-58.55-1.9954c-2.282-2.282-1.1795-4.7697 3.8898-8.7768 3.8738-3.062 5.9772-4.0232 8.8042-4.0232 6.9473 0 17.57 8.9359 14.396 12.11-0.74094 0.74094-2.4552-0.0125-5.7495-2.5271-2.5816-1.9706-5.478-3.5828-6.4366-3.5828s-4.1553 1.8-7.104 4c-5.9558 4.4436-6.1034 4.4966-7.8 2.8zm-9-11c-0.66-0.66-1.2-1.9733-1.2-2.9184s-1.5124-2.6532-3.361-3.7956c-5.4082-3.3425-10.639-12.045-10.639-17.701 0-13.072 17.2-12.856 25.932 0.32568 1.6874 2.5476 3.12 5.5673 3.1834 6.7105 0.0634 1.1432 0.18219 2.7536 0.26389 3.5786 0.3397 3.4304-1.8455 7.2041-6.3603 10.984-5.193 4.3478-5.9973 4.6375-7.8189 2.8158zm7.7167-12.948c1.3355-2.3908 1.293-3.0606-0.43719-6.8975-3.0621-6.7905-11.071-10.22-14.908-6.3831-2.0191 2.0191-1.9898 4.7448 0.0985 9.1455 3.3571 7.0745 12.257 9.4882 15.247 4.1351zm50.072 8.8867c-2.8951-5.1851-10.802-16.334-16.835-23.739-5.3335-6.5458-22.274-23.501-26.99-27.015-1.835-1.3669-3.86-2.9411-4.5-3.4982-0.64-0.55713-2.4682-1.9071-4.0627-3-28.921-19.823-56.245-28.029-89.935-27.011-6.5085 0.19674-11.628 0.15191-11.376-0.0996 1.671-1.671 24.918-2.4418 36.21-1.2006 8.5608 0.94099 19.163 3.3014 33.25 7.4024 1.2375 0.36027 2.2488 0.26505 2.2474-0.2116-3e-3 -0.90086-12.688-12.112-22.087-19.519-2.9758-2.3453-6.3105-5.0972-7.4105-6.1152-6.7078-6.2082-34.558-25.88-57-40.261-12.2-7.8176-32.15-18.89-50-27.749-29.248-14.517-69.358-29.572-93.841-35.223-6.8104-1.572-8.9958-2.9753-3.1586-2.0282 4.4296 0.71872 13.129 3.0996 27.5 7.5262 5.225 1.6094 11.75 3.5651 14.5 4.346 19.528 5.5447 77.285 32.893 99.5 47.113 1.925 1.2322 5.975 3.8108 9 5.73 14.825 9.4059 26.514 17.353 36.708 24.955 6.1646 4.5974 12.182 9.0339 13.373 9.8589s2.6716 1.9742 3.2917 2.5537c0.62011 0.57956 4.7275 3.9009 9.1275 7.3807 4.4 3.4798 8.225 6.6057 8.5 6.9463s3.4086 3.0943 6.9635 6.1193c3.5549 3.025 7.6049 6.5657 9 7.8682 4.8178 4.4982 10.56 8.7445 17.036 12.599 14.729 8.7656 33.03 25.313 45.829 41.437 6.2628 7.8899 18.798 27.802 18.003 28.598-0.26184 0.26184-1.5411-1.4314-2.8428-3.7627zm-87.489-32.128c-4.3962-1.9205-8.8323-5.956-11.027-10.031-1.0603-1.9689-2.1945-3.5798-2.5204-3.5798-0.32592 0-2.4326 1.575-4.6816 3.5-4.7094 4.0311-6.7374 4.3657-8.3376 1.3756-1.0262-1.9174-0.27449-2.9733 7.7148-10.837 4.9642-4.8859 10.076-9.016 11.639-9.404 8.8211-2.1896 21.523 8.2384 22.993 18.877 1.2237 8.856-6.8293 14.01-15.781 10.099zm7.6713-6.2661c4.3321-3.9205 0.44692-12.935-6.8974-16.004-3.6805-1.5378-6.4899-0.67434-8.1996 2.5202-2.0263 3.7861 2.0473 11.413 7.322 13.709 4.1211 1.794 5.5905 1.7513 7.775-0.22562zm-79.671-45.345c2.7491-1.1813 4.328-1.1813 2.5 0-0.825 0.53316-2.175 0.94464-3 0.9144-0.98906-0.0362-0.81874-0.34772 0.5-0.9144zm-278.9-47.844c-0.34605-0.55992-0.1419-1.3192 0.45366-1.6873 1.5375-0.95021 2.5295 0.35135 1.246 1.6348-0.71818 0.71818-1.2775 0.73543-1.6996 0.0524zm3.6263-1.3249c0.23871-0.71611 2.1273-1.432 4.1969-1.5908 2.6932-0.20667 3.6439 0.0734 3.3442 0.98536-0.23028 0.70077-2.1189 1.4166-4.1969 1.5908-2.7571 0.23107-3.661-0.0353-3.3442-0.98537zm50.51-5.9554c0.67834-0.68342 1.4852-0.99067 1.7931-0.68278s-0.24711 0.86705-1.2333 1.2426c-1.4252 0.54268-1.5401 0.42782-0.5598-0.5598zm10.079-0.55902c0.72187-0.28887 1.5844-0.25335 1.9167 0.0789 0.33229 0.33229-0.25834 0.56864-1.3125 0.52522-1.165-0.048-1.4019-0.28494-0.60417-0.60416zm-40.771-11.626c-0.0229-0.44475 1.2945-2.4713 2.9276-4.5034 5.4677-6.8038 15.829-26.33 20.606-38.834 2.6019-6.8098 4.8828-12.229 5.0687-12.044 0.18585 0.18584-0.81364 4.3545-2.2211 9.2636-2.9349 10.237-8.7031 22.752-14.895 32.316-4.4159 6.8211-11.413 15.228-11.486 13.801zm91.458-59.691c-0.78218-1.2656 0.54163-1.2656 2.5 0 1.2927 0.8354 1.2663 0.97149-0.19098 0.98469-0.93004 8e-3 -1.9691-0.43469-2.309-0.98469zm-4.6875-0.68311c0.72187-0.28887 1.5844-0.25335 1.9167 0.079 0.33229 0.33229-0.25834 0.56864-1.3125 0.52522-1.165-0.048-1.4019-0.28494-0.60417-0.60417z"/>
</svg>
